<svg width="190" height="190" viewBox="0 0 190 190" fill="none" xmlns="http://www.w3.org/2000/svg">
    <g opacity=".5">
        <circle cx="95" cy="95" r="95" fill="#fff" fill-opacity=".2"/>
        <circle cx="95" cy="95" r="95" fill="#075BBA" fill-opacity=".09"/>
    </g>
    <path d="M77.5 99h27L93 106H65.5l12-7Z" fill="#fff"/>
    <path d="M77.5 99h27L93 106H65.5l12-7Z" fill="#075BBA" fill-opacity=".5"/>
    <path d="M78 100h2l-9.5 6H68l10-6Z" fill="#fff"/>
    <path d="M78 100h2l-9.5 6H68l10-6Z" fill="#075BBA" fill-opacity=".8"/>
    <path d="M82 100h2l-9.5 6H72l10-6Z" fill="#fff"/>
    <path d="M82 100h2l-9.5 6H72l10-6Z" fill="#075BBA" fill-opacity=".8"/>
    <path d="M86 100h2l-9.5 6H76l10-6Z" fill="#fff"/>
    <path d="M86 100h2l-9.5 6H76l10-6Z" fill="#075BBA" fill-opacity=".8"/>
    <path d="M90 100h2l-9.5 6H80l10-6Z" fill="#fff"/>
    <path d="M90 100h2l-9.5 6H80l10-6Z" fill="#075BBA" fill-opacity=".8"/>
    <path d="M94 100h2l-9.5 6H84l10-6Z" fill="#fff"/>
    <path d="M94 100h2l-9.5 6H84l10-6Z" fill="#075BBA" fill-opacity=".8"/>
    <path d="M98 100h2l-9.5 6H88l10-6Z" fill="#fff"/>
    <path d="M98 100h2l-9.5 6H88l10-6Z" fill="#075BBA" fill-opacity=".8"/>
    <path d="M104.5 99v13.5L93 120v-14l11.5-7Z" fill="#fff"/>
    <path d="M104.5 99v13.5L93 120v-14l11.5-7Z" fill="#075BBA" fill-opacity=".8"/>
    <path fill-rule="evenodd" clip-rule="evenodd"
          d="M39 140a2 2 0 0 1-2-2v-17a1 1 0 0 1 1-1h29v20H39Zm28 0h-2.265c.77 0 1.533-.111 2.265-.327V140Z"
          fill="#fff"/>
    <path fill-rule="evenodd" clip-rule="evenodd"
          d="M39 140a2 2 0 0 1-2-2v-17a1 1 0 0 1 1-1h29v20H39Zm28 0h-2.265c.77 0 1.533-.111 2.265-.327V140Z"
          fill="#075BBA" fill-opacity=".5"/>
    <path d="M93 124v-18l-26 15.5v18.173a7.984 7.984 0 0 0 1.883-.832L93 124Z" fill="#fff"/>
    <path d="M93 124v-18l-26 15.5v18.173a7.984 7.984 0 0 0 1.883-.832L93 124Z" fill="#075BBA" fill-opacity=".6"/>
    <path d="M59 106h34l-24.072 14.813A8 8 0 0 1 64.736 122H38.933c-1.932 0-2.63-2.549-.968-3.535L59 106Z" fill="#fff"/>
    <path d="M59 106h34l-24.072 14.813A8 8 0 0 1 64.736 122H38.933c-1.932 0-2.63-2.549-.968-3.535L59 106Z"
          fill="#075BBA" fill-opacity=".3"/>
    <path
        d="M69.412 186.514a94.215 94.215 0 0 1-11.107-3.861 164.669 164.669 0 0 0 3.916-1.654c9.64-4.225 16.47-8.404 19.96-11.862 1.794-1.777 2.2-2.87 2.247-3.243.01-.081.002-.089-.002-.093l-.002-.003c-.023-.045-.165-.288-.686-.652-1.119-.784-3.352-1.687-7.25-2.361-3.818-.659-8.897-1.044-15.413-1.044-13.384 0-22.511-1.054-28.23-3.004-2.845-.969-5.318-2.314-6.93-4.301-1.798-2.214-2.206-4.832-1.51-7.327.627-2.249 2.086-4.212 3.66-5.835 1.62-1.67 3.645-3.266 5.84-4.748 4.393-2.968 9.835-5.726 15.053-7.898a4 4 0 1 1 3.075 7.386c-4.884 2.033-9.82 4.554-13.65 7.141-1.918 1.295-3.466 2.545-4.576 3.69-1.156 1.192-1.584 2.011-1.697 2.415-.013.048-.023.072-.028.085-.003.008-.003.013-.003.013l.004.002c.007.003.02.007.042.034.246.302 1.082 1.015 3.3 1.771 4.41 1.503 12.433 2.575 25.65 2.576 6.786 0 12.354.397 16.774 1.161 4.338.75 7.933 1.91 10.476 3.689 2.74 1.918 4.48 4.777 4.041 8.293-.38 3.044-2.321 5.725-4.554 7.937-3.932 3.895-10.368 7.89-18.4 11.693Z"
        fill="#fff"/>
    <path
        d="M69.412 186.514a94.215 94.215 0 0 1-11.107-3.861 164.669 164.669 0 0 0 3.916-1.654c9.64-4.225 16.47-8.404 19.96-11.862 1.794-1.777 2.2-2.87 2.247-3.243.01-.081.002-.089-.002-.093l-.002-.003c-.023-.045-.165-.288-.686-.652-1.119-.784-3.352-1.687-7.25-2.361-3.818-.659-8.897-1.044-15.413-1.044-13.384 0-22.511-1.054-28.23-3.004-2.845-.969-5.318-2.314-6.93-4.301-1.798-2.214-2.206-4.832-1.51-7.327.627-2.249 2.086-4.212 3.66-5.835 1.62-1.67 3.645-3.266 5.84-4.748 4.393-2.968 9.835-5.726 15.053-7.898a4 4 0 1 1 3.075 7.386c-4.884 2.033-9.82 4.554-13.65 7.141-1.918 1.295-3.466 2.545-4.576 3.69-1.156 1.192-1.584 2.011-1.697 2.415-.013.048-.023.072-.028.085-.003.008-.003.013-.003.013l.004.002c.007.003.02.007.042.034.246.302 1.082 1.015 3.3 1.771 4.41 1.503 12.433 2.575 25.65 2.576 6.786 0 12.354.397 16.774 1.161 4.338.75 7.933 1.91 10.476 3.689 2.74 1.918 4.48 4.777 4.041 8.293-.38 3.044-2.321 5.725-4.554 7.937-3.932 3.895-10.368 7.89-18.4 11.693Z"
        fill="#075BBA" fill-opacity=".6"/>
    <path
        d="M138.039 55.828a4 4 0 0 0 3.075 7.385c5.218-2.172 10.66-4.93 15.053-7.898 2.195-1.482 4.22-3.078 5.84-4.748 1.573-1.622 3.032-3.586 3.66-5.835.696-2.494.287-5.112-1.51-7.326-1.612-1.987-4.086-3.332-6.931-4.302-5.718-1.95-14.845-3.003-28.23-3.003-6.515 0-11.594-.385-15.412-1.045-3.899-.674-6.132-1.577-7.251-2.36-.521-.365-.662-.608-.686-.653l-.002-.002c-.004-.005-.011-.013-.001-.093.046-.374.452-1.467 2.246-3.244 3.49-3.457 10.321-7.637 19.96-11.861a170.53 170.53 0 0 1 6.086-2.523 94.35 94.35 0 0 0-10.869-4.106c-9.153 4.131-16.49 8.53-20.808 12.807-2.232 2.211-4.174 4.892-4.554 7.936-.438 3.516 1.302 6.376 4.042 8.293 2.542 1.78 6.137 2.94 10.475 3.69 4.42.763 9.989 1.16 16.774 1.16 13.218 0 21.24 1.073 25.65 2.576 2.219.756 3.055 1.469 3.3 1.771.022.027.036.032.042.034.003 0 .005.002.005.002.002.004-.009.017-.032.099-.112.403-.54 1.222-1.697 2.415-1.11 1.144-2.658 2.394-4.575 3.689-3.83 2.587-8.766 5.109-13.65 7.142Z"
        fill="#fff"/>
    <path
        d="M138.039 55.828a4 4 0 0 0 3.075 7.385c5.218-2.172 10.66-4.93 15.053-7.898 2.195-1.482 4.22-3.078 5.84-4.748 1.573-1.622 3.032-3.586 3.66-5.835.696-2.494.287-5.112-1.51-7.326-1.612-1.987-4.086-3.332-6.931-4.302-5.718-1.95-14.845-3.003-28.23-3.003-6.515 0-11.594-.385-15.412-1.045-3.899-.674-6.132-1.577-7.251-2.36-.521-.365-.662-.608-.686-.653l-.002-.002c-.004-.005-.011-.013-.001-.093.046-.374.452-1.467 2.246-3.244 3.49-3.457 10.321-7.637 19.96-11.861a170.53 170.53 0 0 1 6.086-2.523 94.35 94.35 0 0 0-10.869-4.106c-9.153 4.131-16.49 8.53-20.808 12.807-2.232 2.211-4.174 4.892-4.554 7.936-.438 3.516 1.302 6.376 4.042 8.293 2.542 1.78 6.137 2.94 10.475 3.69 4.42.763 9.989 1.16 16.774 1.16 13.218 0 21.24 1.073 25.65 2.576 2.219.756 3.055 1.469 3.3 1.771.022.027.036.032.042.034.003 0 .005.002.005.002.002.004-.009.017-.032.099-.112.403-.54 1.222-1.697 2.415-1.11 1.144-2.658 2.394-4.575 3.689-3.83 2.587-8.766 5.109-13.65 7.142Z"
        fill="#075BBA" fill-opacity=".6"/>
    <path d="M98 87h34V70.005H98V87Z" fill="#fff"/>
    <path d="M98 87h34V70.005H98V87Z" fill="#075BBA" fill-opacity=".5"/>
    <path d="M102 82h6v3h14v-3h6v-9h-12.5L102 82Z" fill="#075BBA" fill-opacity=".5"/>
    <path d="M154 56.177V73l-22 14V70l22-13.823Z" fill="#fff"/>
    <path d="M154 56.177V73l-22 14V70l22-13.823Z" fill="#075BBA" fill-opacity=".6"/>
    <path d="M132 70H98l24.072-14.813A7.996 7.996 0 0 1 126.264 54h25.803c1.932 0 2.631 2.55.968 3.535L132 70Z"
          fill="#fff"/>
    <path d="M132 70H98l24.072-14.813A7.996 7.996 0 0 1 126.264 54h25.803c1.932 0 2.631 2.55.968 3.535L132 70Z"
          fill="#075BBA" fill-opacity=".3"/>
    <path d="M102 82h6v3h14v-3h6v-9h-26v9Z" fill="#fff"/>
    <path d="M102 82h6v3h14v-3h6v-9h-26v9Z" fill="#075BBA" fill-opacity=".7"/>
    <path d="M108 85v-3l14.5-9h5L108 85Z" fill="#fff"/>
    <path d="M108 85v-3l14.5-9h5L108 85Z" fill="#075BBA" fill-opacity=".8"/>
    <path d="M128 82h-6l6-4v4Z" fill="#fff"/>
    <path d="M128 82h-6l6-4v4Z" fill="#075BBA" fill-opacity=".8"/>
    <path d="m102 82 15-9h-15v9Z" fill="#fff"/>
    <path d="m102 82 15-9h-15v9Z" fill="#075BBA" fill-opacity=".8"/>
    <path fill-rule="evenodd" clip-rule="evenodd"
          d="M32.607 78.976a2 2 0 0 1 1.956-2.043l32.527-.707a2 2 0 0 1 .087 3.999l-32.527.707a2 2 0 0 1-2.043-1.956ZM49.103 40.395a2 2 0 0 1 2.828 0L75.62 64.083a2 2 0 0 1-2.828 2.828L49.103 43.223a2 2 0 0 1 0-2.828ZM86.226 23.9a2 2 0 0 1 2 2v31.819a2 2 0 1 1-4 0v-31.82a2 2 0 0 1 2-2ZM157.393 110.35a2 2 0 0 1-1.956 2.043l-32.527.707a2 2 0 1 1-.087-3.999l32.527-.707a2 2 0 0 1 2.043 1.956ZM140.897 148.931a2 2 0 0 1-2.828 0l-23.688-23.688a2 2 0 0 1 2.828-2.829l23.688 23.688a2 2 0 0 1 0 2.829ZM103.774 165.427a2 2 0 0 1-2-2v-31.82a2 2 0 0 1 4 0v31.82a2 2 0 0 1-2 2Z"
          fill="#075BBA" fill-opacity=".12"/>
</svg>
