<svg width="200" height="201" viewBox="0 0 200 201" fill="none" xmlns="http://www.w3.org/2000/svg">
<g opacity="0.5">
<circle cx="100" cy="100.5" r="100" fill="white" fill-opacity="0.2"/>
<circle cx="100" cy="100.5" r="100" fill="#075BBA" fill-opacity="0.09"/>
</g>
<rect x="46.9785" y="33.1025" width="105" height="136" fill="white"/>
<rect x="46.9785" y="33.1025" width="105" height="136" fill="#075BBA" fill-opacity="0.2"/>
<rect x="111.5" y="49" width="24" height="3.99999" transform="rotate(-180 111.5 49)" fill="white"/>
<rect x="111.5" y="49" width="24" height="3.99999" transform="rotate(-180 111.5 49)" fill="#075BBA" fill-opacity="0.38"/>
<rect x="142" y="57" width="18" height="1.99999" transform="rotate(-180 142 57)" fill="white"/>
<rect x="142" y="57" width="18" height="1.99999" transform="rotate(-180 142 57)" fill="#075BBA" fill-opacity="0.38"/>
<rect x="121" y="57" width="12" height="1.99999" transform="rotate(-180 121 57)" fill="white"/>
<rect x="121" y="57" width="12" height="1.99999" transform="rotate(-180 121 57)" fill="#075BBA" fill-opacity="0.38"/>
<rect x="142" y="65" width="18" height="2" transform="rotate(-180 142 65)" fill="white"/>
<rect x="142" y="65" width="18" height="2" transform="rotate(-180 142 65)" fill="#075BBA" fill-opacity="0.38"/>
<rect x="121" y="65" width="12" height="2" transform="rotate(-180 121 65)" fill="white"/>
<rect x="121" y="65" width="12" height="2" transform="rotate(-180 121 65)" fill="#075BBA" fill-opacity="0.38"/>
<rect x="106" y="65" width="24" height="2" transform="rotate(-180 106 65)" fill="white"/>
<rect x="106" y="65" width="24" height="2" transform="rotate(-180 106 65)" fill="#075BBA" fill-opacity="0.38"/>
<rect x="79" y="65" width="12" height="2" transform="rotate(-180 79 65)" fill="white"/>
<rect x="79" y="65" width="12" height="2" transform="rotate(-180 79 65)" fill="#075BBA" fill-opacity="0.38"/>
<path d="M64 65L57 65L57 63L64 63L64 65Z" fill="white"/>
<path d="M64 65L57 65L57 63L64 63L64 65Z" fill="#075BBA" fill-opacity="0.38"/>
<rect x="57" y="69" width="18" height="2" fill="white"/>
<rect x="57" y="69" width="18" height="2" fill="#075BBA" fill-opacity="0.38"/>
<rect x="78" y="69" width="12" height="2" fill="white"/>
<rect x="78" y="69" width="12" height="2" fill="#075BBA" fill-opacity="0.38"/>
<rect x="93" y="69" width="12" height="2" fill="white"/>
<rect x="93" y="69" width="12" height="2" fill="#075BBA" fill-opacity="0.38"/>
<rect x="108" y="69" width="13" height="2" fill="white"/>
<rect x="108" y="69" width="13" height="2" fill="#075BBA" fill-opacity="0.38"/>
<rect x="124" y="69" width="18" height="2" fill="white"/>
<rect x="124" y="69" width="18" height="2" fill="#075BBA" fill-opacity="0.38"/>
<rect x="142" y="77" width="12" height="2" transform="rotate(-180 142 77)" fill="white"/>
<rect x="142" y="77" width="12" height="2" transform="rotate(-180 142 77)" fill="#075BBA" fill-opacity="0.38"/>
<rect x="127" y="77" width="18" height="2" transform="rotate(-180 127 77)" fill="white"/>
<rect x="127" y="77" width="18" height="2" transform="rotate(-180 127 77)" fill="#075BBA" fill-opacity="0.38"/>
<rect x="106" y="77" width="18" height="2" transform="rotate(-180 106 77)" fill="white"/>
<rect x="106" y="77" width="18" height="2" transform="rotate(-180 106 77)" fill="#075BBA" fill-opacity="0.38"/>
<rect x="85" y="77" width="12" height="2" transform="rotate(-180 85 77)" fill="white"/>
<rect x="85" y="77" width="12" height="2" transform="rotate(-180 85 77)" fill="#075BBA" fill-opacity="0.38"/>
<rect x="70" y="77" width="13" height="2" transform="rotate(-180 70 77)" fill="white"/>
<rect x="70" y="77" width="13" height="2" transform="rotate(-180 70 77)" fill="#075BBA" fill-opacity="0.38"/>
<rect x="142" y="83" width="12" height="2" transform="rotate(-180 142 83)" fill="white"/>
<rect x="142" y="83" width="12" height="2" transform="rotate(-180 142 83)" fill="#075BBA" fill-opacity="0.38"/>
<rect x="127" y="83" width="24" height="2" transform="rotate(-180 127 83)" fill="white"/>
<rect x="127" y="83" width="24" height="2" transform="rotate(-180 127 83)" fill="#075BBA" fill-opacity="0.38"/>
<rect x="100" y="83" width="12" height="2" transform="rotate(-180 100 83)" fill="white"/>
<rect x="100" y="83" width="12" height="2" transform="rotate(-180 100 83)" fill="#075BBA" fill-opacity="0.38"/>
<rect x="85" y="83" width="13" height="2" transform="rotate(-180 85 83)" fill="white"/>
<rect x="85" y="83" width="13" height="2" transform="rotate(-180 85 83)" fill="#075BBA" fill-opacity="0.38"/>
<rect x="69" y="83" width="12" height="2" transform="rotate(-180 69 83)" fill="white"/>
<rect x="69" y="83" width="12" height="2" transform="rotate(-180 69 83)" fill="#075BBA" fill-opacity="0.38"/>
<rect x="57" y="87" width="18" height="2" fill="white"/>
<rect x="57" y="87" width="18" height="2" fill="#075BBA" fill-opacity="0.38"/>
<rect x="78" y="87" width="12" height="2" fill="white"/>
<rect x="78" y="87" width="12" height="2" fill="#075BBA" fill-opacity="0.38"/>
<rect x="93" y="87" width="12" height="2" fill="white"/>
<rect x="93" y="87" width="12" height="2" fill="#075BBA" fill-opacity="0.38"/>
<rect x="108" y="87" width="13" height="2" fill="white"/>
<rect x="108" y="87" width="13" height="2" fill="#075BBA" fill-opacity="0.38"/>
<rect x="124" y="87" width="18" height="2" fill="white"/>
<rect x="124" y="87" width="18" height="2" fill="#075BBA" fill-opacity="0.38"/>
<rect x="142" y="95" width="12.0626" height="1.99999" transform="rotate(-180 142 95)" fill="white"/>
<rect x="142" y="95" width="12.0626" height="1.99999" transform="rotate(-180 142 95)" fill="#075BBA" fill-opacity="0.38"/>
<rect x="126.938" y="95" width="18.0939" height="1.99999" transform="rotate(-180 126.938 95)" fill="white"/>
<rect x="126.938" y="95" width="18.0939" height="1.99999" transform="rotate(-180 126.938 95)" fill="#075BBA" fill-opacity="0.38"/>
<rect x="105.844" y="95" width="18.0939" height="1.99999" transform="rotate(-180 105.844 95)" fill="white"/>
<rect x="105.844" y="95" width="18.0939" height="1.99999" transform="rotate(-180 105.844 95)" fill="#075BBA" fill-opacity="0.38"/>
<rect x="84.7498" y="95" width="12.0626" height="1.99999" transform="rotate(-180 84.7498 95)" fill="white"/>
<rect x="84.7498" y="95" width="12.0626" height="1.99999" transform="rotate(-180 84.7498 95)" fill="#075BBA" fill-opacity="0.38"/>
<rect x="69.687" y="95" width="13" height="2" transform="rotate(-180 69.687 95)" fill="white"/>
<rect x="69.687" y="95" width="13" height="2" transform="rotate(-180 69.687 95)" fill="#075BBA" fill-opacity="0.38"/>
<rect x="57" y="99" width="18" height="2" fill="white"/>
<rect x="57" y="99" width="18" height="2" fill="#075BBA" fill-opacity="0.38"/>
<rect x="78" y="99" width="12" height="2" fill="white"/>
<rect x="78" y="99" width="12" height="2" fill="#075BBA" fill-opacity="0.38"/>
<rect x="93" y="99" width="12" height="2" fill="white"/>
<rect x="93" y="99" width="12" height="2" fill="#075BBA" fill-opacity="0.38"/>
<rect x="108" y="99" width="13" height="2" fill="white"/>
<rect x="108" y="99" width="13" height="2" fill="#075BBA" fill-opacity="0.38"/>
<rect x="124" y="99" width="18" height="2" fill="white"/>
<rect x="124" y="99" width="18" height="2" fill="#075BBA" fill-opacity="0.38"/>
<circle cx="137.026" cy="137.026" r="26.0263" fill="white"/>
<circle cx="137.026" cy="137.026" r="26.0263" fill="#075BBA" fill-opacity="0.2"/>
<path fill="none" d="M161.474 137.026C161.474 150.528 150.528 161.474 137.026 161.474C123.524 161.474 112.579 150.528 112.579 137.026C112.579 123.524 123.524 112.579 137.026 112.579C150.528 112.579 161.474 123.524 161.474 137.026Z" stroke="white" stroke-width="3.15789"/>
<path fill="none" d="M161.474 137.026C161.474 150.528 150.528 161.474 137.026 161.474C123.524 161.474 112.579 150.528 112.579 137.026C112.579 123.524 123.524 112.579 137.026 112.579C150.528 112.579 161.474 123.524 161.474 137.026Z" stroke="#075BBA" stroke-opacity="0.73" stroke-width="3.15789"/>
<path fill-rule="evenodd" clip-rule="evenodd" d="M150.659 131.712L134.471 147.354L125.046 138.247L128.524 134.886L134.471 140.632L147.181 128.351L150.659 131.712Z" fill="white"/>
<path fill-rule="evenodd" clip-rule="evenodd" d="M150.659 131.712L134.471 147.354L125.046 138.247L128.524 134.886L134.471 140.632L147.181 128.351L150.659 131.712Z" fill="#075BBA" fill-opacity="0.8"/>
</svg>
