<svg width="120" height="120" viewBox="0 0 120 120" fill="none" xmlns="http://www.w3.org/2000/svg">
<circle cx="60" cy="60" r="60" fill="#E8F2FF"/>
<path d="M24 85.0374V40H92V85.0374C92 88.8668 88.5895 92 84.4211 92H31.5789C27.4105 92 24 88.8668 24 85.0374Z" fill="#7A94B8"/>
<path d="M24 84.0374V39H92V84.0374C92 87.8668 88.5895 91 84.4211 91H31.5789C27.4105 91 24 87.8668 24 84.0374Z" fill="#D9E9FF"/>
<path d="M92 29.4V39H24V29.4C24 25.88 27.4105 23 31.5789 23H84.4211C88.5895 23 92 25.88 92 29.4Z" fill="#7A94B8"/>
<path d="M75.3783 37.0418C78.4851 37.0418 81.0037 34.5232 81.0037 31.4164C81.0037 28.3096 78.4851 25.791 75.3783 25.791C72.2715 25.791 69.7529 28.3096 69.7529 31.4164C69.7529 34.5232 72.2715 37.0418 75.3783 37.0418Z" fill="#374963"/>
<path d="M41.6254 37.0418C44.7322 37.0418 47.2508 34.5232 47.2508 31.4164C47.2508 28.3096 44.7322 25.791 41.6254 25.791C38.5186 25.791 36 28.3096 36 31.4164C36 34.5232 38.5186 37.0418 41.6254 37.0418Z" fill="#374963"/>
<path d="M75.2727 19C73.2227 19 71.5455 20.6 71.5455 22.5556V31.4444C71.5455 33.4 73.2227 35 75.2727 35C77.3227 35 79 33.4 79 31.4444V22.5556C79 20.6 77.3227 19 75.2727 19ZM41.7273 19C39.6773 19 38 20.6 38 22.5556V31.4444C38 33.4 39.6773 35 41.7273 35C43.7773 35 45.4545 33.4 45.4545 31.4444V22.5556C45.4545 20.6 43.7773 19 41.7273 19Z" fill="#B3C9E8"/>
<path d="M32 49C32 47.8954 32.8954 47 34 47H40C41.1046 47 42 47.8954 42 49V54C42 55.1046 41.1046 56 40 56H34C32.8954 56 32 55.1046 32 54V49ZM46 49C46 47.8954 46.8954 47 48 47H54C55.1046 47 56 47.8954 56 49V54C56 55.1046 55.1046 56 54 56H48C46.8954 56 46 55.1046 46 54V49ZM60 49C60 47.8954 60.8954 47 62 47H68C69.1046 47 70 47.8954 70 49V54C70 55.1046 69.1046 56 68 56H62C60.8954 56 60 55.1046 60 54V49ZM74 49C74 47.8954 74.8954 47 76 47H82C83.1046 47 84 47.8954 84 49V54C84 55.1046 83.1046 56 82 56H76C74.8954 56 74 55.1046 74 54V49ZM32 62.5C32 61.3954 32.8954 60.5 34 60.5H40C41.1046 60.5 42 61.3954 42 62.5V67.5C42 68.6046 41.1046 69.5 40 69.5H34C32.8954 69.5 32 68.6046 32 67.5V62.5ZM46 62.5C46 61.3954 46.8954 60.5 48 60.5H54C55.1046 60.5 56 61.3954 56 62.5V67.5C56 68.6046 55.1046 69.5 54 69.5H48C46.8954 69.5 46 68.6046 46 67.5V62.5ZM60 62.5C60 61.3954 60.8954 60.5 62 60.5H68C69.1046 60.5 70 61.3954 70 62.5V67.5C70 68.6046 69.1046 69.5 68 69.5H62C60.8954 69.5 60 68.6046 60 67.5V62.5ZM74 62.5C74 61.3954 74.8954 60.5 76 60.5H82C83.1046 60.5 84 61.3954 84 62.5V67.5C84 68.6046 83.1046 69.5 82 69.5H76C74.8954 69.5 74 68.6046 74 67.5V62.5ZM32 76C32 74.8954 32.8954 74 34 74H40C41.1046 74 42 74.8954 42 76V81C42 82.1046 41.1046 83 40 83H34C32.8954 83 32 82.1046 32 81V76ZM46 76C46 74.8954 46.8954 74 48 74H54C55.1046 74 56 74.8954 56 76V81C56 82.1046 55.1046 83 54 83H48C46.8954 83 46 82.1046 46 81V76ZM60 76C60 74.8954 60.8954 74 62 74H68C69.1046 74 70 74.8954 70 76V81C70 82.1046 69.1046 83 68 83H62C60.8954 83 60 82.1046 60 81V76ZM74 76C74 74.8954 74.8954 74 76 74H82C83.1046 74 84 74.8954 84 76V81C84 82.1046 83.1046 83 82 83H76C74.8954 83 74 82.1046 74 81V76Z" fill="#94AED2"/>
<path d="M81.9983 79C81.9983 91.1503 72.1486 101 59.9983 101C47.848 101 37.9983 91.1503 37.9983 79C37.9983 66.8497 47.848 57 59.9983 57C72.1486 57 81.9983 66.8497 81.9983 79Z" fill="#B3C9E8"/>
<path d="M81.9983 79C81.9983 91.1503 72.1486 101 59.9983 101C47.848 101 37.9983 91.1503 37.9983 79C37.9983 66.8497 47.848 57 59.9983 57C72.1486 57 81.9983 66.8497 81.9983 79Z" fill="#B3C9E8"/>
<path d="M80.0002 74C80.5271 74 81.0298 74.1029 81.4905 74.2881C81.8218 75.8062 81.9983 77.3825 81.9983 79C81.9983 83.0074 80.926 86.764 79.054 90H72.0002C69.7911 90 68.0002 88.2091 68.0002 86V78C68.0002 75.7909 69.7911 74 72.0002 74H80.0002Z" fill="#86A1C6"/>
<path d="M46 78C46 75.7909 47.7909 74 50 74H58C60.2091 74 62 75.7909 62 78V86C62 88.2091 60.2091 90 58 90H50C47.7909 90 46 88.2091 46 86V78Z" fill="#86A1C6"/>
<path d="M59.9983 57C60.6732 57 61.3409 57.0313 62.0002 57.0908V64C62.0002 66.2091 60.2093 67.9999 58.0002 68H50.0002C47.7911 68 46.0002 66.2091 46.0002 64V62.0264C49.8037 58.8861 54.6808 57 59.9983 57Z" fill="#86A1C6"/>
<path d="M68.0002 58.501C72.6735 60.3266 76.5688 63.7042 79.054 68H72.0002C69.7911 68 68.0002 66.2091 68.0002 64V58.501Z" fill="#86A1C6"/>
<path fill="none" d="M59.8125 59C70.9618 59.0002 80 68.0391 80 79.1885C79.9998 90.3377 70.9617 99.3757 59.8125 99.376C48.6631 99.376 39.6243 90.3378 39.624 79.1885C39.624 68.0389 48.663 59 59.8125 59Z" stroke="#61799C" stroke-width="4"/>
<path d="M47.0908 95.2412L29.9873 111.964C28.7977 111.275 27.6332 110.548 26.4971 109.782L44.2939 92.3818L47.0908 95.2412Z" fill="#61799C"/>
</svg>
