<svg width="200" height="201" viewBox="0 0 200 201" fill="none" xmlns="http://www.w3.org/2000/svg">
<g opacity="0.5">
<circle cx="100" cy="100.5" r="100" fill="white" fill-opacity="0.2"/>
<circle cx="100" cy="100.5" r="100" fill="#075BBA" fill-opacity="0.09"/>
</g>
<path d="M32.6318 70.9931C32.6318 65.4415 37.1323 60.941 42.684 60.941H86.6957C89.6518 60.941 92.458 62.2421 94.368 64.4983L98.3028 69.1464C100.213 71.4026 103.019 72.7038 105.975 72.7038H150.242C155.794 72.7038 160.294 77.2043 160.294 82.7559V138.343C160.294 143.894 155.794 148.395 150.242 148.395H42.684C37.1323 148.395 32.6318 143.894 32.6318 138.343V70.9931Z" fill="white"/>
<path d="M32.6318 70.9931C32.6318 65.4415 37.1323 60.941 42.684 60.941H86.6957C89.6518 60.941 92.458 62.2421 94.368 64.4983L98.3028 69.1464C100.213 71.4026 103.019 72.7038 105.975 72.7038H150.242C155.794 72.7038 160.294 77.2043 160.294 82.7559V138.343C160.294 143.894 155.794 148.395 150.242 148.395H42.684C37.1323 148.395 32.6318 143.894 32.6318 138.343V70.9931Z" fill="#075BBA" fill-opacity="0.7"/>
<rect x="56.7568" y="36.8158" width="85.4433" height="110.574" fill="white"/>
<rect x="56.7568" y="36.8158" width="85.4433" height="110.574" fill="#075BBA" fill-opacity="0.2"/>
<path d="M134.159 48.8784L122.096 48.8784V46.868L134.159 46.868V48.8784Z" fill="white"/>
<path d="M134.159 48.8784L122.096 48.8784V46.868L134.159 46.868V48.8784Z" fill="#075BBA" fill-opacity="0.4"/>
<path d="M119.081 48.8785L94.9553 48.8784L94.9554 46.868L119.081 46.868V48.8785Z" fill="white"/>
<path d="M119.081 48.8785L94.9553 48.8784L94.9554 46.868L119.081 46.868V48.8785Z" fill="#075BBA" fill-opacity="0.4"/>
<path d="M91.9395 48.8785L79.877 48.8784V46.868L91.9395 46.868L91.9395 48.8785Z" fill="white"/>
<path d="M91.9395 48.8785L79.877 48.8784V46.868L91.9395 46.868L91.9395 48.8785Z" fill="#075BBA" fill-opacity="0.4"/>
<path d="M76.8614 48.8785L64.7988 48.8784L64.7988 46.868L76.8614 46.868V48.8785Z" fill="white"/>
<path d="M76.8614 48.8785L64.7988 48.8784L64.7988 46.868L76.8614 46.868V48.8785Z" fill="#075BBA" fill-opacity="0.4"/>
<path d="M64.7989 52.8993H82.8928V54.9097H64.7989V52.8993Z" fill="white"/>
<path d="M64.7989 52.8993H82.8928V54.9097H64.7989V52.8993Z" fill="#075BBA" fill-opacity="0.4"/>
<path d="M85.9085 52.8993H97.9711V54.9097H85.9085V52.8993Z" fill="white"/>
<path d="M85.9085 52.8993H97.9711V54.9097H85.9085V52.8993Z" fill="#075BBA" fill-opacity="0.4"/>
<path d="M100.987 52.8993H113.049V54.9097H100.987V52.8993Z" fill="white"/>
<path d="M100.987 52.8993H113.049V54.9097H100.987V52.8993Z" fill="#075BBA" fill-opacity="0.4"/>
<path d="M116.065 52.8993H134.159V54.9097H116.065V52.8993Z" fill="white"/>
<path d="M116.065 52.8993H134.159V54.9097H116.065V52.8993Z" fill="#075BBA" fill-opacity="0.4"/>
<path d="M134.159 60.941L122.096 60.941V58.9306L134.159 58.9306V60.941Z" fill="white"/>
<path d="M134.159 60.941L122.096 60.941V58.9306L134.159 58.9306V60.941Z" fill="#075BBA" fill-opacity="0.4"/>
<path d="M119.081 60.941L100.987 60.941V58.9306L119.081 58.9306V60.941Z" fill="white"/>
<path d="M119.081 60.941L100.987 60.941V58.9306L119.081 58.9306V60.941Z" fill="#075BBA" fill-opacity="0.4"/>
<path d="M97.9708 60.941L79.877 60.941V58.9306L97.9708 58.9306V60.941Z" fill="white"/>
<path d="M97.9708 60.941L79.877 60.941V58.9306L97.9708 58.9306V60.941Z" fill="#075BBA" fill-opacity="0.4"/>
<path d="M76.8614 60.941L64.7988 60.941L64.7988 58.9306L76.8614 58.9306V60.941Z" fill="white"/>
<path d="M76.8614 60.941L64.7988 60.941L64.7988 58.9306L76.8614 58.9306V60.941Z" fill="#075BBA" fill-opacity="0.4"/>
<path d="M134.159 66.9723H122.096V64.9619H134.159V66.9723Z" fill="white"/>
<path d="M134.159 66.9723H122.096V64.9619H134.159V66.9723Z" fill="#075BBA" fill-opacity="0.4"/>
<path d="M119.081 66.9723L94.9553 66.9723L94.9554 64.9619L119.081 64.9619V66.9723Z" fill="white"/>
<path d="M119.081 66.9723L94.9553 66.9723L94.9554 64.9619L119.081 64.9619V66.9723Z" fill="#075BBA" fill-opacity="0.4"/>
<path d="M91.9395 66.9723L79.877 66.9723V64.9619L91.9395 64.9619L91.9395 66.9723Z" fill="white"/>
<path d="M91.9395 66.9723L79.877 66.9723V64.9619L91.9395 64.9619L91.9395 66.9723Z" fill="#075BBA" fill-opacity="0.4"/>
<path d="M76.8614 66.9723L64.7988 66.9723L64.7988 64.9619L76.8614 64.9619V66.9723Z" fill="white"/>
<path d="M76.8614 66.9723L64.7988 66.9723L64.7988 64.9619L76.8614 64.9619V66.9723Z" fill="#075BBA" fill-opacity="0.4"/>
<path d="M64.7989 70.9932H82.8928V73.0036H64.7989V70.9932Z" fill="white"/>
<path d="M64.7989 70.9932H82.8928V73.0036H64.7989V70.9932Z" fill="#075BBA" fill-opacity="0.4"/>
<path d="M85.9085 70.9932H97.9711V73.0036H85.9085V70.9932Z" fill="white"/>
<path d="M85.9085 70.9932H97.9711V73.0036H85.9085V70.9932Z" fill="#075BBA" fill-opacity="0.4"/>
<path d="M100.987 70.9932H113.049V73.0036H100.987V70.9932Z" fill="white"/>
<path d="M100.987 70.9932H113.049V73.0036H100.987V70.9932Z" fill="#075BBA" fill-opacity="0.4"/>
<path d="M116.065 70.9932H134.159V73.0036H116.065V70.9932Z" fill="white"/>
<path d="M116.065 70.9932H134.159V73.0036H116.065V70.9932Z" fill="#075BBA" fill-opacity="0.4"/>
<path d="M134.159 79.0349H122.096V77.0245H134.159V79.0349Z" fill="white"/>
<path d="M134.159 79.0349H122.096V77.0245H134.159V79.0349Z" fill="#075BBA" fill-opacity="0.4"/>
<path d="M119.081 79.0349L100.987 79.0349V77.0245H119.081V79.0349Z" fill="white"/>
<path d="M119.081 79.0349L100.987 79.0349V77.0245H119.081V79.0349Z" fill="#075BBA" fill-opacity="0.4"/>
<path d="M97.9708 79.0349L79.877 79.0349V77.0245L97.9708 77.0245V79.0349Z" fill="white"/>
<path d="M97.9708 79.0349L79.877 79.0349V77.0245L97.9708 77.0245V79.0349Z" fill="#075BBA" fill-opacity="0.4"/>
<path d="M76.8614 79.0349H64.7988L64.7988 77.0245H76.8614V79.0349Z" fill="white"/>
<path d="M76.8614 79.0349H64.7988L64.7988 77.0245H76.8614V79.0349Z" fill="#075BBA" fill-opacity="0.4"/>
<path d="M42.5237 77.7102C43.1956 72.7223 47.4529 69 52.4859 69H98.2243C101.008 69 103.666 70.1541 105.567 72.1873L109.593 76.4939C111.494 78.5271 114.153 79.6812 116.936 79.6812H159.982C166.15 79.6812 170.863 85.1846 169.915 91.2792L162.347 139.906C161.585 144.802 157.369 148.412 152.414 148.412H42.1976C37.3297 148.412 33.578 144.121 34.2279 139.297L42.5237 77.7102Z" fill="white"/>
<path d="M42.5237 77.7102C43.1956 72.7223 47.4529 69 52.4859 69H98.2243C101.008 69 103.666 70.1541 105.567 72.1873L109.593 76.4939C111.494 78.5271 114.153 79.6812 116.936 79.6812H159.982C166.15 79.6812 170.863 85.1846 169.915 91.2792L162.347 139.906C161.585 144.802 157.369 148.412 152.414 148.412H42.1976C37.3297 148.412 33.578 144.121 34.2279 139.297L42.5237 77.7102Z" fill="#075BBA" fill-opacity="0.5"/>
<circle cx="134.211" cy="131.026" r="33.1579" fill="white"/>
<circle cx="134.211" cy="131.026" r="33.1579" fill="#075BBA" fill-opacity="0.2"/>
<path fill-rule="evenodd" clip-rule="evenodd" d="M134.211 161.026C150.779 161.026 164.211 147.595 164.211 131.026C164.211 114.458 150.779 101.026 134.211 101.026C117.642 101.026 104.211 114.458 104.211 131.026C104.211 147.595 117.642 161.026 134.211 161.026ZM134.211 164.184C152.523 164.184 167.369 149.339 167.369 131.026C167.369 112.714 152.523 97.8684 134.211 97.8684C115.898 97.8684 101.053 112.714 101.053 131.026C101.053 149.339 115.898 164.184 134.211 164.184Z" fill="white"/>
<path fill-rule="evenodd" clip-rule="evenodd" d="M134.211 161.026C150.779 161.026 164.211 147.595 164.211 131.026C164.211 114.458 150.779 101.026 134.211 101.026C117.642 101.026 104.211 114.458 104.211 131.026C104.211 147.595 117.642 161.026 134.211 161.026ZM134.211 164.184C152.523 164.184 167.369 149.339 167.369 131.026C167.369 112.714 152.523 97.8684 134.211 97.8684C115.898 97.8684 101.053 112.714 101.053 131.026C101.053 149.339 115.898 164.184 134.211 164.184Z" fill="#075BBA" fill-opacity="0.7"/>
<path fill-rule="evenodd" clip-rule="evenodd" d="M151.579 124.256L130.955 144.184L118.947 132.582L123.379 128.3L130.955 135.621L147.148 119.974L151.579 124.256Z" fill="white"/>
<path fill-rule="evenodd" clip-rule="evenodd" d="M151.579 124.256L130.955 144.184L118.947 132.582L123.379 128.3L130.955 135.621L147.148 119.974L151.579 124.256Z" fill="#075BBA" fill-opacity="0.8"/>
</svg>
