<svg width="190" height="190" viewBox="0 0 190 190" fill="none" xmlns="http://www.w3.org/2000/svg">
    <g opacity="0.5">
        <circle cx="95" cy="95" r="95" fill="white" fill-opacity="0.2"/>
        <circle cx="95" cy="95" r="95" fill="#075BBA" fill-opacity="0.09"/>
    </g>
    <path fill-rule="evenodd" clip-rule="evenodd" d="M186.677 70H3.32422C14.2986 29.6616 51.1856 0 95.0004 0C138.815 0 175.702 29.6616 186.677 70Z" fill="white"/>
    <path fill-rule="evenodd" clip-rule="evenodd" d="M186.677 70H3.32422C14.2986 29.6616 51.1856 0 95.0004 0C138.815 0 175.702 29.6616 186.677 70Z" fill="#075BBA" fill-opacity="0.1"/>
    <path d="M48.3271 32.077C48.3271 29.8253 46.5018 28 44.2502 28C41.9985 28 40.1732 29.8253 40.1732 32.077V54C40.1732 58 40.1732 61 36.0963 61H39.6636H43.2309C46.2887 61 48.3271 59 48.3271 54V32.077Z" fill="white"/>
    <path d="M48.3271 32.077C48.3271 29.8253 46.5018 28 44.2502 28C41.9985 28 40.1732 29.8253 40.1732 32.077V54C40.1732 58 40.1732 61 36.0963 61H39.6636H43.2309C46.2887 61 48.3271 59 48.3271 54V32.077Z" fill="#075BBA" fill-opacity="0.8"/>
    <path d="M47.3271 32.077C47.3271 29.8253 45.5018 28 43.2502 28C40.9985 28 39.1732 29.8253 39.1732 32.077V54C39.1732 58 39.1732 61 35.0963 61H38.6636H42.2309C45.2887 61 47.3271 59 47.3271 54V32.077Z" fill="white"/>
    <path d="M47.3271 32.077C47.3271 29.8253 45.5018 28 43.2502 28C40.9985 28 39.1732 29.8253 39.1732 32.077V54C39.1732 58 39.1732 61 35.0963 61H38.6636H42.2309C45.2887 61 47.3271 59 47.3271 54V32.077Z" fill="#075BBA" fill-opacity="0.5"/>
    <path fill-rule="evenodd" clip-rule="evenodd" d="M48.8359 158.5H32.2157C30.0066 158.5 28.2157 156.709 28.2157 154.5V122.53C23.2519 119.161 20 113.536 20 107.167C20 96.8574 28.5181 88.5 39.0258 88.5C42.1269 88.5 45.0548 89.2279 47.6415 90.5192C54.8391 92.9983 59.9996 99.7246 59.9996 107.633C59.9996 113.821 56.8406 119.285 52.0186 122.557V128.888C52.0186 129.44 51.5709 129.888 51.0186 129.888C50 130 50 130 48.8359 130.076C47.6719 130.152 46.1343 130.076 46.1343 130.076C45.8821 130.257 45.7179 130.553 45.7179 130.888V136.718C45.7179 137.27 46.1656 137.718 46.7179 137.718H51.0186C51.5709 137.718 52.0186 138.166 52.0186 138.718V143.312C52.0186 143.69 51.8091 144.019 51.5 144.189C50.7921 144.578 50.1581 144.605 49.2841 144.818C49.1094 144.861 48.9971 144.924 48.8359 144.924H45.7959C45.7456 145.044 45.7179 145.175 45.7179 145.312V151.142C45.7179 151.695 46.1656 152.142 46.7179 152.142H51.0186C51.5709 152.142 52.0186 152.59 52.0186 153.142V156.5C52.0186 156.878 51.8091 157.207 51.5 157.377C50.82 157.751 49.5 158.304 49.5 158.304C49.5 158.304 49.1293 158.5 48.8359 158.5ZM41.685 96.509C41.6294 96.507 41.5735 96.5061 41.5174 96.5061C38.9655 96.5061 36.8968 98.5357 36.8968 101.039C36.8968 102.768 37.8833 104.271 39.3342 105.036C41.8174 104.88 43.7823 102.854 43.7823 100.379C43.7823 98.7679 42.9503 97.3476 41.685 96.509Z" fill="white"/>
    <path fill-rule="evenodd" clip-rule="evenodd" d="M48.8359 158.5H32.2157C30.0066 158.5 28.2157 156.709 28.2157 154.5V122.53C23.2519 119.161 20 113.536 20 107.167C20 96.8574 28.5181 88.5 39.0258 88.5C42.1269 88.5 45.0548 89.2279 47.6415 90.5192C54.8391 92.9983 59.9996 99.7246 59.9996 107.633C59.9996 113.821 56.8406 119.285 52.0186 122.557V128.888C52.0186 129.44 51.5709 129.888 51.0186 129.888C50 130 50 130 48.8359 130.076C47.6719 130.152 46.1343 130.076 46.1343 130.076C45.8821 130.257 45.7179 130.553 45.7179 130.888V136.718C45.7179 137.27 46.1656 137.718 46.7179 137.718H51.0186C51.5709 137.718 52.0186 138.166 52.0186 138.718V143.312C52.0186 143.69 51.8091 144.019 51.5 144.189C50.7921 144.578 50.1581 144.605 49.2841 144.818C49.1094 144.861 48.9971 144.924 48.8359 144.924H45.7959C45.7456 145.044 45.7179 145.175 45.7179 145.312V151.142C45.7179 151.695 46.1656 152.142 46.7179 152.142H51.0186C51.5709 152.142 52.0186 152.59 52.0186 153.142V156.5C52.0186 156.878 51.8091 157.207 51.5 157.377C50.82 157.751 49.5 158.304 49.5 158.304C49.5 158.304 49.1293 158.5 48.8359 158.5ZM41.685 96.509C41.6294 96.507 41.5735 96.5061 41.5174 96.5061C38.9655 96.5061 36.8968 98.5357 36.8968 101.039C36.8968 102.768 37.8833 104.271 39.3342 105.036C41.8174 104.88 43.7823 102.854 43.7823 100.379C43.7823 98.7679 42.9503 97.3476 41.685 96.509Z" fill="#075BBA" fill-opacity="0.8"/>
    <path fill-rule="evenodd" clip-rule="evenodd" d="M58.0516 107.167C58.0516 113.536 54.7997 119.161 49.8359 122.53V129.076C49.8359 129.628 49.3882 130.076 48.8359 130.076H44.3499C43.7976 130.076 43.3499 130.523 43.3499 131.076V137.136C43.3499 137.689 43.7976 138.136 44.3499 138.136H48.8359C49.3882 138.136 49.8359 138.584 49.8359 139.136V143.924C49.8359 144.477 49.3882 144.924 48.8359 144.924H44.3499C43.7976 144.924 43.3499 145.372 43.3499 145.924V151.985C43.3499 152.537 43.7976 152.985 44.3499 152.985H48.8359C49.3882 152.985 49.8359 153.433 49.8359 153.985V157.5C49.8359 158.052 49.3882 158.5 48.8359 158.5H32.2157C30.0066 158.5 28.2157 156.709 28.2157 154.5V122.53C23.2519 119.161 20 113.536 20 107.167C20 96.8574 28.5181 88.5 39.0258 88.5C49.5335 88.5 58.0516 96.8574 58.0516 107.167ZM39.0258 105.045C41.6527 105.045 43.7823 102.956 43.7823 100.379C43.7823 97.8015 41.6527 95.7121 39.0258 95.7121C36.3989 95.7121 34.2694 97.8015 34.2694 100.379C34.2694 102.956 36.3989 105.045 39.0258 105.045Z" fill="white"/>
    <path fill-rule="evenodd" clip-rule="evenodd" d="M58.0516 107.167C58.0516 113.536 54.7997 119.161 49.8359 122.53V129.076C49.8359 129.628 49.3882 130.076 48.8359 130.076H44.3499C43.7976 130.076 43.3499 130.523 43.3499 131.076V137.136C43.3499 137.689 43.7976 138.136 44.3499 138.136H48.8359C49.3882 138.136 49.8359 138.584 49.8359 139.136V143.924C49.8359 144.477 49.3882 144.924 48.8359 144.924H44.3499C43.7976 144.924 43.3499 145.372 43.3499 145.924V151.985C43.3499 152.537 43.7976 152.985 44.3499 152.985H48.8359C49.3882 152.985 49.8359 153.433 49.8359 153.985V157.5C49.8359 158.052 49.3882 158.5 48.8359 158.5H32.2157C30.0066 158.5 28.2157 156.709 28.2157 154.5V122.53C23.2519 119.161 20 113.536 20 107.167C20 96.8574 28.5181 88.5 39.0258 88.5C49.5335 88.5 58.0516 96.8574 58.0516 107.167ZM39.0258 105.045C41.6527 105.045 43.7823 102.956 43.7823 100.379C43.7823 97.8015 41.6527 95.7121 39.0258 95.7121C36.3989 95.7121 34.2694 97.8015 34.2694 100.379C34.2694 102.956 36.3989 105.045 39.0258 105.045Z" fill="#075BBA" fill-opacity="0.5"/>
    <path fill-rule="evenodd" clip-rule="evenodd" d="M33.2887 91.0987C31.2971 87.842 30.0002 83.2159 30.0002 78C30.0002 72.7841 31.2971 68.158 33.2887 64.9013C35.3012 61.6105 37.8133 60 40.231 60C42.6488 60 45.1609 61.6105 47.1733 64.9013C49.1649 68.158 50.4619 72.7841 50.4619 78C50.4619 83.2159 49.1649 87.842 47.1733 91.0987C45.1609 94.3895 42.6488 96 40.231 96C37.8133 96 35.3012 94.3895 33.2887 91.0987ZM40.231 98C33.4761 98 28.0002 89.0457 28.0002 78C28.0002 66.9543 33.4761 58 40.231 58C46.986 58 52.4619 66.9543 52.4619 78C52.4619 89.0457 46.986 98 40.231 98Z" fill="white"/>
    <path fill-rule="evenodd" clip-rule="evenodd" d="M33.2887 91.0987C31.2971 87.842 30.0002 83.2159 30.0002 78C30.0002 72.7841 31.2971 68.158 33.2887 64.9013C35.3012 61.6105 37.8133 60 40.231 60C42.6488 60 45.1609 61.6105 47.1733 64.9013C49.1649 68.158 50.4619 72.7841 50.4619 78C50.4619 83.2159 49.1649 87.842 47.1733 91.0987C45.1609 94.3895 42.6488 96 40.231 96C37.8133 96 35.3012 94.3895 33.2887 91.0987ZM40.231 98C33.4761 98 28.0002 89.0457 28.0002 78C28.0002 66.9543 33.4761 58 40.231 58C46.986 58 52.4619 66.9543 52.4619 78C52.4619 89.0457 46.986 98 40.231 98Z" fill="#075BBA" fill-opacity="0.4"/>
    <path fill-rule="evenodd" clip-rule="evenodd" d="M31.2887 91.0987C29.2971 87.842 28.0002 83.2159 28.0002 78C28.0002 72.7841 29.2971 68.158 31.2887 64.9013C33.3012 61.6105 35.8133 60 38.231 60C40.6488 60 43.1609 61.6105 45.1733 64.9013C47.1649 68.158 48.4619 72.7841 48.4619 78C48.4619 83.2159 47.1649 87.842 45.1733 91.0987C43.1609 94.3895 40.6488 96 38.231 96C35.8133 96 33.3012 94.3895 31.2887 91.0987ZM38.231 98C31.4761 98 26.0002 89.0457 26.0002 78C26.0002 66.9543 31.4761 58 38.231 58C44.986 58 50.4619 66.9543 50.4619 78C50.4619 89.0457 44.986 98 38.231 98Z" fill="white"/>
    <path fill-rule="evenodd" clip-rule="evenodd" d="M31.2887 91.0987C29.2971 87.842 28.0002 83.2159 28.0002 78C28.0002 72.7841 29.2971 68.158 31.2887 64.9013C33.3012 61.6105 35.8133 60 38.231 60C40.6488 60 43.1609 61.6105 45.1733 64.9013C47.1649 68.158 48.4619 72.7841 48.4619 78C48.4619 83.2159 47.1649 87.842 45.1733 91.0987C43.1609 94.3895 40.6488 96 38.231 96C35.8133 96 33.3012 94.3895 31.2887 91.0987ZM38.231 98C31.4761 98 26.0002 89.0457 26.0002 78C26.0002 66.9543 31.4761 58 38.231 58C44.986 58 50.4619 66.9543 50.4619 78C50.4619 89.0457 44.986 98 38.231 98Z" fill="#075BBA" fill-opacity="0.6"/>
    <path d="M58.0512 107.167C58.0512 96.8574 49.5331 88.5 39.0254 88.5V95.7121C41.6523 95.7121 43.7818 97.8015 43.7818 100.379L58.0512 107.167Z" fill="white"/>
    <path d="M58.0512 107.167C58.0512 96.8574 49.5331 88.5 39.0254 88.5V95.7121C41.6523 95.7121 43.7818 97.8015 43.7818 100.379L58.0512 107.167Z" fill="#075BBA" fill-opacity="0.5"/>
    <path fill-rule="evenodd" clip-rule="evenodd" d="M30 52.077C30 49.8253 31.8253 48 34.077 48H35.077C37.3286 48 39.1539 49.8253 39.1539 52.077V54C39.1539 56.8657 39.1539 59.2181 40.653 60.3219C40.9304 60.5461 41.2254 60.7802 41.5305 61H35.0962C32.0385 61 30 59 30 54V52.077ZM43.0078 61H43.2309C43.1551 61 43.0808 60.999 43.0078 60.9969V61Z" fill="white"/>
    <path fill-rule="evenodd" clip-rule="evenodd" d="M30 52.077C30 49.8253 31.8253 48 34.077 48H35.077C37.3286 48 39.1539 49.8253 39.1539 52.077V54C39.1539 56.8657 39.1539 59.2181 40.653 60.3219C40.9304 60.5461 41.2254 60.7802 41.5305 61H35.0962C32.0385 61 30 59 30 54V52.077ZM43.0078 61H43.2309C43.1551 61 43.0808 60.999 43.0078 60.9969V61Z" fill="#075BBA" fill-opacity="0.8"/>
    <path fill-rule="evenodd" clip-rule="evenodd" d="M34.077 48C31.8253 48 30 49.8253 30 52.077V54C30 59 32.0385 61 35.0962 61H38.6635H41.5305C41.5128 60.9872 41.4951 60.9744 41.4775 60.9616C38.1539 60.6006 38.1539 57.7366 38.1539 54V52.077C38.1539 49.8253 36.3286 48 34.077 48Z" fill="white"/>
    <path fill-rule="evenodd" clip-rule="evenodd" d="M34.077 48C31.8253 48 30 49.8253 30 52.077V54C30 59 32.0385 61 35.0962 61H38.6635H41.5305C41.5128 60.9872 41.4951 60.9744 41.4775 60.9616C38.1539 60.6006 38.1539 57.7366 38.1539 54V52.077C38.1539 49.8253 36.3286 48 34.077 48Z" fill="#075BBA" fill-opacity="0.3"/>
    <path d="M99 30.9945C99 28.7854 97.2091 27 95 27C92.7908 27 91 28.7854 91 30.9945C91 41.2588 91 56.0522 91 60.0004C91 60.5527 91.4477 61 92 61H97C98.1046 61 99 60.1141 99 59.0095C99 53.9889 99 40.5312 99 30.9945Z" fill="white"/>
    <path d="M99 30.9945C99 28.7854 97.2091 27 95 27C92.7908 27 91 28.7854 91 30.9945C91 41.2588 91 56.0522 91 60.0004C91 60.5527 91.4477 61 92 61H97C98.1046 61 99 60.1141 99 59.0095C99 53.9889 99 40.5312 99 30.9945Z" fill="#075BBA" fill-opacity="0.8"/>
    <path d="M100 31C100 28.7909 98.2091 27 96 27C93.7908 27 92 28.7909 92 31V53.7879C92 57.9091 92 58.4242 92 61H96.4056H98C99.1046 61 100 60.1036 100 58.999C100 57.7941 100 57.5286 100 53.7879V31Z" fill="white"/>
    <path d="M100 31C100 28.7909 98.2091 27 96 27C93.7908 27 92 28.7909 92 31V53.7879C92 57.9091 92 58.4242 92 61H96.4056H98C99.1046 61 100 60.1036 100 58.999C100 57.7941 100 57.5286 100 53.7879V31Z" fill="#075BBA" fill-opacity="0.5"/>
    <path d="M91 51.9999C91 49.7908 92.7908 48 94.9999 48C97.2091 48 98.9999 49.7908 98.9999 51.9999V59C98.9999 60.1046 98.1045 61 96.9999 61H92C91.4477 61 91 60.5539 91 60.0016C91 58.9512 91 57.0244 91 54V51.9999Z" fill="white"/>
    <path d="M91 51.9999C91 49.7908 92.7908 48 94.9999 48C97.2091 48 98.9999 49.7908 98.9999 51.9999V59C98.9999 60.1046 98.1045 61 96.9999 61H92C91.4477 61 91 60.5539 91 60.0016C91 58.9512 91 57.0244 91 54V51.9999Z" fill="#075BBA" fill-opacity="0.8"/>
    <path d="M92.0001 51.9999C92.0001 49.7908 93.7909 48 96.0001 48C98.2092 48 100 49.7908 100 51.9999V54C100 58 100 56.5 100 58.5V60C100 60.5523 99.5523 61 99 61H92C92 59 92.0001 59 92.0001 54V51.9999Z" fill="white"/>
    <path d="M92.0001 51.9999C92.0001 49.7908 93.7909 48 96.0001 48C98.2092 48 100 49.7908 100 51.9999V54C100 58 100 56.5 100 58.5V60C100 60.5523 99.5523 61 99 61H92C92 59 92.0001 59 92.0001 54V51.9999Z" fill="#075BBA" fill-opacity="0.3"/>
    <path fill-rule="evenodd" clip-rule="evenodd" d="M167.816 95.087C167.816 91.7252 165.129 89 161.813 89H142.003C141.408 89 140.834 89.0877 140.291 89.2511C139.015 89.6353 137.37 90.3866 136.317 91.1938C134.91 92.2733 134 93.9855 134 95.913V115.426C134 118.692 136.611 121.339 139.832 121.339H141.581V130.493C141.581 131.966 141.921 133.419 142.572 134.736L143.445 136.498C144.285 138.196 144.242 140.205 143.329 141.864L142.759 142.902C142.04 144.209 142.13 145.819 142.99 147.035L143.736 148.09C144.35 148.957 144.281 150.142 143.571 150.93C142.574 152.038 142.899 153.807 144.224 154.476L150.159 157.473C151.521 158.161 153.364 159 154.91 159C157.728 159 160.012 156.683 160.012 153.826V121.263C160.017 121.262 160.022 121.262 160.027 121.261H161.813C165.129 121.261 167.816 118.536 167.816 115.174V95.087ZM155.84 101.174C156.393 100.686 156.743 99.9671 156.743 99.1652C156.743 97.6957 155.568 96.5043 154.119 96.5043H145.189C144.704 96.9995 144.404 97.6817 144.404 98.4348C144.404 99.9476 145.614 101.174 147.106 101.174H155.84Z" fill="white"/>
    <path fill-rule="evenodd" clip-rule="evenodd" d="M167.816 95.087C167.816 91.7252 165.129 89 161.813 89H142.003C141.408 89 140.834 89.0877 140.291 89.2511C139.015 89.6353 137.37 90.3866 136.317 91.1938C134.91 92.2733 134 93.9855 134 95.913V115.426C134 118.692 136.611 121.339 139.832 121.339H141.581V130.493C141.581 131.966 141.921 133.419 142.572 134.736L143.445 136.498C144.285 138.196 144.242 140.205 143.329 141.864L142.759 142.902C142.04 144.209 142.13 145.819 142.99 147.035L143.736 148.09C144.35 148.957 144.281 150.142 143.571 150.93C142.574 152.038 142.899 153.807 144.224 154.476L150.159 157.473C151.521 158.161 153.364 159 154.91 159C157.728 159 160.012 156.683 160.012 153.826V121.263C160.017 121.262 160.022 121.262 160.027 121.261H161.813C165.129 121.261 167.816 118.536 167.816 115.174V95.087ZM155.84 101.174C156.393 100.686 156.743 99.9671 156.743 99.1652C156.743 97.6957 155.568 96.5043 154.119 96.5043H145.189C144.704 96.9995 144.404 97.6817 144.404 98.4348C144.404 99.9476 145.614 101.174 147.106 101.174H155.84Z" fill="#075BBA" fill-opacity="0.8"/>
    <path fill-rule="evenodd" clip-rule="evenodd" d="M161.813 89C165.129 89 167.816 91.7252 167.816 95.087V115.174C167.816 118.536 165.129 121.261 161.813 121.261H160.012V153.826C160.012 156.683 157.728 159 154.91 159C154.12 159 153.341 158.814 152.635 158.457L146.525 155.372C145.161 154.683 144.826 152.863 145.853 151.722C146.583 150.91 146.654 149.691 146.023 148.799L145.254 147.712C144.369 146.46 144.276 144.803 145.016 143.458L145.604 142.39C146.543 140.682 146.588 138.613 145.722 136.865L144.825 135.052C144.154 133.696 143.804 132.2 143.804 130.684V121.261H142.003C138.688 121.261 136 118.536 136 115.174V95.087C136 91.7252 138.688 89 142.003 89H151.908H161.813ZM147.106 95.6957C145.614 95.6957 144.404 96.922 144.404 98.4348C144.404 99.9476 145.614 101.174 147.106 101.174H156.711C158.203 101.174 159.412 99.9476 159.412 98.4348C159.412 96.922 158.203 95.6957 156.711 95.6957H151.908H147.106Z" fill="white"/>
    <path fill-rule="evenodd" clip-rule="evenodd" d="M161.813 89C165.129 89 167.816 91.7252 167.816 95.087V115.174C167.816 118.536 165.129 121.261 161.813 121.261H160.012V153.826C160.012 156.683 157.728 159 154.91 159C154.12 159 153.341 158.814 152.635 158.457L146.525 155.372C145.161 154.683 144.826 152.863 145.853 151.722C146.583 150.91 146.654 149.691 146.023 148.799L145.254 147.712C144.369 146.46 144.276 144.803 145.016 143.458L145.604 142.39C146.543 140.682 146.588 138.613 145.722 136.865L144.825 135.052C144.154 133.696 143.804 132.2 143.804 130.684V121.261H142.003C138.688 121.261 136 118.536 136 115.174V95.087C136 91.7252 138.688 89 142.003 89H151.908H161.813ZM147.106 95.6957C145.614 95.6957 144.404 96.922 144.404 98.4348C144.404 99.9476 145.614 101.174 147.106 101.174H156.711C158.203 101.174 159.412 99.9476 159.412 98.4348C159.412 96.922 158.203 95.6957 156.711 95.6957H151.908H147.106Z" fill="#075BBA" fill-opacity="0.5"/>
    <path d="M142.704 31.9449C142.704 29.7662 144.47 28 146.649 28C148.828 28 150.594 29.7662 150.594 31.9449V54C150.594 58 150.594 61 154.539 61H151.087H147.635C144.677 61 142.704 59 142.704 54V31.9449Z" fill="white"/>
    <path d="M142.704 31.9449C142.704 29.7662 144.47 28 146.649 28C148.828 28 150.594 29.7662 150.594 31.9449V54C150.594 58 150.594 61 154.539 61H151.087H147.635C144.677 61 142.704 59 142.704 54V31.9449Z" fill="#075BBA" fill-opacity="0.8"/>
    <path d="M143.704 31.9449C143.704 29.7662 145.47 28 147.649 28C149.828 28 151.594 29.7662 151.594 31.9449V54C151.594 58 151.594 61 155.539 61H152.087H148.635C145.677 61 143.704 59 143.704 54V31.9449Z" fill="white"/>
    <path d="M143.704 31.9449C143.704 29.7662 145.47 28 147.649 28C149.828 28 151.594 29.7662 151.594 31.9449V54C151.594 58 151.594 61 155.539 61H152.087H148.635C145.677 61 143.704 59 143.704 54V31.9449Z" fill="#075BBA" fill-opacity="0.5"/>
    <path fill-rule="evenodd" clip-rule="evenodd" d="M157.173 64.9013C159.165 68.158 160.462 72.7841 160.462 78C160.462 83.2159 159.165 87.842 157.173 91.0987C155.161 94.3895 152.649 96 150.231 96C147.813 96 145.301 94.3895 143.289 91.0987C141.297 87.842 140 83.2159 140 78C140 72.7841 141.297 68.158 143.289 64.9013C145.301 61.6105 147.813 60 150.231 60C152.649 60 155.161 61.6105 157.173 64.9013ZM150.231 58C156.986 58 162.462 66.9543 162.462 78C162.462 89.0457 156.986 98 150.231 98C143.476 98 138 89.0457 138 78C138 66.9543 143.476 58 150.231 58Z" fill="white"/>
    <path fill-rule="evenodd" clip-rule="evenodd" d="M157.173 64.9013C159.165 68.158 160.462 72.7841 160.462 78C160.462 83.2159 159.165 87.842 157.173 91.0987C155.161 94.3895 152.649 96 150.231 96C147.813 96 145.301 94.3895 143.289 91.0987C141.297 87.842 140 83.2159 140 78C140 72.7841 141.297 68.158 143.289 64.9013C145.301 61.6105 147.813 60 150.231 60C152.649 60 155.161 61.6105 157.173 64.9013ZM150.231 58C156.986 58 162.462 66.9543 162.462 78C162.462 89.0457 156.986 98 150.231 98C143.476 98 138 89.0457 138 78C138 66.9543 143.476 58 150.231 58Z" fill="#075BBA" fill-opacity="0.4"/>
    <path fill-rule="evenodd" clip-rule="evenodd" d="M159.173 64.9013C161.165 68.158 162.462 72.7841 162.462 78C162.462 83.2159 161.165 87.842 159.173 91.0987C157.161 94.3895 154.649 96 152.231 96C149.813 96 147.301 94.3895 145.289 91.0987C143.297 87.842 142 83.2159 142 78C142 72.7841 143.297 68.158 145.289 64.9013C147.301 61.6105 149.813 60 152.231 60C154.649 60 157.161 61.6105 159.173 64.9013ZM152.231 58C158.986 58 164.462 66.9543 164.462 78C164.462 89.0457 158.986 98 152.231 98C145.476 98 140 89.0457 140 78C140 66.9543 145.476 58 152.231 58Z" fill="white"/>
    <path fill-rule="evenodd" clip-rule="evenodd" d="M159.173 64.9013C161.165 68.158 162.462 72.7841 162.462 78C162.462 83.2159 161.165 87.842 159.173 91.0987C157.161 94.3895 154.649 96 152.231 96C149.813 96 147.301 94.3895 145.289 91.0987C143.297 87.842 142 83.2159 142 78C142 72.7841 143.297 68.158 145.289 64.9013C147.301 61.6105 149.813 60 152.231 60C154.649 60 157.161 61.6105 159.173 64.9013ZM152.231 58C158.986 58 164.462 66.9543 164.462 78C164.462 89.0457 158.986 98 152.231 98C145.476 98 140 89.0457 140 78C140 66.9543 145.476 58 152.231 58Z" fill="#075BBA" fill-opacity="0.6"/>
    <path fill-rule="evenodd" clip-rule="evenodd" d="M155.525 48C157.704 48 159.47 49.7662 159.47 51.9449V54C159.47 59 157.497 61 154.539 61H151.087H148.938C149.046 60.9263 149.152 60.8501 149.258 60.7726C151.58 60.0024 151.58 57.3524 151.58 54V51.9449C151.58 49.7662 153.346 48 155.525 48ZM147.672 60.9999V61H147.635C147.647 61 147.66 61 147.672 60.9999Z" fill="white"/>
    <path fill-rule="evenodd" clip-rule="evenodd" d="M155.525 48C157.704 48 159.47 49.7662 159.47 51.9449V54C159.47 59 157.497 61 154.539 61H151.087H148.938C149.046 60.9263 149.152 60.8501 149.258 60.7726C151.58 60.0024 151.58 57.3524 151.58 54V51.9449C151.58 49.7662 153.346 48 155.525 48ZM147.672 60.9999V61H147.635C147.647 61 147.66 61 147.672 60.9999Z" fill="#075BBA" fill-opacity="0.8"/>
    <path fill-rule="evenodd" clip-rule="evenodd" d="M156.525 48C158.704 48 160.47 49.7662 160.47 51.9449V54C160.47 59 158.497 61 155.539 61H152.087H148.938C148.941 60.9978 148.944 60.9956 148.948 60.9934C152.58 60.8364 152.58 57.8914 152.58 54V51.9449C152.58 49.7662 154.346 48 156.525 48Z" fill="white"/>
    <path fill-rule="evenodd" clip-rule="evenodd" d="M156.525 48C158.704 48 160.47 49.7662 160.47 51.9449V54C160.47 59 158.497 61 155.539 61H152.087H148.938C148.941 60.9978 148.944 60.9956 148.948 60.9934C152.58 60.8364 152.58 57.8914 152.58 54V51.9449C152.58 49.7662 154.346 48 156.525 48Z" fill="#075BBA" fill-opacity="0.3"/>
    <path d="M136 95.087C136 91.7252 138.688 89 142.003 89H151.908L151.908 95.6957H147.106C145.614 95.6957 144.404 96.922 144.404 98.4348L136 95.087Z" fill="white"/>
    <path d="M136 95.087C136 91.7252 138.688 89 142.003 89H151.908L151.908 95.6957H147.106C145.614 95.6957 144.404 96.922 144.404 98.4348L136 95.087Z" fill="#075BBA" fill-opacity="0.5"/>
    <path d="M90.0931 136.514C89.5214 136.514 89.0579 136.05 89.0579 135.479C89.0782 131.926 89.3927 129.095 90.0015 126.984C90.6305 124.873 91.5437 123.168 92.7409 121.869C93.9381 120.57 95.3789 119.392 97.0631 118.337C98.3212 117.525 99.4474 116.683 100.442 115.81C101.436 114.937 102.227 113.973 102.816 112.917C103.404 111.841 103.699 110.644 103.699 109.324C103.699 107.924 103.364 106.696 102.694 105.64C102.024 104.585 101.122 103.773 99.9852 103.205C98.8691 102.636 97.6313 102.352 96.2717 102.352C94.9527 102.352 93.7048 102.646 92.5278 103.235C91.3509 103.803 90.387 104.656 89.6362 105.793C89.1932 106.451 88.8703 107.205 88.6675 108.055C88.4176 109.102 87.5666 109.964 86.4905 109.964H78.0506C76.9265 109.964 76.013 109.035 76.1313 107.918C76.4652 104.765 77.3954 102.098 78.922 99.9163C80.7686 97.2572 83.2138 95.2781 86.2576 93.9791C89.3014 92.6597 92.6597 92 96.3326 92C100.371 92 103.942 92.6698 107.047 94.0095C110.151 95.3289 112.586 97.2471 114.352 99.764C116.117 102.281 117 105.316 117 108.868C117 111.243 116.604 113.354 115.813 115.201C115.042 117.028 113.956 118.651 112.556 120.072C111.156 121.473 109.502 122.742 107.595 123.878C105.992 124.832 104.673 125.827 103.638 126.862C102.623 127.897 101.862 129.095 101.355 130.455C100.868 131.815 100.614 133.489 100.594 135.479C100.594 136.05 100.13 136.514 99.5587 136.514H90.0931ZM95.0846 156C93.0554 156 91.3205 155.29 89.8797 153.869C88.4593 152.428 87.7592 150.702 87.7795 148.693C87.7592 146.703 88.4593 144.998 89.8797 143.578C91.3205 142.157 93.0554 141.446 95.0846 141.446C97.0124 141.446 98.7068 142.157 100.168 143.578C101.629 144.998 102.369 146.703 102.39 148.693C102.369 150.032 102.014 151.26 101.324 152.377C100.655 153.473 99.7721 154.356 98.6763 155.026C97.5805 155.675 96.3833 156 95.0846 156Z" fill="#075BBA" fill-opacity="0.1"/>
</svg>
