<svg xmlns="http://www.w3.org/2000/svg" width="190" height="190" viewBox="0 0 190 190" fill="none">
    <g opacity="0.5">
        <circle cx="95" cy="95" r="95" fill="white" fill-opacity="0.2"/>
        <circle cx="95" cy="95" r="95" fill="#075BBA" fill-opacity="0.09"/>
    </g>
    <path d="M54.9211 146.595L50.0396 88.9052C46.9835 84.7456 45 78.0413 45 70.479C45 59.6205 49.0895 50.5307 54.572 48.2036C55.2057 47.8354 55.9424 47.6243 56.7295 47.6243H106.562C108.937 47.6243 110.863 49.55 110.863 51.9254V147.411C110.863 149.786 108.937 151.712 106.562 151.712H59.2452C56.9139 151.712 55.007 149.855 54.9456 147.524L54.9211 146.595Z" fill="white"/>
    <path d="M54.9211 146.595L50.0396 88.9052C46.9835 84.7456 45 78.0413 45 70.479C45 59.6205 49.0895 50.5307 54.572 48.2036C55.2057 47.8354 55.9424 47.6243 56.7295 47.6243H106.562C108.937 47.6243 110.863 49.55 110.863 51.9254V147.411C110.863 149.786 108.937 151.712 106.562 151.712H59.2452C56.9139 151.712 55.007 149.855 54.9456 147.524L54.9211 146.595Z" fill="#075BBA" fill-opacity="0.6"/>
    <path d="M59.339 53.0416C59.2608 50.0729 61.646 47.624 64.6158 47.624H113.24C116.21 47.624 118.595 50.0729 118.517 53.0416L116.053 146.572C115.978 149.432 113.637 151.712 110.776 151.712H67.08C64.2188 151.712 61.8786 149.432 61.8032 146.572L59.339 53.0416Z" fill="white"/>
    <path d="M59.339 53.0416C59.2608 50.0729 61.646 47.624 64.6158 47.624H113.24C116.21 47.624 118.595 50.0729 118.517 53.0416L116.053 146.572C115.978 149.432 113.637 151.712 110.776 151.712H67.08C64.2188 151.712 61.8786 149.432 61.8032 146.572L59.339 53.0416Z" fill="#075BBA" fill-opacity="0.5"/>
    <path d="M64.0216 71.5289C63.9697 69.7443 65.4022 68.2695 67.1875 68.2695H110.667C112.452 68.2695 113.885 69.7443 113.833 71.5289L113.103 96.5929C113.053 98.3055 111.651 99.6679 109.937 99.6679H67.9172C66.2039 99.6679 64.8012 98.3055 64.7513 96.593L64.0216 71.5289Z" fill="white"/>
    <path d="M64.0216 71.5289C63.9697 69.7443 65.4022 68.2695 67.1875 68.2695H110.667C112.452 68.2695 113.885 69.7443 113.833 71.5289L113.103 96.5929C113.053 98.3055 111.651 99.6679 109.937 99.6679H67.9172C66.2039 99.6679 64.8012 98.3055 64.7513 96.593L64.0216 71.5289Z" fill="#075BBA" fill-opacity="0.2"/>
    <path fill-rule="evenodd" clip-rule="evenodd" d="M102.624 78.045L86.659 93.4715L77.3643 84.4902L80.7944 81.1757L86.659 86.8425L99.1938 74.7305L102.624 78.045Z" fill="white"/>
    <path fill-rule="evenodd" clip-rule="evenodd" d="M102.624 78.045L86.659 93.4715L77.3643 84.4902L80.7944 81.1757L86.659 86.8425L99.1938 74.7305L102.624 78.045Z" fill="#075BBA" fill-opacity="0.8"/>
    <rect x="64.1973" y="58.5952" width="49.362" height="2.74233" rx="1.37117" fill="white"/>
    <rect x="64.1973" y="58.5952" width="49.362" height="2.74233" rx="1.37117" fill="#075BBA" fill-opacity="0.8"/>
    <rect x="67.4229" y="111.281" width="10.7529" height="6.45173" rx="1.58358" fill="white"/>
    <rect x="67.4229" y="111.281" width="10.7529" height="6.45173" rx="1.58358" fill="#075BBA" fill-opacity="0.8"/>
    <rect x="68.2822" y="111.281" width="10.7529" height="6.45173" rx="1.58358" fill="white"/>
    <rect x="68.2822" y="111.281" width="10.7529" height="6.45173" rx="1.58358" fill="#075BBA" fill-opacity="0.3"/>
    <rect x="67.4229" y="122.034" width="10.7529" height="6.45173" rx="1.58358" fill="white"/>
    <rect x="67.4229" y="122.034" width="10.7529" height="6.45173" rx="1.58358" fill="#075BBA" fill-opacity="0.8"/>
    <rect x="68.2822" y="122.034" width="10.7529" height="6.45173" rx="1.58358" fill="white"/>
    <rect x="68.2822" y="122.034" width="10.7529" height="6.45173" rx="1.58358" fill="#075BBA" fill-opacity="0.3"/>
    <rect x="67.4229" y="132.787" width="10.7529" height="6.45173" rx="1.58358" fill="white"/>
    <rect x="67.4229" y="132.787" width="10.7529" height="6.45173" rx="1.58358" fill="#075BBA" fill-opacity="0.8"/>
    <rect x="68.2822" y="132.787" width="10.7529" height="6.45173" rx="1.58358" fill="white"/>
    <rect x="68.2822" y="132.787" width="10.7529" height="6.45173" rx="1.58358" fill="#075BBA" fill-opacity="0.6"/>
    <rect x="83.3359" y="111.281" width="10.7529" height="6.45173" rx="1.58358" fill="white"/>
    <rect x="83.3359" y="111.281" width="10.7529" height="6.45173" rx="1.58358" fill="#075BBA" fill-opacity="0.8"/>
    <rect x="84.1963" y="111.281" width="10.7529" height="6.45173" rx="1.58358" fill="white"/>
    <rect x="84.1963" y="111.281" width="10.7529" height="6.45173" rx="1.58358" fill="#075BBA" fill-opacity="0.3"/>
    <rect x="83.3359" y="122.034" width="10.7529" height="6.45173" rx="1.58358" fill="white"/>
    <rect x="83.3359" y="122.034" width="10.7529" height="6.45173" rx="1.58358" fill="#075BBA" fill-opacity="0.8"/>
    <rect x="84.1963" y="122.034" width="10.7529" height="6.45173" rx="1.58358" fill="white"/>
    <rect x="84.1963" y="122.034" width="10.7529" height="6.45173" rx="1.58358" fill="#075BBA" fill-opacity="0.3"/>
    <rect x="83.3359" y="132.787" width="10.7529" height="6.45173" rx="1.58358" fill="white"/>
    <rect x="83.3359" y="132.787" width="10.7529" height="6.45173" rx="1.58358" fill="#075BBA" fill-opacity="0.8"/>
    <rect x="84.1963" y="132.787" width="10.7529" height="6.45173" rx="1.58358" fill="white"/>
    <rect x="84.1963" y="132.787" width="10.7529" height="6.45173" rx="1.58358" fill="#075BBA" fill-opacity="0.3"/>
    <rect x="99.25" y="111.281" width="10.7529" height="6.45173" rx="1.58358" fill="white"/>
    <rect x="99.25" y="111.281" width="10.7529" height="6.45173" rx="1.58358" fill="#075BBA" fill-opacity="0.8"/>
    <rect x="100.11" y="111.281" width="10.7529" height="6.45173" rx="1.58358" fill="white"/>
    <rect x="100.11" y="111.281" width="10.7529" height="6.45173" rx="1.58358" fill="#075BBA" fill-opacity="0.3"/>
    <rect x="99.25" y="122.034" width="10.7529" height="6.45173" rx="1.58358" fill="white"/>
    <rect x="99.25" y="122.034" width="10.7529" height="6.45173" rx="1.58358" fill="#075BBA" fill-opacity="0.8"/>
    <rect x="100.11" y="122.034" width="10.7529" height="6.45173" rx="1.58358" fill="white"/>
    <rect x="100.11" y="122.034" width="10.7529" height="6.45173" rx="1.58358" fill="#075BBA" fill-opacity="0.3"/>
    <rect x="99.25" y="132.787" width="10.7529" height="6.45173" rx="1.58358" fill="white"/>
    <rect x="99.25" y="132.787" width="10.7529" height="6.45173" rx="1.58358" fill="#075BBA" fill-opacity="0.8"/>
    <rect x="100.11" y="132.787" width="10.7529" height="6.45173" rx="1.58358" fill="white"/>
    <rect x="100.11" y="132.787" width="10.7529" height="6.45173" rx="1.58358" fill="#075BBA" fill-opacity="0.6"/>
    <path d="M60.1094 39.4521H70.8763V38.5918C70.8763 35.5734 68.4845 33.1136 65.4928 33.0042C62.5011 33.1136 60.1094 35.5734 60.1094 38.5918V39.4521Z" fill="white"/>
    <path d="M60.1094 39.4521H70.8763V38.5918C70.8763 35.5734 68.4845 33.1136 65.4928 33.0042C62.5011 33.1136 60.1094 35.5734 60.1094 38.5918V39.4521Z" fill="#075BBA" fill-opacity="0.6"/>
    <path d="M106.992 39.4517H70.862V38.5915C70.862 35.5034 68.3586 33 65.2705 33H101.4C104.488 33 106.992 35.5034 106.992 38.5915V39.4517Z" fill="white"/>
    <path d="M106.992 39.4517H70.862V38.5915C70.862 35.5034 68.3586 33 65.2705 33H101.4C104.488 33 106.992 35.5034 106.992 38.5915V39.4517Z" fill="#075BBA" fill-opacity="0.2"/>
    <path d="M106.992 39.4517L70.8629 39.452V61.3879H106.993L106.992 39.4517Z" fill="white"/>
    <path d="M106.992 39.4517L70.8629 39.452V61.3879H106.993L106.992 39.4517Z" fill="#075BBA" fill-opacity="0.2"/>
    <rect x="104" y="47.0461" width="11.4085" height="1.26761" transform="rotate(-180 104 47.0461)" fill="white"/>
    <rect x="104" y="47.0461" width="11.4085" height="1.26761" transform="rotate(-180 104 47.0461)" fill="#075BBA" fill-opacity="0.4"/>
    <rect x="90.4785" y="47.0461" width="7.1831" height="1.26761" transform="rotate(-180 90.4785 47.0461)" fill="white"/>
    <rect x="90.4785" y="47.0461" width="7.1831" height="1.26761" transform="rotate(-180 90.4785 47.0461)" fill="#075BBA" fill-opacity="0.4"/>
    <rect x="81.1836" y="47.0461" width="7.1831" height="1.26761" transform="rotate(-180 81.1836 47.0461)" fill="white"/>
    <rect x="81.1836" y="47.0461" width="7.1831" height="1.26761" transform="rotate(-180 81.1836 47.0461)" fill="#075BBA" fill-opacity="0.4"/>
    <rect x="104" y="56.5085" width="11.4085" height="1.26761" transform="rotate(-180 104 56.5085)" fill="white"/>
    <rect x="104" y="56.5085" width="11.4085" height="1.26761" transform="rotate(-180 104 56.5085)" fill="#075BBA" fill-opacity="0.4"/>
    <rect x="90.4785" y="56.5085" width="7.1831" height="1.26761" transform="rotate(-180 90.4785 56.5085)" fill="white"/>
    <rect x="90.4785" y="56.5085" width="7.1831" height="1.26761" transform="rotate(-180 90.4785 56.5085)" fill="#075BBA" fill-opacity="0.4"/>
    <rect x="81.1826" y="56.5085" width="7.1831" height="1.26761" transform="rotate(-180 81.1826 56.5085)" fill="white"/>
    <rect x="81.1826" y="56.5085" width="7.1831" height="1.26761" transform="rotate(-180 81.1826 56.5085)" fill="#075BBA" fill-opacity="0.4"/>
    <rect x="74" y="50.1938" width="11.4085" height="1.26761" fill="white"/>
    <rect x="74" y="50.1938" width="11.4085" height="1.26761" fill="#075BBA" fill-opacity="0.4"/>
    <rect x="87.5215" y="50.1938" width="7.1831" height="1.26761" fill="white"/>
    <rect x="87.5215" y="50.1938" width="7.1831" height="1.26761" fill="#075BBA" fill-opacity="0.4"/>
    <rect x="96.8174" y="50.1938" width="7.1831" height="1.26761" fill="white"/>
    <rect x="96.8174" y="50.1938" width="7.1831" height="1.26761" fill="#075BBA" fill-opacity="0.4"/>
    <path d="M114.031 154.356V150.038C116.82 148.388 122.705 147.251 129.515 147.251C136.325 147.251 142.211 148.388 145 150.039V154.356C142.211 156.006 136.325 157.143 129.515 157.143C122.705 157.143 116.82 156.006 114.031 154.356Z" fill="white"/>
    <path d="M114.031 154.356V150.038C116.82 148.388 122.705 147.251 129.515 147.251C136.325 147.251 142.211 148.388 145 150.039V154.356C142.211 156.006 136.325 157.143 129.515 157.143C122.705 157.143 116.82 156.006 114.031 154.356Z" fill="#075BBA" fill-opacity="0.5"/>
    <path d="M144.542 149.787V154.608C144.703 154.526 144.855 154.442 144.999 154.356V150.039C144.855 149.954 144.703 149.87 144.542 149.787Z" fill="white"/>
    <path d="M144.542 149.787V154.608C144.703 154.526 144.855 154.442 144.999 154.356V150.039C144.855 149.954 144.703 149.87 144.542 149.787Z" fill="#075BBA" fill-opacity="0.6"/>
    <path d="M114.488 149.787C114.328 149.87 114.175 149.954 114.031 150.039V154.357C114.175 154.442 114.328 154.526 114.488 154.608V149.787Z" fill="white"/>
    <path d="M114.488 149.787C114.328 149.87 114.175 149.954 114.031 150.039V154.357C114.175 154.442 114.328 154.526 114.488 154.608V149.787Z" fill="#075BBA" fill-opacity="0.6"/>
    <path d="M127.713 157.117C128.305 157.135 128.907 157.144 129.515 157.144C130.124 157.144 130.725 157.135 131.317 157.117H130.116V152.841C129.917 152.842 129.717 152.843 129.515 152.843C129.411 152.843 129.306 152.843 129.202 152.842V157.117H127.713Z" fill="white"/>
    <path d="M127.713 157.117C128.305 157.135 128.907 157.144 129.515 157.144C130.124 157.144 130.725 157.135 131.317 157.117H130.116V152.841C129.917 152.842 129.717 152.843 129.515 152.843C129.411 152.843 129.306 152.843 129.202 152.842V157.117H127.713Z" fill="#075BBA" fill-opacity="0.6"/>
    <path d="M142.914 155.3C143.237 155.185 143.542 155.066 143.828 154.943V151.116C143.564 151.231 143.258 151.342 142.914 151.449V155.3Z" fill="white"/>
    <path d="M142.914 155.3C143.237 155.185 143.542 155.066 143.828 154.943V151.116C143.564 151.231 143.258 151.342 142.914 151.449V155.3Z" fill="#075BBA" fill-opacity="0.6"/>
    <path d="M116.405 155.401C116.084 155.292 115.779 155.18 115.491 155.063V151.234C115.762 151.338 116.067 151.439 116.405 151.535V155.401Z" fill="white"/>
    <path d="M116.405 155.401C116.084 155.292 115.779 155.18 115.491 155.063V151.234C115.762 151.338 116.067 151.439 116.405 151.535V155.401Z" fill="#075BBA" fill-opacity="0.6"/>
    <path d="M119.147 156.145C118.834 156.077 118.529 156.006 118.233 155.932V151.962C118.525 152.018 118.83 152.072 119.147 152.124V156.145Z" fill="white"/>
    <path d="M119.147 156.145C118.834 156.077 118.529 156.006 118.233 155.932V151.962C118.525 152.018 118.83 152.072 119.147 152.124V156.145Z" fill="#075BBA" fill-opacity="0.6"/>
    <path d="M120.975 156.492C121.274 156.542 121.579 156.589 121.889 156.633V152.481C121.578 152.449 121.273 152.415 120.975 152.379V156.492Z" fill="white"/>
    <path d="M120.975 156.492C121.274 156.542 121.579 156.589 121.889 156.633V152.481C121.578 152.449 121.273 152.415 120.975 152.379V156.492Z" fill="#075BBA" fill-opacity="0.6"/>
    <path d="M124.632 156.942C124.323 156.916 124.019 156.887 123.718 156.856V152.64C124.018 152.662 124.323 152.682 124.632 152.701V156.942Z" fill="white"/>
    <path d="M124.632 156.942C124.323 156.916 124.019 156.887 123.718 156.856V152.64C124.018 152.662 124.323 152.682 124.632 152.701V156.942Z" fill="#075BBA" fill-opacity="0.6"/>
    <path d="M126.46 157.066C126.762 157.082 127.067 157.095 127.374 157.106V152.816C127.066 152.809 126.762 152.799 126.46 152.788V157.066Z" fill="white"/>
    <path d="M126.46 157.066C126.762 157.082 127.067 157.095 127.374 157.106V152.816C127.066 152.809 126.762 152.799 126.46 152.788V157.066Z" fill="#075BBA" fill-opacity="0.6"/>
    <path d="M131.945 157.095C132.252 157.082 132.557 157.068 132.859 157.05V152.777C132.557 152.789 132.252 152.8 131.945 152.809V157.095Z" fill="white"/>
    <path d="M131.945 157.095C132.252 157.082 132.557 157.068 132.859 157.05V152.777C132.557 152.789 132.252 152.8 131.945 152.809V157.095Z" fill="#075BBA" fill-opacity="0.6"/>
    <path d="M135.601 156.825C135.3 156.858 134.995 156.889 134.687 156.916V152.683C134.996 152.663 135.301 152.642 135.601 152.619V156.825Z" fill="white"/>
    <path d="M135.601 156.825C135.3 156.858 134.995 156.889 134.687 156.916V152.683C134.996 152.663 135.301 152.642 135.601 152.619V156.825Z" fill="#075BBA" fill-opacity="0.6"/>
    <path d="M137.429 156.591C137.74 156.544 138.044 156.495 138.343 156.444V152.344C138.046 152.381 137.741 152.417 137.429 152.451V156.591Z" fill="white"/>
    <path d="M137.429 156.591C137.74 156.544 138.044 156.495 138.343 156.444V152.344C138.046 152.381 137.741 152.417 137.429 152.451V156.591Z" fill="#075BBA" fill-opacity="0.6"/>
    <path d="M141.086 155.858C140.79 155.935 140.485 156.01 140.172 156.081V152.075C140.489 152.021 140.794 151.964 141.086 151.905V155.858Z" fill="white"/>
    <path d="M141.086 155.858C140.79 155.935 140.485 156.01 140.172 156.081V152.075C140.489 152.021 140.794 151.964 141.086 151.905V155.858Z" fill="#075BBA" fill-opacity="0.6"/>
    <ellipse cx="129.515" cy="150.046" rx="15.4841" ry="2.79575" fill="white"/>
    <ellipse cx="129.515" cy="150.046" rx="15.4841" ry="2.79575" fill="#075BBA" fill-opacity="0.3"/>
    <ellipse cx="129.515" cy="150.047" rx="12.4733" ry="1.93552" fill="white"/>
    <ellipse cx="129.515" cy="150.047" rx="12.4733" ry="1.93552" fill="#075BBA" fill-opacity="0.5"/>
    <path d="M141.618 150.518C141.861 150.367 141.99 150.209 141.99 150.047C141.99 148.978 136.405 148.111 129.516 148.111C122.627 148.111 117.043 148.978 117.043 150.047C117.043 150.263 117.271 150.47 117.691 150.664C119.046 149.823 123.95 149.2 129.793 149.2C135.29 149.2 139.957 149.751 141.618 150.518Z" fill="white"/>
    <path d="M141.618 150.518C141.861 150.367 141.99 150.209 141.99 150.047C141.99 148.978 136.405 148.111 129.516 148.111C122.627 148.111 117.043 148.978 117.043 150.047C117.043 150.263 117.271 150.47 117.691 150.664C119.046 149.823 123.95 149.2 129.793 149.2C135.29 149.2 139.957 149.751 141.618 150.518Z" fill="#075BBA" fill-opacity="0.6"/>
    <path d="M112.402 149.467V145.149C115.191 143.499 121.077 142.362 127.886 142.362C134.696 142.362 140.582 143.499 143.371 145.15V149.467C140.582 151.117 134.696 152.254 127.886 152.254C121.077 152.254 115.191 151.117 112.402 149.467Z" fill="white"/>
    <path d="M112.402 149.467V145.149C115.191 143.499 121.077 142.362 127.886 142.362C134.696 142.362 140.582 143.499 143.371 145.15V149.467C140.582 151.117 134.696 152.254 127.886 152.254C121.077 152.254 115.191 151.117 112.402 149.467Z" fill="#075BBA" fill-opacity="0.5"/>
    <path d="M142.913 144.898V149.719C143.074 149.637 143.226 149.553 143.37 149.467V145.15C143.226 145.065 143.074 144.981 142.913 144.898Z" fill="white"/>
    <path d="M142.913 144.898V149.719C143.074 149.637 143.226 149.553 143.37 149.467V145.15C143.226 145.065 143.074 144.981 142.913 144.898Z" fill="#075BBA" fill-opacity="0.6"/>
    <path d="M112.859 144.898C112.699 144.981 112.546 145.065 112.402 145.15V149.467C112.546 149.553 112.699 149.637 112.859 149.719V144.898Z" fill="white"/>
    <path d="M112.859 144.898C112.699 144.981 112.546 145.065 112.402 145.15V149.467C112.546 149.553 112.699 149.637 112.859 149.719V144.898Z" fill="#075BBA" fill-opacity="0.6"/>
    <path d="M126.084 152.228C126.676 152.246 127.278 152.255 127.886 152.255C128.495 152.255 129.096 152.246 129.689 152.228H128.487V147.952C128.288 147.953 128.088 147.954 127.886 147.954C127.782 147.954 127.677 147.953 127.573 147.953V152.228H126.084Z" fill="white"/>
    <path d="M126.084 152.228C126.676 152.246 127.278 152.255 127.886 152.255C128.495 152.255 129.096 152.246 129.689 152.228H128.487V147.952C128.288 147.953 128.088 147.954 127.886 147.954C127.782 147.954 127.677 147.953 127.573 147.953V152.228H126.084Z" fill="#075BBA" fill-opacity="0.6"/>
    <path d="M141.285 150.411C141.608 150.296 141.913 150.177 142.199 150.054V146.226C141.935 146.342 141.629 146.453 141.285 146.56V150.411Z" fill="white"/>
    <path d="M141.285 150.411C141.608 150.296 141.913 150.177 142.199 150.054V146.226C141.935 146.342 141.629 146.453 141.285 146.56V150.411Z" fill="#075BBA" fill-opacity="0.6"/>
    <path d="M114.776 150.512C114.455 150.403 114.15 150.29 113.862 150.174V146.344C114.133 146.449 114.438 146.549 114.776 146.646V150.512Z" fill="white"/>
    <path d="M114.776 150.512C114.455 150.403 114.15 150.29 113.862 150.174V146.344C114.133 146.449 114.438 146.549 114.776 146.646V150.512Z" fill="#075BBA" fill-opacity="0.6"/>
    <path d="M117.518 151.256C117.205 151.188 116.9 151.117 116.604 151.043V147.073C116.896 147.129 117.201 147.183 117.518 147.234V151.256Z" fill="white"/>
    <path d="M117.518 151.256C117.205 151.188 116.9 151.117 116.604 151.043V147.073C116.896 147.129 117.201 147.183 117.518 147.234V151.256Z" fill="#075BBA" fill-opacity="0.6"/>
    <path d="M119.346 151.603C119.646 151.653 119.95 151.699 120.26 151.744V147.592C119.949 147.56 119.644 147.526 119.346 147.49V151.603Z" fill="white"/>
    <path d="M119.346 151.603C119.646 151.653 119.95 151.699 120.26 151.744V147.592C119.949 147.56 119.644 147.526 119.346 147.49V151.603Z" fill="#075BBA" fill-opacity="0.6"/>
    <path d="M123.003 152.053C122.694 152.026 122.39 151.998 122.089 151.967V147.751C122.389 147.773 122.694 147.793 123.003 147.812V152.053Z" fill="white"/>
    <path d="M123.003 152.053C122.694 152.026 122.39 151.998 122.089 151.967V147.751C122.389 147.773 122.694 147.793 123.003 147.812V152.053Z" fill="#075BBA" fill-opacity="0.6"/>
    <path d="M124.831 152.177C125.133 152.192 125.438 152.206 125.745 152.217V147.927C125.437 147.919 125.133 147.91 124.831 147.899V152.177Z" fill="white"/>
    <path d="M124.831 152.177C125.133 152.192 125.438 152.206 125.745 152.217V147.927C125.437 147.919 125.133 147.91 124.831 147.899V152.177Z" fill="#075BBA" fill-opacity="0.6"/>
    <path d="M130.316 152.206C130.623 152.193 130.928 152.178 131.23 152.161V147.888C130.928 147.9 130.624 147.911 130.316 147.919V152.206Z" fill="white"/>
    <path d="M130.316 152.206C130.623 152.193 130.928 152.178 131.23 152.161V147.888C130.928 147.9 130.624 147.911 130.316 147.919V152.206Z" fill="#075BBA" fill-opacity="0.6"/>
    <path d="M133.972 151.936C133.671 151.969 133.367 151.999 133.058 152.027V147.794C133.367 147.774 133.672 147.753 133.972 147.729V151.936Z" fill="white"/>
    <path d="M133.972 151.936C133.671 151.969 133.367 151.999 133.058 152.027V147.794C133.367 147.774 133.672 147.753 133.972 147.729V151.936Z" fill="#075BBA" fill-opacity="0.6"/>
    <path d="M135.8 151.701C136.111 151.655 136.416 151.606 136.714 151.555V147.455C136.417 147.492 136.112 147.528 135.8 147.561V151.701Z" fill="white"/>
    <path d="M135.8 151.701C136.111 151.655 136.416 151.606 136.714 151.555V147.455C136.417 147.492 136.112 147.528 135.8 147.561V151.701Z" fill="#075BBA" fill-opacity="0.6"/>
    <path d="M139.457 150.969C139.161 151.046 138.856 151.121 138.543 151.192V147.186C138.86 147.132 139.165 147.075 139.457 147.016V150.969Z" fill="white"/>
    <path d="M139.457 150.969C139.161 151.046 138.856 151.121 138.543 151.192V147.186C138.86 147.132 139.165 147.075 139.457 147.016V150.969Z" fill="#075BBA" fill-opacity="0.6"/>
    <ellipse cx="127.886" cy="145.158" rx="15.4841" ry="2.79575" fill="white"/>
    <ellipse cx="127.886" cy="145.158" rx="15.4841" ry="2.79575" fill="#075BBA" fill-opacity="0.3"/>
    <ellipse cx="127.886" cy="145.157" rx="12.4733" ry="1.93552" fill="white"/>
    <ellipse cx="127.886" cy="145.157" rx="12.4733" ry="1.93552" fill="#075BBA" fill-opacity="0.5"/>
    <path d="M139.989 145.629C140.232 145.478 140.361 145.32 140.361 145.158C140.361 144.089 134.776 143.222 127.887 143.222C120.999 143.222 115.414 144.089 115.414 145.158C115.414 145.374 115.642 145.581 116.062 145.775C117.417 144.934 122.322 144.311 128.164 144.311C133.662 144.311 138.328 144.862 139.989 145.629Z" fill="white"/>
    <path d="M139.989 145.629C140.232 145.478 140.361 145.32 140.361 145.158C140.361 144.089 134.776 143.222 127.887 143.222C120.999 143.222 115.414 144.089 115.414 145.158C115.414 145.374 115.642 145.581 116.062 145.775C117.417 144.934 122.322 144.311 128.164 144.311C133.662 144.311 138.328 144.862 139.989 145.629Z" fill="#075BBA" fill-opacity="0.6"/>
    <path d="M114.031 144.578V140.26C116.82 138.61 122.705 137.473 129.515 137.473C136.325 137.473 142.211 138.61 145 140.261V144.578C142.211 146.228 136.325 147.366 129.515 147.366C122.705 147.366 116.82 146.228 114.031 144.578Z" fill="white"/>
    <path d="M114.031 144.578V140.26C116.82 138.61 122.705 137.473 129.515 137.473C136.325 137.473 142.211 138.61 145 140.261V144.578C142.211 146.228 136.325 147.366 129.515 147.366C122.705 147.366 116.82 146.228 114.031 144.578Z" fill="#075BBA" fill-opacity="0.5"/>
    <path d="M144.542 140.009V144.83C144.703 144.748 144.855 144.664 144.999 144.578V140.261C144.855 140.176 144.703 140.092 144.542 140.009Z" fill="white"/>
    <path d="M144.542 140.009V144.83C144.703 144.748 144.855 144.664 144.999 144.578V140.261C144.855 140.176 144.703 140.092 144.542 140.009Z" fill="#075BBA" fill-opacity="0.6"/>
    <path d="M114.488 140.009C114.328 140.092 114.175 140.176 114.031 140.261V144.578C114.175 144.664 114.328 144.748 114.488 144.83V140.009Z" fill="white"/>
    <path d="M114.488 140.009C114.328 140.092 114.175 140.176 114.031 140.261V144.578C114.175 144.664 114.328 144.748 114.488 144.83V140.009Z" fill="#075BBA" fill-opacity="0.6"/>
    <path d="M127.713 147.339C128.305 147.357 128.907 147.366 129.515 147.366C130.124 147.366 130.725 147.357 131.317 147.339H130.116V143.063C129.917 143.064 129.717 143.065 129.515 143.065C129.411 143.065 129.306 143.065 129.202 143.064V147.339H127.713Z" fill="white"/>
    <path d="M127.713 147.339C128.305 147.357 128.907 147.366 129.515 147.366C130.124 147.366 130.725 147.357 131.317 147.339H130.116V143.063C129.917 143.064 129.717 143.065 129.515 143.065C129.411 143.065 129.306 143.065 129.202 143.064V147.339H127.713Z" fill="#075BBA" fill-opacity="0.6"/>
    <path d="M142.914 145.522C143.237 145.407 143.542 145.288 143.828 145.165V141.338C143.564 141.453 143.258 141.564 142.914 141.671V145.522Z" fill="white"/>
    <path d="M142.914 145.522C143.237 145.407 143.542 145.288 143.828 145.165V141.338C143.564 141.453 143.258 141.564 142.914 141.671V145.522Z" fill="#075BBA" fill-opacity="0.6"/>
    <path d="M116.405 145.623C116.084 145.514 115.779 145.402 115.491 145.285V141.455C115.762 141.56 116.067 141.66 116.405 141.757V145.623Z" fill="white"/>
    <path d="M116.405 145.623C116.084 145.514 115.779 145.402 115.491 145.285V141.455C115.762 141.56 116.067 141.66 116.405 141.757V145.623Z" fill="#075BBA" fill-opacity="0.6"/>
    <path d="M119.147 146.367C118.834 146.299 118.529 146.228 118.233 146.154V142.184C118.525 142.24 118.83 142.294 119.147 142.345V146.367Z" fill="white"/>
    <path d="M119.147 146.367C118.834 146.299 118.529 146.228 118.233 146.154V142.184C118.525 142.24 118.83 142.294 119.147 142.345V146.367Z" fill="#075BBA" fill-opacity="0.6"/>
    <path d="M120.975 146.714C121.274 146.764 121.579 146.81 121.889 146.855V142.703C121.578 142.671 121.273 142.637 120.975 142.601V146.714Z" fill="white"/>
    <path d="M120.975 146.714C121.274 146.764 121.579 146.81 121.889 146.855V142.703C121.578 142.671 121.273 142.637 120.975 142.601V146.714Z" fill="#075BBA" fill-opacity="0.6"/>
    <path d="M124.632 147.164C124.323 147.137 124.019 147.109 123.718 147.078V142.862C124.018 142.884 124.323 142.904 124.632 142.923V147.164Z" fill="white"/>
    <path d="M124.632 147.164C124.323 147.137 124.019 147.109 123.718 147.078V142.862C124.018 142.884 124.323 142.904 124.632 142.923V147.164Z" fill="#075BBA" fill-opacity="0.6"/>
    <path d="M126.46 147.288C126.762 147.304 127.067 147.317 127.374 147.328V143.038C127.066 143.031 126.762 143.021 126.46 143.01V147.288Z" fill="white"/>
    <path d="M126.46 147.288C126.762 147.304 127.067 147.317 127.374 147.328V143.038C127.066 143.031 126.762 143.021 126.46 143.01V147.288Z" fill="#075BBA" fill-opacity="0.6"/>
    <path d="M131.945 147.317C132.252 147.304 132.557 147.29 132.859 147.272V142.999C132.557 143.011 132.252 143.022 131.945 143.03V147.317Z" fill="white"/>
    <path d="M131.945 147.317C132.252 147.304 132.557 147.29 132.859 147.272V142.999C132.557 143.011 132.252 143.022 131.945 143.03V147.317Z" fill="#075BBA" fill-opacity="0.6"/>
    <path d="M135.601 147.047C135.3 147.08 134.995 147.11 134.687 147.138V142.905C134.996 142.885 135.301 142.864 135.601 142.84V147.047Z" fill="white"/>
    <path d="M135.601 147.047C135.3 147.08 134.995 147.11 134.687 147.138V142.905C134.996 142.885 135.301 142.864 135.601 142.84V147.047Z" fill="#075BBA" fill-opacity="0.6"/>
    <path d="M137.429 146.813C137.74 146.766 138.044 146.717 138.343 146.666V142.566C138.046 142.603 137.741 142.639 137.429 142.672V146.813Z" fill="white"/>
    <path d="M137.429 146.813C137.74 146.766 138.044 146.717 138.343 146.666V142.566C138.046 142.603 137.741 142.639 137.429 142.672V146.813Z" fill="#075BBA" fill-opacity="0.6"/>
    <path d="M141.086 146.08C140.79 146.157 140.485 146.232 140.172 146.303V142.297C140.489 142.243 140.794 142.186 141.086 142.127V146.08Z" fill="white"/>
    <path d="M141.086 146.08C140.79 146.157 140.485 146.232 140.172 146.303V142.297C140.489 142.243 140.794 142.186 141.086 142.127V146.08Z" fill="#075BBA" fill-opacity="0.6"/>
    <ellipse cx="129.515" cy="140.269" rx="15.4841" ry="2.79575" fill="white"/>
    <ellipse cx="129.515" cy="140.269" rx="15.4841" ry="2.79575" fill="#075BBA" fill-opacity="0.3"/>
    <ellipse cx="129.515" cy="140.269" rx="12.4733" ry="1.93552" fill="white"/>
    <ellipse cx="129.515" cy="140.269" rx="12.4733" ry="1.93552" fill="#075BBA" fill-opacity="0.5"/>
    <path d="M141.618 140.74C141.861 140.589 141.99 140.431 141.99 140.269C141.99 139.2 136.405 138.333 129.516 138.333C122.627 138.333 117.043 139.2 117.043 140.269C117.043 140.485 117.271 140.693 117.691 140.886C119.046 140.045 123.95 139.422 129.793 139.422C135.29 139.422 139.957 139.974 141.618 140.74Z" fill="white"/>
    <path d="M141.618 140.74C141.861 140.589 141.99 140.431 141.99 140.269C141.99 139.2 136.405 138.333 129.516 138.333C122.627 138.333 117.043 139.2 117.043 140.269C117.043 140.485 117.271 140.693 117.691 140.886C119.046 140.045 123.95 139.422 129.793 139.422C135.29 139.422 139.957 139.974 141.618 140.74Z" fill="#075BBA" fill-opacity="0.6"/>
    <path d="M113.014 139.624V135.306C115.802 133.656 121.688 132.519 128.498 132.519C135.308 132.519 141.194 133.656 143.982 135.306V139.623C141.194 141.274 135.308 142.411 128.498 142.411C121.688 142.411 115.802 141.274 113.014 139.624Z" fill="white"/>
    <path d="M113.014 139.624V135.306C115.802 133.656 121.688 132.519 128.498 132.519C135.308 132.519 141.194 133.656 143.982 135.306V139.623C141.194 141.274 135.308 142.411 128.498 142.411C121.688 142.411 115.802 141.274 113.014 139.624Z" fill="#075BBA" fill-opacity="0.5"/>
    <path d="M143.525 135.055V139.876C143.685 139.794 143.838 139.71 143.982 139.624V135.307C143.838 135.222 143.685 135.138 143.525 135.055Z" fill="white"/>
    <path d="M143.525 135.055V139.876C143.685 139.794 143.838 139.71 143.982 139.624V135.307C143.838 135.222 143.685 135.138 143.525 135.055Z" fill="#075BBA" fill-opacity="0.6"/>
    <path d="M113.471 135.055C113.31 135.138 113.158 135.222 113.014 135.307V139.624C113.158 139.71 113.31 139.794 113.471 139.876V135.055Z" fill="white"/>
    <path d="M113.471 135.055C113.31 135.138 113.158 135.222 113.014 135.307V139.624C113.158 139.71 113.31 139.794 113.471 139.876V135.055Z" fill="#075BBA" fill-opacity="0.6"/>
    <path d="M126.695 142.385C127.288 142.403 127.889 142.412 128.498 142.412C129.106 142.412 129.708 142.403 130.3 142.385H129.099V138.109C128.899 138.11 128.699 138.111 128.498 138.111C128.393 138.111 128.289 138.11 128.185 138.11V142.385H126.695Z" fill="white"/>
    <path d="M126.695 142.385C127.288 142.403 127.889 142.412 128.498 142.412C129.106 142.412 129.708 142.403 130.3 142.385H129.099V138.109C128.899 138.11 128.699 138.111 128.498 138.111C128.393 138.111 128.289 138.11 128.185 138.11V142.385H126.695Z" fill="#075BBA" fill-opacity="0.6"/>
    <path d="M141.896 140.568C142.219 140.453 142.524 140.334 142.81 140.211V136.383C142.546 136.499 142.24 136.61 141.896 136.717V140.568Z" fill="white"/>
    <path d="M141.896 140.568C142.219 140.453 142.524 140.334 142.81 140.211V136.383C142.546 136.499 142.24 136.61 141.896 136.717V140.568Z" fill="#075BBA" fill-opacity="0.6"/>
    <path d="M115.387 140.668C115.066 140.56 114.761 140.447 114.473 140.331V136.501C114.744 136.606 115.05 136.706 115.387 136.803V140.668Z" fill="white"/>
    <path d="M115.387 140.668C115.066 140.56 114.761 140.447 114.473 140.331V136.501C114.744 136.606 115.05 136.706 115.387 136.803V140.668Z" fill="#075BBA" fill-opacity="0.6"/>
    <path d="M118.129 141.413C117.816 141.345 117.511 141.274 117.215 141.2V137.23C117.508 137.286 117.813 137.34 118.129 137.391V141.413Z" fill="white"/>
    <path d="M118.129 141.413C117.816 141.345 117.511 141.274 117.215 141.2V137.23C117.508 137.286 117.813 137.34 118.129 137.391V141.413Z" fill="#075BBA" fill-opacity="0.6"/>
    <path d="M119.958 141.76C120.257 141.81 120.562 141.856 120.872 141.9V137.749C120.56 137.717 120.255 137.683 119.958 137.647V141.76Z" fill="white"/>
    <path d="M119.958 141.76C120.257 141.81 120.562 141.856 120.872 141.9V137.749C120.56 137.717 120.255 137.683 119.958 137.647V141.76Z" fill="#075BBA" fill-opacity="0.6"/>
    <path d="M123.614 142.21C123.306 142.183 123.001 142.155 122.7 142.124V137.908C123 137.93 123.305 137.95 123.614 137.969V142.21Z" fill="white"/>
    <path d="M123.614 142.21C123.306 142.183 123.001 142.155 122.7 142.124V137.908C123 137.93 123.305 137.95 123.614 137.969V142.21Z" fill="#075BBA" fill-opacity="0.6"/>
    <path d="M125.442 142.334C125.744 142.349 126.049 142.363 126.356 142.374V138.084C126.049 138.076 125.744 138.067 125.442 138.056V142.334Z" fill="white"/>
    <path d="M125.442 142.334C125.744 142.349 126.049 142.363 126.356 142.374V138.084C126.049 138.076 125.744 138.067 125.442 138.056V142.334Z" fill="#075BBA" fill-opacity="0.6"/>
    <path d="M130.927 142.363C131.234 142.35 131.539 142.335 131.841 142.318V138.045C131.54 138.057 131.235 138.068 130.927 138.076V142.363Z" fill="white"/>
    <path d="M130.927 142.363C131.234 142.35 131.539 142.335 131.841 142.318V138.045C131.54 138.057 131.235 138.068 130.927 138.076V142.363Z" fill="#075BBA" fill-opacity="0.6"/>
    <path d="M134.583 142.093C134.283 142.126 133.978 142.156 133.669 142.184V137.951C133.979 137.931 134.284 137.91 134.583 137.886V142.093Z" fill="white"/>
    <path d="M134.583 142.093C134.283 142.126 133.978 142.156 133.669 142.184V137.951C133.979 137.931 134.284 137.91 134.583 137.886V142.093Z" fill="#075BBA" fill-opacity="0.6"/>
    <path d="M136.412 141.858C136.722 141.812 137.027 141.763 137.326 141.712V137.612C137.029 137.649 136.724 137.685 136.412 137.718V141.858Z" fill="white"/>
    <path d="M136.412 141.858C136.722 141.812 137.027 141.763 137.326 141.712V137.612C137.029 137.649 136.724 137.685 136.412 137.718V141.858Z" fill="#075BBA" fill-opacity="0.6"/>
    <path d="M140.068 141.126C139.773 141.203 139.468 141.278 139.154 141.349V137.343C139.472 137.289 139.777 137.232 140.068 137.173V141.126Z" fill="white"/>
    <path d="M140.068 141.126C139.773 141.203 139.468 141.278 139.154 141.349V137.343C139.472 137.289 139.777 137.232 140.068 137.173V141.126Z" fill="#075BBA" fill-opacity="0.6"/>
    <ellipse cx="128.498" cy="135.314" rx="15.4841" ry="2.79575" fill="white"/>
    <ellipse cx="128.498" cy="135.314" rx="15.4841" ry="2.79575" fill="#075BBA" fill-opacity="0.3"/>
    <ellipse cx="128.498" cy="135.314" rx="12.4733" ry="1.93552" fill="white"/>
    <ellipse cx="128.498" cy="135.314" rx="12.4733" ry="1.93552" fill="#075BBA" fill-opacity="0.5"/>
    <path d="M140.601 135.785C140.843 135.635 140.972 135.477 140.972 135.315C140.972 134.246 135.388 133.379 128.499 133.379C121.61 133.379 116.025 134.246 116.025 135.315C116.025 135.531 116.253 135.738 116.674 135.932C118.029 135.091 122.933 134.467 128.775 134.467C134.273 134.467 138.94 135.019 140.601 135.785Z" fill="white"/>
    <path d="M140.601 135.785C140.843 135.635 140.972 135.477 140.972 135.315C140.972 134.246 135.388 133.379 128.499 133.379C121.61 133.379 116.025 134.246 116.025 135.315C116.025 135.531 116.253 135.738 116.674 135.932C118.029 135.091 122.933 134.467 128.775 134.467C134.273 134.467 138.94 135.019 140.601 135.785Z" fill="#075BBA" fill-opacity="0.6"/>
</svg>
