<svg width="190" height="190" viewBox="0 0 190 190" fill="none" xmlns="http://www.w3.org/2000/svg">
    <g opacity="0.5">
        <circle cx="95" cy="95" r="95" fill="white" fill-opacity="0.2"/>
        <circle cx="95" cy="95" r="95" fill="#075BBA" fill-opacity="0.09"/>
    </g>
    <path d="M94.7676 37.0233C97.0647 42.703 105.48 50.5006 116.816 56.8561C126.135 62.0804 135.255 65.1123 141.563 65.4686L141.557 65.2205L144.144 64.7892L145.007 63.9265L149.035 57.3614C146.379 51.7486 138.179 44.3041 127.279 38.1931C115.742 31.725 104.509 28.6176 98.5395 29.7876L94.9762 35.4598L94.9762 36.7535L94.7676 37.0233Z" fill="white"/>
    <path d="M94.7676 37.0233C97.0647 42.703 105.48 50.5006 116.816 56.8561C126.135 62.0804 135.255 65.1123 141.563 65.4686L141.557 65.2205L144.144 64.7892L145.007 63.9265L149.035 57.3614C146.379 51.7486 138.179 44.3041 127.279 38.1931C115.742 31.725 104.509 28.6176 98.5395 29.7876L94.9762 35.4598L94.9762 36.7535L94.7676 37.0233Z" fill="#075BBA" fill-opacity="0.4"/>
    <path d="M145.076 64.039C143.03 67.6886 130.523 64.3124 116.535 56.4704C102.547 48.6283 92.8841 39.2713 94.9302 35.6217C96.9763 31.9721 109.957 35.4118 123.945 43.2539C137.933 51.096 147.122 60.3893 145.076 64.039Z" fill="white"/>
    <path d="M145.076 64.039C143.03 67.6886 130.523 64.3124 116.535 56.4704C102.547 48.6283 92.8841 39.2713 94.9302 35.6217C96.9763 31.9721 109.957 35.4118 123.945 43.2539C137.933 51.096 147.122 60.3893 145.076 64.039Z" fill="#075BBA" fill-opacity="0.6"/>
    <path d="M97.8261 40.516C98.9157 38.6288 100.538 37.1861 102.677 37.5998C105.721 38.1882 111.521 40.2251 122.401 46.2578C134.233 52.8182 138.696 57.0105 140.359 59.3726C141.391 60.8386 140.85 62.6108 139.953 64.1635L133.391 75.5297C130.403 80.7043 124.441 83.3885 118.587 82.1948L111.692 80.7889C109.955 80.4348 108.187 81.231 107.3 82.7659C106.405 84.3174 106.614 86.2701 107.819 87.5962L112.496 92.7442C116.487 97.1373 117.181 103.606 114.213 108.746L105.843 123.244C105.046 124.625 103.976 125.911 102.381 125.922C99.5942 125.943 93.6417 124.538 81.4538 117.181C70.2316 110.406 65.7356 106.185 63.9494 103.788C62.7895 102.232 63.2989 100.319 64.2693 98.6381L72.1516 84.9855C75.2544 79.6114 81.4745 76.8584 87.5386 78.1755L95.0568 79.8084C96.6419 80.1527 98.2679 79.4331 99.0789 78.0283C99.8812 76.6387 99.7049 74.8917 98.6412 73.6904L93.4881 67.8709C89.3465 63.1937 88.6601 56.392 91.7838 50.9817L97.8261 40.516Z" fill="white"/>
    <path d="M97.8261 40.516C98.9157 38.6288 100.538 37.1861 102.677 37.5998C105.721 38.1882 111.521 40.2251 122.401 46.2578C134.233 52.8182 138.696 57.0105 140.359 59.3726C141.391 60.8386 140.85 62.6108 139.953 64.1635L133.391 75.5297C130.403 80.7043 124.441 83.3885 118.587 82.1948L111.692 80.7889C109.955 80.4348 108.187 81.231 107.3 82.7659C106.405 84.3174 106.614 86.2701 107.819 87.5962L112.496 92.7442C116.487 97.1373 117.181 103.606 114.213 108.746L105.843 123.244C105.046 124.625 103.976 125.911 102.381 125.922C99.5942 125.943 93.6417 124.538 81.4538 117.181C70.2316 110.406 65.7356 106.185 63.9494 103.788C62.7895 102.232 63.2989 100.319 64.2693 98.6381L72.1516 84.9855C75.2544 79.6114 81.4745 76.8584 87.5386 78.1755L95.0568 79.8084C96.6419 80.1527 98.2679 79.4331 99.0789 78.0283C99.8812 76.6387 99.7049 74.8917 98.6412 73.6904L93.4881 67.8709C89.3465 63.1937 88.6601 56.392 91.7838 50.9817L97.8261 40.516Z" fill="#075BBA" fill-opacity="0.2"/>
    <path d="M107.912 79.8849C111.1 78.5187 116.117 79.8843 116.117 79.8843L104.539 75.1719C112.465 78.6431 95.6135 87.614 93.6788 88.0798C82.9314 90.6677 77.7203 86.283 73.4072 89.3738C69.0941 92.4645 66.9375 98.4313 66.9375 98.4313L105.324 120.428L111.713 110.389C114.927 105.084 115.217 101.255 113.519 97.5687C111.528 93.2462 108.343 90.2364 106.187 88.0798C104.03 85.9233 104.893 81.1789 107.912 79.8849Z" fill="white"/>
    <path d="M107.912 79.8849C111.1 78.5187 116.117 79.8843 116.117 79.8843L104.539 75.1719C112.465 78.6431 95.6135 87.614 93.6788 88.0798C82.9314 90.6677 77.7203 86.283 73.4072 89.3738C69.0941 92.4645 66.9375 98.4313 66.9375 98.4313L105.324 120.428L111.713 110.389C114.927 105.084 115.217 101.255 113.519 97.5687C111.528 93.2462 108.343 90.2364 106.187 88.0798C104.03 85.9233 104.893 81.1789 107.912 79.8849Z" fill="#075BBA" fill-opacity="0.5"/>
    <path d="M55.2109 104.8C57.2453 110.504 65.8502 118.52 77.5347 124.997C87.0817 130.29 96.4105 133.294 102.731 133.509L102.74 133.367L105.76 132.073L109.769 125.375C107.099 119.772 98.8549 112.353 87.9081 106.284C76.4373 99.9256 65.2816 96.8697 59.2804 97.9873L55.2109 104.8Z" fill="white"/>
    <path d="M55.2109 104.8C57.2453 110.504 65.8502 118.52 77.5347 124.997C87.0817 130.29 96.4105 133.294 102.731 133.509L102.74 133.367L105.76 132.073L109.769 125.375C107.099 119.772 98.8549 112.353 87.9081 106.284C76.4373 99.9256 65.2816 96.8697 59.2804 97.9873L55.2109 104.8Z" fill="#075BBA" fill-opacity="0.4"/>
    <path d="M105.827 132.045C103.799 135.705 91.2757 132.389 77.2502 124.614C63.2248 116.839 53.5171 107.528 55.5457 103.869C57.5743 100.209 70.5709 103.587 84.5963 111.362C98.6217 119.137 107.856 128.386 105.827 132.045Z" fill="white"/>
    <path d="M105.827 132.045C103.799 135.705 91.2757 132.389 77.2502 124.614C63.2248 116.839 53.5171 107.528 55.5457 103.869C57.5743 100.209 70.5709 103.587 84.5963 111.362C98.6217 119.137 107.856 128.386 105.827 132.045Z" fill="#075BBA" fill-opacity="0.6"/>
    <path d="M100.581 71.259L130.735 74.9457V74.9457C127.304 79.9433 120.856 81.8775 115.24 79.5934L102.284 74.3235C101.068 73.8286 100.359 72.5537 100.581 71.259V71.259Z" fill="white"/>
    <path d="M100.581 71.259L130.735 74.9457V74.9457C127.304 79.9433 120.856 81.8775 115.24 79.5934L102.284 74.3235C101.068 73.8286 100.359 72.5537 100.581 71.259V71.259Z" fill="#075BBA" fill-opacity="0.5"/>
    <ellipse cx="115.654" cy="73.0655" rx="15.2191" ry="2.58787" transform="rotate(7.2768 115.654 73.0655)" fill="white"/>
    <ellipse cx="115.654" cy="73.0655" rx="15.2191" ry="2.58787" transform="rotate(7.2768 115.654 73.0655)" fill="#075BBA" fill-opacity="0.3"/>
    <path d="M41.8487 47.2011L46.0002 50.0001L48.6009 36.9763L34.876 42.5L38.5263 44.9611C25.784 58.7722 18 77.227 18 97.4998C18 140.302 52.6979 175 95.5 175C102.597 175 109.47 174.046 116 172.26V149.78C109.543 151.87 102.653 153 95.5 153C58.7731 153 29 123.227 29 86.4998C29 71.7981 33.7708 58.2106 41.8487 47.2011Z" fill="white"/>
    <path d="M41.8487 47.2011L46.0002 50.0001L48.6009 36.9763L34.876 42.5L38.5263 44.9611C25.784 58.7722 18 77.227 18 97.4998C18 140.302 52.6979 175 95.5 175C102.597 175 109.47 174.046 116 172.26V149.78C109.543 151.87 102.653 153 95.5 153C58.7731 153 29 123.227 29 86.4998C29 71.7981 33.7708 58.2106 41.8487 47.2011Z" fill="#075BBA" fill-opacity="0.2"/>
</svg>
