<svg width="200" height="201" viewBox="0 0 200 201" fill="none" xmlns="http://www.w3.org/2000/svg">
<g opacity="0.5">
<circle cx="100" cy="100.5" r="100" fill="white" fill-opacity="0.2"/>
<circle cx="100" cy="100.5" r="100" fill="#075BBA" fill-opacity="0.09"/>
</g>
<path d="M36 146V85C36 83.8954 36.8954 83 38 83H163C164.105 83 165 83.8954 165 85V146C165 151.523 160.523 156 155 156H46C40.4772 156 36 151.523 36 146Z" fill="white"/>
<path d="M36 146V85C36 83.8954 36.8954 83 38 83H163C164.105 83 165 83.8954 165 85V146C165 151.523 160.523 156 155 156H46C40.4772 156 36 151.523 36 146Z" fill="#075BBA" fill-opacity="0.73"/>
<path d="M45 97H155L152.864 141H48.2039L45 97Z" fill="white"/>
<path d="M45 97H155L152.864 141H48.2039L45 97Z" fill="#075BBA" fill-opacity="0.38"/>
<path d="M59.3915 111.366C58.1553 106.099 58.4147 104.231 58.9634 100.279C59.095 99.3307 59.2432 98.2631 59.3915 97H64.5C63.9891 100.396 63.1207 108.022 63.7337 111.366C64.2446 114.152 63.7337 117.634 63.3364 120.343C63.1377 121.697 62.9674 122.858 62.9674 123.642C62.9674 125.522 63.4783 129.998 63.7337 132H59.3915C59.3915 131.478 59.2382 129.754 58.6252 127.037C58.3061 125.624 58.6513 123.802 59.0522 121.687C59.6143 118.721 60.2859 115.177 59.3915 111.366Z" fill="white"/>
<path d="M59.3915 111.366C58.1553 106.099 58.4147 104.231 58.9634 100.279C59.095 99.3307 59.2432 98.2631 59.3915 97H64.5C63.9891 100.396 63.1207 108.022 63.7337 111.366C64.2446 114.152 63.7337 117.634 63.3364 120.343C63.1377 121.697 62.9674 122.858 62.9674 123.642C62.9674 125.522 63.4783 129.998 63.7337 132H59.3915C59.3915 131.478 59.2382 129.754 58.6252 127.037C58.3061 125.624 58.6513 123.802 59.0522 121.687C59.6143 118.721 60.2859 115.177 59.3915 111.366Z" fill="#075BBA" fill-opacity="0.2"/>
<path d="M84.3636 98.9635C83.7077 102.15 83.3279 103.994 83.577 107.341C83.7841 110.122 83.7016 113.811 83.6332 116.867C83.6038 118.18 83.577 119.377 83.577 120.333C83.577 122.879 83.9719 129.172 84.1693 132H89.5C89.3026 128.288 88.9077 120.174 88.9077 117.417V102.833C88.9077 101.561 89.3026 98.4141 89.5 97H84.7616C84.6208 97.7147 84.4873 98.3631 84.3636 98.9635Z" fill="white"/>
<path d="M84.3636 98.9635C83.7077 102.15 83.3279 103.994 83.577 107.341C83.7841 110.122 83.7016 113.811 83.6332 116.867C83.6038 118.18 83.577 119.377 83.577 120.333C83.577 122.879 83.9719 129.172 84.1693 132H89.5C89.3026 128.288 88.9077 120.174 88.9077 117.417V102.833C88.9077 101.561 89.3026 98.4141 89.5 97H84.7616C84.6208 97.7147 84.4873 98.3631 84.3636 98.9635Z" fill="#075BBA" fill-opacity="0.2"/>
<path d="M129.78 98.9041C130.327 101.994 130.643 103.782 130.436 107.028C130.263 109.725 130.332 113.302 130.389 116.264C130.413 117.538 130.436 118.699 130.436 119.626C130.436 122.095 130.107 129.257 129.942 132H125.5C125.665 128.4 125.994 119.472 125.994 116.798V102.657C125.994 101.422 125.665 98.3713 125.5 97H129.449C129.566 97.6932 129.677 98.3217 129.78 98.9041Z" fill="white"/>
<path d="M129.78 98.9041C130.327 101.994 130.643 103.782 130.436 107.028C130.263 109.725 130.332 113.302 130.389 116.264C130.413 117.538 130.436 118.699 130.436 119.626C130.436 122.095 130.107 129.257 129.942 132H125.5C125.665 128.4 125.994 119.472 125.994 116.798V102.657C125.994 101.422 125.665 98.3713 125.5 97H129.449C129.566 97.6932 129.677 98.3217 129.78 98.9041Z" fill="#075BBA" fill-opacity="0.2"/>
<path d="M92.0407 100.279C91.4005 104.231 91.0979 106.099 92.54 111.366C93.5836 115.177 92.8 118.721 92.1443 121.687C91.6765 123.802 91.2738 125.624 91.646 127.037C92.3612 129.754 92.54 131.478 92.54 132H97.606C97.308 129.998 96.712 125.522 96.712 123.642C96.712 122.858 96.9107 121.697 97.1424 120.343C97.606 117.634 98.202 114.152 97.606 111.366C96.8908 108.022 97.904 100.396 98.5 97H92.54C92.3672 98.2627 92.1941 99.331 92.0407 100.279Z" fill="white"/>
<path d="M92.0407 100.279C91.4005 104.231 91.0979 106.099 92.54 111.366C93.5836 115.177 92.8 118.721 92.1443 121.687C91.6765 123.802 91.2738 125.624 91.646 127.037C92.3612 129.754 92.54 131.478 92.54 132H97.606C97.308 129.998 96.712 125.522 96.712 123.642C96.712 122.858 96.9107 121.697 97.1424 120.343C97.606 117.634 98.202 114.152 97.606 111.366C96.8908 108.022 97.904 100.396 98.5 97H92.54C92.3672 98.2627 92.1941 99.331 92.0407 100.279Z" fill="#075BBA" fill-opacity="0.2"/>
<path d="M67.4877 114.579C68.456 108.32 69.5944 100.961 68.0513 97H73.1396C74.158 98.6043 72.7983 107.939 71.7804 114.927C71.2726 118.413 70.8499 121.315 70.8499 122.382C70.8499 124.947 71.3587 129.863 71.6131 132H67.5425C66.5249 130.504 66.4401 124.964 66.5249 122.382C66.5907 120.378 67.0193 117.607 67.4877 114.579Z" fill="white"/>
<path d="M67.4877 114.579C68.456 108.32 69.5944 100.961 68.0513 97H73.1396C74.158 98.6043 72.7983 107.939 71.7804 114.927C71.2726 118.413 70.8499 121.315 70.8499 122.382C70.8499 124.947 71.3587 129.863 71.6131 132H67.5425C66.5249 130.504 66.4401 124.964 66.5249 122.382C66.5907 120.378 67.0193 117.607 67.4877 114.579Z" fill="#075BBA" fill-opacity="0.2"/>
<path d="M133.629 114.579C133.093 117.607 132.604 120.378 132.528 122.382C132.431 124.964 132.528 130.504 133.691 132H138.344C138.053 129.863 137.471 124.947 137.471 122.382C137.471 121.315 137.954 118.413 138.535 114.927C139.698 107.939 141.252 98.6043 140.088 97H134.273C136.036 100.961 134.735 108.32 133.629 114.579Z" fill="white"/>
<path d="M133.629 114.579C133.093 117.607 132.604 120.378 132.528 122.382C132.431 124.964 132.528 130.504 133.691 132H138.344C138.053 129.863 137.471 124.947 137.471 122.382C137.471 121.315 137.954 118.413 138.535 114.927C139.698 107.939 141.252 98.6043 140.088 97H134.273C136.036 100.961 134.735 108.32 133.629 114.579Z" fill="#075BBA" fill-opacity="0.2"/>
<path d="M108.525 122.382C108.591 120.378 109.019 117.607 109.488 114.579C110.456 108.32 111.594 100.961 110.051 97H115.14C116.158 98.6043 114.798 107.939 113.78 114.927C113.273 118.413 112.85 121.315 112.85 122.382C112.85 124.947 113.359 129.863 113.613 132H109.543C108.525 130.504 108.44 124.964 108.525 122.382Z" fill="white"/>
<path d="M108.525 122.382C108.591 120.378 109.019 117.607 109.488 114.579C110.456 108.32 111.594 100.961 110.051 97H115.14C116.158 98.6043 114.798 107.939 113.78 114.927C113.273 118.413 112.85 121.315 112.85 122.382C112.85 124.947 113.359 129.863 113.613 132H109.543C108.525 130.504 108.44 124.964 108.525 122.382Z" fill="#075BBA" fill-opacity="0.2"/>
<path d="M75.8487 102.368C75.474 108.234 75.1055 114.002 76.4341 118.842C77.8209 123.895 76.723 130.772 76.1452 132H81.3459C81.3598 131.365 81.3818 130.688 81.4049 129.979C81.5412 125.785 81.7146 120.449 80.4791 115.947C79.3874 111.97 80.0143 103.376 80.4118 97.9262L80.4121 97.9217C80.4353 97.6034 80.4578 97.2952 80.4791 97H76.1452C76.0777 98.7828 75.9629 100.58 75.8487 102.368Z" fill="white"/>
<path d="M75.8487 102.368C75.474 108.234 75.1055 114.002 76.4341 118.842C77.8209 123.895 76.723 130.772 76.1452 132H81.3459C81.3598 131.365 81.3818 130.688 81.4049 129.979C81.5412 125.785 81.7146 120.449 80.4791 115.947C79.3874 111.97 80.0143 103.376 80.4118 97.9262L80.4121 97.9217C80.4353 97.6034 80.4578 97.2952 80.4791 97H76.1452C76.0777 98.7828 75.9629 100.58 75.8487 102.368Z" fill="#075BBA" fill-opacity="0.2"/>
<path d="M118.434 118.842C117.106 114.002 117.474 108.234 117.849 102.368C117.963 100.58 118.078 98.7828 118.145 97H122.479C122.458 97.2968 122.435 97.6061 122.412 97.9262C122.014 103.376 121.387 111.97 122.479 115.947C123.715 120.449 123.541 125.785 123.405 129.979C123.382 130.688 123.36 131.365 123.346 132H118.145C118.723 130.772 119.821 123.895 118.434 118.842Z" fill="white"/>
<path d="M118.434 118.842C117.106 114.002 117.474 108.234 117.849 102.368C117.963 100.58 118.078 98.7828 118.145 97H122.479C122.458 97.2968 122.435 97.6061 122.412 97.9262C122.014 103.376 121.387 111.97 122.479 115.947C123.715 120.449 123.541 125.785 123.405 129.979C123.382 130.688 123.36 131.365 123.346 132H118.145C118.723 130.772 119.821 123.895 118.434 118.842Z" fill="#075BBA" fill-opacity="0.2"/>
<path d="M100.849 102.368C100.474 108.234 100.106 114.002 101.434 118.842C102.821 123.895 101.723 130.772 101.145 132H106.346C106.36 131.365 106.382 130.688 106.405 129.979C106.541 125.785 106.715 120.449 105.479 115.947C104.387 111.97 105.014 103.376 105.412 97.9262C105.435 97.6061 105.458 97.2968 105.479 97H101.145C101.078 98.7829 100.963 100.58 100.849 102.368Z" fill="white"/>
<path d="M100.849 102.368C100.474 108.234 100.106 114.002 101.434 118.842C102.821 123.895 101.723 130.772 101.145 132H106.346C106.36 131.365 106.382 130.688 106.405 129.979C106.541 125.785 106.715 120.449 105.479 115.947C104.387 111.97 105.014 103.376 105.412 97.9262C105.435 97.6061 105.458 97.2968 105.479 97H101.145C101.078 98.7829 100.963 100.58 100.849 102.368Z" fill="#075BBA" fill-opacity="0.2"/>
<path d="M88.9508 101.868L83.8029 101.868C83.6916 102.547 83.6073 103.2 83.5563 103.878L88.9077 103.878V102.833C88.9077 102.577 88.9237 102.246 88.9508 101.868Z" fill="white"/>
<path d="M88.9508 101.868L83.8029 101.868C83.6916 102.547 83.6073 103.2 83.5563 103.878L88.9077 103.878V102.833C88.9077 102.577 88.9237 102.246 88.9508 101.868Z" fill="#075BBA" fill-opacity="0.38"/>
<path d="M88.9077 107.878H83.6129C83.6507 108.515 83.6754 109.19 83.6902 109.889H88.9077V107.878Z" fill="white"/>
<path d="M88.9077 107.878H83.6129C83.6507 108.515 83.6754 109.19 83.6902 109.889H88.9077V107.878Z" fill="#075BBA" fill-opacity="0.38"/>
<path d="M92.1406 109.807C91.9747 109.106 91.8458 108.469 91.7489 107.878H92.1406V109.807Z" fill="white"/>
<path d="M92.1406 109.807C91.9747 109.106 91.8458 108.469 91.7489 107.878H92.1406V109.807Z" fill="#075BBA" fill-opacity="0.38"/>
<path d="M88.9077 113.889V115.899H83.6546C83.6686 115.245 83.6819 114.57 83.6918 113.889L88.9077 113.889Z" fill="white"/>
<path d="M88.9077 113.889V115.899H83.6546C83.6686 115.245 83.6819 114.57 83.6918 113.889L88.9077 113.889Z" fill="#075BBA" fill-opacity="0.38"/>
<path d="M80.0782 102.872C80.0977 102.534 80.118 102.199 80.1387 101.868L80.0782 101.868V102.872Z" fill="white"/>
<path d="M80.0782 102.872C80.0977 102.534 80.118 102.199 80.1387 101.868L80.0782 101.868V102.872Z" fill="#075BBA" fill-opacity="0.38"/>
<path d="M80.0992 113.889C80.1895 114.639 80.3098 115.317 80.466 115.899H80.078V113.889H80.0992Z" fill="white"/>
<path d="M80.0992 113.889C80.1895 114.639 80.3098 115.317 80.466 115.899H80.078V113.889H80.0992Z" fill="#075BBA" fill-opacity="0.38"/>
<path d="M81.2194 119.899H76.6842C76.8162 120.554 76.9129 121.229 76.9802 121.91H81.3971C81.3545 121.238 81.2965 120.566 81.2194 119.899Z" fill="white"/>
<path d="M81.2194 119.899H76.6842C76.8162 120.554 76.9129 121.229 76.9802 121.91H81.3971C81.3545 121.238 81.2965 120.566 81.2194 119.899Z" fill="#075BBA" fill-opacity="0.38"/>
<path d="M70.8683 121.91C70.9011 121.411 70.9762 120.725 71.0811 119.899H66.727C66.6436 120.622 66.5807 121.296 66.5461 121.91H70.8683Z" fill="white"/>
<path d="M70.8683 121.91C70.9011 121.411 70.9762 120.725 71.0811 119.899H66.727C66.6436 120.622 66.5807 121.296 66.5461 121.91H70.8683Z" fill="#075BBA" fill-opacity="0.38"/>
<path d="M67.2843 115.899L71.6389 115.899C71.6851 115.581 71.7324 115.256 71.7804 114.927C71.83 114.586 71.8805 114.24 71.9315 113.889L67.5945 113.889C67.5588 114.12 67.5231 114.35 67.4878 114.579C67.4187 115.025 67.3506 115.466 67.2843 115.899Z" fill="white"/>
<path d="M67.2843 115.899L71.6389 115.899C71.6851 115.581 71.7324 115.256 71.7804 114.927C71.83 114.586 71.8805 114.24 71.9315 113.889L67.5945 113.889C67.5588 114.12 67.5231 114.35 67.4878 114.579C67.4187 115.025 67.3506 115.466 67.2843 115.899Z" fill="#075BBA" fill-opacity="0.38"/>
<path d="M68.1825 109.889H72.4993C72.5914 109.217 72.6812 108.544 72.7669 107.878H68.4353C68.3586 108.545 68.2733 109.217 68.1825 109.889Z" fill="white"/>
<path d="M68.1825 109.889H72.4993C72.5914 109.217 72.6812 108.544 72.7669 107.878H68.4353C68.3586 108.545 68.2733 109.217 68.1825 109.889Z" fill="#075BBA" fill-opacity="0.38"/>
<path d="M68.7711 103.878L73.2302 103.878C73.2998 103.175 73.3584 102.501 73.4031 101.868H68.8054C68.815 102.516 68.8021 103.188 68.7711 103.878Z" fill="white"/>
<path d="M68.7711 103.878L73.2302 103.878C73.2998 103.175 73.3584 102.501 73.4031 101.868H68.8054C68.815 102.516 68.8021 103.188 68.7711 103.878Z" fill="#075BBA" fill-opacity="0.38"/>
<path d="M75.8806 101.868C75.87 102.035 75.8593 102.201 75.8487 102.368C75.8165 102.872 75.7843 103.376 75.7533 103.878H77.0626V101.868H75.8806Z" fill="white"/>
<path d="M75.8806 101.868C75.87 102.035 75.8593 102.201 75.8487 102.368C75.8165 102.872 75.7843 103.376 75.7533 103.878H77.0626V101.868H75.8806Z" fill="#075BBA" fill-opacity="0.38"/>
<path d="M75.5485 107.878C75.5247 108.554 75.5084 109.225 75.5025 109.889H77.0625V107.878H75.5485Z" fill="white"/>
<path d="M75.5485 107.878C75.5247 108.554 75.5084 109.225 75.5025 109.889H77.0625V107.878H75.5485Z" fill="#075BBA" fill-opacity="0.38"/>
<path d="M75.6208 113.889C75.6728 114.57 75.7435 115.241 75.8363 115.899H77.0625V113.889H75.6208Z" fill="white"/>
<path d="M75.6208 113.889C75.6728 114.57 75.7435 115.241 75.8363 115.899H77.0625V113.889H75.6208Z" fill="#075BBA" fill-opacity="0.38"/>
<path d="M89.0293 121.91H86.1095V119.899H88.9584C88.9777 120.52 89.0018 121.197 89.0293 121.91Z" fill="white"/>
<path d="M89.0293 121.91H86.1095V119.899H88.9584C88.9777 120.52 89.0018 121.197 89.0293 121.91Z" fill="#075BBA" fill-opacity="0.38"/>
<path d="M92.095 121.91C92.1113 121.836 92.1278 121.761 92.1443 121.687C92.2714 121.112 92.4033 120.515 92.5257 119.899H97.2183C97.1927 120.049 97.1674 120.197 97.1425 120.343C97.0467 120.903 96.9566 121.429 96.8838 121.91H92.095Z" fill="white"/>
<path d="M92.095 121.91C92.1113 121.836 92.1278 121.761 92.1443 121.687C92.2714 121.112 92.4033 120.515 92.5257 119.899H97.2183C97.1927 120.049 97.1674 120.197 97.1425 120.343C97.0467 120.903 96.9566 121.429 96.8838 121.91H92.095Z" fill="#075BBA" fill-opacity="0.38"/>
<path d="M101.98 121.91C101.913 121.229 101.816 120.554 101.684 119.899H106.219C106.297 120.566 106.355 121.238 106.397 121.91H101.98Z" fill="white"/>
<path d="M101.98 121.91C101.913 121.229 101.816 120.554 101.684 119.899H106.219C106.297 120.566 106.355 121.238 106.397 121.91H101.98Z" fill="#075BBA" fill-opacity="0.38"/>
<path d="M112.868 121.91H108.546C108.581 121.296 108.644 120.622 108.727 119.899H113.081C112.976 120.725 112.901 121.411 112.868 121.91Z" fill="white"/>
<path d="M112.868 121.91H108.546C108.581 121.296 108.644 120.622 108.727 119.899H113.081C112.976 120.725 112.901 121.411 112.868 121.91Z" fill="#075BBA" fill-opacity="0.38"/>
<path d="M118.98 121.91C118.913 121.229 118.816 120.554 118.684 119.899H123.219C123.297 120.566 123.355 121.238 123.397 121.91H118.98Z" fill="white"/>
<path d="M118.98 121.91C118.913 121.229 118.816 120.554 118.684 119.899H123.219C123.297 120.566 123.355 121.238 123.397 121.91H118.98Z" fill="#075BBA" fill-opacity="0.38"/>
<path d="M130.391 121.91H125.878C125.9 121.204 125.92 120.527 125.937 119.899H130.435C130.43 120.431 130.415 121.122 130.391 121.91Z" fill="white"/>
<path d="M130.391 121.91H125.878C125.9 121.204 125.92 120.527 125.937 119.899H130.435C130.43 120.431 130.415 121.122 130.391 121.91Z" fill="#075BBA" fill-opacity="0.38"/>
<path d="M130.39 107.878C130.362 108.518 130.345 109.193 130.335 109.889H125.994V107.878H130.39Z" fill="white"/>
<path d="M130.39 107.878C130.362 108.518 130.345 109.193 130.335 109.889H125.994V107.878H130.39Z" fill="#075BBA" fill-opacity="0.38"/>
<path d="M130.268 101.868C130.36 102.542 130.428 103.195 130.466 103.878L125.994 103.878V102.657C125.994 102.442 125.984 102.173 125.966 101.868H130.268Z" fill="white"/>
<path d="M130.268 101.868C130.36 102.542 130.428 103.195 130.466 103.878L125.994 103.878V102.657C125.994 102.442 125.984 102.173 125.966 101.868H130.268Z" fill="#075BBA" fill-opacity="0.38"/>
<path d="M125.994 113.889L130.347 113.889C130.357 114.575 130.37 115.25 130.382 115.899H125.994V113.889Z" fill="white"/>
<path d="M125.994 113.889L130.347 113.889C130.357 114.575 130.37 115.25 130.382 115.899H125.994V113.889Z" fill="#075BBA" fill-opacity="0.38"/>
<path d="M110.805 101.868H115.403C115.358 102.501 115.3 103.175 115.23 103.878L110.771 103.878C110.802 103.188 110.815 102.516 110.805 101.868Z" fill="white"/>
<path d="M110.805 101.868H115.403C115.358 102.501 115.3 103.175 115.23 103.878L110.771 103.878C110.802 103.188 110.815 102.516 110.805 101.868Z" fill="#075BBA" fill-opacity="0.38"/>
<path d="M97.5902 103.878L91.5543 103.878C91.6023 103.231 91.6849 102.577 91.79 101.868L97.7997 101.868C97.7232 102.525 97.652 103.201 97.5902 103.878Z" fill="white"/>
<path d="M97.5902 103.878L91.5543 103.878C91.6023 103.231 91.6849 102.577 91.79 101.868L97.7997 101.868C97.7232 102.525 97.652 103.201 97.5902 103.878Z" fill="#075BBA" fill-opacity="0.38"/>
<path d="M97.3626 107.878C97.3536 108.597 97.3679 109.275 97.4118 109.889H95.1564V107.878H97.3626Z" fill="white"/>
<path d="M97.3626 107.878C97.3536 108.597 97.3679 109.275 97.4118 109.889H95.1564V107.878H97.3626Z" fill="#075BBA" fill-opacity="0.38"/>
<path d="M100.503 109.889C100.508 109.225 100.525 108.554 100.549 107.878L104.88 107.878C104.868 108.561 104.865 109.234 104.873 109.889L100.503 109.889Z" fill="white"/>
<path d="M100.503 109.889C100.508 109.225 100.525 108.554 100.549 107.878L104.88 107.878C104.868 108.561 104.865 109.234 104.873 109.889L100.503 109.889Z" fill="#075BBA" fill-opacity="0.38"/>
<path d="M100.621 113.889C100.673 114.57 100.743 115.241 100.836 115.899L105.466 115.899C105.31 115.317 105.19 114.639 105.099 113.889H100.621Z" fill="white"/>
<path d="M100.621 113.889C100.673 114.57 100.743 115.241 100.836 115.899L105.466 115.899C105.31 115.317 105.19 114.639 105.099 113.889H100.621Z" fill="#075BBA" fill-opacity="0.38"/>
<path d="M97.8558 113.889C97.8609 114.551 97.8279 115.226 97.7702 115.899H95.1564V113.889H97.8558Z" fill="white"/>
<path d="M97.8558 113.889C97.8609 114.551 97.8279 115.226 97.7702 115.899H95.1564V113.889H97.8558Z" fill="#075BBA" fill-opacity="0.38"/>
<path d="M109.594 113.889C109.559 114.12 109.523 114.35 109.488 114.579C109.419 115.025 109.351 115.466 109.284 115.899L113.639 115.899C113.685 115.581 113.732 115.256 113.78 114.927C113.83 114.586 113.88 114.24 113.931 113.889H109.594Z" fill="white"/>
<path d="M109.594 113.889C109.559 114.12 109.523 114.35 109.488 114.579C109.419 115.025 109.351 115.466 109.284 115.899L113.639 115.899C113.685 115.581 113.732 115.256 113.78 114.927C113.83 114.586 113.88 114.24 113.931 113.889H109.594Z" fill="#075BBA" fill-opacity="0.38"/>
<path d="M117.621 113.889H119.282V115.899H117.836C117.743 115.241 117.673 114.57 117.621 113.889Z" fill="white"/>
<path d="M117.621 113.889H119.282V115.899H117.836C117.743 115.241 117.673 114.57 117.621 113.889Z" fill="#075BBA" fill-opacity="0.38"/>
<path d="M117.503 109.889C117.508 109.225 117.525 108.554 117.549 107.878H119.282V109.889H117.503Z" fill="white"/>
<path d="M117.503 109.889C117.508 109.225 117.525 108.554 117.549 107.878H119.282V109.889H117.503Z" fill="#075BBA" fill-opacity="0.38"/>
<path d="M114.767 107.878C114.681 108.544 114.591 109.217 114.499 109.889L110.182 109.889C110.273 109.217 110.359 108.545 110.435 107.878H114.767Z" fill="white"/>
<path d="M114.767 107.878C114.681 108.544 114.591 109.217 114.499 109.889L110.182 109.889C110.273 109.217 110.359 108.545 110.435 107.878H114.767Z" fill="#075BBA" fill-opacity="0.38"/>
<path d="M117.753 103.878L119.282 103.878V101.868H117.881C117.87 102.035 117.859 102.202 117.849 102.368C117.816 102.872 117.784 103.376 117.753 103.878Z" fill="white"/>
<path d="M117.753 103.878L119.282 103.878V101.868H117.881C117.87 102.035 117.859 102.202 117.849 102.368C117.816 102.872 117.784 103.376 117.753 103.878Z" fill="#075BBA" fill-opacity="0.38"/>
<path d="M105.023 103.878L101.188 103.878V101.868H105.139C105.097 102.526 105.058 103.199 105.023 103.878Z" fill="white"/>
<path d="M105.023 103.878L101.188 103.878V101.868H105.139C105.097 102.526 105.058 103.199 105.023 103.878Z" fill="#075BBA" fill-opacity="0.38"/>
<path d="M122.297 115.166C122.348 115.424 122.404 115.669 122.466 115.899H122.297V115.166Z" fill="white"/>
<path d="M122.297 115.166C122.348 115.424 122.404 115.669 122.466 115.899H122.297V115.166Z" fill="#075BBA" fill-opacity="0.38"/>
<path d="M133.396 115.899C133.472 115.466 133.55 115.025 133.629 114.579C133.669 114.35 133.71 114.12 133.751 113.889H134.36V115.899H133.396Z" fill="white"/>
<path d="M133.396 115.899C133.472 115.466 133.55 115.025 133.629 114.579C133.669 114.35 133.71 114.12 133.751 113.889H134.36V115.899H133.396Z" fill="#075BBA" fill-opacity="0.38"/>
<path d="M132.759 119.899H134.36V121.91H132.553C132.592 121.296 132.664 120.622 132.759 119.899Z" fill="white"/>
<path d="M132.759 119.899H134.36V121.91H132.553C132.592 121.296 132.664 120.622 132.759 119.899Z" fill="#075BBA" fill-opacity="0.38"/>
<path d="M51.3046 60.6911C52.0543 59.6305 53.2722 59 54.5709 59H144.093C145.299 59 146.441 59.5444 147.201 60.4817L164.218 81.4817C166.337 84.0966 164.476 88 161.11 88H39.7261C36.4816 88 34.5869 84.3405 36.4598 81.6911L51.3046 60.6911Z" fill="white"/>
<path d="M51.3046 60.6911C52.0543 59.6305 53.2722 59 54.5709 59H144.093C145.299 59 146.441 59.5444 147.201 60.4817L164.218 81.4817C166.337 84.0966 164.476 88 161.11 88H39.7261C36.4816 88 34.5869 84.3405 36.4598 81.6911L51.3046 60.6911Z" fill="#075BBA" fill-opacity="0.38"/>
<path d="M67 141H53.5L85 97H102L67 141Z" fill="white" fill-opacity="0.3"/>
<path d="M118.068 131H110.568L133.5 97H144.5L118.068 131Z" fill="white" fill-opacity="0.3"/>
<rect x="54" y="74" width="91" height="4" rx="2" fill="white"/>
<rect x="54" y="74" width="91" height="4" rx="2" fill="#075BBA" fill-opacity="0.73"/>
<rect x="57" y="36" width="85" height="40" fill="white"/>
<rect x="57" y="36" width="85" height="40" fill="#075BBA" fill-opacity="0.2"/>
<rect x="134.158" y="47.8784" width="12.0626" height="2.01043" transform="rotate(-180 134.158 47.8784)" fill="white"/>
<rect x="134.158" y="47.8784" width="12.0626" height="2.01043" transform="rotate(-180 134.158 47.8784)" fill="#075BBA" fill-opacity="0.38"/>
<rect x="119.08" y="47.8784" width="24.1252" height="2.01043" transform="rotate(-180 119.08 47.8784)" fill="white"/>
<rect x="119.08" y="47.8784" width="24.1252" height="2.01043" transform="rotate(-180 119.08 47.8784)" fill="#075BBA" fill-opacity="0.38"/>
<rect x="91.9391" y="47.8784" width="12.0626" height="2.01043" transform="rotate(-180 91.9391 47.8784)" fill="white"/>
<rect x="91.9391" y="47.8784" width="12.0626" height="2.01043" transform="rotate(-180 91.9391 47.8784)" fill="#075BBA" fill-opacity="0.38"/>
<rect x="76.861" y="47.8784" width="12.0626" height="2.01043" transform="rotate(-180 76.861 47.8784)" fill="white"/>
<rect x="76.861" y="47.8784" width="12.0626" height="2.01043" transform="rotate(-180 76.861 47.8784)" fill="#075BBA" fill-opacity="0.38"/>
<rect x="64.7985" y="51.8992" width="18.0939" height="2.01043" fill="white"/>
<rect x="64.7985" y="51.8992" width="18.0939" height="2.01043" fill="#075BBA" fill-opacity="0.38"/>
<rect x="85.9081" y="51.8992" width="12.0626" height="2.01043" fill="white"/>
<rect x="85.9081" y="51.8992" width="12.0626" height="2.01043" fill="#075BBA" fill-opacity="0.38"/>
<rect x="100.986" y="51.8992" width="12.0626" height="2.01043" fill="white"/>
<rect x="100.986" y="51.8992" width="12.0626" height="2.01043" fill="#075BBA" fill-opacity="0.38"/>
<rect x="116.064" y="51.8992" width="18.0939" height="2.01043" fill="white"/>
<rect x="116.064" y="51.8992" width="18.0939" height="2.01043" fill="#075BBA" fill-opacity="0.38"/>
<rect x="134.158" y="59.9409" width="12.0626" height="2.01043" transform="rotate(-180 134.158 59.9409)" fill="white"/>
<rect x="134.158" y="59.9409" width="12.0626" height="2.01043" transform="rotate(-180 134.158 59.9409)" fill="#075BBA" fill-opacity="0.38"/>
<rect x="119.08" y="59.9409" width="18.0939" height="2.01043" transform="rotate(-180 119.08 59.9409)" fill="white"/>
<rect x="119.08" y="59.9409" width="18.0939" height="2.01043" transform="rotate(-180 119.08 59.9409)" fill="#075BBA" fill-opacity="0.38"/>
<rect x="97.9705" y="59.9409" width="18.0939" height="2.01043" transform="rotate(-180 97.9705 59.9409)" fill="white"/>
<rect x="97.9705" y="59.9409" width="18.0939" height="2.01043" transform="rotate(-180 97.9705 59.9409)" fill="#075BBA" fill-opacity="0.38"/>
<rect x="76.861" y="59.9409" width="12.0626" height="2.01043" transform="rotate(-180 76.861 59.9409)" fill="white"/>
<rect x="76.861" y="59.9409" width="12.0626" height="2.01043" transform="rotate(-180 76.861 59.9409)" fill="#075BBA" fill-opacity="0.38"/>
<rect x="134.158" y="65.9723" width="12.0626" height="2.01043" transform="rotate(-180 134.158 65.9723)" fill="white"/>
<rect x="134.158" y="65.9723" width="12.0626" height="2.01043" transform="rotate(-180 134.158 65.9723)" fill="#075BBA" fill-opacity="0.38"/>
<rect x="119.08" y="65.9723" width="24.1252" height="2.01043" transform="rotate(-180 119.08 65.9723)" fill="white"/>
<rect x="119.08" y="65.9723" width="24.1252" height="2.01043" transform="rotate(-180 119.08 65.9723)" fill="#075BBA" fill-opacity="0.38"/>
<rect x="91.9391" y="65.9723" width="12.0626" height="2.01043" transform="rotate(-180 91.9391 65.9723)" fill="white"/>
<rect x="91.9391" y="65.9723" width="12.0626" height="2.01043" transform="rotate(-180 91.9391 65.9723)" fill="#075BBA" fill-opacity="0.38"/>
<rect x="76.861" y="65.9723" width="12.0626" height="2.01043" transform="rotate(-180 76.861 65.9723)" fill="white"/>
<rect x="76.861" y="65.9723" width="12.0626" height="2.01043" transform="rotate(-180 76.861 65.9723)" fill="#075BBA" fill-opacity="0.38"/>
<rect x="64.7985" y="69.9932" width="18.0939" height="2.01043" fill="white"/>
<rect x="64.7985" y="69.9932" width="18.0939" height="2.01043" fill="#075BBA" fill-opacity="0.38"/>
<rect x="85.9081" y="69.9932" width="12.0626" height="2.01043" fill="white"/>
<rect x="85.9081" y="69.9932" width="12.0626" height="2.01043" fill="#075BBA" fill-opacity="0.38"/>
<rect x="100.986" y="69.9932" width="12.0626" height="2.01043" fill="white"/>
<rect x="100.986" y="69.9932" width="12.0626" height="2.01043" fill="#075BBA" fill-opacity="0.38"/>
<rect x="116.064" y="69.9932" width="18.0939" height="2.01043" fill="white"/>
<rect x="116.064" y="69.9932" width="18.0939" height="2.01043" fill="#075BBA" fill-opacity="0.38"/>
</svg>
