<svg xmlns="http://www.w3.org/2000/svg" width="190" height="190" viewBox="0 0 190 190" fill="none"><circle cx="95" cy="95" r="95" fill="#fff" fill-opacity=".2"/><circle cx="95" cy="95" r="95" fill="#075BBA" fill-opacity=".09"/><path fill="#fff" d="M86.36 38.54a7.54 7.54 0 0 1 15.08 0V248H86.36V38.54Z"/><path fill="#075BBA" fill-opacity=".25" d="M86.36 38.54a7.54 7.54 0 0 1 15.08 0V248H86.36V38.54Z"/><path fill="#075BBA" fill-opacity=".15" fill-rule="evenodd" d="M94.02 31v217h-7.66V38.53A7.54 7.54 0 0 1 94.02 31Z" clip-rule="evenodd"/><path fill="#fff" fill-rule="evenodd" d="m39 107.3 107.76-.41 1.56 1.18h.5l-.12.3.2.14-.45.55-3.68 10.19 5.22 10.68-104.6 9.58-1.97.22-3.27-1.84L31 123.84l8-16.54Z" clip-rule="evenodd"/><path fill="#075BBA" fill-opacity=".4" fill-rule="evenodd" d="m39 107.3 107.76-.41 1.56 1.18h.5l-.12.3.2.14-.45.55-3.68 10.19 5.22 10.68-104.6 9.58-1.97.22-3.27-1.84L31 123.84l8-16.54Z" clip-rule="evenodd"/><path fill="#fff" d="M148.81 108.06 41.76 109.8l-7.3 15.38 8.91 14.51 106.62-9.76-5.22-10.68 4.04-11.19Z"/><path fill="#075BBA" fill-opacity=".3" d="M148.81 108.06 41.76 109.8l-7.3 15.38 8.91 14.51 106.62-9.76-5.22-10.68 4.04-11.19Z"/><path fill="#fff" fill-rule="evenodd" d="m35.07 87.2 3.98-12.88-5.3-12.39L155.4 51l.84-.08h.02l.26-.02.15.24 3.2 1.68 10.24 16.78-8.44 17.75-123.74 1.1-2.85-1.24Z" clip-rule="evenodd"/><path fill="#075BBA" fill-opacity=".6" fill-rule="evenodd" d="m35.07 87.2 3.98-12.88-5.3-12.39L155.4 51l.84-.08h.02l.26-.02.15.24 3.2 1.68 10.24 16.78-8.44 17.75-123.74 1.1-2.85-1.24Z" clip-rule="evenodd"/><path fill="#fff" d="M33.75 61.93 156.51 50.9l10.24 16.78-8.44 17.76L35.07 87.2l3.98-12.88-5.3-12.39Z"/><path fill="#075BBA" fill-opacity=".5" d="M33.75 61.93 156.51 50.9l10.24 16.78-8.44 17.76L35.07 87.2l3.98-12.88-5.3-12.39Z"/></svg>
