<svg width="96" height="30" viewBox="0 0 96 30" fill="none" xmlns="http://www.w3.org/2000/svg">
<g>
<path d="M53.5541 7.25085L56.1606 1.8207H56.1989L59.0545 7.25085H62.006L58.2049 0.223596H55.7261L52.27 7.25085H53.5541ZM12.8407 4.19719L16.8974 4.16525C16.8079 5.76874 15.5558 6.53535 14.1631 6.53535C13.5181 6.53544 12.8828 6.37772 12.3127 6.07596C11.7425 5.7742 11.2549 5.33755 10.8923 4.80409L9.56985 5.58348C10.8475 6.95699 12.1252 7.5 14.2015 7.5C16.629 7.5 19.8296 6.49702 19.8296 3.79472C19.8296 0.958261 16.8079 0.0638856 14.2398 0.0638856C12.4255 0.0638856 10.8923 0.376916 9.56985 1.67376L10.8923 2.44037C11.3041 1.98842 11.8037 1.62506 12.3605 1.37245C12.9174 1.11984 13.5198 0.983259 14.1312 0.971039C14.7868 0.918851 15.4378 1.11834 15.9516 1.52893C16.4654 1.93953 16.8036 2.53041 16.8974 3.18143L12.8407 3.11116V4.20358V4.19719ZM66.6695 7.46806C70.1448 7.46806 72.0805 5.62181 72.0805 3.76278C72.0805 1.90375 70.164 0.0319416 66.6695 0.0319416C63.175 0.0319416 61.2585 1.89736 61.2585 3.76278C61.2585 5.62819 63.175 7.46806 66.6695 7.46806ZM45.4983 6.44591V7.46806H48.1367V6.44591H48.4434C50.2896 6.44591 53.0047 5.93484 53.0047 3.68612C53.0047 1.43739 50.1107 0.971039 48.4434 0.971039H48.1367V0H45.4983V0.971039H45.1853C43.5243 0.971039 40.6239 1.37351 40.6239 3.71167C40.6239 6.04983 43.339 6.47147 45.1853 6.47147L45.4983 6.44591ZM50.3599 3.68612C50.3648 3.94377 50.315 4.19955 50.2138 4.43653C50.1125 4.6735 49.9621 4.88629 49.7725 5.06081C49.5829 5.23533 49.3584 5.36761 49.1138 5.4489C48.8693 5.53019 48.6103 5.55864 48.3539 5.53237H48.0281V1.85903H48.3539C48.6087 1.83296 48.866 1.86092 49.1092 1.94108C49.3524 2.02124 49.576 2.1518 49.7653 2.32423C49.9546 2.49665 50.1054 2.70707 50.2078 2.94175C50.3103 3.17642 50.3621 3.43006 50.3599 3.68612ZM25.1193 4.6891C26.71 4.6891 28.882 4.36329 28.882 2.40843C28.882 0.453578 26.4353 0.236371 25.0106 0.236371H20.5004V7.26363H23.1452V4.70826L25.1193 4.6891ZM26.1478 2.4276C26.1478 3.26448 25.279 3.61584 24.4676 3.61584H23.1452V1.29685H24.4676C25.279 1.29685 26.1478 1.56516 26.1478 2.4276ZM4.19719 1.78876L5.55153 4.25468H2.87479L4.15247 1.78876H4.19719ZM6.08177 5.20656L7.18058 7.21891H10.1129L6.11372 0.191652H3.67334L0 7.21891H1.35435L2.38927 5.20656H6.08177ZM71.7164 1.26491H74.5592V7.21891H77.1912V1.29685H80.0469V0.236371H71.7419V1.29685L71.7164 1.26491ZM43.2496 3.65417C43.2519 3.40141 43.3068 3.15189 43.4109 2.92152C43.5149 2.69114 43.6658 2.48496 43.8539 2.31609C44.042 2.14722 44.2632 2.01937 44.5034 1.94068C44.7436 1.86199 44.9976 1.83418 45.2491 1.85903H45.575V5.53237H45.2491C44.9925 5.55856 44.7332 5.5301 44.4883 5.44886C44.2435 5.36762 44.0186 5.23545 43.8285 5.06103C43.6384 4.88662 43.4874 4.67392 43.3854 4.43694C43.2834 4.19997 43.2328 3.94408 43.2368 3.68612L43.2496 3.65417ZM66.6695 6.58007C64.9638 6.58007 64.1141 5.33433 64.1141 3.73083C64.1141 2.12734 64.9638 0.862438 66.6695 0.862438C68.3752 0.862438 69.2249 2.14012 69.2249 3.73083C69.2249 5.32155 68.3944 6.58007 66.6695 6.58007ZM34.5613 7.46806C38.0366 7.46806 39.9723 5.62181 39.9723 3.76278C39.9723 1.90375 38.0558 0.0319416 34.5613 0.0319416C31.0669 0.0319416 29.1503 1.89736 29.1503 3.76278C29.1503 5.62819 31.0669 7.46806 34.5613 7.46806ZM34.5613 6.61201C32.862 6.61201 32.006 5.36627 32.006 3.76278C32.006 2.15928 32.8556 0.894379 34.5613 0.894379C36.267 0.894379 37.1167 2.17206 37.1167 3.76278C37.1167 5.35349 36.2862 6.61201 34.5613 6.61201Z" fill="#003878"/>
<g>
<path d="M95.2003 10.1447C95.2003 10.1447 95.7561 9.56337 95.9414 9.72308H95.9669C96.1458 9.90834 95.5836 10.4961 95.5836 10.4961L95.277 10.8602L95.3345 14.425L95.0789 14.5144C94.8428 13.5937 94.5309 12.6941 94.1462 11.8249C85.1897 21.3628 73.1219 29.9935 51.7719 29.9935C33.271 29.9935 20.7178 23.011 20.7178 23.011C30.1026 26.2847 39.9734 27.9479 49.9128 27.9301C60.5495 27.9301 78.5521 27.4573 93.9929 11.6779C93.1067 11.3256 92.189 11.0583 91.2523 10.8794L91.3225 10.6047L94.8553 10.4769L95.2003 10.1447Z" fill="#DC2F33"/>
<path fill-rule="evenodd" clip-rule="evenodd" d="M33.2447 15.9261C33.2447 12.5658 35.6659 10.4448 39.3584 10.4448C43.0509 10.4448 45.4785 12.5274 45.4785 15.9261C45.4785 19.3247 43.0509 21.4457 39.3584 21.4457C35.6659 21.4457 33.2447 19.2864 33.2447 15.9261ZM36.2664 15.9005C36.2664 18.7498 37.5697 20.0274 39.3584 20.0274V20.0849C41.1919 20.0849 42.4696 18.8073 42.4696 15.958C42.4696 13.1088 41.1344 11.8311 39.3584 11.8311C37.5824 11.8311 36.2664 13.0513 36.2664 15.9005Z" fill="#DC2F33"/>
<path fill-rule="evenodd" clip-rule="evenodd" d="M22.3652 10.7898H31.194V12.125H25.2784V14.7442H28.102C30.9449 14.7442 32.3567 16.2072 32.3567 17.9384C32.3567 19.6697 30.9257 21.1326 28.0829 21.1326H22.3652V10.7898ZM25.2784 19.8166H27.904C28.8814 19.7975 29.3861 18.9989 29.3861 17.9384C29.3861 16.878 28.8814 16.0922 27.7379 16.0922H25.2784V19.8166Z" fill="#DC2F33"/>
<path d="M75.9129 10.4448C77.0584 10.4465 78.1913 10.6835 79.2413 11.1412V12.6744C78.3502 12.2432 77.3755 12.0121 76.3857 11.9972C74.4692 11.9972 72.7826 13.0385 72.7826 15.9261C72.7826 18.8136 74.4692 19.9252 76.424 19.9252C77.4563 19.9062 78.4704 19.6505 79.3882 19.1778V20.7174C78.355 21.1852 77.2324 21.4228 76.0982 21.4137C72.8593 21.4137 69.7609 19.5994 69.7609 15.9261C69.7609 12.2527 72.7507 10.4448 75.9129 10.4448Z" fill="#DC2F33"/>
<path d="M57.8018 21.1326H54.8695V16.5074H49.8929V21.1326H46.9606V10.7898H49.8929V14.9742H54.8695V10.7898H57.8018V21.1326Z" fill="#DC2F33"/>
<path d="M61.8106 21.1326H61.8009V21.1454L61.8106 21.1326Z" fill="#DC2F33"/>
<path d="M64.3563 21.1326H61.8106L63.5386 18.8584L58.8878 10.7898H62.1778L65.1485 16.1241L68.3107 10.7898H70.4572L64.3563 21.1326Z" fill="#DC2F33"/>
</g>
</g>
</svg>
