<svg width="24" height="24" viewBox="0 0 24 24" fill="none" xmlns="http://www.w3.org/2000/svg">

    <path fill-rule="evenodd" clip-rule="evenodd"
          d="M2.98637 9.60803L3.93106 9.47382C5.78289 9.26648 7.00013 8.6179 8.31684 7.30119L9.73105 5.88698C11.9294 3.68859 14.7875 3.12578 17.2278 4.89841L17.9349 4.1913C18.642 3.4842 19.8804 3.30837 20.7658 4.19384C21.6513 5.0793 21.4755 6.31769 20.7684 7.0248L20.0613 7.73191C21.8339 10.1722 21.2268 12.986 19.0285 15.1844L17.6142 16.5986C16.2975 17.9153 15.7197 19.2033 15.5144 21.0572L15.4081 22.0298C15.3878 22.2143 15.3157 22.3892 15.2002 22.5344C15.0848 22.6796 14.9306 22.7891 14.7555 22.8505C14.3987 22.9751 14.0007 22.8846 13.7326 22.6164L2.3986 11.2824C2.1313 11.0151 2.04095 10.6174 2.16546 10.2604C2.28996 9.9035 2.60904 9.64833 2.98637 9.60803ZM16.0523 6.51655C15.2416 5.92764 14.4425 5.768 13.685 5.88149C12.895 5.99985 12.0053 6.44117 11.1453 7.30119L9.73105 8.7154C8.38704 10.0594 7.02571 10.8969 5.23128 11.2867L13.6954 19.7508C14.055 17.9968 14.8141 16.5703 16.2 15.1844L17.6142 13.7702C18.4859 12.8985 18.9347 12.0118 19.059 11.2334C19.1772 10.4936 19.0286 9.71331 18.4431 8.90733C17.8577 8.10136 16.8631 7.10545 16.0523 6.51655Z"
          fill="currentColor"/>
    <path
        d="M5.23715 19.7779C6.41083 20.9515 8.31961 20.9608 9.49118 19.7892L5.24854 15.5466C4.07697 16.7182 4.06348 18.6042 5.23715 19.7779Z"
        fill="currentColor"/>
</svg>
