<svg width="18" height="12" viewBox="0 0 18 12" xmlns="http://www.w3.org/2000/svg">
    <path fill="currentColor" d="M9.00001 0C10.095 0 11.205 1.08 11.205 3.15C11.1859 4.24694 10.7945 5.3048 10.095 6.15V6.9675C10.1475 7.2 10.5675 7.8375 11.7075 8.3025C12.8475 8.7675 13.035 9.0525 13.305 9.765C13.4323 10.2294 13.4979 10.7085 13.5 11.19C13.5 11.19 13.1925 12 9.70501 12H8.29501C4.79251 12 4.50001 11.19 4.50001 11.19C4.50083 10.7035 4.5664 10.2192 4.69501 9.75C4.96501 9.0675 5.13751 8.7525 6.29251 8.2875C7.44751 7.8225 7.85251 7.185 7.90501 6.9525V6.1275C7.20553 5.2823 6.81412 4.22444 6.79501 3.1275C6.79501 1.065 7.87501 0 9.00001 0ZM3.75001 11.1825C3.74366 10.6007 3.82714 10.0214 3.99751 9.465C4.14677 9.00853 4.40837 8.5969 4.75829 8.26795C5.1082 7.939 5.5352 7.7033 6.00001 7.5825L6.14251 7.5C6.02773 7.3965 5.93797 7.26827 5.88001 7.125V6.4575C6.17648 6.14726 6.41522 5.7866 6.58501 5.3925C6.24957 4.68854 6.0656 3.92202 6.04501 3.1425C6.04593 2.77466 6.08362 2.40784 6.15751 2.0475C5.8163 1.7069 5.357 1.51083 4.87501 1.5C3.85501 1.5 2.85751 2.355 2.85751 4.0575C2.8852 4.96213 3.24573 5.82472 3.87001 6.48V7.1475C3.82501 7.3275 3.44251 7.8525 2.37001 8.2275C1.29751 8.6025 1.15501 8.865 0.907511 9.42C0.79606 9.79977 0.742954 10.1943 0.750011 10.59C0.750011 10.59 0.997511 11.1825 3.75001 11.2425V11.1825ZM17.07 9.42C16.8225 8.865 16.665 8.6025 15.57 8.2275C14.475 7.8525 14.145 7.3275 14.07 7.1475V6.48C14.6943 5.82472 15.0548 4.96213 15.0825 4.0575C15.1425 2.3775 14.13 1.5 13.125 1.5C12.8848 1.49939 12.647 1.54686 12.4254 1.6396C12.2039 1.73234 12.0031 1.86848 11.835 2.04C11.9115 2.40514 11.9517 2.77695 11.955 3.15C11.9344 3.92952 11.7505 4.69604 11.415 5.4C11.5848 5.79411 11.8235 6.15476 12.12 6.465V7.1325C12.0621 7.27577 11.9723 7.404 11.8575 7.5075L11.985 7.5675C12.4526 7.68607 12.8826 7.92078 13.2353 8.24986C13.588 8.57895 13.8519 8.99175 14.0025 9.45C14.1744 10.0112 14.2579 10.5957 14.25 11.1825V11.25C16.995 11.19 17.25 10.5975 17.25 10.5975C17.2505 10.1981 17.1898 9.80099 17.07 9.42Z"/>
</svg>