<svg width="24" height="24" viewBox="0 0 24 24" xmlns="http://www.w3.org/2000/svg">
    <path d="M7.5 18C6.4 18 5.51 18.9 5.51 20C5.51 21.1 6.4 22 7.5 22C8.6 22 9.5 21.1 9.5 20C9.5 18.9 8.6 18 7.5 18ZM17.5 18C16.4 18 15.51 18.9 15.51 20C15.51 21.1 16.4 22 17.5 22C18.6 22 19.5 21.1 19.5 20C19.5 18.9 18.6 18 17.5 18ZM7.67 14.75L7.7 14.63L8.6 13H18.05C18.8 13 19.46 12.59 19.8 11.97L22 4H19.92H19.91H7.5L8.3475 5.75H19.445L18.05 11H9.03L8.9 10.73L6.66 6L5.71 4L4.77 2H1.5V4H3.5L7.1 11.59L5.75 14.04C5.59 14.32 5.5 14.65 5.5 15C5.5 16.1 6.4 17 7.5 17H19.5V15H7.92C7.79 15 7.67 14.89 7.67 14.75Z" fill="currentColor"/>
</svg>
