<svg xmlns="http://www.w3.org/2000/svg" xmlns:xlink="http://www.w3.org/1999/xlink" preserveAspectRatio="xMidYMid" width="50" height="50" viewBox="0 0 50 50">
  <path fill-rule="evenodd" clip-rule="evenodd" d="M25.0171 0L33.303 0.0289407C34.6189 0.0335369 35.88 0.556721 36.8127 1.48503L42.6898 7.33437L48.5283 13.2139C49.4556 14.1476 49.9773 15.4093 49.9804 16.7252L50 25.0112L50 25.017L49.9711 33.303C49.9665 34.6189 49.4433 35.88 48.515 36.8127L42.6698 42.6856L42.6656 42.6897L36.7861 48.5283C35.8524 49.4555 34.5907 49.9773 33.2748 49.9804L24.9888 50L24.983 50L16.697 49.971C15.3811 49.9664 14.12 49.4433 13.1873 48.5149L7.31443 42.6697L7.31029 42.6656L1.47172 36.7861C0.544469 35.8523 0.0227086 34.5907 0.0195983 33.2747L0 24.9829L0.0289578 16.697C0.033554 15.3811 0.55674 14.12 1.48505 13.1873L7.3344 7.31025L13.2139 1.47169C14.1477 0.544433 15.4093 0.0226704 16.7253 0.019563L25.0171 0ZM16.73 2.01956C15.9404 2.02142 15.1834 2.33448 14.6232 2.89083L8.74576 8.72734L2.9026 14.5982C2.34561 15.1578 2.0317 15.9144 2.02895 16.704L2.00001 24.9841L2.01959 33.27C2.02146 34.0596 2.33451 34.8166 2.89087 35.3768L8.7253 41.2522L8.72944 41.2563L14.5982 47.0974C15.1578 47.6544 15.9145 47.9683 16.704 47.971L24.9841 48L24.9899 48L33.27 47.9804C34.0596 47.9785 34.8166 47.6655 35.3769 47.1091L41.2522 41.2747L41.2563 41.2706L47.0974 35.4018C47.6544 34.8422 47.9683 34.0855 47.9711 33.296L48 25.0159L48 25.01L47.9804 16.7299C47.9786 15.9404 47.6655 15.1834 47.1092 14.6231L41.2747 8.74779L41.2706 8.74365L35.4018 2.90258C34.8422 2.3456 34.0856 2.03169 33.296 2.02893L25.0159 1.99999L16.73 2.01956Z" fill="currentColor"/>
  <path fill-rule="evenodd" clip-rule="evenodd" d="M25.0137 6L31.6389 6.02314C32.4285 6.0259 33.1851 6.33981 33.7447 6.89679L38.4447 11.5746L43.1131 16.2757C43.6694 16.836 43.9825 17.593 43.9844 18.3825L44 25.0077L44 25.0135L43.9769 31.6389C43.9741 32.4284 43.6602 33.1851 43.1032 33.7447L38.4255 38.4446L33.7243 43.1131C33.164 43.6694 32.407 43.9825 31.6175 43.9843L24.9923 44L24.9865 44L18.3611 43.9768C17.5716 43.9741 16.8149 43.6602 16.2553 43.1032L11.5553 38.4254L6.88695 33.7242C6.33059 33.164 6.01754 32.407 6.01567 31.6174L6 24.9863L6.02316 18.3611C6.02591 17.5715 6.33983 16.8149 6.89681 16.2553L11.5746 11.5553L14.2167 8.93167C14.6086 8.54251 15.2417 8.54472 15.6309 8.93661C16.02 9.32849 16.0178 9.96165 15.6259 10.3508L12.986 12.9724L8.31436 17.6661C8.1287 17.8527 8.02406 18.1049 8.02314 18.3681L8.00001 24.9874L8.01567 31.6127C8.01629 31.8759 8.12064 32.1282 8.30609 32.315L12.9704 37.012L12.9745 37.0161L17.6662 41.6856C17.8527 41.8713 18.1049 41.9759 18.3681 41.9769L24.9876 42L24.9934 42L31.6127 41.9843C31.8759 41.9837 32.1283 41.8794 32.315 41.6939L37.0121 37.0296L37.0162 37.0254L41.6857 32.3338C41.8713 32.1473 41.976 31.8951 41.9769 31.6319L42 25.0124L42 25.0066L41.9844 18.3873C41.9837 18.1241 41.8794 17.8717 41.6939 17.685L37.0297 12.988L37.0255 12.9839L32.3339 8.31435C32.1473 8.12868 31.8951 8.02405 31.6319 8.02313L25.0126 7.99999L17.5657 8.01758C17.0134 8.01888 16.5647 7.57222 16.5634 7.01994C16.5621 6.46766 17.0087 6.01889 17.561 6.01758L25.0137 6Z" fill="currentColor"/>
  <path fill-rule="evenodd" clip-rule="evenodd" d="M24.108 12C23.5351 12 23.0793 12.4804 23.1094 13.0526L23.8989 28.0526C23.9269 28.5837 24.3657 29 24.8975 29H25.1025C25.6344 29 26.0732 28.5837 26.1011 28.0526L26.8906 13.0526C26.9207 12.4804 26.4649 12 25.892 12H24.108ZM21.1122 13.1577C21.0219 11.4413 22.3892 10 24.108 10H25.892C27.6108 10 28.9782 11.4412 28.8878 13.1577L28.0984 28.1577C28.0145 29.7511 26.6981 31 25.1025 31H24.8975C23.3019 31 21.9855 29.7511 21.9017 28.1577L21.1122 13.1577Z" fill="currentColor"/>
  <path fill-rule="evenodd" clip-rule="evenodd" d="M25 34C23.8954 34 23 34.8954 23 36C23 37.1046 23.8954 38 25 38C26.1046 38 27 37.1046 27 36C27 35.4477 27.4477 35 28 35C28.5523 35 29 35.4477 29 36C29 38.2091 27.2092 40 25 40C22.7909 40 21 38.2091 21 36C21 33.7909 22.7909 32 25 32C25.7702 32 26.4923 32.2187 27.1043 32.5977C27.5738 32.8886 27.7186 33.505 27.4278 33.9745C27.1369 34.444 26.5205 34.5888 26.0511 34.2979C25.7463 34.1092 25.3874 34 25 34Z" fill="currentColor"/>
</svg>
