<svg xmlns="http://www.w3.org/2000/svg" width="24" height="24" viewBox="0 0 24 24">
    <path fill="currentColor" d="M12,18.5c-3.59,0-4.66-.57-4.84-.68l-.34-.22,0-.41a8.64,8.64,0,0,1,.3-2c.4-1.06,1.44-1.49,2.53-1.94.31-.13.39-.21.4-.32A3.8,3.8,0,0,1,8.44,9.77C8.44,5.9,10.65,5.5,12,5.5c2.39,0,3.56,1.32,3.56,4.27a3.82,3.82,0,0,1-1.63,3.14c0,.11.09.18.4.31,1.09.46,2.13.89,2.53,1.94a8.6,8.6,0,0,1,.3,2l0,.42-.35.22C16.65,17.93,15.56,18.5,12,18.5ZM8.3,16.74a15,15,0,0,0,3.7.34,14.88,14.88,0,0,0,3.71-.34,5.35,5.35,0,0,0-.17-1.06c-.16-.41-.6-.66-1.75-1.14a1.7,1.7,0,0,1-1.26-1.91v-.54l.39-.22A2.23,2.23,0,0,0,14.17,10c0-2.51-.87-3-2.17-3-1,0-2.2.34-2.2,3a2.27,2.27,0,0,0,1.3,1.92l.37.22v.5a1.73,1.73,0,0,1-1.26,1.95c-1.15.48-1.59.72-1.75,1.14A5.37,5.37,0,0,0,8.3,16.74Z"/>
</svg>