<svg width="18" height="18" viewBox="0 0 18 18" xmlns="http://www.w3.org/2000/svg">
<path d="M9.58395 9.35355L12.0429 11.8125L11.8125 12.0429L9.35355 9.58395L9 9.23039L8.64645 9.58395L6.1875 12.0429L5.95711 11.8125L8.41605 9.35355L8.76961 9L8.41605 8.64645L5.95711 6.1875L6.1875 5.95711L8.64645 8.41605L9 8.76961L9.35355 8.41605L11.8125 5.95711L12.0429 6.1875L9.58395 8.64645L9.23039 9L9.58395 9.35355ZM9 17C13.4183 17 17 13.4183 17 9C17 4.58172 13.4183 1 9 1C4.58172 1 1 4.58172 1 9C1 13.4183 4.58172 17 9 17Z" stroke="currentColor"/>
</svg>
