<svg width="24" height="24" viewBox="0 0 24 24" fill="none" xmlns="http://www.w3.org/2000/svg">
    <path d="M21.6249 18.9989C21.8101 18.9989 21.9769 19.1108 22.0484 19.2822C22.1199 19.4536 22.0805 19.6507 21.9495 19.7818L20.9219 20.8103C20.3141 21.4163 18.8571 21.9844 18 21.9844H5C4.14288 21.9844 2.76776 21.4162 2.16089 20.8103L1.13327 19.7818C1.00217 19.6507 0.962767 19.4536 1.03427 19.2822C1.10577 19.1108 1.27262 18.9989 1.45778 18.9989H21.6249Z" fill="currentColor"/>
    <path fill-rule="evenodd" clip-rule="evenodd" d="M17.9582 9.87988H5.12453C4.36641 9.87988 3.74949 10.4968 3.74949 11.2549V12.1716C3.74949 14.3901 4.58076 16.4686 6.02302 18.0458H17.0593C17.1667 17.9283 17.2708 17.8081 17.3714 17.6852C18.5694 17.4148 22.9531 16.2469 22.9531 13.63C22.9532 12.7078 22.6543 12.0487 22.0667 11.6692C21.237 11.1357 20.0739 11.3499 19.3332 11.5781V11.2548C19.3332 10.4968 18.7163 9.87988 17.9582 9.87988ZM19.3251 12.55C19.2641 13.9776 18.8589 15.3373 18.1695 16.5308C19.8327 16.0298 22.0364 15.046 22.0364 13.63C22.0364 13.0323 21.8834 12.6427 21.5708 12.442C20.9971 12.0724 19.9273 12.3348 19.3251 12.55Z" fill="currentColor"/>
    <path d="M15.1101 5.86888C15.8553 4.93751 15.8553 3.47907 15.1101 2.5477C14.9515 2.3497 14.6646 2.31669 14.4657 2.4762C14.2677 2.6348 14.2356 2.92261 14.3942 3.12062C14.8663 3.71003 14.8663 4.7065 14.3933 5.29777C13.6471 6.22914 13.6471 7.68758 14.3933 8.61895C14.484 8.7326 14.6169 8.7913 14.7517 8.7913C14.8516 8.7913 14.9533 8.7583 15.0377 8.69045C15.2357 8.53185 15.2678 8.24309 15.1092 8.04603C14.6362 7.45657 14.6362 6.46014 15.1101 5.86888Z" fill="currentColor"/>
    <path d="M12.3564 5.86888C13.1025 4.93751 13.1025 3.47907 12.3564 2.5477C12.1987 2.34969 11.9099 2.3176 11.7119 2.4762C11.5139 2.6348 11.4818 2.92356 11.6404 3.12062C12.1134 3.71003 12.1134 4.7065 11.6395 5.29777C10.8943 6.22914 10.8943 7.68758 11.6395 8.61895C11.7303 8.7326 11.8632 8.7913 11.9979 8.7913C12.0978 8.7913 12.1987 8.7583 12.284 8.69045C12.482 8.53185 12.5141 8.24404 12.3555 8.04603C11.8833 7.45657 11.8833 6.46014 12.3564 5.86888Z" fill="currentColor"/>
    <path d="M9.60994 5.86978C10.3552 4.93841 10.3552 3.47997 9.60994 2.5486C9.45228 2.3506 9.16443 2.3176 8.96552 2.4771C8.76842 2.63476 8.73636 2.92351 8.89402 3.12062C9.36613 3.71003 9.36613 4.7065 8.89311 5.29777C8.14694 6.22914 8.14694 7.68758 8.89311 8.61895C8.98387 8.7326 9.11677 8.7913 9.25153 8.7913C9.35143 8.7913 9.45318 8.7583 9.53753 8.6914C9.73554 8.53279 9.76764 8.24404 9.60903 8.04698C9.13602 7.45657 9.13602 6.46105 9.60994 5.86978Z" fill="currentColor"/>
</svg>
