<svg xmlns="http://www.w3.org/2000/svg" width="24" height="24" viewBox="0 0 24 24">
    <path fill="currentColor" d="M18,12a5.55,5.55,0,0,0,2.87-1.77c1.66-2,2.51-5.3,1.84-6.94A1.08,1.08,0,0,0,21.5,2.5a3,3,0,0,0-1.66.55c.1-.75.16-1.22.16-1.22a26.21,26.21,0,0,0-8-1.5,26.21,26.21,0,0,0-8,1.5s.06.47.16,1.22A3.35,3.35,0,0,0,2.5,2.33a1.27,1.27,0,0,0-1.19.92c-.68,1.63.18,4.92,1.84,6.94A5.55,5.55,0,0,0,6,12a9.93,9.93,0,0,0,4.41,4.37A13.61,13.61,0,0,1,10.69,18c0,1.22-1.46,1.87-2.19,2A1.79,1.79,0,0,0,7,22v1.33a38.61,38.61,0,0,0,5,.5,38.61,38.61,0,0,0,5-.5V22a1.79,1.79,0,0,0-1.5-2c-.73-.13-2.19-.78-2.19-2a13.62,13.62,0,0,1,.26-1.67A9.93,9.93,0,0,0,18,12ZM21.5,4c.5,0-.18,3.25-1.35,5.15a3.34,3.34,0,0,1-1.71,1.25A53.34,53.34,0,0,0,19.5,5C19.55,4.71,20,4,21.5,4ZM3.85,9.15C2.68,7.25,2,4,2.5,4c1.5,0,1.95.68,2,1a53.73,53.73,0,0,0,1.07,5.43A3.34,3.34,0,0,1,3.85,9.15ZM12,9.8,9.73,11l.43-2.53L8.32,6.67l2.54-.37L12,4l1.14,2.3,2.54.37L13.84,8.47,14.27,11Z"/>
</svg>