<svg width="25" height="24" viewBox="0 0 25 24" fill="none" xmlns="http://www.w3.org/2000/svg">
    <path
        d="M22.5215 11.8599H2.48C2.609 6.68042 6.617 3.52592 11.693 3.22142V2.89142H11.9465V1.60142H13.0535V2.89142H13.307V3.22142C18.3815 3.52592 22.391 6.68042 22.5215 11.8599ZM14.0345 0.000915527H10.9655V0.827416H14.036V0.000915527H14.0345ZM24.062 12.7329H0.9395C0.6965 12.7329 0.5 12.9324 0.5 13.1754V13.8369C0.5 14.0769 0.6965 14.2764 0.9395 14.2764H24.062C24.302 14.2764 24.5 14.0769 24.5 13.8369V13.1754C24.5 12.9324 24.302 12.7329 24.062 12.7329ZM16.979 15.2709C15.947 15.7104 12.8975 17.9229 11.0495 17.9229C8.6255 18.0459 8.627 16.2849 8.348 16.0044C8.069 15.7254 7.472 15.1629 6.7565 15.1629C6.3995 15.1629 5.963 15.4854 5.882 15.6849C6.2675 15.8424 7.1615 16.5369 7.352 17.0439C7.67 17.8854 7.391 19.0854 8.027 19.9239C8.663 20.7654 8.84 21.9459 8.84 21.9459L12.374 21.5034C12.374 21.5034 12.758 21.0339 13.3595 20.3199C14.291 19.3824 15.68 17.3049 17.114 16.3479C18.311 15.5484 18.6755 15.6594 19.1135 15.2049C19.1165 15.2034 18.2135 14.7459 16.979 15.2709ZM8.4695 22.4079L12.6875 21.9534V24.0009H8.4695V22.4079ZM8.8175 23.2809C8.8175 23.5329 9.02 23.7354 9.269 23.7354C9.518 23.7354 9.7205 23.5329 9.7205 23.2809C9.7205 23.0319 9.518 22.8294 9.269 22.8294C9.02 22.8294 8.8175 23.0319 8.8175 23.2809Z"
        fill="currentColor" />
</svg>