<svg width="17" height="17" viewBox="0 0 17 17" xmlns="http://www.w3.org/2000/svg">
    <path d="M11.5 4.5C11.5 6.57107 9.82107 8.25 7.75 8.25C5.67893 8.25 4 6.57107 4 4.5C4 2.42893 5.67893 0.75 7.75 0.75C9.82107 0.75 11.5 2.42893 11.5 4.5ZM12.319 14.0523L14.6455 11.7258L15.5607 10.8107L13.4393 8.68936L12.1508 9.97794L8.2537 13.875L7.75 16.5L7.75 16.5L7.75011 16.5L10.4337 15.9376L11.3041 15.0672L12.319 14.0523ZM6.22264 16.5H4.375L4.04651 13.8721C4.01994 13.6595 3.83923 13.5 3.625 13.5C3.41077 13.5 3.23006 13.6595 3.20349 13.8721L2.875 16.5H0.25L0.825181 11.8986C0.930018 11.0599 1.55078 10.3776 2.37588 10.1942L5.14683 9.57848C6.86137 9.19747 8.63863 9.19747 10.3532 9.57848L10.4151 9.59225L6.86737 13.14L6.22264 16.5ZM12.5547 15.9379L14.8881 13.6046L15.25 16.5H12.625L12.5547 15.9379ZM16.375 9.99634C16.9608 9.41056 16.9608 8.46081 16.375 7.87502C15.7892 7.28924 14.8395 7.28924 14.2537 7.87502L14.0956 8.03311L16.2169 10.1544L16.375 9.99634Z" fill="currentColor"/>
</svg>
