<svg width="18" height="18" viewBox="0 0 18 18" fill="none" xmlns="http://www.w3.org/2000/svg">
<path d="M3.75 2.25C2.9175 2.25 2.25 2.9175 2.25 3.75V14.25C2.25 14.6478 2.40804 15.0294 2.68934 15.3107C2.97064 15.592 3.35218 15.75 3.75 15.75H14.25C14.6478 15.75 15.0294 15.592 15.3107 15.3107C15.592 15.0294 15.75 14.6478 15.75 14.25V9H14.25V14.25H3.75V3.75H9V2.25H3.75ZM13.335 3C13.2 3.00114 13.0708 3.05497 12.975 3.15L12.06 4.0575L13.935 5.9325L14.85 5.025C15.045 4.83 15.045 4.5 14.85 4.3125L13.6875 3.15C13.59 3.0525 13.4625 3 13.335 3ZM11.5275 4.59L6 10.125V12H7.875L13.4025 6.465L11.5275 4.59Z" fill="currentColor"/>
</svg>
