<svg width="29" height="28" viewBox="0 0 29 28" fill="none" xmlns="http://www.w3.org/2000/svg">
  <path fill="rgb(59, 89, 152)" d="M26.5 14C26.5 7.37262 21.1274 2 14.5 2C7.87262 2 2.5 7.37253 2.5 14C2.5 19.9895 6.88825 24.954 12.625 25.8542V17.4688H9.57812V14H12.625V11.3563C12.625 8.34875 14.4166 6.6875 17.1575 6.6875C18.4705 6.6875 19.8438 6.92188 19.8438 6.92188V9.875H18.3306C16.8398 9.875 16.375 10.8 16.375 11.7491V14H19.7031L19.1711 17.4688H16.375V25.8542C22.1117 24.954 26.5 19.9896 26.5 14Z" />
  <path fill="rgb(255, 255, 255)" d="M19.1711 17.4688L19.7031 14H16.375V11.7491C16.375 10.8 16.8398 9.875 18.3306 9.875H19.8438V6.92188C19.8438 6.92188 18.4705 6.6875 17.1575 6.6875C14.4166 6.6875 12.625 8.34875 12.625 11.3563V14H9.57812V17.4688H12.625V25.8542C13.2453 25.9514 13.8722 26.0002 14.5 26C15.1278 26.0002 15.7547 25.9514 16.375 25.8542V17.4688H19.1711Z" />
  <path fill="none" stroke="rgb(255, 255, 255)" d="M12.4702 26.8422L12.47 26.8421L11.625 26.7097V26.6806C5.82859 25.3716 1.5 20.1922 1.5 14C1.5 6.82024 7.32035 1 14.5 1C21.6797 1 27.5 6.82034 27.5 14C27.5 20.1923 23.1714 25.3716 17.375 26.6806V26.7097L16.5301 26.8421C16.5301 26.8421 16.5301 26.8421 16.53 26.8421L16.5299 26.8422L15.375 27.0234V26.971C15.0839 26.9904 14.7922 27.0001 14.5003 27L12.4702 26.8422ZM12.4702 26.8422L13.625 27.0234V26.9709M12.4702 26.8422L13.625 26.9709M13.625 26.9709C13.9161 26.9904 14.2078 27.0001 14.4997 27L13.625 26.9709Z" stroke-width="2"/>
</svg>
