<svg width="24" height="24" viewBox="0 0 24 24" fill="none" xmlns="http://www.w3.org/2000/svg">
    <path
        d="M14 2L21 9H14V4H5V20H19V11H21V20C21 20.5304 20.7891 21.039 20.4141 21.4141C20.039 21.7891 19.5304 22 19 22H5C4.46957 22 3.96101 21.7891 3.58594 21.4141C3.21086 21.039 3 20.5304 3 20V4C3 2.89 3.89 2 5 2H14Z"
        fill="currentColor" />
    <path d="M7 17H17V18H7V17Z" fill="currentColor" />
    <path d="M7 14H17V15H7V14Z" fill="currentColor" />
    <path d="M7 11H17V12H7V11Z" fill="currentColor" />
    <path d="M7 8H12V9H7V8Z" fill="currentColor" />
</svg>