<svg width="24" height="24" viewBox="0 0 24 24" fill="none" xmlns="http://www.w3.org/2000/svg">
    <path fill-rule="evenodd" clip-rule="evenodd" d="M23 10.0025V10.0318C23 13.8011 18.7347 16.758 13 17V19C16.553 19.1467 19 20.5407 19 21.9817V22H4.887V21.9817C4.887 20.5407 7.447 19.143 11 19V17C5.269 16.7543 1 13.8011 1 10.0318V10.0025H23ZM11.995 2.85666C12.3837 2.85666 12.7613 2.908 13.1243 3.007L13.832 1.5L14.4737 1.80433L13.7917 3.25266C14.2537 3.46533 14.6717 3.75866 15.0273 4.11433C15.8047 4.89166 16.285 5.96233 16.285 7.14666C16.285 7.792 16.142 8.40066 15.889 8.95066H14.7523C15.0933 8.43366 15.2913 7.814 15.2913 7.14666C15.2913 6.23733 14.9247 5.41233 14.327 4.81833C13.7293 4.22066 12.908 3.854 11.9987 3.854C11.0893 3.854 10.2643 4.22433 9.67031 4.81833C9.07265 5.416 8.706 6.23733 8.706 7.14666C8.706 7.814 8.90399 8.43366 9.24499 8.95066H8.10833C7.85533 8.40066 7.71233 7.792 7.71233 7.14666C7.71233 5.96233 8.19266 4.888 8.96999 4.11433C9.73999 3.337 10.8107 2.85666 11.995 2.85666ZM5.57465 3.00333C6.58665 2.91166 7.54733 3.17933 8.33199 3.7C8.21833 3.81 8.11199 3.92366 8.00933 4.04833C7.89566 4.184 7.78933 4.327 7.694 4.47733C7.10733 4.11433 6.40332 3.93466 5.66632 4.00066C4.76065 4.08133 3.97233 4.525 3.43333 5.17033C2.89433 5.81933 2.60098 6.67 2.68165 7.57566C2.72565 8.08166 2.88332 8.54733 3.12532 8.95433H2.01066C1.842 8.55466 1.72833 8.122 1.688 7.66366C1.58166 6.483 1.96299 5.372 2.66699 4.52866C3.36732 3.68533 4.39399 3.10966 5.57465 3.00333ZM18.6133 3.00333C17.6013 2.91166 16.6407 3.17933 15.856 3.7C15.9697 3.81 16.076 3.92366 16.1786 4.04833C16.2923 4.184 16.3987 4.327 16.494 4.47733C17.0807 4.11433 17.7847 3.93466 18.5217 4.00066C19.4273 4.08133 20.2157 4.525 20.7547 5.17033C21.2937 5.81933 21.587 6.67 21.5063 7.57566C21.4587 8.08166 21.3047 8.54733 21.0627 8.95433H22.1773C22.346 8.55466 22.4597 8.122 22.5 7.66366C22.6063 6.483 22.225 5.372 21.521 4.52866C20.817 3.68533 19.794 3.10966 18.6133 3.00333Z" fill="currentColor"/>
</svg>
