<svg width="28" height="28" viewBox="0 0 28 28" fill="none" xmlns="http://www.w3.org/2000/svg">
	<rect x="1" y="1" width="26" height="26" rx="6" stroke="white" stroke-width="2"/>
	<path d="M16.4004 1C18.0637 1 19.3713 0.999153 20.4219 1.08496C21.4841 1.17175 22.3716 1.35201 23.1777 1.7627C24.4949 2.43381 25.5662 3.50513 26.2373 4.82227C26.648 5.6284 26.8283 6.51589 26.915 7.57812C27.0008 8.62866 27 9.93632 27 11.5996V16.4004C27 18.0637 27.0008 19.3713 26.915 20.4219C26.8283 21.4841 26.648 22.3716 26.2373 23.1777C25.5662 24.4949 24.4949 25.5662 23.1777 26.2373C22.3716 26.648 21.4841 26.8283 20.4219 26.915C19.3713 27.0008 18.0637 27 16.4004 27H11.5996C9.93632 27 8.62866 27.0008 7.57812 26.915C6.51589 26.8283 5.6284 26.648 4.82227 26.2373C3.50513 25.5662 2.43381 24.4949 1.7627 23.1777C1.35201 22.3716 1.17175 21.4841 1.08496 20.4219C0.999153 19.3713 1 18.0637 1 16.4004V11.5996C1 9.93632 0.999153 8.62866 1.08496 7.57812C1.17175 6.51589 1.35201 5.6284 1.7627 4.82227C2.43381 3.50513 3.50513 2.43381 4.82227 1.7627C5.6284 1.35201 6.51589 1.17175 7.57812 1.08496C8.62866 0.999153 9.93632 1 11.5996 1H16.4004Z"/>
	<path fill="#0079C2" fill-rule="evenodd" clip-rule="evenodd" d="M16.4004 1C18.0637 1 19.3713 0.999153 20.4219 1.08496C21.4841 1.17175 22.3716 1.35201 23.1777 1.7627C24.4949 2.43381 25.5662 3.50513 26.2373 4.82227C26.648 5.6284 26.8283 6.51589 26.915 7.57812C27.0008 8.62866 27 9.93632 27 11.5996V16.4004C27 18.0637 27.0008 19.3713 26.915 20.4219C26.8283 21.4841 26.648 22.3716 26.2373 23.1777C25.5662 24.4949 24.4949 25.5662 23.1777 26.2373C22.3716 26.648 21.4841 26.8283 20.4219 26.915C19.3713 27.0008 18.0637 27 16.4004 27H11.5996C9.93632 27 8.62866 27.0008 7.57812 26.915C6.51589 26.8283 5.6284 26.648 4.82227 26.2373C3.50513 25.5662 2.43381 24.4949 1.7627 23.1777C1.35201 22.3716 1.17175 21.4841 1.08496 20.4219C0.999153 19.3713 1 18.0637 1 16.4004V11.5996C1 9.93632 0.999153 8.62866 1.08496 7.57812C1.17175 6.51589 1.35201 5.6284 1.7627 4.82227C2.43381 3.50513 3.50513 2.43381 4.82227 1.7627C5.6284 1.35201 6.51589 1.17175 7.57812 1.08496C8.62866 0.999153 9.93632 1 11.5996 1H16.4004Z" stroke="white" stroke-width="2"/>
	<path fill-rule="evenodd" clip-rule="evenodd" d="M15.6401 7.92974C15.2904 6.42048 14.4102 5.19532 14.2896 5C14.0967 5.2841 13.3973 6.36129 13.0416 7.56278C12.6557 8.90039 12.5955 10.09 12.7281 11.256C12.8607 12.4279 13.3672 13.6235 13.3672 13.6235C13.6324 14.2509 14.0364 14.9256 14.2956 15.257C14.6754 14.7717 15.5557 13.3157 15.833 11.4158C15.9837 10.3564 15.9897 9.43307 15.6401 7.92974ZM14.2896 14.8842C14.1208 14.5646 13.8495 13.9608 13.8254 13.0257C13.8193 12.1201 14.1871 11.3448 14.2956 11.185C14.3921 11.3448 14.7116 12.0254 14.7478 12.9488C14.7719 13.8543 14.4644 14.5645 14.2896 14.8901V14.8842ZM15.5376 10.4866C15.5255 11.0607 15.4532 11.6703 15.3627 12.0314C15.3929 11.4099 15.3205 10.528 15.1698 9.83554C15.0251 9.14898 14.6091 8.00076 14.2775 7.46808C13.97 7.97117 13.5963 8.9655 13.3973 9.82962C13.1983 10.6937 13.1923 11.7354 13.1923 12.0491C13.1381 11.7828 13.0054 10.8417 13.0476 9.90065C13.0778 9.11939 13.2647 8.32037 13.3672 7.94749C13.753 6.71641 14.1931 5.92923 14.2775 5.80494C14.3619 5.92923 14.9166 6.89989 15.2 7.9179C15.4893 8.93591 15.5436 9.91249 15.5315 10.4866H15.5376Z" fill="white"/>
	<path fill-rule="evenodd" clip-rule="evenodd" d="M14.8863 15.6119H12.2215V17.3697C12.2215 17.3697 12.2215 17.3697 12.2275 17.3638C12.8545 16.7482 13.8734 16.7482 14.5004 17.3638C15.1274 17.9793 15.1274 18.9796 14.5004 19.5951C14.5004 19.5951 14.5004 19.5951 14.4944 19.601C14.4944 19.601 14.4883 19.601 14.4823 19.607C13.8553 20.2166 13.0354 20.5243 12.2215 20.5243C11.4076 20.5243 10.5756 20.2166 9.94855 19.601C8.84526 18.5179 8.71262 16.837 9.55667 15.6119C9.67122 15.4461 9.80386 15.2863 9.94855 15.1443C10.5756 14.5287 11.3955 14.221 12.2215 14.221V10.001C9.0623 10.001 6.5 12.5164 6.5 15.6119C6.5 18.7132 9.0623 21.2287 12.2215 21.2287C13.8674 21.2287 15.3505 20.5421 16.3935 19.4531V15.6178H14.8863V15.6119Z" fill="white"/>
	<path d="M19.975 20.6785V16.2513H20.1257C20.192 16.2513 20.2402 16.275 20.2824 16.3283C20.3186 16.3756 20.3427 16.4467 20.3427 16.5354V20.3944C20.3427 20.4832 20.3186 20.5542 20.2824 20.6016C20.2402 20.6489 20.192 20.6785 20.1257 20.6785H19.975ZM18.8174 21.3059H20.6321C20.8311 21.3059 20.9938 21.2704 21.1084 21.2053C21.2229 21.1402 21.3134 21.0514 21.3676 20.9508C21.4219 20.8442 21.4581 20.7377 21.4701 20.6193C21.4882 20.5069 21.4943 20.3944 21.4882 20.2938V16.642C21.4882 16.5414 21.4882 16.4289 21.4701 16.3164C21.452 16.1981 21.4219 16.0915 21.3676 15.985C21.3134 15.8785 21.2229 15.7956 21.1084 15.7305C20.9938 15.6654 20.8311 15.6299 20.6321 15.6299H18.8174V21.3059ZM17.1414 21.3059H18.2989V15.6299H17.1414V21.3059Z" fill="white"/>
</svg>
