<svg xmlns="http://www.w3.org/2000/svg" width="24" height="24" viewBox="0 0 24 24">
  <path fill="currentColor" d="M19.0596 19.594L19 14.012L15 14L15.0596 20.988L17.6503 21C18.4287 21 19.0596 20.4033 19.0596 19.594Z"/>
  <path fill="currentColor" d="M5 14.012L5.05965 19.5351C5.05965 20.3442 5.72165 21 6.5 21L9.05965 20.988L9 14L5 14.012Z"/>
  <path fill="currentColor" d="M4 9.49098V11.5C4 12.4404 4.5625 13.0029 5.5 13.0029H9V7.98805H5.44513C4.5625 7.99977 4 8.66072 4 9.49098Z"/>
  <path fill="currentColor" d="M18.5551 8.01177L15 8V13.0032L18.8247 13.0149C19.7622 13.0149 20 12.2389 20 11.512V9.50303C20 8.57129 19.4375 8.00879 18.5551 8.01177Z"/>
  <path fill="currentColor" d="M10.0371 20.988L14.0596 21L14 8L9.97744 7.98805L10.0371 20.988Z"/>
  <path fill="currentColor" d="M11.8889 5.44828C12.7501 3.84558 13.8632 2 15.458 2C16.9195 2 18.104 3.13325 18.104 4.53116C18.104 5.92925 17.0933 7 15.6318 7H8.14603C6.68448 7 5.3262 5.92925 5.3262 4.53116C5.3262 3.13325 6.51068 2 7.97222 2C9.56694 2 11.0277 3.84558 11.8889 5.44828ZM7.97222 5.5C7.43467 5.5 6.84009 4.96334 6.84009 4.44913C6.84009 3.93491 7.26087 3.5 7.79842 3.5C8.43731 3.5 9.10629 4.07075 9.97744 5.5H7.97222ZM15.7208 5.5C16.2583 5.5 16.6109 4.96334 16.6109 4.44913C16.6109 3.93491 16.1901 3.5 15.6526 3.5C15.0137 3.5 14.5882 4.07075 13.717 5.5H15.7208Z"/>
</svg>