<svg width="28" height="28" viewBox="0 0 28 28" fill="none" xmlns="http://www.w3.org/2000/svg">
  <circle fill="rgb(255, 255, 255)" cx="14" cy="14" r="14"/>
  <path fill="rgb(66, 133, 244)" d="M25.4524 14.27C25.4524 13.48 25.3828 12.73 25.2635 12H14.0308V16.51H20.4622C20.174 17.99 19.329 19.24 18.0765 20.09V23.09H21.9136C24.1601 21 25.4524 17.92 25.4524 14.27Z" />
  <path fill="rgb(52, 168, 83)" d="M14.0308 26C17.2515 26 19.9454 24.92 21.9136 23.09L18.0765 20.09C17.003 20.81 15.6411 21.25 14.0308 21.25C10.9194 21.25 8.28518 19.14 7.34083 16.29H3.38452V19.38C5.3428 23.3 9.36869 26 14.0308 26Z" />
  <path fill="rgb(251, 188, 5)" d="M7.34093 16.29C7.09241 15.57 6.96319 14.8 6.96319 14C6.96319 13.2 7.10236 12.43 7.34093 11.71V8.62H3.38462C2.5695 10.24 2.10229 12.06 2.10229 14C2.10229 15.94 2.5695 17.76 3.38462 19.38L7.34093 16.29Z" />
  <path fill="rgb(234, 67, 53)" d="M14.0308 6.75C15.7902 6.75 17.3608 7.36 18.6034 8.55L22.003 5.13C19.9454 3.19 17.2515 2 14.0308 2C9.36869 2 5.3428 4.7 3.38452 8.62L7.34083 11.71C8.28518 8.86 10.9194 6.75 14.0308 6.75Z" />
</svg>
