<svg width="24" height="24" viewBox="0 0 24 24" fill="none" xmlns="http://www.w3.org/2000/svg">
    <path d="M12 11C14.2091 11 16 9.20914 16 7C16 4.79086 14.2091 3 12 3C9.79086 3 8 4.79086 8 7C8 9.20914 9.79086 11 12 11ZM6.17588 13.2942C5.35078 13.4776 4.73002 14.1599 4.62518 14.9986L4 20H6.8L7.15039 17.1969C7.17873 16.9702 7.37148 16.8 7.6 16.8C7.82852 16.8 8.02127 16.9702 8.04961 17.1969L8.4 20H15.6L15.9504 17.1969C15.9787 16.9702 16.1715 16.8 16.4 16.8C16.6285 16.8 16.8213 16.9702 16.8496 17.1969L17.2 20H20L19.3748 14.9986C19.27 14.1599 18.6492 13.4776 17.8241 13.2943L14.6032 12.5785C12.8886 12.1975 11.1114 12.1975 9.39684 12.5785L6.17588 13.2942Z" fill="currentColor"/>
    <path d="M2.30582 19.0002H1.19995L1.69833 14.8298C1.78892 13.9756 2.41481 13.2747 3.25332 13.0883L3.47698 13.0386C3.14986 13.4708 2.93219 13.9892 2.86181 14.5523L2.30582 19.0002ZM7.9502 10.9875C7.85123 10.9959 7.75109 11.0002 7.64995 11.0002C5.71696 11.0002 4.14995 9.4332 4.14995 7.5002C4.14995 5.60462 5.65689 4.06099 7.53814 4.00195C6.82927 4.89863 6.40612 6.03158 6.40612 7.26336C6.40612 8.71803 6.99626 10.0349 7.9502 10.9875Z" fill="currentColor"/>
    <path d="M21.8446 19.0002H22.9504L22.4521 14.8298C22.3615 13.9756 21.7356 13.2747 20.8971 13.0883L20.6734 13.0386C21.0005 13.4708 21.2182 13.9892 21.2886 14.5523L21.8446 19.0002ZM16.2002 10.9875C16.2992 10.9959 16.3993 11.0002 16.5004 11.0002C18.4334 11.0002 20.0004 9.4332 20.0004 7.5002C20.0004 5.60462 18.4935 4.06099 16.6123 4.00195C17.3211 4.89863 17.7443 6.03158 17.7443 7.26336C17.7443 8.71803 17.1541 10.0349 16.2002 10.9875Z" fill="currentColor"/>
</svg>
