<svg width="24" height="24" viewBox="0 0 24 24" fill="none" xmlns="http://www.w3.org/2000/svg">
  <path d="M11.5 10.5C13.8481 10.5 15.75 8.59813 15.75 6.25C15.75 3.90188 13.8481 2 11.5 2C9.15187 2 7.25 3.90188 7.25 6.25C7.25 8.59813 9.15187 10.5 11.5 10.5Z" fill="currentColor"/>
  <path d="M3 16.875C3 14.1204 8.37946 12.6981 11.2788 12.6277C10.4753 13.7093 10 15.0491 10 16.5C10 17.3859 10.1772 18.2304 10.4982 19H3V16.875Z" fill="currentColor"/>
  <path fill-rule="evenodd" clip-rule="evenodd" d="M22 16.5C22 19.5376 19.5376 22 16.5 22C13.4624 22 11 19.5376 11 16.5C11 13.4624 13.4624 11 16.5 11C19.5376 11 22 13.4624 22 16.5ZM19.881 14.287C20.0906 14.4667 20.1149 14.7824 19.9352 14.9921L15.8629 19.7431L13.6556 16.8C13.4899 16.5791 13.5346 16.2657 13.7556 16.1C13.9765 15.9343 14.2899 15.9791 14.4556 16.2L15.9149 18.1458L19.1759 14.3413C19.3556 14.1316 19.6713 14.1073 19.881 14.287Z" fill="currentColor"/>
</svg>
