<svg width="24" height="24" viewBox="0 0 24 24" xmlns="http://www.w3.org/2000/svg">
	<path d="M3.32518 15.3986C3.43002 14.5599 4.05078 13.8776 4.87588 13.6942L9.89683 12.5785C11.6114 12.1975 13.3886 12.1975 15.1032 12.5785L20.1241 13.6942C20.9492 13.8776 21.57 14.5599 21.6748 15.3986L22.5 22H19L18.562 18.4961C18.5266 18.2127 18.2856 18 18 18C17.7144 18 17.4734 18.2127 17.438 18.4961L17 22H8L7.56202 18.4961C7.52659 18.2127 7.28564 18 7 18C6.71436 18 6.47341 18.2127 6.43798 18.4961L6 22H2.5L3.32518 15.3986Z" fill="currentColor"/>
	<circle cx="12.5" cy="6" r="5" fill="currentColor"/>
</svg>
