<svg width="24" height="24" viewBox="0 0 24 24" fill="none" xmlns="http://www.w3.org/2000/svg">
    <path d="M2.5 8H3.5V1H4.5V8H5.5V1H6.4502C6.45184 1.01183 7 4.95308 7 7C7 9.09287 6.86481 10.6114 5 11.5703V23H3V11.5703C1.14069 10.6143 1 9.08667 1 7C1 5.00297 1.54818 1.01183 1.5498 1H2.5V8Z" fill="currentColor"/>
    <path d="M10.5 23H8.5V15.46C5.50004 12.5 9.03392 2.46606 10.5 1V23Z" fill="currentColor"/>
    <path d="M12 1C18.0751 1 23 5.92487 23 12C23 18.0751 18.0751 23 12 23V20C16.4183 20 20 16.4183 20 12C20 7.58172 16.4183 4 12 4V1Z" fill="currentColor"/>
    <path d="M12 6C15.3137 6 18 8.68629 18 12C18 15.3137 15.3137 18 12 18V6Z" fill="currentColor"/>
</svg>
