<svg xmlns="http://www.w3.org/2000/svg" width="24" height="24" viewBox="0 0 24 24">
    <circle class="border" cx="12" cy="12" r="10"/>
    <path class="icon" fill="currentColor" fill-rule="evenodd"
          d="M14,15.86l-.14.6-1,.4A2.51,2.51,0,0,1,12,17a1.67,1.67,0,0,1-1.18-.39,1.3,1.3,0,0,1-.42-1,3.71,3.71,0,0,1,0-.48q0-.24.1-.55l.52-2q.07-.28.12-.53a2.5,2.5,0,0,0,0-.46.74.74,0,0,0-.15-.52.79.79,0,0,0-.56-.15,1.39,1.39,0,0,0-.42.07l-.37.13.14-.6q.51-.22,1-.38a2.8,2.8,0,0,1,.89-.16,1.63,1.63,0,0,1,1.16.39,1.32,1.32,0,0,1,.41,1q0,.13,0,.45a3.21,3.21,0,0,1-.1.59l-.52,2c0,.16-.08.34-.11.54a3,3,0,0,0-.05.46.68.68,0,0,0,.16.53.89.89,0,0,0,.57.14,1.55,1.55,0,0,0,.43-.07A2.26,2.26,0,0,0,14,15.86ZM12.4,6.2a1.4,1.4,0,1,0,1.4,1.4A1.4,1.4,0,0,0,12.4,6.2Z"/>
</svg>