<svg width="24" height="24" viewBox="0 0 24 24" xmlns="http://www.w3.org/2000/svg">
    <path d="M12 2C10.0222 2 8.08879 2.58649 6.4443 3.6853C4.79981 4.78412 3.51809 6.3459 2.76121 8.17317C2.00433 10.0004 1.8063 12.0111 2.19215 13.9509C2.578 15.8907 3.53041 17.6725 4.92894 19.0711C6.32746 20.4696 8.10929 21.422 10.0491 21.8079C11.9889 22.1937 13.9996 21.9957 15.8268 21.2388C17.6541 20.4819 19.2159 19.2002 20.3147 17.5557C21.4135 15.9112 22 13.9778 22 12C22 10.6868 21.7413 9.38642 21.2388 8.17317C20.7363 6.95991 19.9997 5.85752 19.0711 4.92893C18.1425 4.00035 17.0401 3.26375 15.8268 2.7612C14.6136 2.25866 13.3132 2 12 2ZM12 20C10.4178 20 8.87104 19.5308 7.55544 18.6518C6.23985 17.7727 5.21447 16.5233 4.60897 15.0615C4.00347 13.5997 3.84504 11.9911 4.15372 10.4393C4.4624 8.88743 5.22433 7.46197 6.34315 6.34315C7.46197 5.22433 8.88743 4.4624 10.4393 4.15372C11.9911 3.84504 13.5997 4.00346 15.0615 4.60896C16.5233 5.21447 17.7727 6.23984 18.6518 7.55544C19.5308 8.87103 20 10.4177 20 12C20 14.1217 19.1572 16.1566 17.6569 17.6569C16.1566 19.1571 14.1217 20 12 20ZM14 15.86L13.86 16.46C13.44 16.64 13.11 16.77 12.86 16.86C12.5834 16.9555 12.2926 17.0028 12 17C11.5713 17.0256 11.149 16.8861 10.82 16.61C10.6826 16.483 10.5741 16.328 10.5016 16.1555C10.4292 15.983 10.3945 15.797 10.4 15.61C10.3901 15.4502 10.3901 15.2898 10.4 15.13C10.4 14.97 10.46 14.78 10.5 14.57L11.03 12.57C11.03 12.39 11.11 12.21 11.14 12.04C11.1699 11.8884 11.1866 11.7345 11.19 11.58C11.2008 11.4877 11.193 11.3942 11.1673 11.3049C11.1415 11.2156 11.0983 11.1324 11.04 11.06C10.8836 10.9396 10.6859 10.8857 10.49 10.91C10.3479 10.9103 10.2065 10.9305 10.07 10.97L9.7 11.1L9.84 10.5C10.1666 10.3563 10.5004 10.2295 10.84 10.12C11.1222 10.0172 11.4197 9.96309 11.72 9.96C12.1462 9.93066 12.5667 10.0708 12.89 10.35C13.0255 10.4779 13.1322 10.6333 13.2029 10.8057C13.2736 10.9782 13.3067 11.1637 13.3 11.35C13.3 11.4367 13.3 11.5867 13.3 11.8C13.2816 11.9996 13.2447 12.1971 13.19 12.39L12.67 14.39C12.6236 14.5645 12.5868 14.7414 12.56 14.92C12.5508 15.0732 12.5508 15.2268 12.56 15.38C12.5474 15.4746 12.5551 15.5709 12.5827 15.6623C12.6103 15.7537 12.6571 15.8382 12.72 15.91C12.8874 16.0229 13.0894 16.0725 13.29 16.05C13.4361 16.0489 13.5811 16.0253 13.72 15.98C13.816 15.9464 13.9095 15.9063 14 15.86ZM12.4 6.2C12.1231 6.2 11.8524 6.28211 11.6222 6.43594C11.392 6.58978 11.2125 6.80843 11.1066 7.06424C11.0006 7.32006 10.9729 7.60155 11.0269 7.87313C11.0809 8.1447 11.2143 8.39416 11.4101 8.58995C11.6058 8.78574 11.8553 8.91908 12.1269 8.9731C12.3985 9.02712 12.6799 8.99939 12.9358 8.89343C13.1916 8.78747 13.4102 8.60803 13.5641 8.3778C13.7179 8.14757 13.8 7.87689 13.8 7.6C13.8 7.2287 13.6525 6.8726 13.39 6.61005C13.1274 6.3475 12.7713 6.2 12.4 6.2Z" fill="currentColor"/>
</svg>
