<svg xmlns="http://www.w3.org/2000/svg" xmlns:xlink="http://www.w3.org/1999/xlink" preserveAspectRatio="xMidYMid" width="50" height="24.918863" viewBox="0 0 50 24.918863">
  <path d="m 49.896587,23.750129 c -0.07757,0.07757 -0.206834,0.1034 -0.361944,0.129267 -0.180966,0.026 -0.41365,0.0517 -0.74974,0.0517 -0.336093,0 -0.594623,-0.026 -0.749743,-0.0517 -0.155133,-0.026 -0.258533,-0.0517 -0.33609,-0.129267 -0.0517,-0.0517 -0.07757,-0.129267 -0.07757,-0.258533 0,0 0,-0.80145 0,-0.80145 -0.439503,0.439503 -0.90486,0.80145 -1.447776,1.05998 -0.542917,0.258533 -1.13754,0.361943 -1.80972,0.361943 -0.542917,0 -1.034127,-0.0517 -1.499484,-0.206833 -0.465356,-0.129267 -0.853153,-0.336094 -1.189246,-0.620477 -0.33609,-0.2844 -0.59462,-0.620477 -0.775594,-1.05998 -0.180966,-0.41365 -0.284366,-0.879007 -0.284366,-1.447777 0,-0.594623 0.129266,-1.111683 0.361943,-1.55119 0.232667,-0.439503 0.56877,-0.801446 1.034127,-1.08583 0.465356,-0.2844 1.059976,-0.517063 1.73216,-0.64633 0.698036,-0.129266 1.499483,-0.206833 2.404343,-0.206833 0,0 1.008273,0 1.008273,0 0,0 0,-0.620477 0,-0.620477 0,-0.33609 -0.026,-0.594623 -0.1034,-0.853153 -0.0517,-0.232667 -0.155133,-0.439507 -0.310233,-0.594623 -0.155133,-0.155134 -0.361943,-0.2844 -0.594623,-0.361944 -0.258534,-0.07757 -0.56877,-0.1034 -0.930714,-0.1034 -0.49121,0 -0.90486,0.0517 -1.292656,0.1551 -0.3878,0.1034 -0.72389,0.232667 -1.008274,0.361947 -0.2844,0.129267 -0.542916,0.232667 -0.72389,0.33609 -0.206833,0.129267 -0.361943,0.180967 -0.49121,0.180967 -0.07757,0 -0.155133,-0.026 -0.206833,-0.07757 -0.07757,-0.07757 -0.129267,-0.129267 -0.180967,-0.232667 -0.026,-0.1034 -0.07757,-0.232666 -0.1034,-0.387796 0,-0.129267 -0.026,-0.2844 -0.026,-0.465357 0,-0.232667 0.026,-0.439503 0.0517,-0.56877 0.0517,-0.129267 0.129267,-0.258533 0.232667,-0.387797 0.1034,-0.1034 0.284367,-0.232666 0.56877,-0.361943 0.258533,-0.129267 0.568767,-0.258533 0.930713,-0.361943 0.361944,-0.129267 0.74974,-0.206834 1.189244,-0.2844 0.41365,-0.07757 0.853153,-0.1034 1.31851,-0.1034 0.80145,0 1.499483,0.07757 2.068253,0.232666 0.56877,0.155134 1.034127,0.387797 1.39607,0.723887 0.361943,0.310233 0.64633,0.749743 0.80145,1.240953 C 49.92244,15.270296 50,15.890769 50,16.588806 c 0,0 0,6.902793 0,6.902793 0,0.129267 -0.026,0.206833 -0.1034,0.258533 z m -2.740434,-4.653567 c 0,0 -1.111686,0 -1.111686,0 -0.465357,0 -0.853154,0.0517 -1.189244,0.1034 -0.336093,0.07757 -0.594623,0.180967 -0.80145,0.310234 -0.206833,0.155133 -0.361943,0.310233 -0.465356,0.517063 -0.07757,0.180967 -0.129267,0.41365 -0.129267,0.67218 0,0.413653 0.129267,0.749743 0.41365,1.008273 0.258533,0.258534 0.646327,0.361947 1.111683,0.361947 0.413654,0 0.80145,-0.1034 1.13754,-0.310233 0.33609,-0.206834 0.698037,-0.517064 1.034127,-0.90486 0,0 0,-1.758014 0,-1.758014 z m -9.33299,4.136504 c -0.387796,0.2844 -0.853153,0.517063 -1.421923,0.672183 -0.542917,0.155133 -1.111683,0.206833 -1.758013,0.206833 -0.387797,0 -0.74974,-0.026 -1.111687,-0.07757 -0.33609,-0.0517 -0.646328,-0.129267 -0.930713,-0.206834 -0.284383,-0.1034 -0.49121,-0.180966 -0.698035,-0.2844 -0.180973,-0.07757 -0.310237,-0.180966 -0.387797,-0.258533 -0.07756,-0.07757 -0.15512,-0.206833 -0.206827,-0.361943 -0.02587,-0.180967 -0.05171,-0.439504 -0.05171,-0.775597 0,-0.232667 0,-0.41365 0.02587,-0.542913 0,-0.129267 0.02587,-0.232667 0.05171,-0.310234 0.02587,-0.07757 0.07756,-0.155133 0.129266,-0.180966 0.02587,-0.026 0.103414,-0.026 0.15512,-0.026 0.103414,0 0.206827,0.0517 0.387798,0.129266 0.15512,0.1034 0.361944,0.206834 0.620475,0.336094 0.23268,0.1034 0.517064,0.206833 0.853153,0.310233 0.310234,0.1034 0.698037,0.155133 1.111687,0.155133 0.258533,0 0.49121,-0.026 0.698037,-0.07757 0.180966,-0.0517 0.361943,-0.129267 0.517063,-0.232667 0.1551,-0.1034 0.258533,-0.232667 0.33609,-0.387797 0.07757,-0.155133 0.129267,-0.33609 0.129267,-0.517063 0,-0.232667 -0.07757,-0.439503 -0.232667,-0.594623 -0.129267,-0.180967 -0.310233,-0.310234 -0.542917,-0.439504 -0.232666,-0.129266 -0.517063,-0.232666 -0.801446,-0.33609 -0.310234,-0.1034 -0.594624,-0.232666 -0.90486,-0.361943 -0.310234,-0.129267 -0.620477,-0.2844 -0.904862,-0.439503 -0.310236,-0.180967 -0.568769,-0.387797 -0.801447,-0.620477 -0.23268,-0.258533 -0.413651,-0.542917 -0.56877,-0.90486 -0.129267,-0.33609 -0.206827,-0.749743 -0.206827,-1.240953 0,-0.49121 0.103414,-0.930714 0.284384,-1.344364 0.180973,-0.41365 0.465356,-0.775593 0.827301,-1.05998 0.361944,-0.2844 0.801447,-0.51706 1.318511,-0.67218 0.517063,-0.155133 1.085833,-0.232666 1.73216,-0.232666 0.336093,0 0.64633,0 0.956567,0.0517 0.2844,0.0517 0.56877,0.1034 0.80145,0.180966 0.258533,0.07757 0.465356,0.155134 0.646326,0.232667 0.155134,0.07757 0.2844,0.129267 0.361944,0.206833 0.0517,0.0517 0.1034,0.1034 0.155133,0.155134 0.026,0.07757 0.0517,0.129266 0.0517,0.206833 0.026,0.07757 0.026,0.180967 0.0517,0.310233 0,0.1034 0,0.258534 0,0.439504 0,0.206833 0,0.387796 0,0.517063 -0.026,0.129267 -0.026,0.232667 -0.0517,0.310233 -0.026,0.07757 -0.07757,0.129267 -0.129267,0.155134 -0.026,0.026 -0.1034,0.026 -0.155133,0.026 -0.07757,0 -0.180967,-0.026 -0.310233,-0.1034 -0.1551,-0.1034 -0.33609,-0.180967 -0.542917,-0.258534 -0.232667,-0.1034 -0.49121,-0.180966 -0.775593,-0.2844 -0.284367,-0.07757 -0.620477,-0.1034 -0.98242,-0.1034 -0.258534,0 -0.49121,0.026 -0.672184,0.07757 -0.206833,0.0517 -0.361943,0.129267 -0.465356,0.232667 -0.129267,0.1034 -0.232667,0.206833 -0.284367,0.336093 -0.0517,0.1551 -0.1034,0.2844 -0.1034,0.439503 0,0.232667 0.07757,0.439504 0.232667,0.594624 0.129266,0.1551 0.33609,0.310233 0.56877,0.439503 0.232666,0.1034 0.51706,0.232667 0.801446,0.33609 0.310234,0.1034 0.620477,0.232667 0.930714,0.361943 0.310233,0.129267 0.620476,0.258534 0.930713,0.439504 0.284367,0.155133 0.56877,0.361946 0.801447,0.620476 0.232666,0.232667 0.439503,0.542917 0.56877,0.879007 0.155133,0.336093 0.232666,0.749743 0.232666,1.2151 0,0.568767 -0.129266,1.08583 -0.336093,1.551187 -0.206833,0.439506 -0.517063,0.80145 -0.930713,1.111686 z M 27.507756,11.263056 c -0.646329,0 -1.085833,-0.1034 -1.318511,-0.310234 -0.232677,-0.232666 -0.336091,-0.620476 -0.336091,-1.163393 0,-0.594623 0.103413,-0.98242 0.336091,-1.215097 0.232677,-0.232666 0.698035,-0.336093 1.344364,-0.336093 0.646329,0 1.085833,0.1034 1.318511,0.310233 0.206827,0.232667 0.336091,0.620474 0.336091,1.189244 0,0.56877 -0.129267,0.98242 -0.361944,1.189246 -0.23268,0.232667 -0.672182,0.33609 -1.318511,0.33609 z M 24.793175,4.489529 c -1.111686,1.189247 -2.016546,2.352637 -2.740435,3.412617 0.07756,0.155133 0.129267,0.33609 0.15512,0.542916 0,0 1.137539,13.185107 1.137539,13.185107 0.103413,1.085833 -0.698035,2.016547 -1.783867,2.11996 0,0 -13.185109,1.163393 -13.185109,1.163393 -1.0599793,0.07757 -2.016546,-0.698036 -2.1199587,-1.78387 0,0 -1.1375386,-13.185106 -1.1375386,-13.185106 -0.1034134,-1.085834 0.698035,-2.0424 1.7838673,-2.11996 0,0 13.159256,-1.16339 13.159256,-1.16339 0.206823,0 0.387797,0 0.568769,0.026 0.749741,-0.749744 1.551189,-1.55119 2.37849,-2.35264 2.895553,-2.817994 4.576008,-4.00723704 4.576008,-4.00723704 0,0 0.646329,-0.594623 1.008273,-0.180967 0.439504,0.49121 -0.310236,0.95656704 -0.310236,0.95656704 0,0 -1.938987,1.70631 -3.490176,3.386763 z m -3.697001,2.973113 c -0.723889,-0.517063 -0.930714,-0.41365 -4.963806,5.015514 -1.96484,2.662873 -2.921406,4.705273 -2.921406,4.705273 0,0 -0.749742,-1.88728 -1.421924,-3.309203 -0.646329,-1.39607 -1.034126,-2.145814 -1.499483,-2.973114 -0.542916,-0.956566 -1.8355737,-0.232666 -1.8355737,-0.232666 0,0 -0.827301,0.749743 -0.827301,0.749743 0,0 -0.5946223,0.361943 0.3877974,2.042397 1.2150983,2.016546 2.0941053,4.679423 2.4301963,6.437436 0.25853,1.292657 -0.258533,1.24095 3.877973,1.990694 1.55119,0.2844 1.602896,-0.775594 1.602896,-0.775594 0,0 0.930713,-3.567736 1.913133,-6.359876 0.98242,-2.817994 2.973113,-5.32575 3.490176,-6.127197 0.310237,-0.439507 0.206827,-0.853157 -0.232677,-1.163393 z M 1.6546019,11.263056 c -0.6463289,0 -1.0858325,-0.1034 -1.3185109,-0.310234 C 0.1034126,10.720139 0,10.332342 0,9.789426 0,9.194802 0.1034126,8.807006 0.336091,8.574329 0.56876933,8.341662 1.008273,8.238236 1.680455,8.238236 c 0.6463289,0 1.0858325,0.1034 1.2926577,0.310233 0.2326784,0.232667 0.3619443,0.620473 0.3619443,1.189243 0,0.56877 -0.129266,0.98242 -0.3619443,1.189247 -0.2326783,0.232667 -0.672182,0.33609 -1.3185108,0.33609 z m -1.13753883,1.602896 c 0.10341266,-0.026 0.25853166,-0.07757 0.43950363,-0.1034 0.180972,0 0.4136505,-0.026 0.6980352,-0.026 0.2843846,0 0.517063,0.026 0.6980351,0.026 0.2068254,0.026 0.336091,0.07757 0.4653568,0.1034 0.1034127,0.0517 0.180972,0.1034 0.2326783,0.1551 0.025853,0.0517 0.051706,0.129267 0.051706,0.206834 0,0 0,10.23785 0,10.23785 0,0.07757 -0.025853,0.1551 -0.051706,0.206833 -0.051706,0.0517 -0.1292656,0.1034 -0.2326783,0.129267 -0.1292657,0.0517 -0.2585317,0.07757 -0.4653568,0.1034 -0.180972,0.026 -0.4136504,0.026 -0.6980351,0.026 -0.2843847,0 -0.5170631,0 -0.6980352,-0.026 -0.180972,-0.026 -0.336091,-0.0517 -0.43950363,-0.1034 -0.10341267,-0.026 -0.180972,-0.07757 -0.23267837,-0.129267 -0.0517063,-0.0517 -0.0775595,-0.129267 -0.0775595,-0.206833 0,0 0,-10.23785 0,-10.23785 0,-0.07757 0.025853,-0.155134 0.0775595,-0.206834 0.0517063,-0.0517 0.12926577,-0.1034 0.23267837,-0.1551 z m 25.85315393,0 c 0.103413,-0.026 0.25853,-0.07757 0.439504,-0.1034 0.180973,0 0.41365,-0.026 0.698035,-0.026 0.284383,0 0.517063,0.026 0.723888,0.026 0.180974,0.026 0.310237,0.07757 0.439504,0.1034 0.103413,0.0517 0.180973,0.1034 0.232677,0.1551 0.05171,0.0517 0.05171,0.129267 0.05171,0.206834 0,0 0,10.23785 0,10.23785 0,0.07757 0,0.1551 -0.05171,0.206833 -0.05171,0.0517 -0.129267,0.1034 -0.232677,0.129267 -0.129267,0.0517 -0.25853,0.07757 -0.439504,0.1034 -0.206826,0.026 -0.439503,0.026 -0.723888,0.026 -0.284383,0 -0.517063,0 -0.698035,-0.026 -0.180974,-0.026 -0.336091,-0.0517 -0.439504,-0.1034 -0.103413,-0.026 -0.180973,-0.07757 -0.232677,-0.129267 -0.05171,-0.0517 -0.07756,-0.129267 -0.07756,-0.206833 0,0 0,-10.23785 0,-10.23785 0,-0.07757 0.02587,-0.155134 0.07756,-0.206834 0.05171,-0.0517 0.129267,-0.1034 0.232677,-0.1551 z" fill="currentColor" />
</svg>
