<svg width="24" height="24" viewBox="0 0 24 24" fill="none" xmlns="http://www.w3.org/2000/svg">
<path fill-rule="evenodd" clip-rule="evenodd" d="M16 10V5.88889C16 4.85749 15.5786 3.86834 14.8284 3.13903C14.0783 2.40972 13.0609 2 12 2C10.9391 2 9.92172 2.40972 9.17157 3.13903C8.42143 3.86834 8 4.85749 8 5.88889V10H7C6.46957 10 5.96086 10.2107 5.58579 10.5858C5.21071 10.9609 5 11.4696 5 12V20C5 20.5304 5.21071 21.0391 5.58579 21.4142C5.96086 21.7893 6.46957 22 7 22H17C17.5304 22 18.0391 21.7893 18.4142 21.4142C18.7893 21.0391 19 20.5304 19 20V12C19 11.4696 18.7893 10.9609 18.4142 10.5858C18.0391 10.2107 17.5304 10 17 10H16ZM13.992 10V5.88889C13.992 5.37319 13.7813 4.87861 13.4062 4.51396C13.0311 4.14931 12.5224 3.94444 11.992 3.94444C11.4616 3.94444 10.9529 4.14931 10.5778 4.51396C10.2027 4.87861 9.992 5.37319 9.992 5.88889V10H13.992ZM11.16 16.81L10.5 19H13.5L12.84 16.81C13.2536 16.6186 13.5894 16.2917 13.7918 15.8834C13.9943 15.4751 14.0512 15.0099 13.9532 14.5649C13.8552 14.1198 13.6082 13.7216 13.253 13.4361C12.8978 13.1506 12.4557 12.995 12 12.995C11.5443 12.995 11.1022 13.1506 10.747 13.4361C10.3918 13.7216 10.1448 14.1198 10.0468 14.5649C9.94879 15.0099 10.0057 15.4751 10.2082 15.8834C10.4106 16.2917 10.7464 16.6186 11.16 16.81Z" fill="currentColor"/>
</svg>
