<svg width="18" height="18" viewBox="0 0 18 18" fill="none" xmlns="http://www.w3.org/2000/svg">
  <path
    d="M9.00024 13.958C8.84387 14.0469 7.72032 14.9996 5.48462 14.9996C3.60128 15.0006 1.58965 14.0355 0.958647 14.0543C0.736481 14.045 0.557988 14.0901 0.418463 14.1515C0.154769 14.262 -0.102072 14.1004 0.0410027 13.8295C0.536605 12.8929 1.37797 12.3161 2.17326 12.076C2.75423 11.9004 3.28508 11.8417 3.55951 12.1471C4.16524 12.8188 5.25874 13.648 6.32128 13.7569C6.40722 13.7655 6.79319 13.7983 6.79781 13.6894C6.80185 13.6221 6.67034 13.5786 6.53684 13.569C5.45185 13.4901 3.49396 12.3284 2.41895 10.0784C2.01557 9.23388 1.69565 8.41547 0.991836 8.05857C0.836708 7.98369 0.831341 7.69597 1.15927 7.61812C1.38738 7.56379 2.83175 7.42468 4.48368 8.29411C5.24206 8.69337 5.34856 9.05126 5.35137 9.36358C5.34444 11.7217 6.537 12.6579 6.99818 12.9344C7.25576 13.0882 7.49576 13.1537 7.52111 13.0731C7.54191 13.0056 7.47413 12.9599 7.41494 12.9242C5.98468 12.0561 5.60714 10.7202 5.59616 9.35962C5.58493 8.01407 6.08408 6.85032 6.43711 5.89635C6.48879 5.76103 6.65597 5.19245 6.5138 4.66646C6.4078 4.27389 6.49407 4.1598 6.70113 4.1598C6.92734 4.1598 7.22868 4.52636 7.33048 4.65235C7.41197 4.74721 7.67549 5.06803 8.07318 5.85474C8.86137 7.41279 8.86732 9.04102 8.86732 9.24024C8.86732 10.3592 8.57869 10.4881 8.1086 10.7205C7.639 10.9524 7.41593 11.2516 7.41543 11.5981C7.41461 11.9547 7.66262 12.3252 8.10827 12.4558C8.45436 12.5573 8.67363 12.5188 8.65498 12.4293C8.64036 12.3581 8.48746 12.3404 8.44296 12.3284C7.97304 12.2007 7.66088 11.9596 7.66088 11.5981C7.66088 11.1469 8.21741 10.8162 8.99974 10.8162C9.78273 10.8162 10.3389 11.1469 10.3389 11.5984C10.3389 11.9598 10.0269 12.2011 9.55718 12.3286C9.5126 12.3407 9.35962 12.3581 9.34492 12.4293C9.3266 12.5193 9.54579 12.5575 9.89188 12.4558C10.3374 12.3258 10.5853 11.9551 10.5846 11.5984C10.5845 11.2518 10.3611 10.9525 9.89171 10.7205C9.42162 10.4884 9.13283 10.3592 9.13283 9.24065C9.13283 9.04152 9.13894 7.41279 9.92647 5.85507C10.3246 5.06836 10.5884 4.74721 10.6693 4.65243C10.7713 4.52652 11.0729 4.1598 11.2991 4.1598C11.5063 4.1598 11.592 4.27389 11.4861 4.66679C11.3439 5.19245 11.5109 5.76144 11.5628 5.89635C11.9159 6.85081 12.4155 8.01448 12.4042 9.35979C12.3933 10.7205 12.015 12.0562 10.5853 12.9247C10.5258 12.9599 10.4579 13.0061 10.4793 13.0731C10.5044 13.154 10.7442 13.0889 11.0014 12.9349C11.463 12.658 12.6558 11.722 12.6489 9.36383C12.6517 9.05126 12.7578 8.69337 13.5163 8.29411C15.1684 7.42509 16.6132 7.56429 16.8411 7.61845C17.1686 7.69622 17.1634 7.98427 17.0083 8.0589C16.3044 8.41547 15.9846 9.23421 15.5812 10.0784C14.5058 12.3284 12.5485 13.4906 11.4633 13.5695C11.3295 13.5786 11.1979 13.6228 11.2021 13.6897C11.2067 13.7983 11.5928 13.766 11.6789 13.7572C12.741 13.6485 13.8347 12.8193 14.4403 12.1471C14.7153 11.842 15.2456 11.9005 15.827 12.0764C16.6224 12.3161 17.4632 12.8929 17.9588 13.83C18.1022 14.1007 17.8456 14.262 17.5817 14.1519C17.4422 14.0906 17.2634 14.0455 17.0413 14.0543C16.4102 14.0357 14.3991 15.0006 12.5149 15.0001C10.2796 15.0001 9.15677 14.0469 9.00024 13.958Z"
    fill="#CB9B3F" />
</svg>