<svg width="150" height="82" viewBox="0 0 150 82" fill="none" xmlns="http://www.w3.org/2000/svg">
  <defs>
    <filter id="filter0_i_4973_1439" x="4.35815" y="13.8729" width="61.2257" height="56.7972" filterUnits="userSpaceOnUse" color-interpolation-filters="sRGB">
      <feFlood flood-opacity="0" result="BackgroundImageFix" />
      <feBlend mode="normal" in="SourceGraphic" in2="BackgroundImageFix" result="shape" />
      <feColorMatrix in="SourceAlpha" type="matrix" values="0 0 0 0 0 0 0 0 0 0 0 0 0 0 0 0 0 0 127 0" result="hardAlpha" />
      <feOffset dx="1" dy="1" />
      <feComposite in2="hardAlpha" operator="arithmetic" k2="-1" k3="1" />
      <feColorMatrix type="matrix" values="0 0 0 0 0.94902 0 0 0 0 0.752941 0 0 0 0 0.603922 0 0 0 1 0" />
      <feBlend mode="normal" in2="shape" result="effect1_innerShadow_4973_1439" />
    </filter>
    <linearGradient id="paint0_linear_4973_1439" x1="40.2546" y1="48.5955" x2="130.502" y2="47.5169" gradientUnits="userSpaceOnUse">
      <stop stop-color="rgb(255, 255, 255)" />
      <stop offset="1" stop-color="rgb(255, 255, 255)" stop-opacity="0" />
    </linearGradient>
    <linearGradient id="paint1_linear_4973_1439" x1="81.9625" y1="26.6629" x2="49.2434" y2="28.1011" gradientUnits="userSpaceOnUse">
      <stop stop-color="rgb(255, 255, 255)" />
      <stop offset="1" stop-color="rgb(255, 255, 255)" stop-opacity="0" />
    </linearGradient>
    <linearGradient id="paint2_linear_4973_1439" x1="100.265" y1="34.5402" x2="48.5307" y2="37.4937" gradientUnits="userSpaceOnUse">
      <stop stop-color="rgb(255, 255, 255)" />
      <stop offset="1" stop-color="rgb(255, 255, 255)" stop-opacity="0" />
    </linearGradient>
    <linearGradient id="paint3_linear_4973_1439" x1="76.4086" y1="51.351" x2="53.303" y2="52.1326" gradientUnits="userSpaceOnUse">
      <stop stop-color="rgb(255, 255, 255)" />
      <stop offset="1" stop-color="rgb(255, 255, 255)" stop-opacity="0" />
    </linearGradient>
    <linearGradient id="paint4_linear_4973_1439" x1="89.3823" y1="59.1998" x2="52.9677" y2="60.9051" gradientUnits="userSpaceOnUse">
      <stop stop-color="rgb(255, 255, 255)" />
      <stop offset="1" stop-color="rgb(255, 255, 255)" stop-opacity="0" />
    </linearGradient>
    <linearGradient id="paint5_linear_4973_1439" x1="118.584" y1="28.6469" x2="85.8605" y2="30.0028" gradientUnits="userSpaceOnUse">
      <stop stop-color="rgb(255, 255, 255)" />
      <stop offset="1" stop-color="rgb(255, 255, 255)" stop-opacity="0" />
    </linearGradient>
    <linearGradient id="paint6_linear_4973_1439" x1="35.6554" y1="13" x2="35.6554" y2="70.6701" gradientUnits="userSpaceOnUse">
      <stop stop-color="rgb(255, 227, 203)" />
      <stop offset="1" stop-color="rgb(255, 202, 162)" />
    </linearGradient>
  </defs>

  <g>
    <path fill-rule="evenodd" clip-rule="evenodd" d="M57.2192 18.5044C56.9738 18.4805 56.7314 18.4621 56.496 18.448C56.231 18.4322 55.975 18.422 55.7339 18.4158C55.161 18.4011 54.845 17.6115 55.2497 17.2056C55.4199 17.0348 55.5982 16.8508 55.7791 16.6566C55.9398 16.484 56.1026 16.3035 56.2638 16.1169C56.2795 16.0987 56.2952 16.0805 56.3108 16.0622C56.9484 15.3179 57.5546 14.4825 57.8956 13.6864C58.2367 12.8903 58.4233 11.8752 58.5222 10.9001C58.5247 10.8762 58.527 10.8522 58.5294 10.8283C58.5533 10.583 58.5717 10.3405 58.5857 10.1052C58.6015 9.84017 58.6117 9.58417 58.6179 9.34311C58.6326 8.77013 59.4222 8.45417 59.8281 8.85882C59.9989 9.02906 60.1829 9.20733 60.3772 9.38828C60.5497 9.54898 60.7303 9.71178 60.9169 9.87294C60.935 9.88864 60.9533 9.90432 60.9715 9.91998C61.7159 10.5576 62.5512 11.1637 63.3473 11.5048C64.1435 11.8459 65.1585 12.0324 66.1336 12.1314C66.1576 12.1338 66.1815 12.1362 66.2054 12.1385C66.4508 12.1624 66.6932 12.1808 66.9286 12.1949C67.1936 12.2107 67.4496 12.2209 67.6906 12.2271C68.2636 12.2418 68.5796 13.0314 68.1749 13.4373C68.0047 13.6081 67.8264 13.7921 67.6455 13.9864C67.4848 14.1589 67.322 14.3395 67.1608 14.526C67.1451 14.5442 67.1294 14.5624 67.1138 14.5807C66.4761 15.325 65.87 16.1604 65.5289 16.9565C65.1879 17.7526 65.0013 18.7677 64.9023 19.7428C64.8999 19.7667 64.8975 19.7907 64.8952 19.8146C64.8713 20.0599 64.8529 20.3024 64.8389 20.5377C64.8231 20.8027 64.8128 21.0587 64.8066 21.2998C64.7919 21.8728 64.0024 22.1887 63.5964 21.7841C63.4257 21.6138 63.2416 21.4356 63.0474 21.2546C62.8749 21.0939 62.6943 20.9311 62.5077 20.77C62.4895 20.7543 62.4713 20.7386 62.453 20.7229C61.7087 20.0853 60.8734 19.4792 60.0772 19.1381C59.2811 18.7971 58.266 18.6105 57.291 18.5115C57.267 18.5091 57.2431 18.5067 57.2192 18.5044ZM59.0717 16.3781C59.7401 16.5119 60.4066 16.698 61.0116 16.9572C61.6165 17.2163 62.211 17.5704 62.769 17.962C62.9027 17.2936 63.0889 16.6271 63.348 16.0222C63.6071 15.4173 63.9613 14.8227 64.3528 14.2648C63.6845 14.131 63.0179 13.9449 62.413 13.6857C61.8081 13.4266 61.2135 13.0725 60.6556 12.6809C60.5218 13.3493 60.3357 14.0158 60.0766 14.6207C59.8174 15.2256 59.4633 15.8202 59.0717 16.3781Z" fill="rgb(255, 255, 255)" fill-opacity="0.8" />
    <path fill-rule="evenodd" clip-rule="evenodd" d="M46.7094 61.4357C46.5884 61.3076 46.4665 61.1838 46.3463 61.0657C46.2109 60.9327 46.0778 60.8069 45.9508 60.6904C45.649 60.4133 45.8497 59.8396 46.2583 59.8109C46.4303 59.7989 46.6127 59.7835 46.8015 59.7638C46.9691 59.7463 47.1416 59.7255 47.3161 59.7007C47.333 59.6983 47.3501 59.6958 47.3671 59.6933C48.0602 59.5918 48.7791 59.4264 49.3368 59.1577C49.8944 58.889 50.4717 58.4297 50.983 57.9509C50.9956 57.9391 51.0081 57.9273 51.0206 57.9156C51.1487 57.7946 51.2725 57.6726 51.3906 57.5524C51.5236 57.4171 51.6493 57.2839 51.7659 57.157C52.0429 56.8552 52.6167 57.0558 52.6453 57.4645C52.6574 57.6364 52.6728 57.8189 52.6925 58.0076C52.7099 58.1752 52.7308 58.3477 52.7556 58.5222C52.758 58.5392 52.7605 58.5562 52.763 58.5732C52.8645 59.2663 53.0298 59.9852 53.2986 60.5429C53.5673 61.1006 54.0265 61.6779 54.5054 62.1892C54.5171 62.2017 54.5289 62.2142 54.5407 62.2267C54.6617 62.3549 54.7837 62.4786 54.9039 62.5967C55.0392 62.7297 55.1723 62.8555 55.2993 62.972C55.6011 63.2491 55.4005 63.8229 54.9918 63.8515C54.8199 63.8635 54.6374 63.8789 54.4487 63.8986C54.2811 63.9161 54.1085 63.9369 53.9341 63.9617C53.9171 63.9642 53.9001 63.9666 53.883 63.9691C53.1899 64.0706 52.471 64.236 51.9134 64.5047C51.3557 64.7734 50.7784 65.2327 50.2671 65.7115C50.2545 65.7233 50.242 65.7351 50.2295 65.7469C50.1014 65.8678 49.9776 65.9898 49.8595 66.11C49.7265 66.2454 49.6008 66.3785 49.4842 66.5054C49.2072 66.8072 48.6334 66.6066 48.6048 66.1979C48.5927 66.026 48.5773 65.8435 48.5577 65.6548C48.5402 65.4872 48.5194 65.3147 48.4945 65.1402C48.4921 65.1232 48.4897 65.1062 48.4872 65.0892C48.3856 64.3961 48.2203 63.6772 47.9516 63.1195C47.6828 62.5618 47.2236 61.9846 46.7447 61.4733C46.733 61.4607 46.7212 61.4482 46.7094 61.4357ZM48.7061 61.1603C49.0034 61.5463 49.2751 61.9596 49.4793 62.3833C49.6835 62.8071 49.8375 63.2771 49.9541 63.7501C50.3401 63.4529 50.7535 63.1812 51.1772 62.977C51.6009 62.7728 52.071 62.6188 52.544 62.5021C52.2467 62.1161 51.975 61.7028 51.7708 61.2791C51.5667 60.8554 51.4127 60.3853 51.296 59.9123C50.91 60.2096 50.4967 60.4812 50.0729 60.6854C49.6492 60.8896 49.1792 61.0436 48.7061 61.1603Z" fill="rgb(255, 255, 255)" fill-opacity="0.8" />
    <path fill-rule="evenodd" clip-rule="evenodd" d="M112.853 76.5324C112.736 76.4101 112.619 76.2919 112.503 76.1791C112.372 76.0522 112.244 75.9322 112.121 75.821C111.83 75.5566 112.02 75.0048 112.412 74.9753C112.577 74.9628 112.752 74.9471 112.933 74.9273C113.094 74.9097 113.259 74.8888 113.427 74.8641C113.443 74.8617 113.459 74.8592 113.476 74.8567C114.14 74.7557 114.829 74.5934 115.363 74.3326C115.897 74.0718 116.449 73.6281 116.937 73.1659C116.949 73.1546 116.961 73.1432 116.973 73.1318C117.095 73.015 117.214 72.8974 117.326 72.7814C117.453 72.6508 117.573 72.5224 117.685 72.3999C117.949 72.1089 118.501 72.2985 118.53 72.6906C118.543 72.8555 118.558 73.0306 118.578 73.2116C118.596 73.3724 118.617 73.5379 118.641 73.7052C118.644 73.7215 118.646 73.7378 118.649 73.7542C118.75 74.4189 118.912 75.1081 119.173 75.6419C119.434 76.1758 119.877 76.7276 120.34 77.2159C120.351 77.2279 120.362 77.2398 120.374 77.2517C120.49 77.3741 120.608 77.4923 120.724 77.605C120.855 77.732 120.983 77.852 121.106 77.9632C121.397 78.2276 121.207 78.7793 120.815 78.8089C120.65 78.8213 120.475 78.837 120.294 78.8569C120.133 78.8745 119.968 78.8954 119.8 78.9201C119.784 78.9225 119.768 78.9249 119.751 78.9274C119.087 79.0284 118.397 79.1908 117.864 79.4515C117.33 79.7123 116.778 80.156 116.29 80.6182C116.278 80.6296 116.266 80.641 116.254 80.6523C116.131 80.7691 116.013 80.8868 115.901 81.0028C115.774 81.1334 115.654 81.2618 115.542 81.3842C115.278 81.6753 114.726 81.4857 114.697 81.0936C114.684 80.9286 114.668 80.7536 114.649 80.5725C114.631 80.4117 114.61 80.2463 114.585 80.0789C114.583 80.0626 114.581 80.0463 114.578 80.03C114.477 79.3653 114.315 78.6761 114.054 78.1422C113.793 77.6083 113.349 77.0566 112.887 76.5683C112.876 76.5563 112.865 76.5443 112.853 76.5324ZM114.768 76.2579C115.056 76.6269 115.318 77.0222 115.517 77.4279C115.715 77.8335 115.865 78.2839 115.979 78.7373C116.348 78.45 116.744 78.1871 117.149 77.989C117.555 77.7909 118.005 77.6407 118.459 77.5263C118.171 77.1573 117.909 76.762 117.71 76.3563C117.512 75.9507 117.362 75.5003 117.248 75.0469C116.879 75.3342 116.483 75.597 116.078 75.7952C115.672 75.9933 115.222 76.1435 114.768 76.2579Z" fill="rgb(255, 255, 255)" fill-opacity="0.8" />
    <path fill-rule="evenodd" clip-rule="evenodd" d="M123.835 31.08C123.485 30.7126 123.131 30.3577 122.783 30.0192C122.391 29.6381 122.006 29.2777 121.638 28.9438C120.764 28.15 121.333 26.4934 122.511 26.4046C123.006 26.3672 123.531 26.32 124.075 26.2605C124.558 26.2076 125.055 26.1449 125.557 26.0707C125.606 26.0635 125.655 26.0561 125.704 26.0487C127.7 25.7454 129.769 25.258 131.372 24.475C132.975 23.692 134.632 22.3597 136.098 20.972C136.134 20.9379 136.17 20.9037 136.205 20.8696C136.573 20.519 136.928 20.1656 137.266 19.8174C137.647 19.4253 138.008 19.0398 138.342 18.6721C139.135 17.7981 140.792 18.3675 140.881 19.5448C140.918 20.0401 140.965 20.5657 141.025 21.1093C141.078 21.592 141.141 22.0889 141.215 22.5912C141.222 22.6402 141.229 22.6892 141.237 22.7382C141.54 24.7341 142.027 26.8033 142.81 28.4063C143.593 30.0093 144.926 31.6658 146.313 33.132C146.348 33.168 146.382 33.2039 146.416 33.2397C146.766 33.6071 147.12 33.9619 147.468 34.3004C147.86 34.6816 148.246 35.0419 148.613 35.3759C149.487 36.1697 148.918 37.8262 147.741 37.915C147.245 37.9524 146.72 37.9996 146.176 38.0592C145.693 38.1121 145.197 38.1747 144.694 38.2489C144.645 38.2562 144.596 38.2635 144.547 38.271C142.551 38.5742 140.482 39.0617 138.879 39.8446C137.276 40.6276 135.62 41.9599 134.153 43.3477C134.117 43.3818 134.082 43.4159 134.046 43.45C133.678 43.8007 133.324 44.154 132.985 44.5022C132.604 44.8943 132.244 45.2799 131.91 45.6476C131.116 46.5215 129.459 45.9521 129.37 44.7749C129.333 44.2796 129.286 43.754 129.226 43.2104C129.173 42.7277 129.111 42.2308 129.037 41.7284C129.029 41.6795 129.022 41.6305 129.014 41.5815C128.711 39.5856 128.224 37.5164 127.441 35.9134C126.658 34.3104 125.326 32.6538 123.938 31.1877C123.904 31.1516 123.87 31.1157 123.835 31.08ZM129.585 30.2557C130.448 31.3635 131.237 32.5505 131.832 33.7685C132.427 34.9865 132.878 36.3387 133.222 37.7C134.329 36.8375 135.516 36.0482 136.734 35.4533C137.952 34.8584 139.305 34.4074 140.666 34.0639C139.803 32.9561 139.014 31.7691 138.419 30.5511C137.824 29.3332 137.373 27.9809 137.03 26.6196C135.922 27.4821 134.735 28.2714 133.517 28.8663C132.299 29.4612 130.947 29.9122 129.585 30.2557Z" fill="rgb(255, 255, 255)" fill-opacity="0.8" />
    <circle cx="81.7996" cy="76.25" r="2.75" fill="rgb(255, 255, 255)" fill-opacity="0.6" />
    <circle cx="82.1832" cy="5.31995" r="2.75" fill="rgb(255, 255, 255)" fill-opacity="0.6" />
    <path fill-rule="evenodd" clip-rule="evenodd" d="M105.174 11.7886C106.961 11.7886 108.409 10.3405 108.409 8.55426C108.409 6.768 106.961 5.31995 105.174 5.31995C103.388 5.31995 101.94 6.768 101.94 8.55426C101.94 10.3405 103.388 11.7886 105.174 11.7886ZM105.174 13.7886C108.065 13.7886 110.409 11.4451 110.409 8.55426C110.409 5.66343 108.065 3.31995 105.174 3.31995C102.284 3.31995 99.9401 5.66343 99.9401 8.55426C99.9401 11.4451 102.284 13.7886 105.174 13.7886Z" fill="rgb(255, 255, 255)" fill-opacity="0.6" />
    <path fill-rule="evenodd" clip-rule="evenodd" d="M33.61 42.4736C33.61 42.4736 38.5577 40.7522 41.0803 37.4452L42.8662 47.5872L44.3879 47.0069C44.1863 47.9054 43.5971 49.251 42.9961 50.6236C41.9875 52.927 40.9457 55.3063 41.6467 55.7759C42.7728 56.5301 47.5906 53.8844 48.8551 48.7492C48.8551 48.7492 47.2167 47.0201 45.9148 46.4247L47.5941 45.7844L48.977 38.1688L50.402 46.2603L59.6704 45.8045L54.8838 29.1989L50.0355 21.6968C50.0355 21.6968 38.9374 23.5049 37.7448 23.8614C36.5521 24.2179 29.8239 35.9577 29.8239 35.9577L33.61 42.4736ZM54.9091 49.3714C55.2234 54.6503 51.4061 58.6054 50.1072 58.2188C49.2987 57.9781 49.5884 55.3977 49.8689 52.8993C50.039 51.3838 50.2058 49.8985 50.122 48.9837C49.9007 46.5603 54.9091 49.3714 54.9091 49.3714Z" fill="rgb(255, 182, 133)" />
    <path fill-rule="evenodd" clip-rule="evenodd" d="M33.61 42.4736C33.61 42.4736 38.5577 40.7522 41.0803 37.4452L42.8662 47.5872L44.3879 47.0069C44.1863 47.9054 43.5971 49.251 42.9961 50.6236C41.9875 52.927 40.9457 55.3063 41.6467 55.7759C42.7728 56.5301 47.5906 53.8844 48.8551 48.7492C48.8551 48.7492 47.2167 47.0201 45.9148 46.4247L47.5941 45.7844L48.977 38.1688L50.402 46.2603L59.6704 45.8045L54.8838 29.1989L50.0355 21.6968C50.0355 21.6968 38.9374 23.5049 37.7448 23.8614C36.5521 24.2179 29.8239 35.9577 29.8239 35.9577L33.61 42.4736ZM54.9091 49.3714C55.2234 54.6503 51.4061 58.6054 50.1072 58.2188C49.2987 57.9781 49.5884 55.3977 49.8689 52.8993C50.039 51.3838 50.2058 49.8985 50.122 48.9837C49.9007 46.5603 54.9091 49.3714 54.9091 49.3714Z" fill="rgb(0, 0, 0)" fill-opacity="0.1" />
    <path d="M53.7492 20.6468L64.7995 26.0461C65.7453 26.5082 65.4331 27.9121 64.3805 27.9139C58.3976 27.9243 47.8716 27.8215 45.635 27C45.635 27 42.5424 33.9046 39.604 35.8585C39.604 35.8585 37.0512 43.6938 32.7955 45.0592C28.5392 46.4241 29.6939 27.4479 29.6939 27.4479L42.0332 18.1965L53.7492 20.6468Z" fill="rgb(255, 202, 162)" />
    <path d="M53.7492 20.6468L64.7995 26.0461C65.7453 26.5082 65.4331 27.9121 64.3805 27.9139C58.3976 27.9243 47.8716 27.8215 45.635 27C45.635 27 42.5424 33.9046 39.604 35.8585C39.604 35.8585 37.0512 43.6938 32.7955 45.0592C28.5392 46.4241 29.6939 27.4479 29.6939 27.4479L42.0332 18.1965L53.7492 20.6468Z" fill="rgb(0, 0, 0)" fill-opacity="0.08" />
    <path d="M130.102 65.9384L53.065 71.4455C52.1934 71.5078 51.426 70.7599 51.2955 69.7209L45.4863 23.4462C45.3358 22.2488 46.0848 21.1596 47.0905 21.1132L124.368 17.5261C125.228 17.486 125.975 18.2297 126.103 19.2528L131.671 63.608C131.819 64.7885 131.093 65.8677 130.102 65.9384Z" fill="rgb(7, 91, 186)" />
    <path opacity="0.4" d="M130.102 65.9384L53.065 71.4455C52.1934 71.5078 51.426 70.7599 51.2955 69.7209L45.4863 23.4462C45.3358 22.2488 46.0848 21.1596 47.0905 21.1132L124.368 17.5261C125.228 17.486 125.975 18.2297 126.103 19.2528L131.671 63.608C131.819 64.7885 131.093 65.8677 130.102 65.9384Z" fill="url(#paint0_linear_4973_1439)" />
    <path opacity="0.15" d="M81.7569 30.5928L53.5542 31.9988L52.689 25.1058L80.897 23.7404L81.7569 30.5928Z" fill="url(#paint1_linear_4973_1439)" />
    <path opacity="0.4" d="M99.94 38.4699L54.7876 41.045L53.9175 33.2613L99.1026 30.9775L99.94 38.4699Z" fill="url(#paint2_linear_4973_1439)" />
    <path opacity="0.15" d="M76.2636 55.5239L56.6176 56.2433L55.7524 49.3502L75.4036 48.6715L76.2636 55.5239Z" fill="url(#paint3_linear_4973_1439)" />
    <path opacity="0.4" d="M89.1535 62.9793L57.6441 64.7753L56.7939 57.6763L88.3355 56.1461L89.1535 62.9793Z" fill="url(#paint4_linear_4973_1439)" />
    <mask id="mask0_4973_1439" style="mask-type:alpha" maskUnits="userSpaceOnUse" x="99" y="37" width="38" height="36">
      <path d="M136.511 55.0283C137.581 64.5856 130.233 72.3966 120.099 72.4738C109.966 72.5514 100.883 64.8666 99.8138 55.3088C98.7442 45.751 106.091 37.9405 116.225 37.8634C126.359 37.7863 135.441 45.4711 136.511 55.0283Z" fill="rgb(255, 255, 255)" fill-opacity="0.2" />
    </mask>
    <g mask="url(#mask0_4973_1439)">
      <path d="M130.102 65.9384L53.065 71.4455C52.1934 71.5078 51.426 70.7599 51.2955 69.7209L45.4863 23.4462C45.3358 22.2488 46.0848 21.1596 47.0905 21.1132L124.368 17.5261C125.228 17.486 125.975 18.2297 126.103 19.2528L131.671 63.608C131.819 64.7885 131.093 65.8677 130.102 65.9384Z" fill="rgb(255, 255, 255)" />
    </g>
    <path d="M111.866 54.1107C110.889 54.1507 110.043 53.8462 109.332 53.1774C108.612 52.5135 108.174 51.5702 107.998 50.3573C107.882 49.5387 107.912 48.8249 108.124 48.2309C108.315 47.627 108.637 47.1728 109.091 46.8484C109.544 46.5139 110.083 46.3542 110.707 46.3293C111.327 46.3093 111.901 46.4391 112.435 46.7286C112.994 47.0131 113.452 47.4373 113.825 48.0113C114.192 48.5853 114.444 49.2741 114.565 50.0877C114.756 51.2906 114.595 52.254 114.087 52.9677C113.578 53.6815 112.828 54.0658 111.866 54.1107ZM117.949 46.2694L120.916 46.1595C120.916 46.1595 120.533 47.043 119.959 48.3657C119.667 49.0296 119.334 49.8032 118.972 50.6318C118.609 51.4653 118.216 52.3538 117.823 53.2422C117.436 54.1307 117.043 55.0242 116.665 55.8627C116.292 56.7012 115.945 57.4799 115.643 58.1537C115.043 59.5014 114.641 60.3948 114.641 60.3948L111.604 60.5595C111.604 60.5595 112.017 59.6611 112.621 58.3085C112.923 57.6346 113.276 56.851 113.653 56.0074C114.031 55.1639 114.429 54.2705 114.827 53.377C115.22 52.4836 115.618 51.5901 115.985 50.7566C116.353 49.923 116.69 49.1494 116.982 48.4805C117.561 47.1528 117.949 46.2694 117.949 46.2694ZM111.543 51.9495C111.765 51.9395 111.936 51.8047 112.037 51.5302C112.143 51.2457 112.153 50.7965 112.062 50.1826C111.971 49.5736 111.83 49.1394 111.639 48.8798C111.453 48.6003 111.251 48.4755 111.025 48.4855C110.803 48.4905 110.632 48.6352 110.531 48.9198C110.425 49.1893 110.42 49.6385 110.511 50.2474C110.602 50.8614 110.732 51.3056 110.919 51.5751C111.11 51.8347 111.322 51.9595 111.543 51.9495ZM122.059 60.1952C121.082 60.2501 120.221 59.9556 119.485 59.2967C118.755 58.6529 118.297 57.7245 118.105 56.5166C117.974 55.718 118.005 55.0192 118.196 54.4202C118.387 53.8212 118.705 53.372 119.158 53.0426C119.616 52.7132 120.16 52.5385 120.785 52.5135C121.409 52.4786 121.998 52.6133 122.547 52.8929C123.111 53.1724 123.575 53.5867 123.962 54.1507C124.35 54.7197 124.607 55.3985 124.748 56.1921C124.949 57.3851 124.803 58.3384 124.3 59.0472C123.796 59.7659 123.046 60.1503 122.059 60.1952ZM121.711 58.0689C121.943 58.0589 122.099 57.9191 122.205 57.6446C122.316 57.3651 122.316 56.9209 122.215 56.3169C122.109 55.713 121.963 55.2787 121.762 55.0242C121.575 54.7596 121.369 54.6298 121.137 54.6398C120.916 54.6498 120.749 54.7995 120.639 55.0791C120.543 55.3536 120.543 55.7928 120.644 56.3918C120.739 57.0007 120.885 57.435 121.072 57.6995C121.268 57.9641 121.485 58.0739 121.711 58.0689Z" fill="rgb(255, 255, 255)" fill-opacity="0.3" />
    <path opacity="0.15" fill-rule="evenodd" clip-rule="evenodd" d="M118.637 24.5056L123.828 24.4649L123.108 19.9213L117.917 20.191L118.637 24.5056ZM112.165 24.5056L117.356 24.4649L116.642 20.191L111.423 20.4382L112.165 24.5056ZM121.028 25.2247H118.795L119.137 27.048L121.261 26.9221L121.028 25.2247ZM119.296 27.8906L119.58 29.4044L121.589 29.3163L121.376 27.7637L119.296 27.8906ZM122.447 29.2787L124.704 29.1797L124.415 27.5783L122.232 27.7115L122.447 29.2787ZM124.265 26.744L122.117 26.8714L121.891 25.2247H123.991L124.265 26.744ZM113.153 30.1236L118.233 29.4986L117.519 25.2247H112.322L113.153 30.1236Z" fill="url(#paint5_linear_4973_1439)" />
    <g filter="url(#filter0_i_4973_1439)">
      <path d="M4.35815 53.2584C21.5699 40.5648 23.6876 30.637 26.3962 25.6625C26.558 25.3654 26.7956 25.1288 27.0861 24.9552C28.9819 23.8224 36.6134 19.1957 40.9976 15.5438C42.6626 14.1569 44.9634 13.4672 47.0287 14.1229C51.4304 15.5204 59.0399 17.8122 63.7726 18.5421C65.2327 18.7673 66.2165 20.3298 65.1064 21.3046C63.7489 22.4966 61.4964 23.5762 57.8914 23.2001C50.5763 22.4368 44.1032 22.9613 44.1032 22.9613C44.1032 22.9613 41.2757 29.4091 35.9493 31.7828C35.9493 31.7828 35.5669 38.8259 35.203 42.583C35.203 42.583 49.9831 44.6989 54.8996 44.654C59.8156 44.6091 62.5802 44.325 61.9331 47.3135C61.6838 48.4645 56.8867 51.2798 49.3488 51.5814C41.8108 51.883 39.3615 53.9536 39.3615 53.9536C39.3615 53.9536 36.5842 68.8066 10.8561 70.6701L4.35815 53.2584Z" fill="url(#paint6_linear_4973_1439)" />
      <path d="M4.35815 53.2584C21.5699 40.5648 23.6876 30.637 26.3962 25.6625C26.558 25.3654 26.7956 25.1288 27.0861 24.9552C28.9819 23.8224 36.6134 19.1957 40.9976 15.5438C42.6626 14.1569 44.9634 13.4672 47.0287 14.1229C51.4304 15.5204 59.0399 17.8122 63.7726 18.5421C65.2327 18.7673 66.2165 20.3298 65.1064 21.3046C63.7489 22.4966 61.4964 23.5762 57.8914 23.2001C50.5763 22.4368 44.1032 22.9613 44.1032 22.9613C44.1032 22.9613 41.2757 29.4091 35.9493 31.7828C35.9493 31.7828 35.5669 38.8259 35.203 42.583C35.203 42.583 49.9831 44.6989 54.8996 44.654C59.8156 44.6091 62.5802 44.325 61.9331 47.3135C61.6838 48.4645 56.8867 51.2798 49.3488 51.5814C41.8108 51.883 39.3615 53.9536 39.3615 53.9536C39.3615 53.9536 36.5842 68.8066 10.8561 70.6701L4.35815 53.2584Z" fill="rgb(0, 0, 0)" fill-opacity="0.05" />
    </g>
    <path d="M3.81574 50.1774L14.0776 73.8799L10.433 75.239L0.704102 53.0318L3.81574 50.1774Z" fill="rgb(7, 91, 186)" />
  </g>
</svg>