<svg width="24" height="24" viewBox="0 0 24 24" fill="none" xmlns="http://www.w3.org/2000/svg">
    <path d="M20 11V7H17V3H4.81996C3.20996 3.05 1.95996 4.39 1.99996 6V18C1.99996 19.66 3.33996 21 4.99996 21H20V17H18V19H4.99996C4.44996 19 3.99996 18.55 3.99996 18V8.86C4.25996 8.95 4.53996 9 4.81996 9H18V11H20ZM15 7H4.81996C4.31996 6.94 3.95996 6.5 3.99996 6C3.95996 5.5 4.31996 5.06 4.81996 5H15V7ZM21 12H12C11.45 12 11 12.45 11 13V15C11 15.55 11.45 16 12 16H21C21.55 16 22 15.55 22 15V13C22 12.45 21.55 12 21 12ZM14 15C13.45 15 13 14.55 13 14C13 13.45 13.45 13 14 13C14.55 13 15 13.45 15 14C15 14.55 14.55 15 14 15Z" fill="currentColor"/>
</svg>
