<svg width="24" height="24" viewBox="0 0 24 24" xmlns="http://www.w3.org/2000/svg">
    <path d="M20.18 11.1101C20.22 11.4101 20.23 11.7001 20.23 12.0001C20.27 16.4601 16.69 20.1001 12.23 20.1402C7.77 20.1802 4.13 16.6002 4.09 12.1402C4.05 7.68015 7.63 4.04015 12.09 4.00015C13.7 3.99015 15.28 4.46015 16.63 5.35015L17.76 3.68015C16.09 2.58015 14.13 2.00015 12.13 2.00015C6.57 1.97015 2.04 6.44015 2 12.0001C2 17.5901 6.54 22.1301 12.13 22.1301C17.72 22.1301 22.26 17.6001 22.26 12.0001C22.26 11.6301 22.24 11.2601 22.2 10.8902L20.18 11.1101ZM7.78 9.29015L6.35 10.7101L12.13 16.4101L23 5.71015L21.54 4.29015L12.13 13.5901L7.78 9.29015Z" fill="currentColor"/>
</svg>
