<svg width="12" height="12" viewBox="0 0 12 12" fill="none" xmlns="http://www.w3.org/2000/svg">
  <path fill-rule="evenodd" clip-rule="evenodd" d="M4 1C3.44771 1 3 1.44772 3 2V10C3 10.5523 3.44771 11 4 11H8C8.55229 11 9 10.5523 9 10V2C9 1.44772 8.55229 1 8 1H4ZM8 1.75H4C3.86192 1.75 3.75 1.86193 3.75 2V8.75C3.75 8.88807 3.86192 9 4 9H8C8.13808 9 8.25 8.88807 8.25 8.75V2C8.25 1.86193 8.13808 1.75 8 1.75ZM6 10.5C6.27614 10.5 6.5 10.2761 6.5 10C6.5 9.72386 6.27614 9.5 6 9.5C5.72386 9.5 5.5 9.72386 5.5 10C5.5 10.2761 5.72386 10.5 6 10.5Z" fill="currentColor"/>
</svg>