<svg width="18" height="18" viewBox="0 0 18 18" xmlns="http://www.w3.org/2000/svg">
    <path d="M14.1013 1.5H8.89982C8.26355 1.50046 7.65343 1.75246 7.20367 2.20059C6.7538 2.64874 6.50115 3.25634 6.50115 3.88986V6.47743H4.00058C3.3374 6.47743 2.70134 6.73973 2.23245 7.20661C1.76346 7.6735 1.5 8.30674 1.5 8.96701C1.5 9.6273 1.76346 10.2605 2.23245 10.7274C2.70134 11.1943 3.3374 11.4566 4.00058 11.4566H6.50115V13.9445C6.49229 14.2768 6.55043 14.6076 6.67211 14.9173C6.79368 15.2269 6.97641 15.5091 7.2094 15.7473C7.44238 15.9855 7.72097 16.1749 8.02862 16.3042C8.33639 16.4334 8.66695 16.5 9.00086 16.5C9.33488 16.5 9.66545 16.4334 9.97311 16.3042C10.2808 16.1749 10.5593 15.9855 10.7923 15.7473C11.0253 15.5091 11.208 15.2269 11.3297 14.9173C11.4513 14.6076 11.5094 14.2768 11.5006 13.9445V11.4566H14.1013C14.7377 11.4561 15.3478 11.2041 15.7976 10.756C16.2473 10.3079 16.5 9.70027 16.5 9.06674V3.88986C16.5 3.25634 16.2473 2.64874 15.7976 2.20059C15.3478 1.75246 14.7377 1.50046 14.1013 1.5Z" fill="currentColor"/>
</svg>
