<svg xmlns="http://www.w3.org/2000/svg" width="24" height="24" viewBox="0 0 24 24">
    <path fill="currentColor" d="M4.37,1.37A6.47,6.47,0,0,1,12,4,6.5,6.5,0,0,1,24,7.5c0,2.78-2.19,6-4.7,8.8l-1.42-1.42C20.13,12.37,22,9.62,22,7.5a4.5,4.5,0,0,0-8.31-2.39L12,7.8,10.31,5.11A4.48,4.48,0,0,0,6.5,3,4.41,4.41,0,0,0,6,3Zm12.15,15A52.89,52.89,0,0,1,12,20.45C8.73,17.83,2,11.52,2,7.5A4.5,4.5,0,0,1,4,3.79L2.53,2.36A6.48,6.48,0,0,0,0,7.5C0,14,11.94,23,12,23h0a53.67,53.67,0,0,0,5.93-5.2Zm6,6.15-21-21L.09,2.91l21,21Z"/>
</svg>