<svg width="180" height="80" viewBox="0 0 180 80" fill="none" xmlns="http://www.w3.org/2000/svg">
<path fill-rule="evenodd" clip-rule="evenodd" d="M12.5528 79.7327L2.69373 65.1054V79.7327H0.577393V61.7834H3.17665L13.0357 76.4911V61.7834H15.152V79.7327H12.5528ZM18.2595 73.035C18.2595 69.2841 20.5903 66.0689 25.2784 66.0689C29.9676 66.0689 32.2984 69.2841 32.2984 73.035C32.2984 76.7859 29.9676 80 25.2784 80C20.5903 80 18.2595 76.7859 18.2595 73.035ZM20.3494 73.035C20.3494 75.9015 22.0104 78.3127 25.2784 78.3127C28.5475 78.3127 30.2085 75.9015 30.2085 73.035C30.2085 70.2488 28.5475 67.7574 25.2784 67.7574C22.0104 67.7574 20.3494 70.2488 20.3494 73.035ZM37.4155 68.1588C37.4419 68.1588 37.4419 68.1864 37.4683 68.1864C39.2898 66.9797 41.0322 66.0689 43.2828 66.0689V67.9982C41.7285 67.9982 39.424 68.6945 37.4155 69.9276V79.7327H35.4047V66.3373H37.4155V68.1588ZM55.5529 77.1071V68.6417C54.1065 68.0785 52.7931 67.864 51.5611 67.864C48.8541 67.864 46.5771 69.7131 46.5771 73.1153C46.5771 76.5714 48.8541 78.3127 51.6139 78.3127C52.8459 78.3127 54.0526 77.9915 55.5529 77.1071ZM57.5615 61.7834V79.7327H55.5529V78.6614L55.4979 78.6338C54.1065 79.6524 52.605 80 51.1849 80C46.7916 80 44.5147 76.8662 44.5147 73.1153C44.5147 69.1774 46.9258 66.0689 51.2927 66.0689C52.7128 66.0689 54.1593 66.3912 55.4979 66.8994L55.5529 66.873V61.7834H57.5615ZM67.4205 79.8394H64.7949L59.7592 66.3373H62.0362L66.1083 77.8848L70.1264 66.3373H72.4034L76.503 77.8848L80.4948 66.3373H82.7717L77.8164 79.8394H75.1896L71.2253 69.3644L67.4205 79.8394ZM84.9684 79.7327H86.978V66.3373H84.9684V79.7327ZM92.6319 68.1325L92.6847 68.1588C94.6404 66.9533 96.4081 66.0689 98.6586 66.0689C102.061 66.0689 103.401 67.9443 103.401 70.9726V79.7327H101.392V71.1332C101.392 68.8023 100.266 67.864 97.9887 67.864C96.4081 67.864 94.6404 68.6945 92.6319 69.9001V79.7327H90.6211V66.3373H92.6319V68.1325ZM117.546 77.1071V68.6417C116.1 68.0785 114.786 67.864 113.554 67.864C110.849 67.864 108.572 69.7131 108.572 73.1153C108.572 76.5714 110.849 78.3127 113.608 78.3127C114.84 78.3127 116.047 77.9915 117.546 77.1071ZM119.556 61.7834V79.7327H117.546V78.6614L117.492 78.6338C116.1 79.6524 114.599 80 113.179 80C108.786 80 106.509 76.8662 106.509 73.1153C106.509 69.1774 108.92 66.0689 113.286 66.0689C114.707 66.0689 116.154 66.3912 117.492 66.8994L117.546 66.873V61.7834H119.556ZM84.973 64.3632H86.9826V61.7834H84.973V64.3632ZM150.753 71.194H152.187V69.7601H150.753V71.194ZM136.837 71.194H138.27V69.7601H136.837V71.194ZM131.562 69.7601L135.33 79.7327H133.675L132.76 77.1771H128.609L127.677 79.7327H126.023L129.805 69.7601H131.562ZM130.705 71.4739L129.066 75.921H132.331L130.705 71.4739ZM136.837 79.7327H138.27V72.3468H136.837V79.7327ZM142.111 73.3355C142.126 73.3355 142.126 73.3505 142.141 73.3505C143.071 72.7299 143.972 72.1988 145.214 72.1988V73.5432C144.37 73.5432 143.086 73.9561 142.111 74.5468V79.7327H140.692V72.3468H142.111V73.3355ZM146.897 79.7327H148.331V69.7601H146.897V79.7327ZM150.753 79.7327H152.187V72.3468H150.753V79.7327ZM156.042 73.3355L156.072 73.3505C157.032 72.715 157.962 72.1988 159.203 72.1988C161.08 72.1988 161.833 73.2323 161.833 74.9758V79.7327H160.4V75.094C160.4 73.8976 159.809 73.4537 158.746 73.4537C157.874 73.4537 156.957 73.9412 156.042 74.5468V79.7327H154.608V72.3468H156.042V73.3355ZM168.091 78.713C169.007 78.713 169.863 78.5512 170.912 78.1372L171.163 79.2601C170.44 79.5997 169.184 79.8807 167.884 79.8807C165.106 79.8807 163.806 78.1073 163.806 76.0392C163.806 73.4239 165.653 72.1988 167.839 72.1988C170.661 72.1988 171.799 73.6017 170.912 76.35H165.312C165.357 77.6347 166.45 78.713 168.091 78.713ZM165.401 75.1972H169.627C169.966 74.1477 169.464 73.3654 167.869 73.3654C166.776 73.3654 165.594 73.9412 165.401 75.1972ZM175.936 79.8807C175.152 79.8807 173.911 79.7625 173.054 79.4964L173.187 78.3287C174.014 78.5811 175.019 78.713 175.788 78.713C176.924 78.713 177.826 78.5363 177.841 77.7827C177.856 77.1036 177.147 76.8077 175.95 76.5714C173.66 76.1275 173.099 75.2706 173.099 74.3553C173.099 72.7448 174.546 72.1988 176.245 72.1988C177.029 72.1988 178.24 72.3009 179.067 72.567L178.919 73.7347C178.152 73.4984 177.162 73.3654 176.423 73.3654C175.315 73.3654 174.679 73.5867 174.679 74.1775C174.679 74.6661 174.901 74.9908 176.703 75.359C179.052 75.8476 179.421 76.8662 179.421 77.6198C179.421 79.3634 177.959 79.8807 175.936 79.8807Z" fill="black"/>
<path fill-rule="evenodd" clip-rule="evenodd" d="M135.004 48.7755H87.2694L60.7343 2.81604L34.2003 48.7755H0.577393L19.3515 16.2585C24.5351 7.27927 36.0172 0 44.9965 0H92.7306L119.266 45.9595L145.801 0H179.423L160.649 32.517C155.465 41.4962 143.983 48.7755 135.004 48.7755Z" fill="#CD202C"/>
</svg>
