<svg width="25" height="25" viewBox="0 0 25 25" fill="none" xmlns="http://www.w3.org/2000/svg">
    <path d="M15.6938 10.7452C15.7213 10.8281 15.7896 10.8912 15.8744 10.9118L17.4563 11.2967C17.6173 11.3359 17.7791 11.3996 17.937 11.4861C18.1089 11.5803 18.3198 11.4506 18.3114 11.2522L17.9509 2.75165C17.921 2.04984 17.3493 1.5 16.6492 1.5C15.9408 1.5 15.3689 2.05655 15.3472 2.76517L15.1082 9.11367C15.1062 9.165 15.1199 9.21573 15.1472 9.25913C15.2683 9.45114 15.3076 9.57314 15.4251 9.93748C15.4861 10.1267 15.5682 10.3814 15.6938 10.7452Z" fill="currentColor"/>
    <path d="M10.4739 15.1456C10.7208 15.9074 11.3453 16.3916 12.2011 16.1052C12.2101 16.1021 13.1074 15.7869 13.1151 15.1687C13.118 14.931 13.0311 14.4462 12.9542 14.2292C12.5011 12.7338 12.2431 11.8789 12.095 11.3882C11.9005 10.7435 11.8956 10.7274 11.8873 10.7135L11.8856 10.7106L11.8837 10.7073C11.6569 10.2818 11.1662 9.90132 10.4708 10.1107C9.77796 10.3193 9.34925 10.6676 9.50992 11.689C9.60615 12.3007 9.93042 13.4636 10.4739 15.1456Z" fill="currentColor"/>
    <path d="M13.3235 14.1221C13.5345 14.8198 14.2778 15.217 14.9818 14.9824C15.119 14.9342 15.2193 14.9018 15.2968 14.8768C15.4537 14.8261 15.5176 14.8054 15.6069 14.7445C15.7703 14.6333 15.7493 14.3838 15.5681 14.3024C15.2917 14.1781 15.0046 14.0226 14.7143 13.84C13.8571 13.3011 13.513 12.2326 13.8958 11.2996C14.0617 10.8955 14.4627 10.6495 14.8962 10.6869C15.0744 10.7043 15.2164 10.5284 15.1583 10.3534L14.955 9.74132C14.818 9.32901 14.5318 9.11514 14.3157 9.0082C13.2996 8.50553 11.872 9.32434 12.2587 10.6029L13.3235 14.1221Z" fill="currentColor"/>
    <path d="M9.39855 17.0694C9.40685 17.0665 10.2256 16.7677 10.2326 16.184C10.2327 16.1643 10.2357 15.6651 10.108 15.2635C9.68027 13.9403 9.39561 12.9657 9.23747 12.2837C9.18328 12.046 8.63229 11.1117 7.81519 11.3663C7.18215 11.5635 6.79082 11.8937 6.93832 12.8638C7.02696 13.447 7.326 14.5563 7.82714 16.1608C8.05133 16.8788 8.61831 17.3401 9.39855 17.0694Z" fill="currentColor"/>
    <path d="M18.3644 12.4043C18.1434 12.0392 17.7795 11.7722 17.3659 11.6716L14.9578 11.0858C14.6638 11.0137 14.3668 11.1653 14.2514 11.4464C13.94 12.2052 14.2206 13.0744 14.9186 13.5132C15.5007 13.8792 16.0376 14.1166 16.5144 14.2185C16.6931 14.2567 16.827 14.4119 16.8404 14.5958C16.8556 14.8087 16.9048 15.2271 17.0631 15.6378C17.152 15.8682 17.0189 16.1266 16.7784 16.1899C16.3104 16.3125 15.1485 16.671 14.4711 17.3507C14.396 17.4258 14.274 17.4259 14.1991 17.3508C14.1243 17.2756 14.1243 17.1531 14.1992 17.0778C14.8254 16.4496 15.7733 16.0789 16.4584 15.8785C16.593 15.8391 16.6714 15.6963 16.6294 15.5593C16.5732 15.3773 16.5288 15.1812 16.4973 14.9765C16.464 14.7605 16.1917 14.6845 16.0521 14.8529C15.9191 15.0137 15.7458 15.1333 15.551 15.1983L15.1033 15.3482C14.6789 15.49 14.2255 15.4593 13.8227 15.2592C13.7545 15.2256 13.6748 15.224 13.6056 15.2557C13.5364 15.2873 13.4851 15.3483 13.4655 15.4221C13.3132 15.9995 12.674 16.3536 12.3205 16.4719C11.8139 16.6413 11.3359 16.6044 10.9338 16.3611C10.7953 16.2775 10.6146 16.3439 10.5631 16.4978C10.3904 17.0126 9.82713 17.3291 9.5215 17.4348C8.78382 17.6906 8.14643 17.4545 7.72643 16.837C7.58683 16.631 7.26398 16.7307 7.26398 16.9801C7.26799 17.0172 7.26667 17.0732 7.26498 17.1452C7.25709 17.4807 7.24106 18.1625 7.71913 18.8823C7.81201 19.0482 7.92857 19.2141 8.05172 19.3893C8.43323 19.9322 8.87803 20.5651 8.87803 21.5669V23.1828C8.87803 23.3578 9.01965 23.5 9.19389 23.5H17.055C17.2292 23.5 17.3708 23.3578 17.3708 23.1828V21.9609C17.3708 21.5421 17.4932 21.1365 17.7247 20.7881C18.1402 20.1041 18.509 19.5773 18.8198 19.1334C19.5043 18.1556 19.9072 17.5801 19.9072 16.6125V15.7775C19.9073 14.8888 19.555 14.3366 19.0566 13.5557C18.8467 13.2266 18.6108 12.8569 18.3644 12.4043Z" fill="currentColor"/>
</svg>
