<svg width="68" height="74" viewBox="0 0 68 74" fill="none" xmlns="http://www.w3.org/2000/svg">
    <g>
        <g opacity="0.59">
            <g filter="url(#filter0_f_2541_6425)">
                <ellipse cx="34.0896" cy="56.6054" rx="24.586" ry="4.22736" transform="rotate(-18.5448 34.0896 56.6054)" fill="#7ACFFF"/>
            </g>
        </g>
        <path d="M47.3811 2.10313C49.7206 1.529 51.6132 3.10926 51.6095 5.63767L51.5272 48.632C51.5216 51.1585 49.6215 53.6701 47.282 54.2461L21.9866 62.2783C19.6471 62.8524 17.7545 61.2722 17.7582 58.7456L17.8405 14.7115C17.8443 12.1831 19.7462 9.67154 22.0857 9.09554L47.3811 2.10313Z" fill="#7ACFFF"/>
        <path d="M47.8393 2.01892C47.9197 2.00957 47.9982 2.00022 48.0768 1.99461C48.1161 1.99274 48.1572 1.99087 48.1965 1.989C48.2731 1.98713 48.3479 1.98713 48.4228 1.989C48.4583 1.989 48.4957 1.989 48.5312 1.99274C48.6229 1.99835 48.7145 2.0077 48.8043 2.02079C48.8192 2.02266 48.8361 2.02453 48.851 2.0264C48.9576 2.04323 49.0605 2.06567 49.1633 2.09185C49.1932 2.09933 49.2213 2.10869 49.2512 2.11804C49.3242 2.13861 49.3952 2.16105 49.4663 2.18723C49.5261 2.20967 49.586 2.23024 49.6439 2.25643L47.3923 1.269C47.3493 1.2503 47.3063 1.23346 47.2633 1.21663C47.2464 1.21102 47.2296 1.20728 47.2146 1.1998C47.1436 1.17362 47.0725 1.15118 46.9996 1.13061C46.9697 1.12126 46.9416 1.11191 46.9117 1.10443C46.8107 1.07824 46.706 1.0558 46.5994 1.03897C46.5975 1.03897 46.5956 1.03897 46.5938 1.03897C46.5807 1.0371 46.5657 1.0371 46.5526 1.03523C46.4629 1.02214 46.3731 1.01279 46.2815 1.00905C46.2459 1.00718 46.2085 1.00718 46.173 1.00531C46.0982 1.00344 46.0234 1.00344 45.9467 1.00531C45.9074 1.00531 45.8663 1.00905 45.827 1.01092C45.7485 1.01653 45.6699 1.02401 45.5895 1.03523C45.554 1.04084 45.5166 1.04271 45.481 1.04832C45.3651 1.06702 45.2491 1.08946 45.1313 1.11752L19.8341 8.10806C19.7032 8.13985 19.5741 8.181 19.4451 8.22401C19.4077 8.2371 19.3703 8.25019 19.3348 8.26515C19.2375 8.30069 19.1421 8.33996 19.0486 8.38297C19.015 8.39793 18.9813 8.41289 18.9476 8.42785C18.8298 8.48396 18.712 8.5438 18.5979 8.60926C18.5942 8.61113 18.5904 8.61487 18.5867 8.61674C18.5549 8.63544 18.5231 8.65601 18.4913 8.67658C18.3978 8.73269 18.3043 8.79066 18.2145 8.85424C18.1697 8.88604 18.1266 8.9197 18.0818 8.95149C18.0238 8.9945 17.9658 9.03378 17.9097 9.07866C17.891 9.09362 17.8723 9.11045 17.8536 9.12728C17.8237 9.15346 17.7919 9.17778 17.762 9.20396C17.6797 9.27315 17.6011 9.34609 17.5226 9.42089C17.4945 9.44707 17.4684 9.47139 17.4403 9.49944C17.4272 9.51253 17.4123 9.52562 17.3992 9.53871C17.3749 9.56302 17.3562 9.58921 17.3318 9.61352C17.2271 9.72198 17.1261 9.83419 17.0308 9.95014C17.0102 9.97445 16.9877 9.99689 16.9672 10.0212C16.9503 10.0418 16.9372 10.0642 16.9204 10.0848C16.8176 10.2157 16.7184 10.3503 16.6249 10.4906C16.6118 10.5093 16.5988 10.5261 16.5857 10.5448C16.5819 10.5505 16.5782 10.5579 16.5744 10.5635C16.5613 10.5841 16.5501 10.6028 16.537 10.6234C16.4716 10.7262 16.4117 10.8291 16.3519 10.9338C16.3313 10.9694 16.3126 11.0068 16.2921 11.0423C16.2752 11.0741 16.2565 11.1059 16.2397 11.1395C16.2098 11.1975 16.1855 11.2574 16.1574 11.3153C16.135 11.3621 16.1125 11.4088 16.0901 11.4575C16.0433 11.5641 16.0003 11.6744 15.9592 11.7829C15.9479 11.8128 15.9349 11.8408 15.9236 11.8708C15.9236 11.8764 15.9199 11.8801 15.918 11.8857C15.89 11.9661 15.8675 12.0503 15.8413 12.1307C15.8208 12.1943 15.7983 12.2598 15.7815 12.3233C15.7572 12.415 15.7385 12.5085 15.7179 12.6001C15.7048 12.6618 15.688 12.7217 15.6768 12.7834C15.6581 12.8862 15.6469 12.991 15.6338 13.0957C15.6282 13.1462 15.6169 13.1986 15.6132 13.249C15.5982 13.4061 15.5908 13.5614 15.5908 13.7185L15.5085 57.7525C15.5047 59.3795 16.2902 60.6138 17.474 61.1337L19.7256 62.1212C18.5418 61.6013 17.7582 60.367 17.7601 58.74L17.8424 14.7059C17.8424 14.5488 17.8499 14.3917 17.8648 14.2365C17.8704 14.1841 17.8798 14.1336 17.8854 14.0831C17.8985 13.9784 17.9097 13.8737 17.9284 13.7708C17.9396 13.7091 17.9565 13.6474 17.9696 13.5857C17.9901 13.494 18.007 13.4005 18.0331 13.3089C18.05 13.2434 18.0743 13.1799 18.093 13.1144C18.1192 13.0284 18.1435 12.9405 18.1753 12.8563C18.1865 12.8264 18.1996 12.7965 18.2108 12.7666C18.2519 12.6562 18.295 12.5478 18.3417 12.4412C18.3623 12.3925 18.3866 12.3458 18.409 12.299C18.4521 12.2074 18.4969 12.1158 18.5437 12.026C18.5624 11.9886 18.583 11.953 18.6035 11.9175C18.6615 11.8128 18.7232 11.7081 18.7887 11.6071C18.8018 11.5865 18.813 11.5659 18.8261 11.5472C18.8429 11.5229 18.8597 11.4986 18.8766 11.4743C18.9701 11.334 19.0692 11.1994 19.1721 11.0685C19.2076 11.0236 19.245 10.9787 19.2824 10.9338C19.3796 10.8179 19.4806 10.7057 19.5835 10.5972C19.6209 10.5598 19.6545 10.5205 19.6919 10.4831C19.7181 10.4569 19.7462 10.4308 19.7742 10.4046C19.8528 10.3298 19.9332 10.2587 20.0136 10.1876C20.0435 10.1615 20.0735 10.1353 20.1052 10.111C20.1801 10.0493 20.2567 9.99315 20.3353 9.93518C20.3802 9.90339 20.4232 9.86785 20.4681 9.83793C20.5578 9.77622 20.6513 9.71824 20.7448 9.66027C20.7766 9.64157 20.8065 9.61913 20.8402 9.60043C20.958 9.53123 21.0796 9.46952 21.2011 9.41154C21.2348 9.39471 21.2685 9.38162 21.3021 9.36666C21.3956 9.32365 21.491 9.28437 21.5883 9.24884C21.6257 9.23575 21.6631 9.22079 21.6986 9.2077C21.8276 9.16282 21.9567 9.12354 22.0876 9.09175L47.3811 2.10308C47.4989 2.07315 47.6167 2.05258 47.7308 2.03388C47.7682 2.02827 47.8037 2.02453 47.8393 2.02079V2.01892Z" fill="#1C77F6"/>
        <path d="M47.8393 2.01892C47.9197 2.00957 47.9982 2.00022 48.0768 1.99461C48.1161 1.99274 48.1572 1.99087 48.1965 1.989C48.2731 1.98713 48.3479 1.98713 48.4228 1.989C48.4583 1.989 48.4957 1.989 48.5312 1.99274C48.6229 1.99835 48.7145 2.0077 48.8043 2.02079C48.8192 2.02266 48.8361 2.02453 48.851 2.0264C48.9576 2.04323 49.0605 2.06567 49.1633 2.09185C49.1932 2.09933 49.2213 2.10869 49.2512 2.11804C49.3242 2.13861 49.3952 2.16105 49.4663 2.18723C49.5261 2.20967 49.586 2.23024 49.6439 2.25643L47.3923 1.269C47.3493 1.2503 47.3063 1.23346 47.2633 1.21663C47.2464 1.21102 47.2296 1.20728 47.2146 1.1998C47.1436 1.17362 47.0725 1.15118 46.9996 1.13061C46.9697 1.12126 46.9416 1.11191 46.9117 1.10443C46.8107 1.07824 46.706 1.0558 46.5994 1.03897C46.5975 1.03897 46.5956 1.03897 46.5938 1.03897C46.5807 1.0371 46.5657 1.0371 46.5526 1.03523C46.4629 1.02214 46.3731 1.01279 46.2815 1.00905C46.2459 1.00718 46.2085 1.00718 46.173 1.00531C46.0982 1.00344 46.0234 1.00344 45.9467 1.00531C45.9074 1.00531 45.8663 1.00905 45.827 1.01092C45.7485 1.01653 45.6699 1.02401 45.5895 1.03523C45.554 1.04084 45.5166 1.04271 45.481 1.04832C45.3651 1.06702 45.2491 1.08946 45.1313 1.11752L19.8341 8.10806C19.7032 8.13985 19.5741 8.181 19.4451 8.22401C19.4077 8.2371 19.3703 8.25019 19.3348 8.26515C19.2375 8.30069 19.1421 8.33996 19.0486 8.38297C19.015 8.39793 18.9813 8.41289 18.9476 8.42785C18.8298 8.48396 18.712 8.5438 18.5979 8.60926C18.5942 8.61113 18.5904 8.61487 18.5867 8.61674C18.5549 8.63544 18.5231 8.65601 18.4913 8.67658C18.3978 8.73269 18.3043 8.79066 18.2145 8.85424C18.1697 8.88604 18.1266 8.9197 18.0818 8.95149C18.0238 8.9945 17.9658 9.03378 17.9097 9.07866C17.891 9.09362 17.8723 9.11045 17.8536 9.12728C17.8237 9.15346 17.7919 9.17778 17.762 9.20396C17.6797 9.27315 17.6011 9.34609 17.5226 9.42089C17.4945 9.44707 17.4684 9.47139 17.4403 9.49944C17.4272 9.51253 17.4123 9.52562 17.3992 9.53871C17.3749 9.56302 17.3562 9.58921 17.3318 9.61352C17.2271 9.72198 17.1261 9.83419 17.0308 9.95014C17.0102 9.97445 16.9877 9.99689 16.9672 10.0212C16.9503 10.0418 16.9372 10.0642 16.9204 10.0848C16.8176 10.2157 16.7184 10.3503 16.6249 10.4906C16.6118 10.5093 16.5988 10.5261 16.5857 10.5448C16.5819 10.5505 16.5782 10.5579 16.5744 10.5635C16.5613 10.5841 16.5501 10.6028 16.537 10.6234C16.4716 10.7262 16.4117 10.8291 16.3519 10.9338C16.3313 10.9694 16.3126 11.0068 16.2921 11.0423C16.2752 11.0741 16.2565 11.1059 16.2397 11.1395C16.2098 11.1975 16.1855 11.2574 16.1574 11.3153C16.135 11.3621 16.1125 11.4088 16.0901 11.4575C16.0433 11.5641 16.0003 11.6744 15.9592 11.7829C15.9479 11.8128 15.9349 11.8408 15.9236 11.8708C15.9236 11.8764 15.9199 11.8801 15.918 11.8857C15.89 11.9661 15.8675 12.0503 15.8413 12.1307C15.8208 12.1943 15.7983 12.2598 15.7815 12.3233C15.7572 12.415 15.7385 12.5085 15.7179 12.6001C15.7048 12.6618 15.688 12.7217 15.6768 12.7834C15.6581 12.8862 15.6469 12.991 15.6338 13.0957C15.6282 13.1462 15.6169 13.1986 15.6132 13.249C15.5982 13.4061 15.5908 13.5614 15.5908 13.7185L15.5085 57.7525C15.5047 59.3795 16.2902 60.6138 17.474 61.1337L19.7256 62.1212C18.5418 61.6013 17.7582 60.367 17.7601 58.74L17.8424 14.7059C17.8424 14.5488 17.8499 14.3917 17.8648 14.2365C17.8704 14.1841 17.8798 14.1336 17.8854 14.0831C17.8985 13.9784 17.9097 13.8737 17.9284 13.7708C17.9396 13.7091 17.9565 13.6474 17.9696 13.5857C17.9901 13.494 18.007 13.4005 18.0331 13.3089C18.05 13.2434 18.0743 13.1799 18.093 13.1144C18.1192 13.0284 18.1435 12.9405 18.1753 12.8563C18.1865 12.8264 18.1996 12.7965 18.2108 12.7666C18.2519 12.6562 18.295 12.5478 18.3417 12.4412C18.3623 12.3925 18.3866 12.3458 18.409 12.299C18.4521 12.2074 18.4969 12.1158 18.5437 12.026C18.5624 11.9886 18.583 11.953 18.6035 11.9175C18.6615 11.8128 18.7232 11.7081 18.7887 11.6071C18.8018 11.5865 18.813 11.5659 18.8261 11.5472C18.8429 11.5229 18.8597 11.4986 18.8766 11.4743C18.9701 11.334 19.0692 11.1994 19.1721 11.0685C19.2076 11.0236 19.245 10.9787 19.2824 10.9338C19.3796 10.8179 19.4806 10.7057 19.5835 10.5972C19.6209 10.5598 19.6545 10.5205 19.6919 10.4831C19.7181 10.4569 19.7462 10.4308 19.7742 10.4046C19.8528 10.3298 19.9332 10.2587 20.0136 10.1876C20.0435 10.1615 20.0735 10.1353 20.1052 10.111C20.1801 10.0493 20.2567 9.99315 20.3353 9.93518C20.3802 9.90339 20.4232 9.86785 20.4681 9.83793C20.5578 9.77622 20.6513 9.71824 20.7448 9.66027C20.7766 9.64157 20.8065 9.61913 20.8402 9.60043C20.958 9.53123 21.0796 9.46952 21.2011 9.41154C21.2348 9.39471 21.2685 9.38162 21.3021 9.36666C21.3956 9.32365 21.491 9.28437 21.5883 9.24884C21.6257 9.23575 21.6631 9.22079 21.6986 9.2077C21.8276 9.16282 21.9567 9.12354 22.0876 9.09175L47.3811 2.10308C47.4989 2.07315 47.6167 2.05258 47.7308 2.03388C47.7682 2.02827 47.8037 2.02453 47.8393 2.02079V2.01892Z" fill="#34BAF4"/>
        <path d="M21.4349 56.139C21.1637 56.1671 20.9337 56.0997 20.7523 55.937C20.498 55.7089 20.3577 55.318 20.3577 54.8393L20.44 14.4426C20.4419 13.2064 21.3807 11.8917 22.4466 11.6299L47.742 4.63751C47.8075 4.62068 47.8711 4.60945 47.9328 4.60384C48.2039 4.57579 48.434 4.64312 48.6154 4.80582C48.8697 5.03397 49.01 5.42483 49.01 5.90545L48.9277 45.2623C48.9258 46.4966 47.987 47.8095 46.9192 48.0731L21.6238 56.1054C21.5583 56.1222 21.4948 56.1334 21.433 56.139H21.4349Z" fill="url(#paint0_linear_2541_6425)"/>
        <path d="M36.9177 52.6043C37.8098 52.3855 38.5335 52.9914 38.5316 53.9545C38.5316 54.9214 37.8042 55.8807 36.9102 56.0995C36.0144 56.3202 35.2926 55.7162 35.2944 54.7493C35.2944 53.7862 36.0219 52.8231 36.9177 52.6024V52.6043Z" fill="#30ADD8"/>
        <g opacity="0.32">
            <path d="M26.0223 18.6198V17.0021L44.1719 11.7246L44.1701 13.3423L26.0223 18.6198Z" fill="#30ADD8"/>
        </g>
        <g opacity="0.32">
            <path d="M26.0223 22.11V20.4924L44.1719 15.2148L44.1701 16.8325L26.0223 22.11Z" fill="#30ADD8"/>
        </g>
        <g opacity="0.32">
            <path d="M26.0223 25.5993V23.9816L44.1719 18.7041L44.1701 20.3218L26.0223 25.5993Z" fill="#30ADD8"/>
        </g>
        <g opacity="0.32">
            <path d="M26.0223 29.0894V27.4718L44.1719 22.1924L44.1701 23.8119L26.0223 29.0894Z" fill="#30ADD8"/>
        </g>
        <g opacity="0.32">
            <path d="M26.0223 32.5006V30.8829L35.2963 28.2441L35.2944 29.8618L26.0223 32.5006Z" fill="#30ADD8"/>
        </g>
        <g opacity="0.32">
            <path d="M26.0223 47.0422V35.713L35.2963 33.0742L35.2944 44.4035L26.0223 47.0422Z" fill="#7ACFFF"/>
        </g>
        <path opacity="0.59" d="M49.4513 2.18009C49.4046 2.16326 49.3559 2.1483 49.3073 2.13334C49.24 2.11277 49.1708 2.0922 49.0997 2.07724C49.0492 2.06602 48.9969 2.0548 48.9464 2.04544C48.8753 2.03235 48.8024 2.02113 48.7276 2.01365C48.6771 2.00804 48.6266 2.00243 48.5742 1.99869C48.4957 1.99308 48.4171 1.99121 48.3386 1.99121C48.2918 1.99121 48.2451 1.99121 48.1965 1.99121C48.189 1.99121 48.1834 1.99121 48.1759 1.99121C48.0917 1.99495 48.0076 2.00243 47.9216 2.01178C47.8935 2.01552 47.8673 2.01552 47.8393 2.01926C47.815 2.023 47.7906 2.02487 47.7663 2.02861C47.6392 2.04731 47.5101 2.06976 47.3792 2.10342L22.0857 9.09583C21.9548 9.12763 21.8239 9.16877 21.6967 9.21178C21.6593 9.22487 21.6219 9.23796 21.5864 9.25293C21.4891 9.28846 21.3938 9.32773 21.3003 9.37074C21.2666 9.3857 21.2329 9.40067 21.1993 9.41563C21.1488 9.43994 21.102 9.46799 21.0534 9.4923C20.9823 9.5297 20.9094 9.56337 20.8383 9.60451C20.8065 9.62321 20.7766 9.64378 20.7448 9.66435C20.6513 9.72046 20.5578 9.77843 20.468 9.84202C20.4232 9.87381 20.3801 9.90747 20.3371 9.93926C20.2679 9.98976 20.2006 10.0421 20.1333 10.0945C20.1239 10.102 20.1146 10.1076 20.1071 10.1151C20.0772 10.1394 20.0473 10.1655 20.0155 10.1917C19.9332 10.2609 19.8528 10.3339 19.7742 10.4087C19.7462 10.4348 19.72 10.4592 19.6919 10.4853C19.6545 10.5227 19.619 10.562 19.5835 10.5994C19.4787 10.7079 19.3778 10.8201 19.2824 10.936C19.245 10.9809 19.2076 11.0258 19.172 11.0707C19.0692 11.2016 18.9701 11.3381 18.8766 11.4765C18.8597 11.5008 18.8429 11.5233 18.8261 11.5494C18.813 11.57 18.8018 11.5887 18.7887 11.6093C18.7251 11.7121 18.6634 11.815 18.6035 11.9197C18.583 11.9553 18.5643 11.9927 18.5437 12.0282C18.4951 12.118 18.452 12.2096 18.409 12.3012C18.3866 12.348 18.3641 12.3947 18.3417 12.4434C18.295 12.55 18.2519 12.6603 18.2108 12.7688C18.1996 12.7987 18.1865 12.8267 18.1753 12.8567C18.1453 12.9427 18.121 13.0306 18.093 13.1166C18.0724 13.1802 18.05 13.2457 18.0331 13.3092C18.0107 13.3934 17.9939 13.4813 17.9752 13.5673C17.9752 13.5729 17.9714 13.5804 17.9714 13.586C17.9583 13.6477 17.9415 13.7076 17.9303 13.7712C17.9172 13.846 17.9078 13.9208 17.8985 13.9937C17.8947 14.0236 17.8891 14.0535 17.8854 14.0853C17.8798 14.1358 17.8686 14.1863 17.8648 14.2387C17.8499 14.3958 17.8424 14.551 17.8424 14.7081L17.7676 54.8972C20.6008 41.6193 44.7236 14.2088 51.6076 6.59734V5.63422C51.6132 3.91931 50.7417 2.64389 49.4513 2.17635V2.18009Z" fill="url(#paint1_linear_2541_6425)"/>
        <path d="M62.0376 10.3479L39.1744 41.8898L36.7425 40.1275L59.6057 8.58555C60.6526 8.84802 61.4641 9.43522 62.0376 10.3479Z" fill="url(#paint2_linear_2541_6425)"/>
        <path d="M36.7434 40.1257L35.2395 44.389C35.1651 44.6024 35.4121 44.7814 35.5918 44.6441L39.1753 41.888C38.6365 40.9477 37.8108 40.3782 36.7434 40.1257Z" fill="url(#paint3_linear_2541_6425)"/>
        <path d="M35.2395 44.3894L35.9268 42.4423C36.4429 42.5769 36.8723 42.901 37.2289 43.3857L35.5918 44.6445C35.4121 44.7818 35.1651 44.6028 35.2395 44.3894Z" fill="url(#paint4_linear_2541_6425)"/>
    </g>
    <defs>
        <filter id="filter0_f_2541_6425" x="6.74075" y="43.8164" width="54.6977" height="25.5771" filterUnits="userSpaceOnUse" color-interpolation-filters="sRGB">
            <feFlood flood-opacity="0" result="BackgroundImageFix"/>
            <feBlend mode="normal" in="SourceGraphic" in2="BackgroundImageFix" result="shape"/>
            <feGaussianBlur stdDeviation="2" result="effect1_foregroundBlur_2541_6425"/>
        </filter>
        <linearGradient id="paint0_linear_2541_6425" x1="30.0525" y1="12.1685" x2="43.1097" y2="63.4849" gradientUnits="userSpaceOnUse">
            <stop stop-color="white"/>
            <stop offset="1" stop-color="#D4D8FF"/>
        </linearGradient>
        <linearGradient id="paint1_linear_2541_6425" x1="46.4292" y1="-25.3781" x2="22.0015" y2="48.9408" gradientUnits="userSpaceOnUse">
            <stop stop-color="white"/>
            <stop offset="1" stop-color="white" stop-opacity="0"/>
        </linearGradient>
        <linearGradient id="paint2_linear_2541_6425" x1="50.7357" y1="25.9902" x2="48.3707" y2="24.2756" gradientUnits="userSpaceOnUse">
            <stop stop-color="#23458B"/>
            <stop offset="0.08" stop-color="#2252A3"/>
            <stop offset="0.18" stop-color="#2260BD"/>
            <stop offset="0.28" stop-color="#226AD0"/>
            <stop offset="0.39" stop-color="#2271DB"/>
            <stop offset="0.51" stop-color="#2273DF"/>
            <stop offset="0.61" stop-color="#2270D9"/>
            <stop offset="0.72" stop-color="#2267CA"/>
            <stop offset="0.85" stop-color="#2259B1"/>
            <stop offset="0.99" stop-color="#22468D"/>
            <stop offset="1" stop-color="#23458B"/>
        </linearGradient>
        <linearGradient id="paint3_linear_2541_6425" x1="35.5756" y1="41.8563" x2="38.0116" y2="43.5462" gradientUnits="userSpaceOnUse">
            <stop stop-color="#D4D8FF"/>
            <stop offset="0.53" stop-color="white"/>
            <stop offset="1" stop-color="#D4D8FF"/>
        </linearGradient>
        <linearGradient id="paint4_linear_2541_6425" x1="35.369" y1="43.2569" x2="36.6742" y2="44.1616" gradientUnits="userSpaceOnUse">
            <stop stop-color="#23458B"/>
            <stop offset="0.08" stop-color="#2252A3"/>
            <stop offset="0.18" stop-color="#2260BD"/>
            <stop offset="0.28" stop-color="#226AD0"/>
            <stop offset="0.39" stop-color="#2271DB"/>
            <stop offset="0.51" stop-color="#2273DF"/>
            <stop offset="0.61" stop-color="#2270D9"/>
            <stop offset="0.72" stop-color="#2267CA"/>
            <stop offset="0.85" stop-color="#2259B1"/>
            <stop offset="0.99" stop-color="#22468D"/>
            <stop offset="1" stop-color="#23458B"/>
        </linearGradient>
    </defs>
</svg>
