<svg width="24" height="24" viewBox="0 0 24 24" xmlns="http://www.w3.org/2000/svg">
  <path d="M5 6C5 5.44772 5.44772 5 6 5H10C10.5523 5 11 5.44772 11 6V7H20C20.5523 7 21 7.44772 21 8C21 8.55228 20.5523 9 20 9H11V10C11 10.5523 10.5523 11 10 11H6C5.44772 11 5 10.5523 5 10V9H4C3.44772 9 3 8.55228 3 8C3 7.44772 3.44772 7 4 7H5V6Z" fill="currentColor"/>
  <path d="M3 16C3 15.4477 3.44772 15 4 15H12V17H4C3.44772 17 3 16.5523 3 16Z" fill="currentColor"/>
  <path d="M19 17H20C20.5523 17 21 16.5523 21 16C21 15.4477 20.5523 15 20 15H19V14C19 13.4477 18.5523 13 18 13H14C13.4477 13 13 13.4477 13 14V18C13 18.5523 13.4477 19 14 19H18C18.5523 19 19 18.5523 19 18V17Z" fill="currentColor"/>
</svg>
