<svg width="15" height="12" viewBox="0 0 15 12" fill="none" xmlns="http://www.w3.org/2000/svg">
<path fill="currentColor" fill-rule="evenodd" clip-rule="evenodd" d="M9.25 9.75002H13.75V10.215C13.748 10.6878 13.5593 11.1407 13.225 11.475C12.8907 11.8094 12.4378 11.9981 11.965 12H2.035C1.5622 11.9981 1.10932 11.8094 0.774995 11.475C0.44067 11.1407 0.251974 10.6878 0.25 10.215V1.78502C0.251974 1.31222 0.44067 0.859346 0.774995 0.52502C1.10932 0.190695 1.5622 0.00199879 2.035 2.46415e-05H11.965C12.3929 -0.00545992 12.8086 0.142989 13.1362 0.418321C13.4639 0.693653 13.6817 1.07754 13.75 1.50002H1.75V2.25002H13.75V4.50002H9.25C8.85218 4.50002 8.47064 4.65806 8.18934 4.93936C7.90804 5.22067 7.75 5.6022 7.75 6.00002V8.25002C7.75 8.64785 7.90804 9.02938 8.18934 9.31068C8.47064 9.59199 8.85218 9.75002 9.25 9.75002ZM8.5 5.25002V9.00002H14.5V5.25002H8.5Z"/>
</svg>
