<svg width="128" height="128" viewBox="0 0 128 128" fill="none" xmlns="http://www.w3.org/2000/svg">
  <path
    d="M71.1164 72.6586C70.6386 73.586 70.6577 74.7581 71.3954 75.4958L71.4325 75.5329C72.2428 76.3432 73.5831 76.3138 74.1896 75.3414C75.3371 73.5015 76.0001 71.3282 76.0001 69C76.0001 62.3726 70.6275 57 64.0001 57C61.6719 57 59.4986 57.663 57.6587 58.8105C56.6863 59.4169 56.6568 60.7573 57.4672 61.5676L57.5042 61.6047C58.2419 62.3424 59.4141 62.3615 60.3415 61.8837C61.4379 61.3189 62.6818 61 64.0001 61C68.4184 61 72.0001 64.5817 72.0001 69C72.0001 70.3183 71.6812 71.5621 71.1164 72.6586Z"
    fill="currentColor" />
  <path fill-rule="evenodd" clip-rule="evenodd"
    d="M64 90C75.598 90 85 80.598 85 69C85 57.402 75.598 48 64 48C52.402 48 43 57.402 43 69C43 80.598 52.402 90 64 90ZM81 69C81 78.3888 73.3888 86 64 86C54.6112 86 47 78.3888 47 69C47 59.6112 54.6112 52 64 52C73.3888 52 81 59.6112 81 69Z"
    fill="currentColor" />
  <path fill-rule="evenodd" clip-rule="evenodd"
    d="M94.525 69C94.525 85.8336 80.8769 99.5 64.0499 99.5C47.223 99.5 33.5749 85.8336 33.5749 69C33.5749 52.1664 47.223 38.5 64.0499 38.5C80.8769 38.5 94.525 52.1664 94.525 69ZM64.0499 95.5C78.6642 95.5 90.525 83.628 90.525 69C90.525 54.372 78.6642 42.5 64.0499 42.5C49.4357 42.5 37.5749 54.372 37.5749 69C37.5749 83.628 49.4357 95.5 64.0499 95.5Z"
    fill="currentColor" />
  <path fill-rule="evenodd" clip-rule="evenodd"
    d="M21.7888 27C15.9643 27 11.0999 31.67 11.0999 37.5L11 101.4C11 107.23 15.7655 112 21.59 112H106.31C112.135 112 116.9 107.23 116.9 101.4L117 37.5C117 31.67 112.333 27 106.509 27H90.0254L80.0349 16H48.1649L38.0745 27H21.7888ZM15 101.4V101.401C15.0007 105.025 17.9786 108 21.59 108H106.31C109.922 108 112.9 105.024 112.9 101.4L113 37.5V37.4973C112.999 33.8746 110.12 31 106.509 31H88.2548L78.2643 20H49.9237L39.8332 31H21.7888C18.0788 31 15.0999 33.9727 15.0999 37.5L15 101.4Z"
    fill="currentColor" />
  <path
    d="M22 20C20.8954 20 20 20.8954 20 22C20 23.1046 20.8954 24 22 24H36C37.1046 24 38 23.1046 38 22C38 20.8954 37.1046 20 36 20H22Z"
    fill="currentColor" />
</svg>