<svg xmlns="http://www.w3.org/2000/svg" width="24" height="24" viewBox="0 0 24 24">
    <circle class="border" cx="12" cy="12" r="10"/>
    <path class="icon" fill="currentColor" fill-rule="evenodd"
          d="M12,15.2a1.4,1.4,0,1,0,1.4,1.4A1.4,1.4,0,0,0,12,15.2Zm4-6a2.46,2.46,0,0,1-.4,1.34,8.76,8.76,0,0,1-1.71,1.72,3.26,3.26,0,0,0-.84.9,2.26,2.26,0,0,0-.15.84H11s0-.1,0-.12a3.39,3.39,0,0,1,.31-1.55A4.73,4.73,0,0,1,12.52,11a9.3,9.3,0,0,0,1.12-1,1.33,1.33,0,0,0,.28-.82,1.39,1.39,0,0,0-.5-1.07,1.94,1.94,0,0,0-1.34-.44,2,2,0,0,0-1.36.46A2.47,2.47,0,0,0,10,9.51L8,9.26A3.25,3.25,0,0,1,9.16,7,4.11,4.11,0,0,1,12,6a4.26,4.26,0,0,1,2.93,1A2.91,2.91,0,0,1,16,9.2Z"/>
</svg>