<svg width="24" height="24" viewBox="0 0 24 24" fill="none" xmlns="http://www.w3.org/2000/svg">
    <path fill-rule="evenodd" clip-rule="evenodd" d="M19.9341 2.09293C19.6938 2.09293 19.1794 2.09293 18.9391 2.09293C18.6816 2.09293 18.4078 2.24351 18.4078 2.50097V7.00096C18.4078 8.32601 16.8062 7.85228 16.8062 10.0321C20.0164 12.096 21.2193 15.2348 21.2585 19.063C21.2585 19.6502 21.2585 20.1484 21.2585 21H21.5C21.7575 21 22 20.8262 22 20.5688V10.0321C22 7.84885 20.4078 8.35713 20.4078 7.03208V2.56322C20.4044 2.30233 20.1915 2.09293 19.9341 2.09293ZM19.5 20C19.7746 20 20 20.2336 20 20.5082C20 20.7829 19.7746 21 19.5 21H1.5C1.22538 21 1 20.7546 1 20.48C1 20.2054 1.22538 20 1.5 20H19.5ZM11.5045 9.31829V8.7107C11.5045 8.50473 11.4187 8.31936 11.2848 8.18205C11.1509 8.04817 10.9621 7.96235 10.7562 7.96235H10.406C10.2 7.96235 10.0147 8.04817 9.87737 8.18205C9.74349 8.31593 9.65766 8.50473 9.65766 8.7107V9.31829C9.95975 9.29426 10.2653 9.28397 10.5742 9.2874H10.5811C10.8935 9.28397 11.2024 9.29426 11.5045 9.31829ZM8.66218 9.44531V8.71413C8.66218 8.23354 8.85784 7.79758 9.17365 7.48177C9.48947 7.16595 9.92542 6.97029 10.406 6.97029H10.7562C11.2367 6.97029 11.6727 7.16595 11.9885 7.48177C12.3043 7.79758 12.5 8.23354 12.5 8.71413V9.44531C16.966 10.2348 20.1751 13.7908 20 18.48C19.9897 18.7374 19.7575 19 19.5 19C13.4995 19 7.57859 19 1.57812 19C1.32067 19 1.07176 18.7374 1.06146 18.48C0.889825 13.7874 4.19615 10.2348 8.66218 9.44531Z" fill="currentColor"/>
</svg>
