<svg width="12" height="16" viewBox="0 0 12 16" fill="none" xmlns="http://www.w3.org/2000/svg">
    <path d="M8.20501 13.125L6.00001 11.8275L3.79501 13.125L4.38001 10.62L2.43751 8.94L4.99501 8.7225L6.00001 6.375L7.00501 8.7225L9.56251 8.94L7.62001 10.62L8.20501 13.125ZM12 0H8.87292e-06V1.5L3.64501 4.23C2.37332 4.77269 1.32808 5.73793 0.686061 6.96248C0.0440449 8.18704 -0.155345 9.59575 0.121613 10.9504C0.398571 12.305 1.13488 13.5224 2.20601 14.3967C3.27714 15.271 4.61736 15.7485 6.00001 15.7485C7.38266 15.7485 8.72287 15.271 9.79401 14.3967C10.8651 13.5224 11.6014 12.305 11.8784 10.9504C12.1554 9.59575 11.956 8.18704 11.314 6.96248C10.6719 5.73793 9.6267 4.77269 8.35501 4.23L12 1.5V0ZM10.5 9.75C10.5004 10.6022 10.2588 11.437 9.80332 12.1573C9.34784 12.8775 8.69719 13.4537 7.92708 13.8186C7.15697 14.1836 6.29906 14.3223 5.45317 14.2188C4.60728 14.1152 3.80818 13.7736 3.14885 13.2336C2.48953 12.6937 1.99708 11.9776 1.7288 11.1687C1.46053 10.3599 1.42745 9.49142 1.63343 8.66448C1.8394 7.83754 2.27596 7.08609 2.8923 6.49756C3.50865 5.90902 4.27945 5.5076 5.11501 5.34C5.6989 5.21997 6.30111 5.21997 6.88501 5.34C7.9042 5.54443 8.82119 6.09541 9.48018 6.89933C10.1392 7.70324 10.4995 8.71051 10.5 9.75ZM6.47251 3.75H5.52751L2.52751 1.5H9.53251L6.47251 3.75Z" fill="currentColor"/>
</svg>
