<svg width="24" height="24" viewBox="0 0 24 24" fill="none" xmlns="http://www.w3.org/2000/svg">

<path d="M24 19.5001V21.9001H9.74998e-06V19.5001H24ZM12 6.70005C9.53532 6.70005 7.64912 7.34377 6.31993 8.4322C4.99885 9.514 4.11365 11.1281 3.81259 13.2951L3.81247 13.2958C3.68449 14.2135 3.233 15.0736 2.66239 15.8H21.3374C20.7665 15.0735 20.3146 14.2131 20.1873 13.2948V13.2947C19.8862 11.1278 19.0011 9.51392 17.6801 8.4322C16.3509 7.34377 14.4647 6.70005 12 6.70005ZM24.7 18.2H-0.699951V15.65L-0.219951 15.29C0.658572 14.6311 1.33447 13.6892 1.43556 12.9643C1.80559 10.3017 2.93631 8.10093 4.79931 6.57536C6.39117 5.27182 8.43321 4.53001 10.8 4.34575V3.70005H9.99997V1.30005H14V3.70005H13.2V4.34575C15.5668 4.53001 17.6087 5.27184 19.2006 6.57536C21.0637 8.10105 22.1946 10.302 22.5646 12.9649L22.5647 12.9652C22.665 13.6889 23.3408 14.6306 24.22 15.29L24.7 15.65V18.2Z" fill="currentColor"/>
</svg>
