<svg width="76" height="58" viewBox="0 0 76 58" fill="none" xmlns="http://www.w3.org/2000/svg">
    <path d="M75.5 47H0.5V39.5C0.5 35.36 3.86 32 8 32H68C72.14 32 75.5 35.36 75.5 39.5V47ZM3.5 44H72.5V39.5C72.5 37.01 70.49 35 68 35H8C5.51 35 3.5 37.01 3.5 39.5V44Z" fill="currentColor"/>
    <path d="M69.5 23H66.5V5C66.5 4.175 65.825 3.5 65 3.5H11C10.175 3.5 9.5 4.175 9.5 5V23H6.5V5C6.5 2.51 8.51 0.5 11 0.5H65C67.49 0.5 69.5 2.51 69.5 5V23Z" fill="currentColor"/>
    <path d="M32 23H17C14.51 23 12.5 20.99 12.5 18.5V15.5C12.5 13.01 14.51 11 17 11H32C34.49 11 36.5 13.01 36.5 15.5V18.5C36.5 20.99 34.49 23 32 23ZM17 14C16.175 14 15.5 14.675 15.5 15.5V18.5C15.5 19.325 16.175 20 17 20H32C32.825 20 33.5 19.325 33.5 18.5V15.5C33.5 14.675 32.825 14 32 14H17Z" fill="currentColor"/>
    <path d="M59 23H44C41.51 23 39.5 20.99 39.5 18.5V15.5C39.5 13.01 41.51 11 44 11H59C61.49 11 63.5 13.01 63.5 15.5V18.5C63.5 20.99 61.49 23 59 23ZM44 14C43.175 14 42.5 14.675 42.5 15.5V18.5C42.5 19.325 43.175 20 44 20H59C59.825 20 60.5 19.325 60.5 18.5V15.5C60.5 14.675 59.825 14 59 14H44Z" fill="currentColor"/>
    <path d="M69.5 29H6.5C5.675 29 5 28.325 5 27.5C5 26.675 5.675 26 6.5 26H69.5C70.325 26 71 26.675 71 27.5C71 28.325 70.325 29 69.5 29Z" fill="currentColor"/>
    <path d="M75.5 57.5H72.5V53H3.5V57.5H0.5V50H75.5V57.5Z" fill="currentColor"/>
</svg>
