<svg width="18" height="18" viewBox="0 0 18 18" fill="none" xmlns="http://www.w3.org/2000/svg">
<path d="M9.06587 1.5C10.1951 1.5 11.2177 1.6906 12.1336 2.07179C13.0496 2.45299 13.8275 2.98031 14.4674 3.65375C15.1198 4.32719 15.6217 5.12135 15.973 6.03621C16.3243 6.95108 16.5 7.93583 16.5 8.99047C16.5 10.0451 16.3243 11.0299 15.973 11.9447C15.6217 12.8596 15.1198 13.6537 14.4674 14.3272C13.8275 15.0006 13.0496 15.5343 12.1336 15.9282C11.2177 16.3094 10.1951 16.5 9.06587 16.5H1.5V8.99047C1.5 7.93583 1.67566 6.95108 2.02698 6.03621C2.39084 5.12135 2.899 4.32719 3.55144 3.65375C4.21644 2.98031 5.01317 2.45299 5.94166 2.07179C6.87014 1.6906 7.91154 1.5 9.06587 1.5ZM11.8701 10.0388C11.6819 10.3564 11.3808 10.6233 10.9668 10.8393C10.5652 11.0553 10.0445 11.1633 9.40464 11.1633C8.76474 11.1633 8.25659 10.9981 7.88018 10.6677C7.51631 10.3247 7.33438 9.79098 7.33438 9.06671C7.33438 8.34244 7.50376 7.81512 7.84253 7.48475C8.1813 7.15438 8.69573 6.9892 9.38582 6.9892C9.97553 6.9892 10.4586 7.11627 10.835 7.37039C11.224 7.61182 11.5439 7.92313 11.7949 8.30432V5.65502C11.5439 5.46442 11.2051 5.30559 10.7785 5.17853C10.3519 5.05146 9.8877 4.98158 9.38582 4.96887C8.05583 4.95616 6.98934 5.29924 6.18632 5.9981C5.39586 6.69695 5.00063 7.71982 5.00063 9.06671C5.00063 9.75286 5.10728 10.3564 5.32058 10.8774C5.53388 11.3983 5.83501 11.8304 6.22396 12.1734C6.61292 12.5165 7.07089 12.777 7.59787 12.9549C8.12484 13.1201 8.70201 13.2027 9.32936 13.2027C9.61794 13.2027 9.89398 13.1773 10.1575 13.1264C10.4335 13.0629 10.6844 12.9867 10.9103 12.8977C11.1361 12.7961 11.3306 12.6944 11.4937 12.5928C11.6694 12.4911 11.7949 12.3895 11.8701 12.2878V10.0388Z" fill="currentColor"/>
</svg>
