<svg width="29" height="28" viewBox="0 0 29 28" fill="none" xmlns="http://www.w3.org/2000/svg">
    <rect x="0.5" width="28" height="28" rx="14" fill="white"/>
    <path fill-rule="evenodd" clip-rule="evenodd" d="M26.3056 11.8506C26.4336 12.5599 26.4978 13.2791 26.4976 13.9998H26.5C26.5 16.7213 25.575 19.362 23.8766 21.4885C22.1783 23.6151 19.8076 25.1012 17.1535 25.7029C14.4993 26.3047 11.7195 25.9864 9.27006 24.8003C6.82064 23.6142 4.84714 21.6308 3.67341 19.1754C2.49968 16.72 2.19543 13.9386 2.81059 11.2875C3.42575 8.63649 4.92377 6.27327 7.05885 4.58569C9.19393 2.8981 11.8392 1.98639 14.5607 2.00015C17.2821 2.01392 19.9181 2.95234 22.036 4.66144L19.702 6.38224C17.9981 5.21568 15.9526 4.65348 13.8919 4.78536C11.8311 4.91724 9.87397 5.73561 8.33272 7.10985C6.79146 8.48409 5.75495 10.335 5.3886 12.3672C5.02225 14.3994 5.34717 16.4957 6.31153 18.3217C7.27588 20.1476 8.82407 21.5979 10.709 22.4411C12.594 23.2843 14.7071 23.4717 16.711 22.9736C18.715 22.4755 20.4943 21.3204 21.7651 19.6928C23.0359 18.0652 23.7248 16.0588 23.722 13.9938V13.7538L26.3056 11.8506ZM25.4332 9.04866C25.0469 8.20053 24.5637 7.39999 23.9932 6.66306L14.4976 13.6615L9.92921 10.7983V14.2435L14.4976 17.1079L25.4332 9.04866Z" fill="#21A049"/>
</svg>
