<svg width="128" height="124" viewBox="0 0 128 124" fill="none" xmlns="http://www.w3.org/2000/svg">
    <g fill="currentColor">
        <path fill-rule="evenodd" clip-rule="evenodd" d="M76.0048 0C71.0579 0 67.0531 4.02116 67.0531 8.97622C67.0531 10.2591 67.3235 11.4751 67.8076 12.5738C47.3669 16.5694 32 35.1937 32 57.4574C32 58.6915 32.0441 59.9099 32.1355 61.1266C32.2139 62.1703 33.0836 62.977 34.1301 62.9769C36.6909 62.9765 39.1643 62.9765 41.588 62.9765H41.6697C42.7268 62.9765 43.6014 62.1538 43.6659 61.0986C44.2785 51.0805 45.9522 43.3988 49.6832 37.4004C51.3224 34.7649 53.3882 32.4086 56.0071 30.3064C54.0772 32.6427 52.5006 35.0303 51.2097 37.6016C48.0667 43.862 46.7128 51.0264 45.8151 60.7976C45.7637 61.3574 45.9502 61.9131 46.3291 62.3284C46.708 62.7438 47.2442 62.9805 47.8064 62.9806C58.2148 62.9823 67.6255 62.986 77.0413 62.9898L77.0651 62.9898C89.8212 62.9949 102.588 63 117.86 63C118.906 63 119.775 62.1947 119.855 61.1521C119.947 59.9386 120 58.7034 120 57.4574C120 35.1927 104.628 16.5682 84.1848 12.5734C84.669 11.4756 84.9407 10.2606 84.9413 8.9802L82.9413 8.97622H84.9413V8.97821C84.9501 4.02233 80.9485 0 76.0048 0ZM71.0531 8.97622C71.0531 6.21919 73.2781 4 76.0048 4C78.7262 4 80.9467 6.21694 80.9413 8.97224L80.9413 8.97622C80.9413 10.0911 80.5692 11.1217 79.939 11.9561C76.8826 11.6935 74.9297 11.6734 72.0447 11.9448C71.4201 11.1145 71.0531 10.0906 71.0531 8.97622ZM71.7823 15.9894C71.6893 16.0143 71.5937 16.0327 71.4962 16.0441C51.5826 18.3706 36 35.9667 36 57.4574C36 57.9674 36.0082 58.4734 36.0247 58.9767L39.8024 58.9765C40.5239 49.56 42.2958 41.7038 46.2866 35.2877C50.5775 28.3892 57.2808 23.3927 67.3589 19.7857C68.2798 19.4561 69.3039 19.8409 69.78 20.6954C70.256 21.5498 70.0442 22.6232 69.2793 23.2328C61.9265 29.0927 57.5682 33.8513 54.7845 39.3962C52.2044 44.5356 50.8951 50.5091 50.0118 58.9809C59.556 58.9828 68.2988 58.9863 77.0458 58.9898H77.05C89.2814 58.9947 101.521 58.9996 115.971 59C115.99 58.4864 116 57.972 116 57.4574C116 35.967 100.413 18.3707 80.4978 16.0441C80.4058 16.0334 80.3156 16.0164 80.2275 15.9936C80.1853 15.9924 80.1428 15.9899 80.1001 15.986C76.73 15.6797 74.9485 15.6638 71.8457 15.9838C71.8245 15.986 71.8034 15.9879 71.7823 15.9894Z"/>
        <path fill-rule="evenodd" clip-rule="evenodd" d="M30 67C26.6863 67 24 69.6863 24 73V74C24 77.3137 26.6863 80 30 80H122C125.314 80 128 77.3137 128 74V73C128 69.6863 125.314 67 122 67H30ZM28 73C28 71.8954 28.8954 71 30 71H122C123.105 71 124 71.8954 124 73V74C124 75.1046 123.105 76 122 76H30C28.8954 76 28 75.1046 28 74V73Z"/>
        <path fill-rule="evenodd" clip-rule="evenodd" d="M11.1206 104.76C8.34487 104.76 6.09473 107.01 6.09473 109.786C6.09473 112.561 8.34487 114.811 11.1206 114.811C13.8963 114.811 16.1464 112.561 16.1464 109.786C16.1464 107.01 13.8963 104.76 11.1206 104.76ZM10.0947 109.786C10.0947 109.219 10.554 108.76 11.1206 108.76C11.6871 108.76 12.1464 109.219 12.1464 109.786C12.1464 110.352 11.6871 110.811 11.1206 110.811C10.554 110.811 10.0947 110.352 10.0947 109.786Z"/>
        <path fill-rule="evenodd" clip-rule="evenodd" d="M52.3518 83.1835C58.2447 82.9534 64.5514 82.7192 65.8884 82.7192C68.4156 82.7192 70.151 84.8866 70.4947 86.9374C70.6826 88.0591 70.5098 89.3016 69.8037 90.4211C69.0976 91.5407 67.9601 92.3786 66.4923 92.8921C65.2515 93.3261 59.8627 94.7488 55.1763 95.9638L73.3917 97.2693L73.4429 97.2364C73.8363 96.984 74.4034 96.6211 75.0997 96.178C76.4918 95.292 78.4019 94.0843 80.4723 92.7987C84.5734 90.252 89.4264 87.3218 92.0789 86.0332L92.0806 86.0324C93.7003 85.2474 95.2978 85.0452 96.7407 85.4563C98.1752 85.865 99.2293 86.8165 99.8736 87.9119C101.035 89.8864 101.174 93.1757 98.6637 94.848C98.4011 95.0229 97.9348 95.3376 97.3054 95.7625L97.2879 95.7743L97.2863 95.7754L97.2851 95.7762C94.8203 97.44 89.8887 100.769 84.8956 104.005C81.7492 106.045 78.5527 108.065 75.9064 109.624C74.5851 110.403 73.3795 111.079 72.3745 111.589C71.4414 112.063 70.4742 112.503 69.7168 112.654L69.7128 112.654C69.0395 112.786 68.0376 112.816 66.9728 112.81C65.8482 112.805 64.463 112.757 62.9193 112.68C59.8293 112.528 56.0313 112.258 52.269 111.968C50.0703 111.798 47.8739 111.621 45.8324 111.455L44.9692 111.385L44.9674 111.385L44.3346 111.333C43.4335 111.26 42.5735 111.19 41.7694 111.126C38.7213 110.882 36.5863 110.725 35.9221 110.725C34.5879 110.725 33.1412 110.949 31.9883 111.188C31.4209 111.306 30.9433 111.424 30.6105 111.511C30.4444 111.555 30.3153 111.59 30.23 111.615C30.1874 111.627 30.1558 111.636 30.1362 111.642L30.1157 111.648L30.1138 111.648C29.5703 111.813 28.982 111.738 28.4965 111.444C28.0109 111.149 27.6735 110.662 27.5686 110.103L24.05 91.3735C23.8687 90.4087 24.4145 89.4551 25.3381 89.1225L40.2228 83.7631L41.7867 83.6067C42.4049 83.5814 43.2909 83.5452 44.3621 83.5018C46.5044 83.415 49.3878 83.2993 52.3518 83.1835ZM31.1092 107.285L28.2957 92.309L40.5 87.9147L41.9504 87.6034C42.5681 87.5781 43.4535 87.5419 44.524 87.4986C46.6651 87.4118 49.5465 87.2962 52.5079 87.1805C58.4661 86.9478 64.6535 86.7192 65.8884 86.7192C65.9035 86.7192 66.0204 86.7274 66.1922 86.8979C66.3653 87.0698 66.5041 87.3267 66.5497 87.5985C66.5918 87.8501 66.5512 88.0799 66.4204 88.2873C66.2896 88.4946 65.9669 88.8382 65.1715 89.1164C63.3537 89.7523 50.4462 93.0559 47.3269 93.851C46.0464 94.1774 45.1897 95.3266 45.1897 96.6083C45.1897 98.1015 46.3436 99.341 47.833 99.4477L73.7702 101.307C74.2027 101.338 74.6336 101.227 74.9979 100.992L75.1537 100.892C75.2563 100.826 75.4079 100.728 75.6028 100.603C75.9926 100.353 76.5556 99.9927 77.2474 99.5525C78.6311 98.6719 80.5281 97.4725 82.5824 96.1968C86.2995 93.8886 90.4331 91.3928 93 90.0498C93.0815 90.0071 93.1648 89.9625 93.2497 89.917C93.9804 89.5252 94.8284 89.0706 95.6447 89.3032C95.9608 89.3932 96.2299 89.6068 96.4259 89.94C96.6322 90.2906 96.7106 90.7015 96.6722 91.0329C96.6353 91.3515 96.5156 91.4726 96.4459 91.5191C96.1639 91.707 95.6718 92.0391 95.0124 92.4842C92.5284 94.1609 87.6698 97.4403 82.7198 100.649C79.5898 102.678 76.4489 104.662 73.8757 106.178C72.5872 106.937 71.4625 107.567 70.564 108.023C70.1146 108.251 69.7402 108.426 69.4423 108.55C69.2941 108.612 69.1752 108.656 69.0832 108.687C69.0378 108.703 69.0027 108.713 68.9769 108.72C68.9547 108.726 68.9428 108.729 68.94 108.73C68.7087 108.774 68.0868 108.816 66.9928 108.81C65.9531 108.805 64.6342 108.76 63.1166 108.685C60.0842 108.535 56.3315 108.269 52.5767 107.98C50.0708 107.786 47.577 107.584 45.3024 107.399L45.2999 107.398L45.2955 107.398C44.1636 107.306 43.0861 107.218 42.0884 107.139C39.1489 106.903 36.7921 106.725 35.9221 106.725C34.1996 106.725 32.4524 107.007 31.1754 107.272L31.1092 107.285Z"/>
        <path d="M18.2518 85.0404C18.6869 85.347 18.9818 85.8144 19.0713 86.339L24.3292 117.165C24.511 118.231 23.8127 119.248 22.7526 119.461L0.395019 123.965L-0.394775 120.043L20.0598 115.924L15.4663 88.9934L0.346661 91.6534L-0.346417 87.7139L16.7533 84.7055C17.2775 84.6133 17.8168 84.7338 18.2518 85.0404Z"/>
    </g>
</svg>
