<svg width="128" height="124" viewBox="0 0 128 124" xmlns="http://www.w3.org/2000/svg">
    <g fill="none">
        <path d="M122 116.667V118H42V116.667H45.25C49.2836 116.667 52.5 113.354 52.5 109.333C52.5 107.492 53.9924 106 55.8333 106H108.167C110.008 106 111.5 107.492 111.5 109.333C111.5 113.354 114.716 116.667 118.75 116.667H122Z" stroke="currentColor" stroke-width="4"/>
        <path d="M78 97H86V106H78V97Z" stroke="currentColor" stroke-width="4"/>
        <path d="M116 96.8693V97H48V96.8869C48.2064 96.8478 48.421 96.7982 48.6402 96.7356C50.2169 96.2854 52.125 95.1017 52.7199 92.4356C55.7127 79.0237 67.6881 69 82 69C96.3119 69 108.287 79.0237 111.28 92.4356C111.871 95.082 113.788 96.2564 115.344 96.7104C115.569 96.7761 115.789 96.8281 116 96.8693Z" stroke="currentColor" stroke-width="4"/>
        <path d="M74.2504 63C74.6089 61.6043 75.3384 60.3627 76.3447 59.3838L76.3645 59.3645L76.3838 59.3447C77.8101 57.8784 79.7943 57 82 57C84.2057 57 86.1899 57.8784 87.6162 59.3447L87.6355 59.3645L87.6553 59.3838C88.6616 60.3627 89.3911 61.6043 89.7496 63H84.5H82.5V65V68.005C82.3341 68.0018 82.1673 68 82 68C81.8327 68 81.6659 68.0018 81.5 68.005V65V63H79.5H74.2504Z" stroke="currentColor" stroke-width="4"/>
        <path d="M59 112H81" stroke="currentColor" stroke-width="4" stroke-linecap="round" stroke-linejoin="round"/>
        <path d="M60.0001 91C63.5001 81.5 71.5001 76 82.0001 75" stroke="currentColor" stroke-width="4" stroke-linecap="round" stroke-linejoin="round"/>
        <path d="M71.3562 18.9712L26.9999 10.8792L26.9999 23C26.9999 33.954 40.6603 37.1569 40.6603 37.1569L57.3964 50.1497C59.374 51.685 62.167 51.5842 64.0288 49.9105C66.1041 48.0449 66.3262 44.8697 64.5307 42.7333L57.1521 33.954L71.7456 33.5646L97.8804 43.4458C100.058 44.269 102.512 43.4035 103.691 41.3964C105.078 39.035 104.201 35.9932 101.769 34.733L71.3562 18.9712Z" stroke="currentColor" stroke-width="4" stroke-linejoin="round"/>
        <path d="M70.9603 33.7171L78.3945 48.1512C79.3817 50.0679 81.6335 50.96 83.6656 50.2396V50.2396C85.9147 49.4422 87.0876 46.9688 86.2818 44.7227L84.1891 38.89" stroke="currentColor" stroke-width="4" stroke-linejoin="round"/>
        <path fill-rule="evenodd" clip-rule="evenodd" d="M4 43H19C20.1046 43 21 42.1046 21 41V10C21 8.89543 20.1046 8 19 8H4V12H17V39H4V43Z" fill="currentColor"/>
    </g>
</svg>
