<svg id="star_border" xmlns="http://www.w3.org/2000/svg" width="30" height="30"viewBox="0 0 30 30">
    <path class="border" d="M15.94.61l3.82,8.12a1,1,0,0,0,.79.6l8.55,1.3a1.11,1.11,0,0,1,.58,1.87l-6.19,6.32a1.18,1.18,0,0,0-.3,1l1.46,8.92a1.05,1.05,0,0,1-1.51,1.16l-7.65-4.21a1,1,0,0,0-1,0L6.86,29.87a1.05,1.05,0,0,1-1.51-1.16l1.46-8.92a1.18,1.18,0,0,0-.3-1L.32,12.5A1.11,1.11,0,0,1,.9,10.63l8.55-1.3a1.05,1.05,0,0,0,.79-.6L14.06.61A1,1,0,0,1,15.94.61Z"/>
    <path class="icon" fill="currentColor" d="M8.78,20.11a3.13,3.13,0,0,0-.85-2.69L3,12.34l6.79-1a3.07,3.07,0,0,0,2.3-1.72L15,3.32,18,9.58a3.06,3.06,0,0,0,2.3,1.73l6.79,1-5,5.08a3.13,3.13,0,0,0-.85,2.7l1.15,7.05L16.45,23.9A3.06,3.06,0,0,0,15,23.53a2.93,2.93,0,0,0-1.45.38L7.63,27.17Z"/>
</svg>