<svg width="28" height="28" viewBox="0 0 28 28" fill="none" xmlns="http://www.w3.org/2000/svg">
<circle cx="14" cy="14" r="14" fill="white"/>
<rect x="2" y="2" width="24" height="24" rx="12" fill="#303030"/>
<path d="M6.97461 8H21.0262V15.0408C21.0262 16.846 20.0588 18.5143 18.4909 19.4169L14.0004 22L9.50987 19.4169C7.93994 18.5143 6.97461 16.846 6.97461 15.0408V8Z" fill="#FFDD2D"/>
<path fill-rule="evenodd" clip-rule="evenodd" d="M10.8302 11.7109V13.9C11.1315 13.561 11.6766 13.3323 12.3017 13.3323H12.9801V15.8787C12.9801 16.5566 12.7957 17.1488 12.521 17.4755H15.4744C15.2018 17.1488 15.0174 16.5566 15.0174 15.8807V13.3343H15.6957C16.3209 13.3343 16.8681 13.563 17.1673 13.902V11.713H10.8281L10.8302 11.7109Z" fill="#333333"/>
</svg>
