<svg width="24" height="24" viewBox="0 0 24 24" fill="none" xmlns="http://www.w3.org/2000/svg">
<path fill-rule="evenodd" clip-rule="evenodd" d="M23 7V5.88889C23 4.85749 22.5786 3.86834 21.8284 3.13903C21.0783 2.40972 20.0609 2 19 2C17.9391 2 16.9217 2.40972 16.1716 3.13903C15.4214 3.86834 15 4.85749 15 5.88889V10H7C6.46957 10 5.96086 10.2107 5.58579 10.5858C5.21071 10.9609 5 11.4696 5 12V20C5 20.5304 5.21071 21.0391 5.58579 21.4142C5.96086 21.7893 6.46957 22 7 22H17C17.5304 22 18.0391 21.7893 18.4142 21.4142C18.7893 21.0391 19 20.5304 19 20V12C19 11.4696 18.7893 10.9609 18.4142 10.5858C18.0391 10.2107 17.5304 10 17 10H16.992V5.88889C16.992 5.37319 17.2027 4.87861 17.5778 4.51396C17.9529 4.14931 18.4616 3.94444 18.992 3.94444C19.5224 3.94444 20.0311 4.14931 20.4062 4.51396C20.7813 4.87861 20.992 5.37319 20.992 5.88889V7H23ZM11.16 16.81L10.5 19H13.5L12.84 16.81C13.2536 16.6186 13.5894 16.2917 13.7918 15.8834C13.9943 15.4751 14.0512 15.0099 13.9532 14.5649C13.8552 14.1198 13.6082 13.7216 13.253 13.4361C12.8978 13.1506 12.4557 12.995 12 12.995C11.5443 12.995 11.1022 13.1506 10.747 13.4361C10.3918 13.7216 10.1448 14.1198 10.0468 14.5649C9.94879 15.0099 10.0057 15.4751 10.2082 15.8834C10.4106 16.2917 10.7464 16.6186 11.16 16.81Z" fill="currentColor"/>
</svg>
