<svg width="14" height="15" viewBox="0 0 14 15" fill="none" xmlns="http://www.w3.org/2000/svg">
<path fill-rule="evenodd" d="M13.5 3.75V2.91667C13.5 2.14312 13.1839 1.40125 12.6213 0.854272C12.0587 0.307291 11.2956 0 10.5 0C9.70435 0 8.94129 0.307291 8.37868 0.854272C7.81607 1.40125 7.5 2.14312 7.5 2.91667V6H1.5C1.10218 6 0.720644 6.15804 0.43934 6.43934C0.158035 6.72064 0 7.10218 0 7.5V13.5C0 13.8978 0.158035 14.2794 0.43934 14.5607C0.720644 14.842 1.10218 15 1.5 15H9C9.39783 15 9.77936 14.842 10.0607 14.5607C10.342 14.2794 10.5 13.8978 10.5 13.5V7.5C10.5 7.10218 10.342 6.72064 10.0607 6.43934C9.77936 6.15804 9.39783 6 9 6H8.994V2.91667C8.994 2.52989 9.15203 2.15896 9.43334 1.88547C9.71464 1.61198 10.0962 1.45833 10.494 1.45833C10.8918 1.45833 11.2734 1.61198 11.5547 1.88547C11.836 2.15896 11.994 2.52989 11.994 2.91667V3.75H13.5ZM4.62 11.1075L4.125 12.75H6.375L5.88 11.1075C6.19018 10.9639 6.44204 10.7188 6.59387 10.4126C6.7457 10.1063 6.78841 9.75746 6.71491 9.42367C6.64142 9.08988 6.45613 8.79119 6.18973 8.57706C5.92333 8.36294 5.59179 8.24621 5.25 8.24621C4.90821 8.24621 4.57667 8.36294 4.31027 8.57706C4.04387 8.79119 3.85858 9.08988 3.78509 9.42367C3.71159 9.75746 3.7543 10.1063 3.90613 10.4126C4.05796 10.7188 4.30982 10.9639 4.62 11.1075Z" fill="currentColor"/>
</svg>
