<svg width="28" height="28" viewBox="0 0 28 28" fill="none" xmlns="http://www.w3.org/2000/svg">
  <path fill="rgb(255, 255, 255)" fill-rule="evenodd" clip-rule="evenodd" d="M25.7272 2.27286C27.0042 3.54993 27.5306 5.14292 27.7713 6.93322C28.0001 8.63541 28.0001 10.7839 28 13.3797V14.6203C28.0001 17.2161 28.0001 19.3646 27.7713 21.0668C27.5306 22.8571 27.0042 24.4501 25.7272 25.7271C24.4501 27.0042 22.8571 27.5306 21.0668 27.7713C19.3646 28.0001 17.2161 28.0001 14.6203 28H13.3797C10.7839 28.0001 8.63541 28.0001 6.93322 27.7713C5.14292 27.5306 3.54993 27.0042 2.27286 25.7272C0.995809 24.4501 0.469424 22.8571 0.228723 21.0668C-0.000131384 19.3646 -7.05886e-05 17.2161 2.60586e-06 14.6203V13.3797C-7.05886e-05 10.7839 -0.000131384 8.63541 0.228723 6.93322C0.469424 5.14291 0.995788 3.54993 2.27286 2.27286C3.54993 0.995788 5.14291 0.469424 6.93322 0.228723C8.63541 -0.000131384 10.7839 -7.05886e-05 13.3797 2.60586e-06H14.6203C17.2161 -7.05886e-05 19.3646 -0.000131384 21.0668 0.228723C22.8571 0.469424 24.4501 0.995809 25.7272 2.27286Z" />
  <path fill="rgb(0, 119, 255)" fill-rule="evenodd" clip-rule="evenodd" d="M3.68707 3.68707C2 5.37413 2 8.0894 2 13.52V14.48C2 19.9106 2 22.6259 3.68707 24.313C5.37413 26 8.0894 26 13.52 26H14.48C19.9106 26 22.6259 26 24.313 24.313C26 22.6259 26 19.9106 26 14.48V13.52C26 8.0894 26 5.37413 24.313 3.68707C22.6259 2 19.9106 2 14.48 2H13.52C8.0894 2 5.37413 2 3.68707 3.68707ZM6.05005 9.30005C6.18005 15.54 9.3 19.29 14.77 19.29H15.0801V15.72C17.0901 15.92 18.6099 17.39 19.2199 19.29H22.06C21.28 16.45 19.2299 14.88 17.9499 14.28C19.2299 13.54 21.0299 11.74 21.4599 9.30005H18.8799C18.3199 11.28 16.6601 13.08 15.0801 13.25V9.30005H12.5V16.22C10.9 15.82 8.88005 13.88 8.79005 9.30005H6.05005Z" />
</svg>
