<svg width="18" height="18" viewBox="0 0 18 18" xmlns="http://www.w3.org/2000/svg">
    <path d="M2.49846 16.75L2.49744 16.75C2.05882 16.7495 1.62803 16.6337 1.24834 16.4141C0.868643 16.1945 0.553412 15.8789 0.334295 15.4989C0.115177 15.1189 -0.000112451 14.688 8.23036e-08 14.2494C0.000112616 13.8119 0.114998 13.3822 0.33316 13.0031L0.334936 13L6.72918 1.75567L6.73096 1.75256C6.94988 1.37078 7.2657 1.05355 7.64651 0.832942C8.02732 0.612331 8.45962 0.496155 8.89971 0.496155C8.92193 0.496155 8.94414 0.496451 8.96632 0.497042C8.98849 0.496451 9.0107 0.496155 9.03292 0.496155C9.47302 0.496155 9.90531 0.612331 10.2861 0.832942C10.6669 1.05355 10.9828 1.37078 11.2017 1.75256L11.2035 1.75567L17.5977 13L17.5995 13.0031C17.8176 13.3822 17.9325 13.8119 17.9326 14.2494C17.9327 14.688 17.8175 15.1189 17.5983 15.4989C17.3792 15.8789 17.064 16.1945 16.6843 16.4141C16.3046 16.6337 15.8738 16.7495 15.4352 16.75L15.4342 16.75H2.49846Z"/>
    <path d="M16.5985 13.5L10.201 2.25C10.0696 2.02093 9.88012 1.83059 9.65164 1.69823C9.42315 1.56586 9.16377 1.49615 8.89972 1.49615C8.63566 1.49615 8.37628 1.56586 8.1478 1.69823C7.91931 1.83059 7.72982 2.02093 7.59847 2.25L1.20097 13.5C1.06906 13.7285 0.99974 13.9877 1 14.2515C1.00026 14.5153 1.07009 14.7744 1.20245 15.0026C1.33481 15.2308 1.52502 15.4201 1.75388 15.5513C1.98274 15.6825 2.24216 15.751 2.50597 15.75H15.301C15.5641 15.7497 15.8226 15.6802 16.0504 15.5485C16.2782 15.4167 16.4674 15.2273 16.5989 14.9993C16.7303 14.7713 16.7995 14.5128 16.7994 14.2496C16.7994 13.9864 16.7301 13.7279 16.5985 13.5V13.5ZM8.88097 14.25C8.65846 14.25 8.44096 14.184 8.25595 14.0604C8.07095 13.9368 7.92675 13.7611 7.8416 13.5555C7.75646 13.3499 7.73418 13.1238 7.77758 12.9055C7.82099 12.6873 7.92814 12.4868 8.08547 12.3295C8.24281 12.1722 8.44326 12.065 8.66149 12.0216C8.87972 11.9782 9.10592 12.0005 9.31149 12.0856C9.51705 12.1708 9.69276 12.315 9.81637 12.5C9.93999 12.685 10.006 12.9025 10.006 13.125C10.006 13.4234 9.88744 13.7095 9.67646 13.9205C9.46548 14.1315 9.17934 14.25 8.88097 14.25ZM9.25597 10.875H8.50597L7.75597 6.375C7.75597 6.07663 7.87449 5.79048 8.08547 5.5795C8.29645 5.36853 8.5826 5.25 8.88097 5.25C9.17934 5.25 9.46548 5.36853 9.67646 5.5795C9.88744 5.79048 10.006 6.07663 10.006 6.375L9.25597 10.875Z" fill="currentColor"/>
</svg>
