<svg width="24" height="24" viewBox="0 0 24 24" xmlns="http://www.w3.org/2000/svg">
    <path fill="currentColor" d="M11.5 14.8234L10.5288 9.82335C10.5288 9.42552 10.6869 9.04399 10.9682 8.76269C11.2495 8.48138 11.631 8.32335 12.0288 8.32335C12.4266 8.32335 12.8082 8.48138 13.0895 8.76269C13.3708 9.04399 13.5288 9.42552 13.5288 9.82335L12.5 14.8234H11.5Z" />
    <path fill="currentColor" d="M12 18.8233C11.7033 18.8233 11.4133 18.7354 11.1666 18.5706C10.92 18.4057 10.7277 18.1715 10.6142 17.8974C10.5007 17.6233 10.4709 17.3217 10.5288 17.0307C10.5867 16.7397 10.7296 16.4725 10.9393 16.2627C11.1491 16.0529 11.4164 15.91 11.7074 15.8522C11.9983 15.7943 12.2999 15.824 12.574 15.9375C12.8481 16.0511 13.0824 16.2433 13.2472 16.49C13.412 16.7367 13.5 17.0267 13.5 17.3233C13.5 17.7212 13.342 18.1027 13.0607 18.384C12.7794 18.6653 12.3978 18.8233 12 18.8233Z" />
    <path fill="currentColor" fill-rule="evenodd" clip-rule="evenodd" d="M10.2442 3.0423C11.0022 1.65257 12.9978 1.65257 13.7558 3.0423L22.3867 18.8656C23.1137 20.1984 22.149 21.8233 20.6309 21.8233H3.36908C1.85097 21.8233 0.886339 20.1984 1.61329 18.8656L10.2442 3.0423ZM3.36908 19.8233L12 4L20.6309 19.8233H3.36908Z" />
</svg>
