<svg width="10" height="24" viewBox="0 0 10 24" xmlns="http://www.w3.org/2000/svg">
    <path d="M8 5C8 6.65685 6.65685 8 5 8C3.34315 8 2 6.65685 2 5C2 3.34315 3.34315 2 5 2C6.65685 2 8 3.34315 8 5ZM4.03134 9H5.94587C7.60969 9 8.95442 10.1569 9 11.5882V14.0588C9 14.6863 8.52137 15.2549 7.81482 15.4706L7.45014 15.5686L7.06268 21.2745C7.03989 21.6863 6.65242 22 6.17379 22H3.82621C3.34758 22 2.96011 21.6863 2.93732 21.2745L2.54986 15.5686L2.18519 15.4706C1.47863 15.2745 1 14.7059 1 14.0588V11.5882C1.02279 10.1569 2.36752 9 4.03134 9Z" fill="currentColor"/>
</svg>