<svg width="10" height="24" viewBox="0 0 10 24" xmlns="http://www.w3.org/2000/svg">
    <path d="M7 10C7 11.1046 6.10457 12 5 12C3.89543 12 3 11.1046 3 10C3 8.89543 3.89543 8 5 8C6.10457 8 7 8.89543 7 10ZM4.2735 13H5.7094C6.95727 13 7.96581 13.8009 8 14.7919V16.5023C8 16.9367 7.64103 17.3303 7.11111 17.4796L6.83761 17.5475L6.54701 21.4977C6.52991 21.7828 6.23932 22 5.88034 22H4.11966C3.76068 22 3.47009 21.7828 3.45299 21.4977L3.16239 17.5475L2.88889 17.4796C2.35897 17.3439 2 16.9502 2 16.5023V14.7919C2.01709 13.8009 3.02564 13 4.2735 13Z" fill="currentColor"/>
</svg>
