<svg width="10" height="24" viewBox="0 0 10 24" xmlns="http://www.w3.org/2000/svg">
    <path d="M6.71718 17.0622L6.36554 17.1495L6.33895 17.5108L6.04918 21.4498C6.04727 21.4515 6.04475 21.4536 6.04148 21.4561C6.01624 21.475 5.96166 21.5 5.88034 21.5H4.11966C4.03834 21.5 3.98376 21.475 3.95852 21.4561C3.95525 21.4536 3.95273 21.4515 3.95082 21.4498L3.66105 17.5108L3.63446 17.1495L3.28282 17.0622L3.01297 16.9953C3.01241 16.9951 3.01185 16.995 3.01129 16.9948C2.6366 16.8983 2.5 16.6589 2.5 16.5023V14.7967C2.51346 14.1748 3.19416 13.5 4.2735 13.5H5.7094C6.78293 13.5 7.47289 14.1714 7.5 14.8014V16.5023C7.5 16.641 7.36841 16.8852 6.98243 16.9964L6.71718 17.0622ZM6.05448 21.4442C6.0545 21.4443 6.05431 21.4445 6.05386 21.4451L6.05448 21.4442ZM6.5 10C6.5 10.8284 5.82843 11.5 5 11.5C4.17157 11.5 3.5 10.8284 3.5 10C3.5 9.17157 4.17157 8.5 5 8.5C5.82843 8.5 6.5 9.17157 6.5 10Z" stroke="currentColor"/>
</svg>