<svg width="74" height="24" viewBox="0 0 74 24" fill="none"
     xmlns="http://www.w3.org/2000/svg">
    <path fill-rule="evenodd" clip-rule="evenodd"
          d="M43.7375 14.538L46.9046 13.2798C50.0282 12.0217 52.8915 10.4599 52.8915 7.16269C52.8915 3.90889 50.3319 2.04338 46.4273 2.04338C41.7853 2 38.8351 4.73319 38.141 8.72451H42.3059C42.7397 6.77223 44.2581 5.5141 46.2972 5.5141C48.0325 5.5141 48.9436 6.20824 48.9436 7.42299C48.9436 8.7679 47.6855 9.33189 45.039 10.5033L37.3601 13.974L36.7093 17.4013H51.5466L52.154 13.9306H48.1627L43.7809 14.885V14.538H43.7375ZM20.3536 10.4599C20.3536 14.8416 23.7375 17.705 27.8156 17.705C31.5466 17.705 35.2343 15.2755 36.0586 11.5879H31.9805C31.3297 13.0195 29.5944 14.0174 27.9458 14.0174C25.9067 14.0174 24.3449 12.5423 24.3449 10.3297C24.3449 7.90022 26.3406 5.68764 28.9002 5.68764C30.7657 5.68764 32.2408 6.859 32.4143 8.72451H36.4924C36.3623 4.38612 32.718 2 28.987 2C24.3449 2 20.3536 5.86117 20.3536 10.4599ZM10.0282 14.538L13.1952 13.2798C16.3189 12.0217 19.1822 10.4599 19.1822 7.16269C19.1822 3.90889 16.6226 2 12.718 2C8.07592 2 5.08243 4.73319 4.43167 8.72451H8.59653C9.03037 6.77223 10.5488 5.5141 12.5879 5.5141C14.3232 5.5141 15.2343 6.20824 15.2343 7.42299C15.2343 8.7679 13.9761 9.33189 11.3297 10.5033L3.65076 13.974L3 17.4013H17.8373L18.4447 13.9306H14.4534L10.0716 14.885V14.538H10.0282ZM57.6204 15.1887C58.6616 16.8373 60.4403 17.7484 62.5228 17.7484C66.731 17.7484 70.679 14.0607 70.679 8.98482C70.679 4.68981 67.9892 2.04338 64.7787 2.04338C62.3492 2.04338 60.4403 3.43167 59.1388 5.68764H58.705L59.7896 3.04121L59.9197 2.39046H56.0152L52.5445 22H56.449L57.6204 15.1887ZM58.4881 10.2863C58.4881 7.77007 60.5705 5.64425 63.0434 5.64425C65.1258 5.64425 66.6876 7.20607 66.6876 9.37527C66.6876 11.9349 64.6486 14.0174 62.2625 14.0174C60.18 14.0174 58.4881 12.5423 58.4881 10.2863Z"
          fill="#014E5B"/>
</svg>
