<svg width="51" height="24" viewBox="0 0 51 24" fill="currentBackgroundColor" xmlns="http://www.w3.org/2000/svg">
<rect x="0.183655" width="50.7273" height="24" rx="4" fill="#E1232E"/>
<path d="M30.1234 10.9699V13.4865H27.6067C27.3496 13.4865 27.1535 13.2776 27.1535 13.0333V10.9699C27.1535 10.7127 27.3624 10.5167 27.6067 10.5167H29.6541C29.9273 10.5167 30.1234 10.7095 30.1234 10.9699Z" fill="white"/>
<path d="M41.9161 11.9855H40.6593C40.6593 10.4845 39.4347 9.25994 37.9337 9.25994C36.7413 9.25994 35.6903 10.0346 35.3367 11.1627C35.2564 11.4359 35.2081 11.7123 35.2081 11.9855V15.9871H35.176C34.4978 15.9871 33.9514 15.4375 33.9514 14.7626V11.9888H33.9675C33.9675 10.8927 34.4207 9.8417 35.2242 9.08638C35.9635 8.3857 36.9309 8 37.9466 8C40.1419 8 41.9161 9.79028 41.9161 11.9855Z" fill="white"/>
<path d="M41.9321 15.9839L40.1579 16L39.7208 15.5661L38.7533 14.5986L37.4163 13.2583H39.1905L41.9321 15.9839Z" fill="white"/>
<path d="M30.5412 14.7433H26.7517C26.2825 14.7433 25.9129 14.3736 25.9129 13.9044V10.0956C25.9129 9.62636 26.2825 9.25673 26.7517 9.25673H30.5412C31.0105 9.25673 31.3801 9.62636 31.3801 10.0956V13.8851L32.6368 15.1418V9.22459C32.6401 8.54962 32.0904 8 31.4155 8H25.8807C25.2025 8 24.6561 8.54962 24.6561 9.22459V14.7593C24.6561 15.4375 25.2057 15.9839 25.8807 15.9839H31.8012L30.5444 14.7433H30.5412Z" fill="white"/>
<path d="M15.1358 16H13.3616L9.65252 12.2748V16H8.18365V8H9.65252V11.5645L13.2009 8H14.9591L11.086 11.8409L15.1358 16Z" fill="white"/>
<path d="M21.7666 8H23.2034V16H21.7666V12.5159H17.6686V15.9839H16.2351V8H17.6686V11.3395H21.7666V8Z" fill="white"/>
</svg>
