<svg width="40" height="24" viewBox="0 0 40 24" fill="currentBackgroundColor" xmlns="http://www.w3.org/2000/svg">
<path d="M3 4.44898C3 3.09645 4.09645 2 5.44898 2H33.2041C34.5566 2 35.6531 3.09645 35.6531 4.44898V19.551C35.6531 20.9036 34.5566 22 33.2041 22H5.44898C4.09645 22 3 20.9036 3 19.551V4.44898Z" fill="#055E7C"/>
<path fill-rule="evenodd" clip-rule="evenodd" d="M29.9633 10.675C30.1525 10.6759 30.3335 10.7518 30.4667 10.8861C30.5998 11.0204 30.6742 11.2021 30.6735 11.3912C30.6737 11.5035 30.6475 11.6142 30.597 11.7145C30.5465 11.8148 30.4732 11.9018 30.3829 11.9686L30.272 12.0614C30.2562 12.0772 30.2395 12.0925 30.2223 12.1078L30.1337 12.1793L30.1016 12.2062L27.2838 14.4805V16.4123V16.4146C27.2792 16.5965 27.204 16.7695 27.074 16.8967C26.944 17.024 26.7695 17.0957 26.5876 17.0965C26.4033 17.0955 26.2267 17.0218 26.0964 16.8915C25.966 16.7611 25.8924 16.5846 25.8914 16.4002V16.397V14.4796L25.4272 14.0948L22.7816 11.9031L22.7621 11.8869C22.6851 11.8194 22.6235 11.7361 22.5815 11.6428C22.5394 11.5494 22.518 11.4481 22.5184 11.3457C22.5158 11.1621 22.5859 10.9848 22.7133 10.8526C22.8407 10.7204 23.0153 10.6439 23.1989 10.6397C23.3546 10.6399 23.5053 10.695 23.6245 10.7952C23.6587 10.8172 23.6911 10.8417 23.7215 10.8686L23.7628 10.9043L26.0835 12.7678L26.6229 13.2009L29.4704 10.8825C29.6024 10.7527 29.7801 10.68 29.9652 10.6801M23.4207 16.0354C23.415 16.0215 23.4082 16.0079 23.4003 15.9951L20.1118 10.9382H20.1086C20.0456 10.8467 19.9613 10.7718 19.863 10.72C19.7647 10.6682 19.6553 10.6409 19.5442 10.6407C19.358 10.643 19.1804 10.7192 19.0504 10.8524C18.9203 10.9857 18.8485 11.1651 18.8507 11.3513C18.8504 11.5029 18.898 11.6507 18.9868 11.7736L20.5435 14.0698L17.5832 14.0647C17.4551 14.0785 17.3314 14.1187 17.2195 14.1826C17.1077 14.2465 17.0103 14.3327 16.9334 14.436L15.8909 15.9533C15.7779 16.0806 15.7158 16.245 15.7164 16.4151C15.7143 16.5948 15.7836 16.7679 15.9091 16.8964C16.0346 17.025 16.206 17.0984 16.3857 17.1006C16.4913 17.1005 16.5952 17.0752 16.6891 17.0267C16.7829 16.9783 16.8638 16.9082 16.925 16.8222L16.9338 16.8171L17.8732 15.5369H21.5317L22.2878 16.7493C22.3437 16.8553 22.4274 16.9441 22.5299 17.0062C22.6325 17.0683 22.7499 17.1015 22.8698 17.102C22.9581 17.101 23.0454 17.0826 23.1266 17.0478C23.2078 17.0131 23.2813 16.9627 23.3431 16.8995C23.4048 16.8363 23.4534 16.7616 23.4863 16.6796C23.5191 16.5976 23.5355 16.5099 23.5344 16.4216C23.5347 16.2856 23.4946 16.1525 23.4193 16.0392M14.4363 10.6889H14.4219H9.27866C9.09213 10.6898 8.91356 10.7647 8.78222 10.8972C8.65089 11.0296 8.57751 11.2088 8.57825 11.3954C8.57806 11.5319 8.6174 11.6655 8.69151 11.7801C8.79171 11.9212 8.93508 12.0258 9.09996 12.0781C9.15807 12.0939 9.218 12.102 9.27821 12.1023H14.4302L14.4414 12.105C14.452 12.105 14.4627 12.1018 14.4739 12.1018C14.6234 12.1022 14.7668 12.1613 14.8731 12.2665C14.9794 12.3716 15.04 12.5144 15.042 12.6639C15.0426 12.8148 14.9832 12.9599 14.877 13.0671C14.7707 13.1743 14.6262 13.235 14.4752 13.2357C14.4692 13.2357 14.4641 13.2357 14.4585 13.2357H14.4516H9.24572C9.15544 13.2349 9.06595 13.2526 8.98277 13.2876C8.89959 13.3227 8.82449 13.3745 8.76208 13.4397C8.69967 13.505 8.65127 13.5823 8.6199 13.6669C8.58852 13.7516 8.57485 13.8418 8.57967 13.9319V16.377C8.57893 16.5616 8.65149 16.7389 8.78143 16.87C8.91137 17.0011 9.08806 17.0752 9.27263 17.0761C9.4526 17.0751 9.6252 17.0044 9.75423 16.879C9.88325 16.7535 9.95866 16.5829 9.96466 16.403V14.6569H14.4386H14.4581C14.9733 14.6403 15.4618 14.4233 15.8195 14.0522C16.1773 13.681 16.3763 13.185 16.3741 12.6694C16.3764 12.1501 16.1745 11.6507 15.812 11.2789C15.4495 10.907 14.9555 10.6925 14.4363 10.6815" fill="#00DCF8"/>
<path fill-rule="evenodd" clip-rule="evenodd" d="M9.47453 6.95627L8.61539 9.30393H9.13849L9.29628 8.82121H10.2329L10.3968 9.30393H10.9176L10.0477 6.95627H9.47453ZM9.42812 8.42576L9.76462 7.42645L10.0993 8.42576H9.42812Z" fill="white"/>
<path fill-rule="evenodd" clip-rule="evenodd" d="M13.2211 8.03357C13.3139 7.99354 13.3918 7.92525 13.4435 7.83841C13.4953 7.75158 13.5183 7.65063 13.5094 7.54994C13.5094 7.16841 13.2513 6.9563 12.7514 6.9563H11.6143V9.30441H12.7152C13.2852 9.30441 13.5943 9.0366 13.5943 8.59009C13.6032 8.46897 13.5713 8.34836 13.5037 8.24749C13.436 8.14662 13.3366 8.07131 13.2211 8.03357ZM12.0909 7.36428H12.6539C12.8934 7.36428 13.0104 7.42648 13.0104 7.60842C13.0104 7.79037 12.8957 7.8637 12.6581 7.8637H12.0914L12.0909 7.36428ZM12.6776 8.88018H12.0909V8.26518H12.6744C12.9491 8.26518 13.0782 8.34688 13.0782 8.57616C13.0782 8.7906 12.9496 8.88018 12.6781 8.88018H12.6776Z" fill="white"/>
<path fill-rule="evenodd" clip-rule="evenodd" d="M15.5168 6.9563H14.9431L14.0853 9.30396H14.608L14.7658 8.82124H15.702L15.8667 9.30396H16.387L15.5168 6.9563ZM14.8957 8.42579L15.2318 7.42648L15.5669 8.42579H14.8957Z" fill="white"/>
<path d="M17.0768 6.48981H16.6107V7.42274H17.0768V6.48981Z" fill="#853C4C"/>
</svg>
