<svg width="55" height="24" viewBox="0 0 55 24" fill="none" xmlns="http://www.w3.org/2000/svg">
  <path d="M43.1111 2H12C6.47715 2 2 6.47715 2 12C2 17.5228 6.47716 22 12 22H43.1111C48.634 22 53.1111 17.5228 53.1111 12C53.1111 6.47715 48.6339 2 43.1111 2Z" fill="#EF3124"/>
  <path d="M32.7436 13.6876L34.1002 9.8795H33.7471L35.2181 13.6876L35.5482 13.266H32.402L32.7436 13.6876ZM29.4945 15.9905H31.7287L32.3791 14.4966L31.6616 14.9069H36.2788L35.5613 14.4966L36.2003 15.9905H38.5833L35.2083 8.00977H32.9512L29.4961 15.9905H29.4945ZM24.0797 11.9323V13.8707H26.7814C28.6053 13.8707 29.7118 12.6972 29.7118 10.9288C29.7118 9.16037 28.6053 8.00977 26.7814 8.00977H22.0956V15.9905H24.2611V9.46927L23.7479 9.86806H26.5983C27.1802 9.86806 27.4874 10.244 27.4874 10.9288C27.4874 11.6136 27.1802 11.9323 26.5983 11.9323H24.0781H24.0797ZM40.9989 15.9905H43.3132V12.5354L43.1416 13.4703L46.8582 8.00977H44.1451L41.888 11.442H42.4584L40.2013 8.00977H37.4882L41.2849 13.5503L41.0005 12.6155V15.9905H40.9989Z" fill="white"/>
  <path d="M13.4425 17.3912C16.4781 17.3912 18.939 14.9772 18.939 11.9994C18.939 9.02155 16.4781 6.60754 13.4425 6.60754C10.4069 6.60754 7.94608 9.02155 7.94608 11.9994C7.94608 14.9772 10.4069 17.3912 13.4425 17.3912Z" fill="white"/>
  <path fill-rule="evenodd" clip-rule="evenodd" d="M14.1738 9.35979C14.0594 9.01493 13.878 8.74036 13.44 8.74036C13.0019 8.74036 12.8287 9.0133 12.7127 9.35979L11.5179 12.8933H12.3678L12.6342 12.0582H14.2522L14.5186 12.8933H15.3685L14.1738 9.35979ZM12.8614 11.3456L13.4269 9.57553H13.4563L14.0218 11.3456H12.8597H12.8614Z" fill="#EF3124"/>
  <path d="M15.4547 14.0374H11.4309V14.8726H15.4547V14.0374Z" fill="#EF3124"/>
</svg>
