<svg width="62" height="24" viewBox="0 0 62 24" fill="currentBackgroundColor" xmlns="http://www.w3.org/2000/svg">
<path d="M14.6585 5H5.22371C3.99502 5 3 6.0038 3 7.24285V16.7575C3 17.9958 3.99502 19 5.22371 19H14.6585C15.887 19 16.8815 17.9958 16.8815 16.7575V7.24285C16.8815 6.0038 15.887 5 14.6585 5Z" fill="#1677FF"/>
<path d="M6.75087 15.7661C4.59129 15.7661 3.95281 14.0505 5.02008 13.1119C5.37623 12.7947 6.02703 12.6398 6.374 12.6051C7.65685 12.4772 8.84437 12.9708 10.2458 13.6607C9.26071 14.9566 8.00605 15.7661 6.75087 15.7661ZM14.4291 13.7907C13.8736 13.6031 13.1283 13.3162 12.2981 13.0133C12.7966 12.1392 13.1949 11.1438 13.4566 10.0619H10.7203V9.06796H14.0723V8.51315H10.7203V6.85618H9.35237C9.1124 6.85618 9.1124 7.0951 9.1124 7.0951V8.51315H5.72229V9.06796H9.1124V10.0619H6.31342V10.6166H11.742C11.5433 11.3069 11.2766 11.9549 10.96 12.5437C9.19855 11.9575 7.31893 11.4825 6.1381 11.7749C5.38292 11.9625 4.89656 12.2974 4.61083 12.6483C3.29939 14.2576 4.23999 16.7018 7.00959 16.7018C8.64715 16.7018 10.2246 15.781 11.4473 14.2636C13.2709 15.1477 16.8815 16.6657 16.8815 16.6657V14.5023C16.8815 14.5023 16.428 14.4658 14.4291 13.7907Z" fill="white"/>
<path d="M33.1425 7.04946C33.1425 7.77369 33.6717 8.26123 34.41 8.26123C35.1482 8.26123 35.6775 7.77369 35.6775 7.04946C35.6775 6.33912 35.1482 5.83755 34.41 5.83755C33.6717 5.83755 33.1425 6.33912 33.1425 7.04946Z" fill="#1677FF"/>
<path d="M29.6044 16.3122H31.8051V6.1441H29.6044V16.3122Z" fill="black"/>
<path d="M22.5424 12.7881L23.8516 8.26125H23.9075L25.1472 12.7881H22.5424ZM25.7462 6.4923H22.7931L19.4919 16.3123H21.5256L22.0828 14.39H25.579L26.1081 16.3123H28.713L25.7462 6.4923Z" fill="black"/>
<path d="M33.3094 16.3122H35.5102V8.84631H33.3094V16.3122Z" fill="black"/>
<path d="M58.5078 8.86022L58.5216 8.84632H56.4462L55.137 13.3871H55.0674L53.5631 8.84632H51.0974L54.0645 16.3402L52.8248 18.6244V18.6802H54.7609L58.5078 8.86022Z" fill="black"/>
<path d="M39.5918 15.0308C39.3413 15.0308 39.1043 15.003 38.8398 14.9193V10.88C39.2994 10.5596 39.6755 10.4063 40.149 10.4063C40.9709 10.4063 41.6256 11.061 41.6256 12.4539C41.6256 14.2368 40.6645 15.0308 39.5918 15.0308ZM40.9848 8.6931C40.177 8.6931 39.5501 8.99955 38.8398 9.58452V8.84626H36.6388V18.6801H38.8398V16.2425C39.2576 16.354 39.6476 16.4097 40.1212 16.4097C42.0852 16.4097 43.8542 14.9611 43.8542 12.3843C43.8542 10.0721 42.5726 8.6931 40.9848 8.6931Z" fill="black"/>
<path d="M48.4651 14.5014C47.8801 14.8218 47.5456 14.9472 47.1559 14.9472C46.6265 14.9472 46.2923 14.599 46.2923 14.0418C46.2923 13.8328 46.334 13.6239 46.501 13.4569C46.7658 13.1921 47.2812 12.9971 48.4651 12.7186V14.5014ZM50.6659 14.4457V11.3257C50.6659 9.62628 49.6631 8.69316 47.8942 8.69316C46.7658 8.69316 45.9858 8.88802 44.565 9.31983L44.9549 11.0332C46.2503 10.4481 46.8215 10.1974 47.4205 10.1974C48.1449 10.1974 48.4651 10.7127 48.4651 11.5067V11.5624C45.9438 12.0361 45.1639 12.3007 44.6763 12.7882C44.3143 13.1504 44.1611 13.6658 44.1611 14.2646C44.1611 15.6993 45.2755 16.4655 46.3202 16.4655C47.1002 16.4655 47.7268 16.173 48.5767 15.5321L48.7298 16.3122H50.9306L50.6659 14.4457Z" fill="black"/>
</svg>
