<svg width="36" height="24" viewBox="0 0 36 24" fill="currentBackgroundColor" xmlns="http://www.w3.org/2000/svg">
  <path d="M32.9968 0H2.99971C1.34302 0 0 1.34315 0 3V21C0 22.6569 1.34302 24 2.99971 24H32.9968C34.6535 24 35.9965 22.6569 35.9965 21V3C35.9965 1.34315 34.6535 0 32.9968 0Z" fill="#016FD0"/>
  <path fill-rule="evenodd" clip-rule="evenodd" d="M20.6442 20.0908V11.5387L35.8641 11.5524V13.9147L34.1049 15.7948L35.8641 17.6921V20.1046H33.0554L31.5628 18.4573L30.0808 20.1108L20.6442 20.0908Z" fill="#FFFFFE"/>
  <path fill-rule="evenodd" clip-rule="evenodd" d="M21.6608 19.1532V12.4799H27.3181V14.0172H23.4925V15.0607H27.2269V16.5725H23.4925V17.5974H27.3181V19.1532H21.6608Z" fill="#016FD0"/>
  <path fill-rule="evenodd" clip-rule="evenodd" d="M27.2905 19.1532L30.4209 15.8127L27.2903 12.48H29.7133L31.6262 14.595L33.5445 12.48H35.8633V12.5325L32.7996 15.8127L35.8633 19.0585V19.1532H33.5211L31.5743 17.0169L29.6476 19.1532H27.2905Z" fill="#016FD0"/>
  <path fill-rule="evenodd" clip-rule="evenodd" d="M21.354 3.94794H25.0227L26.3113 6.87421V3.94794H30.8406L31.6217 6.14029L32.4054 3.94794H35.864V12.5H17.5859L21.354 3.94794Z" fill="#FFFFFE"/>
  <path fill-rule="evenodd" clip-rule="evenodd" d="M22.0484 4.87701L19.088 11.5448H21.1185L21.677 10.2095H24.7033L25.2614 11.5448H27.3424L24.3943 4.87701H22.0484ZM22.3028 8.71317L23.1907 6.59056L24.0778 8.71317H22.3028Z" fill="#016FD0"/>
  <path fill-rule="evenodd" clip-rule="evenodd" d="M27.3155 11.5436V4.87598L30.1696 4.88579L31.6382 8.98488L33.1164 4.87598H35.8632V11.5436L34.0957 11.5592V6.97923L32.4271 11.5436H30.8138L29.1106 6.96358V11.5436H27.3155Z" fill="#016FD0"/>
</svg>
