<svg width="37" height="24" viewBox="0 0 37 24" fill="currentBackgroundColor" xmlns="http://www.w3.org/2000/svg">
<path d="M30.9581 2H4.8789C4.77029 2 4.66148 2 4.55306 2.00062C4.4614 2.00126 4.36997 2.00226 4.27853 2.00472C4.07911 2.01002 3.87798 2.02159 3.68105 2.0564C3.48098 2.0918 3.2948 2.14956 3.11318 2.24049C2.93462 2.32979 2.77115 2.44658 2.62948 2.58595C2.48775 2.72531 2.36899 2.8858 2.2782 3.06158C2.18571 3.24018 2.12694 3.42332 2.09118 3.62021C2.0556 3.81392 2.04375 4.01166 2.03838 4.20756C2.03592 4.29747 2.03487 4.38739 2.03427 4.47729C2.03364 4.58413 2.03385 4.6909 2.03385 4.79794V19.2023C2.03385 19.3093 2.03364 19.4159 2.03427 19.5229C2.03487 19.6128 2.03592 19.7028 2.03838 19.7927C2.04375 19.9884 2.0556 20.1861 2.09118 20.3798C2.12694 20.5768 2.18571 20.7598 2.2782 20.9384C2.36899 21.1142 2.48775 21.2749 2.62948 21.4141C2.77115 21.5537 2.93462 21.6704 3.11318 21.7595C3.2948 21.8507 3.48098 21.9085 3.68105 21.9438C3.87798 21.9784 4.07911 21.9902 4.27853 21.9955C4.36997 21.9975 4.4614 21.9988 4.55306 21.9992C4.66148 22 4.77029 22 4.8789 22H30.9581C31.0665 22 31.1753 22 31.2837 21.9992C31.3751 21.9988 31.4666 21.9975 31.5584 21.9955C31.7574 21.9902 31.9585 21.9784 32.1559 21.9438C32.3557 21.9085 32.542 21.8507 32.7236 21.7595C32.9024 21.6704 33.0653 21.5537 33.2073 21.4141C33.3488 21.2749 33.4676 21.1142 33.5586 20.9384C33.6513 20.7598 33.71 20.5768 33.7456 20.3798C33.7812 20.1861 33.7927 19.9884 33.7981 19.7927C33.8006 19.7028 33.8019 19.6128 33.8023 19.5229C33.8031 19.4159 33.8031 19.3093 33.8031 19.2023V4.79794C33.8031 4.6909 33.8031 4.58413 33.8023 4.47729C33.8019 4.38739 33.8006 4.29747 33.7981 4.20756C33.7927 4.01166 33.7812 3.81392 33.7456 3.62021C33.71 3.42332 33.6513 3.24018 33.5586 3.06158C33.4676 2.8858 33.3488 2.72531 33.2073 2.58595C33.0653 2.44658 32.9024 2.32979 32.7236 2.24049C32.542 2.14956 32.3557 2.0918 32.1559 2.0564C31.9585 2.02159 31.7574 2.01002 31.5584 2.00472C31.4666 2.00226 31.3751 2.00126 31.2837 2.00062C31.1753 2 31.0665 2 30.9581 2Z" fill="black"/>
<path d="M30.9581 2.66663L31.2789 2.66723C31.3658 2.66783 31.4527 2.66876 31.5401 2.6711C31.6921 2.67514 31.8699 2.68324 32.0357 2.71245C32.1798 2.73797 32.3006 2.77678 32.4166 2.83483C32.5311 2.89204 32.636 2.96701 32.7275 3.05694C32.8195 3.14748 32.8958 3.2508 32.9548 3.36463C33.0135 3.47778 33.0527 3.59605 33.0785 3.73877C33.1081 3.89999 33.1163 4.07533 33.1205 4.22574C33.1228 4.31064 33.124 4.39553 33.1244 4.48245C33.1252 4.58756 33.1252 4.69261 33.1252 4.79793V19.2023C33.1252 19.3076 33.1252 19.4124 33.1244 19.5198C33.124 19.6047 33.1228 19.6896 33.1205 19.7746C33.1163 19.9248 33.1081 20.1 33.0781 20.2632C33.0527 20.4039 33.0135 20.5222 32.9545 20.6359C32.8957 20.7495 32.8195 20.8527 32.7279 20.9427C32.6358 21.0333 32.5313 21.108 32.4154 21.1657C32.3003 21.2235 32.1797 21.2623 32.037 21.2875C31.8679 21.3172 31.6826 21.3253 31.5431 21.329C31.4553 21.331 31.3679 21.3321 31.2784 21.3326C31.1718 21.3334 31.0647 21.3334 30.9581 21.3334H4.87889C4.87747 21.3334 4.87609 21.3334 4.87465 21.3334C4.7692 21.3334 4.66354 21.3334 4.55617 21.3325C4.46863 21.3321 4.38128 21.331 4.29683 21.3291C4.1541 21.3253 3.96871 21.3172 3.80098 21.2877C3.65709 21.2623 3.53646 21.2235 3.41984 21.165C3.30508 21.1078 3.20061 21.0331 3.10846 20.9423C3.01702 20.8526 2.94104 20.7497 2.88228 20.636C2.82348 20.5224 2.78413 20.4037 2.75826 20.2613C2.72835 20.0985 2.72014 19.9239 2.71603 19.7747C2.71369 19.6893 2.71271 19.604 2.71215 19.5191L2.71173 19.2684L2.71175 19.2023V4.79793L2.71173 4.73176L2.71213 4.48166C2.71271 4.39625 2.71369 4.31087 2.71603 4.22554C2.72014 4.07622 2.72835 3.9016 2.75851 3.73743C2.78415 3.59627 2.82348 3.47763 2.88259 3.36346C2.94088 3.25061 3.017 3.1476 3.10892 3.05723C3.20048 2.96716 3.30529 2.89229 3.42078 2.83453C3.53615 2.77676 3.65701 2.73797 3.80091 2.71251C3.9667 2.68322 4.14464 2.67514 4.29704 2.67108C4.38391 2.66876 4.47078 2.66783 4.557 2.66725L4.87889 2.66663H30.9581Z" fill="white"/>
<path d="M11.1146 7.48395C11.1632 7.94301 10.9787 8.39225 10.7066 8.72682C10.4248 9.05201 9.97823 9.30985 9.53123 9.27172C9.47295 8.8319 9.69652 8.36385 9.94912 8.07712C10.2304 7.74228 10.7164 7.50342 11.1146 7.48395Z" fill="black"/>
<path d="M10.0654 9.586C10.3558 9.47351 10.7146 9.33447 11.1095 9.3576C11.3614 9.37676 12.088 9.45302 12.553 10.1294C12.5507 10.1311 12.5456 10.1344 12.538 10.1393C12.4185 10.2161 11.6914 10.6841 11.7006 11.6069C11.7096 12.7064 12.6217 13.1186 12.7431 13.1735C12.7512 13.1771 12.7557 13.1792 12.7563 13.1798C12.7558 13.1813 12.7549 13.1841 12.7536 13.1882C12.7299 13.2631 12.5723 13.7611 12.214 14.2759C11.8846 14.7527 11.5455 15.2197 11.0029 15.2293C10.7476 15.2339 10.5753 15.1614 10.396 15.0858C10.208 15.0066 10.0123 14.9241 9.70497 14.9241C9.38264 14.9241 9.17749 15.0092 8.98023 15.0911C8.80984 15.1617 8.64533 15.23 8.41628 15.2388C7.8932 15.2577 7.49623 14.7332 7.16683 14.2568C6.48853 13.294 5.9751 11.5404 6.67261 10.3582C7.01173 9.76722 7.63181 9.39566 8.30008 9.38601C8.59184 9.38075 8.87109 9.48928 9.11475 9.58397C9.29989 9.65592 9.46449 9.71989 9.59841 9.71989C9.71985 9.71989 9.87843 9.65845 10.0654 9.586Z" fill="black"/>
<path d="M17.2681 8.02912C18.679 8.02912 19.6615 8.98548 19.6615 10.3779C19.6615 11.7753 18.6588 12.7366 17.2327 12.7366H15.6706V15.1795H14.5419V8.02911L17.2681 8.02912ZM15.6706 11.805H16.9656C17.9483 11.805 18.5076 11.2847 18.5076 10.3829C18.5076 9.48106 17.9483 8.9657 16.9707 8.9657H15.6706V11.805Z" fill="black"/>
<path d="M19.9564 13.6979C19.9564 12.7861 20.6669 12.2262 21.9267 12.1568L23.3779 12.0726V11.6713C23.3779 11.0915 22.9798 10.7446 22.3147 10.7446C21.6847 10.7446 21.2917 11.0419 21.196 11.5077H20.1681C20.2285 10.5662 21.0448 9.87246 22.355 9.87246C23.6399 9.87246 24.4612 10.5414 24.4612 11.587V15.1795H23.4181V14.3223H23.3931C23.0857 14.902 22.4154 15.2687 21.7201 15.2687C20.682 15.2687 19.9564 14.6344 19.9564 13.6979ZM23.3779 13.2272V12.8159L22.0727 12.8952C21.4227 12.9398 21.0549 13.2222 21.0549 13.6682C21.0549 14.124 21.4378 14.4214 22.0224 14.4214C22.7832 14.4214 23.3779 13.906 23.3779 13.2272Z" fill="black"/>
<path d="M25.446 17.0972V16.23C25.5265 16.2498 25.7079 16.2498 25.7987 16.2498C26.3025 16.2498 26.5747 16.0417 26.7409 15.5066C26.7409 15.4966 26.8367 15.1894 26.8367 15.1845L24.922 9.9666H26.101L27.4415 14.2083H27.4615L28.8021 9.9666H29.9509L27.9654 15.452C27.5121 16.7157 26.988 17.122 25.8895 17.122C25.7987 17.122 25.5265 17.112 25.446 17.0972Z" fill="black"/>
</svg>
