<svg width="60" height="24" viewBox="0 0 60 24" fill="currentBackgroundColor" xmlns="http://www.w3.org/2000/svg">
<path d="M47.6555 9.11823H47.3069L46.3968 9.46167L45.2689 15.2828H46.4613L47.6555 9.11823Z" fill="#56835D"/>
<path d="M46.789 8.2221C46.8432 8.27814 46.9085 8.32211 46.9808 8.35111C47.0617 8.38361 47.1482 8.39961 47.2353 8.39818C47.3298 8.39844 47.4235 8.38252 47.5125 8.35111C47.6 8.32085 47.6823 8.27734 47.7566 8.2221C47.8285 8.16837 47.8914 8.10365 47.9432 8.03033C47.9932 7.96062 48.0277 7.88094 48.0443 7.79672C48.0607 7.71923 48.0571 7.63882 48.0338 7.56311C48.0116 7.49156 47.9735 7.42599 47.9222 7.37133C47.8677 7.31497 47.8017 7.27097 47.7287 7.24232C47.6466 7.21004 47.5589 7.19405 47.4707 7.19525C47.3774 7.19498 47.2848 7.2109 47.197 7.24232C47.1102 7.27295 47.0285 7.31644 46.9547 7.37133C46.8828 7.42504 46.8198 7.48976 46.7681 7.56311C46.718 7.63282 46.6835 7.71249 46.667 7.79672C46.6505 7.8742 46.6541 7.95463 46.6775 8.03033C46.6996 8.10192 46.7377 8.16751 46.789 8.2221Z" fill="#56835D"/>
<path d="M28.0234 7.86123C27.2406 8.85321 25.8058 9.41109 24.6203 9.77894C23.6179 5.32636 19.697 2 15.0073 2C12.9373 2.00955 10.9226 2.6692 9.2477 3.88577C7.57284 5.10234 6.32252 6.81435 5.67331 8.77999C4.6639 9.37448 3.7556 10.5024 2.76013 11.7437C11.7995 4.27685 21.0847 19.1095 28.0234 7.86123ZM22.3365 10.1799C17.6433 10.8424 14.3884 7.33124 8.73816 7.75662C9.41761 6.7123 10.3466 5.85379 11.4412 5.25871C12.5358 4.66362 13.7614 4.35073 15.0073 4.34833C16.7059 4.35786 18.352 4.93802 19.6812 5.99562C21.0104 7.05323 21.9456 8.52689 22.3365 10.1799ZM18.1576 3.22036C14.1479 2.62936 10.4031 2.89958 7.59277 7.34344C9.49653 2.6189 14.697 1.92852 18.1576 3.22036ZM19.5 10.8319C14.4599 10.4135 9.9777 6.85007 5.33335 9.303C9.81731 6.42817 13.5516 9.65865 19.5018 10.8407L19.5 10.8319Z" fill="#56835D"/>
<path d="M54.031 14.0049C53.9919 14.1934 53.9784 14.3864 53.9909 14.5785C54.0011 14.7352 54.0476 14.8874 54.1269 15.023C54.2005 15.1474 54.309 15.2474 54.4389 15.3107C54.5974 15.383 54.7704 15.4176 54.9445 15.4118C55.3034 15.4192 55.6584 15.3359 55.9766 15.1695C56.2747 15.0061 56.5354 14.7822 56.7419 14.5122L56.4839 14.31C56.3836 14.4066 56.2704 14.4887 56.1474 14.5541C56.0285 14.6183 55.8955 14.6519 55.7604 14.6517C55.6758 14.6528 55.5919 14.6355 55.5146 14.6011C55.4467 14.5692 55.387 14.5221 55.3402 14.4634C55.2925 14.4032 55.2591 14.3328 55.2426 14.2577C55.2247 14.1744 55.2247 14.0882 55.2426 14.0049L56.069 9.74759H57.4253L57.523 9.24201H56.1666L56.5676 7.17786H56.2189C56.1027 7.48585 55.9772 7.77642 55.8423 8.04954C55.719 8.31015 55.5619 8.55341 55.3751 8.77304C55.1996 8.97823 54.9851 9.14652 54.744 9.26816C54.4713 9.39419 54.1726 9.45392 53.8723 9.4425L53.8148 9.74062H54.8608L54.031 14.0049Z" fill="#56835D"/>
<path d="M51.0638 14.4337C50.9846 14.5471 50.8868 14.6461 50.7744 14.7266C50.6531 14.8125 50.5197 14.8801 50.3787 14.9271C50.2271 14.9786 50.068 15.0045 49.908 15.0038C49.7493 15.0059 49.5912 14.9842 49.439 14.9393C49.2981 14.8926 49.167 14.8205 49.052 14.7266C48.9238 14.6264 48.81 14.5091 48.7137 14.378C48.5936 14.2124 48.4869 14.0375 48.3947 13.8549L47.8194 14.2995C47.9358 14.5129 48.0852 14.7065 48.2622 14.8731C48.5482 15.1403 48.9077 15.3158 49.2943 15.3769C49.4713 15.4047 49.6503 15.4187 49.8295 15.4188C50.1832 15.4236 50.5357 15.376 50.8755 15.2775C51.161 15.195 51.4303 15.0648 51.6723 14.8923C51.8874 14.7335 52.0697 14.5346 52.2092 14.3065C52.3466 14.087 52.4423 13.8441 52.4916 13.59C52.5415 13.3714 52.5331 13.1435 52.4672 12.9292C52.4043 12.7425 52.3014 12.5717 52.1656 12.4289C52.0221 12.2793 51.8577 12.1513 51.6775 12.0488C51.488 11.9396 51.2922 11.8373 51.09 11.742L50.4972 11.4613C50.3196 11.3779 50.1508 11.2769 49.9934 11.1597C49.8597 11.062 49.748 10.9372 49.6656 10.7936C49.589 10.6486 49.5673 10.4808 49.6046 10.3211C49.6278 10.2083 49.6774 10.1026 49.7493 10.0125C49.8288 9.911 49.9256 9.82425 50.0352 9.75627C50.1593 9.67936 50.2937 9.62065 50.4345 9.58194C50.5905 9.53826 50.7519 9.51655 50.9139 9.51743C51.2212 9.51261 51.5215 9.60945 51.7681 9.79288C52.0419 10.0125 52.251 10.3024 52.3731 10.6314L52.8961 10.2374C52.7807 10.0328 52.6415 9.8426 52.4812 9.67085C52.3564 9.5318 52.2098 9.41403 52.0471 9.32217C51.8961 9.24158 51.733 9.18622 51.5642 9.1583C51.3808 9.12934 51.1954 9.11535 51.0098 9.11645C50.7202 9.1151 50.4321 9.15802 50.1555 9.24372C49.8986 9.32129 49.6556 9.43897 49.4355 9.5924C49.2317 9.73868 49.0547 9.91917 48.9125 10.1259C48.7709 10.3282 48.6735 10.5581 48.6266 10.8006C48.573 11.0217 48.573 11.2524 48.6266 11.4735C48.679 11.6591 48.7712 11.831 48.8968 11.9773C49.0259 12.1259 49.1763 12.2546 49.3431 12.3591C49.5163 12.4754 49.6941 12.5782 49.8766 12.6677C50.0591 12.7572 50.2386 12.8502 50.4153 12.9466C50.5805 13.0289 50.7355 13.1301 50.8773 13.2483C50.9976 13.3505 51.0951 13.4771 51.1632 13.6196C51.2302 13.7708 51.2462 13.9397 51.2085 14.1008C51.1847 14.2208 51.1354 14.3344 51.0638 14.4337Z" fill="#56835D"/>
<path d="M40.0979 14.8661C40.2464 15.0073 40.4158 15.1249 40.6 15.2148C40.7659 15.2934 40.9419 15.3485 41.123 15.3787C41.3001 15.4064 41.479 15.4204 41.6582 15.4205C42.012 15.4253 42.3645 15.3777 42.7042 15.2793C42.9897 15.1968 43.2591 15.0665 43.501 14.894C43.7173 14.7378 43.9014 14.5413 44.0432 14.3152C44.1806 14.0958 44.2763 13.8529 44.3256 13.5987C44.376 13.3802 44.3681 13.1524 44.3029 12.9379C44.24 12.7512 44.1371 12.5804 44.0013 12.4376C43.8578 12.288 43.6934 12.16 43.5132 12.0575C43.3237 11.9483 43.1279 11.846 42.9257 11.7507L42.3329 11.47C42.1553 11.3867 41.9865 11.2856 41.8291 11.1684C41.6954 11.0707 41.5837 10.9459 41.5013 10.8023C41.4247 10.6573 41.403 10.4895 41.4403 10.3298C41.4636 10.217 41.5132 10.1113 41.585 10.0213C41.6645 9.91969 41.7613 9.83294 41.8709 9.76499C41.995 9.68808 42.1294 9.62937 42.2701 9.59065C42.4262 9.54698 42.5875 9.52527 42.7496 9.52615C43.0569 9.52133 43.3572 9.61816 43.6038 9.8016C43.8776 10.0213 44.0867 10.3111 44.2088 10.6402L44.7318 10.2462C44.6176 10.0386 44.4788 9.84541 44.3186 9.67085C44.1938 9.53178 44.0472 9.41401 43.8845 9.32217C43.7336 9.24158 43.5704 9.18622 43.4016 9.1583C43.2182 9.12934 43.0328 9.11535 42.8472 9.11645C42.5576 9.1151 42.2696 9.15802 41.993 9.24372C41.7361 9.32129 41.4931 9.43897 41.2729 9.5924C41.0691 9.73865 40.8921 9.91915 40.7499 10.1259C40.6083 10.3282 40.5109 10.5581 40.464 10.8006C40.4105 11.0217 40.4105 11.2524 40.464 11.4735C40.5164 11.6577 40.608 11.8284 40.7325 11.9738C40.8616 12.1224 41.012 12.2511 41.1788 12.3556C41.352 12.4719 41.5298 12.5747 41.7123 12.6642L42.251 12.9432C42.4162 13.0254 42.5712 13.1266 42.713 13.2448C42.8359 13.3463 42.9357 13.4729 43.0059 13.6161C43.0729 13.7673 43.0888 13.9362 43.0512 14.0973C43.026 14.217 42.9755 14.33 42.903 14.4285C42.8264 14.5431 42.7309 14.6439 42.6206 14.7266C42.4992 14.8125 42.3659 14.8801 42.2248 14.9271C42.0732 14.9786 41.9142 15.0045 41.7541 15.0038C41.5954 15.0059 41.4374 14.9842 41.2851 14.9393C41.1412 14.8935 41.007 14.8214 40.8894 14.7266C40.7606 14.6265 40.6462 14.5092 40.5494 14.378C40.4293 14.2124 40.3226 14.0375 40.2304 13.8549L39.6568 14.2925C39.7727 14.5058 39.9216 14.6994 40.0979 14.8661Z" fill="#56835D"/>
<path d="M2 16.1353C2.78278 15.1433 4.21757 14.5855 5.40307 14.2176C6.40202 18.6737 10.3264 22 15.016 22C17.0865 21.9902 19.1016 21.3301 20.7765 20.1128C22.4514 18.8956 23.7015 17.1828 24.3501 15.2166C25.3595 14.6221 26.2678 13.4941 27.2632 12.2528C18.2238 19.7197 8.93863 4.88706 2 16.1353ZM4.7092 13.332C9.19316 10.4484 12.9257 13.6806 18.8759 14.8609C13.8358 14.4373 9.35356 10.8738 4.7092 13.332ZM7.68689 13.8236C12.3801 13.1611 15.6349 16.6723 21.2852 16.2469C20.6063 17.2905 19.6781 18.1485 18.5845 18.7436C17.4909 19.3386 16.2663 19.6519 15.0213 19.6552C13.3208 19.6465 11.6728 19.0658 10.3424 18.0068C9.01201 16.9477 8.07666 15.4718 7.68689 13.8166V13.8236ZM11.8239 20.1154C15.8337 20.7064 19.5784 20.4362 22.3888 15.9924C20.4902 20.7169 15.2845 21.409 11.8239 20.1085V20.1154Z" fill="#56835D"/>
<path d="M28.3686 14.9795C28.483 15.1184 28.6296 15.2274 28.7957 15.2968C28.9919 15.3773 29.2026 15.4165 29.4146 15.4118C29.65 15.4155 29.8847 15.3862 30.1119 15.3247C30.3106 15.2688 30.5029 15.1923 30.6855 15.0963C30.86 15.0046 31.0283 14.9015 31.1894 14.7877C31.3474 14.6715 31.5084 14.5611 31.6723 14.4565L31.5119 15.2828H32.7148L33.5935 10.7169C33.6398 10.5002 33.6452 10.2766 33.6092 10.0579C33.5759 9.86544 33.4825 9.68844 33.3424 9.55235C33.1712 9.39711 32.9648 9.28583 32.741 9.22808C32.4197 9.14355 32.0881 9.10481 31.7559 9.11302C31.4343 9.11244 31.1137 9.1493 30.8006 9.22285C30.5118 9.28829 30.232 9.38838 29.9672 9.52096C29.7384 9.63402 29.5304 9.78491 29.3518 9.96727C29.1982 10.119 29.0922 10.3123 29.0467 10.5234C29.0277 10.6158 29.0248 10.7107 29.038 10.8041C29.049 10.8846 29.0782 10.9615 29.1235 11.029C29.1679 11.0925 29.2279 11.1436 29.2978 11.1772C29.374 11.2179 29.459 11.2394 29.5454 11.2399C29.6522 11.2428 29.7582 11.2194 29.8539 11.1719C29.9376 11.1291 30.0117 11.0698 30.0719 10.9976C30.1333 10.9207 30.1816 10.8341 30.2148 10.7413C30.2508 10.6426 30.2787 10.5412 30.2985 10.438C30.3212 10.323 30.3562 10.2107 30.4031 10.1033C30.4512 9.99221 30.5211 9.892 30.6088 9.80862C30.7097 9.71639 30.8283 9.64578 30.9575 9.60116C31.1216 9.54442 31.2947 9.51784 31.4683 9.52271C31.6291 9.51965 31.7892 9.54564 31.9407 9.59942C32.0645 9.64864 32.1703 9.73438 32.2441 9.84523C32.3301 9.98349 32.3798 10.1412 32.3888 10.3037C32.4033 10.5376 32.3851 10.7723 32.3348 11.0011L32.2615 11.3777C31.9779 11.4451 31.6874 11.5183 31.3898 11.5973C31.0923 11.6764 30.8017 11.7664 30.5182 11.8675C30.2376 11.9684 29.9629 12.0848 29.6953 12.2162C29.4437 12.3369 29.2059 12.4842 28.9857 12.6556C28.7842 12.8147 28.6079 13.0034 28.4627 13.2152C28.3183 13.4249 28.2192 13.6624 28.1716 13.9125C28.1273 14.1053 28.1202 14.3047 28.1507 14.5C28.1824 14.6755 28.2573 14.8402 28.3686 14.9795ZM29.4146 13.5848C29.4453 13.436 29.5091 13.296 29.6011 13.1751C29.7068 13.0377 29.8299 12.9147 29.9672 12.809C30.1208 12.6862 30.2841 12.576 30.4554 12.4795C30.6367 12.376 30.825 12.2801 31.0202 12.1918C31.2155 12.1035 31.4131 12.0239 31.613 11.953C31.8129 11.8821 32.0041 11.8182 32.1866 11.7612L31.749 14.0171C31.6118 14.1066 31.4782 14.192 31.348 14.2734C31.2242 14.3508 31.0961 14.4212 30.9645 14.4844C30.8416 14.543 30.7138 14.5909 30.5827 14.6273C30.4538 14.6632 30.3207 14.6813 30.1869 14.6814C30.0652 14.6821 29.9453 14.6521 29.8382 14.5942C29.7324 14.5373 29.6411 14.4568 29.5715 14.3588C29.4986 14.254 29.4482 14.1353 29.4233 14.0102C29.3935 13.8718 29.3923 13.7288 29.4198 13.59L29.4146 13.5848Z" fill="#56835D"/>
<path d="M34.6482 14.8661C34.9342 15.1334 35.2936 15.3088 35.6803 15.3699C35.8573 15.3977 36.0363 15.4117 36.2155 15.4118C36.5692 15.4166 36.9217 15.369 37.2615 15.2706C37.5469 15.188 37.8163 15.0578 38.0582 14.8853C38.2745 14.729 38.4586 14.5325 38.6004 14.3065C38.7378 14.087 38.8336 13.8441 38.8828 13.59C38.9327 13.3714 38.9243 13.1435 38.8584 12.9292C38.7955 12.7425 38.6926 12.5717 38.5568 12.4289C38.4133 12.2793 38.2489 12.1512 38.0687 12.0488C37.8804 11.9396 37.6846 11.8373 37.4812 11.742L36.8884 11.4613C36.7108 11.3779 36.542 11.2769 36.3846 11.1597C36.2509 11.062 36.1392 10.9372 36.0568 10.7936C35.9802 10.6486 35.9585 10.4808 35.9958 10.3211C36.019 10.2083 36.0686 10.1026 36.1405 10.0126C36.22 9.91097 36.3168 9.82422 36.4264 9.75627C36.5505 9.67936 36.6849 9.62065 36.8257 9.58194C36.9817 9.53826 37.1431 9.51655 37.3051 9.51743C37.6124 9.51261 37.9127 9.60945 38.1593 9.79289C38.4331 10.0125 38.6422 10.3024 38.7643 10.6314L39.2873 10.2374C39.1709 10.0326 39.0304 9.84241 38.8689 9.67085C38.7446 9.53193 38.5986 9.41417 38.4365 9.32217C38.2856 9.24158 38.1225 9.18622 37.9536 9.1583C37.7703 9.12934 37.5849 9.11534 37.3992 9.11646C37.1097 9.1151 36.8216 9.15802 36.545 9.24372C36.2881 9.32129 36.0451 9.43897 35.825 9.5924C35.6211 9.73866 35.4441 9.91915 35.3019 10.1259C35.1604 10.3282 35.063 10.5581 35.016 10.8006C34.9626 11.0217 34.9626 11.2524 35.016 11.4735C35.0684 11.6577 35.16 11.8284 35.2845 11.9738C35.4136 12.1224 35.564 12.2511 35.7308 12.3556C35.904 12.4719 36.0818 12.5747 36.2643 12.6642L36.803 12.9432C36.9682 13.0253 37.1233 13.1266 37.265 13.2448C37.3878 13.3464 37.4877 13.473 37.5579 13.6161C37.6251 13.7673 37.641 13.9362 37.6032 14.0973C37.5781 14.217 37.5276 14.33 37.455 14.4285C37.3753 14.544 37.2762 14.6448 37.1621 14.7266C37.0408 14.8125 36.9074 14.8801 36.7664 14.9271C36.6148 14.9786 36.4557 15.0045 36.2957 15.0038C36.137 15.0059 35.9789 14.9842 35.8267 14.9393C35.6858 14.8926 35.5547 14.8205 35.4397 14.7266C35.311 14.6265 35.1966 14.5092 35.0997 14.378C34.9778 14.2126 34.8694 14.0377 34.7754 13.8549L34.2001 14.2995C34.3187 14.5108 34.4699 14.702 34.6482 14.8661Z" fill="#56835D"/>
</svg>
