<svg width="60" height="24" viewBox="0 0 60 24" fill="currentBackgroundColor" xmlns="http://www.w3.org/2000/svg">
<path fill-rule="evenodd" clip-rule="evenodd" d="M32.5217 15.3913H31.3217L31.4783 14.5739C31.3217 14.6782 31.1478 14.8 30.9913 14.9043C30.8348 15.0087 30.6609 15.113 30.4869 15.2174C30.313 15.3043 30.1217 15.3913 29.913 15.4435C29.7043 15.4956 29.4783 15.5304 29.2348 15.5304C28.9913 15.5304 28.8 15.4956 28.6261 15.4087C28.4522 15.3391 28.313 15.2348 28.2087 15.0956C28.1043 14.9565 28.0348 14.8 28 14.6261C27.9652 14.4348 27.9652 14.2435 28 14.0348C28.0522 13.7739 28.1391 13.5478 28.2956 13.3391C28.4348 13.1304 28.6087 12.9391 28.8174 12.7826C29.0261 12.6261 29.2696 12.4696 29.5304 12.3478C29.7913 12.2261 30.0696 12.1043 30.3478 12C30.6261 11.8956 30.9217 11.8087 31.2174 11.7391C31.513 11.6522 31.8087 11.5826 32.087 11.513L32.1565 11.1304C32.2087 10.8522 32.2261 10.6261 32.2087 10.4348C32.1913 10.2435 32.1391 10.0869 32.0696 9.98259C31.9826 9.86086 31.8783 9.79129 31.7565 9.73912C31.6174 9.68694 31.4609 9.66955 31.2869 9.66955C31.0783 9.66955 30.9217 9.70433 30.7826 9.75651C30.6435 9.80868 30.5391 9.87825 30.4348 9.9652C30.3478 10.0522 30.2783 10.1565 30.2261 10.2609C30.1739 10.3652 30.1391 10.4869 30.1217 10.5913C30.1043 10.6956 30.0696 10.8 30.0348 10.8869C30 10.9913 29.9478 11.0609 29.8956 11.1478C29.8435 11.2174 29.7565 11.2869 29.6869 11.3217C29.6 11.3739 29.4956 11.3913 29.3739 11.3913C29.2869 11.3913 29.2 11.3739 29.1304 11.3391C29.0609 11.3043 29.0087 11.2522 28.9565 11.1826C28.9043 11.113 28.887 11.0435 28.8696 10.9565C28.8522 10.8695 28.8522 10.7826 28.887 10.6782C28.9217 10.4869 29.0261 10.2956 29.1826 10.1217C29.3391 9.94781 29.5478 9.80868 29.7913 9.66955C30.0348 9.54781 30.313 9.44346 30.6261 9.3739C30.9391 9.30433 31.2522 9.26955 31.5826 9.26955C31.9826 9.26955 32.313 9.30433 32.5565 9.39129C32.8174 9.46085 33.0087 9.58259 33.1478 9.72172C33.287 9.86085 33.3739 10.0348 33.4087 10.2261C33.4435 10.4174 33.4435 10.6435 33.3913 10.8869L32.5217 15.3913L32.5217 15.3913ZM32 11.8956C31.8261 11.9478 31.6348 12.0174 31.4261 12.0869C31.2348 12.1565 31.0261 12.2435 30.8348 12.3304C30.6435 12.4174 30.4522 12.5217 30.2783 12.6087C30.1043 12.713 29.9304 12.8174 29.7913 12.9391C29.6522 13.0608 29.5304 13.1826 29.4261 13.3043C29.3217 13.4435 29.2696 13.5652 29.2348 13.7043C29.2 13.8435 29.2 13.9826 29.2348 14.1217C29.2696 14.2609 29.3043 14.3652 29.3913 14.4695C29.4609 14.5739 29.5478 14.6435 29.6522 14.713C29.7565 14.7652 29.8782 14.8 30 14.8C30.1391 14.8 30.2609 14.7826 30.4 14.7478C30.5217 14.713 30.6609 14.6609 30.7826 14.6087C30.9043 14.5565 31.0435 14.4869 31.1652 14.4C31.2869 14.313 31.4261 14.2435 31.5652 14.1391L32 11.8956H32ZM36.0869 15.113C36.2435 15.113 36.4 15.0956 36.5565 15.0435C36.6956 14.9913 36.8348 14.9217 36.9565 14.8522C37.0782 14.7652 37.1652 14.6782 37.2522 14.5739C37.3217 14.4695 37.3739 14.3478 37.4087 14.2435C37.4435 14.0522 37.4261 13.8956 37.3565 13.7565C37.2869 13.6174 37.2 13.4956 37.0609 13.3913C36.9391 13.2869 36.7826 13.1826 36.6087 13.0956C36.4348 13.0087 36.2609 12.9217 36.0696 12.8174C35.8956 12.7304 35.7043 12.6261 35.5304 12.5043C35.3565 12.4 35.2174 12.2609 35.0782 12.1217C34.9565 11.9826 34.8696 11.8087 34.8174 11.6174C34.7652 11.4261 34.7652 11.2 34.8174 10.9565C34.8696 10.713 34.9565 10.4869 35.0956 10.2782C35.2348 10.0695 35.4087 9.89563 35.6174 9.73911C35.8261 9.58259 36.0696 9.47824 36.3304 9.39129C36.5913 9.30433 36.8869 9.26955 37.1826 9.26955C37.3739 9.26955 37.5652 9.28694 37.7391 9.30433C37.913 9.33911 38.0696 9.39129 38.2261 9.46085C38.3826 9.54781 38.5217 9.65216 38.6609 9.79128C38.8 9.93041 38.9391 10.1217 39.0609 10.3652L38.5565 10.7652C38.4 10.4 38.2087 10.1217 37.9478 9.93041C37.7043 9.73911 37.4261 9.65216 37.0956 9.65216C36.9217 9.65216 36.7652 9.66954 36.6261 9.72172C36.4696 9.7565 36.3478 9.82607 36.2261 9.89563C36.1043 9.9652 36.0174 10.0522 35.9478 10.1565C35.8782 10.2609 35.8261 10.3478 35.8087 10.4695C35.7739 10.6435 35.7913 10.8 35.8609 10.9391C35.9304 11.0782 36.0522 11.2 36.1913 11.3043C36.3304 11.4087 36.5043 11.513 36.6956 11.6C36.8869 11.6869 37.0782 11.7913 37.2869 11.8782C37.4956 11.9652 37.6869 12.0695 37.8782 12.1913C38.0696 12.2956 38.2261 12.4174 38.3652 12.5739C38.5043 12.713 38.6087 12.8869 38.6609 13.0782C38.7304 13.2695 38.7304 13.4782 38.6782 13.7391C38.6261 14 38.5391 14.2261 38.4 14.4522C38.2609 14.6782 38.0869 14.8695 37.8609 15.0261C37.6348 15.1826 37.3739 15.3217 37.0609 15.4087C36.7478 15.4956 36.4 15.5478 36.0174 15.5478C35.8435 15.5478 35.6696 15.5304 35.4782 15.513C35.3043 15.4782 35.1304 15.4261 34.9565 15.3565C34.7826 15.2695 34.6087 15.1652 34.4522 15.0261C34.2956 14.8869 34.1391 14.6956 34.0174 14.4522L34.5913 14.0174C34.6956 14.2261 34.8 14.4 34.9043 14.5391C35.0087 14.6782 35.1304 14.8 35.2348 14.8869C35.3565 14.9739 35.4782 15.0435 35.6174 15.0956C35.7565 15.0782 35.913 15.113 36.0869 15.113H36.0869ZM41.513 15.113C41.6696 15.113 41.8261 15.0956 41.9826 15.0435C42.1391 14.9913 42.2609 14.9217 42.3826 14.8522C42.5043 14.7652 42.5913 14.6782 42.6783 14.5739C42.7478 14.4695 42.8 14.3478 42.8348 14.2435C42.8696 14.0522 42.8522 13.8956 42.7826 13.7565C42.713 13.6174 42.6261 13.4956 42.4869 13.3913C42.3652 13.2869 42.2087 13.1826 42.0348 13.0956C41.8609 13.0087 41.6869 12.9217 41.4956 12.8174C41.3217 12.7304 41.1304 12.6261 40.9565 12.5043C40.7826 12.4 40.6435 12.2609 40.5043 12.1217C40.3826 11.9826 40.2956 11.8087 40.2435 11.6174C40.1913 11.4261 40.1913 11.2 40.2435 10.9565C40.2956 10.713 40.3826 10.4869 40.5217 10.2782C40.6609 10.0695 40.8348 9.89563 41.0435 9.73911C41.2522 9.58259 41.4956 9.47824 41.7565 9.39129C42.0174 9.30433 42.313 9.26955 42.6087 9.26955C42.8 9.26955 42.9913 9.28694 43.1652 9.30433C43.3391 9.33911 43.4956 9.39129 43.6522 9.46085C43.8087 9.54781 43.9478 9.65216 44.087 9.79128C44.2261 9.93041 44.3652 10.1217 44.4869 10.3652L43.9826 10.7652C43.8261 10.4 43.6348 10.1217 43.3739 9.93041C43.1304 9.73911 42.8522 9.65216 42.5217 9.65216C42.3478 9.65216 42.1913 9.66954 42.0522 9.72172C41.8956 9.7565 41.7739 9.82607 41.6522 9.89563C41.5304 9.9652 41.4435 10.0522 41.3739 10.1565C41.3043 10.2609 41.2522 10.3478 41.2348 10.4695C41.2 10.6435 41.2174 10.8 41.287 10.9391C41.3565 11.0782 41.4783 11.2 41.6174 11.3043C41.7565 11.4087 41.9304 11.513 42.1217 11.6C42.313 11.6869 42.5043 11.7913 42.713 11.8782C42.9217 11.9652 43.113 12.0695 43.3043 12.1913C43.4956 12.2956 43.6522 12.4174 43.7913 12.5739C43.9304 12.713 44.0348 12.8869 44.0869 13.0782C44.1565 13.2695 44.1565 13.4782 44.1043 13.7391C44.0522 14 43.9652 14.2261 43.8261 14.4522C43.6869 14.6782 43.513 14.8695 43.2869 15.0261C43.0609 15.1826 42.8 15.3217 42.4869 15.4087C42.1739 15.4956 41.8261 15.5478 41.4435 15.5478C41.2696 15.5478 41.0956 15.5304 40.9043 15.513C40.7304 15.4782 40.5565 15.4261 40.3826 15.3565C40.2087 15.2695 40.0348 15.1652 39.8782 15.0261C39.7217 14.8869 39.5652 14.6956 39.4435 14.4522L40.0174 14.0174C40.1217 14.2261 40.2261 14.4 40.3304 14.5391C40.4348 14.6782 40.5565 14.8 40.6609 14.8869C40.7826 14.9739 40.9043 15.0435 41.0435 15.0956C41.1826 15.0782 41.3391 15.113 41.513 15.113H41.513ZM46.1391 9.59999L47.0435 9.25216H47.3913L46.2087 15.3913H45.0261L46.1391 9.59999H46.1391ZM49.6348 15.113C49.7913 15.113 49.9478 15.0956 50.1043 15.0435C50.2435 14.9913 50.3826 14.9217 50.5043 14.8522C50.6261 14.7652 50.713 14.6782 50.8 14.5739C50.8696 14.4695 50.9217 14.3478 50.9565 14.2435C50.9913 14.0522 50.9739 13.8956 50.9043 13.7565C50.8348 13.6174 50.7478 13.4956 50.6087 13.3913C50.487 13.2869 50.3304 13.1826 50.1565 13.0956C49.9826 13.0087 49.8087 12.9217 49.6174 12.8174C49.4435 12.7304 49.2522 12.6261 49.0782 12.5043C48.9043 12.4 48.7652 12.2609 48.6261 12.1217C48.5043 11.9826 48.4174 11.8087 48.3652 11.6174C48.313 11.4261 48.313 11.2 48.3652 10.9565C48.4174 10.713 48.5043 10.4869 48.6435 10.2782C48.7826 10.0695 48.9565 9.89563 49.1652 9.73911C49.3739 9.58259 49.6174 9.47824 49.8783 9.39129C50.1391 9.30433 50.4348 9.26955 50.7304 9.26955C50.9217 9.26955 51.113 9.28694 51.2869 9.30433C51.4609 9.33911 51.6174 9.39129 51.7739 9.46085C51.9304 9.54781 52.0695 9.65216 52.2087 9.79128C52.3478 9.93041 52.4869 10.1217 52.6087 10.3652L52.1043 10.7652C51.9478 10.4 51.7565 10.1217 51.4956 9.93041C51.2521 9.73911 50.9739 9.65216 50.6435 9.65216C50.4695 9.65216 50.313 9.66954 50.1739 9.72172C50.0174 9.7565 49.8956 9.82607 49.7739 9.89563C49.6522 9.9652 49.5652 10.0522 49.4956 10.1565C49.4261 10.2609 49.3739 10.3478 49.3565 10.4695C49.3217 10.6435 49.3391 10.8 49.4087 10.9391C49.4782 11.0782 49.6 11.2 49.7391 11.3043C49.8783 11.4087 50.0522 11.513 50.2435 11.6C50.4348 11.6869 50.6261 11.7913 50.8348 11.8782C51.0435 11.9652 51.2348 12.0695 51.4261 12.1913C51.6174 12.2956 51.7739 12.4174 51.913 12.5739C52.0522 12.713 52.1565 12.8869 52.2087 13.0782C52.2782 13.2695 52.2782 13.4782 52.2261 13.7391C52.1739 14 52.0869 14.2261 51.9478 14.4522C51.8087 14.6782 51.6348 14.8695 51.4087 15.0261C51.1826 15.1826 50.9217 15.3217 50.6087 15.4087C50.2956 15.4956 49.9478 15.5478 49.5652 15.5478C49.3913 15.5478 49.2174 15.5304 49.0261 15.513C48.8522 15.4782 48.6782 15.4261 48.5043 15.3565C48.3304 15.2695 48.1565 15.1652 48 15.0261C47.8435 14.8869 47.6869 14.6956 47.5652 14.4522L48.1391 14.0174C48.2434 14.2261 48.3478 14.4 48.4522 14.5391C48.5565 14.6782 48.6782 14.8 48.7826 14.8869C48.9043 14.9739 49.0261 15.0435 49.1652 15.0956C49.3043 15.0782 49.4608 15.113 49.6348 15.113H49.6348ZM56.4348 14.6261C56.2261 14.9043 55.9652 15.113 55.6696 15.2869C55.3739 15.4435 55.0261 15.5304 54.6435 15.5304C54.4348 15.5304 54.2783 15.4956 54.1391 15.4261C54 15.3565 53.8956 15.2696 53.8261 15.1478C53.7565 15.0261 53.7043 14.8695 53.7043 14.713C53.6869 14.5391 53.7043 14.3478 53.7391 14.1391L54.5565 9.89564H53.513L53.5652 9.59998C53.8956 9.59998 54.1913 9.54781 54.4348 9.42607C54.6783 9.30433 54.8869 9.14781 55.0609 8.93912C55.2348 8.73042 55.3913 8.48694 55.5304 8.22607C55.6696 7.94781 55.7913 7.66955 55.913 7.35651H56.2609L55.8609 9.40868H57.2174L57.113 9.91302H55.7565L54.9391 14.1565C54.9217 14.2435 54.9217 14.3304 54.9391 14.4C54.9565 14.4869 54.9913 14.5391 55.0435 14.6087C55.0957 14.6609 55.1478 14.713 55.2174 14.7478C55.287 14.7826 55.3739 14.8 55.4609 14.8C55.6 14.8 55.7217 14.7652 55.8435 14.6956C55.9652 14.6261 56.0695 14.5565 56.1739 14.4522L56.4348 14.6261V14.6261Z" fill="#00692F"/>
<path fill-rule="evenodd" clip-rule="evenodd" d="M47.2003 7.40869C47.2873 7.40869 47.3742 7.42608 47.4612 7.46087C47.5308 7.49565 47.6004 7.53043 47.6526 7.5826C47.7048 7.63478 47.7396 7.70435 47.757 7.77391C47.7744 7.84347 47.7918 7.93043 47.7744 8C47.757 8.08695 47.7222 8.15652 47.67 8.22609C47.6178 8.29565 47.5482 8.36521 47.4786 8.41739C47.409 8.46956 47.3221 8.52174 47.2351 8.53913C47.1481 8.57391 47.0611 8.59131 46.9567 8.59131C46.8697 8.59131 46.7828 8.57391 46.6958 8.53913C46.6262 8.50435 46.5566 8.46956 46.5044 8.41739C46.4522 8.36521 46.4174 8.29565 46.4 8.22609C46.3826 8.15652 46.3652 8.06957 46.3826 8C46.4 7.91304 46.4348 7.84348 46.487 7.77391C46.5392 7.70435 46.6088 7.63478 46.6784 7.5826C46.748 7.53043 46.835 7.47825 46.9219 7.46087C47.0089 7.42608 47.0959 7.40869 47.2003 7.40869Z" fill="#00692F"/>
<path fill-rule="evenodd" clip-rule="evenodd" d="M32.5909 15.2348H31.3909L31.5474 14.4174C31.3909 14.5217 31.217 14.6435 31.0605 14.7478C30.9039 14.8522 30.73 14.9565 30.5561 15.0609C30.3822 15.1478 30.1909 15.2348 29.9822 15.287C29.7735 15.3391 29.5474 15.3739 29.304 15.3739C29.0605 15.3739 28.8692 15.3391 28.6953 15.2522C28.5213 15.1826 28.3822 15.0783 28.2605 14.9391C28.1561 14.8 28.0866 14.6435 28.0518 14.4696C28.017 14.2783 28.017 14.087 28.0692 13.8783C28.1213 13.6174 28.2083 13.3913 28.3648 13.1826C28.504 12.9739 28.6779 12.7826 28.8866 12.6261C29.0953 12.4696 29.3387 12.313 29.5996 12.1913C29.8605 12.0696 30.1387 11.9478 30.417 11.8435C30.6953 11.7391 30.9909 11.6522 31.2866 11.5826C31.5822 11.4957 31.8779 11.4261 32.1561 11.3565L32.2257 10.9739C32.2779 10.6957 32.2953 10.4696 32.2779 10.2783C32.2605 10.087 32.2083 9.93044 32.1387 9.82609C32.0518 9.70435 31.9474 9.63479 31.8257 9.58261C31.6866 9.53044 31.53 9.51305 31.3561 9.51305C31.1474 9.51305 30.9909 9.54783 30.8518 9.60001C30.7126 9.65218 30.6083 9.72175 30.504 9.8087C30.417 9.89566 30.3474 10 30.2953 10.1044C30.2431 10.2087 30.2083 10.3304 30.1909 10.4348C30.1735 10.5391 30.1387 10.6435 30.104 10.7304C30.0692 10.8348 30.017 10.9044 29.9648 10.9913C29.9126 11.0609 29.8257 11.1304 29.7561 11.1652C29.6692 11.2174 29.5648 11.2348 29.4431 11.2348C29.3561 11.2348 29.2692 11.2174 29.1996 11.1826C29.13 11.1478 29.0779 11.0957 29.0257 11.0261C28.9735 10.9565 28.9561 10.887 28.9387 10.8C28.9213 10.713 28.9213 10.6261 28.9561 10.5217C28.9909 10.3304 29.0953 10.1391 29.2518 9.96522C29.4083 9.79131 29.617 9.65217 29.8605 9.51305C30.104 9.3913 30.3822 9.28696 30.6953 9.21739C31.0083 9.14783 31.3213 9.11305 31.6518 9.11305C32.0518 9.11305 32.3822 9.14783 32.6257 9.23478C32.8866 9.30435 33.0779 9.42609 33.217 9.56522C33.3561 9.70435 33.4431 9.87826 33.4779 10.0696C33.5126 10.2609 33.5126 10.487 33.4605 10.7304L32.5909 15.2348V15.2348ZM32.0692 11.7391C31.8779 11.7913 31.7039 11.8609 31.4953 11.9304C31.304 12 31.0953 12.087 30.9039 12.1739C30.7126 12.2609 30.5213 12.3652 30.3474 12.4522C30.1735 12.5565 29.9996 12.6609 29.8605 12.7826C29.7213 12.9043 29.5996 13.0261 29.4953 13.1478C29.3909 13.287 29.3387 13.4087 29.3039 13.5652C29.2692 13.7043 29.2692 13.8435 29.3039 13.9826C29.3387 14.1217 29.3735 14.2261 29.4605 14.3304C29.53 14.4348 29.617 14.5043 29.7213 14.5739C29.8257 14.6261 29.9474 14.6609 30.0692 14.6609C30.2083 14.6609 30.33 14.6435 30.4692 14.6087C30.5909 14.5739 30.73 14.5217 30.8518 14.4696C30.9735 14.4174 31.1126 14.3478 31.2344 14.2609C31.3561 14.1739 31.4953 14.087 31.6344 14L32.0692 11.7391L32.0692 11.7391ZM36.1561 14.9565C36.3126 14.9565 36.4692 14.9391 36.6257 14.887C36.7822 14.8348 36.9039 14.7652 37.0257 14.6957C37.1474 14.6087 37.2344 14.5217 37.3213 14.4174C37.3909 14.313 37.4431 14.1913 37.4779 14.087C37.5126 13.8957 37.4953 13.7391 37.4257 13.6C37.3561 13.4609 37.2692 13.3391 37.13 13.2348C37.0083 13.1304 36.8518 13.0261 36.6779 12.9391C36.5039 12.8522 36.33 12.7652 36.1387 12.6609C35.9648 12.5739 35.7735 12.4696 35.5996 12.3478C35.4257 12.2435 35.2866 12.1043 35.1474 11.9652C35.0257 11.8261 34.9387 11.6522 34.8866 11.4609C34.8344 11.2696 34.8344 11.0435 34.8866 10.7826C34.9387 10.5391 35.0257 10.313 35.1648 10.1044C35.3039 9.89565 35.4779 9.72174 35.6866 9.56522C35.8953 9.4087 36.1387 9.30435 36.3996 9.21739C36.6605 9.13043 36.9561 9.09565 37.2518 9.09565C37.4431 9.09565 37.6344 9.11304 37.8083 9.13043C37.9822 9.16522 38.1387 9.21739 38.2952 9.28695C38.4518 9.37391 38.5909 9.47826 38.73 9.61739C38.8692 9.75652 39.0083 9.94783 39.13 10.1913L38.6083 10.5913C38.4518 10.2261 38.2431 9.94783 37.9996 9.75652C37.7561 9.56522 37.4605 9.47826 37.1474 9.47826C36.9735 9.47826 36.817 9.49565 36.6779 9.54782C36.5213 9.58261 36.3996 9.65217 36.2779 9.72174C36.1561 9.7913 36.0692 9.87826 35.9996 9.9826C35.93 10.087 35.8779 10.1739 35.8605 10.2957C35.8257 10.4696 35.8431 10.6261 35.9126 10.7652C35.9822 10.9043 36.104 11.0261 36.2431 11.1304C36.3822 11.2348 36.5561 11.3391 36.7474 11.4261C36.9387 11.513 37.13 11.6174 37.3387 11.7043C37.5474 11.7913 37.7387 11.8956 37.93 12.0174C38.1213 12.1217 38.2779 12.2435 38.417 12.4C38.5561 12.5391 38.6605 12.713 38.7126 12.9043C38.7822 13.0956 38.7822 13.3043 38.73 13.5652C38.6779 13.8261 38.5909 14.0522 38.4518 14.2783C38.3126 14.5043 38.1387 14.6957 37.9126 14.8522C37.6866 15.0087 37.4257 15.1478 37.1126 15.2348C36.7996 15.3217 36.4518 15.3739 36.0692 15.3739C35.8952 15.3739 35.7213 15.3565 35.53 15.3391C35.3561 15.3043 35.1822 15.2522 35.0083 15.1826C34.8344 15.0957 34.6605 14.9913 34.5039 14.8348C34.3474 14.6957 34.1909 14.5043 34.0692 14.2609L34.6431 13.8261C34.7474 14.0348 34.8518 14.2087 34.9561 14.3478C35.0605 14.487 35.1822 14.6087 35.2866 14.6957C35.4083 14.7826 35.53 14.8522 35.6692 14.9044C35.8257 14.9391 35.9822 14.9565 36.1561 14.9565H36.1561ZM41.5822 14.9565C41.7387 14.9565 41.8953 14.9391 42.0518 14.887C42.2083 14.8348 42.33 14.7652 42.4518 14.6957C42.5735 14.6087 42.6605 14.5217 42.7474 14.4174C42.817 14.313 42.8692 14.1913 42.9039 14.087C42.9387 13.8957 42.9213 13.7391 42.8518 13.6C42.7822 13.4609 42.6953 13.3391 42.5561 13.2348C42.4344 13.1304 42.2779 13.0261 42.104 12.9391C41.93 12.8522 41.7561 12.7652 41.5648 12.6609C41.3909 12.5739 41.1996 12.4696 41.0257 12.3478C40.8518 12.2435 40.7126 12.1043 40.5735 11.9652C40.4518 11.8261 40.3648 11.6522 40.3126 11.4609C40.2605 11.2696 40.2605 11.0435 40.3126 10.7826C40.3648 10.5391 40.4518 10.313 40.5909 10.1044C40.73 9.89565 40.9039 9.72174 41.1126 9.56522C41.3213 9.4087 41.5648 9.30435 41.8257 9.21739C42.0866 9.13043 42.3822 9.09565 42.6779 9.09565C42.8692 9.09565 43.0605 9.11304 43.2344 9.13043C43.4083 9.16522 43.5648 9.21739 43.7213 9.28695C43.8779 9.37391 44.017 9.47826 44.1561 9.61739C44.2953 9.75652 44.4344 9.94783 44.5561 10.1913L44.0344 10.5913C43.8779 10.2261 43.6692 9.94783 43.4257 9.75652C43.1822 9.56522 42.8866 9.47826 42.5735 9.47826C42.3996 9.47826 42.2431 9.49565 42.104 9.54782C41.9474 9.58261 41.8257 9.65217 41.704 9.72174C41.5822 9.7913 41.4953 9.87826 41.4257 9.9826C41.3561 10.087 41.3039 10.1739 41.2866 10.2957C41.2518 10.4696 41.2692 10.6261 41.3387 10.7652C41.4083 10.9043 41.53 11.0261 41.6692 11.1304C41.8083 11.2348 41.9822 11.3391 42.1735 11.4261C42.3648 11.513 42.5561 11.6174 42.7648 11.7043C42.9735 11.7913 43.1648 11.8956 43.3561 12.0174C43.5474 12.1217 43.7039 12.2435 43.8431 12.4C43.9822 12.5391 44.0866 12.713 44.1387 12.9043C44.2083 13.0956 44.2083 13.3043 44.1561 13.5652C44.1039 13.8261 44.017 14.0522 43.8779 14.2783C43.7387 14.5043 43.5648 14.6957 43.3387 14.8522C43.1126 15.0087 42.8518 15.1478 42.5387 15.2348C42.2257 15.3217 41.8779 15.3739 41.4953 15.3739C41.3213 15.3739 41.1474 15.3565 40.9561 15.3391C40.7822 15.3043 40.6083 15.2522 40.4344 15.1826C40.2605 15.0957 40.0866 14.9913 39.93 14.8348C39.7735 14.6957 39.617 14.5043 39.4953 14.2609L40.0692 13.8261C40.1735 14.0348 40.2779 14.2087 40.3822 14.3478C40.4866 14.487 40.6083 14.6087 40.7126 14.6957C40.8344 14.7826 40.9561 14.8522 41.0953 14.9044C41.2692 14.9391 41.4083 14.9565 41.5822 14.9565H41.5822ZM46.2257 9.44348L47.13 9.09565H47.4779L46.2779 15.2348H45.0953L46.2257 9.44348ZM49.7213 14.9565C49.8779 14.9565 50.0344 14.9391 50.1909 14.887C50.3474 14.8348 50.4692 14.7652 50.5909 14.6957C50.7126 14.6087 50.7996 14.5217 50.8866 14.4174C50.9561 14.313 51.0083 14.1913 51.0431 14.087C51.0779 13.8957 51.0605 13.7391 50.9909 13.6C50.9213 13.4609 50.8344 13.3391 50.6953 13.2348C50.5735 13.1304 50.417 13.0261 50.2431 12.9391C50.0692 12.8522 49.8953 12.7652 49.7039 12.6609C49.53 12.5739 49.3387 12.4696 49.1648 12.3478C48.9909 12.2435 48.8518 12.1043 48.7126 11.9652C48.5909 11.8261 48.504 11.6522 48.4518 11.4609C48.3996 11.2696 48.3996 11.0435 48.4518 10.7826C48.504 10.5391 48.5909 10.313 48.73 10.1044C48.8692 9.89565 49.0431 9.72174 49.2518 9.56522C49.4605 9.4087 49.704 9.30435 49.9648 9.21739C50.2257 9.13043 50.5213 9.09565 50.817 9.09565C51.0083 9.09565 51.1996 9.11304 51.3735 9.13043C51.5474 9.16522 51.704 9.21739 51.8605 9.28695C52.017 9.37391 52.1561 9.47826 52.2952 9.61739C52.4344 9.75652 52.5735 9.94783 52.6953 10.1913L52.1735 10.5913C52.017 10.2261 51.8083 9.94783 51.5648 9.75652C51.3213 9.56522 51.0257 9.47826 50.7126 9.47826C50.5387 9.47826 50.3822 9.49565 50.2431 9.54782C50.0866 9.58261 49.9648 9.65217 49.8431 9.72174C49.7213 9.7913 49.6344 9.87826 49.5648 9.9826C49.4952 10.087 49.4431 10.1739 49.4257 10.2957C49.3909 10.4696 49.4083 10.6261 49.4779 10.7652C49.5474 10.9043 49.6692 11.0261 49.8083 11.1304C49.9474 11.2348 50.1213 11.3391 50.3127 11.4261C50.5039 11.513 50.6953 11.6174 50.9039 11.7043C51.1126 11.7913 51.3039 11.8956 51.4953 12.0174C51.6865 12.1217 51.8431 12.2435 51.9822 12.4C52.1213 12.5391 52.2257 12.713 52.2779 12.9043C52.3474 13.0956 52.3474 13.3043 52.2952 13.5652C52.2431 13.8261 52.1561 14.0522 52.017 14.2783C51.8779 14.5043 51.704 14.6957 51.4779 14.8522C51.2518 15.0087 50.9909 15.1478 50.6779 15.2348C50.3648 15.3217 50.017 15.3739 49.6344 15.3739C49.4605 15.3739 49.2865 15.3565 49.0953 15.3391C48.9213 15.3043 48.7474 15.2522 48.5735 15.1826C48.3996 15.0957 48.2257 14.9913 48.0692 14.8348C47.9126 14.6957 47.7561 14.5043 47.6344 14.2609L48.2083 13.8261C48.3127 14.0348 48.417 14.2087 48.5213 14.3478C48.6257 14.487 48.7474 14.6087 48.8518 14.6957C48.9735 14.7826 49.0953 14.8522 49.2344 14.9044C49.3909 14.9391 49.5474 14.9565 49.7213 14.9565ZM56.5213 14.4696C56.3127 14.7478 56.0518 14.9565 55.7561 15.1304C55.4605 15.287 55.1126 15.3739 54.73 15.3739C54.5213 15.3739 54.3648 15.3391 54.2257 15.2696C54.0866 15.2 53.9822 15.113 53.9126 14.9913C53.8431 14.8696 53.7909 14.713 53.7909 14.5565C53.7735 14.3826 53.7909 14.1913 53.8257 13.9826L54.6431 9.73913H53.5996L53.6518 9.44348C53.9822 9.44348 54.2779 9.3913 54.5213 9.26957C54.7648 9.14783 54.9735 8.9913 55.1474 8.78261C55.3213 8.57391 55.4779 8.33044 55.617 8.06957C55.7561 7.7913 55.8779 7.51304 55.9996 7.2H56.3474L55.9474 9.25217H57.304L57.1996 9.75652H55.8431L55.0257 14C55.0083 14.087 55.0083 14.1739 55.0257 14.2609C55.0431 14.3478 55.0779 14.4 55.13 14.4696C55.1822 14.5217 55.2344 14.5739 55.3039 14.6087C55.3735 14.6435 55.4605 14.6609 55.5474 14.6609C55.6866 14.6609 55.8083 14.6261 55.93 14.5565C56.0518 14.487 56.1735 14.4174 56.2605 14.313L56.5213 14.4696V14.4696ZM14.9387 2C19.617 2 23.5126 5.32174 24.5213 9.75652C25.7039 9.3913 27.13 8.83478 27.9126 7.84348C20.9909 19.0435 11.7387 4.27826 2.74743 11.7217C3.73873 10.487 4.64308 9.35652 5.65178 8.76522C6.97352 4.83478 10.6257 2 14.9387 2V2ZM22.2431 10.1565C21.4431 6.81739 18.4692 4.34783 14.9387 4.34783C12.33 4.34783 10.0518 5.70435 8.69526 7.73913C14.33 7.32174 17.5822 10.8174 22.2431 10.1565ZM14.9561 21.9304C19.2692 21.9304 22.9387 19.113 24.2605 15.1826C25.2692 14.5913 26.1735 13.4609 27.1648 12.2261C18.1561 19.6696 8.90395 4.88696 1.9996 16.1043C2.78221 15.113 4.2083 14.5565 5.39091 14.1913C6.36482 18.6087 10.2779 21.9304 14.9561 21.9304ZM7.65178 13.7739C8.45178 17.113 11.4257 19.5826 14.9561 19.5826C17.5648 19.5826 19.8431 18.2261 21.1996 16.1913C15.5648 16.6261 12.33 13.113 7.65178 13.7739ZM5.30395 9.28695C9.93004 6.83478 14.3996 10.4 19.4257 10.8174C13.4953 9.63478 9.77352 6.41739 5.30395 9.28695ZM4.67786 13.287C9.30395 10.8348 13.7735 14.4 18.7996 14.8174C12.8692 13.6348 9.14743 10.4174 4.67786 13.287ZM11.7735 20.0522C15.217 21.3565 20.33 20.9391 22.2257 16.2261C19.4257 20.6435 15.7735 20.6435 11.7735 20.0522ZM18.0866 3.23478C14.6431 1.93043 9.44308 2.62609 7.56482 7.33913C10.3648 2.90435 14.0866 2.64348 18.0866 3.23478ZM47.2866 7.18261C47.3735 7.18261 47.4605 7.2 47.5474 7.23478C47.617 7.26956 47.6865 7.30435 47.7387 7.35652C47.7909 7.40869 47.8257 7.47826 47.8431 7.54782C47.8605 7.61739 47.8779 7.70434 47.8605 7.77391C47.8431 7.86087 47.8083 7.93043 47.7561 8C47.704 8.06956 47.6344 8.13913 47.5648 8.1913C47.4953 8.24348 47.4083 8.29565 47.3213 8.31304C47.2344 8.34783 47.1474 8.36521 47.0431 8.36521C46.9561 8.36521 46.8692 8.34783 46.7822 8.31304C46.7126 8.27826 46.6431 8.24348 46.5909 8.1913C46.5387 8.13913 46.5039 8.06957 46.4865 8C46.4692 7.93043 46.4518 7.84348 46.4692 7.77391C46.4866 7.68695 46.5213 7.61739 46.5735 7.54782C46.6257 7.47826 46.6953 7.40869 46.7648 7.35652C46.8344 7.30435 46.9213 7.25217 47.0083 7.23478C47.1126 7.2 47.1996 7.18261 47.2866 7.18261Z" fill="#00692F"/>
<path fill-rule="evenodd" clip-rule="evenodd" d="M22.0348 16.087C15.0261 17.1826 12.4696 12.2435 5.66957 14.1218C4.60871 14.4174 2.86957 15.0435 2.03479 16.0174C8.97392 4.73045 18.1565 19.8957 27.2522 12.0696C26.2261 14.1044 24.3478 15.6174 22.0348 16.087ZM11.3391 12.6087C9.2174 11.9652 7.56523 11.8435 5.30436 13.0087C9.63479 11.1826 14 14.3304 18.5913 14.8C14.8348 14.0174 13.8783 13.3739 11.3391 12.6087Z" fill="#CB1F13"/>
</svg>
