<svg width="98" height="24" viewBox="0 0 98 24" fill="currentBackgroundColor" xmlns="http://www.w3.org/2000/svg">
    <path d="M36.0841 12.9418C36.0841 15.3982 34.2695 17.1314 31.7316 17.1314C29.339 17.1314 27.3632 15.5744 27.3632 12.5081V10.9988C27.3632 8.04495 28.7928 5.89836 31.4422 5.40089L35.3565 4.91492V6.4879L31.8113 6.90925C30.2056 7.23057 29.2257 8.25651 29.1292 10.3916C29.7391 9.1718 30.9279 8.84693 32.0202 8.84693C34.366 8.84782 36.0841 10.5014 36.0841 12.9418ZM34.2854 12.9259C34.2854 11.4494 33.2258 10.3898 31.7485 10.3898C30.2551 10.3898 29.1956 11.4494 29.1956 12.9259C29.1956 14.4351 30.2551 15.4779 31.7485 15.4779C33.2258 15.4779 34.2854 14.4343 34.2854 12.9259Z" fill="#002E8D"/>
    <path d="M45.6389 13.4234C45.6451 13.1605 45.6389 12.9091 45.6212 12.6665C45.4167 9.96582 43.7047 8.4787 41.3864 8.4787C38.9097 8.4787 37.134 10.3562 37.134 12.8294C37.134 15.4283 38.9884 17.1474 41.5157 17.1474C43.3834 17.1474 44.8688 16.055 45.3831 14.652H43.61C43.2011 15.2061 42.5088 15.6231 41.5307 15.6231C40.1551 15.6231 39.0849 14.7228 38.9725 13.4234H45.6389ZM38.9743 12.0265C39.069 10.8395 40.0772 9.97201 41.3873 9.97201C42.7478 9.97201 43.7056 10.8545 43.7543 12.0265H38.9743Z" fill="#002E8D"/>
    <path d="M46.2559 15.3974C46.8985 15.3655 47.5721 15.0123 47.5721 13.6801V8.65576H54.1128V16.9872H52.2982V10.2934H49.3558V13.7129C49.3558 16.0241 47.9908 17.0677 46.2399 17.0359L46.2559 15.3974Z" fill="#002E8D"/>
    <path d="M59.0716 12.5408L63.0647 8.65485H60.9509L58.7432 10.7979L57.5004 12.0044V8.65485H57.4721H55.792H55.6849V16.9863H55.792H57.4721H57.5004V13.079L58.7237 14.4555L60.9677 16.9863H63.0798L59.0716 12.5408Z" fill="#002E8D"/>
    <path d="M70.326 8.64688L70.1055 9.88438C69.3903 9.00981 68.1608 8.48578 67.0543 8.48578C67.041 8.48578 67.0295 8.48755 67.0162 8.48755C66.9968 8.48755 66.9782 8.48578 66.9578 8.48578C65.7548 8.48578 64.7758 8.92572 64.0747 9.64184C64.0411 9.67547 64.0057 9.70911 63.9729 9.74363C63.9535 9.76488 63.9349 9.78878 63.9163 9.81091C63.2409 10.5748 62.8629 11.6149 62.8629 12.8037C62.8629 12.809 62.8638 12.8144 62.8638 12.8197C62.8638 12.825 62.8629 12.8303 62.8629 12.8356C62.8629 14.0244 63.2409 15.0654 63.9163 15.8284C63.9358 15.8506 63.9535 15.8736 63.9729 15.8957C64.0057 15.9311 64.0411 15.9639 64.0747 15.9975C64.7758 16.7136 65.7548 17.1536 66.9578 17.1536C66.9773 17.1536 66.9968 17.1518 67.0162 17.1518C67.0295 17.1518 67.041 17.1536 67.0543 17.1536C68.1608 17.1536 69.3903 16.6295 70.1055 15.755V16.9925H71.952V16.9765V8.6637V8.64777H70.326V8.64688ZM67.4234 15.4859C65.8495 15.4859 64.7254 14.3785 64.7254 12.8214C64.7254 11.2644 65.8495 10.157 67.4234 10.157C68.9814 10.157 70.0896 11.3131 70.0896 12.8214C70.0896 14.3298 68.9814 15.4859 67.4234 15.4859Z" fill="#002E8D"/>
    <path d="M73.5206 8.64691V8.66285V20.7289V20.7448H75.3671V15.7559C76.0823 16.6304 77.3118 17.1545 78.4183 17.1545C78.4316 17.1545 78.4431 17.1527 78.4564 17.1527C78.4759 17.1527 78.4945 17.1545 78.5148 17.1545C79.7178 17.1545 80.6968 16.7145 81.3979 15.9984C81.4315 15.9648 81.4669 15.9311 81.4997 15.8966C81.5191 15.8754 81.5377 15.8515 81.5563 15.8293C82.2317 15.0654 82.6097 14.0253 82.6097 12.8365C82.6097 12.8312 82.6088 12.8259 82.6088 12.8206C82.6088 12.8153 82.6097 12.81 82.6097 12.8047C82.6097 11.6158 82.2317 10.5749 81.5563 9.81182C81.5369 9.78969 81.5191 9.76668 81.4997 9.74455C81.4669 9.70914 81.4315 9.67639 81.3979 9.64275C80.6968 8.92663 79.7178 8.48669 78.5148 8.48669C78.4953 8.48669 78.4759 8.48846 78.4564 8.48846C78.4431 8.48846 78.4316 8.48669 78.4183 8.48669C77.3118 8.48669 76.0823 9.01073 75.3671 9.88529L75.1467 8.6478H73.5206V8.64691ZM75.3839 12.8206C75.3839 11.3113 76.4922 10.1562 78.0501 10.1562C79.624 10.1562 80.7481 11.2635 80.7481 12.8206C80.7481 14.3776 79.624 15.485 78.0501 15.485C76.4922 15.4859 75.3839 14.3298 75.3839 12.8206Z" fill="#002E8D"/>
    <path d="M96.3612 11.7902V16.9978H94.5279V12.2558C94.5279 10.7448 93.7561 10.0694 92.7266 10.0694C91.6652 10.0694 90.8615 10.7767 90.8615 12.2558V16.9978H89.0283V12.2558C89.0283 10.7448 88.2404 10.0694 87.2428 10.0694C86.1656 10.0694 85.3618 10.7767 85.3618 12.2558V16.9978H83.5126V8.65577H85.1255L85.3344 9.85874C85.8168 9.00719 86.6161 8.47961 87.8545 8.47961C88.9796 8.47961 89.9019 8.94257 90.4003 9.85874C90.9473 9.00719 91.8582 8.47961 93.209 8.47961C95.0909 8.47873 96.3612 9.74898 96.3612 11.7902Z" fill="#002E8D"/>
    <path d="M10.9377 17.7281L7.68104 20.9219C7.4624 21.1361 7.46594 21.4105 7.54118 21.5964C7.61642 21.7823 7.80674 21.9805 8.11213 21.9814L13.8429 22C14.2837 22.0018 14.6493 21.6442 14.6572 21.2025C14.6572 21.1794 14.6581 21.1555 14.6581 21.1316C14.6617 19.8764 14.1633 18.6478 13.2843 17.7511C12.6425 17.0978 11.5909 17.0872 10.9377 17.7281Z" fill="#32A8FF"/>
    <path d="M7.19861 15.2991L2.63722 15.2548C2.33183 15.2522 2.13975 15.4478 2.06185 15.6328C1.98395 15.8178 1.97776 16.0922 2.19286 16.3091L6.23198 20.3739C6.54268 20.6864 7.05432 20.6917 7.37122 20.3863C7.38804 20.3704 7.40486 20.3535 7.42168 20.3367C8.31218 19.4515 8.82824 18.2309 8.84064 16.9748C8.84949 16.0595 8.11301 15.308 7.19861 15.2991Z" fill="#32A8FF"/>
    <path d="M2.79744 14.6564C2.82134 14.6564 2.84436 14.6573 2.86826 14.6573C4.12346 14.6609 5.3521 14.1625 6.2488 13.2835C6.90207 12.6435 6.9118 11.591 6.27181 10.9377L3.07805 7.68113C2.86383 7.46249 2.58942 7.46603 2.40353 7.54127C2.21764 7.61652 2.01936 7.80683 2.01847 8.11222L1.99988 13.8421C1.99811 14.2829 2.35573 14.6485 2.79744 14.6564Z" fill="#32A8FF"/>
    <path d="M3.66315 7.42177C4.54834 8.31227 5.76902 8.82834 7.0251 8.84073C7.93951 8.84958 8.69103 8.1131 8.69988 7.1987L8.74414 2.63732C8.7468 2.33193 8.55117 2.13984 8.36617 2.06194C8.18116 1.98405 7.90675 1.97785 7.68988 2.19295L3.62597 6.23207C3.3135 6.54277 3.30819 7.05441 3.61358 7.37131C3.6304 7.38813 3.64633 7.40495 3.66315 7.42177Z" fill="#32A8FF"/>
    <path d="M13.0612 6.27193L16.3178 3.07817C16.5365 2.86395 16.5329 2.58954 16.4577 2.40365C16.3825 2.21776 16.1922 2.01948 15.8868 2.0186L10.1569 2.00001C9.7161 1.99824 9.35051 2.35585 9.34255 2.79756C9.34255 2.82146 9.34166 2.84448 9.34166 2.86838C9.33812 4.12358 9.83648 5.35222 10.7155 6.24892C11.3564 6.90219 12.4088 6.91193 13.0612 6.27193Z" fill="#32A8FF"/>
    <path d="M16.8011 8.70001L21.3625 8.74427C21.6679 8.74692 21.86 8.55129 21.9379 8.36629C22.0158 8.18128 22.022 7.90688 21.8069 7.69L17.7677 3.62521C17.457 3.31274 16.9454 3.30743 16.6285 3.61282C16.6117 3.62875 16.5949 3.64557 16.5781 3.66239C15.6876 4.54758 15.1715 5.76826 15.1591 7.02434C15.1494 7.94051 15.8867 8.69115 16.8011 8.70001Z" fill="#32A8FF"/>
    <path d="M21.2023 9.34264C21.1784 9.34264 21.1554 9.34175 21.1315 9.34175C19.8763 9.33821 18.6477 9.83658 17.751 10.7156C17.0977 11.3556 17.0879 12.4081 17.7279 13.0613L20.9217 16.3179C21.1359 16.5366 21.4103 16.533 21.5962 16.4578C21.7821 16.3826 21.9804 16.1922 21.9813 15.8869L21.9999 10.1561C22.0008 9.71619 21.6431 9.35061 21.2023 9.34264Z" fill="#32A8FF"/>
    <path d="M20.3357 16.5782C19.4505 15.6877 18.2299 15.1717 16.9738 15.1593C16.0594 15.1504 15.3078 15.8869 15.299 16.8013L15.2547 21.3627C15.2521 21.6681 15.4477 21.8601 15.6327 21.938C15.8177 22.0159 16.0921 22.0221 16.309 21.807L20.3738 17.7679C20.6863 17.4572 20.6916 16.9456 20.3862 16.6287C20.3694 16.6119 20.3525 16.5942 20.3357 16.5782Z" fill="#32A8FF"/>
</svg>
