<svg width="124" height="24" viewBox="0 0 124 24" fill="currentBackgroundColor" xmlns="http://www.w3.org/2000/svg">
  <path fill-rule="evenodd" clip-rule="evenodd" d="M3 12C3 17.5155 7.48454 22 13 22C18.5155 22 23.0052 17.5155 23.0052 12C23.0052 6.48454 18.5155 2 13 2C7.48454 2 3 6.48454 3 12ZM3.34536 12C3.34536 6.67526 7.68041 2.34536 13 2.34536C18.3247 2.34536 22.6546 6.67526 22.6546 12.0052C22.6546 17.3299 18.3247 21.6598 13 21.6598C7.68041 21.6546 3.34536 17.3247 3.34536 12Z" fill="#0057B6"/>
  <path fill-rule="evenodd" clip-rule="evenodd" d="M6.1134 9.25774C8.6701 7.58248 11.5 6.6031 16.2887 7.433C16.5515 7.27836 16.6959 7.13918 16.768 6.81959C15.5722 6.38661 14.2732 6.23712 12.5979 6.26289C11.0876 6.30413 8.37629 6.86599 6.92784 7.72166L7.37114 7.17011C8.3866 6.57733 11.0258 5.78867 13.0052 5.74743C14.4021 5.72166 15.1289 5.79898 16.7887 6.24743C16.6443 5.96392 16.299 5.81959 15.799 5.59279C14.1907 4.87114 11.1907 4.80413 8.73196 5.8866C9.04124 5.68557 9.34536 5.49485 9.74742 5.30929C10.5567 4.93815 11.8814 4.58248 13.5464 4.60825C14.8711 4.62887 16.4433 5.09279 17.4072 6.0464C17.567 6.23712 17.6598 6.43815 17.701 6.59794C18.4639 6.98454 18.9072 7.34537 19.1546 7.7732C19.2577 7.9897 19.299 8.23197 19.2526 8.50001C19.5722 8.69073 19.7217 8.84537 19.8763 9.06186C19.9897 9.23712 20.0722 9.433 20.0928 9.61341C20.1237 9.85052 20.1546 10.1186 19.9021 10.433C20.165 10.5619 20.3711 10.9227 20.4021 11.0825C20.5206 11.6598 20.1546 12.2165 19.665 12.6546C19.1031 13.1443 17.866 13.732 16.8557 13.9897C14.8505 14.4949 13.0825 14.7062 11.6753 14.9639C12.3041 15.1134 13.1598 15.3196 14.567 15.3196C17.5515 15.3196 20.1959 13.9072 20.1959 13.9072C20.1959 13.9072 20.134 14.0928 20.0773 14.2526C18.1804 15.4021 15.1598 15.8866 13.8711 15.8247C12.5619 15.7629 11.4588 15.567 10.3814 15.2371C10.0515 15.3247 9.72681 15.4278 9.41237 15.567C11.0515 16.3144 12.2938 16.4794 13.6959 16.5825C15.1237 16.6907 17.4948 16.3454 19.4948 15.6186C19.4021 15.7113 19.3557 15.8557 19.2629 15.9382C18.2423 16.4742 16.0722 17.0155 14.9845 17.0619C13.9021 17.1083 12.5773 17.067 11.433 16.8505C10.4433 16.6598 9.63918 16.3454 8.79382 15.9742C8.63918 16.0825 8.56186 16.2371 8.53608 16.3969C11.8299 18.1186 14.9124 18.1546 18.4227 17.067L18.1031 17.3763C14.2423 18.9382 11.2217 18.3351 8.88145 17.2062C8.80413 17.1753 8.71134 17.134 8.64433 17.0928C8.86083 17.4691 10.6443 18.7732 12.6392 18.9382C14.0155 19.0516 15.6959 18.8144 16.6907 18.4175L16.1082 18.7217C15.6237 18.9588 14.3454 19.4949 12.5567 19.3763C10.1753 19.2165 8.83505 18.165 8.23196 17.6083C7.95361 17.3505 7.81959 17.0516 7.73712 16.6856C7.20103 16.4021 6.86083 16.1134 6.57732 15.6753C6.41237 15.4175 6.4433 15.1289 6.48969 14.8866C6.5 14.8093 6.52062 14.7423 6.55155 14.6701C6.29382 14.4845 6.03093 14.2835 5.91753 14.0773C5.68041 13.6546 5.8299 13.2887 5.98969 13.0052C5.84536 12.8454 5.7165 12.6804 5.6598 12.5206C5.59794 12.3247 5.58763 12.1392 5.60309 11.933C5.64949 11.5773 5.84021 11.2474 6.08248 10.9639C6.60309 10.366 7.42268 9.89691 8.82474 9.433C10.1959 8.97939 10.7474 8.91238 11.7835 8.67011C12.9897 8.39176 14.4381 8.29898 15.6443 7.8763C12.2784 7.30413 8.77835 7.84021 5.92268 9.80929L6.1134 9.25774ZM17.5979 7.18042C17.5567 7.34537 17.3763 7.53609 17.2526 7.67011C17.6186 7.76805 17.9897 7.90207 18.3454 8.03609C18.3041 7.71135 17.9227 7.39176 17.5979 7.18042ZM7.21134 13.9175C6.99485 13.799 6.84536 13.7113 6.66495 13.5876C6.56701 13.799 6.75258 14.0361 6.94846 14.1495C7.03093 14.0619 7.12887 13.9949 7.21134 13.9175ZM18.5773 9.51032C18.8196 9.62887 19.0361 9.72166 19.2474 9.86599C19.4021 9.57733 19.3093 9.38661 18.9897 9.11856C18.866 9.26289 18.7268 9.39176 18.5773 9.51032ZM17.8557 9.95362C17.366 10.1804 16.6546 10.4175 15.6443 10.6701C14.8196 10.8763 12.7938 11.165 10.6237 11.6392C9.93299 11.7887 8.07732 12.2268 7.1598 13.0052C7.41753 13.2113 7.57217 13.2629 7.85567 13.4175C8.23712 13.1753 8.74742 12.9433 9.51031 12.7423C10.8454 12.3866 11.8351 12.232 13.0361 12.0412C14.2268 11.8557 16.4639 11.3866 17.701 10.9433C18.1031 10.799 18.4794 10.6134 18.7577 10.3918C18.6804 10.299 17.8814 9.91753 17.8557 9.95362ZM8.47423 15.134C8.65464 15.0258 8.87629 14.9175 9.12887 14.8144C8.78351 14.6701 8.42784 14.5155 8.06186 14.3454C7.89691 14.4485 7.75258 14.5567 7.63918 14.665C7.91753 14.8299 8.19588 14.9897 8.47423 15.134ZM7.3299 15.2526C7.32474 15.4742 7.45876 15.6753 7.75773 15.9175C7.79382 15.799 7.85052 15.7062 7.93815 15.5928C7.73196 15.4845 7.52577 15.3711 7.3299 15.2526ZM9.01031 11.1289C11.4485 10.4124 14.0103 10.1959 16.6031 9.50516C15.5876 9.23197 15.0361 9.11856 13.9639 9.24228C12.4072 9.42784 10.6959 9.76289 9.23196 10.1959C8.6598 10.3711 5.63402 11.2217 6.50516 12.4227C6.51031 12.4382 7.03093 11.7113 9.01031 11.1289ZM18.1598 8.63403C17.7629 8.45877 17.268 8.27836 16.7371 8.13918C16.5 8.3299 16.2268 8.49485 15.8351 8.64434C16.4948 8.76289 16.9897 8.94331 17.5412 9.1031C17.6443 9.15465 18.0928 8.73197 18.1598 8.63403ZM19.366 10.9845C19.2887 11.0464 19.2113 11.1134 19.1186 11.1804C18.567 11.6083 17.6959 11.9485 16.4845 12.268C13.9742 12.9433 12.1495 13.0412 10.0773 13.5516C9.67526 13.6495 9.25258 13.7887 8.86083 13.9485C9.25258 14.1443 9.6701 14.3247 10.0979 14.4897C10.9381 14.2474 11.3454 14.1392 12.5619 13.933C13.0258 13.8557 14.4588 13.6031 15.4897 13.3866C17.3557 12.9794 20.0928 12.1134 19.366 10.9845Z" fill="#0057B6"/>
  <path d="M69.268 10.0361C69.1649 10.5928 69.0206 10.6856 68.6907 10.6856C68.5464 10.6856 68.4072 10.6495 68.2062 10.5051L68.0979 12.3505C68.3453 12.5051 68.8041 12.5309 69.067 12.5309C69.835 12.5309 70.4123 11.7577 70.6855 10.902L72.9175 3.75772H71.2474L70.5154 6.60308C70.3866 7.08762 70.2525 7.60308 70.1391 8.26803H70.0979C70.0618 7.567 69.9433 7.09792 69.835 6.68555L69.0154 3.75256H67.1649L69.268 10.0361Z" fill="#0057B6"/>
  <path d="M34.201 12.3505H32.1392L30.3144 8.61339H30.2989V12.3505H28.6288V3.76288H30.2989V7.29896H30.3144L32.1237 3.76288H34.0567L31.8402 7.82989L34.201 12.3505Z" fill="#0057B6"/>
  <path fill-rule="evenodd" clip-rule="evenodd" d="M36.6237 12.3505H34.9536V3.76288H37.6443C38.8711 3.76288 39.7577 4.56185 39.7577 6.48968C39.7577 7.98453 39.1701 9.40721 37.6701 9.40721H36.6237V12.3505ZM37.3608 5.4536H36.5876V7.68556H37.3814C37.8454 7.68556 38.1546 7.2268 38.1546 6.55154C38.1546 5.97422 37.8815 5.4536 37.3608 5.4536Z" fill="#0057B6"/>
  <path d="M40.6443 12.3505H44.9536V10.5928H42.2784V8.87628H44.7062V7.11855H42.2784V5.52577H44.8608V3.76288H40.6443V12.3505Z" fill="#0057B6"/>
  <path fill-rule="evenodd" clip-rule="evenodd" d="M47.1185 14.4021H45.7886V10.5928H46.4123C46.9587 9.72164 47.0361 9.51546 47.2474 3.76288H51.6804V10.5876H52.4123V14.4021H51.0824V12.3505H47.1185V14.4021ZM50.0103 5.52577H48.6959C48.567 9.26288 48.4587 9.86597 48 10.5928H50.0103V5.52577Z" fill="#0057B6"/>
  <path d="M53.2268 12.3505H54.9845L56.9897 7.40721V12.3505H58.6598V3.76288H56.9021L54.8969 8.71133V3.76288H53.2268V12.3505Z" fill="#0057B6"/>
  <path d="M61 5.57216H59.433V3.76288H64.2371V5.57216H62.6701V12.3505H61V5.57216Z" fill="#0057B6"/>
  <path fill-rule="evenodd" clip-rule="evenodd" d="M75.335 12.3505H73.6649V3.76288H76.3556C77.5824 3.76288 78.469 4.56185 78.469 6.48968C78.469 7.98453 77.8814 9.40721 76.3814 9.40721H75.335V12.3505ZM76.0721 5.4536H75.2989V7.68556H76.0928C76.5567 7.68556 76.866 7.2268 76.866 6.55154C76.866 5.97422 76.5928 5.4536 76.0721 5.4536Z" fill="#0057B6"/>
  <path fill-rule="evenodd" clip-rule="evenodd" d="M82.7886 3.76288H80.6855L78.4639 12.3505H80.134L80.536 10.5876H82.7938L83.1597 12.3505H84.9175L82.7886 3.76288ZM80.9329 8.90205L81.4123 6.88659C81.5051 6.5103 81.6185 5.99484 81.6752 5.52577H81.7113C81.7474 5.85051 81.8402 6.37113 81.9587 6.89174L82.4175 8.90721H80.9329V8.90205Z" fill="#0057B6"/>
  <path d="M87.2629 11.567C86.7938 12.268 86.2165 12.3505 85.4227 12.3505L85.1804 10.4691C85.5103 10.4691 85.8454 10.433 86.1083 9.99999C86.4897 9.36082 86.5928 7.55154 86.6856 3.76288H91.4072V12.3505H89.7371V5.52061H88.2268C88.0464 9.68556 87.8505 10.6856 87.2629 11.567Z" fill="#0057B6"/>
  <path fill-rule="evenodd" clip-rule="evenodd" d="M99.7113 5.52577V3.76288H95.3917V12.3505H98.1288C99.3556 12.3505 100.242 11.5773 100.242 9.64948C100.242 8.15463 99.6546 6.82473 98.1546 6.82473H97.0618V5.52577H99.7113ZM97.8608 8.55154C98.3299 8.55154 98.634 8.91236 98.634 9.58762C98.634 10.1649 98.3608 10.6598 97.8402 10.6598H97.0206V8.55154H97.8608Z" fill="#0057B6"/>
  <path fill-rule="evenodd" clip-rule="evenodd" d="M103.01 3.76288H105.113L107.242 12.3505H105.485L105.119 10.5876H102.861L102.459 12.3505H100.789L103.01 3.76288ZM103.737 6.88659L103.258 8.90205V8.90721H104.742L104.284 6.89174C104.165 6.37113 104.072 5.85051 104.036 5.52577H104C103.943 5.99484 103.83 6.5103 103.737 6.88659Z" fill="#0057B6"/>
  <path d="M107.979 12.3505H109.649V8.73195H111.649V12.3505H113.32V3.76288H111.649V6.97422H109.649V3.76288H107.979V12.3505Z" fill="#0057B6"/>
  <path d="M120.186 12.3505H118.124L116.304 8.61339H116.284V12.3505H114.613V3.76288H116.284V7.29896H116.304L118.108 3.76288H120.041L117.83 7.82989L120.186 12.3505Z" fill="#0057B6"/>
  <path d="M34.4175 16.933V16.0464H34.9381C35.2216 16.0464 35.3247 16.2268 35.3247 16.4485C35.3247 16.7629 35.1598 16.933 34.8144 16.933H34.4175Z" fill="#0057B6"/>
  <path d="M54.2371 16.4485L53.9124 17.3299H54.7783L54.4691 16.4485C54.4278 16.3248 54.3866 16.1856 54.3608 16.0619H54.3402C54.3196 16.1856 54.2783 16.3248 54.2371 16.4485Z" fill="#0057B6"/>
  <path d="M66.5464 16.4485L66.2217 17.3299H67.0877L66.7784 16.4485C66.7372 16.3248 66.6959 16.1856 66.6701 16.0619H66.6495C66.6289 16.1856 66.5877 16.3248 66.5464 16.4485Z" fill="#0057B6"/>
  <path d="M80.8454 16.933V16.0464H81.366C81.6495 16.0464 81.7526 16.2268 81.7526 16.4485C81.7526 16.7629 81.5876 16.933 81.2423 16.933H80.8454Z" fill="#0057B6"/>
  <path d="M86.0566 18.0361C85.634 18.0361 85.3608 17.7268 85.3608 17.0155C85.3608 16.299 85.634 15.9948 86.0566 15.9948C86.4793 15.9948 86.7525 16.3041 86.7525 17.0155C86.7474 17.7268 86.4793 18.0361 86.0566 18.0361Z" fill="#0057B6"/>
  <path d="M96.933 17.098C97.2371 17.098 97.3608 17.2268 97.3608 17.5413C97.3608 17.7629 97.2371 17.9846 96.933 17.9846H96.4536V17.098H96.933Z" fill="#0057B6"/>
  <path d="M101.232 17.3299L101.557 16.4485C101.598 16.3248 101.639 16.1856 101.66 16.0619H101.68C101.706 16.1856 101.747 16.3248 101.789 16.4485L102.098 17.3299H101.232Z" fill="#0057B6"/>
  <path d="M116.062 17.3299L116.387 16.4485C116.428 16.3248 116.469 16.1856 116.49 16.0619H116.51C116.536 16.1856 116.577 16.3248 116.619 16.4485L116.928 17.3299H116.062Z" fill="#0057B6"/>
  <path fill-rule="evenodd" clip-rule="evenodd" d="M28.5309 14.866H120.619V19.2629H28.5309V14.866ZM70.9433 17.5413C70.9742 17.7268 71.0309 18.0361 71.5051 18.0361C71.7577 18.0361 72.0309 17.8918 72.0309 17.5928C72.0309 17.3866 71.9227 17.2165 71.5979 17.2165H71.2319V16.7681H71.5928C71.8144 16.7681 72 16.6237 72 16.3608C72 16.134 71.8092 15.9897 71.5361 15.9897C71.1443 15.9897 70.9897 16.1856 70.9639 16.4536L70.4175 16.3402C70.5412 15.8505 70.8917 15.5413 71.5515 15.5413C72.2319 15.5413 72.567 15.9227 72.567 16.3041C72.567 16.5877 72.3866 16.8815 72.0257 16.9536V16.9639C72.2989 17 72.6082 17.2165 72.6082 17.6444C72.6082 18.1392 72.1546 18.4897 71.4897 18.4897C70.6031 18.4897 70.4484 17.9639 70.3917 17.665L70.9433 17.5413ZM38.9279 17.9691C39.0361 17.9691 39.1289 17.9279 39.1907 17.7217L38.1547 15.598H38.8402L39.366 16.8299C39.4051 16.9276 39.4349 17.0531 39.4599 17.1581L39.4639 17.1753H39.4743C39.4972 17.0951 39.5342 16.9979 39.5666 16.9131C39.5779 16.8835 39.5886 16.8553 39.598 16.8299L40.0464 15.598H40.7114L39.7268 17.8557C39.6083 18.1289 39.3918 18.4691 38.9949 18.4691C38.8866 18.4691 38.7268 18.4536 38.5928 18.4124L38.6392 17.9072C38.7578 17.9588 38.8557 17.9691 38.9279 17.9691ZM30.1031 18.4176H29.5154V15.6083H31.3041V16.0619H30.1031V18.4176ZM33.835 18.4176H34.4227V17.366H34.9536C35.4175 17.366 35.9021 17.1237 35.9021 16.4691C35.9021 15.9949 35.6237 15.6083 34.9536 15.6083H33.835V18.4176ZM43.768 18.4176H43.1804V15.6083H45.4485V18.4176H44.8608V16.0619H43.768V18.4176ZM48.7887 18.4176H48.1959V15.6083H50.4691V18.4176H49.8763V16.0619H48.7887V18.4176ZM53.5309 18.4176H52.933L53.9948 15.6083H54.7474L55.768 18.4176H55.1495L54.9227 17.7629H53.7629L53.5309 18.4176ZM62.1546 18.4176H61.567V15.6083H63.3557V16.0619H62.1546V18.4176ZM65.8402 18.4176H65.2423L66.3042 15.6083H67.0567L68.0774 18.4176H67.4588L67.232 17.7629H66.0722L65.8402 18.4176ZM75.2371 18.4176H75.8298V16.0619H76.9175V18.4176H77.5103V15.6083H75.2371V18.4176ZM80.2577 18.4176H80.8454V17.366H81.3763C81.8402 17.366 82.3247 17.1237 82.3247 16.4691C82.3247 15.9949 82.0464 15.6083 81.3763 15.6083H80.2577V18.4176ZM86.0566 18.4845C86.835 18.4845 87.3762 17.9742 87.3762 17.0155C87.3762 16.0515 86.835 15.5464 86.0566 15.5464C85.2783 15.5464 84.7371 16.0567 84.7371 17.0155C84.7371 17.9742 85.2783 18.4845 86.0566 18.4845ZM91.3145 18.4176H91.7784L92.4072 16.5825C92.4691 16.3918 92.5361 16.1237 92.5516 16.0413H92.5876C92.5773 16.1495 92.5773 16.2475 92.5773 16.3454V18.4176H93.1237V15.6083H92.2062L91.6856 17.1701C91.634 17.3299 91.5773 17.567 91.5619 17.6598H91.5361C91.5206 17.567 91.4639 17.3299 91.4124 17.1701L90.8918 15.6083H89.9742V18.4176H90.5206V16.3454C90.5206 16.2475 90.5206 16.1494 90.5103 16.0413H90.5464C90.5567 16.1237 90.6237 16.3918 90.6856 16.5825L91.3145 18.4176ZM95.8608 18.4176H96.9846C97.6598 18.4176 97.933 18.031 97.933 17.5567C97.933 16.9021 97.4485 16.6598 96.9846 16.6598H96.4536V16.0567H97.6907V15.6083H95.8608V18.4176ZM100.253 18.4176H100.845L101.077 17.7629H102.237L102.464 18.4176H103.082L102.062 15.6083H101.309L100.253 18.4176ZM105.552 18.4176H106.139V17.165H107.227V18.4176H107.82V15.6083H107.227V16.7165H106.139V15.6083H105.552V18.4176ZM110.567 18.4176H111.16V17.1341H111.165L112.155 18.4176H112.902L111.717 16.9382L112.835 15.6083H112.129L111.165 16.8042H111.16V15.6083H110.567V18.4176ZM115.088 18.4176H115.686L115.918 17.7629H117.077L117.304 18.4176H117.923L116.902 15.6083H116.149L115.088 18.4176Z" fill="#0057B6"/>
</svg>
