<svg width="36" height="24" viewBox="0 0 36 24" fill="currentBackgroundColor" xmlns="http://www.w3.org/2000/svg">
<path d="M14.7391 3.024V3H21.0242V3.024C25.9508 3.36816 29.7638 7.28427 29.7638 12C29.7638 16.7157 25.9508 20.6318 21.0242 20.976V21H14.7391V20.976C9.81244 20.6318 5.99945 16.7157 5.99945 12C5.99945 7.28427 9.81244 3.36816 14.7391 3.024Z" fill="#0165AC"/>
<path d="M17.2532 17.088C19.5084 16.3226 21.0149 14.285 21.0149 12C21.0149 9.71506 19.5084 7.67744 17.2532 6.91201V17.088ZM13.4821 6.91201C11.2269 7.67744 9.72043 9.71506 9.72043 12C9.72043 14.285 11.2269 16.3226 13.4821 17.088V6.91201ZM15.3677 19.8C10.8551 19.8 7.19702 16.3078 7.19702 12C7.19702 7.69219 10.8551 4.20001 15.3677 4.20001C19.8802 4.20001 23.5383 7.69219 23.5383 12C23.5383 16.3078 19.8802 19.8 15.3677 19.8Z" fill="white"/>
</svg>
