<svg width="36" height="24" viewBox="0 0 36 24" fill="currentBackgroundColor" xmlns="http://www.w3.org/2000/svg">
<path d="M18.2725 22.7143H31.2312C31.9586 22.7204 32.6586 22.4372 33.1772 21.9271C33.6959 21.417 33.9906 20.7217 33.9967 19.9943V16.7371C29.1033 19.5464 23.7963 21.5637 18.2725 22.7143Z" fill="#F27712"/>
<path d="M32.8537 13.4571H31.6767L30.3511 11.7086H30.2254V13.4571H29.2655V9.11429H30.6825C31.791 9.11429 32.4309 9.57143 32.4309 10.3943C32.4309 11.0686 32.031 11.5029 31.311 11.64L32.8537 13.4571ZM31.4367 10.4286C31.4367 10.0057 31.1168 9.78857 30.5225 9.78857H30.2254V11.1029H30.4997C31.1168 11.1029 31.4367 10.8743 31.4367 10.4286ZM25.9058 9.11429H28.6256V9.84571H26.8657V10.8171H28.557V11.56H26.8657V12.7371H28.6256V13.4686H25.9058V9.11429ZM22.8204 13.5714L20.7406 9.10286H21.7919L23.1061 12.0286L24.4317 9.10286H25.4602L23.3575 13.5714H22.8433H22.8204ZM14.1241 13.56C12.6614 13.56 11.5187 12.5657 11.5187 11.2743C11.5187 10.0171 12.6843 9 14.147 9C14.5584 9 14.9012 9.08 15.324 9.26286V10.2686C15.0038 9.95396 14.573 9.77751 14.1241 9.77714C13.2099 9.77714 12.5128 10.44 12.5128 11.2743C12.5128 12.1543 13.1985 12.7829 14.1698 12.7829C14.6041 12.7829 14.9355 12.6457 15.324 12.3029V13.3086C14.8898 13.4914 14.5241 13.56 14.1241 13.56ZM11.2215 12.1314C11.2215 12.9771 10.5245 13.56 9.51885 13.56C8.78749 13.56 8.26182 13.3086 7.81615 12.7371L8.44466 12.2C8.66179 12.5886 9.02747 12.7829 9.48456 12.7829C9.91881 12.7829 10.2273 12.52 10.2273 12.1771C10.2273 11.9829 10.1359 11.8343 9.94166 11.72C9.72866 11.6166 9.50684 11.5325 9.27887 11.4686C8.3761 11.1829 8.06756 10.8743 8.06756 10.2686C8.06756 9.56 8.73035 9.02286 9.59884 9.02286C10.1474 9.02286 10.6387 9.19429 11.0501 9.51429L10.5473 10.0857C10.348 9.86722 10.066 9.74276 9.77025 9.74286C9.35886 9.74286 9.06175 9.94857 9.06175 10.2229C9.06175 10.4514 9.23316 10.5771 9.80453 10.7714C10.9016 11.1143 11.2215 11.4343 11.2215 12.1429V12.1314ZM6.50199 9.11429H7.4619V13.4686H6.50199V9.11429ZM3.41658 13.4686H1.99957V9.11429H3.41658C4.97071 9.11429 6.0449 10.0057 6.0449 11.2857C6.0449 11.9371 5.72493 12.5543 5.16498 12.9657C4.68503 13.3086 4.14794 13.4686 3.40515 13.4686H3.41658ZM4.53647 10.2C4.2165 9.94857 3.85082 9.85714 3.22231 9.85714H2.95948V12.7371H3.22231C3.83939 12.7371 4.22793 12.6229 4.53647 12.3943C4.86787 12.12 5.06213 11.7086 5.06213 11.2857C5.06213 10.8629 4.86787 10.4629 4.53647 10.2Z" fill="black"/>
<path d="M17.998 9C16.7411 9 15.7128 10.0057 15.7128 11.2514C15.7128 12.5771 16.6954 13.5714 17.998 13.5714C19.2778 13.5714 20.2833 12.5657 20.2833 11.2857C20.2833 10.0057 19.2892 9 17.998 9Z" fill="#F27712"/>
</svg>
