<svg width="54" height="24" viewBox="0 0 54 24" fill="currentBackgroundColor" xmlns="http://www.w3.org/2000/svg">
<path d="M3.17604 15.1092C3.12002 15.4454 3.17604 16.1737 3.34411 16.5658C3.62422 17.2381 4.18445 17.5742 4.91274 17.5742C5.75307 17.5742 6.36932 17.2941 6.76148 17.014L6.92954 18.0224C6.42534 18.3585 5.58501 18.6386 4.63263 18.6386C2.78389 18.6386 1.99957 17.2381 1.99957 15.5574C1.99957 13.2045 3.5682 10.6274 5.8091 10.6274C7.15363 10.6274 7.88192 11.5238 7.88192 12.5882C7.76988 14.605 5.75307 15.1653 3.17604 15.1092ZM5.58501 11.6358C4.46456 11.6358 3.62422 12.8683 3.28809 14.1008C5.13683 14.1008 6.64943 13.8207 6.64943 12.6442C6.64943 11.972 6.20125 11.6358 5.58501 11.6358ZM13.7083 14.9412C13.4842 16.2857 13.3721 17.6302 13.4281 18.5266H12.3077C12.3077 18.0784 12.3637 17.3501 12.4758 16.5098H12.4197C11.6354 18.0784 10.683 18.6947 9.73066 18.6947C8.49817 18.6947 7.71386 17.6302 7.71386 16.1176C7.71386 13.4286 9.50657 10.6274 12.5318 10.6274C13.2041 10.6274 13.9323 10.7395 14.3805 10.9076L13.7083 14.9412ZM12.2517 11.6358C10.459 11.6358 9.00237 13.7087 8.94635 15.8375C8.94635 16.6779 9.22646 17.5182 10.1228 17.5182C11.1312 17.5182 12.3077 16.0616 12.6438 14.0448L13.036 11.6919C12.9239 11.6919 12.6438 11.6358 12.2517 11.6358ZM18.8063 11.972C18.5822 11.8039 18.134 11.6358 17.5738 11.6358C16.8455 11.6358 16.3413 12.14 16.3413 12.8123C16.3413 13.3725 16.6774 13.7087 17.2937 14.1008C18.078 14.605 18.5822 15.2773 18.5822 16.1176C18.5822 17.7423 17.4057 18.6386 15.8931 18.6386C15.1648 18.6386 14.4926 18.3585 14.1564 18.1344L14.4926 17.1821C14.8287 17.4062 15.4449 17.6863 16.0052 17.6863C16.7895 17.6863 17.3497 17.126 17.3497 16.4538C17.3497 15.8375 17.1256 15.5014 16.3973 15.0532C15.613 14.549 15.1648 13.8767 15.1648 13.0924C15.1648 11.7479 16.2293 10.6835 17.6858 10.6835C18.3021 10.6835 18.8623 10.8515 19.1424 11.0756L18.8063 11.972ZM22.8959 16.6218C22.1676 18.3025 21.4393 19.647 20.487 20.6555C19.7027 21.5518 18.8623 21.8879 18.4702 22L18.19 20.8795C18.4702 20.7675 18.9744 20.5434 19.4786 20.1513C19.9267 19.7591 20.4309 19.1428 20.8231 18.3585C20.8791 18.2465 20.8791 18.1344 20.8791 18.0224L19.4786 10.7955H20.7111L21.3833 14.9412C21.5514 15.8375 21.6074 16.3977 21.7195 16.958H21.7755C21.9435 16.4538 22.1676 15.9496 22.5038 15.0532L24.2965 10.7395H25.473L22.8959 16.6218Z" fill="#252525"/>
<path d="M22.7283 20.1513C22.7283 20.1513 25.8655 14.9972 26.4257 12.5882C26.986 10.1793 27.042 8.89076 24.8571 8.66667C22.6162 8.44258 20.0952 8.66667 20.0952 8.66667C20.0952 8.66667 23.6246 6.42577 28.2745 6.59384C32.9804 6.70589 35.6694 8.66667 35.6694 8.66667C35.6694 8.66667 34.661 9.05883 33.0364 9.17087C31.4117 9.33894 30.7955 9.67507 30.9075 11.5238C31.0196 13.3726 31.6919 14.6611 31.6919 14.6611C31.6919 14.6611 29.0588 12.9244 27.4342 14.6611C25.8095 16.3978 25.4734 17.1821 24.521 18.3025C23.6246 19.423 22.7283 20.1513 22.7283 20.1513Z" fill="#136BB5"/>
<path d="M28.106 2C29.2262 2 30.1224 2.89636 30.1224 4.01681C30.1224 5.13725 29.2262 6.03361 28.106 6.03361C26.9858 6.03361 26.0896 5.13725 26.0896 4.01681C26.0896 2.89636 27.0418 2 28.106 2Z" fill="#F8A81B"/>
<path d="M34.9412 18.6386C34.2129 18.6386 33.7087 18.4706 33.4286 18.3025H33.3726L32.8123 21.6078H31.6359L33.0364 13.4846C33.2045 12.5322 33.3165 11.5238 33.4286 10.7395H34.493L34.2689 12.1961H34.3249C34.9412 11.1877 35.8936 10.5714 36.7899 10.5714C38.3025 10.5714 38.9188 11.9159 38.9188 13.3725C38.9748 16.1176 37.2381 18.6386 34.9412 18.6386ZM36.3978 11.6919C35.4454 11.6919 34.2689 12.8683 33.9328 15.0532L33.5966 17.1821C33.8768 17.4622 34.381 17.6302 34.9412 17.6302C36.4538 17.6302 37.7423 15.5014 37.7423 13.4846C37.7423 12.6442 37.4062 11.6919 36.3978 11.6919ZM45.0812 14.9412C44.8572 16.2857 44.7451 17.6302 44.8011 18.5266H43.6807C43.6807 18.0784 43.7367 17.3501 43.8487 16.5098H43.7927C43.0084 18.0784 42.1121 18.6947 41.1037 18.6947C39.8712 18.6947 39.0868 17.6302 39.0868 16.1176C39.0868 13.4286 40.8796 10.6274 43.9048 10.6274C44.577 10.6274 45.3053 10.7395 45.7535 10.9075L45.0812 14.9412ZM43.6247 11.6358C41.8319 11.6358 40.3754 13.7087 40.3754 15.8375C40.3754 16.6779 40.6555 17.5182 41.5518 17.5182C42.5602 17.5182 43.7367 16.0616 44.0728 14.0448L44.465 11.6919C44.2969 11.6919 44.0168 11.6358 43.6247 11.6358ZM49.563 16.6218C48.8347 18.3025 48.1065 19.647 47.1541 20.6554C46.3698 21.5518 45.5294 21.8879 45.1373 22L44.8572 20.8795C45.1373 20.7675 45.6415 20.5434 46.1457 20.1512C46.5939 19.7591 47.098 19.1428 47.4902 18.3585C47.5462 18.2465 47.5462 18.1344 47.5462 18.0224L46.1457 10.7955H47.3782L48.0504 14.9412C48.2185 15.8375 48.2745 16.3977 48.3866 16.958H48.4426C48.6107 16.4538 48.8347 15.9496 49.1709 15.0532L50.9076 10.7395H52.1401L49.563 16.6218Z" fill="#252525"/>
</svg>
