<svg width="64" height="24" viewBox="0 0 64 24" fill="none" xmlns="http://www.w3.org/2000/svg">
<path d="M24.0063 4.50104H33.6554V7.42704H27.1755V10.3509H33.167V13.2769H27.1755V18.8837H24.0063V4.50104Z" fill="#242B57"/>
<path d="M35.9302 4.50104H41.2727C42.0169 4.50104 42.7209 4.56869 43.3848 4.704C44.0486 4.8393 44.6279 5.07398 45.1205 5.40379C45.6152 5.73571 46.0063 6.1818 46.2981 6.74417C46.5899 7.30653 46.7357 8.01267 46.7357 8.86679C46.7357 9.72091 46.6004 10.4101 46.3298 10.9788C46.0592 11.5475 45.6871 12.0021 45.2135 12.3404C44.74 12.6786 44.1776 12.9196 43.5285 13.0613C42.8795 13.2029 42.1734 13.2748 41.4165 13.2748H39.1015V18.8816H35.9323V4.50104H35.9302ZM39.0973 10.5941H41.2093C41.4947 10.5941 41.7674 10.5666 42.0317 10.5137C42.296 10.4588 42.5328 10.3678 42.7421 10.2389C42.9514 10.1099 43.1205 9.93444 43.2495 9.71034C43.3784 9.48624 43.4419 9.20505 43.4419 8.86679C43.4419 8.50104 43.3573 8.20717 43.1882 7.98307C43.019 7.75897 42.8013 7.58772 42.5391 7.4651C42.2748 7.34248 41.981 7.26637 41.6554 7.23254C41.3298 7.19871 41.019 7.1818 40.7209 7.1818H39.0951V10.5941H39.0973Z" fill="#242B57"/>
<path d="M52.3002 11.3679L47.5476 4.50317H51.5286L54.5962 9.54123L57.5413 4.50317H61.3806L56.7294 11.3087L61.9303 18.8858H57.9493L54.4356 13.0973L51.0233 18.8858H47.2664L52.3045 11.37L52.3002 11.3679Z" fill="#242B57"/>
<path d="M10.129 16.1839L8.12261 13.4693C7.82452 13.0655 7.31077 12.5328 7.31077 12C7.31077 11.4672 7.8224 10.9366 8.12261 10.5307L10.129 7.81184C10.2241 7.68077 10.3171 7.58986 10.4059 7.51586V4.38901C10.4059 1.87527 9.35517 1.24313 8.06976 2.98098L3.74629 8.8351C3.10359 9.70614 2.00211 10.8499 2.00211 11.9979C2.00211 13.1459 3.1057 14.2875 3.74629 15.1649L8.06976 21.0127C9.35517 22.7526 10.4059 22.1247 10.4059 19.6068V16.4778C10.3171 16.4059 10.2241 16.3129 10.129 16.1797V16.1839Z" fill="#0987C9"/>
<path d="M18.6258 8.83718L14.2981 2.98306C13.0148 1.2431 11.9641 1.87735 11.9641 4.3911V7.51795C12.0507 7.58983 12.1438 7.68285 12.2389 7.81393L14.2473 10.5327C14.5476 10.9387 15.0592 11.4693 15.0592 12.0021C15.0592 12.5349 14.5476 13.0676 14.2473 13.4714L12.2389 16.186C12.1438 16.3213 12.0507 16.4122 11.9641 16.4862V19.6131C11.9641 22.1311 13.0148 22.7568 14.2981 21.019L18.6237 15.1712C19.2664 14.2938 20.3679 13.148 20.3679 12.0021C20.3679 10.8562 19.2664 9.71033 18.6237 8.8393L18.6258 8.83718Z" fill="#242B57"/>
</svg>
