<svg width="24" height="24" viewBox="0 0 24 24" fill="currentBackgroundColor" xmlns="http://www.w3.org/2000/svg">
  <path fill-rule="evenodd" clip-rule="evenodd" d="M12.0336 0C18.6417 0 23.9977 5.44171 23.9977 11.9997C23.9977 18.6274 18.5721 23.9993 12.0336 23.9993C5.42556 24.0691 0 18.6972 0 11.9997C0 5.44171 5.42556 0 12.0336 0Z" fill="#F91F2B"/>
  <path fill-rule="evenodd" clip-rule="evenodd" d="M21.1454 7.81372H21.2845C21.215 8.16255 21.0759 8.37184 20.8672 8.58114C20.589 8.72067 20.3108 8.79044 19.8239 8.79044H19.4066C17.8765 8.72067 17.5288 10.3253 17.6679 11.5811C17.807 12.3485 18.0852 13.1159 18.5025 13.674C18.9198 14.0926 19.4762 14.3717 20.0326 13.9531C20.4499 13.6043 20.589 12.7671 20.589 12.3485C20.589 11.5113 20.3108 10.2555 19.2675 10.2555C18.9893 10.2555 18.7111 10.395 18.4329 10.6741C18.2938 10.8834 18.2243 11.302 18.2243 11.7904H18.0156C17.8765 10.8136 18.3634 9.97645 19.4066 9.90669C20.6586 9.90669 21.4236 10.8834 21.4236 12.1392C21.4236 13.395 20.6586 14.581 19.4066 14.581C18.7111 14.581 18.2243 14.3717 17.807 13.8136C17.3897 13.3252 17.2505 12.5578 17.2505 11.5811C17.2505 10.3253 17.4592 9.55786 17.807 8.99973C18.2243 8.44161 18.7111 8.16255 19.4762 8.16255H20.1022C20.5195 8.23231 20.7977 8.16255 20.9368 8.09278C21.0063 8.02302 21.1454 7.95325 21.1454 7.81372Z" fill="white"/>
  <path fill-rule="evenodd" clip-rule="evenodd" d="M12.381 9.90674L13.9111 13.3252L15.3021 10.1858L15.4412 9.90674H16.6236V10.0463H16.4845C16.3454 10.0463 16.1367 10.1858 16.1367 10.3951V12.9764V14.0229C16.1367 14.2322 16.2758 14.3717 16.4845 14.3717H16.6236V14.4415H15.8585H15.0239V14.302H15.163C15.3021 14.302 15.5108 14.1624 15.5108 13.9531V12.9067V10.6044L13.772 14.4415H13.7024L12.0332 10.5346V13.9531C12.0332 14.1624 12.1723 14.302 12.3114 14.302H12.381V14.4415H11.6159H11.1986V14.302H11.3377C11.4768 14.302 11.6854 14.1624 11.6854 13.9531V10.3951C11.6854 10.1858 11.6159 10.0463 11.3377 10.0463C11.129 10.0463 10.9204 10.2556 10.7813 10.5346L9.1816 14.0927C9.0425 14.3717 8.83384 14.5113 8.55564 14.5113L8.20788 14.4415L8.13833 13.9531C8.27743 14.0927 8.41653 14.1624 8.48609 14.1624C8.69474 14.2322 8.83384 14.1624 8.90339 14.0229L9.11205 13.6043L7.65147 10.6044C7.51237 10.3253 7.37327 10.116 7.16461 10.116V9.9765H7.99923H8.62519V10.116H8.48609C8.34698 10.116 8.34698 10.3253 8.41653 10.4649L9.52936 12.8369L10.5726 10.6044C10.7117 10.3951 10.5726 10.1858 10.4335 10.1858V10.0463H12.381V9.90674Z" fill="white"/>
  <path fill-rule="evenodd" clip-rule="evenodd" d="M5.77297 12.9764V10.395V10.2555H3.68643V10.4648V13.0461V14.0926C3.68643 14.3019 3.82553 14.4414 3.96463 14.4414H4.10374H3.33867H2.57361V14.3019H2.64316C2.78226 14.3019 2.92136 14.1624 2.92136 13.9531V12.9066V10.3253C2.92136 10.116 2.78226 9.97645 2.64316 9.97645H2.57361V9.83691H3.33867H3.47777H4.17329H5.35566H5.91207H6.12072H6.88579V9.97645H6.81624C6.67713 9.97645 6.53803 10.116 6.53803 10.3253V12.9066V13.9531C6.53803 14.1624 6.67713 14.3019 6.81624 14.3019H6.95534V14.4414H6.19028H5.35566V14.3019H5.49476C5.63387 14.3019 5.77297 14.1624 5.77297 13.9531V12.9764Z" fill="white"/>
</svg>
