<svg width="50" height="24" viewBox="0 0 50 24" fill="currentBackgroundColor" xmlns="http://www.w3.org/2000/svg">
<path fill-rule="evenodd" clip-rule="evenodd" d="M5.58661 2C3.60797 2 2 3.60714 2 5.58718V18.4181C2 20.3981 3.60797 22.0052 5.58661 22H44.6634C46.6473 22 48.25 20.3928 48.25 18.4128V5.58718C48.25 3.60714 46.642 2 44.6634 2H5.58661ZM3.47272 18.2973V5.71326C3.47272 4.47376 4.47509 3.47061 5.71239 3.47061H26.1827V20.5399H5.71239C4.47509 20.5399 3.47272 19.5368 3.47272 18.2973ZM30.4323 13.292C31.0849 13.292 31.4764 12.7458 31.4764 11.9422C31.4764 11.2752 31.1005 10.6975 30.4323 10.6922C29.8006 10.6922 29.3777 11.2542 29.3777 12.0053C29.3777 12.7406 29.858 13.292 30.4323 13.292ZM29.3725 16.5378H27.6445H27.6392V9.48427H29.2315V10.3929H29.2524C29.6022 9.6891 30.3279 9.36872 31.1162 9.36872C32.4997 9.36872 33.2567 10.687 33.2567 11.9055C33.2567 13.3918 32.4631 14.6261 30.9753 14.6261C30.3749 14.6261 29.7223 14.4055 29.3934 13.8067H29.3725V16.5378ZM36.6606 12.2469C36.0759 12.2469 35.6164 12.4307 35.6164 12.9139C35.6164 13.2658 35.9245 13.4654 36.3265 13.4601C36.979 13.4601 37.3915 12.8614 37.3915 12.2731C37.3461 12.271 37.2998 12.2687 37.2527 12.2663C37.0671 12.2569 36.8688 12.2469 36.6606 12.2469ZM39.1028 14.5053C39.1032 14.507 39.1035 14.5088 39.1039 14.5105V14.5053H39.1028ZM39.0099 13.3235C39.0099 13.7157 39.0254 14.1131 39.1028 14.5053H37.5272C37.5232 14.3998 37.5168 14.2966 37.5105 14.1946C37.5005 14.0326 37.4907 13.8734 37.4907 13.7122H37.4698C37.0782 14.3425 36.5979 14.6208 35.8879 14.6208C34.9012 14.6208 34.0189 14.1324 34.0189 13.0399C34.0189 11.5063 35.6791 11.3225 36.5979 11.3225C36.8746 11.3225 37.1826 11.354 37.4019 11.3908C37.3915 10.7028 36.8798 10.5189 36.2586 10.5189C35.7 10.5189 35.1466 10.624 34.6663 10.8971L34.6349 9.72061C35.2458 9.46851 35.8931 9.36347 36.6292 9.36347C37.9083 9.36347 39.0099 9.91494 39.0099 11.4486V13.3235ZM40.952 16.6534C40.5865 16.6534 40.2315 16.6166 39.8765 16.5378L39.9966 15.2196C40.2315 15.2931 40.4403 15.3246 40.6805 15.3246C41.1034 15.3246 41.4271 15.0778 41.5523 14.6313L39.5267 9.48427H41.3853L42.4607 12.7668H42.4764L43.5049 9.48427H45.2329L43.4005 14.1639C43.3722 14.2366 43.3442 14.3092 43.3165 14.3814C42.8624 15.5621 42.4426 16.6534 40.952 16.6534Z" fill="#000268"/>
<path d="M7.69016 11.9527C7.69016 11.2647 8.02429 10.6975 8.67165 10.6975C9.44953 10.6975 9.77321 11.3225 9.77321 11.8845C9.77321 12.6565 9.28247 13.1765 8.67165 13.1765C8.14958 13.1765 7.69016 12.7353 7.69016 11.9527ZM11.4438 9.47901H9.87763V10.3876H9.86197C9.49652 9.76787 8.90136 9.36346 8.16525 9.36346C6.60948 9.36346 5.90991 10.4822 5.90991 11.979C5.90991 13.4654 6.7661 14.5105 8.13392 14.5105C8.82827 14.5105 9.40255 14.2374 9.81498 13.6492H9.83586V13.9223C9.83586 14.9044 9.29813 15.3771 8.30098 15.3771C7.58053 15.3771 7.13677 15.2248 6.60948 14.9622L6.52073 16.333C6.92272 16.4801 7.60663 16.6534 8.4315 16.6534C10.4467 16.6534 11.4438 15.9864 11.4438 13.9223V9.47901ZM14.3622 7.38342H12.6341V8.65968H14.3622V7.38342ZM12.6341 14.5105H14.3622V9.47901H12.6341V14.5105ZM19.1704 9.42124C18.9982 9.39498 18.7841 9.36346 18.5857 9.36346C17.8392 9.36346 17.4058 9.76787 17.1083 10.4086H17.0874V9.48426H15.516V14.5158H17.244V12.3939C17.244 11.4065 17.6982 10.8183 18.5022 10.8183C18.7058 10.8183 18.8937 10.8183 19.0869 10.8761L19.1704 9.42124ZM22.1462 13.4076C21.3475 13.4076 21.0238 12.7406 21.0238 12C21.0238 11.249 21.3475 10.5819 22.1462 10.5819C22.945 10.5819 23.2687 11.249 23.2687 12C23.2687 12.7406 22.9398 13.4076 22.1462 13.4076ZM22.1462 14.6261C23.796 14.6261 25.0541 13.6597 25.0541 12C25.0541 10.3298 23.796 9.36346 22.1462 9.36346C20.4965 9.36346 19.2383 10.3298 19.2383 12C19.2383 13.6597 20.4913 14.6261 22.1462 14.6261Z" fill="#FF0007"/>
</svg>
