<svg width="42" height="24" viewBox="0 0 42 24" fill="currentBackgroundColor" xmlns="http://www.w3.org/2000/svg">
<path d="M29.6 2H12C6.5 2 2 6.5 2 12C2 17.5 6.5 22 12 22H29.6C35.1 22 39.6 17.5 39.6 12C39.6 6.5 35.1 2 29.6 2Z" fill="white"/>
<path d="M29.6 2.81C30.835 2.81 32.035 3.055 33.165 3.535C34.26 4 35.24 4.665 36.09 5.51C36.935 6.355 37.6 7.34 38.065 8.435C38.545 9.565 38.79 10.765 38.79 12C38.79 13.235 38.545 14.435 38.065 15.565C37.6 16.66 36.935 17.64 36.09 18.49C35.245 19.335 34.26 20 33.165 20.465C32.035 20.945 30.835 21.19 29.6 21.19H12C10.765 21.19 9.565 20.945 8.435 20.465C7.34 20 6.36 19.335 5.51 18.49C4.665 17.645 4 16.66 3.535 15.565C3.055 14.435 2.81 13.235 2.81 12C2.81 10.765 3.055 9.565 3.535 8.435C4 7.34 4.665 6.36 5.51 5.51C6.355 4.665 7.34 4 8.435 3.535C9.565 3.055 10.765 2.81 12 2.81H29.6ZM29.6 2H12C6.5 2 2 6.5 2 12C2 17.5 6.5 22 12 22H29.6C35.1 22 39.6 17.5 39.6 12C39.6 6.5 35.1 2 29.6 2Z" fill="#3C4043"/>
<path d="M19.9301 12.7101V15.7351H18.9701V8.26508H21.5151C22.1601 8.26508 22.7101 8.48008 23.1601 8.91008C23.6201 9.34008 23.8501 9.86508 23.8501 10.4851C23.8501 11.1201 23.6201 11.6451 23.1601 12.0701C22.7151 12.4951 22.1651 12.7051 21.5151 12.7051H19.9301V12.7101ZM19.9301 9.18508V11.7901H21.5351C21.9151 11.7901 22.2351 11.6601 22.4851 11.4051C22.7401 11.1501 22.8701 10.8401 22.8701 10.4901C22.8701 10.1451 22.7401 9.84008 22.4851 9.58508C22.2351 9.32008 21.9201 9.19008 21.5351 9.19008H19.9301V9.18508Z" fill="#3C4043"/>
<path d="M26.36 10.4551C27.07 10.4551 27.63 10.6451 28.04 11.0251C28.45 11.4051 28.655 11.9251 28.655 12.5851V15.7351H27.74V15.0251H27.7C27.305 15.6101 26.775 15.9001 26.115 15.9001C25.55 15.9001 25.08 15.7351 24.7 15.4001C24.32 15.0651 24.13 14.6501 24.13 14.1501C24.13 13.6201 24.33 13.2001 24.73 12.8901C25.13 12.5751 25.665 12.4201 26.33 12.4201C26.9 12.4201 27.37 12.5251 27.735 12.7351V12.5151C27.735 12.1801 27.605 11.9001 27.34 11.6651C27.075 11.4301 26.765 11.3151 26.41 11.3151C25.875 11.3151 25.45 11.5401 25.14 11.9951L24.295 11.4651C24.76 10.7901 25.45 10.4551 26.36 10.4551ZM25.12 14.1651C25.12 14.4151 25.225 14.6251 25.44 14.7901C25.65 14.9551 25.9 15.0401 26.185 15.0401C26.59 15.0401 26.95 14.8901 27.265 14.5901C27.58 14.2901 27.74 13.9401 27.74 13.5351C27.44 13.3001 27.025 13.1801 26.49 13.1801C26.1 13.1801 25.775 13.2751 25.515 13.4601C25.25 13.6551 25.12 13.8901 25.12 14.1651Z" fill="#3C4043"/>
<path d="M33.875 10.62L30.675 17.98H29.685L30.875 15.405L28.765 10.62H29.81L31.33 14.29H31.35L32.83 10.62H33.875Z" fill="#3C4043"/>
<path d="M16.1116 12.1C16.1116 11.787 16.0836 11.4875 16.0316 11.1995H12.0076V12.8495L14.3251 12.85C14.2311 13.399 13.9286 13.867 13.4651 14.179V15.2495H14.8446C15.6501 14.504 16.1116 13.402 16.1116 12.1Z" fill="#4285F4"/>
<path d="M13.4655 14.179C13.0815 14.438 12.587 14.5895 12.0085 14.5895C10.891 14.5895 9.94304 13.8365 9.60354 12.8215H8.18054V13.9255C8.88554 15.3245 10.3345 16.2845 12.0085 16.2845C13.1655 16.2845 14.1375 15.904 14.845 15.249L13.4655 14.179Z" fill="#34A853"/>
<path d="M9.46947 12.0025C9.46947 11.7175 9.51697 11.442 9.60347 11.183V10.079H8.18047C7.88897 10.6575 7.72498 11.3105 7.72498 12.0025C7.72498 12.6945 7.88947 13.3475 8.18047 13.926L9.60347 12.822C9.51697 12.563 9.46947 12.2875 9.46947 12.0025Z" fill="#FABB05"/>
<path d="M12.0085 9.41503C12.64 9.41503 13.2055 9.63253 13.652 10.0575L14.8745 8.83603C14.132 8.14453 13.164 7.72003 12.0085 7.72003C10.335 7.72003 8.88554 8.68003 8.18054 10.079L9.60354 11.183C9.94304 10.168 10.891 9.41503 12.0085 9.41503Z" fill="#E94235"/>
</svg>
