<svg width="85" height="24" viewBox="0 0 85 24" fill="none" xmlns="http://www.w3.org/2000/svg">
    <path d="M4.78428 10.1736C4.78428 13.3008 7.1443 15.6994 10.195 15.6994C13.2458 15.6994 14.6079 13.8001 14.6079 11.7087V10.96H10.3293V12.1115H13.438C13.4573 13.2437 12.4208 14.5672 10.195 14.5672C7.73935 14.5672 6.03144 12.7443 6.03144 10.1736C6.03144 7.60296 7.87363 5.83714 10.4057 5.83714C12.0557 5.83714 13.3608 6.23999 14.5693 7.08429L14.6457 7.02638V5.95212C13.7435 5.31931 12.2093 4.70496 10.3671 4.70496C7.23998 4.70496 4.78344 7.1229 4.78344 10.1736H4.78428ZM3 10.1736C3 14.318 6.07004 17.4073 10.195 17.4073C13.9558 17.4073 16.2579 15.0473 16.2579 11.2294V9.27227H10.3293V10.3851H15.1837V11.4216C15.1837 14.4145 13.3222 16.276 10.195 16.276C6.76076 16.276 4.20855 13.6474 4.20855 10.1745C4.20855 6.70158 6.89504 4.1309 10.3679 4.1309C12.0179 4.1309 13.5143 4.53375 14.6465 5.32015V4.18798C13.553 3.40158 12.1136 2.99873 10.3679 2.99873C6.20432 2.99873 3 6.16445 3 10.1745V10.1736ZM18.6951 11.1522V17.0808H19.8273V11.1715C19.8273 9.84801 20.6909 8.90719 21.9767 8.90719C22.3602 8.90719 22.706 9.00286 23.0702 9.15645C23.2238 8.7922 23.3774 8.48503 23.5688 8.19716C23.1659 7.9286 22.5709 7.75571 21.9951 7.75571C20.0573 7.75571 18.6951 9.15645 18.6951 11.1522ZM17.0258 17.0808H18.158V11.1522C18.158 8.81151 19.7316 7.21858 22.0145 7.21858C22.7815 7.21858 23.5688 7.46784 23.9137 7.67934C24.1244 7.43007 24.3552 7.1615 24.6623 6.91224C23.9523 6.41372 22.993 6.12585 21.9574 6.12585C18.9452 6.12585 17.0267 8.1594 17.0267 11.1724V17.0817L17.0258 17.0808ZM34.7738 10.4422V12.1115C35.4453 11.2093 36.021 10.4229 36.5581 9.77079C37.9203 8.10149 39.1103 7.18081 40.9517 7.18081C43.446 7.18081 45.2689 9.06077 45.2689 11.7087C45.2689 14.3566 43.4846 16.2751 41.0289 16.2751C39.0331 16.2751 37.3067 14.913 36.9039 13.0515L36.0982 14.1451C36.731 15.968 38.5925 17.4065 41.0104 17.4065C44.1191 17.4065 46.4019 14.9122 46.4019 11.7078C46.4019 8.5035 44.0998 6.02849 40.9525 6.02849C37.8053 6.02849 36.1939 8.46489 34.7747 10.4414L34.7738 10.4422ZM38.2853 11.2865H38.2467L37.3638 12.4951C37.5174 13.8765 38.9181 15.7187 41.0289 15.7187C43.1397 15.7187 44.7318 13.973 44.7318 11.6894C44.7318 9.40571 43.1388 7.71794 40.9517 7.71794C38.7646 7.71794 37.5938 9.27227 36.7302 10.4229C36.308 10.9793 35.5787 11.8807 34.773 13.0129V14.8551C35.5216 13.7422 36.538 12.4372 37.2866 11.5358C38.5531 10.0201 39.3202 8.86858 40.9324 8.86858C42.5446 8.86858 43.5803 10.0771 43.5803 11.6894C43.5803 13.3016 42.5631 14.5865 41.0281 14.5865C39.4167 14.5865 38.2845 13.1094 38.2845 11.4594V11.2865H38.2853ZM37.1532 2V6.77796C37.4989 6.50939 37.8825 6.18292 38.2853 6.02933V2H37.1532ZM35.4646 8.52364C35.8103 8.08218 36.1939 7.60296 36.5967 7.20011V2.00084H35.4646V8.52448V8.52364ZM30.8595 13.9923L30.8402 13.973C30.3601 14.3566 29.5737 14.5874 28.8259 14.5874C27.2909 14.5874 26.1395 13.4359 26.1395 11.7288C26.1395 10.0217 27.2716 8.85096 28.7873 8.85096C30.418 8.85096 31.4159 10.0402 31.4159 11.6331V17.0825H32.5481V11.5761C32.5481 9.35032 30.9938 7.71962 28.8066 7.71962C26.6195 7.71962 24.9695 9.35032 24.9695 11.7297C24.9695 14.109 26.6195 15.7783 28.8066 15.7204C29.6316 15.7011 30.4759 15.3939 30.8595 15.1253V13.9932V13.9923ZM23.2616 11.7087C23.2616 15.0473 25.6216 17.4073 28.8066 17.4073C29.5167 17.4073 30.3417 17.1967 30.8595 16.793V15.6608C30.5137 15.9487 29.6703 16.2751 28.8066 16.2751C26.1974 16.2751 24.4324 14.4329 24.4324 11.7087C24.4324 8.9844 26.3123 7.18081 28.8066 7.18081C31.3009 7.18081 33.0852 9.0037 33.0852 11.5551V17.0808H34.2367V11.5358C34.2367 8.35075 31.9917 6.01003 28.8066 6.01003C25.6216 6.01003 23.2616 8.48503 23.2616 11.7087Z"
          fill="#00B14F"/>
    <path fill-rule="evenodd" clip-rule="evenodd"
          d="M72.5241 18.171C72.6055 18.2356 72.6651 18.2809 72.7239 18.3288C73.5849 19.0279 74.5627 19.471 75.663 19.6129C76.3948 19.7069 77.1267 19.6926 77.8233 19.4022C78.6004 19.0782 78.9898 18.4647 79.0603 17.6481C79.0981 17.2176 79.083 16.7812 79.0905 16.3481C79.0905 16.312 79.083 16.2759 79.0771 16.2264C79.0486 16.2407 79.0284 16.2449 79.0175 16.2566C78.5282 16.8147 77.8887 17.1034 77.1804 17.2444C76.0297 17.4727 74.9144 17.3494 73.8711 16.7963C72.7549 16.2046 72.1112 15.2411 71.8023 14.0376C71.6815 13.5651 71.6278 13.0825 71.6278 12.594C71.6278 10.4522 71.6278 8.31126 71.6278 6.16944C71.6278 6.04523 71.6916 5.98284 71.8191 5.98228C72.5568 5.98228 73.2954 5.98564 74.0331 5.97893C74.1817 5.97725 74.2161 6.02257 74.2152 6.16692C74.211 8.34231 74.2001 10.5177 74.2186 12.6931C74.227 13.6935 74.8212 14.704 76.0818 14.923C76.8111 15.0498 77.5052 14.9339 78.1044 14.4648C78.5568 14.1098 78.7851 13.6238 78.8581 13.064C78.8866 12.845 78.8891 12.6226 78.8891 12.401C78.8908 10.3272 78.89 8.25251 78.89 6.17867C78.89 6.04831 78.9557 5.98312 79.0872 5.98312C79.8056 5.98312 80.5249 5.9848 81.2433 5.98145C81.3532 5.98145 81.3918 6.01166 81.3918 6.12915C81.3885 9.96881 81.4002 13.8076 81.3809 17.6473C81.3759 18.6981 81.0645 19.6699 80.3469 20.4756C79.746 21.1496 78.9823 21.5465 78.1212 21.7748C77.6126 21.9091 77.0931 21.9687 76.5669 21.993C75.1065 22.0593 73.8023 21.6531 72.6576 20.74C72.5543 20.6578 72.509 20.5705 72.5098 20.4353C72.5166 19.7262 72.5132 19.0178 72.5132 18.3086C72.5132 18.2759 72.5174 18.2423 72.5224 18.1744L72.5241 18.171Z"
          fill="#00B14F"/>
    <path fill-rule="evenodd" clip-rule="evenodd"
          d="M50.7149 17.403H50.542C49.8328 17.403 49.1236 17.398 48.4153 17.4072C48.2626 17.4089 48.2315 17.3611 48.2315 17.2201C48.2349 14.1962 48.234 11.1715 48.234 8.14757C48.234 6.69144 48.234 5.23447 48.234 3.77749C48.234 3.58698 48.234 3.58698 48.4229 3.58698C50.1836 3.58698 51.9444 3.55761 53.7044 3.60041C54.9759 3.63062 56.1408 4.01752 57.0623 4.95415C57.6405 5.54163 57.9813 6.25753 58.1357 7.06071C58.3321 8.07959 58.3103 9.09426 57.9662 10.0812C57.4492 11.5651 56.3749 12.4388 54.8793 12.8315C54.3741 12.9641 53.858 13.017 53.3359 13.017C52.526 13.0162 51.7153 13.017 50.9046 13.017C50.7149 13.017 50.7141 13.0179 50.7141 13.2092C50.7141 14.5453 50.7141 15.8814 50.7141 17.2176V17.4039L50.7149 17.403ZM52.1291 10.7057C52.4715 10.7057 52.8139 10.7166 53.1555 10.7023C53.4476 10.6906 53.7438 10.6754 54.0292 10.6159C54.8097 10.4522 55.3779 10.0166 55.6397 9.24282C55.8487 8.62427 55.8529 7.99398 55.6699 7.36789C55.492 6.76109 55.1001 6.34398 54.5101 6.10898C54.1416 5.96211 53.7572 5.9042 53.3678 5.89916C52.5294 5.88909 51.691 5.89665 50.8517 5.89497C50.7451 5.89497 50.7132 5.93525 50.7132 6.04016C50.7157 7.54413 50.7166 9.0481 50.7132 10.5512C50.7132 10.6738 50.7543 10.7082 50.871 10.7065C51.2906 10.7015 51.7094 10.7048 52.1291 10.7048V10.7057Z"
          fill="#00B14F"/>
    <path fill-rule="evenodd" clip-rule="evenodd"
          d="M64.3731 6.04285C67.648 6.04285 69.9904 8.03191 69.9904 11.7524V17.3822H67.7671V15.5123H67.6681C67.1519 16.7855 65.8226 17.6617 64.3337 17.681C61.0589 17.7213 58.8365 15.3931 58.8365 11.8917C58.8365 8.39028 61.0992 6.04285 64.374 6.04285H64.3731ZM64.3731 15.4922C66.358 15.4729 67.7277 14.0998 67.7075 11.7927C67.6882 9.40496 66.2388 8.21152 64.3933 8.21152C62.5477 8.21152 61.1378 9.66346 61.1378 11.7725C61.1378 14.0805 62.5276 15.5123 64.3731 15.4922Z"
          fill="#00B14F"/>
</svg>
