<svg width="62" height="24" viewBox="0 0 62 24" fill="currentBackgroundColor" xmlns="http://www.w3.org/2000/svg">
<path d="M3 12C3 7.02944 7.02944 3 12 3H50C54.9706 3 59 7.02944 59 12C59 16.9706 54.9706 21 50 21H12C7.02944 21 3 16.9706 3 12Z" fill="#FB795B"/>
<path d="M47.4111 12.9827C47.5306 11.9432 47.9681 11.0977 48.6181 11.0977C49.2681 11.0977 49.5201 11.9432 49.4006 12.9827C49.2811 14.0227 48.8306 14.8537 48.1806 14.8537C47.5306 14.8537 47.2916 14.0222 47.4111 12.9827ZM52.5006 9.30824C52.5006 9.25124 52.4606 9.23674 52.4606 9.23674H49.7806C49.7806 9.23674 49.6996 9.25124 49.6996 9.32274C49.6996 9.32274 49.6461 9.70774 49.5796 10.3077C49.2576 9.50824 48.6681 8.95124 47.7431 8.95124C45.9881 8.95124 44.8351 10.6932 44.6076 12.6487C44.3796 14.5617 45.0901 16.7177 46.7786 16.7177C47.7166 16.7177 48.5206 16.0327 49.0836 15.1042C49.1371 16.1182 49.7936 16.7317 50.7186 16.7317C51.4686 16.7317 52.2596 16.1752 52.4471 15.7182C52.6211 15.3332 51.6561 15.8182 51.9111 13.5482C52.0311 12.5632 52.5006 9.30824 52.5006 9.30824ZM40.4231 15.1222C39.4201 15.1222 39.7226 12.8872 39.8326 12.2687C39.8326 12.2687 40.2721 12.1282 40.6291 12.1842C41.3161 12.3107 41.5361 12.8027 41.4951 13.5617C41.4811 13.9697 41.1376 15.1217 40.4231 15.1217V15.1222ZM41.7471 8.25874C41.6326 9.11774 40.2151 9.75124 40.2151 9.75124C40.3581 9.25824 40.7736 7.87824 41.3891 7.87824C41.7471 7.87824 41.7616 8.07524 41.7471 8.25824V8.25874ZM39.9476 10.7707C45.5466 10.1392 44.6411 5.91724 41.8691 6.00124C38.6576 6.08574 36.8876 10.1392 36.8876 13.1972C36.8876 15.1327 38.0126 16.7322 40.0851 16.7322C42.2121 16.7322 43.9686 15.1892 43.8041 12.9167C43.6531 10.9247 41.4436 10.5042 39.8791 11.0512L39.9476 10.7707ZM36.3356 9.55024H36.3486C34.2586 9.09524 32.3686 9.12324 30.5201 9.55024C30.5066 9.55024 30.4661 9.56424 30.4661 9.62074C30.4661 9.62074 30.2116 11.9097 29.8096 13.0187C29.0461 15.0662 28.2146 15.1657 28.1881 15.4357C28.1481 15.7342 28.4831 16.9997 29.7291 16.9997C30.8146 16.9997 31.5651 16.2602 31.9671 14.5547C32.2351 13.4312 32.3956 12.1797 32.4496 10.8577H33.5346C33.2936 12.9622 32.8646 16.6157 32.8646 16.6157C32.8646 16.6867 32.9186 16.6867 32.9186 16.6867H35.5046C35.5046 16.6867 35.5581 16.6867 35.5581 16.6157C35.5581 16.6157 36.3356 9.93374 36.3756 9.60674C36.3756 9.56424 36.3486 9.54974 36.3356 9.54974V9.55024ZM22.3276 12.9822C22.4466 11.9427 22.8836 11.0972 23.5316 11.0972C24.1801 11.0972 24.4316 11.9427 24.3121 12.9822C24.1931 14.0222 23.7436 14.8532 23.0951 14.8532C22.4466 14.8532 22.2086 14.0217 22.3276 12.9822ZM27.4176 9.30774C27.4176 9.25074 27.3771 9.23624 27.3771 9.23624H24.6971C24.6971 9.23624 24.6166 9.25074 24.6166 9.32224C24.6166 9.32224 24.5631 9.70724 24.4961 10.3072C24.1741 9.50774 23.5846 8.95074 22.6601 8.95074C20.9046 8.95074 19.7521 10.6927 19.5241 12.6482C19.2966 14.5612 20.0066 16.7172 21.6951 16.7172C22.6331 16.7172 23.4371 16.0322 24.0001 15.1037C24.0536 16.1177 24.7101 16.7312 25.6351 16.7312C26.3851 16.7312 27.1761 16.1747 27.3636 15.7177C27.5381 15.3327 26.5731 15.8177 26.8276 13.5477C26.9481 12.5627 27.4176 9.30774 27.4176 9.30774ZM16.4156 11.9492C18.3581 11.3442 19.7106 9.85324 19.7376 8.37574C19.7646 7.12374 18.9206 6.15324 17.5811 6.27974C16.3486 6.39224 15.9736 7.26474 16.0676 7.36274C16.3486 7.64424 17.1391 9.58574 15.7591 10.4302L14.3661 6.70174C14.3661 6.70174 14.3396 6.61724 14.2726 6.61724H10.8836C10.7761 6.61724 10.8036 6.71574 10.8036 6.71574L12.9731 11.2602C11.0711 11.8367 9.58406 13.3142 9.50356 14.7632C9.43756 16.0012 10.2811 17.0002 11.4466 17.0002C12.6791 17.0002 13.3621 15.8467 13.2551 15.6637C13.0001 15.3822 12.2901 13.8627 13.5766 12.9062L15.0231 16.6202C15.0231 16.6202 15.0366 16.6907 15.1031 16.6907H18.7201C18.8001 16.6907 18.7601 16.6207 18.7601 16.6207L16.4156 11.9492Z" fill="white"/>
</svg>
