<svg width="42" height="24" viewBox="0 0 42 24" fill="currentBackgroundColor" xmlns="http://www.w3.org/2000/svg">
<path d="M4.01246 2.94516C4.03192 2.22895 4.40637 2.02655 5.14592 2.02655C8.26763 2.02655 26.3245 2.02655 30.5213 2.02655C31.2289 2.02655 31.3675 2.13632 31.4998 2.82761C32.1911 5.8738 32.1335 8.69034 31.6719 10.5937C31.0561 13.1316 29.6611 15.8345 27.999 17.8126C27.4447 18.4727 26.7347 19.1586 26.0956 19.7323C25.2081 20.5287 24.2475 21.2402 23.1047 21.6443C22.5123 21.8537 21.8996 21.9891 21.2651 21.9891C15.9154 21.9891 10.5657 21.9891 5.21599 21.9891C4.28959 21.9891 4 21.6419 4 20.6634" fill="#223745"/>
<path fill-rule="evenodd" clip-rule="evenodd" d="M27.3202 10.5353L27.3186 10.5317C27.1671 10.1766 26.7459 9.19009 25.216 9.19009C23.8871 9.19009 23.2978 10.0589 23.1312 10.5353C22.9342 11.0974 22.9124 11.8657 23.2059 12.543C23.6162 13.369 24.3947 13.7543 25.2167 13.7543C26.0388 13.7543 26.7083 13.2654 27.1419 12.5578C27.4774 12.0105 27.4883 10.9277 27.3217 10.5353H27.3202ZM25.2043 13.1308C24.253 13.1308 24.0054 12.125 24.0054 11.3356C24.0054 10.3734 24.4694 9.82066 25.2043 9.82066C26.0155 9.82066 26.379 10.568 26.379 11.3146C26.379 12.2558 25.9835 13.1315 25.2043 13.1315V13.1308ZM17.1922 9.76773C17.1828 9.42442 17.0357 9.29441 16.7072 9.29208C16.3343 9.28974 16.1825 9.45633 16.1957 9.84246C16.211 10.2964 16.2002 11.0665 16.1924 11.6233V11.6233V11.6234V11.6234C16.1891 11.8601 16.1864 12.0582 16.1864 12.1771C16.1864 12.5757 15.8314 12.9175 15.344 12.9175C14.817 12.9175 14.4356 12.557 14.4426 12.1771C14.4494 11.8023 14.4462 10.9092 14.444 10.295V10.295V10.2949V10.2949C14.4432 10.071 14.4426 9.88423 14.4426 9.77318C14.4426 9.39406 14.2697 9.29752 13.9981 9.2913C13.5901 9.28273 13.4726 9.35825 13.4625 9.77318V12.1771C13.4625 12.8653 13.9942 13.7543 15.344 13.7543C16.5406 13.7543 17.1976 13.0366 17.1937 12.1771C17.1929 11.9835 17.194 11.6714 17.1951 11.3314V11.3312V11.331V11.3309C17.1972 10.729 17.1996 10.04 17.1922 9.76695V9.76773ZM11.4703 9.54041C11.6112 9.54041 11.6626 9.69222 11.6626 9.78797V10.9759C11.3491 10.9759 11.0279 10.9706 10.7081 10.9654H10.7081H10.7081H10.7081C10.3911 10.9601 10.0755 10.9549 9.77012 10.9549C9.76318 10.3716 9.84626 9.94992 9.94762 9.43553L9.95073 9.41975C9.47196 9.45867 9.23375 9.81288 9.09518 10.2372C8.96454 10.6358 8.96848 11.038 8.97246 11.4438L8.97296 11.496C8.97841 12.1063 9.29836 13.464 10.1827 13.692C9.92348 13.0973 9.74677 12.325 9.74832 11.6571H11.619C11.6219 11.7082 11.6251 11.7563 11.6283 11.8023L11.6283 11.8023L11.6283 11.8023C11.6346 11.8949 11.6403 11.9792 11.6408 12.0635C11.6429 12.3127 11.6422 12.5513 11.6415 12.7934C11.6412 12.9158 11.6408 13.039 11.6408 13.165C11.6408 13.5138 11.7342 13.6064 12.1562 13.6119C12.4512 13.6158 12.5952 13.5434 12.596 13.165C12.5991 12.2464 12.5991 11.1861 12.589 10.2683C12.5976 9.06943 11.7015 9.21501 11.4688 9.53963L11.4703 9.54041ZM8.80948 10.2325C8.51443 11.1137 8.72151 12.188 9.10686 13.0202C9.31238 13.464 9.68293 13.7668 10.2341 13.9855C9.09518 14.4503 8.2225 13.6368 7.96794 12.9642C7.83793 12.6193 7.88308 12.3064 8.10339 12.0954C8.30035 12.8038 8.80948 13.7559 9.37621 13.8462C8.86397 13.3892 8.57515 12.8809 8.39455 12.3087C8.24041 11.8198 8.19837 11.3224 8.37197 10.8319C8.42958 10.67 8.58216 10.3625 8.80948 10.2325ZM21.5882 9.2913H21.9393L21.9401 9.29052C22.2912 9.29052 22.3566 9.65563 22.3597 9.78797C22.3877 10.874 22.4049 12.1351 22.4181 13.2218C22.4204 13.5356 22.2803 13.6438 21.9884 13.6438C21.6536 13.6446 21.526 13.4383 21.5221 13.2218C21.5211 13.1737 21.5199 13.1122 21.5185 13.0395C21.5078 12.501 21.4848 11.3479 21.48 10.459C21.4146 10.5865 21.2773 10.8628 21.1265 11.1662C20.8914 11.6393 20.6235 12.1782 20.5443 12.3219C20.3263 12.7189 19.9114 12.7174 19.6957 12.3219C19.4665 11.9008 19.1703 11.286 18.9484 10.8254C18.8975 10.7197 18.8505 10.6221 18.8091 10.5369C18.8091 10.6715 18.7592 13.1448 18.7553 13.2218C18.7444 13.4492 18.6199 13.6438 18.3498 13.6383C18.1294 13.6337 17.9878 13.4141 17.9909 13.2218C18.0002 12.652 18.0648 10.0371 18.0711 9.79108C18.0788 9.4758 18.1824 9.29052 18.4735 9.29052H18.827C19.1321 9.29052 19.2362 9.51904 19.3167 9.69558C19.33 9.72486 19.3427 9.75271 19.3556 9.77785C19.499 10.0601 19.6239 10.3169 19.7487 10.5738C19.8915 10.8674 20.0342 11.1611 20.2049 11.4928C20.4649 10.9549 20.9102 10.0612 21.0417 9.8051C21.0604 9.76873 21.0777 9.73384 21.0942 9.70057C21.2184 9.44969 21.2968 9.2913 21.5882 9.2913Z" fill="url(#paint0_linear_1760_3742)"/>
<path d="M23.564 21.8754C23.947 21.6769 24.3308 21.4815 24.7115 21.2791C26.6717 20.2383 28.2396 18.7576 29.5202 16.9617C30.8257 15.1315 31.8011 13.1393 32.3733 10.9619C32.789 9.37772 33.0218 7.76315 32.9556 6.12367C32.9066 4.90768 32.7423 3.70181 32.3562 2.53721C32.1888 2.03119 32.0938 1.91598 32.7804 2.05377C33.7886 2.25695 34.416 2.90776 34.806 3.80847C35.3673 5.10464 35.4117 6.47087 35.2716 7.85189C35.1151 9.40185 34.8076 10.923 34.3226 12.4029C33.7131 14.2596 32.4722 16.8293 31.1853 18.106C31.8883 17.695 32.4652 17.2123 32.7991 16.7741C33.9412 15.2747 34.6994 13.5714 35.2778 11.7894C35.8484 10.0309 36.1552 8.48246 36.1528 6.62812C36.1528 6.54093 36.1746 6.25523 36.1645 5.97186C36.4416 6.10965 36.6292 6.29104 36.7585 6.45608C37.6522 7.602 37.8997 8.93632 37.7907 10.3407C37.6794 11.7809 37.3626 13.1806 36.7585 14.5025C35.7714 16.6612 34.3841 18.4782 32.2807 19.6614C31.8221 19.9191 30.3656 20.4345 30.2558 20.4952C33.4133 20.1776 35.5729 18.1745 36.9858 15.4374C37.3657 16.1692 37.4692 16.8496 37.2972 17.5634C37.0146 18.7343 36.2696 19.5937 35.3175 20.2554C33.7045 21.3757 31.8945 21.9611 29.9265 21.9868C27.9702 22.0117 26.0139 21.993 24.0576 21.9938C23.905 21.9938 23.7088 22 23.5562 22C23.4698 22 23.4916 21.9066 23.5648 21.8747L23.564 21.8754Z" fill="url(#paint1_linear_1760_3742)"/>
<defs>
<linearGradient id="paint0_linear_1760_3742" x1="26.4156" y1="15.5145" x2="7.88239" y2="13.3277" gradientUnits="userSpaceOnUse">
<stop stop-color="#B39D48"/>
<stop offset="0.127454" stop-color="#F8E6A8"/>
<stop offset="0.251999" stop-color="#B39D48"/>
<stop offset="0.384081" stop-color="#F8E6A8"/>
<stop offset="0.488356" stop-color="#B39D48"/>
<stop offset="0.625999" stop-color="#F8E6A8"/>
<stop offset="0.745338" stop-color="#B19B44"/>
<stop offset="0.871873" stop-color="#F8E6A8"/>
<stop offset="1" stop-color="#9C8426"/>
</linearGradient>
<linearGradient id="paint1_linear_1760_3742" x1="36.2244" y1="16.5265" x2="26.727" y2="20.4189" gradientUnits="userSpaceOnUse">
<stop stop-color="#B39D48"/>
<stop offset="0.427309" stop-color="#F8E6A8"/>
<stop offset="1" stop-color="#9C8426"/>
</linearGradient>
</defs>
</svg>
