<svg width="28" height="24" viewBox="0 0 28 24" fill="currentBackgroundColor" xmlns="http://www.w3.org/2000/svg">
  <path d="M0 1.7791V22.2209C0 23.1994 0.800516 24 1.77892 24H13.9912C23.2239 24 27.2264 18.8317 27.2264 11.9733C27.2264 5.15048 23.2239 0 13.9912 0H1.77892C0.800516 0 0 0.800593 0 1.7791Z" fill="white"/>
  <path d="M8.17416 5.01704V20.1216H14.7473C20.7156 20.1216 23.3039 16.7502 23.3039 11.9822C23.3039 7.41882 20.7156 3.87842 14.7473 3.87842H9.31267C8.68116 3.87842 8.17416 4.39436 8.17416 5.01704Z" fill="#CC0066"/>
  <path d="M13.9911 22.3721H3.37088C2.42805 22.3721 1.66312 21.6071 1.66312 20.6642V3.34471C1.66312 2.40179 2.42805 1.63678 3.37088 1.63678H13.9911C24.0687 1.63678 25.5718 8.12158 25.5718 11.9822C25.5718 18.6805 21.4536 22.3721 13.9911 22.3721ZM3.37088 2.20609C2.73937 2.20609 2.23237 2.71313 2.23237 3.34471V20.6642C2.23237 21.2958 2.73937 21.8028 3.37088 21.8028H13.9911C21.089 21.8028 25.0026 18.3158 25.0026 11.9822C25.0026 3.47814 18.1004 2.20609 13.9911 2.20609H3.37088Z" fill="black"/>
  <path d="M10.4866 9.94518C10.7178 9.94518 10.9313 9.98076 11.1358 10.0519C11.3404 10.1231 11.5094 10.2387 11.6606 10.3811C11.8029 10.5323 11.9185 10.7191 12.0074 10.9326C12.0875 11.155 12.1319 11.4129 12.1319 11.7154C12.1319 11.9822 12.0964 12.2224 12.0341 12.4448C11.963 12.6672 11.8651 12.8629 11.7317 13.023C11.5983 13.1831 11.4293 13.3077 11.2248 13.4055C11.0202 13.4945 10.7801 13.5478 10.5044 13.5478H8.948V9.93628H10.4866V9.94518ZM10.4332 12.8896C10.5489 12.8896 10.6556 12.8718 10.7712 12.8362C10.8779 12.8006 10.9758 12.7384 11.0558 12.6494C11.1358 12.5604 11.207 12.4537 11.2604 12.3114C11.3137 12.169 11.3404 12.0089 11.3404 11.8043C11.3404 11.6264 11.3226 11.4574 11.287 11.3151C11.2515 11.1728 11.1892 11.0393 11.1092 10.9415C11.0291 10.8436 10.9224 10.7547 10.789 10.7013C10.6556 10.6479 10.4955 10.6212 10.2998 10.6212H9.73064V12.8985H10.4332V12.8896Z" fill="white"/>
  <path d="M15.343 9.94518V10.6123H13.4397V11.3862H15.1918V12H13.4397V12.8807H15.3874V13.5478H12.6482V9.93628H15.343V9.94518Z" fill="white"/>
  <path d="M18.0647 9.94519L19.4166 13.5568H18.5895L18.3138 12.7562H16.9619L16.6773 13.5568H15.8769L17.2376 9.94519H18.0647ZM18.1092 12.1602L17.6556 10.8347H17.6467L17.1754 12.1602H18.1092Z" fill="white"/>
  <path d="M20.7066 9.94519V12.8896H22.4676V13.5568H19.9151V9.94519H20.7066Z" fill="white"/>
  <path d="M5.20319 13.4144C6.12171 13.4144 6.86631 12.6696 6.86631 11.7509C6.86631 10.8322 6.12171 10.0875 5.20319 10.0875C4.28467 10.0875 3.54007 10.8322 3.54007 11.7509C3.54007 12.6696 4.28467 13.4144 5.20319 13.4144Z" fill="black"/>
  <path d="M6.45722 20.1216C5.06091 20.1216 3.94031 18.9919 3.94031 17.6042V15.6383C3.94031 14.9444 4.50061 14.3751 5.20321 14.3751C5.89692 14.3751 6.46612 14.9355 6.46612 15.6383V20.1216H6.45722Z" fill="black"/>
</svg>
