<svg width="62" height="24" viewBox="0 0 62 24" fill="none" xmlns="http://www.w3.org/2000/svg">
<path d="M59.3852 4.82932C59.3852 3.26709 58.1181 2 56.5559 2H4.82735C3.26513 2 2 3.26709 2 4.82932V19.1707C2 20.7329 3.26513 22 4.82735 22H56.5559C58.1181 22 59.3852 20.7329 59.3852 19.1707C59.3852 6.1288 59.3852 16.6631 59.3852 4.82932Z" fill="white"/>
<path d="M46.8264 16.8411C46.547 9.67142 59.0645 9.11067 59.3852 9.09887V4.82932C59.3852 3.26709 58.1181 2 56.5559 2H4.82735C3.26513 2 2 3.26709 2 4.82932V19.1707C2 20.7329 3.26513 22 4.82735 22H56.5559C58.1181 22 59.3852 20.7329 59.3852 19.1707V13.577C48.3513 13.5002 46.8264 16.8431 46.8264 16.8431M9.13429 16.0423H7.43828V9.27792H9.13429V16.0403V16.0423ZM9.05363 8.37678C8.84507 8.58928 8.59322 8.69356 8.30006 8.69356C8.00689 8.69356 7.73931 8.58534 7.52682 8.36891C7.31432 8.15248 7.20807 7.88883 7.20807 7.576C7.20807 7.26316 7.31235 7.02312 7.52485 6.81062C7.73341 6.6001 7.98722 6.49385 8.28629 6.49385C8.58535 6.49385 8.83916 6.60207 9.05166 6.81653C9.26415 7.03099 9.3704 7.29267 9.3704 7.59961C9.3704 7.90654 9.26612 8.16035 9.05363 8.37482M15.698 15.1982C15.0605 15.8751 14.303 16.2135 13.4294 16.2135C13.0418 16.2135 12.6778 16.1446 12.3433 16.0069C12.0069 15.8672 11.6744 15.6409 11.3419 15.3261V18.5155H9.65963V9.27792H11.3419V10.0236C11.6488 9.71864 11.9813 9.48647 12.3355 9.33301C12.6936 9.17954 13.0733 9.1028 13.4806 9.1028C14.362 9.1028 15.1117 9.43532 15.7295 10.1023C16.3473 10.7693 16.6562 11.6252 16.6562 12.668C16.6562 13.7108 16.3375 14.5175 15.698 15.1963M42.3857 14.9188C42.122 15.3674 41.7659 15.7039 41.3252 15.9302C40.8825 16.1564 40.3158 16.2686 39.6292 16.2686C38.8913 16.2686 38.305 16.1604 37.8702 15.942C37.4354 15.7255 37.0871 15.395 36.8254 14.9543C36.7034 14.7496 36.611 14.5312 36.546 14.303C36.4811 14.5175 36.3926 14.7221 36.2745 14.9208C36.0109 15.3694 35.6567 15.7059 35.214 15.9321C34.7713 16.1584 34.2027 16.2705 33.516 16.2705C32.7782 16.2705 32.1919 16.1623 31.759 15.9439C31.3242 15.7275 30.9759 15.3969 30.7143 14.9562C30.4526 14.5155 30.3207 14.0157 30.3207 13.4609C30.3207 12.9788 30.427 12.5421 30.6356 12.1466C30.8441 11.7491 31.1589 11.395 31.578 11.0861C31.3065 10.8087 31.0979 10.5135 30.9602 10.2007C30.852 9.96065 30.7871 9.71077 30.7615 9.45106L26.606 18.5175H24.853L26.244 15.5386L23.7256 9.40777V16.0423H22.0295V15.3281C21.697 15.6429 21.3665 15.8692 21.034 16.0089C20.6995 16.1466 20.3394 16.2154 19.9518 16.2154C19.0763 16.2154 18.3227 15.877 17.6852 15.2002C17.0477 14.5214 16.729 13.6813 16.729 12.6719C16.729 11.6626 17.0379 10.7713 17.6537 10.1062C18.2715 9.43925 19.0192 9.10674 19.9007 9.10674C20.306 9.10674 20.6877 9.18151 21.0418 9.33694C21.398 9.49041 21.7265 9.72258 22.0295 10.0275V9.28185H25.4058L27.1628 13.5239L29.1009 9.28185H30.7516C30.7516 9.25824 30.7516 9.23463 30.7516 9.21102C30.7516 8.73487 30.8658 8.30202 31.096 7.91048C31.3262 7.51894 31.6469 7.21594 32.062 6.99754C32.4752 6.77914 32.9533 6.67093 33.4964 6.67093C34.0394 6.67093 34.4998 6.78111 34.9071 6.99951C35.3144 7.21987 35.6351 7.53074 35.8692 7.93606C36.1033 8.3394 36.2194 8.77226 36.2194 9.2366C36.2194 9.56321 36.1584 9.86621 36.0384 10.1456C35.9164 10.425 35.6921 10.7378 35.3695 11.088C35.7826 11.3517 36.1033 11.694 36.3296 12.1112C36.4221 12.2804 36.4929 12.4555 36.548 12.6365C36.5972 12.4673 36.6641 12.304 36.7467 12.1486C36.9553 11.7511 37.2681 11.397 37.6872 11.088C37.4118 10.8106 37.2071 10.5155 37.0694 10.2027C36.9297 9.88982 36.8608 9.56124 36.8608 9.21299C36.8608 8.73684 36.975 8.30398 37.2052 7.91244C37.4354 7.52091 37.758 7.2179 38.1712 6.99951C38.5844 6.78111 39.0645 6.6729 39.6075 6.6729C40.1506 6.6729 40.6129 6.78308 41.0183 7.00148C41.4236 7.22184 41.7443 7.53271 41.9784 7.93802C42.2126 8.34137 42.3286 8.77423 42.3286 9.23856C42.3286 9.56517 42.2657 9.86818 42.1457 10.1476C42.0217 10.427 41.7994 10.7398 41.4747 11.09C41.8899 11.3537 42.2106 11.696 42.4369 12.1131C42.6611 12.5283 42.7753 12.9808 42.7753 13.4648C42.7753 13.9921 42.6434 14.4801 42.3818 14.9267M58.2657 8.08362C48.8373 8.94737 46.5864 3.20216 46.5864 3.20216C58.8697 3.03492 58.2657 8.08362 58.2657 8.08362Z" fill="#EA6011"/>
<path d="M34.5351 12.4C34.2616 12.1443 33.9212 12.0164 33.51 12.0164C33.0988 12.0164 32.7387 12.1443 32.4554 12.4C32.1681 12.6558 32.0245 12.9588 32.0245 13.309C32.0245 13.6789 32.1622 13.9898 32.4279 14.2436C32.6994 14.4994 33.0535 14.6273 33.4923 14.6273C33.9311 14.6273 34.2872 14.5092 34.5528 14.2692C34.8145 14.0311 34.9483 13.7242 34.9483 13.3484C34.9483 12.9726 34.8105 12.6558 34.5371 12.4" fill="#EA6011"/>
<path d="M33.4728 10.3892C33.7679 10.3892 34.0099 10.2928 34.1968 10.098C34.3857 9.90326 34.4821 9.65141 34.4821 9.34251C34.4821 9.04935 34.3857 8.81127 34.1968 8.62829C34.004 8.44334 33.7541 8.35087 33.4433 8.35087C33.158 8.35087 32.9219 8.44531 32.7369 8.63419C32.552 8.82111 32.4615 9.06115 32.4615 9.35628C32.4615 9.65141 32.5598 9.89539 32.7546 10.0941C32.9494 10.2928 33.1894 10.3912 33.4747 10.3912" fill="#EA6011"/>
<path d="M13.1243 10.6765C12.5892 10.6765 12.1445 10.8595 11.7943 11.2215C11.4441 11.5855 11.267 12.0636 11.267 12.6519C11.267 13.2402 11.4441 13.74 11.7943 14.1099C12.1465 14.4798 12.5911 14.6667 13.1243 14.6667C13.6575 14.6667 14.0786 14.4778 14.4328 14.1C14.7869 13.7242 14.964 13.2422 14.964 12.6578C14.964 12.0735 14.7889 11.6032 14.4406 11.2333C14.0924 10.8615 13.6536 10.6785 13.1243 10.6785" fill="#EA6011"/>
<path d="M20.2469 10.6765C19.7235 10.6765 19.2867 10.8595 18.9385 11.2313C18.5902 11.6012 18.4191 12.0774 18.4191 12.6558C18.4191 13.2343 18.5942 13.7222 18.9483 14.098C19.3025 14.4758 19.7373 14.6647 20.2528 14.6647C20.7683 14.6647 21.2267 14.4778 21.5789 14.1079C21.9292 13.738 22.1043 13.252 22.1043 12.6499C22.1043 12.0479 21.9272 11.5855 21.5789 11.2195C21.2267 10.8555 20.784 10.6745 20.2469 10.6745" fill="#EA6011"/>
<path d="M40.6463 12.4C40.3748 12.1443 40.0305 12.0164 39.6213 12.0164C39.212 12.0164 38.85 12.1443 38.5647 12.4C38.2794 12.6558 38.1358 12.9588 38.1358 13.309C38.1358 13.6789 38.2715 13.9898 38.5391 14.2436C38.8087 14.4994 39.1628 14.6273 39.6016 14.6273C40.0403 14.6273 40.3984 14.5092 40.6621 14.2692C40.9238 14.0311 41.0556 13.7242 41.0556 13.3484C41.0556 12.9726 40.9198 12.6558 40.6463 12.4Z" fill="#EA6011"/>
<path d="M39.5839 10.3892C39.877 10.3892 40.119 10.2928 40.3079 10.098C40.4968 9.90326 40.5932 9.65141 40.5932 9.34251C40.5932 9.04935 40.4948 8.81127 40.306 8.62829C40.1151 8.44334 39.8652 8.35087 39.5524 8.35087C39.2671 8.35087 39.031 8.44531 38.848 8.63419C38.6631 8.82111 38.5726 9.06115 38.5726 9.35628C38.5726 9.65141 38.669 9.89539 38.8638 10.0941C39.0605 10.2928 39.2986 10.3912 39.5858 10.3912" fill="#EA6011"/>
</svg>
