<svg width="36" height="24" viewBox="0 0 36 24" fill="currentBackgroundColor" xmlns="http://www.w3.org/2000/svg">
<path d="M33.1585 19.1619C33.1585 21.8286 30.9873 24 28.3208 24H1.99957V4.83809C1.99957 2.17143 4.17079 0 6.8372 0H33.1585V19.1619Z" fill="white"/>
<path d="M24.5879 14.2476H26.5875C26.6446 14.2476 26.7779 14.2285 26.8351 14.2285C27.2159 14.1523 27.5397 13.8095 27.5397 13.3333C27.5397 12.8761 27.2159 12.5333 26.8351 12.4381C26.7779 12.419 26.6637 12.419 26.5875 12.419H24.5879V14.2476Z" fill="url(#paint0_linear_163_77)"/>
<path d="M26.359 1.61902C24.4546 1.61902 22.893 3.16188 22.893 5.08569V8.68569H27.7873C27.9015 8.68569 28.0348 8.68569 28.1301 8.70473C29.2346 8.76188 30.0535 9.3333 30.0535 10.3238C30.0535 11.1047 29.5012 11.7714 28.4728 11.9047V11.9428C29.5964 12.019 30.4534 12.6476 30.4534 13.619C30.4534 14.6666 29.5012 15.3524 28.2443 15.3524H22.874V22.4H27.9587C29.863 22.4 31.4246 20.8571 31.4246 18.9333V1.61902H26.359Z" fill="url(#paint1_linear_163_77)"/>
<path d="M27.2921 10.5523C27.2921 10.0952 26.9684 9.79042 26.5875 9.73328C26.5494 9.73328 26.4542 9.71423 26.3971 9.71423H24.5879V11.3904H26.3971C26.4542 11.3904 26.5684 11.3904 26.5875 11.3714C26.9684 11.3142 27.2921 11.0095 27.2921 10.5523Z" fill="url(#paint2_linear_163_77)"/>
<path d="M7.19888 1.61902C5.2945 1.61902 3.73291 3.16188 3.73291 5.08569V13.6381C4.70414 14.1143 5.71347 14.419 6.72279 14.419C7.92255 14.419 8.57004 13.6952 8.57004 12.7047V8.66664H11.5409V12.6857C11.5409 14.2476 10.5696 15.5238 7.27506 15.5238C5.27546 15.5238 3.71387 15.0857 3.71387 15.0857V22.3809H8.79856C10.7029 22.3809 12.2645 20.8381 12.2645 18.9143V1.61902H7.19888Z" fill="url(#paint3_linear_163_77)"/>
<path d="M16.779 1.61902C14.8746 1.61902 13.313 3.16188 13.313 5.08569V9.61902C14.189 8.87616 15.7125 8.39997 18.1692 8.51426C19.4832 8.5714 20.8924 8.9333 20.8924 8.9333V10.4C20.1878 10.0381 19.3499 9.71426 18.2644 9.63807C16.3981 9.50473 15.2745 10.419 15.2745 12.019C15.2745 13.6381 16.3981 14.5524 18.2644 14.4C19.3499 14.3238 20.1878 13.9809 20.8924 13.6381V15.1047C20.8924 15.1047 19.5022 15.4666 18.1692 15.5238C15.7125 15.6381 14.189 15.1619 13.313 14.419V22.419H18.3977C20.3021 22.419 21.8637 20.8762 21.8637 18.9524V1.61902H16.779Z" fill="url(#paint4_linear_163_77)"/>
<defs>
<linearGradient id="paint0_linear_163_77" x1="22.8893" y1="13.3352" x2="31.4481" y2="13.3352" gradientUnits="userSpaceOnUse">
<stop stop-color="#007940"/>
<stop offset="0.2285" stop-color="#00873F"/>
<stop offset="0.7433" stop-color="#40A737"/>
<stop offset="1" stop-color="#5CB531"/>
</linearGradient>
<linearGradient id="paint1_linear_163_77" x1="22.8896" y1="12.0008" x2="31.448" y2="12.0008" gradientUnits="userSpaceOnUse">
<stop stop-color="#007940"/>
<stop offset="0.2285" stop-color="#00873F"/>
<stop offset="0.7433" stop-color="#40A737"/>
<stop offset="1" stop-color="#5CB531"/>
</linearGradient>
<linearGradient id="paint2_linear_163_77" x1="22.8892" y1="10.5495" x2="31.4473" y2="10.5495" gradientUnits="userSpaceOnUse">
<stop stop-color="#007940"/>
<stop offset="0.2285" stop-color="#00873F"/>
<stop offset="0.7433" stop-color="#40A737"/>
<stop offset="1" stop-color="#5CB531"/>
</linearGradient>
<linearGradient id="paint3_linear_163_77" x1="3.72858" y1="12.0008" x2="12.4191" y2="12.0008" gradientUnits="userSpaceOnUse">
<stop stop-color="#1F286F"/>
<stop offset="0.4751" stop-color="#004E94"/>
<stop offset="0.8261" stop-color="#0066B1"/>
<stop offset="1" stop-color="#006FBC"/>
</linearGradient>
<linearGradient id="paint4_linear_163_77" x1="13.2635" y1="12.0008" x2="21.7037" y2="12.0008" gradientUnits="userSpaceOnUse">
<stop stop-color="#6C2C2F"/>
<stop offset="0.1735" stop-color="#882730"/>
<stop offset="0.5731" stop-color="#BE1833"/>
<stop offset="0.8585" stop-color="#DC0436"/>
<stop offset="1" stop-color="#E60039"/>
</linearGradient>
</defs>
</svg>
