<svg width="66" height="24" viewBox="0 0 66 24" fill="currentBackgroundColor" xmlns="http://www.w3.org/2000/svg">
<path d="M60.4615 2H5.07692C3.37759 2 2 3.37759 2 5.07692V18.9231C2 20.6224 3.37759 22 5.07692 22H60.4615C62.1609 22 63.5385 20.6224 63.5385 18.9231V5.07692C63.5385 3.37759 62.1609 2 60.4615 2Z" fill="#F14635"/>
<path fill-rule="evenodd" clip-rule="evenodd" d="M19.0769 14.5423C19.4308 14.3807 20.0615 15.8038 20.0039 16.05C20 16.0692 19.9923 16.0884 19.9846 16.1077C19.9731 16.1461 19.9577 16.1846 19.9577 16.223C19.7654 16.3692 19.5615 16.5 19.3539 16.6192C19.2808 16.6346 19.2231 16.6192 19.1923 16.5769C18.9115 16.123 18.8115 14.673 19.0731 14.5423H19.0769ZM14.6692 14.423C14.8731 14.423 15.0077 15.45 15.0346 16.2384C15.0654 16.7961 15.0039 17.0154 14.9039 17.1038C14.8539 17.0807 14.8 17.0654 14.75 17.0461C14.7 17.0269 14.6462 17.0077 14.5962 16.9884C14.5385 16.8577 14.4769 16.6654 14.45 16.4154C14.3615 15.623 14.45 14.4384 14.6692 14.423ZM18.2846 16.9154C18.2423 17.0192 18.1077 17.1192 17.9308 17.2077C17.5038 17.3115 17.0654 17.3692 16.6077 17.3846H16.4615C16.2692 17.3269 16.1385 17.2384 16.0654 17.1192C15.8462 16.7384 15.8308 15.9038 15.8308 14.923V14.5346C15.8308 13.6 15.8308 12.8 16.1846 12.5038C16.3154 12.3884 16.5231 12.3423 16.7885 12.3884C17.8154 12.5346 17.9039 13.1654 17.9769 13.723L17.9923 13.7807L18.05 14.0884C18.0577 14.1384 18.0654 14.1923 18.0731 14.2538C18.1692 14.8923 18.3269 15.9769 18.3269 16.5654C18.3269 16.7269 18.3115 16.8423 18.2846 16.9154ZM16.6231 6.61536C13.6423 6.61536 11.2308 9.0192 11.2308 11.9615C11.2308 13.75 12.1269 15.3461 13.4769 16.3115C13.5077 16.2692 13.5346 16.1654 13.5654 16.0615V16.0192C13.6962 15.4461 13.7269 14.9038 13.6692 14.2615C13.6269 13.8654 13.5654 13.6461 13.5077 13.4423C13.45 13.223 13.4039 13.0307 13.4039 12.7384C13.4039 12.473 13.4615 12.2846 13.5231 12.0923C13.5962 11.873 13.6692 11.6077 13.6846 11.1692C13.7154 10.3192 13.8039 10.1 14.05 9.84997C14.3 9.59997 14.3885 9.49997 14.3885 9.32305C14.3885 9.28459 14.3769 9.23459 14.3654 9.17689C14.3192 8.96536 14.2423 8.63074 14.5654 8.29997C14.8577 8.03459 15.1231 7.93459 15.3154 7.93459C15.4192 7.93459 15.5077 7.96536 15.55 8.02305C15.6808 8.1692 15.6539 8.43459 15.3731 8.79997C15.1077 9.16536 15.1077 9.3269 15.1231 9.41536C15.1385 9.50382 15.2269 9.6192 15.3885 9.73843C15.4115 9.75766 15.4346 9.7769 15.4577 9.79613C15.5615 9.88074 15.6692 9.97305 15.7423 10.1038C15.8808 10.3461 15.9654 10.5807 16.0692 10.8654C16.0962 10.9384 16.1231 11.0192 16.1539 11.1L16.1962 11.2154C16.3154 11.5654 16.65 11.6846 17.2231 11.6846C17.7962 11.6846 18.4115 11.3038 18.4115 11.0115C18.4115 10.8577 18.3808 10.7769 18.35 10.7C18.3231 10.6269 18.2962 10.5577 18.2962 10.4384C18.2962 10.1884 18.6615 9.47305 19.2231 9.47305C19.5038 9.47305 19.6654 9.67689 19.5154 9.97305C19.4731 10.0654 19.4115 10.173 19.35 10.2807C19.2269 10.5 19.1039 10.723 19.1039 10.8384C19.1039 11.1615 19.5885 10.9115 19.8962 10.6615C20.2038 10.4115 20.2769 10.3384 20.5 9.95766C20.6308 9.72305 20.8231 9.68074 20.9423 9.73843C21.0731 9.81151 21.1615 10.0154 21.0462 10.2961C20.9423 10.5154 20.6808 10.8077 20.4 11.1154C20.3769 11.1423 20.3539 11.1692 20.3269 11.1961C19.9769 11.5846 19.6039 12 19.6039 12.273C19.6039 13.7692 20.4577 15.0846 20.5423 15.2192C20.6308 15.3654 20.6885 15.4115 20.7192 15.423C21.5115 14.5 21.9962 13.3 21.9962 11.9807V11.9384C21.9962 9.00766 19.5885 6.6192 16.6192 6.6192L16.6231 6.61536Z" fill="white"/>
<path fill-rule="evenodd" clip-rule="evenodd" d="M48.1461 14.0154L48.5307 13.5308L49.373 14.7769L50.6769 14.7923L49.2423 12.6385L50.5 10.9962H49.1807L48.1461 12.3423V9.39618H46.9461V14.7885H48.1461V14.0116V14.0154ZM43.1115 10.6462C43.4538 10.6462 43.7346 10.3693 43.7346 10.0308C43.7346 9.69233 43.4538 9.41541 43.1115 9.41541C42.7692 9.41541 42.4884 9.69233 42.4884 10.0308C42.4884 10.3693 42.7692 10.6462 43.1115 10.6462ZM45.8961 14.2346C45.8961 14.5731 45.6154 14.85 45.273 14.85C44.9307 14.85 44.6346 14.5731 44.6346 14.2346C44.6346 13.8962 44.9307 13.6193 45.273 13.6193C45.6154 13.6193 45.8961 13.8962 45.8961 14.2346ZM26.8846 13.6039L27.3153 13.0193L28.5 14.7923H29.9807L28.1 11.9923L30.1153 9.40003H28.5769L26.8884 11.6116V9.40003H25.6461V14.7923H26.8884V13.6039H26.8846ZM32.4461 14.5308C32.4807 14.6423 32.5038 14.7308 32.5423 14.7923V14.8077H33.7269V14.75C33.623 14.5577 33.5653 14.2962 33.5653 13.9423V12.2269C33.5653 11.8154 33.4192 11.4962 33.1346 11.2616C32.8538 11.0269 32.4846 10.9116 31.9807 10.9116C31.4769 10.9116 31.0769 11.0154 30.7653 11.25C30.4538 11.4846 30.2923 11.7769 30.2923 12.1423H31.4923C31.4923 11.8654 31.6384 11.7308 31.923 11.7308C32.2346 11.7308 32.3807 11.9077 32.3807 12.2577V12.4616H32.0115C31.4192 12.4616 30.9769 12.5769 30.6653 12.7846C30.3538 13.0039 30.2077 13.3116 30.2077 13.7231C30.2077 14.0616 30.3423 14.3231 30.5923 14.5423C30.8423 14.7616 31.1538 14.8654 31.5115 14.8654C31.8961 14.8654 32.2077 14.7346 32.4307 14.4539C32.4384 14.4808 32.4461 14.5077 32.4538 14.5308H32.4461ZM32.1577 13.9423C32.0538 14 31.9346 14.0308 31.7884 14.0308C31.6692 14.0308 31.5807 13.9885 31.5077 13.9423C31.4346 13.8693 31.4038 13.7808 31.4038 13.6769C31.4038 13.3116 31.6115 13.1193 32.0269 13.1193H32.3692V13.7193C32.323 13.8077 32.2653 13.8808 32.1615 13.9385L32.1577 13.9423ZM36.2153 13.4885C36.3192 13.5616 36.3769 13.6346 36.3769 13.7385C36.3769 13.8423 36.3461 13.9308 36.2577 13.9577C36.1692 14.0308 36.05 14.0616 35.8884 14.0616C35.7115 14.0616 35.5769 14.0193 35.4577 13.9462C35.3384 13.8731 35.2807 13.7423 35.2807 13.5654H34.1692C34.1692 13.7846 34.2423 13.9885 34.3923 14.1962C34.5384 14.4 34.7461 14.5616 35 14.6808C35.25 14.7962 35.5461 14.8577 35.873 14.8577C36.3769 14.8577 36.7769 14.7539 37.0884 14.5346C37.4 14.3154 37.5461 14.0346 37.5461 13.6846C37.5461 13.1731 37.2654 12.8193 36.6884 12.6308C36.5115 12.5731 36.3038 12.5269 36.0807 12.4846C35.8423 12.4423 35.6807 12.3808 35.5769 12.3231C35.473 12.2654 35.4153 12.1769 35.4153 12.0731C35.4153 11.9693 35.4615 11.8808 35.55 11.8077C35.623 11.7346 35.7423 11.7039 35.8615 11.7039C36.1884 11.7039 36.35 11.85 36.35 12.1577H37.5192C37.5192 11.7923 37.373 11.4846 37.0615 11.2654C36.7654 11.0462 36.35 10.9269 35.8461 10.9269C35.373 10.9269 35.0038 11.0423 34.7077 11.2654C34.4269 11.5 34.2769 11.7769 34.2769 12.1308C34.2769 12.3346 34.323 12.5116 34.423 12.6577C34.5269 12.8039 34.673 12.9346 34.8653 13.0385C35.0577 13.1539 35.3077 13.2423 35.6038 13.3039C35.9 13.3769 36.1077 13.4346 36.2115 13.4962L36.2153 13.4885ZM41.3961 14.3385C41.6615 13.9885 41.7961 13.5193 41.7961 12.9308H41.7807V12.8731C41.7807 12.2731 41.6461 11.8039 41.3807 11.4539C41.1307 11.1154 40.7577 10.9423 40.2846 10.9423C39.9153 10.9423 39.6038 11.0885 39.3807 11.3654L39.35 11.0154H38.2384V16.4077H39.4384V14.4885C39.6769 14.7385 39.9577 14.8693 40.3115 14.8693C40.7538 14.8693 41.1269 14.6923 41.3923 14.3423L41.3961 14.3385ZM40.0192 11.8462C40.4192 11.8462 40.6115 12.1846 40.6115 12.8577H40.6269V13.0039C40.6115 13.65 40.4192 13.9693 40.0346 13.9693C39.7538 13.9693 39.5615 13.8539 39.4577 13.6462V12.15C39.5461 11.9462 39.7384 11.8423 40.0192 11.8423V11.8462ZM42.5346 14.7923H43.7346V11.0116H42.5346V14.7923ZM54.3077 13.8846H52.5615L54.2654 11.6423V10.9962H51.5423L50.8307 11.9039H52.7538L51.05 14.1308V14.7885H54.3077V13.8808V13.8846Z" fill="white"/>
</svg>
