<svg width="60" height="24" viewBox="0 0 60 24" fill="currentBackgroundColor" xmlns="http://www.w3.org/2000/svg">
  <path d="M51.0045 1H9.38439C5.85839 1 3 3.85839 3 7.38439V16.6156C3 20.1416 5.85839 23 9.38439 23H51.0045C54.5305 23 57.3889 20.1416 57.3889 16.6156V7.38439C57.3889 3.85839 54.5305 1 51.0045 1Z" fill="#FFB3C7"/>
  <path d="M46.5531 10.6396C46.0468 10.2946 45.456 10.0942 44.8443 10.06C44.2326 10.0258 43.6232 10.159 43.0815 10.4454C42.5399 10.7317 42.0866 11.1603 41.7705 11.6851C41.4543 12.2099 41.2872 12.8109 41.2872 13.4236C41.2872 14.0363 41.4543 14.6373 41.7705 15.1621C42.0866 15.6869 42.5399 16.1155 43.0815 16.4018C43.6232 16.6882 44.2326 16.8214 44.8443 16.7872C45.456 16.753 46.0468 16.5526 46.5531 16.2076V16.6155H48.4646V10.2313H46.5531V10.6396ZM44.8146 15.0662C44.4934 15.0491 44.1843 14.9383 43.9255 14.7474C43.6667 14.5565 43.4695 14.2939 43.3584 13.9921C43.2473 13.6903 43.227 13.3625 43.3002 13.0494C43.3734 12.7362 43.5368 12.4514 43.7701 12.2301C44.0035 12.0088 44.2966 11.8608 44.6133 11.8043C44.9299 11.7479 45.2561 11.7855 45.5516 11.9125C45.847 12.0395 46.0988 12.2503 46.2757 12.5189C46.4526 12.7875 46.5468 13.1021 46.5468 13.4237C46.5346 13.8711 46.3453 14.2954 46.0205 14.6033C45.6958 14.9113 45.262 15.0778 44.8146 15.0662Z" fill="black"/>
  <path d="M20.3395 7.38611H18.3391V16.6156H20.3395V7.38611Z" fill="black"/>
  <path d="M37.8928 10.0595C37.5169 10.0373 37.1413 10.1068 36.7983 10.262C36.4553 10.4173 36.1552 10.6536 35.9239 10.9506V10.2316H34.0203V16.6156H35.9468V13.2606C35.932 13.0679 35.9588 12.8742 36.0256 12.6928C36.0923 12.5114 36.1973 12.3464 36.3334 12.2092C36.4696 12.072 36.6337 11.9657 36.8146 11.8976C36.9954 11.8294 37.1889 11.801 37.3817 11.8143C38.2219 11.8143 38.7047 12.3162 38.7047 13.2474V16.6156H40.6142V12.5557C40.6141 11.0699 39.4328 10.0595 37.8928 10.0595Z" fill="black"/>
  <path d="M26.3872 10.6396C25.8809 10.2946 25.2901 10.0942 24.6784 10.06C24.0667 10.0258 23.4573 10.159 22.9156 10.4454C22.374 10.7317 21.9207 11.1603 21.6046 11.6851C21.2884 12.2099 21.1213 12.8109 21.1213 13.4236C21.1213 14.0363 21.2884 14.6373 21.6046 15.1621C21.9207 15.6869 22.374 16.1155 22.9156 16.4018C23.4573 16.6882 24.0667 16.8214 24.6784 16.7872C25.2901 16.753 25.8809 16.5526 26.3872 16.2076V16.6155H28.2987V10.2313H26.3872V10.6396ZM24.6486 15.0662C24.3275 15.0492 24.0184 14.9384 23.7595 14.7475C23.5007 14.5566 23.3035 14.294 23.1923 13.9922C23.0811 13.6904 23.0609 13.3627 23.134 13.0495C23.2072 12.7363 23.3705 12.4514 23.6039 12.2301C23.8373 12.0088 24.1304 11.8608 24.447 11.8043C24.7636 11.7479 25.0899 11.7855 25.3853 11.9125C25.6808 12.0395 25.9326 12.2503 26.1095 12.5189C26.2864 12.7875 26.3807 13.1021 26.3807 13.4237C26.3684 13.8711 26.1792 14.2953 25.8544 14.6033C25.5297 14.9112 25.0961 15.0777 24.6486 15.0662Z" fill="black"/>
  <path d="M31.2558 11.0629V10.2313H29.2987V16.6156H31.26V13.6351C31.26 12.6294 32.35 12.0889 33.1064 12.0889C33.114 12.0889 33.1214 12.0896 33.1291 12.0897V10.2317C32.7747 10.2222 32.4226 10.2919 32.0985 10.4356C31.7745 10.5794 31.4866 10.7937 31.2558 11.0629Z" fill="black"/>
  <path d="M50.494 14.3512C50.2567 14.3512 50.0248 14.4216 49.8275 14.5534C49.6302 14.6852 49.4764 14.8726 49.3856 15.0918C49.2948 15.3111 49.2711 15.5523 49.3174 15.785C49.3637 16.0178 49.4779 16.2315 49.6457 16.3993C49.8135 16.5671 50.0273 16.6814 50.26 16.7276C50.4928 16.7739 50.734 16.7502 50.9532 16.6594C51.1724 16.5686 51.3598 16.4148 51.4917 16.2175C51.6235 16.0202 51.6938 15.7882 51.6938 15.5509C51.6939 15.3934 51.6628 15.2373 51.6025 15.0918C51.5422 14.9462 51.4539 14.8139 51.3425 14.7025C51.231 14.5911 51.0988 14.5027 50.9532 14.4424C50.8076 14.3822 50.6516 14.3511 50.494 14.3512Z" fill="black"/>
  <path d="M16.9602 7.3844H14.8871C14.8903 8.21579 14.698 9.03628 14.3256 9.77962C13.9532 10.523 13.4113 11.1683 12.7435 11.6636L11.9222 12.2788L15.1047 16.6186H17.7211L14.793 12.6253C15.4836 11.939 16.0308 11.1222 16.4028 10.2225C16.7749 9.32273 16.9644 8.35801 16.9602 7.3844Z" fill="black"/>
  <path d="M11.669 7.3844H9.59216V16.6182H11.669V7.3844Z" fill="black"/>
</svg>
