<svg width="76" height="24" viewBox="0 0 76 24" fill="currentBackgroundColor" xmlns="http://www.w3.org/2000/svg">
<path fill-rule="evenodd" clip-rule="evenodd" d="M61.0894 16.8975L60.9338 16.7641C60.5558 16.4416 60.4891 15.8522 60.8337 15.4742L64.8807 10.8483C65.2031 10.4702 65.7923 10.4035 66.1703 10.7482L66.3259 10.8817C66.7039 11.2041 66.7706 11.7935 66.426 12.1716L62.3792 16.7974C62.0568 17.1755 61.4896 17.22 61.0894 16.8975Z" fill="url(#paint0_linear_1114_4343)"/>
<path opacity="0.4" fill-rule="evenodd" clip-rule="evenodd" d="M64.3367 11.6489L64.2588 11.5599L63.6359 12.2716L63.7027 12.3494C64.7706 13.4169 64.3145 14.4956 64.0697 14.8737L64.1587 14.7736C64.3033 14.6068 64.5258 14.351 64.7595 14.073C65.0042 13.6505 65.3491 12.6497 64.3367 11.6489Z" fill="url(#paint1_linear_1114_4343)"/>
<path opacity="0.4" fill-rule="evenodd" clip-rule="evenodd" d="M65.6704 13.0389L65.8369 12.8499C65.848 12.8276 65.8702 12.8054 65.8813 12.7831C65.7037 12.9833 65.515 13.1946 65.3374 13.4059C65.4706 13.2613 65.5816 13.139 65.6704 13.0389Z" fill="url(#paint2_radial_1114_4343)"/>
<path fill-rule="evenodd" clip-rule="evenodd" d="M66.4485 10.9928L62.4017 6.36697C62.0793 5.9889 61.49 5.92218 61.112 6.26689L60.9564 6.40033C60.5783 6.72281 60.5116 7.31216 60.8563 7.69024L64.2694 11.56L64.3473 11.6489C65.359 12.6608 65.0143 13.6616 64.7586 14.0842C64.9587 13.8507 65.1588 13.6171 65.3478 13.4059C65.5257 13.1946 65.7147 12.9833 65.8926 12.7831C66.0705 12.583 66.2373 12.394 66.3484 12.2716C66.7375 11.8936 66.7931 11.3709 66.4485 10.9928Z" fill="url(#paint3_linear_1114_4343)"/>
<path fill-rule="evenodd" clip-rule="evenodd" d="M66.2269 16.8975L66.0713 16.7641C65.6933 16.4416 65.6266 15.8522 65.9712 15.4742L70.018 10.8483C70.3404 10.4702 70.9297 10.4035 71.3077 10.7482L71.4633 10.8817C71.8413 11.2041 71.908 11.7935 71.5634 12.1716L67.5166 16.7974C67.1942 17.1755 66.6272 17.22 66.2269 16.8975Z" fill="url(#paint4_linear_1114_4343)"/>
<path opacity="0.4" fill-rule="evenodd" clip-rule="evenodd" d="M69.5188 11.6044L69.4409 11.5154L68.818 12.2271L68.8847 12.3049C69.9526 13.3725 69.4965 14.4511 69.2518 14.8292L69.3408 14.7291C69.4854 14.5623 69.7079 14.3065 69.9415 14.0285C70.1862 13.606 70.531 12.6052 69.5188 11.6044Z" fill="url(#paint5_linear_1114_4343)"/>
<path opacity="0.4" fill-rule="evenodd" clip-rule="evenodd" d="M70.7967 13.0389L70.9632 12.8499C70.9743 12.8276 70.9965 12.8054 71.0076 12.7831C70.83 12.9833 70.6413 13.1946 70.4637 13.4059C70.5969 13.2613 70.719 13.139 70.7967 13.0389Z" fill="url(#paint6_radial_1114_4343)"/>
<path fill-rule="evenodd" clip-rule="evenodd" d="M71.5748 10.9928L67.5278 6.36697C67.2054 5.9889 66.6162 5.92218 66.2382 6.26689L66.0825 6.40033C65.7045 6.72281 65.6378 7.31216 65.9825 7.69025L69.3956 11.56L69.4734 11.6489C70.4852 12.6608 70.1405 13.6616 69.8848 14.0842C70.0849 13.8507 70.285 13.6171 70.4741 13.4059C70.652 13.1946 70.841 12.9833 71.0189 12.7832C71.1968 12.583 71.3635 12.394 71.4747 12.2716C71.8638 11.8936 71.9194 11.3709 71.5748 10.9928Z" fill="url(#paint7_linear_1114_4343)"/>
<path fill-rule="evenodd" clip-rule="evenodd" d="M4.24459 16.8531C4.08894 16.6974 4 16.4639 4 16.1747V7.02307C4 6.72283 4.08894 6.48931 4.27794 6.30027C4.46694 6.11124 4.70041 6.02228 5.00059 6.02228C5.30077 6.02228 5.5676 6.11124 5.74548 6.30027C5.93448 6.48931 6.02342 6.72283 6.02342 7.02307V15.4631H10.3927C11.0152 15.4631 11.3377 15.7411 11.3377 16.2859C11.3377 16.8308 11.0152 17.1088 10.3927 17.1088H4.945C4.64483 17.1088 4.41135 17.0198 4.24459 16.8531Z" fill="#4B4C4B"/>
<path fill-rule="evenodd" clip-rule="evenodd" d="M12.9181 16.9197C12.7291 16.7307 12.6402 16.486 12.6402 16.1747V7.0119C12.6402 6.71166 12.7291 6.47814 12.9181 6.28911C13.1071 6.10007 13.3406 6.01111 13.6408 6.01111C13.941 6.01111 14.2078 6.10007 14.3857 6.28911C14.5747 6.47814 14.6636 6.71166 14.6636 7.0119V16.1747C14.6636 16.4749 14.5747 16.7307 14.3857 16.9197C14.1967 17.1088 13.9521 17.1977 13.6408 17.1977C13.3517 17.1977 13.1071 17.1088 12.9181 16.9197Z" fill="#4B4C4B"/>
<path fill-rule="evenodd" clip-rule="evenodd" d="M26.2286 19.1882C26.2286 18.9991 26.1619 18.8212 26.0507 18.6322L25.4947 17.7982C25.1723 17.2756 24.7831 16.9197 24.3049 16.764C25.2279 16.3526 25.9395 15.7077 26.4288 14.8181C26.9292 13.9396 27.1738 12.861 27.1738 11.6267C27.1738 10.4813 26.9625 9.48052 26.54 8.63541C26.1174 7.80143 25.517 7.14535 24.7275 6.67831C23.9491 6.23352 23.015 6 21.9586 6C20.88 6 19.9571 6.21128 19.1674 6.67831C18.389 7.14535 17.7774 7.79031 17.3549 8.63541C16.9435 9.49164 16.7211 10.4813 16.7211 11.6267C16.7211 12.7609 16.9324 13.7617 17.3549 14.6179C17.7774 15.4519 18.3779 16.108 19.1674 16.575C19.9571 17.0198 20.88 17.2533 21.9586 17.2533C22.3367 17.2533 22.6369 17.3201 22.8704 17.4313C23.104 17.5425 23.293 17.7204 23.4376 17.965L24.3494 19.4773C24.4606 19.6442 24.6051 19.7776 24.7608 19.8666C24.9276 19.9555 25.1055 20 25.2946 20C25.5392 20 25.7616 19.911 25.9506 19.7665C26.1397 19.6219 26.2286 19.4217 26.2286 19.1882ZM25.1611 11.6044C25.1611 12.8943 24.872 13.8951 24.3049 14.5957C23.7378 15.2962 22.9483 15.6409 21.9364 15.6409C20.9245 15.6409 20.1238 15.2962 19.5567 14.5957C18.9896 13.8951 18.7005 12.9166 18.7005 11.6044C18.7005 10.2923 18.9896 9.31374 19.5567 8.61319C20.1238 7.92374 20.9134 7.57903 21.9364 7.57903C22.9594 7.57903 23.7378 7.91262 24.3049 8.61319C24.872 9.31374 25.1611 10.2923 25.1611 11.6044Z" fill="#4B4C4B"/>
<path fill-rule="evenodd" clip-rule="evenodd" d="M29.3422 16.1747C29.3422 16.486 29.4312 16.7307 29.6202 16.9197C29.7869 17.1087 30.0426 17.1977 30.3428 17.2088C30.6541 17.2088 30.8987 17.1199 31.0877 16.9308C31.2767 16.7529 31.3656 16.5083 31.3656 16.1858V12.8276H34.1561C35.3346 12.8276 36.2463 12.5385 36.9022 11.938C37.5581 11.3486 37.8917 10.5146 37.8917 9.45825C37.8917 8.40185 37.5581 7.56786 36.9022 6.98963C36.2463 6.38915 35.3346 6.10004 34.1561 6.10004H30.3206C30.0204 6.10004 29.7869 6.189 29.609 6.34467C29.4312 6.51147 29.3422 6.74499 29.3422 7.04523V16.1747ZM35.9796 9.48049C35.9796 10.6814 35.279 11.293 33.9004 11.293L31.3656 11.2819V7.66794H33.9004C35.279 7.66794 35.9796 8.27955 35.9796 9.48049Z" fill="#4B4C4B"/>
<path fill-rule="evenodd" clip-rule="evenodd" d="M48.2461 16.9197C48.4352 16.7418 48.5352 16.5417 48.5352 16.3081C48.5352 16.1636 48.5019 16.0413 48.4574 15.8967L44.1318 6.63383C44.0317 6.42256 43.8871 6.26688 43.6981 6.15568C43.5091 6.0556 43.3089 6 43.0865 6C42.8641 6 42.664 6.04448 42.4749 6.15568C42.2748 6.26688 42.1302 6.43368 42.0413 6.63383L37.7266 15.8967C37.671 16.0301 37.6377 16.1747 37.6377 16.3081C37.6377 16.5528 37.7266 16.764 37.9268 16.9197C38.1158 17.0754 38.3493 17.1644 38.5829 17.1644C38.7608 17.1644 38.9164 17.1199 39.061 17.0309C39.2056 16.942 39.3168 16.8085 39.4057 16.6195L40.351 14.5289H45.822L46.7672 16.6195C46.845 16.7974 46.9673 16.942 47.1119 17.0309C47.2565 17.1199 47.4232 17.1644 47.5789 17.1644C47.8347 17.1644 48.0571 17.0754 48.2461 16.9197ZM45.1548 12.9722H41.0294L43.0865 8.3463L45.1548 12.9722Z" fill="#4B4C4B"/>
<path fill-rule="evenodd" clip-rule="evenodd" d="M56.3174 6.02223C56.5509 6.02223 56.7621 6.11119 56.9511 6.30023C57.1401 6.48926 57.229 6.68942 57.229 6.9563C57.229 7.15646 57.1512 7.36774 56.9956 7.55678L53.4491 11.8824V16.208C53.4491 16.5305 53.3601 16.7752 53.1711 16.9642C52.9821 17.1532 52.7486 17.2311 52.4596 17.2311C52.1594 17.2311 51.9037 17.1421 51.7147 16.9642C51.5257 16.7863 51.4368 16.5416 51.4368 16.208V11.8824L47.9125 7.54566C47.7568 7.35662 47.679 7.15646 47.679 6.94518C47.679 6.70054 47.768 6.47814 47.957 6.28911C48.146 6.10007 48.3683 6.01111 48.5907 6.01111C48.8575 6.01111 49.0687 6.12231 49.2577 6.35582L52.4485 10.3145L55.6281 6.35582C55.8171 6.13343 56.0506 6.02223 56.3174 6.02223Z" fill="#4B4C4B"/>
<defs>
<linearGradient id="paint0_linear_1114_4343" x1="62.3534" y1="18.3413" x2="67.9702" y2="15.6186" gradientUnits="userSpaceOnUse">
<stop stop-color="#1FADC3"/>
<stop offset="0.7072" stop-color="#36B98F"/>
</linearGradient>
<linearGradient id="paint1_linear_1114_4343" x1="64.3265" y1="13.9669" x2="65.3769" y2="13.8139" gradientUnits="userSpaceOnUse">
<stop stop-color="#123F06" stop-opacity="0.01"/>
<stop offset="1" stop-color="#123F06"/>
</linearGradient>
<radialGradient id="paint2_radial_1114_4343" cx="0" cy="0" r="1" gradientUnits="userSpaceOnUse" gradientTransform="translate(63.4438 13.617) scale(2.70649 3.09855)">
<stop offset="0.4185" stop-color="#123F06" stop-opacity="0.01"/>
<stop offset="1" stop-color="#123F06"/>
</radialGradient>
<linearGradient id="paint3_linear_1114_4343" x1="58.5127" y1="12.172" x2="65.3241" y2="14.5254" gradientUnits="userSpaceOnUse">
<stop stop-color="#9FDB57"/>
<stop offset="1" stop-color="#71CA5E"/>
</linearGradient>
<linearGradient id="paint4_linear_1114_4343" x1="67.4859" y1="18.3442" x2="73.1026" y2="15.6215" gradientUnits="userSpaceOnUse">
<stop stop-color="#1FADC3"/>
<stop offset="0.7072" stop-color="#36B98F"/>
</linearGradient>
<linearGradient id="paint5_linear_1114_4343" x1="69.5085" y1="13.9224" x2="70.5588" y2="13.7694" gradientUnits="userSpaceOnUse">
<stop stop-color="#123F06" stop-opacity="0.01"/>
<stop offset="1" stop-color="#123F06"/>
</linearGradient>
<radialGradient id="paint6_radial_1114_4343" cx="0" cy="0" r="1" gradientUnits="userSpaceOnUse" gradientTransform="translate(68.5748 13.617) scale(2.70649 3.09855)">
<stop offset="0.4185" stop-color="#123F06" stop-opacity="0.01"/>
<stop offset="1" stop-color="#123F06"/>
</radialGradient>
<linearGradient id="paint7_linear_1114_4343" x1="63.6422" y1="12.1741" x2="70.4537" y2="14.5275" gradientUnits="userSpaceOnUse">
<stop stop-color="#9FDB57"/>
<stop offset="1" stop-color="#71CA5E"/>
</linearGradient>
</defs>
</svg>
