<svg width="36" height="24" viewBox="0 0 36 24" fill="currentBackgroundColor" xmlns="http://www.w3.org/2000/svg">
<path d="M13.3241 22.795V21.5452C13.3314 21.4401 13.3163 21.3346 13.2798 21.2358C13.2432 21.137 13.1861 21.0472 13.1122 20.9723C13.0383 20.8974 12.9494 20.8391 12.8513 20.8014C12.7532 20.7638 12.6482 20.7475 12.5433 20.7537C12.4061 20.7447 12.2689 20.7729 12.1462 20.8351C12.0235 20.8974 11.9197 20.9916 11.8456 21.1078C11.778 20.995 11.6814 20.9026 11.566 20.8403C11.4505 20.778 11.3204 20.7481 11.1893 20.7537C11.0751 20.7479 10.9614 20.7722 10.8594 20.8241C10.7574 20.876 10.6707 20.9537 10.6079 21.0495V20.8037H10.1759V22.795H10.612V21.691C10.6026 21.6229 10.6083 21.5535 10.6288 21.4879C10.6493 21.4223 10.684 21.362 10.7304 21.3114C10.7769 21.2608 10.834 21.2212 10.8975 21.1954C10.961 21.1695 11.0295 21.1581 11.098 21.162C11.3845 21.162 11.5299 21.3494 11.5299 21.6869V22.795H11.966V21.691C11.9573 21.623 11.9635 21.554 11.9843 21.4886C12.005 21.4233 12.0397 21.3633 12.086 21.3129C12.1324 21.2625 12.1891 21.2228 12.2523 21.1968C12.3155 21.1707 12.3837 21.1588 12.452 21.162C12.7468 21.162 12.888 21.3494 12.888 21.6869V22.795H13.3241ZM15.758 21.7993V20.8037H15.326V21.0453C15.2523 20.95 15.1568 20.8738 15.0477 20.8231C14.9386 20.7723 14.819 20.7485 14.6988 20.7537C14.4312 20.7669 14.1789 20.8828 13.9941 21.0774C13.8093 21.2721 13.7062 21.5306 13.7062 21.7994C13.7062 22.0681 13.8093 22.3266 13.9941 22.5213C14.1789 22.7159 14.4312 22.8318 14.6988 22.845C14.819 22.8502 14.9386 22.8264 15.0477 22.7756C15.1568 22.7249 15.2523 22.6487 15.326 22.5534V22.795H15.758V21.7993ZM14.1506 21.7993C14.1573 21.6818 14.1982 21.5689 14.2681 21.4744C14.3381 21.3799 14.4341 21.308 14.5443 21.2675C14.6545 21.2271 14.774 21.2199 14.8883 21.2468C15.0025 21.2737 15.1064 21.3336 15.1871 21.419C15.2678 21.5045 15.3218 21.6117 15.3425 21.7276C15.3631 21.8434 15.3496 21.9628 15.3034 22.071C15.2572 22.1792 15.1805 22.2715 15.0827 22.3365C14.9848 22.4015 14.8702 22.4363 14.7528 22.4367C14.6706 22.4378 14.589 22.4218 14.5132 22.3898C14.4375 22.3577 14.3691 22.3102 14.3126 22.2503C14.256 22.1904 14.2124 22.1194 14.1845 22.0418C14.1566 21.9642 14.1451 21.8816 14.1506 21.7993ZM25.0004 20.7513C25.1463 20.7499 25.291 20.7771 25.4264 20.8314C25.5527 20.882 25.6678 20.9568 25.7653 21.0518C25.8613 21.1463 25.9374 21.259 25.9892 21.3835C26.0971 21.6502 26.0971 21.9485 25.9892 22.2152C25.9375 22.3397 25.8613 22.4525 25.7653 22.5469C25.6678 22.6419 25.5527 22.7167 25.4264 22.7673C25.1524 22.8741 24.8484 22.8741 24.5744 22.7673C24.4484 22.7169 24.3335 22.642 24.2365 22.5469C24.1411 22.4522 24.0653 22.3394 24.0136 22.2152C23.9059 21.9485 23.9059 21.6502 24.0136 21.3835C24.0653 21.2592 24.1411 21.1465 24.2365 21.0518C24.3335 20.9567 24.4484 20.8818 24.5744 20.8314C24.7098 20.7771 24.8546 20.7499 25.0004 20.7513ZM25.0004 21.161C24.9159 21.1602 24.8321 21.1761 24.7538 21.2078C24.6799 21.2375 24.6129 21.2821 24.5568 21.3388C24.5004 21.3967 24.456 21.4652 24.4262 21.5405C24.3626 21.7072 24.3626 21.8916 24.4262 22.0583C24.456 22.1335 24.5004 22.2021 24.5568 22.2599C24.6129 22.3166 24.6799 22.3612 24.7538 22.3909C24.9123 22.4533 25.0885 22.4533 25.2471 22.3909C25.3212 22.361 25.3885 22.3165 25.4451 22.2599C25.502 22.2023 25.5468 22.1337 25.5767 22.0583C25.6403 21.8916 25.6403 21.7072 25.5767 21.5405C25.5468 21.4651 25.502 21.3965 25.4451 21.3388C25.3885 21.2822 25.3212 21.2377 25.2471 21.2078C25.1687 21.1761 25.0849 21.1602 25.0004 21.161ZM18.1083 21.7993C18.1042 21.1786 17.7221 20.7537 17.1655 20.7537C16.8961 20.7679 16.6427 20.8861 16.4584 21.0837C16.274 21.2813 16.1732 21.5428 16.1769 21.8134C16.1807 22.0839 16.2888 22.3425 16.4785 22.5349C16.6683 22.7272 16.9249 22.8384 17.1946 22.845C17.4909 22.8554 17.7807 22.7561 18.0086 22.5659L17.7968 22.2451C17.6328 22.3769 17.4297 22.4502 17.2195 22.4534C17.0768 22.4654 16.935 22.4213 16.8241 22.3303C16.7133 22.2393 16.6421 22.1087 16.6256 21.966H18.1C18.1042 21.9118 18.1083 21.8577 18.1083 21.7993ZM16.6297 21.6244C16.6373 21.4907 16.6968 21.3653 16.7953 21.275C16.8939 21.1847 17.0238 21.1366 17.1572 21.1411C17.2877 21.1386 17.4138 21.188 17.508 21.2786C17.6022 21.3692 17.6568 21.4935 17.6598 21.6244H16.6297ZM19.9273 21.312C19.7389 21.2032 19.5259 21.1444 19.3085 21.1411C19.0718 21.1411 18.9306 21.2286 18.9306 21.3744C18.9306 21.5078 19.0801 21.5452 19.267 21.5702L19.4705 21.5994C19.9025 21.6619 20.1641 21.8451 20.1641 22.1951C20.1641 22.5742 19.8318 22.845 19.2587 22.845C18.9519 22.8535 18.6505 22.763 18.399 22.5867L18.6025 22.2493C18.7931 22.391 19.0257 22.4644 19.2628 22.4576C19.5577 22.4576 19.7155 22.3701 19.7155 22.2159C19.7155 22.1035 19.6034 22.041 19.3667 22.0076L19.1631 21.9785C18.7188 21.916 18.4779 21.716 18.4779 21.3911C18.4779 20.9953 18.8018 20.7537 19.3044 20.7537C19.5887 20.7439 19.8698 20.8162 20.1143 20.962L19.9273 21.312ZM22.0028 21.1995H21.2968V22.0993C21.2968 22.2992 21.3674 22.4326 21.5834 22.4326C21.7182 22.4281 21.8497 22.3894 21.9655 22.3201L22.0901 22.6909C21.9281 22.7922 21.741 22.8456 21.5502 22.845C21.0393 22.845 20.8607 22.5701 20.8607 22.1076V21.1995H20.4578V20.8037H20.8607L20.8606 20.1996H21.2967L21.2968 20.8037H22.0028V21.1995ZM23.4977 20.7537C23.6025 20.7541 23.7064 20.7724 23.8051 20.8079L23.6721 21.2161C23.5863 21.1818 23.4946 21.1649 23.4022 21.1661C23.1198 21.1661 22.9785 21.3494 22.9785 21.6785V22.795H22.5466V20.8037H22.9744V21.0453C23.0274 20.954 23.104 20.8787 23.1961 20.8273C23.2882 20.776 23.3924 20.7506 23.4977 20.7537ZM26.488 22.5051C26.5149 22.505 26.5415 22.5102 26.5663 22.5207C26.5901 22.5307 26.6118 22.5451 26.6302 22.5632C26.6485 22.5813 26.6631 22.6027 26.6733 22.6263C26.6837 22.6506 26.689 22.6768 26.689 22.7032C26.689 22.7296 26.6837 22.7558 26.6733 22.7801C26.663 22.8036 26.6484 22.825 26.6302 22.843C26.6117 22.8611 26.59 22.8756 26.5663 22.8857C26.5416 22.8963 26.5149 22.9017 26.488 22.9015C26.4485 22.9019 26.4097 22.8906 26.3765 22.869C26.3433 22.8474 26.3171 22.8165 26.3014 22.7801C26.291 22.7558 26.2856 22.7296 26.2856 22.7032C26.2856 22.6768 26.291 22.6506 26.3014 22.6263C26.3115 22.6027 26.3261 22.5813 26.3442 22.5632C26.3627 22.5449 26.3845 22.5305 26.4084 22.5207C26.4336 22.5102 26.4607 22.5049 26.488 22.5051ZM26.488 22.8578C26.5085 22.858 26.5288 22.8538 26.5476 22.8456C26.5657 22.8378 26.5821 22.8266 26.596 22.8126C26.6139 22.7948 26.6271 22.7728 26.6345 22.7486C26.6419 22.7245 26.6432 22.6989 26.6385 22.674C26.6337 22.6492 26.6229 22.626 26.6071 22.6063C26.5912 22.5866 26.5708 22.5712 26.5476 22.5613C26.5288 22.5532 26.5085 22.5492 26.488 22.5493C26.4672 22.5492 26.4465 22.5532 26.4273 22.5613C26.4089 22.5688 26.3922 22.58 26.3781 22.594C26.3494 22.6231 26.3333 22.6624 26.3333 22.7033C26.3333 22.7443 26.3494 22.7835 26.3781 22.8126C26.3926 22.827 26.4097 22.8384 26.4286 22.8462C26.4475 22.8539 26.4677 22.8579 26.488 22.8578ZM26.4997 22.6105C26.5191 22.6092 26.5384 22.6148 26.5542 22.6263C26.5605 22.6315 26.5655 22.6381 26.5688 22.6456C26.5721 22.653 26.5736 22.6612 26.5733 22.6693C26.5735 22.6763 26.5723 22.6833 26.5696 22.6897C26.567 22.6962 26.5631 22.7021 26.558 22.7069C26.546 22.7177 26.5308 22.7241 26.5147 22.7252L26.5747 22.7946H26.5278L26.4721 22.7256H26.4542V22.7946H26.4149V22.6105H26.4997ZM26.4542 22.645V22.6941H26.4992C26.5079 22.6945 26.5165 22.6924 26.5239 22.688C26.5269 22.686 26.5294 22.6832 26.531 22.6799C26.5326 22.6766 26.5333 22.673 26.5331 22.6693C26.5333 22.6657 26.5325 22.6622 26.5309 22.659C26.5293 22.6558 26.5269 22.653 26.5239 22.6511C26.5164 22.6467 26.5079 22.6446 26.4992 22.645H26.4542Z" fill="black"/>
<path d="M21.3886 5.60547H14.8378V17.4134H21.3886V5.60547Z" fill="#7375CF"/>
<path d="M15.2538 11.5095C15.2527 10.3723 15.5097 9.24981 16.0051 8.22693C16.5005 7.20405 17.2214 6.30763 18.1133 5.60554C17.0088 4.73477 15.6824 4.19326 14.2857 4.04289C12.8889 3.89252 11.4781 4.13935 10.2146 4.75519C8.95111 5.37102 7.88583 6.331 7.14053 7.52541C6.39524 8.71982 6 10.1005 6 11.5095C6 12.9186 6.39524 14.2992 7.14053 15.4936C7.88583 16.688 8.95111 17.648 10.2146 18.2639C11.4781 18.8797 12.8889 19.1265 14.2857 18.9762C15.6824 18.8258 17.0088 18.2843 18.1133 17.4135C17.2214 16.7114 16.5005 15.815 16.0051 14.7921C15.5097 13.7692 15.2527 12.6467 15.2538 11.5095Z" fill="#EB001B"/>
<path d="M29.5119 16.1628V15.9211H29.609V15.8718H29.3615V15.9211H29.4588V16.1628H29.5119ZM29.9924 16.1628V15.8713H29.9165L29.8292 16.0718L29.7419 15.8713H29.666V16.1628H29.7196V15.9429L29.8014 16.1325H29.857L29.9388 15.9425V16.1628H29.9924Z" fill="#00A2E5"/>
<path d="M30.2261 11.5095C30.2262 12.9186 29.831 14.2992 29.0857 15.4936C28.3405 16.688 27.2752 17.648 26.0117 18.2638C24.7483 18.8797 23.3375 19.1265 21.9408 18.9762C20.544 18.8258 19.2177 18.2843 18.1133 17.4135C19.0043 16.7107 19.7247 15.8141 20.22 14.7914C20.7153 13.7687 20.9727 12.6465 20.9727 11.5095C20.9727 10.3725 20.7153 9.25034 20.22 8.22762C19.7247 7.20491 19.0043 6.30834 18.1133 5.60554C19.2177 4.73477 20.544 4.19326 21.9408 4.04289C23.3375 3.89252 24.7483 4.13936 26.0117 4.7552C27.2752 5.37104 28.3405 6.33103 29.0857 7.52543C29.831 8.71984 30.2262 10.1005 30.2261 11.5095Z" fill="#00A2E5"/>
</svg>
