<svg width="36" height="24" viewBox="0 0 36 24" fill="currentBackgroundColor" xmlns="http://www.w3.org/2000/svg">
<path d="M21.3692 5.60345H14.8266V17.3965H21.3692V5.60345Z" fill="#FF5F00"/>
<path d="M15.2421 11.5C15.241 10.3642 15.4976 9.24315 15.9924 8.22157C16.4872 7.19999 17.2072 6.30471 18.0979 5.6035C16.9949 4.73384 15.6701 4.19302 14.2752 4.04283C12.8802 3.89265 11.4712 4.13917 10.2093 4.75422C8.94737 5.36928 7.88343 6.32805 7.13908 7.52094C6.39473 8.71383 6 10.0927 6 11.5C6 12.9073 6.39473 14.2862 7.13908 15.4791C7.88343 16.672 8.94737 17.6307 10.2093 18.2458C11.4712 18.8608 12.8802 19.1073 14.2752 18.9572C15.6701 18.807 16.9949 18.2662 18.0979 17.3965C17.2072 16.6953 16.4872 15.8 15.9924 14.7784C15.4976 13.7568 15.241 12.6357 15.2421 11.5Z" fill="#EB001B"/>
<path d="M30.1954 11.5C30.1955 12.9073 29.8008 14.2861 29.0565 15.479C28.3122 16.6719 27.2483 17.6307 25.9864 18.2458C24.7245 18.8608 23.3156 19.1073 21.9206 18.9572C20.5256 18.807 19.2009 18.2662 18.0979 17.3965C18.9878 16.6946 19.7073 15.7992 20.202 14.7777C20.6967 13.7563 20.9537 12.6356 20.9537 11.5C20.9537 10.3644 20.6967 9.24368 20.202 8.22226C19.7073 7.20084 18.9878 6.30542 18.0979 5.6035C19.2009 4.73384 20.5256 4.19301 21.9206 4.04283C23.3156 3.89265 24.7245 4.13918 25.9864 4.75424C27.2483 5.3693 28.3122 6.32807 29.0565 7.52097C29.8008 8.71386 30.1955 10.0927 30.1954 11.5Z" fill="#F79E1B"/>
<path d="M29.4821 16.1475V15.9061H29.5791V15.8569H29.3319V15.9061H29.429V16.1475H29.4821ZM29.962 16.1475V15.8564H29.8862L29.799 16.0566L29.7119 15.8564H29.6361V16.1475H29.6896V15.9279L29.7713 16.1172H29.8268L29.9085 15.9274V16.1475H29.962Z" fill="#F79E1B"/>
</svg>
