<svg width="130" height="24" viewBox="0 0 130 24" fill="none" xmlns="http://www.w3.org/2000/svg">
    <path fill-rule="evenodd" clip-rule="evenodd"
          d="M4.3821 18.0933C3.63999 18.0933 3.03815 17.5009 3.03815 16.7705V7.14734C3.03815 6.41694 3.63999 5.82458 4.3821 5.82458C5.1242 5.82458 5.72605 6.41694 5.72605 7.14734V16.7705C5.72605 17.5009 5.1242 18.0933 4.3821 18.0933Z"
          fill="#89C7E8"/>
    <path fill-rule="evenodd" clip-rule="evenodd"
          d="M20.509 18.0933C19.7669 18.0933 19.165 17.501 19.165 16.7706V7.1549C19.165 6.4245 19.7669 5.83215 20.509 5.83215C21.2511 5.83215 21.8529 6.4245 21.8529 7.1549V16.7706C21.8529 17.501 21.2511 18.0933 20.509 18.0933Z"
          fill="#0BADDC"/>
    <path fill-rule="evenodd" clip-rule="evenodd"
          d="M12.4455 21.9524C11.7034 21.9524 11.1016 21.3601 11.1016 20.6297V3.29583C11.1016 2.56544 11.7034 1.97308 12.4455 1.97308C13.1877 1.97308 13.7895 2.56544 13.7895 3.29583V20.6297C13.7895 21.3601 13.1877 21.9524 12.4455 21.9524Z"
          fill="#307FC2"/>
    <path fill-rule="evenodd" clip-rule="evenodd"
          d="M95.8442 5.96834C98.5838 5.96845 100.867 8.10989 101.029 10.634H101.033L101.033 17.0945C101.033 17.553 100.655 17.9246 100.19 17.9247C99.7237 17.9247 99.345 17.553 99.345 17.0945V15.7467C98.523 17.056 96.9338 18.073 94.9193 18.073C92.7007 18.073 90.5407 16.822 90.5405 14.4101V14.365C90.5405 11.8851 92.6208 10.5654 95.6487 10.5654C97.1736 10.5654 98.2601 10.7707 99.3235 11.066V10.9177C99.3235 9.09962 97.6876 7.62531 95.8396 7.62531H95.0467C94.5818 7.62531 94.2049 7.25405 94.2048 6.79649C94.2048 6.33884 94.5817 5.96834 95.0467 5.96834H95.8442ZM95.833 11.8622C93.5914 11.8622 92.3433 12.818 92.3433 14.2963V14.3421C92.3433 15.8204 93.6192 16.4997 95.2376 16.4997C97.299 16.4997 99.345 14.5209 99.345 12.3648V12.3629C99.3442 12.3219 97.2892 11.8622 95.833 11.8622Z"
          fill="#919396"/>
    <path fill-rule="evenodd" clip-rule="evenodd"
          d="M70.3602 1.95239C70.8685 1.95239 71.2615 2.33974 71.2615 2.84003V17.0488C71.2615 17.5491 70.8684 17.9358 70.383 17.9358C69.8748 17.9357 69.481 17.5491 69.481 17.0488V15.7873C68.5103 17.1978 67.1011 18.0723 64.9056 18.0724C62.0401 18.0724 59.1962 15.8435 59.1961 11.9766V11.9302C59.1961 8.08667 62.0401 5.81212 64.9056 5.81212C67.124 5.81217 68.557 6.6636 69.481 7.98284V2.84003C69.4811 2.33976 69.851 1.95243 70.3602 1.95239ZM65.2291 7.3815C62.917 7.38156 61.023 9.06503 61.023 11.9079V11.9537C61.023 14.7288 62.9867 16.5036 65.2291 16.5037C67.4478 16.5037 69.551 14.6603 69.551 11.9537V11.9079C69.551 9.20135 67.4478 7.3815 65.2291 7.3815Z"
          fill="#919396"/>
    <path d="M121.805 5.85591C123.076 5.85591 124.464 6.24384 125.618 6.85794C125.85 6.99513 126.058 7.24415 126.058 7.58543C126.058 7.99538 125.711 8.3371 125.272 8.33712C125.11 8.33712 124.971 8.29079 124.879 8.24561C123.862 7.67672 122.776 7.33576 121.759 7.33574C120.349 7.33574 119.448 8.0635 119.448 9.04239V9.08749C119.448 10.2018 120.926 10.6343 122.521 11.1111C124.37 11.6575 126.358 12.3629 126.358 14.4787V14.5231C126.358 16.7536 124.487 18.0494 122.106 18.0495C120.534 18.0495 118.8 17.4804 117.506 16.571C117.344 16.4571 117.183 16.2297 117.183 15.9337C117.183 15.5246 117.53 15.1833 117.968 15.1833C118.13 15.1833 118.292 15.2286 118.408 15.3206C119.632 16.1388 120.904 16.571 122.197 16.571C123.631 16.571 124.671 15.8433 124.671 14.7055V14.6604C124.671 13.4774 123.262 13.022 121.69 12.5903C119.818 12.0666 117.737 11.43 117.737 9.26985V9.22345C117.737 7.19894 119.448 5.85595 121.805 5.85591Z"
          fill="#919396"/>
    <path d="M75.8246 1.95631C76.3167 1.95973 76.7187 2.40579 76.7187 2.89101V5.97814H79.8386C80.2729 5.97819 80.6249 6.32455 80.6249 6.75205C80.6249 7.17954 80.2729 7.5259 79.8386 7.52595H76.7187V14.4787C76.7188 15.9109 77.5274 16.4344 78.7293 16.4344C79.3531 16.4343 79.6771 16.2755 79.8157 16.2755C80.2312 16.2756 80.5777 16.6161 80.5778 17.0259C80.5778 17.3446 80.3699 17.5951 80.0699 17.709C79.5616 17.9131 79.006 18.0266 78.3123 18.0266C76.3939 18.0265 74.9389 17.0938 74.9389 14.7062V2.8433C74.9389 2.36306 75.312 1.95213 75.8246 1.95631Z"
          fill="#919396"/>
    <path d="M45.7684 5.80362C48.4061 5.80368 50.7511 7.9228 50.7511 10.7164L50.7465 17.0403C50.7465 17.5414 50.3528 17.9272 49.8445 17.9273C49.3591 17.9273 48.966 17.5414 48.966 17.0403V10.5405C48.966 8.80038 47.5331 7.39012 45.7651 7.39C43.997 7.39 42.563 8.80031 42.563 10.5405L42.5656 16.3259C42.5656 16.8094 42.1666 17.2017 41.6753 17.2017C41.1831 17.2017 40.7851 16.8094 40.7851 16.3259L40.7864 10.549C40.7864 8.80799 39.3521 7.39792 37.5849 7.39784C35.8159 7.39784 34.3827 8.80794 34.3827 10.549L34.384 17.0488C34.384 17.549 34.0137 17.9356 33.5055 17.9358C32.9963 17.9358 32.6042 17.5491 32.6042 17.0488V10.7164C32.6042 8.0081 34.8358 5.81212 37.5875 5.81212C39.2849 5.81219 40.7702 6.65244 41.6636 7.9299C42.5621 6.64665 44.065 5.80362 45.7684 5.80362Z"
          fill="#919396"/>
    <path d="M55.3167 5.80362C55.825 5.80362 56.2186 6.18976 56.2187 6.68995V17.0488C56.2187 17.5498 55.8484 17.9356 55.3403 17.9358C54.8319 17.9358 54.4389 17.5499 54.4389 17.0488V6.68995C54.439 6.21242 54.8316 5.80378 55.3167 5.80362Z"
          fill="#919396"/>
    <path d="M89.3614 5.96507C89.8264 5.96507 90.2039 6.33688 90.2039 6.79453C90.2038 7.25206 89.8263 7.62334 89.3614 7.62334H88.7868L88.7816 7.62269C86.9346 7.62285 85.437 9.0971 85.437 10.9151L85.4376 16.9978C85.4376 17.5206 85.0519 17.9239 84.5199 17.924C83.9895 17.924 83.5787 17.5207 83.5787 16.9978V11.0896C83.5787 8.26005 85.9104 5.96507 88.7862 5.96507H89.3614Z"
          fill="#919396"/>
    <path d="M109.416 5.81146C112.259 5.81157 114.616 8.11528 114.617 10.7615C114.634 11.3312 114.617 16.9985 114.617 16.9985C114.616 17.5212 114.206 17.924 113.675 17.924C113.167 17.9239 112.758 17.5211 112.758 16.9985V10.7608C112.758 8.94278 111.26 7.46843 109.412 7.46843C107.565 7.4685 106.067 8.94282 106.067 10.7608L106.068 16.9985C106.068 17.5212 105.681 17.924 105.149 17.924C104.619 17.9239 104.209 17.5211 104.209 16.9985V10.9366C104.209 8.10622 106.54 5.81146 109.416 5.81146Z"
          fill="#919396"/>
</svg>
