<svg width="39" height="24" viewBox="0 0 39 24" fill="currentBackgroundColor" xmlns="http://www.w3.org/2000/svg">
<path d="M11.5184 7V7.00436C11.514 7.00436 10.1386 7 9.77185 8.31441C9.43568 9.51967 8.48818 12.8472 8.46192 12.9389H8.19993C8.19993 12.9389 7.23064 9.53709 6.89 8.31006C6.52322 6.99564 5.14347 7 5.14347 7H1.99963V17H5.14347V11.0611H5.40534L7.23924 17H9.42238L11.2563 11.0655H11.5183V17H14.6621V7H11.5184ZM23.0019 7C23.0019 7 22.0806 7.08302 21.6482 8.04805L19.4214 12.9389H19.1594V7H16.0156V17H18.9847C18.9847 17 19.9496 16.9126 20.382 15.952L22.5651 11.0611H22.8271V17H25.9709V7H23.0019ZM27.3682 11.5415V17H30.5121V13.8123H33.9179C35.4024 13.8123 36.66 12.8647 37.1272 11.5416H27.3682V11.5415Z" fill="#0E754E"/>
<path d="M33.9149 7H26.9244C27.2738 8.90391 28.7016 10.4323 30.5485 10.9302C30.977 11.0462 31.4189 11.1049 31.8628 11.1048H37.2508C37.2988 10.8778 37.3206 10.6463 37.3206 10.4061C37.3207 8.52402 35.7969 7 33.9149 7Z" fill="url(#paint0_linear_163_86)"/>
<defs>
<linearGradient id="paint0_linear_163_86" x1="26.9246" y1="9.0524" x2="37.3207" y2="9.0524" gradientUnits="userSpaceOnUse">
<stop offset="0.3" stop-color="#23B8FF"/>
<stop offset="1" stop-color="#3E73DD"/>
</linearGradient>
</defs>
</svg>
