<svg width="68" height="24" viewBox="0 0 68 24" fill="currentBackgroundColor" xmlns="http://www.w3.org/2000/svg">
<path d="M47.7774 1.43212C47.7741 0.955027 47.7715 0.477934 47.7682 0C48.8213 0 49.8744 0 50.9283 0C50.9241 0.312463 50.9191 0.624926 50.9149 0.937388C50.9031 0.937388 50.8914 0.937388 50.8796 0.937388C50.8796 0.759318 50.8796 0.582088 50.8796 0.398138C50.8082 0.398138 50.7671 0.398138 50.7268 0.398138C49.7921 0.398138 48.8565 0.398138 47.9219 0.398138C47.8916 0.402338 47.8614 0.406538 47.8186 0.412417C47.8186 0.693802 47.8186 0.964267 47.8186 1.23389C47.8186 1.29941 47.8186 1.36576 47.8177 1.43128C47.8043 1.43212 47.7909 1.43212 47.7774 1.43212ZM47.8807 0.133553C48.849 0.133553 49.7996 0.133553 50.7503 0.132713C50.757 0.132713 50.7654 0.124313 50.7687 0.117594C50.7721 0.110874 50.7696 0.101634 50.7696 0.0755958C50.7385 0.0680363 50.7032 0.0529171 50.668 0.0512372C50.5445 0.0478774 50.4219 0.0495573 50.2985 0.0495573C49.5754 0.0495573 48.8524 0.0478774 48.1293 0.0512372C48.0462 0.0520771 47.9445 0.0100794 47.8807 0.133553Z" fill="#DDAB27"/>
<path d="M50.8796 0.937378C50.8914 0.937378 50.9031 0.937378 50.9149 0.937378C50.9182 1.02725 50.9258 1.11713 50.9258 1.20784C50.9266 6.76582 50.9266 12.3238 50.9258 17.8809C50.9258 17.9792 50.9191 18.0775 50.9149 18.1757C50.9031 18.2278 50.883 18.2799 50.8821 18.3328C50.8788 18.6915 50.8788 19.0501 50.8788 19.408C50.8124 19.4214 50.7276 19.3634 50.6806 19.4575C49.7929 19.4567 48.9053 19.4567 48.0168 19.4558C47.9572 19.4424 47.8984 19.4298 47.8186 19.4122C47.8186 19.4852 47.8169 19.5415 47.8186 19.5978C47.8203 19.6616 47.8253 19.7246 47.8295 19.7876C47.8673 19.7935 47.8908 19.7969 47.9152 19.8011C47.9152 19.8179 47.9152 19.8347 47.9152 19.8515C47.8833 19.901 47.8505 19.9506 47.8186 20.0001C47.8043 19.9993 47.79 19.9993 47.7758 20.0001C47.7732 19.943 47.7699 19.8851 47.7699 19.8279C47.769 16.9301 47.769 14.0323 47.769 11.1344C47.769 11.0773 47.7732 11.0202 47.7758 10.9622C47.7892 10.9622 47.8035 10.9622 47.8169 10.9631C47.8169 11.4074 47.8178 11.8509 47.8178 12.2952C47.8178 12.8546 47.8178 13.4149 47.8178 13.9743C47.8178 14.3859 47.8178 14.7975 47.8178 15.209C47.8178 15.3081 47.8186 15.4073 47.8186 15.5055C47.8186 15.5383 47.8186 15.5702 47.8186 15.603C47.8186 15.8667 47.8178 16.1305 47.8178 16.3942C47.8178 16.8671 47.8178 17.34 47.8178 17.8112C47.8681 17.8188 47.8925 17.823 47.916 17.8263C47.911 17.9011 47.9437 17.9506 48.0143 17.9742C48.0143 18.0237 48.0151 18.0733 48.0151 18.1228C48.0378 18.2858 47.9874 18.4261 47.8639 18.5596C48.8423 18.5596 49.798 18.5596 50.7595 18.5596C50.7259 18.4059 50.5949 18.2875 50.6319 18.122C50.715 18.08 50.7982 18.0372 50.8754 17.9977C50.8754 17.5172 50.8754 17.0536 50.8754 16.5908C50.8754 16.1296 50.8754 15.6693 50.8754 15.2082C50.8754 14.7966 50.8754 14.385 50.8754 13.9735C50.8754 13.43 50.8754 12.8874 50.8754 12.3439C50.8754 10.4347 50.8754 8.52552 50.8754 6.6163C50.8754 5.80995 50.8754 5.00275 50.8754 4.1964C50.8754 3.78482 50.8754 3.37324 50.8754 2.96167C50.8754 2.68196 50.8754 2.40226 50.8754 2.12255C50.8754 1.82605 50.8754 1.53039 50.8754 1.23388C50.8779 1.13561 50.8788 1.03649 50.8796 0.937378ZM50.8158 19.2232C49.829 19.2232 48.8591 19.2232 47.89 19.2232C47.9404 19.2811 47.9975 19.3046 48.0554 19.3063C48.2528 19.3114 48.4493 19.308 48.6466 19.308C49.2874 19.308 49.9281 19.3097 50.5689 19.3063C50.652 19.3063 50.7545 19.3475 50.8158 19.2232Z" fill="#D7B735"/>
<path d="M47.7758 20.001C47.7901 20.0001 47.8043 20.0001 47.8186 20.001C47.8186 20.2471 47.8186 20.494 47.8186 20.7401C47.8371 20.8115 47.7615 20.9249 47.9068 20.94C47.9118 20.956 47.911 20.9719 47.9051 20.9871C47.8278 21.024 47.8152 21.0904 47.8178 21.1685C47.822 21.3382 47.8194 21.5078 47.8194 21.6783C47.8413 21.7598 47.7691 21.8615 47.8707 21.9261C47.8698 21.9412 47.869 21.9572 47.869 21.9723C47.7791 22.1462 47.8236 22.3259 47.8312 22.5091C47.8824 22.5124 47.9219 22.5158 47.9614 22.5183C47.9505 22.5779 47.9387 22.6384 47.9253 22.709C48.8767 22.709 49.8165 22.709 50.757 22.709C50.7486 22.6594 50.7411 22.6132 50.7343 22.567C50.8553 22.5662 50.8821 22.4931 50.8805 22.3889C50.8771 22.1521 50.8788 21.9144 50.8779 21.6775C50.8779 21.365 50.8779 21.0517 50.8779 20.7393C50.8788 20.5116 50.8779 20.2832 50.8805 20.0556C50.8813 19.9724 50.8863 19.8901 50.7898 19.8514C50.7864 19.8355 50.7856 19.8195 50.7872 19.8027C50.8158 19.796 50.8444 19.7893 50.8788 19.7809C50.8788 19.6482 50.8788 19.5289 50.8788 19.4088C50.8796 19.0501 50.8788 18.6915 50.8821 18.3336C50.883 18.2816 50.9031 18.2287 50.9149 18.1766C50.9183 18.2664 50.9233 18.3572 50.9233 18.447C50.925 20.0245 50.9258 21.6011 50.9267 23.1785C50.9267 23.2684 50.9317 23.3591 50.9342 23.449C50.9309 23.4994 50.9275 23.5498 50.9241 23.601C50.8754 23.601 50.8276 23.6018 50.7789 23.6018C50.7721 23.5724 50.7654 23.543 50.757 23.5061C49.845 23.5061 48.9456 23.5069 48.0462 23.5052C47.9664 23.5052 47.8992 23.5145 47.8698 23.6002C47.8354 23.601 47.801 23.6027 47.7665 23.6035C47.7699 22.4024 47.7724 21.2021 47.7758 20.001ZM47.8598 23.2911C48.8549 23.2911 49.8114 23.2911 50.7814 23.2911C50.7721 23.2222 50.7654 23.1701 50.7587 23.1163C49.8097 23.1163 48.8767 23.1163 47.9404 23.1163C47.9143 23.1718 47.8917 23.2213 47.8598 23.2911Z" fill="#B88931"/>
<path d="M47.8161 10.9639C47.8026 10.9631 47.7884 10.9631 47.7749 10.9631C47.7732 10.8732 47.769 10.7825 47.769 10.6926C47.769 8.55072 47.769 6.40883 47.7699 4.26695C47.7699 4.17708 47.7749 4.08636 47.7774 3.99649C47.7909 3.94525 47.8161 3.89485 47.8161 3.84361C47.8203 3.53367 47.8186 3.22289 47.8186 2.91295C47.8681 2.89615 47.9177 2.87935 47.9664 2.86255C47.9991 2.86255 48.0319 2.86339 48.0646 2.86339C48.0092 2.9919 47.953 3.12041 47.8975 3.24809C48.8675 3.24809 49.8366 3.24809 50.7872 3.24809C50.7511 3.14981 50.7159 3.05574 50.6814 2.96166C50.7461 2.96166 50.8116 2.96166 50.8763 2.96166C50.8763 3.37324 50.8763 3.78482 50.8763 4.1964C50.8141 4.19136 50.7528 4.18716 50.6873 4.18212C50.6848 4.12752 50.6831 4.08804 50.6814 4.04856C50.6814 4.01581 50.6814 3.98389 50.6814 3.95113C50.7108 3.92845 50.7394 3.90577 50.799 3.85873C49.8013 3.85873 48.8456 3.85873 47.8488 3.85873C47.9076 3.90493 47.9362 3.92761 47.9656 3.95029C47.9824 3.98305 47.9983 4.01581 48.0151 4.04856C48.0134 4.08888 48.0117 4.1292 48.0101 4.16196C47.9412 4.19724 47.8791 4.22915 47.8178 4.26023C47.8178 5.07499 47.8178 5.87042 47.8178 6.66586C47.8178 8.09882 47.8169 9.53178 47.8161 10.9639Z" fill="#F2D418"/>
<path d="M47.819 2.91379C47.819 3.22374 47.8207 3.53452 47.8165 3.84446C47.8156 3.8957 47.7913 3.9461 47.7778 3.99733C47.7778 3.20694 47.7778 2.41738 47.7778 1.62699C47.7913 1.56147 47.8047 1.49679 47.8181 1.43128C47.8181 1.36576 47.8181 1.2994 47.819 1.23389C47.8358 1.23389 47.8526 1.23473 47.8694 1.23473C47.9021 1.25069 47.9357 1.28176 47.9685 1.28176C48.8738 1.28428 49.7782 1.28428 50.6835 1.28176C50.7162 1.28176 50.7498 1.25069 50.7826 1.23389C50.8145 1.23389 50.8464 1.23473 50.8775 1.23473C50.8775 1.53123 50.8775 1.82689 50.8775 2.1234C50.8456 2.1234 50.8137 2.12256 50.7817 2.12256C50.749 2.05704 50.7154 1.99069 50.6826 1.92517C50.6826 1.87645 50.6818 1.82773 50.6818 1.77818C50.7137 1.7597 50.7456 1.74122 50.7767 1.72274C50.7717 1.71098 50.7675 1.69922 50.7624 1.6883C49.8059 1.6883 48.8486 1.6883 47.8517 1.6883C47.9088 1.73282 47.9382 1.7555 47.9676 1.77818C47.9676 1.82773 47.9676 1.87645 47.9676 1.92601C47.9995 2.03436 47.9063 2.09232 47.8685 2.17212C47.8517 2.21159 47.8215 2.25107 47.8207 2.29139C47.8156 2.49886 47.819 2.70633 47.819 2.91379Z" fill="#E7C020"/>
<path d="M50.9241 23.6002C50.9258 23.7169 50.9275 23.8337 50.9292 23.9504C50.9266 23.9664 50.9258 23.9815 50.9266 23.9975C49.8735 23.9983 48.8205 23.9991 47.7674 24.0008C47.7657 23.9681 47.764 23.9353 47.7623 23.9017C47.764 23.8026 47.7657 23.7035 47.7674 23.6044C47.8018 23.6035 47.8362 23.6018 47.8707 23.601C48.8406 23.601 49.8097 23.6018 50.7797 23.6018C50.8275 23.601 50.8763 23.6002 50.9241 23.6002Z" fill="#A78E62"/>
<path d="M47.8181 1.43213C47.8047 1.49765 47.7913 1.56232 47.7778 1.62784C47.7778 1.56232 47.7778 1.49765 47.7778 1.43213C47.7913 1.43213 47.8047 1.43213 47.8181 1.43213Z" fill="#E1B525"/>
<path d="M47.8693 1.23473C47.8525 1.23473 47.8357 1.23389 47.8189 1.23389C47.8189 0.963421 47.8189 0.692956 47.8189 0.412412C47.8617 0.406532 47.892 0.402332 47.9222 0.398132C47.9146 0.459449 47.9079 0.520766 47.9004 0.582082C48.5747 0.62156 50.581 0.605601 50.7724 0.558564C50.7573 0.504806 50.7422 0.451889 50.7271 0.398132C50.7674 0.398132 50.8085 0.398132 50.8799 0.398132C50.8799 0.582082 50.8799 0.759312 50.8799 0.937383C50.8791 1.0365 50.8782 1.13561 50.8774 1.23473C50.8455 1.23473 50.8136 1.23389 50.7825 1.23389C50.7657 1.18517 50.7489 1.13561 50.7313 1.08689C50.7254 1.0575 50.7187 1.02726 50.7136 1.00122C49.7932 1.00122 48.8863 1.00122 47.9801 1.00122C47.9743 1.03818 47.9701 1.0617 47.9667 1.08605C47.934 1.13561 47.9012 1.18517 47.8693 1.23473Z" fill="#E1B525"/>
<path d="M50.7266 0.398132C50.7417 0.451889 50.7568 0.504806 50.7719 0.558564C50.5804 0.606441 48.5742 0.6224 47.8998 0.582082C47.9074 0.520766 47.9141 0.459449 47.9217 0.398132C48.8564 0.398972 49.791 0.398132 50.7266 0.398132Z" fill="#FAE300"/>
<path d="M47.8806 0.133525C47.9444 0.0100522 48.046 0.0520499 48.1291 0.0520499C48.8522 0.0486901 49.5752 0.05037 50.2983 0.05037C50.4217 0.05037 50.5452 0.0486901 50.6678 0.0520499C50.7031 0.0528898 50.7383 0.068009 50.7694 0.0764085C50.7694 0.102447 50.7719 0.111687 50.7686 0.118406C50.7652 0.125126 50.7568 0.133525 50.7501 0.133525C49.7995 0.133525 48.8488 0.133525 47.8806 0.133525Z" fill="#F5DD09"/>
<path d="M47.8163 10.9639C47.8172 9.53094 47.8172 8.09882 47.818 6.66586C47.8348 6.66586 47.8516 6.66502 47.8693 6.66502C47.9012 6.68182 47.9331 6.69862 47.9658 6.71626C47.9675 6.87921 48.0842 6.86409 48.1926 6.86409C48.8484 6.86409 49.5043 6.86409 50.1593 6.86409C50.282 6.86409 50.4054 6.86325 50.528 6.86409C50.628 6.86493 50.6809 6.81957 50.6825 6.71794C50.7153 6.70114 50.748 6.6835 50.7808 6.6667C50.8127 6.65074 50.8446 6.63394 50.8765 6.61798C50.8765 8.5272 50.8765 10.4364 50.8765 12.3456C50.8446 12.3288 50.8127 12.3129 50.7808 12.2961C50.7186 12.2045 50.6565 12.1138 50.5683 11.9853C50.3223 11.9744 50.0393 11.9567 49.7563 11.9517C49.4035 11.9458 49.05 11.95 48.6964 11.95C48.4865 11.95 48.274 11.9315 48.0926 12.0189C48.0103 12.1205 47.9381 12.2079 47.8667 12.2961C47.8499 12.2961 47.8331 12.2961 47.8172 12.2961C47.8172 11.8517 47.8172 11.4082 47.8163 10.9639ZM48.0162 11.7022C48.0397 11.756 48.0632 11.8089 48.08 11.8459C48.2178 11.8282 48.3211 11.8039 48.4235 11.8039C49.0441 11.8005 49.6656 11.8022 50.2862 11.8022C50.3424 11.8022 50.4104 11.7904 50.4533 11.8156C50.5599 11.8786 50.6128 11.8055 50.6809 11.7669C50.6809 11.7182 50.6809 11.6854 50.6809 11.6535C50.7077 11.5922 50.7346 11.5317 50.7623 11.4662C49.7915 11.4662 48.84 11.4662 47.8911 11.4662C47.9364 11.5502 47.9767 11.6258 48.0162 11.7022ZM47.8911 8.97237C48.8728 8.97237 49.815 8.97237 50.7657 8.97237C50.6951 8.85394 50.633 8.75062 50.5725 8.64815C49.7554 8.64815 48.9517 8.64815 48.1237 8.64815C48.0574 8.74054 47.9843 8.84218 47.8911 8.97237ZM50.7144 7.39578C50.696 7.17823 50.5977 7.064 50.4096 7.06316C49.6538 7.05896 48.898 7.06148 48.1321 7.06148C48.0473 7.17067 47.9642 7.27902 47.8735 7.39578C48.8308 7.39578 49.7722 7.39578 50.7144 7.39578ZM50.5767 10.2827C49.7411 10.2827 48.9316 10.2827 48.1178 10.2827C48.0515 10.3911 47.9893 10.4935 47.918 10.6094C48.8787 10.6094 49.8192 10.6094 50.7674 10.6094C50.701 10.4952 50.6405 10.3911 50.5767 10.2827ZM48.0758 8.43228C48.9526 8.43228 49.789 8.43228 50.6263 8.43228C50.6817 8.34409 50.7321 8.26513 50.7951 8.16518C49.805 8.16518 48.8426 8.16518 47.8256 8.16518C47.9339 8.28025 48.0095 8.36088 48.0758 8.43228ZM50.5868 10.0727C50.6699 9.97276 50.7422 9.88708 50.8253 9.78629C49.8335 9.78629 48.861 9.78629 47.8659 9.78629C47.9507 9.89632 48.0229 9.99124 48.0859 10.0727C48.9349 10.0727 49.7563 10.0727 50.5868 10.0727Z" fill="#FAE300"/>
<path d="M47.8693 6.66589C47.8525 6.66589 47.8357 6.66673 47.8181 6.66673C47.8181 5.8713 47.8181 5.07586 47.8181 4.26111C47.8794 4.23003 47.9415 4.19811 48.0104 4.16283C48.012 4.12923 48.0137 4.08892 48.0154 4.04944C48.3077 4.06624 48.5999 4.09144 48.8921 4.09648C49.3607 4.10404 49.8293 4.10236 50.2979 4.09648C50.4256 4.0948 50.5532 4.06624 50.6809 4.04944C50.6826 4.08892 50.6842 4.12923 50.6868 4.18299C50.7523 4.18803 50.8136 4.19307 50.8757 4.19727C50.8757 5.00363 50.8757 5.81082 50.8757 6.61718C50.8438 6.63314 50.8119 6.64994 50.78 6.66589C50.7472 6.6491 50.7136 6.61802 50.6809 6.61802C49.7764 6.6155 48.872 6.6155 47.9667 6.61802C47.9356 6.61886 47.9029 6.6491 47.8693 6.66589ZM50.607 5.59159C49.7764 5.59159 48.9341 5.59159 48.0658 5.59159C48.0238 5.67307 47.9768 5.76462 47.9239 5.86794C48.8787 5.86794 49.8193 5.86794 50.7665 5.86794C50.712 5.77386 50.6632 5.68987 50.607 5.59159ZM48.0398 5.38245C48.4958 5.38245 48.9232 5.38245 49.3507 5.38245C49.7848 5.38245 50.219 5.38245 50.6397 5.38245C50.7061 5.29677 50.7607 5.22789 50.8178 5.15482C50.4105 5.10862 48.0423 5.12626 47.8575 5.1817C47.9214 5.25225 47.9793 5.31609 48.0398 5.38245ZM47.9331 4.47865C48.8821 4.47865 49.8193 4.47865 50.7733 4.47865C50.7086 4.38878 50.6582 4.31822 50.6137 4.25607C49.7437 4.25607 48.8896 4.25607 48.0347 4.25607C47.9994 4.33418 47.9667 4.40558 47.9331 4.47865Z" fill="#F5DD09"/>
<path d="M50.7808 12.2952C50.8127 12.312 50.8446 12.328 50.8766 12.3448C50.8766 12.8882 50.8766 13.4308 50.8766 13.9743C50.8446 13.9743 50.8127 13.9743 50.78 13.9743C50.6632 13.855 50.6515 13.6543 50.5062 13.5896C49.6925 13.5896 48.9081 13.5896 48.1111 13.5896C48.0456 13.7189 47.9818 13.8466 47.9171 13.9743C47.8844 13.9743 47.8508 13.9743 47.8181 13.9743C47.8181 13.4149 47.8181 12.8546 47.8181 12.2952C47.8348 12.2952 47.8516 12.2952 47.8676 12.2952C48.8384 12.2961 49.81 12.2961 50.7808 12.2952ZM48.0952 13.3762C48.9459 13.3762 49.7748 13.3762 50.6036 13.3762C50.5927 13.3636 50.5826 13.351 50.5717 13.3384C50.6532 13.278 50.7346 13.2183 50.8287 13.1486C49.8302 13.1486 48.8611 13.1486 47.8953 13.1486C47.965 13.2276 48.0288 13.3007 48.0952 13.3762Z" fill="#F5DD09"/>
<path d="M50.78 13.9743C50.8119 13.9743 50.8438 13.9743 50.8766 13.9743C50.8766 14.3859 50.8766 14.7975 50.8766 15.209C50.7951 15.2258 50.7136 15.2418 50.6322 15.2586C50.5986 15.1586 50.5188 15.1578 50.4323 15.1586C50.1695 15.1612 49.9066 15.1595 49.6446 15.1595C49.1281 15.1595 48.6125 15.1595 48.1044 15.1595C48.07 15.2174 48.0431 15.2628 48.0162 15.3082C47.9499 15.2754 47.8844 15.2426 47.8181 15.209C47.8181 14.7975 47.8181 14.3859 47.8181 13.9743C47.8508 13.9743 47.8844 13.9743 47.9171 13.9743C48.8711 13.9743 49.826 13.9743 50.78 13.9743ZM50.8329 14.7773C49.831 14.7773 48.8611 14.7773 47.897 14.7773C47.965 14.8647 48.0305 14.947 48.0767 15.0058C48.9442 15.0058 49.7731 15.0058 50.6036 15.0058C50.6742 14.9361 50.743 14.868 50.8329 14.7773Z" fill="#F2D418"/>
<path d="M48.0163 18.1237C48.0163 18.0741 48.0154 18.0246 48.0154 17.975C48.8199 17.975 49.6244 17.975 50.429 17.975C50.5029 17.975 50.5768 17.9776 50.6507 17.9742C50.7246 17.9708 50.7716 17.9356 50.7682 17.8272C49.8168 17.8272 48.867 17.8272 47.9172 17.8272C47.8928 17.8238 47.8693 17.8196 47.8189 17.8121C47.8189 17.3417 47.8189 16.8688 47.8189 16.3951C47.8357 16.3951 47.8525 16.3951 47.8693 16.3951C47.9188 16.4438 47.9675 16.4925 48.0163 16.5421C48.0322 16.5916 48.049 16.642 48.065 16.6916C48.0129 16.8377 47.9617 16.9847 47.913 17.12C48.8678 17.12 49.8369 17.12 50.8396 17.12C50.6918 16.9898 50.6112 16.8621 50.6322 16.6916C50.6322 16.642 50.633 16.5925 50.633 16.5429H50.6565H50.6801C50.7456 16.5597 50.8111 16.5757 50.8766 16.5925C50.8766 17.0553 50.8766 17.5189 50.8766 17.9994C50.7993 18.0389 50.7162 18.0817 50.633 18.1237C49.7605 18.1229 48.8888 18.1237 48.0163 18.1237Z" fill="#E7C020"/>
<path d="M47.8684 16.3942C47.8516 16.3942 47.8348 16.3942 47.8181 16.3942C47.8181 16.1305 47.8189 15.8667 47.8189 15.603C48.793 15.6005 49.768 15.5971 50.7422 15.5946C50.7489 15.5946 50.7581 15.5879 50.7623 15.582C50.7674 15.5761 50.7674 15.5669 50.7665 15.5694C50.7195 15.461 50.675 15.3594 50.6313 15.2586C50.7128 15.2418 50.7943 15.2258 50.8757 15.209C50.8757 15.6702 50.8757 16.1305 50.8757 16.5916C50.8102 16.5748 50.7447 16.5589 50.6792 16.5421C50.7027 16.4791 50.7271 16.4169 50.7548 16.3447C49.8209 16.3447 48.8938 16.3438 47.9667 16.3463C47.9339 16.3472 47.9012 16.3774 47.8684 16.3942Z" fill="#EBCE1B"/>
<path d="M50.7892 19.8506C50.8858 19.8893 50.8808 19.9716 50.8799 20.0548C50.8774 20.2824 50.8783 20.5108 50.8774 20.7385C50.8279 20.7721 50.7792 20.8065 50.7296 20.8401C50.7027 20.778 50.6759 20.715 50.6465 20.6469C49.7815 20.6469 48.914 20.6469 48.0541 20.6469C48.023 20.6822 47.997 20.7116 47.9718 20.741C47.9214 20.741 47.8702 20.7402 47.8198 20.7402C47.8198 20.4941 47.8198 20.2471 47.8198 20.001C47.8517 19.9514 47.8844 19.9019 47.9163 19.8523C48.8729 19.8515 49.831 19.8506 50.7892 19.8506ZM50.7666 20.4579C49.7958 20.4579 48.8435 20.4579 47.8903 20.4579C47.9323 20.51 47.981 20.5377 48.0314 20.5402C48.1708 20.5461 48.3102 20.5428 48.4504 20.5428C49.1399 20.5428 49.8302 20.5444 50.5197 20.5411C50.6028 20.5402 50.7053 20.5814 50.7666 20.4579Z" fill="#DDAB27"/>
<path d="M47.8189 2.91381C47.8189 2.70634 47.8164 2.49887 47.8206 2.29224C47.8214 2.25193 47.8517 2.21329 47.8685 2.17297C48.7654 2.17297 49.6623 2.17465 50.5591 2.17045C50.633 2.17045 50.7254 2.22001 50.7817 2.12341C50.8136 2.12341 50.8455 2.12425 50.8774 2.12425C50.8774 2.40396 50.8774 2.68366 50.8774 2.96337C50.8128 2.96337 50.7473 2.96337 50.6826 2.96337C50.6826 2.93061 50.6826 2.89701 50.6826 2.86425C50.7254 2.80378 50.7683 2.7433 50.8144 2.67862C49.8277 2.67862 48.8594 2.67862 47.892 2.67862C47.9197 2.7475 47.9432 2.80546 47.9667 2.86341C47.9172 2.88021 47.8676 2.89701 47.8189 2.91381Z" fill="#EBCE1B"/>
<path d="M50.6331 15.2586C50.6767 15.3594 50.7212 15.4611 50.7683 15.5694C50.7691 15.5669 50.7683 15.5761 50.7641 15.582C50.759 15.5879 50.7506 15.5946 50.7439 15.5946C49.7698 15.598 48.7948 15.6005 47.8206 15.603C47.8206 15.5703 47.8206 15.5383 47.8206 15.5056C47.9424 15.4955 48.0079 15.4291 48.018 15.3073C48.0448 15.262 48.0717 15.2166 48.1061 15.1587C48.6142 15.1587 49.1307 15.1587 49.6463 15.1587C49.9092 15.1587 50.172 15.1604 50.434 15.1578C50.5188 15.1578 50.5995 15.1587 50.6331 15.2586Z" fill="#F9E816"/>
<path d="M48.0158 18.1237C48.8883 18.1237 49.76 18.1229 50.6326 18.1229C50.5956 18.2883 50.7266 18.4068 50.7602 18.5605C49.7987 18.5605 48.8438 18.5605 47.8646 18.5605C47.9881 18.4269 48.0385 18.2858 48.0158 18.1237Z" fill="#F9E816"/>
<path d="M50.7887 19.8506C49.8305 19.8506 48.8723 19.8515 47.9141 19.8515C47.9141 19.8347 47.9141 19.8179 47.9141 19.8011C48.0393 19.7129 48.0124 19.5802 48.0157 19.4559C48.9034 19.4567 49.791 19.4567 50.6795 19.4576C50.6846 19.5819 50.6518 19.7179 50.7862 19.8019C50.7845 19.8187 50.7853 19.8347 50.7887 19.8506Z" fill="#F9E816"/>
<path d="M47.9166 17.8264C48.8664 17.8264 49.8162 17.8264 50.7677 17.8264C50.771 17.9339 50.724 17.9691 50.6501 17.9733C50.5762 17.9767 50.5023 17.9742 50.4284 17.9742C49.6239 17.9742 48.8194 17.9742 48.0148 17.9742C47.9443 17.9507 47.9115 17.9011 47.9166 17.8264Z" fill="#DDAB27"/>
<path d="M50.8156 19.2232C50.7543 19.3475 50.6518 19.3055 50.5687 19.3064C49.9279 19.3097 49.2872 19.308 48.6464 19.308C48.4491 19.308 48.2517 19.3114 48.0552 19.3064C47.9973 19.3047 47.9393 19.282 47.8898 19.2232C48.8589 19.2232 49.8288 19.2232 50.8156 19.2232Z" fill="#DDAB27"/>
<path d="M50.7876 19.8019C50.6525 19.7179 50.6854 19.5818 50.6803 19.4575C50.7276 19.3634 50.8129 19.4222 50.8796 19.408C50.8796 19.5281 50.8796 19.6482 50.8796 19.7801C50.845 19.7885 50.8163 19.7952 50.7876 19.8019Z" fill="#DDAB27"/>
<path d="M48.0182 19.4558C48.0148 19.5802 48.0419 19.7129 47.916 19.8011C47.8916 19.7977 47.8679 19.7935 47.8299 19.7876C47.8265 19.7246 47.8215 19.6616 47.8189 19.5978C47.8172 19.5415 47.8189 19.4861 47.8189 19.4122C47.8983 19.4298 47.9583 19.4432 48.0182 19.4558Z" fill="#DDAB27"/>
<path d="M48.0173 15.3082C48.0081 15.43 47.9422 15.4963 47.8189 15.5064C47.8189 15.4073 47.8181 15.3082 47.8181 15.2099C47.8848 15.2418 47.9506 15.2754 48.0173 15.3082Z" fill="#EBCE1B"/>
<path d="M50.7296 20.841C50.7791 20.8074 50.8278 20.7729 50.8774 20.7393C50.8774 21.0518 50.8774 21.3651 50.8774 21.6775C50.827 21.6775 50.7775 21.6784 50.7271 21.6784C50.6658 21.6616 50.6045 21.6313 50.544 21.6305C49.7176 21.6271 48.8913 21.628 48.0658 21.6305C48.033 21.6305 47.9994 21.6607 47.9667 21.6775C47.9171 21.6775 47.8676 21.6775 47.8181 21.6775C47.8181 21.5079 47.8206 21.3382 47.8164 21.1677C47.8147 21.0887 47.8265 21.0232 47.9037 20.9863C48.8535 20.9863 49.8025 20.9863 50.7556 20.9863C50.7464 20.9317 50.738 20.8863 50.7296 20.841Z" fill="#CB9D2C"/>
<path d="M50.7279 21.6784C50.7783 21.6784 50.8278 21.6776 50.8782 21.6776C50.879 21.9144 50.8774 22.1521 50.8807 22.389C50.8824 22.4931 50.8555 22.5671 50.7346 22.5671C50.727 22.5368 50.7186 22.5074 50.7086 22.4679C49.8209 22.4679 48.9417 22.4671 48.0632 22.4705C48.0296 22.4705 47.9961 22.5015 47.9616 22.5183C47.9222 22.5158 47.8827 22.5125 47.8315 22.5091C47.8239 22.326 47.7794 22.1462 47.8692 21.9724C48.83 21.9724 49.7915 21.9724 50.7472 21.9724C50.7396 21.8674 50.7338 21.7733 50.7279 21.6784Z" fill="#C4932D"/>
<path d="M50.7275 21.6784C50.7333 21.7725 50.7401 21.8665 50.7468 21.9715C49.7903 21.9715 48.8296 21.9715 47.8688 21.9715C47.8688 21.9556 47.8697 21.9405 47.8705 21.9253C47.9528 21.8623 47.973 21.775 47.9671 21.6775C47.9998 21.6616 48.0334 21.6305 48.0662 21.6305C48.8925 21.628 49.7189 21.6272 50.5444 21.6305C50.6049 21.6314 50.6662 21.6624 50.7275 21.6784Z" fill="#F5DD09"/>
<path d="M50.7291 20.8409C50.7375 20.8863 50.7459 20.9325 50.756 20.9871C49.8036 20.9871 48.8539 20.9871 47.9041 20.9871C47.9099 20.972 47.9108 20.956 47.9057 20.9401C47.9267 20.8737 47.9486 20.8073 47.9696 20.741C47.9956 20.7116 48.0208 20.683 48.0519 20.6469C48.9126 20.6469 49.7801 20.6469 50.6443 20.6469C50.6753 20.7158 50.7022 20.7779 50.7291 20.8409Z" fill="#FAE300"/>
<path d="M47.9602 22.5183C47.9938 22.5015 48.0274 22.4704 48.0619 22.4704C48.9411 22.4679 49.8195 22.4679 50.7072 22.4679C50.7173 22.5074 50.7248 22.5368 50.7332 22.567C50.7408 22.6132 50.7483 22.6594 50.7559 22.709C49.8153 22.709 48.8756 22.709 47.9241 22.709C47.9376 22.6384 47.9493 22.5779 47.9602 22.5183Z" fill="#F5DD09"/>
<path d="M47.8596 23.2911C47.8915 23.2222 47.9142 23.1727 47.9402 23.1164C48.8766 23.1164 49.8104 23.1164 50.7586 23.1164C50.7653 23.1702 50.772 23.2222 50.7812 23.2911C49.8113 23.2911 48.8548 23.2911 47.8596 23.2911Z" fill="#EBCE1B"/>
<path d="M50.7786 23.601C49.8087 23.601 48.8396 23.6002 47.8696 23.6002C47.899 23.5136 47.967 23.5044 48.046 23.5052C48.9454 23.5069 49.8448 23.5061 50.7568 23.5061C50.7661 23.5422 50.7728 23.5716 50.7786 23.601Z" fill="#CB9D2C"/>
<path d="M47.9685 21.6776C47.9745 21.775 47.9541 21.8623 47.8708 21.9253C47.7671 21.8607 47.841 21.759 47.819 21.6776C47.8682 21.6784 47.9184 21.6784 47.9685 21.6776Z" fill="#C4932D"/>
<path d="M47.9727 20.741C47.9515 20.8073 47.9294 20.8737 47.9082 20.94C47.7612 20.9249 47.8376 20.8115 47.8189 20.7401C47.8699 20.7401 47.9209 20.7401 47.9727 20.741Z" fill="#CB9D2C"/>
<path d="M50.6812 2.86426C50.6812 2.89702 50.6812 2.93061 50.6812 2.96337C50.7157 3.05745 50.7509 3.15152 50.787 3.2498C49.8372 3.2498 48.8673 3.2498 47.8973 3.2498C47.9528 3.12212 48.0082 2.99361 48.0645 2.8651C48.937 2.86426 49.8095 2.86426 50.6812 2.86426Z" fill="#F9E816"/>
<path d="M50.6813 2.86422C49.8087 2.86422 48.937 2.86422 48.0645 2.86422C48.0317 2.86422 47.999 2.86338 47.9662 2.86338C47.9427 2.80542 47.9192 2.74747 47.8915 2.67859C48.8589 2.67859 49.8272 2.67859 50.8139 2.67859C50.7677 2.74327 50.7241 2.80374 50.6813 2.86422Z" fill="#E1B525"/>
<path d="M50.6811 4.04945C50.5534 4.06625 50.4258 4.0948 50.2982 4.09648C49.8296 4.10236 49.3609 4.10488 48.8923 4.09648C48.6001 4.09144 48.3079 4.06541 48.0156 4.04945C47.9988 4.01669 47.9829 3.98393 47.9661 3.95117C48.8714 3.95117 49.7766 3.95201 50.6819 3.95201C50.6811 3.98393 50.6811 4.01669 50.6811 4.04945Z" fill="#EBCE1B"/>
<path d="M50.6813 3.95195C49.776 3.95195 48.8707 3.95111 47.9654 3.95111C47.936 3.92843 47.9075 3.90492 47.8487 3.85956C48.8455 3.85956 49.8012 3.85956 50.7989 3.85956C50.7401 3.90576 50.7107 3.92843 50.6813 3.95195Z" fill="#E1B525"/>
<path d="M50.7803 2.12341C50.7241 2.22085 50.6317 2.17045 50.5578 2.17045C49.6609 2.17381 48.764 2.17297 47.8671 2.17297C47.9049 2.09318 47.9981 2.03522 47.9662 1.92687C48.8715 1.92687 49.776 1.92603 50.6812 1.92603C50.7148 1.99154 50.7476 2.05706 50.7803 2.12341Z" fill="#F9E816"/>
<path d="M50.7308 1.08688C50.7476 1.1356 50.7653 1.18516 50.7821 1.23388C50.7493 1.25068 50.7157 1.28175 50.683 1.28175C49.7777 1.28427 48.8732 1.28427 47.9679 1.28175C47.9352 1.28175 47.9016 1.25152 47.8688 1.23472C47.9016 1.18516 47.9335 1.13476 47.9663 1.08521C48.8875 1.08605 49.8087 1.08604 50.7308 1.08688Z" fill="#F9E816"/>
<path d="M50.6811 1.92519C49.7758 1.92519 48.8714 1.92603 47.9661 1.92603C47.9661 1.87647 47.9661 1.82776 47.9661 1.7782C48.8705 1.7782 49.775 1.7782 50.6794 1.7782C50.6803 1.82776 50.6811 1.87647 50.6811 1.92519Z" fill="#F2D418"/>
<path d="M50.6804 1.77902C49.776 1.77902 48.8715 1.77902 47.9671 1.77902C47.9377 1.75634 47.9083 1.73367 47.8512 1.68915C48.848 1.68915 49.8054 1.68915 50.7619 1.68915C50.7669 1.70091 50.7711 1.71267 50.7762 1.72359C50.7443 1.74207 50.7123 1.76054 50.6804 1.77902Z" fill="#DDAB27"/>
<path d="M50.7306 1.0869C49.8094 1.0869 48.8873 1.08606 47.9661 1.08606C47.9703 1.0617 47.9736 1.03818 47.9795 1.00122C48.8865 1.00122 49.7926 1.00122 50.713 1.00122C50.718 1.02726 50.7239 1.05666 50.7306 1.0869Z" fill="#E7C020"/>
<path d="M47.8906 8.97242C47.9838 8.84222 48.0569 8.74059 48.1232 8.64819C48.9513 8.64819 49.7549 8.64819 50.5721 8.64819C50.6334 8.75067 50.6947 8.85398 50.7652 8.97242C49.8137 8.97242 48.8715 8.97242 47.8906 8.97242Z" fill="#FAEC1E"/>
<path d="M50.714 7.39578C49.7717 7.39578 48.8303 7.39578 47.873 7.39578C47.9637 7.27819 48.0468 7.17067 48.1316 7.06148C48.8975 7.06148 49.6533 7.05896 50.4091 7.06316C50.5972 7.064 50.6963 7.17823 50.714 7.39578Z" fill="#FAEC1E"/>
<path d="M50.5762 10.2827C50.64 10.3911 50.7005 10.4952 50.7668 10.6095C49.8187 10.6095 48.8781 10.6095 47.9174 10.6095C47.988 10.4935 48.0509 10.3919 48.1173 10.2827C48.931 10.2827 49.7406 10.2827 50.5762 10.2827Z" fill="#FAEC1E"/>
<path d="M50.7803 12.2953C49.8096 12.2953 48.8388 12.2953 47.8671 12.2953C47.9385 12.2079 48.0099 12.1197 48.093 12.0181C48.2736 11.9307 48.4869 11.9501 48.6968 11.9492C49.0504 11.9484 49.4031 11.9442 49.7566 11.9509C50.0397 11.9559 50.3227 11.9736 50.5687 11.9845C50.6561 12.113 50.7182 12.2046 50.7803 12.2953Z" fill="#FAEC1E"/>
<path d="M48.0757 8.43227C48.0093 8.36087 47.9338 8.28107 47.8246 8.16516C48.8416 8.16516 49.804 8.16516 50.7941 8.16516C50.7311 8.26512 50.6807 8.34407 50.6253 8.43227C49.7897 8.43227 48.9524 8.43227 48.0757 8.43227Z" fill="#E7C020"/>
<path d="M50.5864 10.0727C49.7558 10.0727 48.9345 10.0727 48.0855 10.0727C48.0225 9.99126 47.9503 9.89635 47.8655 9.78632C48.8606 9.78632 49.8339 9.78632 50.8249 9.78632C50.7417 9.88627 50.6695 9.97279 50.5864 10.0727Z" fill="#E7C020"/>
<path d="M48.0158 11.7022C47.9755 11.6258 47.936 11.5502 47.8915 11.4662C48.8404 11.4662 49.7919 11.4662 50.7627 11.4662C50.7342 11.5309 50.7073 11.5922 50.6812 11.6535C50.5956 11.6703 50.5099 11.7014 50.4234 11.7014C49.6206 11.7039 48.8186 11.7022 48.0158 11.7022Z" fill="#E7C020"/>
<path d="M50.6828 6.71793C50.6811 6.81956 50.6282 6.86492 50.5283 6.86408C50.4056 6.8624 50.2822 6.86408 50.1596 6.86408C49.5037 6.86408 48.8478 6.86408 48.1928 6.86408C48.0845 6.86408 47.9677 6.8792 47.9661 6.71625C48.8714 6.71709 49.7766 6.71793 50.6828 6.71793Z" fill="#EBCE1B"/>
<path d="M50.683 6.71793C49.7768 6.71709 48.8715 6.71709 47.9654 6.71625C47.9335 6.69945 47.9016 6.68265 47.8688 6.66502C47.9016 6.64906 47.9352 6.61882 47.9679 6.61798C48.8724 6.61546 49.7768 6.61546 50.6821 6.61798C50.7149 6.61798 50.7485 6.64906 50.7812 6.66586C50.7485 6.6835 50.7157 6.70113 50.683 6.71793Z" fill="#E1B525"/>
<path d="M48.0161 11.7022C48.8189 11.7022 49.6209 11.7047 50.4237 11.7014C50.5094 11.7014 50.595 11.6703 50.6815 11.6535C50.6815 11.6863 50.6815 11.719 50.6815 11.7669C50.6144 11.8064 50.5606 11.8786 50.454 11.8156C50.4103 11.7904 50.3431 11.8022 50.2868 11.8022C49.6654 11.8013 49.0448 11.7997 48.4242 11.8039C48.3217 11.8047 48.2184 11.8282 48.0807 11.8459C48.0631 11.8089 48.0396 11.7551 48.0161 11.7022Z" fill="#F5DD09"/>
<path d="M50.6065 5.59155C50.6627 5.68983 50.7114 5.77382 50.766 5.8679C49.8187 5.8679 48.8782 5.8679 47.9233 5.8679C47.9762 5.76542 48.0233 5.67303 48.0653 5.59155C48.9336 5.59155 49.7759 5.59155 50.6065 5.59155Z" fill="#FAEC1E"/>
<path d="M48.0393 5.38245C47.9789 5.3161 47.9209 5.25226 47.8563 5.1817C48.041 5.12627 50.4101 5.10863 50.8165 5.15483C50.7594 5.2279 50.7057 5.29678 50.6385 5.38245C50.2177 5.38245 49.7836 5.38245 49.3494 5.38245C48.9228 5.38245 48.4953 5.38245 48.0393 5.38245Z" fill="#E7C020"/>
<path d="M47.9326 4.47863C47.9661 4.40555 47.9989 4.33416 48.0342 4.25604C48.8891 4.25604 49.7431 4.25604 50.6132 4.25604C50.6577 4.31736 50.708 4.38876 50.7727 4.47863C49.8187 4.47863 48.8815 4.47863 47.9326 4.47863Z" fill="#FAEC1E"/>
<path d="M50.7794 13.9743C49.8246 13.9743 48.8706 13.9743 47.9158 13.9743C47.9804 13.8466 48.0443 13.719 48.1098 13.5896C48.9067 13.5896 49.6911 13.5896 50.5048 13.5896C50.6518 13.6543 50.6627 13.855 50.7794 13.9743Z" fill="#FAEC1E"/>
<path d="M48.0947 13.3762C48.0284 13.3007 47.9637 13.2276 47.8948 13.1486C48.8606 13.1486 49.8297 13.1486 50.8282 13.1486C50.7342 13.2183 50.6527 13.278 50.5712 13.3385C50.5822 13.3511 50.5922 13.3636 50.6031 13.3762C49.7743 13.3762 48.9454 13.3762 48.0947 13.3762Z" fill="#E1B525"/>
<path d="M50.8324 14.7773C50.7417 14.8672 50.6737 14.936 50.6031 15.0058C49.7726 15.0058 48.9437 15.0058 48.0762 15.0058C48.03 14.947 47.9645 14.8638 47.8965 14.7773C48.8606 14.7773 49.8314 14.7773 50.8324 14.7773Z" fill="#E1B525"/>
<path d="M50.6316 16.6907C50.6106 16.8612 50.6913 16.9889 50.8391 17.1191C49.8364 17.1191 48.8673 17.1191 47.9124 17.1191C47.9603 16.983 48.0123 16.8369 48.0644 16.6907C48.9202 16.6907 49.7759 16.6907 50.6316 16.6907Z" fill="#F9E816"/>
<path d="M47.868 16.3942C47.9007 16.3774 47.9335 16.3472 47.9662 16.3472C48.8934 16.3446 49.8205 16.3455 50.7543 16.3455C50.7266 16.4177 50.7031 16.4799 50.6787 16.5429H50.6552H50.6317C49.7592 16.5429 48.8875 16.542 48.0149 16.542C47.9662 16.4916 47.9175 16.4429 47.868 16.3942Z" fill="#DDAB27"/>
<path d="M48.0161 16.5412C48.8886 16.5412 49.7603 16.542 50.6328 16.542C50.6328 16.5916 50.632 16.6412 50.632 16.6907C49.7762 16.6907 48.9205 16.6907 48.0648 16.6907C48.0488 16.6403 48.032 16.5908 48.0161 16.5412Z" fill="#EBCE1B"/>
<path d="M50.766 20.4579C50.7039 20.5814 50.6023 20.5402 50.5191 20.5402C49.8297 20.5436 49.1394 20.5419 48.4499 20.5419C48.3105 20.5419 48.1703 20.5461 48.0309 20.5394C47.9805 20.5369 47.9318 20.51 47.8898 20.4571C48.8429 20.4579 49.7961 20.4579 50.766 20.4579Z" fill="#CB9D2C"/>
<path d="M37.0929 12.5607C37.0929 12.5607 37.0946 13.068 37.0946 13.3284C36.6838 13.3284 36.1345 13.3284 35.7657 13.3292C35.7657 13.7089 35.7691 14.9613 35.7708 15.5039C35.775 15.6526 35.8296 15.8315 36.0144 15.8995C36.1731 15.9701 36.3823 15.9432 36.6091 15.9029C36.6563 15.8946 36.7035 15.8862 36.7532 15.8773L36.839 15.8619L36.9022 15.8508L36.8931 15.9123C36.8489 16.2118 36.8199 16.4085 36.7569 16.7101C36.7225 16.7235 36.0152 16.868 35.7792 16.8688C35.4272 16.8705 35.0409 16.8638 34.7763 16.5824C34.5529 16.3455 34.4428 16.0389 34.4428 15.7508C34.4428 15.4216 34.4319 13.4544 34.4252 13.3292H33.4508V12.5456C33.7347 12.5447 34.1648 12.5447 34.4319 12.5456V11.7988L34.853 11.6596C35.1537 11.5602 35.4564 11.4601 35.7725 11.3553C35.7725 11.7459 35.7657 12.5498 35.7657 12.5498L37.0929 12.5607Z" fill="url(#paint0_linear_1141_4363)"/>
<path d="M10.966 13.8451C10.9703 13.8864 10.9745 13.9277 10.9804 13.9684C10.9795 13.9819 10.9795 13.9961 10.9812 14.0104V16.8663H9.66334C9.66039 16.716 9.65786 16.5451 9.65545 16.3825L9.65242 16.1817V15.4904C9.65326 15.1941 9.65326 14.8986 9.65326 14.6022C9.65077 14.4561 9.6491 14.3085 9.64744 14.1623L9.64738 14.1574C9.6457 14.06 9.6289 13.9911 9.60118 13.913C9.60034 13.9113 9.59782 13.9071 9.59782 13.9071C9.41639 13.5484 9.11569 13.414 8.71167 13.4812C8.30597 13.5484 7.27703 14.0264 7.17708 14.1087C7.14852 14.1322 7.1334 14.175 7.13172 14.2095C7.12679 14.2932 7.12683 14.3775 7.12687 14.4615C7.12689 14.492 7.1269 14.5226 7.12668 14.553V15.5904C7.1271 15.7948 7.12773 15.9995 7.12836 16.2042C7.12899 16.409 7.12962 16.6138 7.13004 16.8184C6.70166 16.8184 6.27245 16.8175 5.84323 16.8167C5.84407 16.4093 5.84574 16.0027 5.84741 15.5954L5.84743 15.5904V14.5539C5.84703 14.4881 5.84664 14.4748 5.84633 14.4645C5.84599 14.453 5.84575 14.4452 5.84575 14.3716C5.84575 14.1868 5.77855 13.9516 5.77604 13.9457C5.603 13.5468 5.31322 13.3972 4.88484 13.477C4.54886 13.54 3.53168 14.0163 3.41744 14.0978C3.39134 14.1163 3.37165 14.1445 3.35201 14.1726C3.3432 14.1852 3.33441 14.1978 3.32505 14.2095C3.2873 14.3191 3.28546 14.3741 3.28293 14.4493C3.28191 14.4795 3.28078 14.513 3.27717 14.5547V16.1842C3.27717 16.2909 3.27696 16.3976 3.27675 16.5042C3.27654 16.6109 3.27633 16.7176 3.27633 16.8243H1.9996V15.4425C2.00044 15.1469 2.00044 14.8504 2.00044 14.5539V13.7643C2.00044 13.5833 2.00023 13.4025 2.00002 13.2217C1.99981 13.0409 1.9996 12.8601 1.9996 12.6791H3.1369L3.17261 12.72C3.19032 12.7402 3.20623 12.7584 3.22174 12.7765C3.26205 12.968 3.30237 13.1587 3.34521 13.3586C3.38415 13.334 3.42304 13.3091 3.46196 13.2843C3.57146 13.2144 3.6817 13.1441 3.79374 13.0772C4.39263 12.7211 5.03688 12.496 5.73656 12.4951C6.25061 12.4943 6.66975 12.7043 6.91669 13.1847C6.92177 13.1943 6.93283 13.2194 6.94629 13.2499C6.97289 13.3102 7.00888 13.3918 7.02673 13.4174C7.09652 13.3764 7.16795 13.334 7.24017 13.2912C7.43122 13.1778 7.62818 13.0609 7.8146 12.9579C8.28414 12.6984 8.79315 12.543 9.32232 12.4977C10.0564 12.4355 10.6923 12.816 10.9224 13.5829C10.9477 13.6672 10.9568 13.7562 10.966 13.8451Z" fill="url(#paint1_linear_1141_4363)"/>
<path fill-rule="evenodd" clip-rule="evenodd" d="M43.9175 15.9725C43.7848 15.9725 43.7125 15.8633 43.7125 15.571C43.7125 15.1178 43.7141 14.6916 43.7155 14.3181L43.7155 14.3165L43.7155 14.3134C43.7166 14.0215 43.7176 13.7619 43.7176 13.5468C43.7176 13.1276 43.5252 12.8126 43.1489 12.6178C42.8079 12.4405 42.4349 12.3901 42.0612 12.3725C41.5538 12.3481 41.0499 12.391 40.5442 12.4506C40.2464 12.4858 39.9526 12.5368 39.6563 12.5883C39.4854 12.618 39.3136 12.6479 39.1398 12.6749C39.1101 12.9148 39.0815 13.1486 39.0527 13.3838L39.0289 13.5778L39.2308 13.5458C39.5641 13.4929 39.8832 13.4423 40.2023 13.3905C40.7172 13.3074 41.2305 13.2318 41.7563 13.2922C42.0334 13.3242 42.3207 13.4636 42.3854 13.7475C42.4011 13.8167 42.3966 13.9043 42.3914 14.0056C42.3885 14.0617 42.3854 14.1223 42.3854 14.186C42.1516 14.1874 41.9194 14.1859 41.6882 14.1844C41.2268 14.1814 40.7688 14.1784 40.3124 14.1986C39.5724 14.2313 39.0684 14.3976 38.6812 14.6849C38.4972 14.821 38.3671 14.9932 38.3225 15.2132C38.2923 15.3611 38.2503 15.8507 38.4872 16.2186C38.756 16.6369 39.1574 16.8285 39.6236 16.8604C39.7864 16.8715 39.9495 16.8675 40.1126 16.8636C40.1959 16.8616 40.2796 16.8595 40.3628 16.8595C41.0655 16.8595 42.1528 16.0634 42.436 15.8561C42.4561 15.8414 42.4721 15.8296 42.4837 15.8213C42.4837 16.0775 42.5156 16.2531 42.5307 16.3194C42.5979 16.6201 42.8566 16.8444 43.1615 16.8562C43.3648 16.8637 44.261 16.8671 44.261 16.8671C44.261 16.8671 44.434 16.1741 44.4676 15.9944C44.3379 15.9944 44.1906 15.9861 44.0774 15.9797C44.0066 15.9758 43.9491 15.9725 43.9175 15.9725ZM41.663 15.487C41.3573 15.7012 41.0247 15.8785 40.6568 15.9221C40.476 15.9431 40.3332 15.9361 40.1199 15.9256L40.0654 15.923C39.8428 15.9129 39.6329 15.7726 39.6127 15.5248C39.5825 15.1502 39.7337 14.8856 40.7214 14.8873C40.9898 14.8877 41.2584 14.8879 41.527 14.8882C41.7955 14.8884 42.0641 14.8886 42.3325 14.889C42.2174 15.0167 41.7689 15.4131 41.663 15.487Z" fill="url(#paint2_linear_1141_4363)"/>
<path d="M25.1924 13.3704C25.2814 13.5476 25.3604 13.7408 25.3553 13.9508C25.357 14.0491 25.3562 15.0075 25.3453 15.6836L25.3478 16.8654C25.1336 16.8646 24.9084 16.8652 24.6833 16.8659C24.4582 16.8665 24.2331 16.8671 24.019 16.8663V16.7638C24.0187 16.4555 24.0202 16.153 24.0217 15.8497C24.0242 15.3622 24.0267 14.8723 24.0215 14.3515C24.0198 14.2162 23.9745 14.081 23.914 13.96C23.7107 13.5552 23.2445 13.4653 22.7834 13.5283C22.2425 13.6022 21.757 13.8089 21.2992 14.0944C21.2858 14.1028 21.1069 14.2288 21.1052 14.265C21.1003 14.4066 21.1003 14.5482 21.1003 14.6898C21.1004 14.7413 21.1004 14.793 21.1001 14.8445V16.2766C21.1006 16.3725 21.1012 16.4685 21.1018 16.5647L21.1018 16.5685C21.1024 16.6666 21.1031 16.7648 21.1035 16.8629H19.8175C19.818 16.7651 19.8186 16.6674 19.8192 16.5698C19.8198 16.4721 19.8205 16.3745 19.8209 16.2766V14.8445C19.8201 14.5312 19.8201 14.2188 19.8201 13.9063V12.722H21.0052L21.0335 12.8416C21.0554 12.9339 21.0774 13.0264 21.0985 13.1184C21.1093 13.1641 21.1192 13.2098 21.1293 13.2562C21.1365 13.2891 21.1437 13.3223 21.1514 13.3561C21.2428 13.3061 21.3319 13.2554 21.4199 13.2054C21.6142 13.0949 21.8032 12.9874 21.9997 12.8967C22.6087 12.6161 23.2538 12.4767 23.9241 12.5355C24.486 12.585 24.9329 12.8547 25.1924 13.3704Z" fill="url(#paint3_linear_1141_4363)"/>
<path d="M64.7097 12.5716V15.283C64.2922 15.608 63.774 15.9071 63.0272 15.9322C62.9287 15.9356 62.8299 15.9345 62.7309 15.9334C62.6813 15.9328 62.6316 15.9322 62.5821 15.9322C61.7791 15.9322 61.7862 15.5569 61.793 15.1961C61.7936 15.1632 61.7942 15.1305 61.7942 15.0982L61.7933 14.5292C61.7921 13.8648 61.7902 12.8342 61.7908 12.5724H60.5091C60.5091 12.789 60.5096 13.4347 60.51 14.0235L60.5107 15.0982C60.5107 16.2271 60.9853 16.868 61.7908 16.868H62.6803C63.7034 16.868 64.414 16.2953 64.6426 16.1111L64.6725 16.0871C64.6825 16.0792 64.6909 16.0726 64.6979 16.0675C64.6979 16.0675 64.7819 16.537 64.8189 16.7688H66.0376V12.5716H64.7097Z" fill="url(#paint4_linear_1141_4363)"/>
<path fill-rule="evenodd" clip-rule="evenodd" d="M12.3478 14.679C12.3478 13.4704 13.6758 12.491 15.3128 12.491C16.9499 12.491 18.2779 13.4704 18.2779 14.679C18.2779 15.8877 16.9508 16.8671 15.3128 16.8671C13.6749 16.8671 12.3478 15.8877 12.3478 14.679ZM13.6707 14.6622C13.6707 15.4602 14.4166 16.107 15.3372 16.107C16.257 16.107 17.0037 15.4594 17.0037 14.6622C17.0037 13.8651 16.2578 13.2184 15.3372 13.2184C14.4166 13.2184 13.6707 13.8643 13.6707 14.6622Z" fill="url(#paint5_linear_1141_4363)"/>
<path fill-rule="evenodd" clip-rule="evenodd" d="M29.6391 12.491C28.002 12.491 26.6741 13.4704 26.6741 14.679C26.6741 15.8877 28.0012 16.8671 29.6391 16.8671C30.4035 16.8671 31.2543 16.6756 31.8507 16.4774C31.8507 16.4774 31.991 16.0179 32.0699 15.6122C30.9297 16.1192 30.2837 16.1123 29.7992 16.1071C29.7523 16.1066 29.7068 16.1061 29.6626 16.1061C28.8445 16.1061 28.165 15.5946 28.0239 14.921H32.584C32.5957 14.8412 32.6025 14.7605 32.6025 14.679C32.6041 13.4704 31.277 12.491 29.6391 12.491ZM28.0734 14.2305C28.2851 13.6442 28.9176 13.2184 29.6643 13.2184C30.411 13.2184 31.0427 13.6442 31.2552 14.2305H28.0734Z" fill="url(#paint6_linear_1141_4363)"/>
<path d="M58.0556 12.6346C58.3731 12.6354 58.8779 12.6917 59.2685 12.7371C59.2693 13.0957 59.2701 13.4535 59.2701 13.8114C59.2191 13.801 59.1681 13.7902 59.117 13.7795C59.0025 13.7553 58.8879 13.7312 58.7729 13.7114C58.2034 13.6131 57.5071 13.6518 57.0039 13.8643C56.8364 13.935 56.6903 14.0458 56.5401 14.1598C56.4636 14.2178 56.3862 14.2766 56.3043 14.3313L56.3051 16.8478C56.2925 16.857 56.2681 16.8654 56.2681 16.8654C56.2681 16.8654 55.4324 16.8671 54.983 16.8671C54.9822 16.7201 54.9805 13.1747 54.9805 12.6354H55.3224C55.3838 12.6352 55.4452 12.6348 55.5066 12.6344C55.67 12.6332 55.8332 12.6321 55.9968 12.6346C56.0243 12.6352 56.0515 12.6494 56.0787 12.6638C56.0914 12.6704 56.1041 12.6771 56.1169 12.6825C56.121 12.6909 56.1259 12.6993 56.1308 12.7076C56.1419 12.7267 56.153 12.7458 56.1547 12.7656C56.1711 12.9404 56.1856 13.1151 56.2008 13.2978C56.2082 13.3865 56.2157 13.477 56.2236 13.5703L56.2309 13.561C56.4292 13.3088 56.9606 12.6329 58.0556 12.6346Z" fill="url(#paint7_linear_1141_4363)"/>

<defs>
<linearGradient id="paint0_linear_1141_4363" x1="57.1252" y1="12.6331" x2="57.1252" y2="16.8674" gradientUnits="userSpaceOnUse">
<stop offset="1.11884e-07" stop-color="#268AC7"/>
<stop offset="1" stop-color="#39B6E0"/>
</linearGradient>
<linearGradient id="paint1_linear_1141_4363" x1="57.1252" y1="12.6331" x2="57.1252" y2="16.8674" gradientUnits="userSpaceOnUse">
<stop offset="1.11884e-07" stop-color="#268AC7"/>
<stop offset="1" stop-color="#39B6E0"/>
</linearGradient>
<linearGradient id="paint2_linear_1141_4363" x1="57.1252" y1="12.6331" x2="57.1252" y2="16.8674" gradientUnits="userSpaceOnUse">
<stop offset="1.11884e-07" stop-color="#268AC7"/>
<stop offset="1" stop-color="#39B6E0"/>
</linearGradient>
<linearGradient id="paint3_linear_1141_4363" x1="57.1252" y1="12.6331" x2="57.1252" y2="16.8674" gradientUnits="userSpaceOnUse">
<stop offset="1.11884e-07" stop-color="#268AC7"/>
<stop offset="1" stop-color="#39B6E0"/>
</linearGradient>
<linearGradient id="paint4_linear_1141_4363" x1="57.1252" y1="12.6331" x2="57.1252" y2="16.8674" gradientUnits="userSpaceOnUse">
<stop offset="1.11884e-07" stop-color="#268AC7"/>
<stop offset="1" stop-color="#39B6E0"/>
</linearGradient>
<linearGradient id="paint5_linear_1141_4363" x1="57.1252" y1="12.6331" x2="57.1252" y2="16.8674" gradientUnits="userSpaceOnUse">
<stop offset="1.11884e-07" stop-color="#268AC7"/>
<stop offset="1" stop-color="#39B6E0"/>
</linearGradient>
<linearGradient id="paint6_linear_1141_4363" x1="57.1252" y1="12.6331" x2="57.1252" y2="16.8674" gradientUnits="userSpaceOnUse">
<stop offset="1.11884e-07" stop-color="#268AC7"/>
<stop offset="1" stop-color="#39B6E0"/>
</linearGradient>
<linearGradient id="paint7_linear_1141_4363" x1="57.1252" y1="12.6331" x2="57.1252" y2="16.8674" gradientUnits="userSpaceOnUse">
<stop offset="1.11884e-07" stop-color="#268AC7"/>
<stop offset="1" stop-color="#39B6E0"/>
</linearGradient>
</defs>
</svg>
