<svg width="64" height="24" viewBox="0 0 64 24" fill="currentBackgroundColor" xmlns="http://www.w3.org/2000/svg">
<rect x="2" y="3" width="60" height="18" rx="2" fill="#005FF9"/>
<path d="M26.0244 13.7565H23.5255C23.9732 13.3481 24.1059 12.531 24.098 11.6314L24.0973 11.5346H24.098V10.4366H26.0244V13.7565ZM27.8739 13.7565H27.142V9.36035H22.98V11.5346H22.9807C22.9807 11.5354 22.9807 11.5361 22.9807 11.5369L22.9822 11.8365C22.9852 12.3386 22.9807 13.7482 21.9272 13.7542C21.9133 13.7542 21.7195 13.7565 21.7195 13.7565V16.0586H22.8371V14.8327H26.7558V16.0586H27.8739V14.8339V13.7565Z" fill="white"/>
<path fill-rule="evenodd" clip-rule="evenodd" d="M52.1355 14.8327H51.2068V9.36035H52.3244V13.014L55.4993 9.36035H56.428V14.8327H55.31V11.2552L52.1355 14.8327Z" fill="white"/>
<path fill-rule="evenodd" clip-rule="evenodd" d="M33.6312 13.8729C33.6143 13.8924 33.596 13.913 33.5776 13.9322C32.7055 14.8513 31.8079 14.9732 31.1275 14.9732C29.54 14.9732 28.2514 13.6839 28.2514 12.0962C28.2514 10.5088 29.54 9.21991 31.1275 9.21991C32.2522 9.21991 33.227 9.86716 33.6998 10.8092C33.7695 10.9528 34.0489 11.6057 33.9499 12.6523H29.4568C29.6675 13.3584 30.3439 13.868 31.1275 13.868C31.9474 13.8677 32.5255 13.517 32.9155 13.1484L33.6312 13.8725V13.8729ZM32.8285 11.576C32.6504 10.895 32.0055 10.3389 31.1275 10.3389C30.2494 10.3389 29.6098 10.8834 29.4407 11.576H32.8285Z" fill="white"/>
<path fill-rule="evenodd" clip-rule="evenodd" d="M36.1008 12.5546V14.8327H34.9827V9.36035H36.1008V11.4784H38.8557V9.36035H39.9734V14.8327H38.8557V12.5546H36.1008Z" fill="white"/>
<path fill-rule="evenodd" clip-rule="evenodd" d="M42.3302 11.0216H43.8426C44.8635 11.0216 45.6925 11.901 45.6925 12.9221C45.6925 13.9432 44.8635 14.8327 43.8426 14.8327H42.3302H41.2125V11.0554V9.36035H42.3302V11.0216ZM43.7092 12.0967H43.2435C43.2296 12.0967 43.2157 12.0967 43.2019 12.0975H42.3208V13.7565H43.7092C44.1673 13.7565 44.5055 13.3845 44.5055 12.9266C44.5055 12.4684 44.1673 12.0967 43.7092 12.0967Z" fill="white"/>
<path fill-rule="evenodd" clip-rule="evenodd" d="M46.5359 9.36035H50.3861V10.4366H47.6727V14.8327H46.5359V9.36035Z" fill="white"/>
<path d="M14.8049 12C14.8049 12.9953 13.9953 13.8049 13 13.8049C12.0048 13.8049 11.1951 12.9953 11.1951 12C11.1951 11.0047 12.0048 10.1951 13 10.1951C13.9953 10.1951 14.8049 11.0047 14.8049 12ZM13 6C9.69175 6 7 8.69175 7 12C7 15.3082 9.69175 18 13 18C14.212 18 15.3809 17.6392 16.3799 16.9564L16.3971 16.9444L15.5886 16.0046L15.5751 16.0136C14.806 16.5082 13.9154 16.77 13 16.77C10.3698 16.77 8.23 14.6302 8.23 12C8.23 9.36975 10.3698 7.23 13 7.23C15.6303 7.23 17.77 9.36975 17.77 12C17.77 12.3409 17.7321 12.6859 17.6575 13.0252C17.5068 13.6444 17.0733 13.8341 16.7478 13.809C16.4204 13.7824 16.0375 13.5491 16.0349 12.9784V12.513V12C16.0349 10.3264 14.6736 8.96513 13 8.96513C11.3264 8.96513 9.96513 10.3264 9.96513 12C9.96513 13.6736 11.3264 15.0349 13 15.0349C13.813 15.0349 14.5754 14.7169 15.1503 14.139C15.4844 14.6591 16.0293 14.9854 16.6491 15.0349C16.7024 15.0394 16.7568 15.0416 16.8108 15.0416C17.2469 15.0416 17.6796 14.8958 18.0284 14.6306C18.388 14.3576 18.6565 13.9627 18.805 13.4884C18.8286 13.4119 18.8721 13.2364 18.8725 13.2353L18.8736 13.2289C18.961 12.8483 19 12.4688 19 12C19 8.69175 16.3083 6 13 6" fill="#FF9E00"/>
</svg>
