<svg width="24" height="24" viewBox="0 0 24 24" xmlns="http://www.w3.org/2000/svg">
  <path d="M18.5433 2.80243L18.1126 3.4632C18.6968 3.84076 19.0803 4.49563 19.0803 5.239V19.0974C19.0803 20.2597 18.1303 21.2095 16.9681 21.2095H7.00944C5.84719 21.2095 4.89734 20.2597 4.89734 19.0974V17.1623H4.10089V19.0974C4.10089 20.6962 5.41062 22 7.00354 22H16.9681C18.5611 22 19.859 20.7022 19.8708 19.1152V5.2095C19.865 4.20655 19.334 3.3157 18.5433 2.80243Z" fill="#58595B"/>
  <path d="M7.06195 11.8112H5.18583C4.79057 11.8112 4.48968 11.9056 4.29498 12.0944C4.1003 12.2832 4 12.5487 4 12.8791C4 13.3215 4.1534 13.6696 4.46608 13.9233C4.1534 14.0885 4 14.3658 4 14.7552C4 14.9794 4.0413 15.1741 4.1239 15.3392C4.20648 15.5044 4.31858 15.646 4.47198 15.7817L4.22418 15.8054C4.17698 15.8112 4.1475 15.823 4.1298 15.8467C4.1121 15.8702 4.1003 15.9115 4.1003 15.9647V16.466C4.1003 16.5487 4.1121 16.6019 4.1416 16.6314C4.17108 16.6609 4.21828 16.6725 4.29498 16.6725H7.06195C7.16223 16.6725 7.23303 16.649 7.28023 16.6019C7.32743 16.5545 7.35103 16.472 7.35103 16.3599V15.941C7.35103 15.8289 7.32743 15.7464 7.28023 15.705C7.23303 15.6579 7.16223 15.6402 7.06195 15.6402H5.32743C5.16225 15.6402 5.02655 15.5929 4.92625 15.4927C4.82597 15.3982 4.77287 15.2685 4.77287 15.1151C4.77287 14.9912 4.80827 14.8968 4.88495 14.8319C4.96165 14.7729 5.07375 14.7375 5.22713 14.7375H7.06195C7.16223 14.7375 7.23303 14.7139 7.28023 14.6667C7.32743 14.6195 7.35103 14.5369 7.35103 14.4248V14.0413C7.35103 13.9351 7.32743 13.8525 7.28023 13.8053C7.23303 13.7581 7.16223 13.7345 7.06195 13.7345H5.31563C5.15045 13.7345 5.02065 13.6873 4.92035 13.5929C4.82007 13.4985 4.77287 13.3805 4.77287 13.2331C4.77287 13.1033 4.80827 13.003 4.88495 12.9381C4.96165 12.8732 5.08555 12.8378 5.25663 12.8378H7.06785C7.16813 12.8378 7.23893 12.8142 7.28613 12.767C7.33333 12.7198 7.35694 12.6431 7.35694 12.531V12.1062C7.35694 12 7.33333 11.9174 7.28613 11.8702C7.23893 11.8348 7.16223 11.8112 7.06195 11.8112Z" fill="#0077C0"/>
  <path d="M8.27142 9.8466C8.17702 9.6814 8.03542 9.53391 7.84074 9.40411C7.64604 9.27433 7.37466 9.12683 7.02657 8.96165L4.3245 7.6932C4.2891 7.6755 4.25372 7.6637 4.21832 7.6637C4.14162 7.6637 4.10032 7.705 4.10032 7.7876V8.57226C4.10032 8.63716 4.11212 8.68435 4.13572 8.71385C4.15932 8.74335 4.19472 8.77285 4.25372 8.79645L6.08852 9.53981L4.24782 10.2891C4.19472 10.3127 4.15342 10.3363 4.12982 10.3717C4.10622 10.4012 4.09442 10.4484 4.09442 10.5133V11.2979C4.09442 11.3805 4.13572 11.4218 4.21242 11.4218C4.24782 11.4218 4.2832 11.41 4.3186 11.3923L7.16227 10.0531C7.32156 10.1121 7.43366 10.1711 7.50446 10.2419C7.57526 10.3068 7.61066 10.4012 7.61066 10.5192C7.61066 10.6077 7.59886 10.6902 7.57526 10.7551C7.55166 10.82 7.51036 10.8908 7.46316 10.9675C7.43366 11.0088 7.42186 11.0442 7.42186 11.0737C7.42186 11.1091 7.44546 11.1386 7.49856 11.1681L7.89974 11.3982C7.94694 11.4218 7.97642 11.4336 8.00002 11.4336C8.03542 11.4336 8.07082 11.4159 8.10032 11.3746C8.30091 11.1327 8.40711 10.8318 8.40711 10.4602C8.41301 10.2124 8.36581 10.0118 8.27142 9.8466Z" fill="#0077C0"/>
  <path d="M12.3008 5.9233C12.5308 5.62832 12.643 5.19763 12.643 4.61947C12.643 4.0413 12.5308 3.61062 12.3008 3.31563C12.0706 3.02065 11.7343 2.87905 11.286 2.87905C10.8316 2.87905 10.4895 3.02655 10.2653 3.31563C10.0353 3.61062 9.92314 4.0413 9.92314 4.61947C9.92314 5.19763 10.0353 5.62832 10.2653 5.9233C10.4955 6.21829 10.8376 6.35989 11.286 6.35989C11.7343 6.36579 12.0706 6.21829 12.3008 5.9233ZM9.36864 6.55457C8.92611 6.0944 8.70782 5.45133 8.70782 4.61947C8.70782 3.78762 8.92611 3.14455 9.36864 2.68437C9.81114 2.23008 10.4483 2 11.286 2C12.1178 2 12.755 2.23008 13.1975 2.68437C13.64 3.14455 13.8583 3.78762 13.8583 4.61947C13.8583 5.45133 13.64 6.0944 13.1975 6.55457C12.755 7.01475 12.1178 7.23894 11.286 7.23894C10.4483 7.24484 9.81114 7.01475 9.36864 6.55457Z" fill="#58595B"/>
  <path d="M15.1978 7.12095C14.8438 7.03835 14.5606 6.92625 14.3423 6.77877C14.2656 6.72567 14.2303 6.67257 14.2303 6.63127C14.2303 6.60177 14.2421 6.56637 14.2656 6.52507L14.5666 6.0472C14.5961 6 14.6256 5.9705 14.661 5.9705C14.6905 5.9705 14.7258 5.9823 14.773 6.0177C14.956 6.1239 15.1625 6.20648 15.3985 6.27139C15.6345 6.33629 15.8763 6.36579 16.1123 6.36579C16.3955 6.36579 16.6078 6.31859 16.7495 6.23009C16.8851 6.1416 16.956 5.9941 16.956 5.79942C16.956 5.66372 16.9205 5.55752 16.8556 5.47493C16.7908 5.39233 16.6905 5.31563 16.5606 5.25073C16.4308 5.18583 16.2303 5.10325 15.959 4.99705C15.6461 4.87905 15.3748 4.76107 15.1565 4.63717C14.9383 4.51327 14.7553 4.35398 14.6196 4.1593C14.4781 3.9646 14.4073 3.72862 14.4073 3.44543C14.4073 2.97935 14.5783 2.61947 14.9146 2.37168C15.2686 2.1239 15.7111 2 16.2716 2C17.0031 2 17.5636 2.1357 17.953 2.41298C18.0296 2.47198 18.0651 2.51917 18.0651 2.56047C18.0651 2.58997 18.0533 2.62537 18.0296 2.66667L17.7288 3.14455C17.6993 3.19173 17.6698 3.22123 17.6345 3.22123C17.605 3.22123 17.5695 3.20353 17.5223 3.17403C17.2215 2.97935 16.8556 2.87905 16.4308 2.87905C15.9 2.87905 15.6345 3.07375 15.6345 3.45723C15.6345 3.58702 15.664 3.68732 15.7288 3.76992C15.7878 3.8525 15.8763 3.9174 15.9825 3.9764C16.0886 4.0354 16.2598 4.1062 16.4898 4.19468L16.6963 4.27728C17.0563 4.41888 17.3395 4.55457 17.546 4.67847C17.7525 4.80237 17.9116 4.95575 18.0238 5.13865C18.1358 5.32153 18.189 5.55752 18.189 5.8407C18.189 6.27139 18.0296 6.60767 17.7051 6.86135C17.3806 7.11505 16.9146 7.23894 16.307 7.23894C15.9176 7.24484 15.546 7.20354 15.1978 7.12095Z" fill="#58595B"/>
  <path d="M5.32802 3.00885H6.20117C6.71446 3.00885 6.96814 3.27435 6.96814 3.80532C6.96814 4.33629 6.71446 4.60179 6.20117 4.60179H5.32802V3.00885ZM4.15989 7.18585C4.20707 7.18585 4.24837 7.19765 4.29557 7.22125L5.31622 7.69912V5.49854H6.27788C7.54041 5.49854 8.17758 4.93217 8.17758 3.80532C8.17758 2.67257 7.54631 2.1062 6.27788 2.1062H4.43717C4.31917 2.1062 4.23657 2.1357 4.18347 2.1888C4.13039 2.2478 4.10089 2.32448 4.10089 2.43658V7.19765C4.11859 7.19175 4.14219 7.18585 4.15989 7.18585Z" fill="#58595B"/>
</svg>
