<svg width="79" height="24" viewBox="0 0 79 24" fill="currentBackgroundColor" xmlns="http://www.w3.org/2000/svg">
<path fill-rule="evenodd" clip-rule="evenodd" d="M56.6492 19.0392V17.5914C56.6492 17.5835 56.6476 17.5755 56.6428 17.5692C56.6396 17.5628 56.6333 17.558 56.6237 17.5533C56.6142 17.5485 56.6014 17.5453 56.5871 17.5437C56.5712 17.5421 56.5521 17.5405 56.5298 17.5405C56.5076 17.5405 56.4885 17.5421 56.4757 17.5437C56.4614 17.5453 56.4503 17.5485 56.4392 17.5517C56.428 17.5548 56.4201 17.5596 56.4137 17.5676C56.4073 17.5739 56.3994 17.5819 56.393 17.5898L55.7725 18.4394C55.7439 18.4776 55.7169 18.5158 55.6914 18.554C55.6659 18.5922 55.6421 18.6335 55.6166 18.6733C55.6198 18.6319 55.623 18.5922 55.6246 18.5508C55.6262 18.5094 55.6278 18.4681 55.6278 18.4267V17.5898C55.6278 17.5739 55.6182 17.5612 55.5991 17.5533C55.58 17.5453 55.545 17.5405 55.4925 17.5405C55.4687 17.5405 55.4464 17.5421 55.4305 17.5437C55.413 17.5453 55.4003 17.5485 55.3891 17.5533C55.3796 17.558 55.3716 17.5628 55.3684 17.5692C55.3653 17.5755 55.3621 17.5819 55.3621 17.5898V19.0392C55.3621 19.0472 55.3637 19.0535 55.3684 19.0599C55.3716 19.0663 55.378 19.071 55.3875 19.0758C55.3971 19.079 55.4082 19.0822 55.4241 19.0838C55.44 19.0854 55.4591 19.0869 55.4814 19.0869C55.5021 19.0869 55.518 19.0854 55.5323 19.0838C55.5466 19.0822 55.5578 19.079 55.5657 19.0758C55.5753 19.0726 55.5832 19.0679 55.588 19.0599C55.5943 19.0535 55.6007 19.0456 55.6087 19.0376L56.2212 18.1992C56.2514 18.1578 56.2801 18.118 56.3103 18.0767C56.3389 18.0353 56.366 17.994 56.3914 17.951C56.3882 17.9924 56.3851 18.0353 56.3835 18.0783C56.3819 18.1212 56.3803 18.1642 56.3803 18.2056V19.0376C56.3803 19.0456 56.3819 19.0519 56.3867 19.0583C56.3914 19.0647 56.3978 19.0694 56.4089 19.0742C56.4201 19.0774 56.4328 19.0806 56.4503 19.0822C56.4678 19.0838 56.4885 19.0854 56.5139 19.0854C56.5394 19.0854 56.5617 19.0838 56.5776 19.0822C56.5951 19.0806 56.6078 19.0774 56.6173 19.0742C56.6269 19.071 56.6333 19.0647 56.638 19.0583C56.6476 19.0535 56.6492 19.0472 56.6492 19.0392ZM55.0534 19.0376V17.5914C55.0534 17.5835 55.0518 17.5755 55.0471 17.5692C55.0423 17.5628 55.0359 17.558 55.0264 17.5533C55.0168 17.5485 55.0041 17.5453 54.9866 17.5437C54.9691 17.5421 54.9484 17.5405 54.923 17.5405C54.8959 17.5405 54.8736 17.5421 54.8577 17.5437C54.8402 17.5453 54.8275 17.5485 54.818 17.5533C54.8084 17.558 54.8021 17.5628 54.7973 17.5692C54.7925 17.5755 54.7909 17.5819 54.7909 17.5914V18.1801H54.0543V17.5914C54.0543 17.5835 54.0527 17.5755 54.0479 17.5692C54.0432 17.5628 54.0368 17.558 54.0273 17.5533C54.0177 17.5485 54.0034 17.5453 53.9875 17.5437C53.97 17.5421 53.9477 17.5405 53.9222 17.5405C53.8968 17.5405 53.8761 17.5421 53.8586 17.5437C53.8411 17.5453 53.8284 17.5485 53.8172 17.5533C53.8077 17.558 53.7997 17.5628 53.7966 17.5692C53.7934 17.5755 53.7902 17.5819 53.7902 17.5914V19.0376C53.7902 19.0456 53.7918 19.0535 53.7966 19.0599C53.7997 19.0663 53.8077 19.071 53.8172 19.0758C53.8268 19.0806 53.8411 19.0838 53.8586 19.0854C53.8761 19.0869 53.8968 19.0885 53.9222 19.0885C53.9493 19.0885 53.9716 19.0869 53.9875 19.0854C54.005 19.0838 54.0177 19.0806 54.0273 19.0758C54.0368 19.071 54.0432 19.0663 54.0479 19.0599C54.0527 19.0535 54.0543 19.0472 54.0543 19.0376V18.4028H54.7909V19.0376C54.7909 19.0456 54.7925 19.0535 54.7973 19.0599C54.8021 19.0663 54.8084 19.071 54.818 19.0758C54.8275 19.0806 54.8402 19.0838 54.8577 19.0854C54.8752 19.0869 54.8959 19.0885 54.923 19.0885C54.9484 19.0885 54.9707 19.0869 54.9866 19.0854C55.0041 19.0838 55.0168 19.0806 55.0264 19.0758C55.0359 19.071 55.0423 19.0663 55.0471 19.0599C55.0518 19.0535 55.0534 19.0472 55.0534 19.0376ZM53.5786 18.6383C53.5786 18.5858 53.5691 18.5381 53.5484 18.4935C53.5277 18.4506 53.5022 18.4124 53.4704 18.3806C53.4386 18.3487 53.402 18.3233 53.3622 18.3042C53.3225 18.2835 53.2811 18.2724 53.2381 18.2676L53.2413 18.266C53.2843 18.2533 53.3225 18.2342 53.3575 18.2119C53.3925 18.1881 53.4227 18.161 53.4466 18.1324C53.4704 18.1021 53.4895 18.0687 53.5022 18.0337C53.515 17.9971 53.5213 17.9605 53.5213 17.9208C53.5213 17.8539 53.5086 17.7967 53.4831 17.7458C53.4577 17.6964 53.4211 17.6535 53.375 17.6201C53.3288 17.5867 53.2731 17.5612 53.2079 17.5437C53.1427 17.5278 53.0711 17.5183 52.9931 17.5183C52.9406 17.5183 52.8881 17.523 52.8372 17.531C52.7863 17.5405 52.7402 17.5517 52.6956 17.5644C52.6527 17.5771 52.6145 17.593 52.5827 17.6105C52.5508 17.628 52.5286 17.6424 52.5158 17.6551C52.5031 17.6678 52.4936 17.6837 52.4888 17.7012C52.484 17.7187 52.4808 17.7442 52.4808 17.7744C52.4808 17.7919 52.4824 17.8062 52.4824 17.8189C52.484 17.8317 52.4872 17.8412 52.4904 17.8476C52.4936 17.8539 52.4983 17.8587 52.5031 17.8619C52.5079 17.8651 52.5127 17.8667 52.519 17.8667C52.5286 17.8667 52.5445 17.8587 52.5683 17.8444C52.5922 17.8301 52.6224 17.8142 52.659 17.7967C52.6956 17.7792 52.7402 17.7633 52.7911 17.7474C52.842 17.733 52.8993 17.7251 52.9645 17.7251C53.0059 17.7251 53.0456 17.7299 53.0822 17.7378C53.1188 17.7474 53.149 17.7601 53.1745 17.7776C53.2 17.7951 53.219 17.8174 53.235 17.8444C53.2509 17.8714 53.2572 17.9017 53.2572 17.9383C53.2572 17.978 53.2493 18.013 53.2334 18.0433C53.2175 18.0735 53.1936 18.099 53.1618 18.1196C53.1284 18.1403 53.0886 18.1562 53.0393 18.1674C52.9899 18.1785 52.9327 18.1833 52.8659 18.1833H52.7099C52.7004 18.1833 52.6924 18.1849 52.6861 18.1896C52.6797 18.1928 52.6749 18.1992 52.6702 18.2071C52.6654 18.2151 52.6622 18.2246 52.6606 18.2374C52.659 18.2501 52.6574 18.266 52.6574 18.2819C52.6574 18.2994 52.659 18.3153 52.6606 18.3296C52.6622 18.344 52.6654 18.3535 52.6702 18.3615C52.6749 18.3694 52.6813 18.3758 52.6861 18.379C52.6924 18.3821 52.7004 18.3837 52.7115 18.3837H52.8722C52.9486 18.3837 53.0122 18.3901 53.0663 18.4012C53.1188 18.4124 53.1634 18.4299 53.1984 18.4506C53.2318 18.4712 53.2572 18.4967 53.2731 18.5269C53.289 18.5572 53.297 18.5906 53.297 18.6287C53.297 18.6733 53.289 18.7115 53.2715 18.7449C53.2556 18.7783 53.2318 18.8053 53.2015 18.8276C53.1713 18.8499 53.1347 18.8658 53.0934 18.8769C53.0504 18.8881 53.0027 18.8944 52.9486 18.8944C52.8722 18.8944 52.8086 18.8865 52.7577 18.8722C52.7052 18.8578 52.6622 18.8403 52.6272 18.8228C52.5922 18.8053 52.5636 18.7894 52.5429 18.7751C52.5222 18.7608 52.5063 18.7528 52.4936 18.7528C52.4856 18.7528 52.4808 18.7544 52.4761 18.7576C52.4713 18.7608 52.4681 18.7672 52.4649 18.7751C52.4618 18.7831 52.4586 18.7926 52.457 18.8038C52.4554 18.8149 52.4538 18.8292 52.4538 18.8467C52.4538 18.8658 52.4554 18.8833 52.4554 18.896C52.457 18.9103 52.4586 18.9215 52.4617 18.931C52.4633 18.9406 52.4681 18.9501 52.4729 18.9581C52.4777 18.966 52.4872 18.9756 52.4983 18.9851C52.5095 18.9947 52.5286 19.0074 52.5556 19.0217C52.5827 19.036 52.6161 19.0488 52.6558 19.0615C52.6956 19.0742 52.7402 19.0838 52.7895 19.0917C52.8372 19.0997 52.8897 19.1029 52.9454 19.1029C53.044 19.1029 53.1331 19.0917 53.2111 19.071C53.2891 19.0488 53.3543 19.0185 53.4084 18.9772C53.4625 18.9358 53.5038 18.8865 53.5325 18.8292C53.5643 18.7767 53.5786 18.7115 53.5786 18.6383ZM52.2676 19.0392V17.5914C52.2676 17.5835 52.2661 17.5755 52.2613 17.5692C52.2581 17.5628 52.2501 17.558 52.2422 17.5533C52.2326 17.5485 52.2199 17.5453 52.2056 17.5437C52.1897 17.5421 52.1706 17.5405 52.1483 17.5405C52.1261 17.5405 52.107 17.5421 52.0942 17.5437C52.0799 17.5453 52.0688 17.5485 52.0576 17.5517C52.0481 17.5548 52.0386 17.5596 52.0322 17.5676C52.0258 17.5739 52.0195 17.5819 52.0115 17.5898L51.391 18.4394C51.3624 18.4776 51.3353 18.5158 51.3099 18.554C51.2844 18.5922 51.2606 18.6335 51.2351 18.6733C51.2383 18.6319 51.2415 18.5922 51.2431 18.5508C51.2447 18.5094 51.2463 18.4681 51.2463 18.4267V17.5898C51.2463 17.5739 51.2367 17.5612 51.2176 17.5533C51.1985 17.5453 51.1635 17.5405 51.111 17.5405C51.0872 17.5405 51.0649 17.5421 51.049 17.5437C51.0315 17.5453 51.0187 17.5485 51.0076 17.5533C50.9981 17.558 50.9901 17.5628 50.9869 17.5692C50.9837 17.5755 50.9806 17.5819 50.9806 17.5898V19.0392C50.9806 19.0472 50.9822 19.0535 50.9869 19.0599C50.9901 19.0663 50.9965 19.071 51.006 19.0758C51.0156 19.079 51.0267 19.0822 51.0426 19.0838C51.0585 19.0854 51.0776 19.0869 51.0999 19.0869C51.1206 19.0869 51.1365 19.0854 51.1508 19.0838C51.1651 19.0822 51.1763 19.079 51.1858 19.0758C51.1953 19.0726 51.2017 19.0679 51.2081 19.0599C51.2144 19.0535 51.2208 19.0456 51.2287 19.0376L51.8413 18.1992C51.8715 18.1578 51.9017 18.118 51.9304 18.0767C51.959 18.0353 51.9876 17.994 52.0115 17.951C52.0083 17.9924 52.0051 18.0353 52.0035 18.0783C52.002 18.1212 52.0004 18.1642 52.0004 18.2056V19.0376C52.0004 19.0456 52.002 19.0519 52.0067 19.0583C52.0115 19.0647 52.0195 19.0694 52.029 19.0742C52.0401 19.0774 52.0529 19.0806 52.0704 19.0822C52.0879 19.0838 52.1086 19.0854 52.134 19.0854C52.1595 19.0854 52.1817 19.0838 52.1976 19.0822C52.2151 19.0806 52.2279 19.0774 52.2374 19.0742C52.247 19.071 52.2533 19.0647 52.2581 19.0583C52.2661 19.0535 52.2676 19.0472 52.2676 19.0392ZM50.8183 19.0488C50.8183 19.0456 50.8183 19.0424 50.8167 19.0376C50.8151 19.0344 50.8151 19.0297 50.8135 19.0233C50.8119 19.0169 50.8103 19.0106 50.8071 19.0042C50.804 18.9979 50.8008 18.9915 50.7976 18.9835L50.6401 18.6192C50.6178 18.5715 50.5971 18.5285 50.5749 18.4919C50.5526 18.4553 50.5271 18.4235 50.5017 18.3949C50.4762 18.3662 50.4476 18.344 50.4174 18.3265C50.3871 18.309 50.3537 18.2931 50.3171 18.2803V18.2771C50.341 18.2692 50.3664 18.2596 50.3903 18.2453C50.4142 18.231 50.438 18.2119 50.4635 18.1896C50.4874 18.1658 50.5128 18.1371 50.5367 18.1005C50.5605 18.0655 50.5844 18.021 50.6067 17.9669L50.7451 17.6471C50.7499 17.6328 50.7546 17.6217 50.7578 17.6105C50.761 17.5994 50.7626 17.5898 50.7626 17.5803C50.7626 17.5755 50.761 17.5692 50.7562 17.5644C50.7531 17.5596 50.7467 17.5564 50.7371 17.5533C50.7276 17.5501 50.7149 17.5469 50.699 17.5453C50.6815 17.5437 50.6608 17.5421 50.6353 17.5421C50.6067 17.5421 50.5828 17.5437 50.5653 17.5453C50.5478 17.5469 50.5335 17.5501 50.524 17.5548C50.5144 17.5596 50.5065 17.5644 50.5017 17.5708C50.4969 17.5771 50.4921 17.5851 50.4874 17.593L50.3521 17.9271C50.3346 17.9733 50.3139 18.013 50.2933 18.0449C50.2726 18.0783 50.2487 18.1037 50.2233 18.126C50.1978 18.1467 50.1676 18.1626 50.1358 18.1721C50.1039 18.1817 50.0673 18.1865 50.0244 18.1865H49.9162V17.5787C49.9162 17.5739 49.913 17.5676 49.9083 17.5628C49.9035 17.558 49.8955 17.5533 49.8844 17.5517C49.8733 17.5485 49.8605 17.5469 49.843 17.5453C49.8271 17.5437 49.8064 17.5421 49.7842 17.5421C49.7619 17.5421 49.7412 17.5437 49.7253 17.5453C49.7078 17.5469 49.6935 17.5485 49.6839 17.5517C49.6728 17.5548 49.6648 17.558 49.6601 17.5628C49.6553 17.5676 49.6521 17.5723 49.6521 17.5787V18.1865H49.5439C49.5026 18.1865 49.466 18.1817 49.4341 18.1721C49.4023 18.1626 49.3737 18.1483 49.3482 18.1276C49.3228 18.1069 49.3005 18.0799 49.2798 18.0465C49.2607 18.013 49.2416 17.9733 49.2225 17.9271L49.0953 17.593C49.0937 17.5851 49.0889 17.5771 49.0841 17.5708C49.0778 17.5644 49.0698 17.5596 49.0571 17.5548C49.046 17.5501 49.03 17.5469 49.0109 17.5453C48.9919 17.5437 48.968 17.5421 48.9394 17.5421C48.9139 17.5421 48.8916 17.5437 48.8757 17.5453C48.8598 17.5469 48.8455 17.5501 48.8375 17.5533C48.828 17.5564 48.8216 17.5596 48.8184 17.5644C48.8153 17.5692 48.8137 17.5739 48.8137 17.5803C48.8137 17.5898 48.8153 17.601 48.8184 17.6105C48.8216 17.6217 48.8264 17.6344 48.8312 17.6471L48.9632 17.9669C48.9855 18.021 49.0094 18.0655 49.0316 18.1021C49.0555 18.1387 49.0794 18.169 49.1032 18.1928C49.1271 18.2167 49.1525 18.2358 49.178 18.2485C49.2035 18.2612 49.2289 18.2724 49.2544 18.2819V18.2851C49.2178 18.2962 49.1844 18.3121 49.1541 18.3312C49.1239 18.3503 49.0953 18.3726 49.0682 18.3997C49.0428 18.4267 49.0173 18.4585 48.9934 18.4951C48.9696 18.5317 48.9473 18.5731 48.9266 18.6224L48.7675 18.9867C48.7596 19.0026 48.7548 19.0154 48.7516 19.0265C48.7484 19.036 48.7468 19.0456 48.7468 19.0519C48.7468 19.0583 48.7484 19.0647 48.7532 19.0694C48.758 19.0742 48.7644 19.0774 48.7755 19.0822C48.785 19.0854 48.7993 19.0869 48.8168 19.0885C48.8344 19.0901 48.855 19.0917 48.8789 19.0917C48.9075 19.0917 48.9314 19.0901 48.9505 19.0885C48.9696 19.0869 48.9839 19.0838 48.9934 19.0806C49.0046 19.0774 49.0109 19.0726 49.0173 19.0663C49.0237 19.0599 49.0269 19.0535 49.03 19.0456L49.1844 18.6733C49.205 18.6256 49.2257 18.5826 49.248 18.5492C49.2703 18.5142 49.2941 18.4856 49.3228 18.4649C49.3514 18.4426 49.3816 18.4283 49.4166 18.4172C49.4516 18.4076 49.493 18.4012 49.5407 18.4012H49.6489V19.0551C49.6489 19.0599 49.6521 19.0663 49.6569 19.071C49.6632 19.0758 49.6712 19.079 49.6807 19.0838C49.6919 19.0869 49.7046 19.0885 49.7221 19.0901C49.7396 19.0917 49.7587 19.0933 49.781 19.0933C49.8032 19.0933 49.8223 19.0917 49.8398 19.0901C49.8573 19.0885 49.8701 19.0854 49.8812 19.0838C49.8923 19.0806 49.9003 19.0758 49.9051 19.071C49.9098 19.0663 49.913 19.0615 49.913 19.0551V18.4012H50.0212C50.0689 18.4012 50.1087 18.406 50.1437 18.4172C50.1787 18.4267 50.2089 18.4426 50.236 18.4649C50.263 18.4856 50.2869 18.5142 50.3092 18.5492C50.3314 18.5842 50.3521 18.6256 50.3728 18.6733L50.5271 19.0456C50.5303 19.0535 50.5351 19.0599 50.5399 19.0663C50.5446 19.0726 50.5542 19.0774 50.5637 19.0806C50.5749 19.0838 50.5892 19.0869 50.6083 19.0885C50.6274 19.0901 50.6512 19.0917 50.6815 19.0917C50.7069 19.0917 50.7276 19.0901 50.7451 19.0885C50.7626 19.0869 50.7753 19.0838 50.7849 19.0822C50.7944 19.079 50.8024 19.0742 50.8071 19.0694C50.8167 19.0615 50.8183 19.0567 50.8183 19.0488ZM47.7064 16.9089C47.7064 16.8978 47.7048 16.8898 47.7 16.8819C47.6952 16.8739 47.6889 16.8691 47.6777 16.8644C47.6666 16.8596 47.6539 16.8564 47.6379 16.8548C47.6204 16.8532 47.5998 16.8516 47.5743 16.8516C47.5504 16.8516 47.5298 16.8532 47.5154 16.8564C47.5011 16.8596 47.49 16.8628 47.482 16.8691C47.4741 16.8739 47.4693 16.8819 47.4661 16.8898C47.4629 16.8978 47.4629 16.9073 47.4629 16.9185C47.4629 16.9535 47.4582 16.9853 47.447 17.0155C47.4359 17.0457 47.42 17.0712 47.3993 17.0935C47.3786 17.1142 47.3516 17.1317 47.3213 17.1428C47.2911 17.1539 47.2561 17.1603 47.2163 17.1603C47.175 17.1603 47.14 17.1539 47.1082 17.1428C47.0763 17.1317 47.0509 17.1142 47.0286 17.0935C47.0063 17.0712 46.9904 17.0473 46.9793 17.0171C46.9682 16.9885 46.9634 16.9566 46.9634 16.9216C46.9634 16.9105 46.9618 16.8994 46.9602 16.8914C46.957 16.8835 46.9522 16.8755 46.9443 16.8707C46.9363 16.866 46.9252 16.8612 46.9093 16.858C46.895 16.8548 46.8743 16.8532 46.8488 16.8532C46.825 16.8532 46.8059 16.8548 46.7884 16.8564C46.7725 16.858 46.7581 16.8612 46.7486 16.866C46.7391 16.8707 46.7311 16.8771 46.7279 16.8835C46.7247 16.8914 46.7216 16.8994 46.7216 16.9105C46.7216 16.9789 46.7327 17.041 46.7534 17.0951C46.7741 17.1492 46.8059 17.1969 46.8456 17.2351C46.887 17.2732 46.9379 17.3019 47 17.3226C47.062 17.3432 47.132 17.3528 47.2148 17.3528C47.3038 17.3528 47.3786 17.3417 47.4407 17.3178C47.5027 17.2955 47.5536 17.2637 47.5934 17.2223C47.6332 17.1826 47.6618 17.1348 47.6809 17.0823C47.6968 17.0266 47.7064 16.9694 47.7064 16.9089ZM47.8464 19.0392V17.5914C47.8464 17.5835 47.8448 17.5755 47.84 17.5692C47.8368 17.5628 47.8305 17.558 47.8209 17.5533C47.8114 17.5485 47.7986 17.5453 47.7843 17.5437C47.7684 17.5421 47.7493 17.5405 47.727 17.5405C47.7048 17.5405 47.6857 17.5421 47.6729 17.5437C47.6586 17.5453 47.6475 17.5485 47.6364 17.5517C47.6252 17.5548 47.6173 17.5596 47.6109 17.5676C47.6045 17.5739 47.5982 17.5819 47.5902 17.5898L46.9697 18.4394C46.9411 18.4776 46.9141 18.5158 46.8886 18.554C46.8631 18.5922 46.8393 18.6335 46.8138 18.6733C46.817 18.6319 46.8202 18.5922 46.8218 18.5508C46.8234 18.5094 46.825 18.4681 46.825 18.4267V17.5898C46.825 17.5739 46.8154 17.5612 46.7963 17.5533C46.7772 17.5453 46.7422 17.5405 46.6897 17.5405C46.6659 17.5405 46.6436 17.5421 46.6277 17.5437C46.6102 17.5453 46.5975 17.5485 46.5863 17.5533C46.5768 17.558 46.5688 17.5628 46.5656 17.5692C46.5625 17.5755 46.5609 17.5819 46.5609 17.5898V19.0392C46.5609 19.0472 46.5625 19.0535 46.5656 19.0599C46.5688 19.0663 46.5752 19.071 46.5847 19.0758C46.5943 19.079 46.6054 19.0822 46.6213 19.0838C46.6372 19.0854 46.6547 19.0869 46.6786 19.0869C46.6993 19.0869 46.7152 19.0854 46.7295 19.0838C46.7438 19.0822 46.755 19.079 46.7645 19.0758C46.7741 19.0726 46.7804 19.0679 46.7868 19.0599C46.7931 19.0535 46.7995 19.0456 46.8075 19.0376L47.42 18.1992C47.4502 18.1578 47.4788 18.118 47.5091 18.0767C47.5393 18.0353 47.5664 17.994 47.5902 17.951C47.587 17.9924 47.5839 18.0353 47.5823 18.0783C47.5807 18.1212 47.5791 18.1642 47.5791 18.2056V19.0376C47.5791 19.0456 47.5807 19.0519 47.5854 19.0583C47.5902 19.0647 47.5966 19.0694 47.6077 19.0742C47.6189 19.0774 47.6316 19.0806 47.6491 19.0822C47.6666 19.0838 47.6873 19.0854 47.7127 19.0854C47.7382 19.0854 47.7605 19.0838 47.7764 19.0822C47.7939 19.0806 47.8066 19.0774 47.8161 19.0742C47.8257 19.071 47.832 19.0647 47.8368 19.0583C47.8448 19.0535 47.8464 19.0472 47.8464 19.0392ZM46.074 18.1737H45.2865C45.2881 18.1149 45.2992 18.0592 45.3167 18.0035C45.3358 17.9494 45.3613 17.9017 45.3947 17.8603C45.4281 17.8189 45.4695 17.7871 45.5188 17.7633C45.5681 17.7378 45.6254 17.7267 45.6922 17.7267C45.8195 17.7267 45.9165 17.7664 45.9818 17.846C46.0454 17.924 46.0772 18.0337 46.074 18.1737ZM46.3397 18.2517V18.204C46.3397 18.1101 46.327 18.021 46.3031 17.9383C46.2793 17.8555 46.2411 17.7824 46.1902 17.7219C46.1393 17.6599 46.0724 17.6105 45.9929 17.5755C45.9133 17.5405 45.8163 17.5214 45.7033 17.5214C45.5967 17.5214 45.5013 17.5405 45.417 17.5771C45.3311 17.6137 45.2579 17.6678 45.1974 17.7362C45.137 17.8046 45.0908 17.889 45.059 17.9892C45.0272 18.0878 45.0113 18.1992 45.0113 18.3249C45.0113 18.4553 45.0272 18.5699 45.0574 18.6685C45.0876 18.7672 45.1338 18.8499 45.1942 18.9151C45.2563 18.9804 45.3311 19.0297 45.4201 19.0631C45.5092 19.0965 45.6126 19.1124 45.732 19.1124C45.8004 19.1124 45.8656 19.1076 45.9245 19.0981C45.9849 19.0885 46.0374 19.0758 46.0836 19.0631C46.1297 19.0504 46.1679 19.0376 46.1965 19.0233C46.2252 19.009 46.2427 18.9994 46.249 18.9947C46.2554 18.9883 46.2602 18.9819 46.2634 18.9756C46.2665 18.9692 46.2697 18.9613 46.2713 18.9533C46.2729 18.9453 46.2745 18.9358 46.2745 18.9263C46.2761 18.9167 46.2761 18.904 46.2761 18.8897C46.2761 18.8706 46.2745 18.8547 46.2729 18.8403C46.2713 18.826 46.2697 18.8165 46.2665 18.8085C46.2634 18.8006 46.2586 18.7958 46.2522 18.791C46.2459 18.7878 46.2395 18.7863 46.2315 18.7863C46.2188 18.7863 46.1997 18.791 46.1743 18.8038C46.1488 18.8149 46.117 18.8276 46.0772 18.8419C46.0374 18.8563 45.9913 18.869 45.9372 18.8801C45.8831 18.8913 45.8227 18.8976 45.7542 18.8976C45.6667 18.8976 45.5936 18.8849 45.5331 18.861C45.4726 18.8356 45.4249 18.8006 45.3867 18.7544C45.3485 18.7083 45.3215 18.6526 45.3056 18.589C45.2897 18.5253 45.2817 18.4522 45.2817 18.371H46.2331C46.2602 18.371 46.284 18.3631 46.3047 18.344C46.3286 18.3233 46.3397 18.2946 46.3397 18.2517ZM44.7965 18.9851V17.5914C44.7965 17.5835 44.7949 17.5755 44.7901 17.5692C44.7853 17.5628 44.779 17.558 44.7678 17.5533C44.7567 17.5485 44.744 17.5453 44.7265 17.5437C44.709 17.5421 44.6883 17.5405 44.6613 17.5405C44.6358 17.5405 44.6151 17.5421 44.5976 17.5437C44.5817 17.5453 44.5674 17.5485 44.5578 17.5533C44.5483 17.558 44.5403 17.5628 44.5372 17.5692C44.534 17.5755 44.5308 17.5819 44.5308 17.5914V18.8499H43.9724V17.5914C43.9724 17.5835 43.9692 17.5755 43.966 17.5692C43.9612 17.5628 43.9549 17.558 43.9453 17.5533C43.9358 17.5485 43.923 17.5453 43.9055 17.5437C43.888 17.5421 43.8674 17.5405 43.8435 17.5405C43.8165 17.5405 43.7958 17.5421 43.7799 17.5437C43.7639 17.5453 43.7512 17.5485 43.7417 17.5533C43.7321 17.558 43.7258 17.5628 43.721 17.5692C43.7178 17.5755 43.7162 17.5819 43.7162 17.5914V18.8499H43.1594V17.5914C43.1594 17.5835 43.1578 17.5755 43.153 17.5692C43.1483 17.5628 43.1419 17.558 43.1323 17.5533C43.1228 17.5485 43.1101 17.5453 43.0926 17.5437C43.0751 17.5421 43.0544 17.5405 43.0289 17.5405C43.0035 17.5405 42.9812 17.5421 42.9653 17.5437C42.9478 17.5453 42.9351 17.5485 42.9239 17.5533C42.9128 17.558 42.9064 17.5628 42.9032 17.5692C42.9001 17.5755 42.8969 17.5819 42.8969 17.5914V18.9851C42.8969 19.0169 42.9048 19.0392 42.9192 19.0551C42.9335 19.071 42.9541 19.079 42.9796 19.079H44.7185C44.7424 19.079 44.7631 19.071 44.7774 19.0551C44.7901 19.0392 44.7965 19.0169 44.7965 18.9851ZM42.3257 18.379V18.686C42.2605 18.7592 42.1984 18.8133 42.1396 18.8483C42.0807 18.8833 42.0155 18.9024 41.9471 18.9024C41.8612 18.9024 41.7943 18.8801 41.7482 18.8356C41.7005 18.791 41.6766 18.7322 41.6766 18.6558C41.6766 18.6112 41.6846 18.5731 41.7021 18.5397C41.718 18.5062 41.745 18.4776 41.78 18.4537C41.815 18.4299 41.8596 18.4108 41.9137 18.3997C41.9678 18.3869 42.0298 18.3806 42.103 18.3806H42.3257V18.379ZM42.5882 19.0392V18.064C42.5882 17.9733 42.5771 17.8953 42.558 17.8285C42.5373 17.7617 42.5055 17.7044 42.461 17.6583C42.4164 17.6121 42.3575 17.5787 42.2844 17.5548C42.2112 17.531 42.1237 17.5198 42.0203 17.5198C41.9646 17.5198 41.9105 17.5246 41.8548 17.5342C41.8007 17.5437 41.7498 17.558 41.7037 17.5723C41.6575 17.5883 41.6161 17.6058 41.5811 17.6233C41.5461 17.6424 41.5207 17.6583 41.5064 17.6726C41.4921 17.6869 41.4825 17.7012 41.4793 17.7171C41.4761 17.733 41.473 17.7537 41.473 17.7808C41.473 17.7967 41.4746 17.811 41.4761 17.8253C41.4777 17.838 41.4825 17.8492 41.4873 17.8587C41.4921 17.8667 41.4984 17.873 41.5048 17.8778C41.5111 17.8826 41.5191 17.8842 41.5271 17.8842C41.5398 17.8842 41.5589 17.8762 41.5859 17.8603C41.6114 17.8444 41.6448 17.8269 41.683 17.8094C41.7211 17.7903 41.7673 17.7728 41.8198 17.7585C41.8723 17.7426 41.9296 17.7346 41.9948 17.7346C42.0553 17.7346 42.1078 17.741 42.1491 17.7569C42.1905 17.7712 42.2255 17.7935 42.2509 17.8205C42.278 17.8492 42.2955 17.8842 42.3082 17.9271C42.3209 17.9701 42.3257 18.0194 42.3257 18.0751V18.1881H42.1269C42.0139 18.1881 41.9137 18.1976 41.8246 18.2183C41.7355 18.2374 41.6591 18.2676 41.5971 18.3074C41.535 18.3471 41.4873 18.3965 41.4539 18.4569C41.4205 18.5174 41.4046 18.5874 41.4046 18.6685C41.4046 18.7385 41.4173 18.8006 41.4411 18.8547C41.465 18.9088 41.4984 18.9549 41.543 18.9931C41.5859 19.0313 41.6384 19.0599 41.7005 19.079C41.7625 19.0997 41.8309 19.1092 41.9073 19.1092C41.9932 19.1092 42.0759 19.0901 42.1539 19.0535C42.2319 19.0154 42.3019 18.9629 42.3639 18.896V19.0408C42.3639 19.0535 42.3671 19.0631 42.375 19.0694C42.383 19.0758 42.3941 19.0806 42.4116 19.0838C42.4275 19.0869 42.4498 19.0885 42.4785 19.0885C42.5071 19.0885 42.5294 19.0869 42.5437 19.0838C42.5596 19.0806 42.5707 19.0758 42.5787 19.0694C42.5835 19.0631 42.5882 19.0519 42.5882 19.0392ZM41.0211 18.6272C41.0211 18.6685 41.0132 18.7067 40.9989 18.7401C40.9845 18.7735 40.9607 18.8022 40.9273 18.826C40.8954 18.8499 40.8541 18.8674 40.8048 18.8801C40.7554 18.8928 40.6966 18.8992 40.6266 18.8992C40.6075 18.8992 40.5868 18.8992 40.5629 18.8976C40.5407 18.896 40.5168 18.8944 40.4945 18.8928C40.4722 18.8913 40.4484 18.8897 40.4277 18.8881C40.4054 18.8865 40.3847 18.8833 40.3641 18.8801V18.3678H40.6218C40.6918 18.3678 40.7507 18.3726 40.8016 18.3837C40.8525 18.3949 40.8939 18.4108 40.9273 18.4315C40.9591 18.4522 40.9845 18.4792 40.9989 18.5126C41.0148 18.546 41.0211 18.5842 41.0211 18.6272ZM40.9734 17.9494C40.9734 18.0258 40.9448 18.0862 40.8859 18.1276C40.827 18.169 40.7427 18.1896 40.6329 18.1896H40.3641V17.7394C40.3927 17.7362 40.4277 17.733 40.4707 17.7299C40.512 17.7267 40.5582 17.7251 40.6091 17.7251C40.6759 17.7251 40.7316 17.7299 40.7777 17.7394C40.8239 17.7489 40.862 17.7633 40.8923 17.7824C40.9209 17.8014 40.9432 17.8253 40.9559 17.8524C40.967 17.8826 40.9734 17.9144 40.9734 17.9494ZM41.2932 18.6224C41.2932 18.5253 41.2661 18.4442 41.212 18.379C41.1595 18.3153 41.0784 18.2708 40.9734 18.2485C41.0577 18.2246 41.1214 18.1817 41.1659 18.1244C41.2089 18.0671 41.2311 17.9971 41.2311 17.916C41.2311 17.8539 41.2184 17.7983 41.1945 17.7505C41.1707 17.7028 41.1341 17.6614 41.0832 17.628C41.0323 17.5946 40.9702 17.5692 40.8939 17.5533C40.8175 17.5358 40.7284 17.5278 40.625 17.5278C40.5884 17.5278 40.5534 17.5278 40.5184 17.5294C40.4834 17.531 40.4484 17.531 40.4166 17.5326C40.3832 17.5342 40.3513 17.5358 40.3195 17.5389C40.2877 17.5405 40.2591 17.5437 40.2304 17.5469C40.1891 17.5517 40.1588 17.5644 40.1397 17.5883C40.1206 17.6121 40.1095 17.6455 40.1095 17.6885V18.9342C40.1095 18.9788 40.1191 19.0138 40.1397 19.036C40.1604 19.0583 40.1922 19.0726 40.2352 19.079C40.2654 19.0822 40.2957 19.0854 40.3259 19.0869C40.3561 19.0885 40.3879 19.0917 40.4182 19.0933C40.45 19.0949 40.4818 19.0965 40.5152 19.0965C40.5486 19.0965 40.582 19.0965 40.6186 19.0965C40.73 19.0965 40.8286 19.0854 40.9145 19.0647C40.9989 19.044 41.0689 19.0138 41.1261 18.9724C41.1834 18.9326 41.2264 18.8817 41.255 18.8228C41.2773 18.7656 41.2932 18.6988 41.2932 18.6224ZM38.789 17.7458V18.2342H38.571C38.4883 18.2342 38.4247 18.2278 38.3785 18.2167C38.3324 18.2056 38.2942 18.1896 38.2656 18.169C38.2369 18.1483 38.2147 18.1228 38.2004 18.0926C38.186 18.0624 38.1781 18.0274 38.1781 17.9892C38.1781 17.951 38.1844 17.9176 38.1972 17.8858C38.2099 17.8539 38.2306 17.8285 38.2592 17.8046C38.2879 17.7824 38.3276 17.7633 38.3769 17.7505C38.4263 17.7378 38.4867 17.733 38.5583 17.733C38.5917 17.733 38.6299 17.733 38.6713 17.7346C38.7111 17.7362 38.7508 17.741 38.789 17.7458ZM39.0531 19.0376V17.663C39.0531 17.6328 39.0452 17.6074 39.0292 17.5883C39.0133 17.5676 38.9895 17.5564 38.9576 17.5533C38.9338 17.5517 38.9036 17.5485 38.8701 17.5453C38.8367 17.5421 38.8017 17.5405 38.7667 17.5373C38.7301 17.5358 38.6967 17.5342 38.6617 17.5326C38.6283 17.531 38.5981 17.531 38.5726 17.531C38.4676 17.531 38.3738 17.5421 38.291 17.5628C38.2099 17.5835 38.1399 17.6137 38.0842 17.6535C38.0285 17.6933 37.9856 17.7394 37.9569 17.7967C37.9283 17.8539 37.914 17.916 37.914 17.986C37.914 18.091 37.9442 18.1753 38.0063 18.239C38.0683 18.3026 38.151 18.344 38.2544 18.3631C38.1972 18.3869 38.1479 18.4235 38.1033 18.4728C38.0603 18.5222 38.0222 18.5826 37.9935 18.651L37.8774 18.9231C37.8599 18.9644 37.8472 18.9947 37.8408 19.0106C37.8344 19.0281 37.8328 19.0392 37.8328 19.0472C37.8328 19.0551 37.836 19.0631 37.8408 19.0694C37.8456 19.0758 37.8535 19.0806 37.8647 19.0822C37.8758 19.0854 37.8885 19.0869 37.9044 19.0885C37.9203 19.0901 37.9378 19.0901 37.9585 19.0901C37.9872 19.0901 38.0094 19.0885 38.0285 19.0869C38.0476 19.0854 38.0619 19.0822 38.0747 19.0774C38.0874 19.0726 38.0969 19.0663 38.1033 19.0567C38.1097 19.0472 38.116 19.0376 38.1208 19.0233L38.2385 18.7401C38.2592 18.6828 38.2815 18.6351 38.3054 18.5969C38.3292 18.5587 38.3547 18.5253 38.3849 18.4999C38.4135 18.4744 38.447 18.4569 38.4851 18.4458C38.5217 18.4347 38.5726 18.4299 38.6395 18.4299H38.7922V19.0392C38.7922 19.0472 38.7938 19.0551 38.7986 19.0615C38.8017 19.0679 38.8097 19.0726 38.8192 19.0774C38.8304 19.0806 38.8431 19.0838 38.8606 19.0854C38.8781 19.0869 38.8988 19.0885 38.9242 19.0885C38.9513 19.0885 38.9751 19.0869 38.9911 19.0854C39.0086 19.0838 39.0213 19.0806 39.0308 19.0774C39.0404 19.0742 39.0467 19.0679 39.0515 19.0615C39.0515 19.0535 39.0531 19.0472 39.0531 19.0376ZM37.6753 19.0376V17.6455C37.6753 17.6137 37.669 17.5898 37.6531 17.5739C37.6387 17.558 37.6181 17.5501 37.5926 17.5501H36.8512C36.8274 17.5501 36.8083 17.558 36.7939 17.5739C36.7812 17.5898 36.7733 17.6137 36.7701 17.6455C36.7542 17.8014 36.7367 17.9399 36.7192 18.0608C36.7001 18.1817 36.681 18.2867 36.6619 18.3758C36.6412 18.4665 36.6189 18.5412 36.5951 18.6033C36.5712 18.6653 36.5442 18.7147 36.5171 18.7528C36.4901 18.791 36.4598 18.8181 36.428 18.8356C36.3962 18.8515 36.3628 18.861 36.3262 18.861C36.3182 18.861 36.3103 18.8626 36.3039 18.8658C36.2976 18.869 36.2928 18.8753 36.2896 18.8849C36.2864 18.8944 36.2832 18.9072 36.2817 18.9231C36.2801 18.939 36.2801 18.9597 36.2801 18.9867C36.2801 19.0106 36.2817 19.0313 36.2832 19.0472C36.2848 19.0631 36.288 19.0742 36.2928 19.0838C36.2976 19.0917 36.3023 19.0981 36.3103 19.1013C36.3167 19.1044 36.3262 19.106 36.3357 19.106C36.3946 19.106 36.4503 19.0965 36.5012 19.079C36.5537 19.0615 36.6014 19.0313 36.646 18.9899C36.6905 18.9485 36.7303 18.8944 36.7685 18.8276C36.8051 18.7592 36.8401 18.6765 36.8687 18.5778C36.8989 18.4792 36.926 18.3631 36.9499 18.231C36.9737 18.0974 36.9944 17.9462 37.0119 17.776H37.4096V19.0392C37.4096 19.0472 37.4112 19.0551 37.416 19.0615C37.4208 19.0679 37.4271 19.0726 37.4383 19.0774C37.4478 19.0822 37.4621 19.0854 37.4796 19.0869C37.4971 19.0885 37.5194 19.0901 37.5449 19.0901C37.5703 19.0901 37.5926 19.0885 37.6085 19.0869C37.626 19.0854 37.6387 19.0822 37.6483 19.0774C37.6578 19.0726 37.6642 19.0679 37.669 19.0615C37.6737 19.0535 37.6753 19.0472 37.6753 19.0376ZM35.8489 17.768V18.8531H35.0662C35.098 18.8133 35.1298 18.7672 35.1584 18.7163C35.1887 18.6637 35.2173 18.5969 35.2443 18.5142C35.2714 18.4315 35.2968 18.3312 35.3207 18.2103C35.3446 18.091 35.3684 17.943 35.3907 17.768H35.8489ZM34.853 19.5642V19.079H36.1528V19.5642C36.1528 19.5722 36.1544 19.5786 36.1591 19.5833C36.1623 19.5881 36.1687 19.5913 36.1782 19.5945C36.1878 19.5976 36.1989 19.6008 36.2132 19.6024C36.2276 19.604 36.2451 19.6056 36.2657 19.6056C36.2864 19.6056 36.3039 19.604 36.3182 19.6024C36.3326 19.6008 36.3453 19.5976 36.3548 19.5945C36.3644 19.5913 36.3707 19.5881 36.3739 19.5833C36.3771 19.5786 36.3787 19.5722 36.3787 19.5642V18.9199C36.3787 18.8928 36.3739 18.8753 36.3644 18.8674C36.3548 18.8594 36.3389 18.8547 36.3167 18.8547H36.1162V17.6455C36.1162 17.6137 36.1098 17.5898 36.0955 17.5739C36.0812 17.558 36.0605 17.5501 36.035 17.5501H35.2332C35.2205 17.5501 35.2093 17.5517 35.1998 17.5564C35.1903 17.5612 35.1823 17.566 35.1743 17.5723C35.1664 17.5787 35.1616 17.5883 35.1584 17.601C35.1552 17.6137 35.1521 17.6264 35.1489 17.6424C35.1282 17.8253 35.1059 17.9828 35.0821 18.1149C35.0566 18.2469 35.0312 18.3599 35.0009 18.4537C34.9707 18.5476 34.9389 18.6256 34.9055 18.6876C34.8705 18.7497 34.8339 18.8053 34.7941 18.8531H34.6923C34.6668 18.8531 34.6509 18.8578 34.643 18.8658C34.635 18.8753 34.6302 18.8928 34.6302 18.9183V19.5626C34.6302 19.5706 34.6318 19.577 34.6366 19.5817C34.6398 19.5865 34.6461 19.5897 34.6557 19.5929C34.6652 19.5961 34.6764 19.5992 34.6907 19.6008C34.705 19.6024 34.7241 19.604 34.7464 19.604C34.7671 19.604 34.7846 19.6024 34.7973 19.6008C34.8116 19.5992 34.8227 19.5961 34.8323 19.5929C34.8418 19.5897 34.8482 19.5865 34.8514 19.5817C34.8514 19.577 34.853 19.5706 34.853 19.5642ZM33.927 19.0488C33.927 19.0456 33.927 19.0424 33.9254 19.0376C33.9254 19.0344 33.9238 19.0297 33.9223 19.0233C33.9207 19.0169 33.9191 19.0106 33.9175 19.0042C33.9159 18.9979 33.9127 18.9915 33.9079 18.9835L33.7488 18.6176C33.7282 18.5699 33.7059 18.5269 33.6836 18.4903C33.6597 18.4537 33.6343 18.4219 33.6072 18.3949C33.5802 18.3678 33.55 18.3456 33.5197 18.3281C33.4879 18.3106 33.4529 18.2946 33.4163 18.2819V18.2787C33.4402 18.2708 33.4672 18.2612 33.4943 18.2469C33.5213 18.2342 33.5468 18.2151 33.5722 18.1912C33.5977 18.1674 33.6231 18.1371 33.6486 18.1005C33.6741 18.064 33.6963 18.0194 33.7186 17.9653L33.857 17.6471C33.8618 17.6328 33.8666 17.6217 33.8698 17.6105C33.8729 17.5994 33.8729 17.5898 33.8729 17.5803C33.8729 17.5755 33.8713 17.5692 33.8682 17.5644C33.865 17.5596 33.8586 17.5564 33.8491 17.5533C33.8395 17.5501 33.8268 17.5469 33.8109 17.5453C33.795 17.5437 33.7727 17.5421 33.7472 17.5421C33.7186 17.5421 33.6947 17.5437 33.6772 17.5453C33.6597 17.5469 33.6454 17.5501 33.6343 17.5548C33.6231 17.5596 33.6152 17.5644 33.6104 17.5708C33.6056 17.5771 33.6009 17.5851 33.5993 17.593L33.4641 17.9255C33.4466 17.9733 33.4259 18.013 33.4036 18.0465C33.3813 18.0799 33.3559 18.1069 33.3288 18.1276C33.3002 18.1483 33.27 18.1626 33.2365 18.1721C33.2031 18.1817 33.165 18.1865 33.1252 18.1865H33.0122V17.5803C33.0122 17.5755 33.009 17.5692 33.0043 17.5644C32.9995 17.5596 32.9915 17.5564 32.9804 17.5533C32.9693 17.5501 32.9565 17.5469 32.939 17.5453C32.9215 17.5437 32.9024 17.5421 32.8802 17.5421C32.8579 17.5421 32.8372 17.5437 32.8213 17.5453C32.8038 17.5469 32.7895 17.5501 32.7799 17.5533C32.7688 17.5564 32.7624 17.5596 32.7561 17.5644C32.7513 17.5692 32.7481 17.5739 32.7481 17.5803V19.0488C32.7481 19.0535 32.7513 19.0599 32.7561 19.0647C32.7608 19.0694 32.7688 19.0742 32.7799 19.0774C32.7911 19.0806 32.8038 19.0838 32.8213 19.0854C32.8388 19.0869 32.8579 19.0885 32.8802 19.0885C32.9024 19.0885 32.9231 19.0869 32.939 19.0854C32.9565 19.0838 32.9709 19.0806 32.9804 19.0774C32.9915 19.0742 32.9995 19.0694 33.0043 19.0647C33.009 19.0599 33.0122 19.0535 33.0122 19.0488V18.3981H33.1252C33.1729 18.3981 33.2143 18.4028 33.2493 18.4124C33.2859 18.4219 33.3177 18.4378 33.3479 18.4585C33.3765 18.4808 33.402 18.5078 33.4243 18.5428C33.4466 18.5778 33.4672 18.6192 33.4863 18.6669L33.6407 19.0408C33.6422 19.0488 33.647 19.0551 33.6518 19.0615C33.6566 19.0679 33.6661 19.0726 33.6772 19.0758C33.6884 19.079 33.7043 19.0822 33.7234 19.0838C33.7425 19.0854 33.7663 19.0869 33.7966 19.0869C33.822 19.0869 33.8427 19.0854 33.8602 19.0838C33.8761 19.0822 33.8904 19.079 33.9 19.0774C33.9095 19.0742 33.9175 19.0694 33.9207 19.0647C33.9254 19.0615 33.927 19.0567 33.927 19.0488ZM32.4395 19.0376V17.5914C32.4395 17.5835 32.4379 17.5755 32.4331 17.5692C32.4283 17.5628 32.422 17.558 32.4124 17.5533C32.4029 17.5485 32.3886 17.5453 32.3727 17.5437C32.3552 17.5421 32.3345 17.5405 32.309 17.5405C32.282 17.5405 32.2597 17.5421 32.2438 17.5437C32.2263 17.5453 32.2136 17.5485 32.204 17.5533C32.1945 17.558 32.1865 17.5628 32.1833 17.5692C32.1786 17.5755 32.177 17.5819 32.177 17.5914V18.1801H31.4403V17.5914C31.4403 17.5835 31.4388 17.5755 31.434 17.5692C31.4292 17.5628 31.4228 17.558 31.4133 17.5533C31.4038 17.5485 31.3894 17.5453 31.3735 17.5437C31.356 17.5421 31.3338 17.5405 31.3083 17.5405C31.2828 17.5405 31.2606 17.5421 31.2447 17.5437C31.2272 17.5453 31.2144 17.5485 31.2033 17.5533C31.1937 17.558 31.1858 17.5628 31.1826 17.5692C31.1794 17.5755 31.1762 17.5819 31.1762 17.5914V19.0376C31.1762 19.0456 31.1778 19.0535 31.1826 19.0599C31.1858 19.0663 31.1937 19.071 31.2033 19.0758C31.2128 19.0806 31.2272 19.0838 31.2447 19.0854C31.2622 19.0869 31.2828 19.0885 31.3083 19.0885C31.3353 19.0885 31.356 19.0869 31.3735 19.0854C31.391 19.0838 31.4038 19.0806 31.4133 19.0758C31.4228 19.071 31.4292 19.0663 31.434 19.0599C31.4388 19.0535 31.4403 19.0472 31.4403 19.0376V18.4028H32.177V19.0376C32.177 19.0456 32.1786 19.0535 32.1833 19.0599C32.1881 19.0663 32.1945 19.071 32.204 19.0758C32.2136 19.0806 32.2263 19.0838 32.2438 19.0854C32.2613 19.0869 32.282 19.0885 32.309 19.0885C32.3345 19.0885 32.3567 19.0869 32.3727 19.0854C32.3902 19.0838 32.4029 19.0806 32.4124 19.0758C32.422 19.071 32.4283 19.0663 32.4331 19.0599C32.4379 19.0535 32.4395 19.0472 32.4395 19.0376ZM30.6035 18.379V18.686C30.5383 18.7592 30.4762 18.8133 30.4174 18.8483C30.3585 18.8833 30.2933 18.9024 30.2249 18.9024C30.1389 18.9024 30.0721 18.8801 30.026 18.8356C29.9783 18.791 29.9544 18.7322 29.9544 18.6558C29.9544 18.6112 29.9623 18.5731 29.9783 18.5397C29.9958 18.5062 30.0212 18.4776 30.0562 18.4537C30.0912 18.4299 30.1358 18.4108 30.1899 18.3997C30.2439 18.3869 30.306 18.3806 30.3792 18.3806H30.6035V18.379ZM30.8676 19.0392V18.064C30.8676 17.9733 30.8565 17.8953 30.8374 17.8285C30.8167 17.7617 30.7849 17.7044 30.7403 17.6583C30.6958 17.6121 30.6369 17.5787 30.5637 17.5548C30.4905 17.531 30.403 17.5198 30.2996 17.5198C30.2439 17.5198 30.1883 17.5246 30.1342 17.5342C30.0801 17.5437 30.0292 17.558 29.983 17.5723C29.9369 17.5883 29.8955 17.6058 29.8605 17.6233C29.8255 17.6424 29.8001 17.6583 29.7857 17.6726C29.7714 17.6869 29.7619 17.7012 29.7587 17.7171C29.7555 17.733 29.7523 17.7537 29.7523 17.7808C29.7523 17.7967 29.7539 17.811 29.7555 17.8253C29.7571 17.838 29.7619 17.8492 29.7667 17.8587C29.7714 17.8667 29.7778 17.873 29.7842 17.8778C29.7905 17.8826 29.7985 17.8842 29.8064 17.8842C29.8192 17.8842 29.8382 17.8762 29.8653 17.8603C29.8907 17.8444 29.9242 17.8269 29.9623 17.8094C30.0005 17.7903 30.0467 17.7728 30.0992 17.7585C30.1517 17.7426 30.2089 17.7346 30.2742 17.7346C30.3346 17.7346 30.3871 17.741 30.4285 17.7569C30.4699 17.7712 30.5049 17.7935 30.5303 17.8205C30.5574 17.8492 30.5749 17.8842 30.5876 17.9271C30.6003 17.9701 30.6051 18.0194 30.6051 18.0751V18.1881H30.4062C30.2933 18.1881 30.193 18.1976 30.1039 18.2183C30.0148 18.2374 29.9385 18.2676 29.8764 18.3074C29.8144 18.3471 29.7667 18.3965 29.7332 18.4569C29.6998 18.5174 29.6839 18.5874 29.6839 18.6685C29.6839 18.7385 29.6967 18.8006 29.7205 18.8547C29.7444 18.9088 29.7778 18.9549 29.8223 18.9931C29.8653 19.0313 29.9178 19.0599 29.9798 19.079C30.0419 19.0997 30.1103 19.1092 30.1867 19.1092C30.2726 19.1092 30.3553 19.0901 30.4333 19.0535C30.5112 19.0154 30.5812 18.9629 30.6449 18.896V19.0408C30.6449 19.0535 30.648 19.0631 30.656 19.0694C30.664 19.0758 30.6751 19.0806 30.6926 19.0838C30.7085 19.0869 30.7308 19.0885 30.7594 19.0885C30.7881 19.0885 30.8103 19.0869 30.8246 19.0838C30.8406 19.0806 30.8517 19.0758 30.8596 19.0694C30.8628 19.0631 30.8676 19.0519 30.8676 19.0392ZM29.2814 18.3153C29.2814 18.4012 29.2719 18.4808 29.2528 18.5508C29.2337 18.6208 29.205 18.6812 29.1685 18.7306C29.1319 18.7799 29.0857 18.8181 29.0316 18.8451C28.9775 18.8722 28.9155 18.8865 28.8455 18.8865C28.7659 18.8865 28.6991 18.8722 28.645 18.8419C28.5909 18.8117 28.5464 18.7672 28.513 18.7083C28.4796 18.6494 28.4557 18.5762 28.4414 18.4887C28.4271 18.4012 28.4207 18.2994 28.4207 18.1833V18.1149C28.4207 18.0926 28.4207 18.0719 28.4223 18.056C28.4652 18.0099 28.505 17.9701 28.5432 17.9367C28.5798 17.9033 28.618 17.8746 28.6546 17.8524C28.6928 17.8301 28.7309 17.8126 28.7691 17.8014C28.8073 17.7903 28.8503 17.7839 28.8948 17.7839C28.968 17.7839 29.0284 17.7983 29.0778 17.8285C29.1271 17.8587 29.1669 17.8969 29.1971 17.9462C29.2257 17.9955 29.248 18.0512 29.2607 18.1165C29.275 18.1769 29.2814 18.2437 29.2814 18.3153ZM29.5551 18.2915C29.5551 18.1833 29.5423 18.0846 29.5169 17.994C29.4914 17.9033 29.4532 17.8269 29.4023 17.7633C29.3514 17.6996 29.2878 17.6487 29.2098 17.6153C29.1319 17.5803 29.0428 17.5628 28.9378 17.5628C28.8837 17.5628 28.8312 17.5692 28.7834 17.5803C28.7341 17.5914 28.688 17.6074 28.645 17.6296C28.6005 17.6519 28.5591 17.6774 28.5193 17.7076C28.4796 17.7378 28.443 17.7728 28.4064 17.8094C28.4143 17.7521 28.4223 17.6996 28.4302 17.6487C28.4382 17.5994 28.4493 17.5533 28.4605 17.5103C28.4732 17.4673 28.4875 17.4308 28.505 17.3973C28.5225 17.3639 28.5416 17.3353 28.5639 17.313C28.5846 17.2907 28.6068 17.2717 28.6275 17.2573C28.6498 17.243 28.6737 17.2303 28.7023 17.2176C28.7309 17.2064 28.7628 17.1953 28.7993 17.1857C28.8359 17.1762 28.8773 17.1682 28.9266 17.1603L29.4055 17.0792C29.423 17.076 29.4357 17.0712 29.4469 17.0664C29.458 17.0616 29.466 17.0537 29.4707 17.0441C29.4755 17.0346 29.4803 17.0219 29.4819 17.0076C29.4835 16.9932 29.4851 16.9741 29.4851 16.9535C29.4851 16.9216 29.4835 16.8962 29.4819 16.8771C29.4803 16.8596 29.4755 16.8453 29.4691 16.8373C29.4628 16.8294 29.4532 16.8246 29.4421 16.8246C29.431 16.8246 29.4151 16.8262 29.3976 16.8294L28.8821 16.9137C28.8216 16.9248 28.7659 16.9376 28.7182 16.9503C28.6689 16.9646 28.6259 16.9805 28.5878 16.9996C28.5496 17.0187 28.5146 17.0394 28.4827 17.0601C28.4509 17.0823 28.4191 17.111 28.3857 17.1476C28.3539 17.1842 28.3221 17.2335 28.2902 17.2955C28.2584 17.3576 28.233 17.4323 28.2107 17.5214C28.1884 17.6089 28.1709 17.7092 28.1582 17.8205C28.1455 17.9319 28.1391 18.0528 28.1391 18.1849C28.1391 18.3408 28.1518 18.476 28.1789 18.5906C28.2059 18.7051 28.2473 18.8022 28.303 18.8785C28.3587 18.9549 28.4302 19.0122 28.5162 19.0504C28.6021 19.0885 28.7039 19.1076 28.8216 19.1076C28.9346 19.1076 29.0364 19.0869 29.1271 19.0472C29.2178 19.0074 29.2941 18.9517 29.3578 18.8801C29.4198 18.8085 29.4691 18.7226 29.5026 18.6224C29.5391 18.5237 29.5551 18.414 29.5551 18.2915ZM76.4551 15.7602C76.4551 15.7221 76.4439 15.6807 76.4217 15.6393C76.3978 15.5948 76.3596 15.5375 76.3071 15.4675L74.0304 12.5067L76.0589 10.4719C76.121 10.4051 76.1655 10.3478 76.1926 10.2969C76.218 10.2476 76.2323 10.1998 76.2323 10.1473C76.2323 10.1107 76.2212 10.0789 76.2053 10.0582C76.1862 10.0344 76.1544 10.0153 76.1114 10.001C76.0669 9.98664 76.0096 9.97709 75.9396 9.97073C75.8696 9.96436 75.7821 9.95959 75.6787 9.95959C75.5784 9.95959 75.4941 9.96436 75.4241 9.97073C75.3541 9.97709 75.2921 9.98823 75.2412 10.0073C75.1887 10.0264 75.1441 10.0503 75.1075 10.0757C75.0693 10.1028 75.0327 10.1378 75.0009 10.1807L72.8865 12.5115V8.03293C72.8865 7.99952 72.8786 7.96929 72.8611 7.94543C72.8436 7.91997 72.8165 7.8977 72.7799 7.88179C72.7418 7.86588 72.6908 7.85315 72.6256 7.8452C72.5572 7.83724 72.4729 7.83247 72.3695 7.83247C72.2724 7.83247 72.1881 7.83724 72.1213 7.8452C72.056 7.85315 72.002 7.86588 71.9638 7.88179C71.924 7.89929 71.8954 7.91997 71.8826 7.94543C71.8683 7.96929 71.8588 7.99793 71.8588 8.03293V15.765C71.8588 15.7968 71.8667 15.8271 71.8826 15.8477C71.8954 15.8716 71.9224 15.8907 71.9638 15.9082C72.002 15.9257 72.0545 15.9384 72.1213 15.9464C72.1897 15.9543 72.2724 15.9591 72.3695 15.9591C72.4729 15.9591 72.5588 15.9543 72.6256 15.9464C72.6908 15.9384 72.7418 15.9257 72.7799 15.9082C72.8165 15.8907 72.8436 15.8716 72.8611 15.8477C72.8786 15.8271 72.8865 15.7968 72.8865 15.765V12.6547L75.2491 15.7602C75.2746 15.7968 75.3016 15.8302 75.3318 15.8557C75.3637 15.8827 75.4034 15.905 75.4544 15.9193C75.5037 15.9321 75.5641 15.9432 75.6373 15.9496C75.7105 15.9559 75.8028 15.9607 75.9141 15.9607C76.0223 15.9607 76.1114 15.9559 76.1814 15.948C76.253 15.94 76.3071 15.9273 76.3469 15.9098C76.3867 15.8923 76.4153 15.8732 76.4312 15.8477C76.4471 15.8223 76.4551 15.7921 76.4551 15.7602ZM71.189 15.7666V12.3429C71.189 11.9451 71.1556 11.6031 71.0856 11.3167C71.0172 11.0335 70.9058 10.7853 70.7483 10.5721C70.5908 10.3621 70.3824 10.1919 70.1278 10.0662C69.8732 9.93891 69.5582 9.87368 69.1844 9.87368C68.8662 9.87368 68.5496 9.95641 68.2377 10.1203C67.9243 10.2841 67.6093 10.5435 67.2943 10.8967V10.1537C67.2943 10.1203 67.2863 10.0916 67.2736 10.0694C67.2593 10.0471 67.2338 10.0264 67.202 10.0073C67.1686 9.98823 67.1209 9.97709 67.062 9.97073C67.0032 9.96436 66.9268 9.95959 66.8345 9.95959C66.7391 9.95959 66.6627 9.96436 66.6054 9.97073C66.5465 9.97709 66.4988 9.98823 66.4606 10.0073C66.424 10.0264 66.3986 10.0471 66.3859 10.0694C66.3731 10.0932 66.3668 10.1203 66.3668 10.1537V15.7666C66.3668 15.7984 66.3747 15.8287 66.3906 15.8493C66.4034 15.8732 66.4304 15.8923 66.4718 15.9098C66.51 15.9273 66.5625 15.94 66.6293 15.948C66.6977 15.9559 66.7804 15.9607 66.8775 15.9607C66.9809 15.9607 67.0668 15.9559 67.1352 15.948C67.2004 15.94 67.2513 15.9273 67.2895 15.9098C67.3261 15.8923 67.3532 15.8732 67.3707 15.8493C67.3882 15.8287 67.3961 15.7984 67.3961 15.7666V11.8449C67.6761 11.4917 67.9466 11.2228 68.2059 11.0399C68.4621 10.8569 68.7198 10.7646 68.9775 10.7646C69.1764 10.7646 69.3514 10.8028 69.501 10.8776C69.6537 10.9524 69.7778 11.0605 69.8732 11.2021C69.9687 11.3453 70.0419 11.5124 70.0896 11.7081C70.1405 11.9022 70.1644 12.1599 70.1644 12.4813V15.7666C70.1644 15.7984 70.1739 15.8287 70.1898 15.8493C70.2074 15.8732 70.2344 15.8923 70.271 15.9098C70.3092 15.9273 70.3601 15.94 70.4253 15.948C70.4937 15.9559 70.578 15.9607 70.6815 15.9607C70.7785 15.9607 70.8628 15.9559 70.9296 15.948C70.9949 15.94 71.0458 15.9273 71.084 15.9098C71.1222 15.8923 71.1476 15.8732 71.1651 15.8493C71.181 15.8287 71.189 15.7984 71.189 15.7666ZM65.6095 15.773V11.9865C65.6095 11.6381 65.5697 11.3326 65.4901 11.0717C65.4122 10.8092 65.2849 10.5912 65.1099 10.413C64.9365 10.2364 64.709 10.1028 64.4258 10.0105C64.1442 9.91822 63.8021 9.87209 63.3996 9.87209C63.1833 9.87209 62.9685 9.89118 62.7585 9.93254C62.5453 9.97232 62.3512 10.0216 62.173 10.0821C61.9948 10.1441 61.8373 10.2094 61.7021 10.2826C61.5637 10.3557 61.4682 10.4194 61.4125 10.4719C61.3552 10.5276 61.3202 10.5848 61.3059 10.6437C61.2916 10.7026 61.282 10.7869 61.282 10.8903C61.282 10.9524 61.2868 11.0096 61.2948 11.0605C61.3027 11.113 61.3186 11.156 61.3346 11.1878C61.3536 11.2212 61.3743 11.2483 61.3998 11.2642C61.4252 11.2785 61.4555 11.288 61.4873 11.288C61.5382 11.288 61.613 11.2578 61.7148 11.1989C61.8166 11.1369 61.9423 11.0717 62.095 10.9985C62.2462 10.9253 62.4212 10.8601 62.6232 10.798C62.8253 10.7376 63.0496 10.7089 63.3042 10.7089C63.5396 10.7089 63.7401 10.736 63.9008 10.7917C64.063 10.8489 64.1935 10.9317 64.2953 11.043C64.3972 11.1512 64.4703 11.2896 64.5165 11.4567C64.561 11.6221 64.5849 11.8147 64.5849 12.031V12.4669H63.8149C63.3789 12.4669 62.986 12.5051 62.6391 12.5815C62.2907 12.6579 61.9964 12.7724 61.7562 12.9283C61.5159 13.0811 61.3314 13.2752 61.2025 13.5074C61.0752 13.7413 61.0116 14.0134 61.0116 14.3316C61.0116 14.602 61.0577 14.8423 61.15 15.0554C61.2439 15.267 61.3759 15.4452 61.543 15.5916C61.71 15.7364 61.9153 15.8477 62.1523 15.9241C62.3894 16.0021 62.6582 16.0418 62.9526 16.0418C63.2882 16.0418 63.6064 15.9671 63.9055 15.8223C64.2078 15.6775 64.4783 15.4739 64.7249 15.2114V15.773C64.7249 15.8223 64.7376 15.8605 64.7678 15.8843C64.7981 15.9098 64.8442 15.9289 64.9079 15.9416C64.9715 15.9543 65.059 15.9607 65.1672 15.9607C65.277 15.9607 65.3629 15.9543 65.4217 15.9416C65.479 15.9289 65.5251 15.9098 65.557 15.8843C65.5936 15.8605 65.6095 15.8223 65.6095 15.773ZM64.5881 13.2099V14.4C64.3351 14.6832 64.0933 14.8932 63.8642 15.03C63.6319 15.1684 63.3837 15.2368 63.1148 15.2368C62.7839 15.2368 62.5246 15.1493 62.34 14.9775C62.1555 14.8057 62.0648 14.5734 62.0648 14.2806C62.0648 14.1104 62.0966 13.9609 62.1603 13.8288C62.2239 13.6984 62.3257 13.5854 62.4625 13.4931C62.601 13.3993 62.7728 13.3293 62.978 13.2799C63.1864 13.2322 63.4298 13.2099 63.713 13.2099H64.5881ZM60.5836 13.6093C60.5836 13.334 60.5407 13.0842 60.4579 12.8551C60.3752 12.6245 60.2622 12.4256 60.1206 12.2553C59.9759 12.0851 59.8104 11.9451 59.6195 11.8369C59.4286 11.7256 59.2217 11.6492 59.0038 11.6094C59.1788 11.5331 59.3331 11.4392 59.4668 11.323C59.602 11.2053 59.7134 11.0733 59.8025 10.9269C59.8915 10.7805 59.96 10.6182 60.0045 10.4432C60.0506 10.2682 60.0745 10.0853 60.0745 9.89436C60.0745 9.57458 60.022 9.2882 59.917 9.03524C59.8152 8.78228 59.6609 8.56591 59.454 8.39249C59.2504 8.21748 58.9926 8.08384 58.6856 7.99316C58.3801 7.90088 57.9856 7.85634 57.5051 7.85634H55.6755C55.58 7.85634 55.4909 7.88815 55.405 7.95179C55.3207 8.01702 55.2778 8.13157 55.2778 8.29226V15.4882C55.2778 15.6505 55.3207 15.7634 55.405 15.8287C55.4893 15.8923 55.5784 15.9241 55.6755 15.9241H57.7803C58.081 15.9241 58.3515 15.9034 58.5854 15.8589C58.8192 15.8159 59.0404 15.7507 59.2456 15.6632C59.4493 15.5757 59.6338 15.4675 59.7977 15.3402C59.9615 15.2098 60.1016 15.0618 60.2177 14.8916C60.3338 14.7213 60.4229 14.5272 60.4897 14.3141C60.5518 14.0961 60.5836 13.8622 60.5836 13.6093ZM58.972 9.99936C58.972 10.1744 58.9465 10.3414 58.8956 10.5085C58.8431 10.6723 58.762 10.8155 58.649 10.938C58.536 11.0589 58.396 11.1576 58.2258 11.2292C58.0556 11.304 57.8312 11.3405 57.5528 11.3405H56.3341V8.72659H57.4399C57.7469 8.72659 57.9935 8.75682 58.1813 8.8141C58.369 8.87137 58.5185 8.95569 58.6363 9.06706C58.7524 9.17843 58.8383 9.31207 58.8908 9.46957C58.9433 9.62708 58.972 9.80367 58.972 9.99936ZM59.4572 13.6697C59.4572 13.8956 59.4158 14.0929 59.3379 14.2631C59.2599 14.4334 59.1517 14.5766 59.0102 14.6895C58.8717 14.8041 58.711 14.8916 58.5281 14.9489C58.3451 15.0061 58.1335 15.0364 57.8869 15.0364H56.3326V12.1933H57.6133C57.9506 12.1933 58.229 12.2251 58.4517 12.2888C58.6729 12.354 58.8574 12.4479 59.0038 12.5735C59.1533 12.6976 59.2631 12.852 59.3395 13.0349C59.419 13.2179 59.4572 13.4295 59.4572 13.6697ZM34.3327 11.7701C34.3327 11.1639 34.2484 10.6182 34.0798 10.1362C33.9127 9.65572 33.6661 9.24366 33.3415 8.90637C33.0138 8.56591 32.6113 8.30658 32.1308 8.12521C31.6488 7.94384 31.0601 7.85474 30.3649 7.85474H28.5416C28.4462 7.85474 28.3571 7.88656 28.2712 7.9502C28.1868 8.01543 28.1439 8.12998 28.1439 8.29067V15.4866C28.1439 15.6489 28.1868 15.7618 28.2712 15.8271C28.3555 15.8907 28.4462 15.9225 28.5416 15.9225H30.2471C30.9344 15.9225 31.5294 15.8366 32.0258 15.668C32.5222 15.4977 32.9438 15.24 33.2843 14.8979C33.6263 14.5559 33.8872 14.1231 34.0654 13.6013C34.2436 13.0795 34.3327 12.4685 34.3327 11.7701ZM33.2063 11.8115C33.2063 12.3604 33.1475 12.8345 33.0281 13.237C32.912 13.6379 32.7322 13.972 32.4967 14.2377C32.2597 14.5034 31.9654 14.7023 31.6138 14.8295C31.2622 14.96 30.8278 15.0236 30.3124 15.0236H29.213V8.74568H30.3028C30.8565 8.74568 31.3115 8.82205 31.6647 8.97637C32.0163 9.13229 32.3074 9.34389 32.5397 9.61912C32.7688 9.89436 32.939 10.2189 33.0472 10.596C33.1506 10.9699 33.2063 11.3755 33.2063 11.8115ZM54.6143 10.5228C54.6143 10.4273 54.6143 10.351 54.6127 10.2953C54.6111 10.2396 54.6064 10.1982 54.6 10.168C54.5936 10.1378 54.5873 10.1155 54.5793 10.0948C54.5714 10.0757 54.5539 10.0566 54.5284 10.036C54.5045 10.0169 54.4632 9.99459 54.4011 9.97391C54.3423 9.95323 54.2739 9.93572 54.1991 9.91822C54.1243 9.90072 54.0527 9.89118 53.9843 9.88481C53.9159 9.87845 53.8538 9.87368 53.7997 9.87368C53.6804 9.87368 53.5627 9.89118 53.4434 9.91982C53.324 9.95163 53.2063 10.0073 53.087 10.0885C52.9661 10.1696 52.8388 10.2826 52.702 10.4226C52.5683 10.5626 52.4236 10.7471 52.2708 10.9714V10.1537C52.2708 10.1203 52.2629 10.0916 52.2501 10.0694C52.2358 10.0471 52.2104 10.0264 52.1786 10.0073C52.1451 9.98823 52.0974 9.97709 52.0385 9.97073C51.9797 9.96436 51.9033 9.95959 51.811 9.95959C51.7156 9.95959 51.6392 9.96436 51.5819 9.97073C51.5231 9.97709 51.4753 9.98823 51.4372 10.0073C51.4006 10.0264 51.3751 10.0471 51.3624 10.0694C51.3497 10.0932 51.3433 10.1203 51.3433 10.1537V15.7666C51.3433 15.7984 51.3512 15.8287 51.3672 15.8493C51.3799 15.8732 51.4069 15.8923 51.4483 15.9098C51.4865 15.9273 51.539 15.94 51.6058 15.948C51.6742 15.9559 51.7569 15.9607 51.854 15.9607C51.9574 15.9607 52.0433 15.9559 52.1117 15.948C52.177 15.94 52.2279 15.9273 52.2676 15.9098C52.3042 15.8923 52.3313 15.8732 52.3488 15.8493C52.3663 15.8287 52.3742 15.7984 52.3742 15.7666V12.074C52.519 11.8465 52.6527 11.6524 52.772 11.4949C52.8929 11.3374 53.0074 11.2101 53.1172 11.1146C53.2254 11.0192 53.332 10.9508 53.4322 10.911C53.5325 10.868 53.6327 10.8473 53.7361 10.8473C53.8236 10.8473 53.9032 10.8553 53.9795 10.8728C54.0543 10.8903 54.1195 10.9062 54.1816 10.9253C54.2404 10.9444 54.2945 10.9619 54.3423 10.981C54.3884 11.0001 54.4298 11.008 54.4632 11.008C54.4966 11.008 54.5236 11.0001 54.5411 10.981C54.5586 10.9619 54.5746 10.9364 54.5873 10.8998C54.5984 10.8664 54.6064 10.8171 54.6111 10.7535C54.6111 10.6914 54.6143 10.6135 54.6143 10.5228ZM50.734 8.46408C50.734 8.22862 50.6894 8.06634 50.6003 7.98043C50.5112 7.89611 50.3474 7.85315 50.1055 7.85315C49.8605 7.85315 49.6935 7.8977 49.6028 7.9852C49.5121 8.07271 49.4676 8.23658 49.4676 8.47681C49.4676 8.71546 49.5121 8.87455 49.6012 8.96046C49.6903 9.04638 49.8542 9.08774 50.096 9.08774C50.341 9.08774 50.508 9.04479 50.5987 8.95728C50.6894 8.87137 50.734 8.70591 50.734 8.46408ZM50.6162 15.7666V10.1537C50.6162 10.1235 50.6083 10.098 50.5908 10.0725C50.5733 10.0471 50.5462 10.0264 50.5096 10.0105C50.4715 9.993 50.4205 9.98027 50.3553 9.97232C50.2869 9.96436 50.2026 9.95959 50.0992 9.95959C50.0005 9.95959 49.9178 9.96436 49.851 9.97232C49.7857 9.98027 49.7317 9.993 49.6935 10.0105C49.6537 10.0248 49.6251 10.0471 49.6123 10.0725C49.598 10.098 49.5885 10.1235 49.5885 10.1537V15.7666C49.5885 15.7984 49.5964 15.8287 49.6123 15.8493C49.6251 15.8732 49.6521 15.8923 49.6935 15.9098C49.7317 15.9273 49.7842 15.94 49.851 15.948C49.9194 15.9559 50.0021 15.9607 50.0992 15.9607C50.2026 15.9607 50.2885 15.9559 50.3553 15.948C50.4205 15.94 50.4715 15.9273 50.5096 15.9098C50.5462 15.8923 50.5733 15.8732 50.5908 15.8493C50.6083 15.8287 50.6162 15.7984 50.6162 15.7666ZM48.8455 15.7666V12.2188C48.8455 11.9022 48.8137 11.6015 48.75 11.3167C48.6864 11.0335 48.5782 10.7853 48.4271 10.5721C48.2743 10.3621 48.077 10.1919 47.832 10.0662C47.587 9.93891 47.2848 9.87368 46.9236 9.87368C46.7756 9.87368 46.6261 9.89277 46.4797 9.93413C46.3318 9.97391 46.1806 10.036 46.0247 10.1235C45.8688 10.211 45.7065 10.3255 45.5379 10.4687C45.3708 10.6087 45.1942 10.7821 45.0065 10.9858C44.9413 10.8203 44.8554 10.6692 44.7583 10.5323C44.6581 10.3987 44.5372 10.281 44.3972 10.1823C44.2556 10.0837 44.0933 10.0105 43.9087 9.95482C43.7242 9.90231 43.5158 9.87368 43.2819 9.87368C42.9812 9.87368 42.6805 9.95641 42.3846 10.1203C42.0871 10.2841 41.7816 10.5435 41.4666 10.8967V10.1537C41.4666 10.1203 41.4586 10.0916 41.4459 10.0694C41.4316 10.0471 41.4061 10.0264 41.3743 10.0073C41.3409 9.98823 41.2932 9.97709 41.2343 9.97073C41.1755 9.96436 41.0991 9.95959 41.0068 9.95959C40.9114 9.95959 40.835 9.96436 40.7777 9.97073C40.7188 9.97709 40.6711 9.98823 40.6329 10.0073C40.5963 10.0264 40.5709 10.0471 40.5582 10.0694C40.5454 10.0932 40.5391 10.1203 40.5391 10.1537V15.7666C40.5391 15.7984 40.547 15.8287 40.5629 15.8493C40.5757 15.8732 40.6027 15.8923 40.6441 15.9098C40.6823 15.9273 40.7348 15.94 40.8016 15.948C40.87 15.9559 40.9527 15.9607 41.0498 15.9607C41.1532 15.9607 41.2391 15.9559 41.3059 15.948C41.3711 15.94 41.4221 15.9273 41.4602 15.9098C41.4968 15.8923 41.5239 15.8732 41.5414 15.8493C41.5589 15.8287 41.5668 15.7984 41.5668 15.7666V11.8449C41.8468 11.4917 42.1109 11.2228 42.3496 11.0399C42.5898 10.8569 42.8269 10.7646 43.0655 10.7646C43.2564 10.7646 43.4203 10.8028 43.5603 10.8776C43.6987 10.9524 43.8133 11.0605 43.904 11.2021C43.9946 11.3453 44.063 11.5124 44.1092 11.7081C44.1537 11.9022 44.1776 12.1185 44.1776 12.3556V15.7666C44.1776 15.7984 44.1856 15.8287 44.1983 15.8493C44.2142 15.8732 44.2412 15.8923 44.2794 15.9098C44.3192 15.9273 44.3733 15.94 44.4433 15.948C44.5117 15.9559 44.5913 15.9607 44.6883 15.9607C44.7885 15.9607 44.8713 15.9559 44.9397 15.948C45.0049 15.94 45.059 15.9273 45.0972 15.9098C45.137 15.8923 45.1656 15.8732 45.1815 15.8493C45.199 15.8287 45.207 15.7984 45.207 15.7666V11.8449C45.4917 11.4917 45.7558 11.2228 45.9929 11.0399C46.2299 10.8569 46.4686 10.7646 46.7072 10.7646C46.8966 10.7646 47.0636 10.8028 47.2036 10.8776C47.3436 10.9524 47.4613 11.0605 47.552 11.2021C47.6427 11.3453 47.7095 11.5124 47.7509 11.7081C47.7907 11.9022 47.813 12.1185 47.813 12.3556V15.7666C47.813 15.7984 47.8209 15.8287 47.8384 15.8493C47.8559 15.8732 47.883 15.8923 47.9211 15.9098C47.9609 15.9273 48.015 15.94 48.0802 15.948C48.1455 15.9559 48.2314 15.9607 48.3348 15.9607C48.435 15.9607 48.5177 15.9559 48.583 15.948C48.6514 15.94 48.7023 15.9273 48.7405 15.9098C48.7771 15.8923 48.8041 15.8732 48.8216 15.8493C48.8375 15.8287 48.8455 15.7984 48.8455 15.7666ZM39.952 12.7167V12.529C39.952 12.1631 39.9043 11.8194 39.812 11.4965C39.7181 11.1751 39.5749 10.8935 39.3745 10.6564C39.1756 10.4178 38.9195 10.2269 38.6124 10.0853C38.3022 9.94209 37.9283 9.87209 37.4892 9.87209C37.0803 9.87209 36.708 9.94527 36.3771 10.0869C36.043 10.2316 35.7614 10.4369 35.5275 10.7042C35.2921 10.9714 35.1139 11.3008 34.9882 11.6826C34.8657 12.0676 34.8005 12.5019 34.8005 12.9824C34.8005 13.4883 34.8625 13.9338 34.9818 14.3172C35.1027 14.7007 35.2809 15.0173 35.5164 15.2702C35.755 15.5232 36.0446 15.7157 36.3914 15.8446C36.7367 15.9718 37.1408 16.0387 37.6021 16.0387C37.8678 16.0387 38.1176 16.018 38.3515 15.9798C38.5854 15.9384 38.7906 15.8939 38.9704 15.8462C39.1486 15.7952 39.2949 15.7443 39.4063 15.6934C39.5193 15.6425 39.5861 15.6043 39.6099 15.5805C39.6306 15.5582 39.6497 15.5327 39.6656 15.5105C39.68 15.485 39.6911 15.458 39.6974 15.4261C39.7038 15.3943 39.7086 15.3593 39.7118 15.3195C39.7165 15.2814 39.7181 15.2352 39.7181 15.1795C39.7181 15.1048 39.7134 15.0411 39.7102 14.9902C39.7038 14.9393 39.6927 14.8979 39.6799 14.8693C39.6672 14.8391 39.6497 14.8184 39.6274 14.8025C39.6052 14.7882 39.5781 14.7818 39.5511 14.7818C39.5002 14.7818 39.4286 14.8025 39.3299 14.8486C39.2329 14.8916 39.1072 14.9393 38.9561 14.9934C38.8049 15.0491 38.6251 15.0984 38.4183 15.1398C38.2099 15.1843 37.9744 15.205 37.7087 15.205C37.3715 15.205 37.0883 15.1589 36.856 15.0634C36.6237 14.9679 36.436 14.8295 36.2912 14.6497C36.1448 14.4716 36.0414 14.2584 35.9794 14.0086C35.9173 13.7572 35.8855 13.4788 35.8855 13.1654H39.5559C39.6609 13.1654 39.7515 13.132 39.8327 13.0636C39.9106 12.9951 39.952 12.879 39.952 12.7167ZM38.9195 12.4129H35.8839C35.8919 12.1822 35.9332 11.9642 36.0032 11.7526C36.0732 11.5442 36.1735 11.3596 36.3023 11.2021C36.4296 11.0446 36.5887 10.9173 36.7796 10.8235C36.9705 10.728 37.1917 10.6787 37.4462 10.6787C37.9394 10.6787 38.3101 10.8314 38.5615 11.1401C38.8129 11.4455 38.9322 11.8719 38.9195 12.4129ZM8.8089 10.6039C7.2768 10.6039 6.03426 11.8497 6.03426 13.3849C6.03426 14.9202 7.2768 16.1659 8.8089 16.1659C9.31323 16.1659 9.78575 16.0307 10.1946 15.7937V15.8812H11.4101C11.5215 15.8812 11.6122 15.7905 11.6122 15.6791V8.03611C11.6122 7.92475 11.5215 7.83406 11.4101 7.83406H10.3967C10.2853 7.83406 10.1946 7.92475 10.1946 8.03611V10.6469C10.1946 10.7169 10.1628 10.7773 10.1039 10.8155C10.0451 10.8537 9.97666 10.8601 9.91302 10.8314C9.57415 10.6851 9.20186 10.6039 8.8089 10.6039ZM8.8089 11.8194C7.94659 11.8194 7.24657 12.521 7.24657 13.3865C7.24657 14.252 7.94659 14.952 8.8089 14.952C9.6712 14.952 10.3712 14.2504 10.3712 13.3865C10.3712 12.521 9.6712 11.8194 8.8089 11.8194ZM15.1425 10.6039C16.6746 10.6039 17.9172 11.8497 17.9172 13.3849C17.9172 14.9202 16.6746 16.1659 15.1425 16.1659C14.6382 16.1659 14.1657 16.0307 13.7568 15.7937V15.8812H12.5413C12.4299 15.8812 12.3392 15.7905 12.3392 15.6791V8.03611C12.3392 7.92475 12.4299 7.83406 12.5413 7.83406H13.5547C13.6661 7.83406 13.7568 7.92475 13.7568 8.03611V10.6469C13.7568 10.7169 13.7886 10.7773 13.8475 10.8155C13.9063 10.8537 13.9748 10.8601 14.0384 10.8314C14.3773 10.6851 14.7511 10.6039 15.1425 10.6039ZM15.1425 11.8194C16.0048 11.8194 16.7048 12.521 16.7048 13.3865C16.7048 14.252 16.0048 14.952 15.1425 14.952C14.2802 14.952 13.5802 14.2504 13.5802 13.3865C13.5802 12.521 14.2802 11.8194 15.1425 11.8194ZM11.9765 2C6.467 2 1.99957 6.47856 1.99957 12.0008C1.99957 17.523 6.467 22 11.9765 22C17.486 22 21.9534 17.5214 21.9534 12.0008C21.9518 6.47856 17.4844 2 11.9765 2ZM11.9765 3.21709C7.13838 3.21709 3.21507 7.14995 3.21507 12.0008C3.21507 16.8501 7.13838 20.7829 11.9765 20.7829C16.8146 20.7829 20.7379 16.8501 20.7379 12.0008C20.7379 7.14995 16.8146 3.21709 11.9765 3.21709Z" fill="#D12023"/>
</svg>
