<svg width="42" height="24" viewBox="0 0 42 24" fill="currentBackgroundColor" xmlns="http://www.w3.org/2000/svg">
<path d="M31.3626 8.13286C33.1037 7.46164 34.8253 7.59328 36.4453 8.53158C39.7931 10.4706 39.8609 15.0498 36.5857 17.1112C34.6559 18.3255 31.9903 18.2537 30.1337 16.9336C30.022 16.854 29.9177 16.7638 29.8022 16.6639C29.7451 16.6146 29.6854 16.5628 29.6206 16.5088V14.8863C29.7514 15.0172 29.8724 15.145 29.9888 15.268C30.2259 15.5183 30.4444 15.7491 30.6892 15.947C32.5722 17.4692 35.4868 17.1586 36.984 15.2636C38.0741 13.8843 38.1918 12.1414 37.124 10.6539C36.086 9.20827 34.6161 8.65526 32.8849 8.86195C31.3169 9.04937 30.1555 9.87908 29.4659 11.3222C29.2395 11.7955 29.1288 12.2965 29.132 12.8244C29.1371 13.7153 29.1376 14.6066 29.132 15.4976C29.1241 16.8257 28.1608 17.8751 26.8367 17.9435C26.3914 17.9666 25.9151 17.9309 25.4951 17.7938C24.4225 17.4442 23.8096 16.4962 23.8197 15.3659C23.8294 14.3049 23.8294 13.2435 23.8294 12.1824V11.9469C23.8294 11.8796 23.8287 11.8137 23.8278 11.7447C23.8269 11.6474 23.8256 11.5439 23.8264 11.4219C23.7639 11.4119 23.7194 11.4025 23.6852 11.3953C23.6779 11.3937 23.671 11.3922 23.6645 11.3909C22.7959 11.2102 22.1108 10.7184 21.5231 10.0879C20.0221 8.47749 16.9586 8.28171 15.1499 10.1575C14.544 10.7859 14.1604 11.5268 14.0766 12.4101C14.0678 12.5027 14.0596 12.5955 14.0515 12.6884C14.0179 13.0702 13.9842 13.4531 13.9076 13.8268C13.5362 15.6397 12.4083 16.8409 10.7456 17.5448C8.79015 18.3725 6.12662 18.0362 4.46594 16.3495C2.4233 14.2746 2.52142 11.0383 4.7221 9.12148C7.16722 6.99206 11.0311 7.35431 13.0335 9.90255C13.0675 9.94572 13.0939 9.99482 13.1222 10.0475C13.1357 10.0727 13.1497 10.0986 13.1651 10.1252L12.6486 11.2169C12.6097 11.1629 12.5736 11.1131 12.5393 11.066C12.4646 10.9631 12.3993 10.8732 12.3367 10.7817C11.0001 8.83051 8.1055 8.16096 5.9891 9.56379C3.70875 11.0752 3.52051 14.1052 5.60716 15.8719C7.55083 17.5175 10.6072 17.1667 12.1195 15.1215C12.5748 14.5056 12.7974 13.8067 12.8674 13.0466C12.8743 12.9713 12.8808 12.8957 12.8873 12.82C12.925 12.3791 12.9631 11.9334 13.0859 11.5154C13.6649 9.54493 15.0593 8.40245 16.9908 7.89976C18.2462 7.57315 19.4956 7.69642 20.7005 8.19954C21.3411 8.46743 21.8861 8.86406 22.3788 9.35123C22.757 9.72563 23.2109 10.1143 23.8332 10.2438C23.8386 10.1159 23.835 10.0241 23.8318 9.93618C23.8296 9.88408 23.8276 9.83334 23.8276 9.7772C23.8276 9.65975 23.8273 9.54226 23.8269 9.4248C23.8256 9.02395 23.8244 8.62311 23.8377 8.22301C23.8516 7.80921 24.0352 7.61803 24.3799 7.60167C24.7634 7.58322 24.9802 7.77691 25.0003 8.20875C25.0138 8.49409 25.0117 8.77991 25.0095 9.06571C25.0084 9.23598 25.0072 9.40624 25.0091 9.57637C25.0099 9.63892 25.0102 9.69022 25.0108 9.74278C25.0115 9.85969 25.0124 9.98289 25.018 10.2501C25.3081 10.2713 25.5675 10.1099 25.7968 9.9673C25.8395 9.94071 25.8812 9.91479 25.9219 9.89081C25.9876 9.85184 26.0506 9.80776 26.1136 9.7637C26.2036 9.70066 26.2936 9.63766 26.3914 9.58978C26.6576 9.45941 26.9533 9.54115 27.1101 9.76336C27.2676 9.98641 27.2312 10.2602 26.983 10.4799C26.5424 10.8698 26.0254 11.128 25.4665 11.3046C25.3501 11.3415 25.1656 11.3951 25.0133 11.437C25.0113 11.5667 25.0113 11.6372 25.0113 11.7166C25.0113 11.7486 25.0113 11.7821 25.0113 11.8215C25.0091 12.2691 25.0104 12.7168 25.0115 13.1644C25.0133 13.9187 25.0153 14.673 25.0019 15.4271C24.9911 16.051 25.3416 16.5855 25.95 16.8153C26.5395 17.038 27.2338 16.8635 27.6631 16.4094C27.8785 16.1814 27.9368 15.9122 27.9368 15.6112C27.9368 15.264 27.9381 14.9887 27.9395 14.6958C27.941 14.3629 27.9428 14.0073 27.9428 13.4977C27.9428 12.8994 27.98 12.2877 28.1213 11.7121C28.5539 9.95077 29.6985 8.77433 31.3626 8.13286Z" fill="url(#paint0_linear_1166_3990)"/>
<path d="M21.0493 16.0624C21.1795 15.9735 21.3098 15.8843 21.4509 15.8182C21.6786 15.7122 21.9922 15.8095 22.1158 15.9906C22.2436 16.178 22.2148 16.4878 22.0442 16.6803C21.9929 16.7382 21.9292 16.7865 21.8665 16.834L21.8563 16.8417C19.583 18.5762 15.915 18.3577 13.9671 15.934C13.9143 15.8685 13.8678 15.7978 13.8199 15.7248C13.7974 15.6907 13.7747 15.656 13.7508 15.6212L14.2975 14.3961C14.3187 14.4255 14.3401 14.4528 14.3608 14.4791C14.4021 14.5319 14.4405 14.5809 14.469 14.6351C15.6043 16.803 18.6343 17.6618 20.9267 16.1453C20.9678 16.1182 21.0086 16.0903 21.0493 16.0624Z" fill="url(#paint1_linear_1166_3990)"/>
<defs>
<linearGradient id="paint0_linear_1166_3990" x1="13.7512" y1="16.1866" x2="22.1952" y2="16.1866" gradientUnits="userSpaceOnUse">
<stop offset="0.00248267" stop-color="#566CB3"/>
<stop offset="0.0778" stop-color="#6A64AD"/>
<stop offset="0.182" stop-color="#7A5CA7"/>
<stop offset="0.3119" stop-color="#8455A3"/>
<stop offset="0.4941" stop-color="#8951A0"/>
<stop offset="1" stop-color="#8A509F"/>
</linearGradient>
<linearGradient id="paint1_linear_1166_3990" x1="13.7512" y1="16.1865" x2="22.1952" y2="16.1865" gradientUnits="userSpaceOnUse">
<stop offset="0.00248267" stop-color="#566CB3"/>
<stop offset="0.0778" stop-color="#6A64AD"/>
<stop offset="0.182" stop-color="#7A5CA7"/>
<stop offset="0.3119" stop-color="#8455A3"/>
<stop offset="0.4941" stop-color="#8951A0"/>
<stop offset="1" stop-color="#8A509F"/>
</linearGradient>
</defs>
</svg>
