<svg width="54" height="24" viewBox="0 0 54 24" fill="currentBackgroundColor" xmlns="http://www.w3.org/2000/svg">
<path fill-rule="evenodd" clip-rule="evenodd" d="M32.3535 14.3569C31.8867 15.1597 31.0439 15.5383 30.143 15.5383C29.2418 15.5383 28.399 15.1532 27.9323 14.3569C27.5822 13.7498 27.4072 12.7511 27.4203 12.1114C27.4332 11.4717 27.4398 10.9756 27.6017 10.4078C27.8287 9.59181 28.2889 8.95212 29.0991 8.62577C29.4297 8.4952 29.7864 8.46909 30.143 8.46909C30.4994 8.46909 30.856 8.4952 31.1866 8.62577C32.0034 8.95212 32.4573 9.59181 32.6841 10.4078C32.8462 10.9756 32.8525 11.4783 32.8657 12.1114C32.8786 12.7511 32.7101 13.7498 32.3535 14.3569ZM34.0325 8.80199C33.5721 8.14925 32.9692 7.66622 32.2368 7.36597C31.5561 7.08529 30.856 7.00043 30.1493 7.00043C29.4429 7.00043 28.7428 7.08529 28.0621 7.36597C27.3294 7.66622 26.7265 8.14925 26.2663 8.80199C25.5922 9.76805 25.3523 11.054 25.3523 12.007C25.3589 12.96 25.443 13.4757 25.7218 14.1806C26.0784 15.0945 26.6619 15.8255 27.5044 16.3412C28.3018 16.8309 29.2158 17.0071 30.1493 17.0071C31.0828 17.0071 31.9905 16.8309 32.7942 16.3412C33.6304 15.8255 34.2139 15.0945 34.5771 14.1806C34.8557 13.4757 34.9466 12.96 34.9466 12.007C34.9466 11.054 34.7066 9.76805 34.0325 8.80199ZM50.9583 12.7315C50.5565 12.3007 50.0637 12.0592 49.4998 11.9286C49.5581 11.909 49.6164 11.8895 49.6748 11.8699C49.7397 11.8438 49.798 11.8242 49.8629 11.7981C50.6083 11.413 51.0427 10.8059 51.1334 9.96389C51.2243 9.12185 50.9194 8.43647 50.2453 7.93384C49.7203 7.53568 49.0979 7.41165 48.4496 7.41165C46.8938 7.41165 45.338 7.41165 43.7821 7.41165C43.7432 7.41165 43.7043 7.41165 43.6655 7.41165C43.9961 7.5683 44.1905 7.82287 44.2815 8.15579C44.3461 8.41036 44.4045 8.67144 44.411 8.93255C44.4305 9.6571 44.4176 10.3816 44.4176 11.1127C44.4176 12.5814 44.4305 14.0435 44.411 15.5122C44.4045 16.0801 44.3398 16.6609 43.7693 17.0266C43.8276 17.0266 43.8665 17.0266 43.9054 17.0266C45.5001 17.0266 47.0948 17.0266 48.6895 17.0266C49.3831 17.0266 50.038 16.87 50.6148 16.4521C51.7817 15.5775 51.9502 13.789 50.9583 12.7315ZM46.4596 8.71061C46.5763 8.71061 46.6798 8.71061 46.7902 8.71061C47.1271 8.71715 47.4643 8.71061 47.8078 8.72366C48.4238 8.74326 48.8711 9.09572 48.9812 9.69626C49.085 10.225 48.9878 10.7276 48.5663 11.1192C48.3523 11.3151 48.0866 11.3934 47.8078 11.3999C47.3671 11.413 46.9198 11.3999 46.4659 11.3999C46.4596 10.5057 46.4596 9.61792 46.4596 8.71061ZM49.1691 15.1793C48.9423 15.4796 48.6246 15.6297 48.2682 15.6428C47.6717 15.6689 47.0688 15.6493 46.453 15.6493V12.7054H46.5374C47.0559 12.7119 47.581 12.6989 48.0932 12.7381C48.8191 12.7968 49.3507 13.2407 49.4351 14.0174C49.4869 14.4417 49.4351 14.8333 49.1691 15.1793ZM41.4355 13.2864C41.2345 12.9535 40.9299 12.8425 40.6058 12.8294C40.003 12.8033 39.4001 12.8164 38.7972 12.8098H38.7452V12.9665C38.7452 13.7824 38.7323 14.5918 38.7518 15.4078C38.7583 15.7145 38.8035 16.0279 38.8684 16.3347C38.9333 16.6218 39.0889 16.8634 39.4001 17.0071C38.2461 17.0071 37.1247 17.0071 35.9836 17.0071C36.444 16.798 36.5802 16.3999 36.6448 15.9691C36.6774 15.7472 36.6903 15.5187 36.6903 15.2903C36.6903 13.2211 36.6903 11.1453 36.6903 9.07615C36.6903 8.88685 36.6774 8.69104 36.6514 8.50174C36.5802 8.01871 36.3857 7.614 35.8735 7.39859C38.0388 7.39859 40.1714 7.39859 42.3107 7.39859C42.3107 8.21452 42.3107 9.03699 42.3107 9.89208C42.2652 9.79416 42.2395 9.72889 42.2069 9.66362C41.9346 9.07615 41.4615 8.76282 40.8392 8.7302C40.1585 8.69755 39.4842 8.71715 38.8035 8.71061H38.7583V11.4913H38.875C39.3612 11.4913 39.8408 11.4978 40.327 11.4913C40.4955 11.4913 40.6705 11.4652 40.8392 11.4326C41.092 11.3869 41.2994 11.2628 41.4484 11.0148C41.4355 11.7785 41.4355 12.5161 41.4355 13.2864Z" fill="#404A71"/>
<path d="M22.3893 11.6084C22.0133 11.3016 21.7476 10.8708 21.4883 10.4661C21.2225 10.0484 20.9762 9.66975 20.6326 9.30421C20.5094 9.17367 20.3862 9.05618 20.2566 8.94521C20.2695 8.7755 20.2695 8.59926 20.2695 8.42301C20.2631 7.92041 20.1594 7.48306 20.0621 6.99351C19.9649 6.52353 19.8547 6.02745 19.9 5.54441L19.9584 4.9243L19.3425 4.98306C18.8628 5.02873 18.3702 4.91778 17.9034 4.81987C17.4237 4.71543 16.9829 4.61751 16.4837 4.61097C16.3087 4.61097 16.1337 4.61097 15.9651 4.62403C15.8549 4.49349 15.7317 4.36946 15.6086 4.24545C15.252 3.8995 14.8696 3.65799 14.4547 3.38382C14.0528 3.12272 13.6314 2.84858 13.3202 2.47652L12.9313 2L12.5423 2.47652C12.2377 2.85509 11.8098 3.12272 11.4079 3.38382C10.993 3.65145 10.617 3.89296 10.254 4.24545C10.1243 4.36946 10.0077 4.49349 9.89744 4.62403C9.7289 4.61097 9.55387 4.61097 9.37884 4.61097C8.87969 4.61751 8.44535 4.72195 7.95916 4.81987C7.49242 4.91778 6.99973 5.02873 6.52003 4.98306L5.9042 4.9243L5.96254 5.54441C6.0079 6.02745 5.89771 6.52353 5.80047 6.99351C5.69674 7.47654 5.5995 7.92041 5.59303 8.42301C5.59303 8.59926 5.59303 8.7755 5.60599 8.94521C5.47635 9.05618 5.35317 9.18021 5.22999 9.30421C4.88643 9.66322 4.64656 10.0484 4.3743 10.4661C4.11501 10.8708 3.84274 11.3016 3.47324 11.6084L3 12L3.47324 12.3917C3.84921 12.6985 4.11501 13.1293 4.3743 13.534C4.6401 13.9518 4.88643 14.3303 5.22999 14.6959C5.35317 14.8264 5.47635 14.9439 5.60599 15.0549C5.59303 15.2246 5.59303 15.4008 5.59303 15.5771C5.5995 16.0797 5.70323 16.517 5.80047 17.0066C5.89771 17.4765 6.0079 17.9726 5.96254 18.4557L5.9042 19.0758L6.52003 19.017C6.99973 18.9713 7.49242 19.0824 7.95916 19.1803C8.43886 19.2846 8.87969 19.3826 9.37884 19.3891C9.55387 19.3891 9.7289 19.3891 9.89744 19.376C10.0077 19.5066 10.1308 19.6305 10.254 19.7548C10.6105 20.1007 10.993 20.3421 11.4079 20.6163C11.8098 20.8774 12.2312 21.1516 12.5423 21.5235L12.9313 22L13.3202 21.5235C13.6249 21.145 14.0528 20.8774 14.4547 20.6163C14.8696 20.3486 15.2456 20.1007 15.6086 19.7548C15.7382 19.6305 15.8549 19.5066 15.9651 19.376C16.1337 19.3891 16.3087 19.3891 16.4837 19.3891C16.9829 19.3826 17.4172 19.2781 17.9034 19.1803C18.3702 19.0824 18.8628 18.9713 19.3425 19.017L19.9584 19.0758L19.9 18.4557C19.8547 17.9726 19.9649 17.4765 20.0621 17.0066C20.1658 16.5236 20.2631 16.0797 20.2695 15.5771C20.2695 15.4008 20.2695 15.2246 20.2566 15.0549C20.3862 14.9439 20.5094 14.8199 20.6326 14.6959C20.9762 14.3369 21.216 13.9518 21.4883 13.534C21.7476 13.1293 22.0198 12.705 22.3893 12.3917L22.8625 12L22.3893 11.6084ZM16.8338 12.1567C17.884 12.3852 18.8888 13.5862 19.161 14.6045C18.247 15.1332 16.6977 15.2638 15.7966 14.6763L15.1937 14.2847L15.5827 14.8917C16.1661 15.8055 16.0364 17.3656 15.5114 18.2794C14.5001 18.0052 13.3073 16.9934 13.0804 15.9361L12.9313 15.2311L12.7822 15.9361C12.5553 16.9934 11.3625 18.0052 10.3512 18.2794C9.82614 17.3591 9.6965 15.799 10.2799 14.8917L10.6689 14.2847L10.066 14.6763C9.15843 15.2638 7.6091 15.1332 6.70155 14.6045C6.97382 13.5862 7.97861 12.3852 9.02878 12.1567L9.7289 12.0066L9.02229 11.8499C7.97212 11.6215 6.96733 10.4204 6.69506 9.40213C7.6091 8.8734 9.15843 8.74285 10.0595 9.33032L10.6624 9.72197L10.2734 9.11491C9.69 8.20109 9.81965 6.64102 10.3447 5.72717C11.356 6.00134 12.5488 7.01308 12.7757 8.07052L12.9248 8.7755L13.0739 8.07052C13.3008 7.01308 14.4936 6.00134 15.5049 5.72717C16.03 6.64753 16.1596 8.2076 15.5762 9.11491L15.1872 9.72197L15.7901 9.33032C16.6977 8.74285 18.247 8.8734 19.1545 9.40213C18.8823 10.4204 17.8775 11.6215 16.8273 11.8499L16.1272 12L16.8338 12.1567ZM18.8758 6.01439C18.8953 6.41256 18.9665 6.80421 19.0443 7.20238C19.1221 7.59403 19.2194 7.92693 19.2518 8.30552C19.2259 8.29247 19.1999 8.27942 19.174 8.26636C18.5387 7.97914 17.6312 7.82901 16.9116 7.98568C17.0672 7.26113 16.9245 6.34729 16.6328 5.7076C16.6199 5.6815 16.6069 5.65539 16.5939 5.62925C16.9699 5.6619 17.3005 5.76634 17.6895 5.83815C18.0849 5.92301 18.4739 5.9948 18.8758 6.01439ZM11.9719 4.25197C12.3025 4.03005 12.6331 3.80159 12.9248 3.53396C13.2165 3.80159 13.5471 4.03005 13.8777 4.25197C14.2084 4.47392 14.5065 4.63708 14.7983 4.8786C14.7723 4.89168 14.7464 4.89819 14.714 4.91125C14.0592 5.1593 13.3202 5.70107 12.9183 6.32769C12.5164 5.7076 11.7774 5.1593 11.1226 4.91125C11.0967 4.89819 11.0708 4.89168 11.0384 4.8786C11.3431 4.63708 11.6477 4.47392 11.9719 4.25197ZM6.81175 7.20238C6.88954 6.81073 6.96084 6.4191 6.98029 6.01439C7.37573 5.9948 7.76468 5.92301 8.16013 5.84466C8.54908 5.76634 8.87969 5.66844 9.25566 5.63579C9.24271 5.6619 9.22975 5.68801 9.21677 5.71412C8.93154 6.3538 8.78245 7.26765 8.93804 7.9922C8.21847 7.83555 7.3109 7.97914 6.67561 8.27288C6.64967 8.28593 6.62376 8.29898 6.59782 8.31204C6.63672 7.92041 6.73396 7.58749 6.81175 7.20238ZM5.22999 12.9596C5.0096 12.6267 4.7827 12.2938 4.51692 12C4.7827 11.7063 5.0096 11.3734 5.22999 11.0405C5.45041 10.7076 5.61248 10.4074 5.85232 10.1136C5.8653 10.1397 5.87177 10.1658 5.88475 10.1985C6.13108 10.8577 6.66912 11.6019 7.29145 12.0066C6.67561 12.4113 6.13108 13.1554 5.88475 13.8147C5.87177 13.8408 5.8653 13.8669 5.85232 13.8995C5.61248 13.5993 5.45041 13.2925 5.22999 12.9596ZM6.98029 17.9923C6.96084 17.5941 6.88954 17.2025 6.81175 16.8043C6.73396 16.4126 6.63672 16.0797 6.60431 15.7011C6.63023 15.7142 6.65617 15.7272 6.6821 15.7403C7.31739 16.0275 8.22494 16.1776 8.9445 16.021C8.78892 16.7455 8.93155 17.6593 9.22326 18.2991C9.23622 18.3251 9.2492 18.3514 9.26216 18.3774C8.88616 18.3448 8.55555 18.2403 8.16659 18.1686C7.76468 18.0837 7.37573 18.0118 6.98029 17.9923ZM13.8777 19.7548C13.5471 19.9765 13.2165 20.205 12.9248 20.4726C12.6331 20.205 12.3025 19.9765 11.9719 19.7548C11.6413 19.5328 11.3431 19.3695 11.0513 19.1281C11.0773 19.1149 11.1032 19.1084 11.1356 19.0955C11.7904 18.8473 12.5294 18.3057 12.9313 17.679C13.3332 18.2991 14.0722 18.8473 14.727 19.0955C14.7529 19.1084 14.7788 19.1149 14.8112 19.1281C14.513 19.3695 14.2084 19.5328 13.8777 19.7548ZM19.0443 16.8043C18.9665 17.1959 18.8953 17.5876 18.8758 17.9923C18.4804 18.0118 18.0914 18.0837 17.696 18.162C17.307 18.2403 16.9764 18.3382 16.6004 18.3708C16.6134 18.3448 16.6263 18.3186 16.6393 18.2925C16.9245 17.6527 17.0736 16.7389 16.9181 16.0144C17.6376 16.1711 18.5452 16.0275 19.1805 15.7338C19.2064 15.7207 19.2323 15.7076 19.2583 15.6946C19.2194 16.0862 19.1221 16.4191 19.0443 16.8043ZM20.6261 12.9596C20.4057 13.2925 20.2436 13.5927 20.0038 13.8865C19.9908 13.8604 19.9843 13.8343 19.9713 13.8016C19.725 13.1424 19.187 12.3982 18.5646 11.9935C19.1805 11.5888 19.725 10.8447 19.9713 10.1854C19.9843 10.1593 19.9908 10.1332 20.0038 10.1006C20.2436 10.3943 20.4057 10.7011 20.6261 11.0275C20.8465 11.3604 21.0734 11.6933 21.3392 11.987C21.0669 12.3003 20.8465 12.6267 20.6261 12.9596Z" fill="#D1AA3B"/>
</svg>
