<svg width="98" height="24" viewBox="0 0 98 24" fill="currentBackgroundColor"
    xmlns="http://www.w3.org/2000/svg">
    <path
        d="M13.9983 2.00176C8.47741 2.00176 4 6.47917 4 12.0017C4 17.5242 8.47741 22 13.9983 22C19.5192 22 23.9966 17.5226 23.9966 12.0017C23.9966 6.48081 19.5208 2.00176 13.9983 2.00176ZM13.9983 19.1403C10.0557 19.1403 6.85806 15.9442 6.85806 12.0001C6.85806 8.05586 10.0557 4.86146 13.9983 4.86146C17.9408 4.86146 21.1385 8.0575 21.1385 12.0017C21.1385 15.9459 17.9425 19.1419 13.9983 19.1419V19.1403Z"
        fill="#05080D" />
    <path d="M55.9142 2.27083H53.1383V21.7391H55.9142V2.27083Z" fill="#05080D" />
    <path
        d="M68.9775 10.7087V10.7136C64.743 9.75876 64.0325 8.87608 64.0325 7.26821V7.21572C64.0325 5.60785 65.5583 4.48563 67.7371 4.48563C69.6879 4.48563 71.4008 5.13369 73.1235 6.52498L73.2072 6.59225L74.7593 4.4643L74.6821 4.40195C72.5755 2.71533 70.5149 2 67.7913 2C64.0194 2 61.2844 4.29366 61.2844 7.44869V7.50119C61.2844 11.1173 63.8996 12.4002 67.8225 13.214C71.8028 14.0754 72.5542 15.0516 72.5542 16.5511V16.6037C72.5542 18.3477 70.966 19.5142 68.61 19.5142C66.254 19.5142 64.3295 18.7563 62.2491 16.894L62.172 16.8219L60.4755 18.835L60.5526 18.9022C62.8463 20.9563 65.5337 21.9998 68.5329 21.9998C72.5854 21.9998 75.304 19.7374 75.304 16.3641V16.3116C75.304 13.3436 73.473 11.7194 68.9791 10.7071L68.9775 10.7087Z"
        fill="#05080D" />
    <path
        d="M94.2161 4.78271V2.27083H79.852V21.7408H94.2161V19.2338H82.5984V13.1945H94.2161V10.6875H82.5984V4.78271H94.2161Z"
        fill="#05080D" />
    <path
        d="M28.4314 21.7145H31.2222V9.41435C30.1262 8.59893 29.1812 7.59155 28.4314 6.44636V21.7145Z"
        fill="#05080D" />
    <path
        d="M45.0565 9.41435V21.7145H47.8474V6.44636C47.0976 7.59319 46.1526 8.59893 45.0565 9.41435Z"
        fill="#05080D" />
    <path
        d="M44.8529 2.27087C43.9391 5.10761 41.2795 7.16009 38.1392 7.16009C34.999 7.16009 32.3395 5.10761 31.4256 2.27087H28.4314C29.4191 6.72367 33.3895 10.0526 38.1392 10.0526C42.889 10.0526 46.8578 6.72203 47.8471 2.27087H44.8529Z"
        fill="#3333FF" />
</svg>