<svg width="116" height="24" viewBox="0 0 116 24" fill="currentBackgroundColor" xmlns="http://www.w3.org/2000/svg">
<path fill-rule="evenodd" clip-rule="evenodd" d="M27.7862 10.7403L27.7284 10.7729L21.7006 7.37584V6.68634L22.3018 6.3479L28.3391 9.7502V9.75545L34.3764 6.3479L34.9776 6.68845V7.36533L28.9445 10.7729L28.8919 10.7445V17.2516L28.3422 17.5775L27.7852 17.2443V10.7403H27.7862Z" fill="#FBC753"/>
<path fill-rule="evenodd" clip-rule="evenodd" d="M64.2975 10.7971L64.2418 10.8286L58.2119 7.43052V6.74207L58.811 6.40363L64.8504 9.80697V9.86688L70.8887 6.45828L71.4878 6.79883V7.47676L65.4568 10.8843L65.4043 10.8538V17.3074L64.8514 17.6332L64.2975 17.3V10.7971Z" fill="#92C74C"/>
<path fill-rule="evenodd" clip-rule="evenodd" d="M104.68 10.796L104.622 10.8275L98.5946 7.43047V6.74097L99.1958 6.40253L105.233 9.80482V9.81008L111.27 6.40253L111.872 6.74202V7.41996L105.839 10.8286L105.786 10.7991V17.2527L105.236 17.5774L104.679 17.2443V10.796H104.68Z" fill="#EE5A85"/>
<path fill-rule="evenodd" clip-rule="evenodd" d="M95.5025 8.52886L98.1627 14.1457H92.8149L95.5025 8.52886ZM99.9359 17.9044L100.78 17.9716L101.251 17.301L95.9839 6.16291H95.0295L89.7384 17.301L90.2051 17.9716L91.046 17.9044L92.2368 15.4154H98.7503L99.9348 17.9044H99.9359ZM38.9142 8.52886L41.5766 14.1457H36.2288L38.9142 8.52886ZM43.3539 17.9044L44.1937 17.9716L44.6646 17.301L39.3988 6.16291H38.4476L33.1544 17.301L33.6242 17.9716L34.463 17.9044L35.6465 15.4154H42.1662L43.3539 17.9044ZM17.38 8.52886L20.0403 14.1457H14.6925L17.38 8.52886ZM21.8176 17.9044L22.6616 17.9716L23.1304 17.301L17.8635 6.16291H16.9134L11.616 17.301L12.0879 17.9716L12.9288 17.9044L14.1154 15.4154H20.631L21.8187 17.9044H21.8176ZM47.8168 6.13874H46.7447V17.6342L47.4752 18L48.2025 17.6342V9.03337L55.1479 17.9622H56.2221V6.52763L55.4811 6.13874L54.7622 6.52763V15.0497L47.8168 6.13874ZM90.8452 6.82403L90.4395 6.14715L89.5356 6.18709L85.1611 15.51L80.7382 6.21652L79.8553 6.14715L79.3834 6.82403L81.0693 10.3819L78.6171 15.5794L74.1396 6.2018L73.2515 6.14715L72.768 6.82403L78.1074 17.9611H79.0292L81.8355 11.9806L84.687 17.9611H85.6298L90.8452 6.82403ZM5.45993 7.32434H7.0155C7.97197 7.32434 8.68985 7.55347 9.18595 8.04222C9.61058 8.46159 9.8292 9.0586 9.8292 9.79855C9.8292 10.6415 9.52649 11.2774 9.00622 11.6989C8.4933 12.1014 7.8059 12.2896 7.01655 12.2896C6.24717 12.2896 5.76579 12.2528 5.45993 12.2076V7.32434ZM7.0155 13.575C8.24104 13.575 9.39091 13.1966 10.1897 12.5082C10.9339 11.8576 11.39 10.9358 11.39 9.79855C11.39 8.68021 11.0148 7.80152 10.3936 7.16353C9.63896 6.38994 8.4933 6 7.01655 6H4V17.5932L4.73049 18L5.45993 17.5932V13.5099C5.76579 13.5487 6.41429 13.575 7.0155 13.575Z" fill="black"/>
</svg>
