<svg width="71" height="24" viewBox="0 0 71 24" xmlns="http://www.w3.org/2000/svg">
    <path fill-rule="evenodd" clip-rule="evenodd"
          d="M4 14.7341C4 10.2388 5.47286 2 11.4717 2C16.013 2 22.5949 7.45267 22.5949 12.6307C22.5949 16.4202 16.9643 21.1304 13.006 21.1304C9.52325 21.1304 9.21637 16.9112 9.21637 13.9962C9.21637 11.5568 9.83008 7.82854 12.2388 7.82854C14.3867 7.82854 17.2711 10.3293 17.2711 12.5847C17.2711 14.9014 13.3343 16.2622 11.8108 15.8695C12.0394 17.5709 12.4997 18.6311 13.2821 18.6311C16.1205 18.6311 19.9867 15.133 19.9867 12.6629C19.9867 9.19554 15.1385 4.80765 11.6712 4.80765C7.48271 4.80765 6.6082 11.2975 6.6082 14.5193C6.6082 16.744 7.19121 20.1653 8.77146 21.853C5.53423 22.8349 4 18.7231 4 14.7341ZM12.6991 10.4536C11.7325 10.4536 11.6865 12.8163 11.6865 13.5681V14.0897C12.8985 14.0897 14.7857 13.5835 14.7857 12.4328C14.7857 11.6503 13.4048 10.4536 12.6991 10.4536ZM25.3258 12.0185C25.3105 9.34896 26.2771 8.25962 27.4124 8.25962C29.8672 8.25962 32.0151 10.4229 32.0151 11.9572C32.0151 14.145 29.1676 16.1563 27.1056 15.512V18.0634C25.9549 18.0634 25.3412 16.9894 25.3412 15.9768L25.3258 12.0185ZM27.1056 12.0032V14.013C28.6245 14.4426 30.128 13.0771 30.128 12.1259C30.128 11.1747 28.6245 10.0087 27.7039 10.0087C27.2283 10.0087 27.1056 10.7605 27.1056 12.0032ZM35.4058 8.12158C34.0403 8.12158 32.5061 8.68925 33.0277 10.2081C33.6952 9.89712 34.424 9.73983 35.1603 9.74787C36.2342 9.74787 36.7559 10.1467 36.7559 10.8679V11.388C34.9608 10.4199 32.5521 11.0658 32.5521 13.292C32.5521 14.8415 33.7181 15.7927 35.6206 15.7927C37.1855 15.7927 38.5356 14.6574 38.5356 13.1539V10.8065C38.5356 9.22621 37.2622 8.12158 35.4058 8.12158ZM35.5592 14.2585C34.7307 14.2585 34.3165 13.7675 34.3165 13.2612C34.3165 12.755 34.7307 12.2487 35.5899 12.2487H36.7559V13.0465C36.7559 13.7829 36.2956 14.2585 35.5592 14.2585ZM42.5492 13.2107L43.752 9.60063C44.0282 8.75067 45.2402 8.19833 46.1146 8.44996L42.8775 16.6888C42.4325 17.8548 41.3893 18.2537 40.4841 17.9622L41.5672 15.3448L38.597 8.48063C39.5175 8.15846 40.5915 8.57267 41.0518 9.662L42.5492 13.2107ZM48.4621 13.3687V5.6668C47.3112 5.6668 46.6979 6.74075 46.6979 7.75337V13.7369C46.6979 15.1177 47.5262 15.7927 48.3088 15.7927C49.0296 15.7927 49.6896 15.3785 49.6896 14.2585H49.2292C48.6617 14.2585 48.4621 13.875 48.4621 13.3687ZM50.38 10.2081C49.8583 8.68925 51.3925 8.12158 52.7579 8.12158C54.6142 8.12158 55.8879 9.22621 55.8879 10.8065V13.1539C55.8879 14.6574 54.5375 15.7927 52.9729 15.7927C51.0704 15.7927 49.9042 14.8415 49.9042 13.292C49.9042 11.0658 52.3129 10.4199 54.1079 11.388V10.8679C54.1079 10.1467 53.5863 9.74787 52.5125 9.74787C51.7762 9.73983 51.0475 9.89712 50.38 10.2081ZM51.6687 13.2612C51.6687 13.7675 52.0829 14.2585 52.9113 14.2585C53.6479 14.2585 54.1079 13.7829 54.1079 13.0465V12.2487H52.9421C52.0829 12.2487 51.6687 12.755 51.6687 13.2612ZM59.125 9.978C59.3338 9.99137 59.5425 9.96142 59.7392 9.89008C59.9354 9.81871 60.115 9.70746 60.2663 9.56337C60.4175 9.41925 60.5375 9.24538 60.6183 9.05271C60.6992 8.86004 60.7392 8.65271 60.7358 8.44375H58.9208V6.12707C57.7704 6.12707 57.1567 7.20104 57.1567 8.21362V13.7369C57.1567 15.1177 58.0467 15.7927 58.8904 15.7927C59.6729 15.7927 60.3937 15.3785 60.3937 14.2585H59.6879C59.1204 14.2585 58.9208 13.875 58.9208 13.3687V9.96571L59.125 9.978ZM62.7458 12.5862C62.7458 13.6602 63.2675 14.2278 64.3412 14.2278C65.0829 14.2368 65.8154 14.063 66.4742 13.7215C66.9496 15.2251 65.4921 15.7927 64.2187 15.7927C62.0708 15.7927 60.9662 14.4426 60.9662 12.4941V11.3742C60.9662 9.51775 62.3162 8.12158 63.9733 8.12158C65.8142 8.12158 66.9496 9.07279 66.9496 10.6224C66.9496 12.8501 64.5408 13.496 62.7458 12.5279V12.5862ZM65.1854 10.6531C65.1854 10.1468 64.7708 9.65579 63.9425 9.65579C63.2062 9.65579 62.7458 10.3677 62.7458 11.4417V11.6657H63.9117C64.7708 11.6657 65.1854 11.1594 65.1854 10.6531Z"
          fill="#EB3B66"/>
</svg>
