<svg width="63" height="24" viewBox="0 0 63 24" fill="currentBackgroundColor" xmlns="http://www.w3.org/2000/svg">
<path d="M20.0672 15.8319C20.0672 16.1008 20.1345 16.3697 20.4706 16.3697H22.2185C22.5546 16.3697 22.6218 16.1008 22.6218 15.8319V10.521C22.6218 10.1849 22.6218 9.84874 22.5546 9.57983C22.4874 9.31092 22.4202 9.04202 22.3529 8.84034C22.2857 8.63866 22.1513 8.43697 22.0168 8.30252C21.8824 8.16807 21.6807 8.03361 21.5462 7.89916C21.3445 7.76471 21.1429 7.69748 20.9412 7.56303C20.7395 7.4958 20.4706 7.42857 20.2689 7.36134C20 7.29412 19.7311 7.29412 19.4622 7.22689C19.1933 7.22689 18.8571 7.22689 18.4538 7.22689C16.0336 7.22689 14.6891 7.96639 14.3529 9.44538C14.3529 9.51261 14.3529 9.57983 14.3529 9.64706C14.3529 9.71429 14.3529 9.78151 14.4202 9.78151C14.4874 9.84874 14.4874 9.84874 14.5546 9.91597C14.6218 9.91597 14.6891 9.98319 14.7563 9.98319H16.2353C16.6387 9.98319 16.6387 9.84874 16.7731 9.51261C16.8403 9.31092 16.9748 9.17647 17.1092 9.04202C17.3782 8.77311 17.7815 8.70588 18.3193 8.70588C18.8571 8.70588 19.2605 8.84034 19.5294 9.04202C19.7983 9.2437 19.9328 9.57983 19.9328 9.98319C19.9328 10.4538 19.7983 10.7899 19.1933 10.7899C17.7143 10.7227 16.1681 10.9244 15.2941 11.395C14.4202 11.8655 13.8824 12.8739 13.8824 13.9496C13.8824 14.3529 13.9496 14.7563 14.1513 15.0924C14.2857 15.4286 14.5546 15.6975 14.8235 15.8992C15.0924 16.1008 15.4286 16.3025 15.8319 16.3697C16.2353 16.5042 16.6387 16.5714 17.1092 16.5042C17.7143 16.5042 18.2521 16.437 18.7899 16.3025C19.2605 16.1681 20.0672 15.6303 20.1345 15.563L20.0672 15.8319ZM20 13.9496C20 13.9496 19.5294 14.8908 17.9832 14.8908C17.5798 14.8908 17.2437 14.8235 16.9076 14.6218C16.6387 14.4202 16.5042 14.1513 16.5042 13.6807C16.5042 13.1429 16.7059 12.7395 17.1765 12.5378C17.6471 12.3361 18.521 12.2017 19.1933 12.2017C19.8655 12.2017 20.0672 12.605 20.0672 12.9412C20 13.0084 20 13.9496 20 13.9496ZM4.53782 16.3025H6.28571C6.7563 16.3025 6.68908 15.7647 6.68908 15.7647V14.2857C5.41176 13.8151 4.60504 13.2101 4 12.605V15.6975C4.06723 15.8319 4 16.3025 4.53782 16.3025ZM13.6807 7.76471C13.6807 7.36134 13.6134 7.02521 13.5462 6.62185C13.479 6.28571 13.2773 5.88235 13.0756 5.61345C12.8739 5.27731 12.605 5.0084 12.3361 4.80672C12.0672 4.60504 11.7311 4.40336 11.395 4.33613C11.0588 4.20168 10.6555 4.06723 10.2521 4.06723C9.78151 4 9.37815 4 8.84034 4H4.80672C4.47059 4 4.06723 4.20168 4.06723 4.67227V11.1261C4.60504 12.2017 5.54622 13.3445 6.68908 13.8824V12.605C6.68908 11.9328 7.22689 11.7983 7.42857 11.7983H8.63866C10.3193 11.7983 11.5294 11.4622 12.4034 10.7899C13.2773 10.1176 13.6807 9.10924 13.6807 7.76471ZM10.7899 8.90756C10.6555 9.10924 10.4538 9.31092 10.1849 9.44538C9.91597 9.57983 9.57983 9.64706 9.31092 9.64706C8.97479 9.64706 8.63866 9.71429 8.30252 9.71429H7.15966C6.89076 9.71429 6.68908 9.51261 6.68908 9.17647V6.55462C6.68908 6.48739 6.68908 6.42017 6.68908 6.42017C6.68908 6.35294 6.7563 6.28571 6.7563 6.28571C6.82353 6.21849 6.82353 6.21849 6.89076 6.21849C6.95798 6.21849 7.02521 6.21849 7.02521 6.21849H8.16807C8.57143 6.21849 8.90756 6.21849 9.2437 6.21849C9.51261 6.21849 9.84874 6.28571 10.1176 6.42017C10.3866 6.55462 10.5882 6.68908 10.6555 6.95798C10.7899 7.15966 10.8571 7.4958 10.8571 7.96639C10.9916 8.23529 10.9244 8.57143 10.7899 8.90756ZM24.7059 17.8487C24.5714 17.8487 24.437 17.8487 24.3025 17.8487C24.1681 17.8487 23.8319 17.8487 23.8319 18.1176V19.3277C23.8319 19.7983 24.0336 19.7983 24.1681 19.8655C24.5042 19.9328 24.9076 20 25.3109 20C25.7815 20 26.1849 19.9328 26.5882 19.7311C26.9916 19.5294 27.3277 19.3277 27.5966 18.9916C27.8655 18.6555 28.1345 18.2521 28.3361 17.8487C28.5378 17.3782 28.7395 16.9076 28.9412 16.3697C28.9412 16.3697 29.0084 16.1681 29.2101 15.7647C28.8067 16.1008 26.7227 18.0504 24.7059 17.8487ZM31.6975 7.42857H30.1513C30.0168 7.42857 29.8824 7.4958 29.7479 7.56303C29.6134 7.63025 29.5462 7.76471 29.479 7.89916C29.3445 8.23529 27.6639 12.8739 27.6639 12.8739C27.6639 12.8739 26.0504 8.36975 25.916 8.03361C25.7815 7.69748 25.5798 7.42857 25.1765 7.42857H23.6975C23.1597 7.42857 23.1597 7.83193 23.2269 7.96639C23.2941 8.10084 25.2437 13.479 26.0504 15.563C26.2521 16.0336 26.3193 16.1681 26.3193 16.3697C26.3193 16.5714 26.1176 16.9076 25.9832 17.1765C25.916 17.2437 25.8487 17.3782 25.7815 17.4454C27.2605 16.9748 29.0084 15.4286 29.8824 13.6807C30.7563 11.2605 31.8992 8.10084 31.9664 7.89916C32.1008 7.63025 32.1008 7.42857 31.6975 7.42857Z" fill="#232225"/>
<path d="M52.2689 9.37814C51.3277 9.37814 50.7226 9.98319 50.5882 11.0588H53.8823C53.8151 10.1176 53.2773 9.37814 52.2689 9.37814Z" fill="#33CCCC"/>
<path d="M59.1933 11.0588C58.8572 10.6555 56.7731 7.96639 56.0336 7.2269C55.1597 6.35295 54.4202 5.94958 53.6135 5.94958H35.8656C34.2521 5.94958 33.7143 6.4874 33.7143 8.30253V15.6303C33.7143 17.4454 33.8487 18.2521 36.2017 18.2521H53.6135C54.4202 18.2521 55.2941 17.5798 55.8992 16.9076C56.6387 16.1681 58.8572 13.8151 59.1933 13.2101C59.395 12.874 59.4622 12.5378 59.4622 12.1345C59.5294 11.7311 59.395 11.3277 59.1933 11.0588ZM35.3277 8.50421C35.3277 8.2353 35.395 8.03362 35.7311 8.03362H37.2101C37.6135 8.03362 37.6135 8.2353 37.6135 8.50421V8.57143C36.874 8.9748 36.0672 9.37816 35.3277 10.3866V8.50421ZM46.958 15.8319H45.4118C45.0084 15.8319 45.0756 15.4958 45.0756 15.3613V10.8571C45.0756 10.3193 45.0084 9.9832 44.874 9.78152C44.8067 9.64706 44.6723 9.57984 44.5378 9.51261C44.4034 9.44538 44.2689 9.44538 44.1345 9.44538C43.3277 9.44538 42.7899 10.2521 42.521 10.5882V15.4286C42.521 15.563 42.5882 15.8319 42.1177 15.8319H40.6387C40.2353 15.8319 40.3025 15.4958 40.3025 15.3613V10.8571C40.3025 10.3193 40.2353 9.9832 40.1008 9.78152C39.9664 9.57984 39.6975 9.44538 39.3614 9.44538C38.4874 9.44538 38.0168 10.2521 37.7479 10.5882V15.4286C37.7479 15.563 37.8151 15.8319 37.3445 15.8319H35.7983C35.395 15.8319 35.4622 15.4958 35.4622 15.3613V12.4034C35.4622 10.4538 37.8824 8.57143 38.0168 8.43698C38.6219 7.96639 39.3614 7.76471 40.1008 7.76471C40.6387 7.76471 41.1093 7.83194 41.5798 8.10085C41.9832 8.36975 42.2521 8.70589 42.4538 9.17648C42.7899 8.77311 43.1933 8.43698 43.6639 8.16807C44.0672 7.89916 44.5378 7.83194 45.0084 7.83194C46.7563 7.83194 47.563 8.77311 47.563 10.7227V15.4286C47.3614 15.563 47.4286 15.8319 46.958 15.8319ZM55.4958 12.4034H50.5882C50.5882 13.6807 51.2605 14.3529 52.3361 14.3529C53.0084 14.3529 53.4118 14.084 53.7479 13.479C53.8151 13.4118 53.8824 13.3445 53.9496 13.2773C54.0168 13.2101 54.1513 13.2101 54.2185 13.2101H55.4958C55.563 13.2101 55.563 13.2101 55.6303 13.2101C55.6975 13.2101 55.6975 13.2773 55.6975 13.2773L55.7647 13.3445C55.7647 13.4118 55.7647 13.4118 55.7647 13.479C55.2269 14.8908 53.9496 15.6975 52.3361 15.6975C49.9832 15.6975 48.5042 14.1513 48.5042 11.7983C48.5042 9.51261 50.1177 7.83194 52.2689 7.83194C54.4874 7.83194 55.8992 9.31093 55.9664 11.7311C55.9664 12.0672 55.8992 12.4034 55.4958 12.4034Z" fill="#33CCCC"/>
</svg>
