<svg width="98" height="24" viewBox="0 0 98 24" fill="currentBackgroundColor" xmlns="http://www.w3.org/2000/svg">
<path fill-rule="evenodd" clip-rule="evenodd" d="M39.7756 8.07259C39.7756 8.50164 39.7096 8.86467 39.5776 9.1617C39.4456 9.49174 39.2476 9.75576 39.0165 9.95378C38.7855 10.1848 38.4555 10.3498 38.0925 10.4488C37.7294 10.5478 37.3004 10.6138 36.8383 10.6138H36.2113V12.9901C36.2113 13.0231 36.2113 13.0561 36.1783 13.0891C36.1453 13.1221 36.1123 13.1551 36.0463 13.1551C35.9802 13.1881 35.9142 13.1881 35.8152 13.1881C35.7693 13.1881 35.7162 13.1952 35.6594 13.2028C35.5937 13.2116 35.5229 13.2211 35.4522 13.2211C35.3202 13.2211 35.1882 13.2211 35.0892 13.1881C35.0346 13.1881 34.9901 13.1781 34.9501 13.1691C34.9175 13.1618 34.8878 13.1551 34.8581 13.1551C34.8329 13.1425 34.8125 13.1347 34.7951 13.1281C34.7669 13.1173 34.7465 13.1095 34.7261 13.0891C34.6931 13.0561 34.6931 13.0231 34.6931 12.9901V6.35642C34.6931 6.19141 34.7261 6.05939 34.8251 5.96038C34.9241 5.86137 35.0562 5.82837 35.1882 5.82837H36.9373C37.1024 5.82837 37.2674 5.82837 37.4324 5.86137C37.5974 5.86137 37.7954 5.89438 37.9934 5.96038C38.1893 5.98836 38.3614 6.06376 38.55 6.1464C38.5839 6.16124 38.6183 6.17632 38.6535 6.19141C38.8845 6.32342 39.0826 6.45543 39.2476 6.65345C39.4126 6.81847 39.5446 7.04949 39.6106 7.28051C39.7096 7.51154 39.7756 7.77556 39.7756 8.07259ZM38.1915 8.1716C38.1915 7.90758 38.1585 7.70956 38.0595 7.54454C37.9604 7.37952 37.8614 7.24751 37.7294 7.1815C37.5974 7.1155 37.4654 7.04949 37.3004 7.01649C37.1684 6.98348 37.0033 6.98348 36.8383 6.98348H36.2113V9.49174H36.8713C37.1024 9.49174 37.3004 9.45873 37.4654 9.39273C37.6304 9.32672 37.7624 9.22771 37.8614 9.1287C37.9604 8.99669 38.0264 8.86467 38.0925 8.69966C38.1585 8.53464 38.1915 8.36962 38.1915 8.1716Z" fill="#1A6582"/>
<path fill-rule="evenodd" clip-rule="evenodd" d="M45.9472 13.0231C45.9472 13.0891 45.9142 13.1221 45.8812 13.1551C45.8482 13.1881 45.7822 13.2211 45.7162 13.2211C45.6906 13.2211 45.6552 13.2261 45.6117 13.2321C45.543 13.2417 45.4543 13.2541 45.3532 13.2541C45.1882 13.2541 45.0562 13.2541 44.9901 13.2211C44.9241 13.2211 44.8581 13.1881 44.8251 13.1551C44.7921 13.1221 44.7921 13.0891 44.7921 13.0231V12.6271C44.5941 12.8581 44.3301 13.0231 44.0661 13.1551C43.802 13.2871 43.505 13.3531 43.175 13.3531C42.9109 13.3531 42.6469 13.3201 42.4159 13.2541C42.1849 13.1881 41.9868 13.0891 41.8218 12.9241C41.6568 12.7921 41.5248 12.6271 41.4258 12.396C41.3268 12.198 41.2938 11.934 41.2938 11.67C41.2938 11.3729 41.3598 11.1089 41.4588 10.9109C41.5908 10.6799 41.7558 10.5148 41.9868 10.3828C42.2179 10.2508 42.5149 10.1188 42.8449 10.0528C43.175 9.98679 43.571 9.95379 44.0331 9.95379H44.5281V9.65676C44.5281 9.49174 44.5281 9.35973 44.4951 9.22771C44.4621 9.0957 44.3961 8.99669 44.3301 8.93068C44.2641 8.86468 44.1651 8.79867 44.0331 8.76567C43.901 8.73266 43.769 8.69966 43.571 8.69966C43.34 8.69966 43.109 8.73266 42.9439 8.76567C42.8738 8.78905 42.8078 8.80829 42.7459 8.82632C42.6332 8.85919 42.5341 8.88806 42.4489 8.93068C42.3169 8.99669 42.1849 9.0627 42.0859 9.0957C41.9868 9.16171 41.9208 9.16171 41.8548 9.16171C41.8218 9.16171 41.7888 9.16171 41.7558 9.1287C41.7228 9.0957 41.6898 9.0627 41.6898 9.02969C41.6568 8.99669 41.6568 8.93069 41.6568 8.83168C41.6568 8.79868 41.6486 8.75742 41.6403 8.71616C41.6321 8.67491 41.6238 8.63365 41.6238 8.60065C41.6238 8.46864 41.6238 8.40263 41.6568 8.33662L41.7558 8.1386C41.8218 8.0726 41.8878 8.00659 42.0198 7.94058C42.1519 7.87458 42.3169 7.80857 42.4819 7.74256C42.6469 7.67656 42.8449 7.64356 43.076 7.61055C43.274 7.57755 43.505 7.54454 43.736 7.54454C44.1321 7.54454 44.4621 7.57755 44.7591 7.67656C45.0562 7.74257 45.2872 7.87458 45.4522 8.03959C45.6502 8.20461 45.7822 8.40263 45.8482 8.66666C45.9472 8.93068 45.9802 9.22771 45.9802 9.55775V13.0231H45.9472ZM44.5281 10.8449H43.967C43.736 10.8449 43.538 10.8779 43.373 10.9109C43.208 10.9439 43.076 11.0099 42.9769 11.0759C42.8779 11.1419 42.8119 11.2409 42.7459 11.3399C42.7129 11.4389 42.6799 11.5379 42.6799 11.67C42.6799 11.868 42.7459 12.066 42.8779 12.165C43.0099 12.297 43.208 12.363 43.439 12.363C43.637 12.363 43.835 12.297 44 12.198C44.1651 12.099 44.3301 11.934 44.5281 11.736V10.8449Z" fill="#1A6582"/>
<path d="M50.4687 15.0363L51.0958 13.2211L52.8119 8.20461C52.8449 8.1056 52.8449 8.00659 52.8449 7.94058C52.8449 7.87457 52.8449 7.80857 52.7789 7.77556C52.7459 7.70956 52.6469 7.67655 52.5479 7.67655C52.4489 7.64355 52.3169 7.64355 52.1519 7.64355C52.0359 7.64355 51.9425 7.65488 51.8652 7.66426C51.8105 7.67089 51.7638 7.67655 51.7228 7.67655C51.6568 7.67655 51.5908 7.70956 51.5578 7.74256C51.5248 7.77556 51.4918 7.84157 51.4588 7.94058L50.3697 11.4059H50.3367L49.1156 8.00659C49.1156 7.90758 49.0826 7.84157 49.0496 7.80857C49.0165 7.77556 48.9835 7.74256 48.9175 7.70956C48.8879 7.70956 48.8582 7.70289 48.8255 7.69555C48.7855 7.68656 48.741 7.67655 48.6865 7.67655H48.2905C48.1975 7.67655 48.1045 7.68703 48.0233 7.69618C47.9604 7.70327 47.9046 7.70956 47.8614 7.70956C47.7624 7.74256 47.6634 7.77556 47.6304 7.80857C47.5974 7.84157 47.5644 7.90758 47.5644 7.97358C47.5644 8.0219 47.5821 8.08791 47.6045 8.1716C47.6127 8.20224 47.6216 8.23524 47.6304 8.27061L49.3796 12.9571C49.4126 13.0231 49.4456 13.0891 49.4786 13.1221C49.5116 13.1551 49.5446 13.1881 49.6106 13.2211L48.9505 14.9373C48.9175 15.0033 48.9175 15.0693 48.9175 15.1023C48.9175 15.1353 48.9505 15.1683 48.9835 15.2013C49.0165 15.2343 49.0826 15.2673 49.1816 15.2673C49.2806 15.3003 49.3796 15.3003 49.5446 15.3003C49.8416 15.3003 50.0397 15.2673 50.2047 15.2343C50.3367 15.2013 50.4357 15.1353 50.4687 15.0363Z" fill="#1A6582"/>
<path d="M63.373 13.0231C63.373 13.0561 63.373 13.0891 63.34 13.1221C63.307 13.1551 63.274 13.1881 63.241 13.1881C63.175 13.2211 63.109 13.2211 63.01 13.2211C62.9667 13.2211 62.9235 13.2274 62.8748 13.2345C62.8119 13.2436 62.7399 13.2541 62.6469 13.2541C62.5149 13.2541 62.3829 13.2541 62.3169 13.2211C62.2624 13.2211 62.2179 13.2111 62.1779 13.2021C62.1452 13.1948 62.1155 13.1881 62.0859 13.1881C62.0665 13.1784 62.05 13.1716 62.0364 13.1659C62.0033 13.1523 61.9868 13.1454 61.9868 13.1221C61.9538 13.0891 61.9538 13.0561 61.9538 13.0231V6.98348L59.8086 12.9901C59.8086 13.0561 59.7756 13.0891 59.7426 13.1221C59.7096 13.1551 59.6766 13.1881 59.6106 13.1881C59.5446 13.2211 59.4786 13.2211 59.3796 13.2211H58.7195C58.665 13.2211 58.6205 13.2111 58.5805 13.2021C58.5478 13.1948 58.5182 13.1881 58.4885 13.1881C58.4633 13.1755 58.4429 13.1677 58.4255 13.1611C58.3973 13.1503 58.3769 13.1425 58.3565 13.1221C58.3235 13.0891 58.2905 13.0561 58.2905 13.0231L56.2443 7.01649V13.0231C56.2443 13.0561 56.2443 13.0891 56.2113 13.1221C56.1783 13.1551 56.1453 13.1881 56.0793 13.1881C56.0133 13.2211 55.9472 13.2211 55.8482 13.2211C55.8023 13.2211 55.7563 13.2282 55.7071 13.2358C55.6502 13.2446 55.5889 13.2541 55.5182 13.2541C55.3862 13.2541 55.2542 13.2541 55.1882 13.2211C55.1337 13.2211 55.0892 13.2111 55.0491 13.2021C55.0165 13.1948 54.9868 13.1881 54.9571 13.1881C54.9378 13.1784 54.9213 13.1716 54.9076 13.1659C54.8746 13.1523 54.8581 13.1454 54.8581 13.1221C54.8251 13.0891 54.8251 13.0561 54.8251 13.0231V6.42243C54.8251 6.22441 54.8911 6.0924 54.9901 5.99339C55.0892 5.89438 55.2212 5.82837 55.3862 5.82837H56.3763C56.5413 5.82837 56.7063 5.82837 56.8383 5.86137C56.9703 5.89438 57.0694 5.92738 57.1684 5.99339C57.2674 6.05939 57.3334 6.1584 57.3994 6.25741C57.4442 6.32466 57.4738 6.40714 57.5089 6.50484C57.5254 6.55094 57.5433 6.60058 57.5644 6.65345L59.1486 11.0429H59.1816L60.8317 6.65345C60.8529 6.60058 60.8706 6.5511 60.8872 6.505C60.9222 6.4073 60.9519 6.32466 60.9967 6.25741C61.0628 6.1584 61.1288 6.05939 61.1948 5.99339C61.2608 5.92738 61.3598 5.86137 61.4588 5.86137C61.5578 5.82837 61.6898 5.82837 61.8218 5.82837H62.8449C62.9439 5.82837 63.043 5.82837 63.109 5.86137C63.175 5.89438 63.241 5.92738 63.307 5.99339C63.318 6.01539 63.3326 6.03372 63.3473 6.05206C63.3767 6.08873 63.406 6.1254 63.406 6.19141C63.439 6.25741 63.439 6.35642 63.439 6.45543V13.0231H63.373Z" fill="#1A6582"/>
<path fill-rule="evenodd" clip-rule="evenodd" d="M70.1717 13.1551C70.2047 13.1221 70.2377 13.0891 70.2377 13.0231H70.2707V9.55775C70.2707 9.22771 70.2377 8.93068 70.1387 8.66666C70.0726 8.40263 69.9406 8.20461 69.7426 8.03959C69.5776 7.87458 69.3466 7.74257 69.0495 7.67656C68.7525 7.57755 68.4225 7.54454 68.0264 7.54454C67.7954 7.54454 67.5644 7.57755 67.3664 7.61055C67.1354 7.64356 66.9373 7.67656 66.7723 7.74256C66.6073 7.80857 66.4423 7.87458 66.3103 7.94058C66.1783 8.00659 66.1122 8.0726 66.0462 8.1386L65.9472 8.33662C65.9142 8.40263 65.9142 8.46863 65.9142 8.60062C65.9142 8.63362 65.9225 8.67491 65.9307 8.71616C65.939 8.75742 65.9472 8.79867 65.9472 8.83167C65.9472 8.93068 65.9472 8.99669 65.9802 9.02969C65.9802 9.0627 66.0132 9.0957 66.0462 9.1287C66.0792 9.16171 66.1123 9.16171 66.1453 9.16171C66.2113 9.16171 66.2773 9.16171 66.3763 9.0957C66.4753 9.0627 66.6073 8.99669 66.7393 8.93068C66.8246 8.88806 66.9236 8.8592 67.0363 8.82633C67.0982 8.80829 67.1642 8.78905 67.2344 8.76567C67.3994 8.73266 67.6304 8.69966 67.8614 8.69966C68.0594 8.69966 68.1915 8.73266 68.3235 8.76567C68.4555 8.79867 68.5545 8.86468 68.6205 8.93068C68.6865 8.99669 68.7525 9.0957 68.7855 9.22771C68.8185 9.35972 68.8185 9.49172 68.8185 9.65672V9.95379H68.3235C67.8614 9.95379 67.4654 9.98679 67.1354 10.0528C66.8053 10.1188 66.5083 10.2508 66.2773 10.3828C66.0462 10.5148 65.8812 10.6799 65.7492 10.9109C65.6502 11.1089 65.5842 11.3729 65.5842 11.67C65.5842 11.934 65.6172 12.198 65.7162 12.396C65.8152 12.6271 65.9472 12.7921 66.1122 12.9241C66.2773 13.0891 66.4753 13.1881 66.7063 13.2541C66.9373 13.3201 67.2014 13.3531 67.4654 13.3531C67.7954 13.3531 68.0924 13.2871 68.3565 13.1551C68.6205 13.0231 68.8845 12.8581 69.0825 12.6271V13.0231C69.0825 13.0891 69.0825 13.1221 69.1156 13.1551C69.1486 13.1881 69.2146 13.2211 69.2806 13.2211C69.3466 13.2541 69.4786 13.2541 69.6436 13.2541C69.7447 13.2541 69.8334 13.2417 69.9021 13.2321C69.9456 13.2261 69.9811 13.2211 70.0066 13.2211C70.0726 13.2211 70.1387 13.1881 70.1717 13.1551ZM68.2575 10.8449H68.8185V11.736C68.6205 11.934 68.4555 12.099 68.2905 12.198C68.1255 12.297 67.9274 12.363 67.7294 12.363C67.4984 12.363 67.3004 12.297 67.1684 12.165C67.0363 12.066 66.9703 11.868 66.9703 11.67C66.9703 11.5379 67.0033 11.4389 67.0363 11.3399C67.1023 11.2409 67.1684 11.1419 67.2674 11.0759C67.3664 11.0099 67.4984 10.9439 67.6634 10.9109C67.8284 10.8779 68.0264 10.8449 68.2575 10.8449Z" fill="#1A6582"/>
<path d="M76.2443 11.5709C76.2443 11.868 76.1783 12.099 76.0792 12.33C75.9802 12.561 75.8152 12.7261 75.6172 12.8911C75.4192 13.0231 75.1882 13.1551 74.9241 13.2211C74.6601 13.2871 74.3631 13.3201 74.033 13.3201C73.835 13.3201 73.67 13.3201 73.472 13.2871C73.307 13.2541 73.142 13.2211 73.0099 13.1881C72.8779 13.1551 72.7459 13.0891 72.6799 13.0561C72.5809 13.0231 72.5149 12.9571 72.4819 12.9241C72.4489 12.8911 72.4159 12.8251 72.3829 12.7261C72.3499 12.6271 72.3499 12.5281 72.3499 12.3301V12.066C72.3499 12.0273 72.3612 11.9887 72.3706 11.9566C72.3772 11.934 72.3829 11.9146 72.3829 11.901C72.3829 11.868 72.4159 11.835 72.4489 11.835C72.4654 11.835 72.4819 11.8267 72.4984 11.8185C72.5149 11.8102 72.5314 11.802 72.5479 11.802C72.5683 11.802 72.6013 11.8146 72.6469 11.832C72.6751 11.8428 72.7081 11.8554 72.7459 11.868C72.8119 11.901 72.9439 11.967 73.0429 12.033C73.1229 12.073 73.2028 12.1008 73.2901 12.1312C73.3469 12.1511 73.4069 12.172 73.472 12.198C73.637 12.231 73.802 12.264 74.033 12.264C74.1651 12.264 74.2641 12.264 74.3631 12.231C74.4621 12.198 74.5611 12.165 74.6271 12.132C74.6931 12.099 74.7591 12.033 74.7921 11.934C74.8251 11.868 74.8581 11.769 74.8581 11.67C74.8581 11.5709 74.8251 11.4719 74.7591 11.3729C74.6931 11.3069 74.5941 11.2079 74.4951 11.1749C74.3631 11.1089 74.2311 11.0429 74.099 11.0099C74.0241 10.9724 73.9385 10.9456 73.8483 10.9173C73.7797 10.8958 73.7083 10.8734 73.637 10.8449C73.472 10.7789 73.34 10.7129 73.175 10.6138L72.7789 10.3168C72.6469 10.1848 72.5809 10.0528 72.5149 9.88777C72.4489 9.72276 72.4159 9.52474 72.4159 9.26071C72.4159 9.02969 72.4489 8.79866 72.5479 8.60064C72.6469 8.40262 72.7789 8.23761 72.9439 8.07259C73.1089 7.94058 73.34 7.80857 73.604 7.74256C73.868 7.67655 74.1651 7.61055 74.4621 7.61055C74.6271 7.61055 74.7921 7.61055 74.9241 7.64355C75.0891 7.67655 75.2212 7.70956 75.3202 7.74256C75.4522 7.77556 75.5512 7.80857 75.6172 7.84157C75.7162 7.87457 75.7492 7.90758 75.7822 7.94058C75.8152 7.97358 75.8482 8.00658 75.8482 8.03959C75.8482 8.05609 75.8565 8.07259 75.8647 8.08909C75.873 8.1056 75.8812 8.1221 75.8812 8.1386C75.8812 8.1716 75.8812 8.23761 75.9142 8.27061V8.76566C75.9142 8.83167 75.9142 8.89767 75.8812 8.93068C75.8812 8.96368 75.8482 8.99668 75.8152 8.99668C75.7822 8.99668 75.7492 9.02969 75.7492 9.02969C75.7162 9.02969 75.6502 8.99668 75.5842 8.96368C75.5642 8.95369 75.5412 8.94067 75.5161 8.92646C75.4582 8.89373 75.3892 8.85468 75.3202 8.83167C75.2833 8.81938 75.2419 8.80252 75.1976 8.78449C75.1229 8.75409 75.04 8.72037 74.9571 8.69965C74.8251 8.66665 74.6601 8.63365 74.4621 8.63365C74.3301 8.63365 74.2311 8.63365 74.1321 8.66665C74.033 8.69965 73.967 8.73266 73.901 8.76566C73.835 8.83165 73.802 8.86468 73.769 8.93068C73.736 8.99668 73.736 9.06269 73.736 9.1287C73.736 9.26071 73.769 9.35972 73.835 9.42573C73.901 9.49173 74 9.59074 74.1321 9.62375C74.2641 9.68975 74.3961 9.75576 74.5281 9.78876C74.6106 9.82176 74.6848 9.84651 74.7591 9.87126C74.8333 9.89601 74.9076 9.92078 74.9901 9.95378C75.1552 10.0198 75.2872 10.0858 75.4522 10.1848C75.6172 10.2838 75.7492 10.3828 75.8482 10.4818C75.9576 10.5912 76.0217 10.7006 76.0967 10.8287C76.1123 10.8552 76.1283 10.8826 76.1453 10.9109C76.2113 11.1419 76.2443 11.3399 76.2443 11.5709Z" fill="#1A6582"/>
<path d="M81.1948 12.528C81.1948 12.429 81.1948 12.33 80.9968 12.297C80.9968 12.2583 80.9854 12.2197 80.9761 12.1877C80.9694 12.165 80.9638 12.1457 80.9638 12.132C80.9638 12.099 80.9638 12.066 80.9308 12.066C80.9118 12.047 80.9037 12.0389 80.894 12.0355C80.8868 12.033 80.8788 12.033 80.8647 12.033C80.8482 12.033 80.8317 12.0412 80.8152 12.0495C80.7987 12.0577 80.7822 12.066 80.7657 12.066C80.7327 12.066 80.6667 12.066 80.6337 12.099C80.6007 12.099 80.576 12.1072 80.5512 12.1155C80.5265 12.1237 80.5017 12.132 80.4687 12.132C80.4027 12.165 80.3367 12.165 80.2707 12.165C80.0397 12.165 79.9077 12.099 79.8086 11.967C79.7096 11.835 79.6766 11.6039 79.6766 11.3399V8.93068H80.7987C80.8647 8.93068 80.9308 8.89767 80.9638 8.79866C80.9968 8.69965 81.0298 8.53464 81.0298 8.33662V8.07259C81.0298 8.00659 81.0298 7.94058 80.9968 7.90758C80.9968 7.87457 80.9638 7.84157 80.9308 7.80857C80.8978 7.77556 80.8648 7.77556 80.8317 7.77556H79.7426V6.65345C79.7426 6.62045 79.7426 6.58744 79.7096 6.55444C79.7096 6.5311 79.6931 6.52427 79.6601 6.5106C79.6465 6.50493 79.63 6.4981 79.6106 6.48843C79.581 6.48843 79.5513 6.48177 79.5186 6.47442C79.4786 6.46543 79.4341 6.45543 79.3796 6.45543H78.6865C78.5875 6.45543 78.5215 6.45543 78.4555 6.48843C78.4225 6.48843 78.3895 6.52144 78.3565 6.55444C78.3235 6.58744 78.3235 6.62045 78.3235 6.65345V7.77556H77.7294C77.6964 7.77556 77.6634 7.77556 77.6304 7.80857C77.6139 7.82507 77.6057 7.84157 77.5974 7.85807C77.5892 7.87457 77.5809 7.89107 77.5644 7.90758C77.5644 7.92125 77.5588 7.94058 77.5521 7.96323C77.5427 7.99526 77.5314 8.03393 77.5314 8.07259V8.33662C77.5314 8.56764 77.5644 8.69965 77.5974 8.79866C77.6304 8.89767 77.6964 8.93068 77.7624 8.93068H78.3895V11.5379C78.3895 11.868 78.4225 12.132 78.4885 12.363C78.5545 12.594 78.6535 12.7591 78.7855 12.9241C78.9176 13.0561 79.1156 13.1881 79.3136 13.2541C79.5116 13.3201 79.7426 13.3531 80.0397 13.3531C80.1104 13.3531 80.1717 13.3436 80.2285 13.3348C80.2778 13.3272 80.3237 13.3201 80.3697 13.3201C80.4687 13.3201 80.5677 13.3201 80.6667 13.2871C80.7657 13.2871 80.8317 13.2541 80.8978 13.2211C80.9638 13.1881 81.0298 13.1551 81.0628 13.1221C81.1128 13.0971 81.1249 13.0531 81.1422 12.9901C81.1478 12.97 81.1538 12.948 81.1618 12.9241C81.1948 12.8251 81.1948 12.693 81.1948 12.528Z" fill="#1A6582"/>
<path fill-rule="evenodd" clip-rule="evenodd" d="M87.7624 10.3168C87.7624 10.4818 87.7294 10.6139 87.6304 10.7129C87.5644 10.8119 87.4324 10.8449 87.3004 10.8449H84.1981C84.1981 11.0759 84.2311 11.2739 84.2641 11.4389C84.3301 11.604 84.3961 11.769 84.4951 11.901C84.5941 12.033 84.7591 12.132 84.9241 12.198C85.0892 12.264 85.3202 12.297 85.5512 12.297C85.8152 12.297 86.0133 12.264 86.2113 12.231C86.4093 12.198 86.5743 12.165 86.7063 12.099C86.8383 12.066 86.9704 12 87.0364 11.967C87.0629 11.9581 87.087 11.9493 87.1095 11.9411C87.1707 11.9187 87.2191 11.901 87.2674 11.901C87.3004 11.901 87.3334 11.901 87.3664 11.934C87.3868 11.934 87.3946 11.9466 87.4053 11.964C87.412 11.9748 87.4198 11.9874 87.4324 12C87.4324 12.0165 87.4406 12.0412 87.4489 12.0659C87.4571 12.0907 87.4654 12.1155 87.4654 12.132V12.5941C87.4654 12.6601 87.4654 12.6931 87.4324 12.7591C87.4324 12.7756 87.4241 12.7921 87.4159 12.8086C87.4076 12.8251 87.3994 12.8416 87.3994 12.8581C87.3994 12.8911 87.3664 12.9241 87.3334 12.9571C87.3004 12.9901 87.2344 13.0231 87.1354 13.0561C87.1131 13.0635 87.0876 13.0726 87.0595 13.0826C86.9623 13.1171 86.8343 13.1625 86.7063 13.1881C86.5413 13.2211 86.3433 13.2541 86.1123 13.2871C85.8812 13.3201 85.6502 13.3201 85.4192 13.3201C84.9571 13.3201 84.5611 13.2541 84.2311 13.1551C83.901 13.0561 83.604 12.8581 83.373 12.6271C83.142 12.396 82.9769 12.099 82.8779 11.736C82.7789 11.3729 82.7129 10.9769 82.7129 10.4818C82.7129 10.0198 82.7789 9.62375 82.8779 9.26072C83.0099 8.89768 83.175 8.60065 83.406 8.33662C83.637 8.0726 83.901 7.87458 84.2311 7.74256C84.5611 7.61055 84.9241 7.54454 85.3202 7.54454C85.7492 7.54454 86.1123 7.61055 86.4093 7.74256C86.7063 7.87458 86.9703 8.03959 87.1684 8.27062C87.3664 8.50164 87.4984 8.76567 87.5974 9.0627C87.6964 9.35973 87.7294 9.68976 87.7294 10.0528V10.3168H87.7624ZM86.1453 8.96369C86.3057 9.18826 86.3725 9.5064 86.3761 9.88778H84.2641L84.3631 9.39273C84.3961 9.26072 84.4621 9.1287 84.5611 8.99669C84.6601 8.89768 84.7591 8.79867 84.8911 8.73266C85.0232 8.66666 85.1552 8.63365 85.3532 8.63365C85.7162 8.63365 85.9802 8.73266 86.1453 8.96369Z" fill="#1A6582"/>
<path d="M93.218 8.88117C93.2277 8.84493 93.241 8.79543 93.241 8.73266V8.40262C93.241 8.27061 93.241 8.1716 93.175 8.07259C93.1419 8.00659 93.1419 7.94058 93.1419 7.90758C93.1419 7.89107 93.1337 7.87457 93.1254 7.85807C93.1172 7.84157 93.1089 7.82507 93.1089 7.80857C93.1089 7.77556 93.1089 7.77556 93.0759 7.74256C93.0594 7.72606 93.0429 7.71781 93.0264 7.70956C93.0099 7.7013 92.9934 7.69305 92.9769 7.67655C92.9439 7.67655 92.9192 7.6683 92.8944 7.66005C92.8697 7.6518 92.8449 7.64355 92.8119 7.64355C92.7789 7.61055 92.7129 7.61055 92.6469 7.61055H92.4819C92.3499 7.61055 92.2509 7.61055 92.1518 7.64355C92.0198 7.67655 91.9208 7.74256 91.8218 7.80857C91.7228 7.87457 91.6238 7.97358 91.4918 8.1056C91.4549 8.15474 91.4135 8.20388 91.3692 8.25643C91.2945 8.34505 91.2116 8.44334 91.1287 8.56764V7.94058C91.1287 7.90758 91.1287 7.87457 91.0957 7.84157C91.0792 7.82507 91.0627 7.81682 91.0462 7.80857C91.0297 7.80031 91.0132 7.79206 90.9967 7.77556C90.9637 7.77556 90.9307 7.76731 90.8977 7.75906C90.8647 7.75081 90.8317 7.74256 90.7987 7.74256H90.2047C90.1056 7.74256 90.0396 7.74256 90.0066 7.77556C89.9736 7.77556 89.9406 7.80857 89.9076 7.84157C89.8746 7.87457 89.8746 7.90758 89.8746 7.94058V12.9901C89.8746 13.0231 89.8746 13.0561 89.9076 13.0891C89.928 13.1095 89.9484 13.1173 89.9766 13.128C89.994 13.1347 90.0144 13.1425 90.0396 13.1551C90.0693 13.1551 90.099 13.1618 90.1316 13.1691C90.1716 13.1781 90.2161 13.1881 90.2707 13.1881H90.9967C91.0957 13.1881 91.1617 13.1881 91.2277 13.1551C91.2938 13.1551 91.3268 13.1221 91.3598 13.0891C91.3928 13.0561 91.3928 13.0231 91.3928 12.9901V9.82177C91.4918 9.65675 91.5908 9.49173 91.6898 9.39272C91.7241 9.3584 91.7545 9.32407 91.7836 9.29112C91.8385 9.22903 91.8891 9.17182 91.9538 9.1287C92.0528 9.06271 92.1519 8.99667 92.2178 8.96368C92.2839 8.93068 92.3829 8.93068 92.4489 8.93068C92.4819 8.93068 92.5149 8.93893 92.5479 8.94718C92.5809 8.95543 92.6139 8.96368 92.6469 8.96368C92.6856 8.96368 92.7242 8.97501 92.7563 8.98439C92.7789 8.99102 92.7982 8.99668 92.8119 8.99668C92.8506 8.99668 92.8779 9.00801 92.9006 9.01739C92.9166 9.02402 92.9303 9.02969 92.9439 9.02969C92.9769 9.06269 93.0099 9.06269 93.0429 9.06269C93.0759 9.06269 93.1089 9.06269 93.1419 9.02969C93.175 9.02969 93.2079 8.96368 93.2079 8.93068C93.2079 8.9186 93.2124 8.9021 93.218 8.88117Z" fill="#1A6582"/>
<path d="M64.594 20.9109V20.7789C64.594 20.7689 64.591 20.7559 64.5877 20.7416C64.5801 20.7089 64.571 20.6699 64.594 20.6468C64.594 20.6138 64.594 20.5808 64.561 20.5478C64.5445 20.5478 64.528 20.5396 64.5115 20.5313C64.495 20.5231 64.4785 20.5148 64.462 20.5148H64.198C64.132 20.5148 64.132 20.5148 64.099 20.5478C64.099 20.5643 64.0907 20.5808 64.0825 20.5973C64.0742 20.6138 64.066 20.6303 64.066 20.6468V20.9109C64.066 20.9439 64.066 20.9769 64.099 21.0099C64.1155 21.0099 64.132 21.0181 64.1485 21.0264C64.165 21.0346 64.1815 21.0429 64.198 21.0429H64.462C64.528 21.0429 64.528 21.0429 64.561 21.0099C64.561 20.9934 64.5693 20.9769 64.5775 20.9604C64.5858 20.9439 64.594 20.9274 64.594 20.9109Z" fill="#1A6582"/>
<path d="M64.495 20.1188V17.5775C64.495 17.5775 64.495 17.5445 64.462 17.5445C64.462 17.5115 64.429 17.5115 64.396 17.5115H64.165C64.1485 17.5115 64.1403 17.5198 64.132 17.528C64.1238 17.5363 64.1155 17.5445 64.099 17.5445L64.066 17.5775V17.6435L64.099 20.0858V20.1188C64.099 20.1518 64.132 20.1518 64.132 20.1518H64.462L64.495 20.1188Z" fill="#1A6582"/>
<path fill-rule="evenodd" clip-rule="evenodd" d="M42.4158 19.7558C42.4158 19.8218 42.3828 19.8548 42.3498 19.8878C42.3168 19.9208 42.2838 19.9208 42.2508 19.9208H40.7327C40.7327 20.0528 40.7327 20.1518 40.7657 20.2508C40.7987 20.3498 40.8317 20.4488 40.8977 20.5148C40.9637 20.5808 41.0297 20.6468 41.1287 20.6799C41.2277 20.7129 41.3267 20.7459 41.4917 20.7459C41.5907 20.7459 41.6898 20.7459 41.7888 20.7129C41.8322 20.6984 41.8692 20.6903 41.9027 20.6829C41.9456 20.6735 41.9827 20.6654 42.0198 20.6468C42.0528 20.6303 42.0775 20.6221 42.1023 20.6138C42.127 20.6056 42.1518 20.5973 42.1848 20.5808C42.2178 20.5478 42.2508 20.5478 42.2838 20.5478H42.3168C42.3168 20.5478 42.3498 20.5478 42.3498 20.5808V20.8449C42.3498 20.8449 42.3498 20.8779 42.3168 20.8779C42.3168 20.8779 42.2838 20.9109 42.2178 20.9109C42.1993 20.9294 42.1703 20.9375 42.1368 20.9469C42.1107 20.9543 42.0817 20.9624 42.0528 20.9769C42.0171 20.9947 41.9716 21.0029 41.9218 21.0119C41.8796 21.0196 41.8342 21.0278 41.7888 21.0429C41.7393 21.0429 41.6897 21.0511 41.6402 21.0594C41.5907 21.0676 41.5412 21.0759 41.4917 21.0759C41.2937 21.0759 41.1287 21.0429 40.9967 21.0099C40.8647 20.9439 40.7327 20.8779 40.6336 20.7789C40.5346 20.6799 40.4686 20.5478 40.4026 20.3828C40.3366 20.2178 40.3366 20.0528 40.3366 19.8218C40.3366 19.6238 40.3696 19.4587 40.4026 19.2937C40.4686 19.1287 40.5346 18.9967 40.6336 18.8977C40.7327 18.7987 40.8317 18.6997 40.9967 18.6336C41.1287 18.5676 41.2937 18.5346 41.4587 18.5346C41.6567 18.5346 41.7888 18.5676 41.9208 18.6336C42.0528 18.6997 42.1518 18.7657 42.2508 18.8647C42.3498 18.9637 42.3828 19.0957 42.4158 19.2277C42.4488 19.3597 42.4818 19.4917 42.4818 19.6568V19.7558H42.4158ZM41.9868 19.6237C41.9868 19.3927 41.9538 19.2277 41.8548 19.0957C41.7558 18.9637 41.5907 18.8977 41.3927 18.8977C41.2937 18.8977 41.1947 18.9307 41.1287 18.9637C41.0627 18.9967 40.9967 19.0627 40.9307 19.1287C40.8647 19.1947 40.8317 19.2607 40.7987 19.3597C40.7657 19.4587 40.7657 19.5247 40.7657 19.6237L41.9868 19.6237Z" fill="#1A6582"/>
<path d="M41.1617 17.9406C41.1617 18.0396 41.1287 18.1056 41.0957 18.1386C41.0627 18.1716 40.9967 18.2046 40.8977 18.2046C40.7987 18.2046 40.7327 18.1716 40.6996 18.1386C40.6666 18.1056 40.6666 18.0396 40.6666 17.9406C40.6666 17.8416 40.6997 17.7756 40.7327 17.7426C40.7657 17.7096 40.8317 17.6766 40.9307 17.6766C41.0297 17.6766 41.0957 17.7096 41.1287 17.7426C41.1617 17.7756 41.1617 17.8416 41.1617 17.9406Z" fill="#1A6582"/>
<path d="M42.0858 17.9406C42.0858 18.0396 42.0528 18.1056 42.0198 18.1386C41.9868 18.1716 41.9208 18.2046 41.8218 18.2046C41.7228 18.2046 41.6567 18.1716 41.6237 18.1386C41.5907 18.1056 41.5907 18.0396 41.5907 17.9406C41.5907 17.8416 41.6237 17.7756 41.6567 17.7426C41.6897 17.7096 41.7558 17.6766 41.8548 17.6766C41.9538 17.6766 42.0198 17.7096 42.0528 17.7426C42.0858 17.7756 42.0858 17.8416 42.0858 17.9406Z" fill="#1A6582"/>
<path fill-rule="evenodd" clip-rule="evenodd" d="M36.7062 20.1188C36.7062 20.066 36.701 20.0185 36.6967 19.9804C36.6904 19.9234 36.6864 19.8878 36.7062 19.8878C36.6732 19.7888 36.6402 19.6898 36.5742 19.6237C36.5082 19.5577 36.4422 19.4917 36.3762 19.4587C36.3068 19.4124 36.2535 19.3986 36.1938 19.3831C36.1683 19.3765 36.1417 19.3696 36.1122 19.3597C36.1452 19.3432 36.1782 19.3185 36.2112 19.2937C36.2442 19.269 36.2772 19.2442 36.3102 19.2277C36.3267 19.1947 36.3515 19.1699 36.3762 19.1452C36.401 19.1204 36.4257 19.0957 36.4422 19.0627C36.4862 19.0187 36.5009 18.9747 36.5156 18.9307C36.5229 18.9087 36.5302 18.8867 36.5412 18.8647C36.5742 18.7987 36.5742 18.6997 36.5742 18.6336C36.5742 18.5016 36.5412 18.3696 36.5082 18.2706C36.4752 18.1716 36.4092 18.0726 36.3102 18.0066C36.2112 17.9406 36.1122 17.8746 35.9802 17.8416C35.8482 17.8086 35.6831 17.7756 35.4851 17.7756H34.7261C34.693 17.7756 34.66 17.7756 34.627 17.8086C34.594 17.8416 34.561 17.8746 34.561 17.9406V20.9109C34.561 20.9769 34.594 21.0099 34.627 21.0429C34.66 21.0759 34.693 21.0759 34.7261 21.0759H35.5841C35.7161 21.0759 35.8152 21.0759 35.9142 21.0429C35.9925 21.0429 36.0502 21.0222 36.1199 20.9972C36.1383 20.9907 36.1575 20.9838 36.1782 20.9769C36.2772 20.9439 36.3432 20.9109 36.4092 20.8449C36.4752 20.7789 36.5412 20.7129 36.5742 20.6468C36.6072 20.5808 36.6402 20.5148 36.6732 20.4158C36.7062 20.3168 36.7062 20.2178 36.7062 20.1188ZM36.0462 18.6006C36.0462 18.6997 36.0132 18.7657 35.9802 18.8317C35.9637 18.8647 35.9472 18.8894 35.9307 18.9142C35.9142 18.9389 35.8977 18.9637 35.8812 18.9967C35.8482 19.0627 35.7822 19.0957 35.7162 19.1287C35.6501 19.1617 35.5511 19.1617 35.4521 19.1617H34.9571V18.0726H35.4191C35.5511 18.0726 35.6501 18.0726 35.7162 18.1056C35.8152 18.1386 35.8812 18.1716 35.9142 18.2046C35.9472 18.2376 35.9802 18.3036 36.0132 18.3696C36.0462 18.4356 36.0462 18.5346 36.0462 18.6006ZM36.2442 20.1188C36.2442 20.1733 36.2342 20.2278 36.2252 20.2768C36.2179 20.3168 36.2112 20.3531 36.2112 20.3828C36.1782 20.4488 36.1452 20.5148 36.0792 20.5478L35.8812 20.6468C35.8152 20.6798 35.7162 20.6798 35.6171 20.6798H34.9901V19.4917H35.5181C35.6501 19.4917 35.7492 19.4917 35.8482 19.5247C35.9472 19.5577 36.0132 19.5907 36.0792 19.6567C36.1452 19.7228 36.1782 19.7888 36.2112 19.8548C36.2442 19.9208 36.2442 20.0198 36.2442 20.1188Z" fill="#1A6582"/>
<path d="M39.4455 20.6468C39.4455 20.6138 39.4455 20.5808 39.5115 20.6138V20.5478C39.4785 20.5478 39.4785 20.5148 39.4785 20.5148H39.4455C39.4125 20.5148 39.3795 20.5148 39.3465 20.5478C39.3135 20.5808 39.2805 20.6138 39.2145 20.6468L39.0165 20.7459C38.9505 20.7789 38.8515 20.7789 38.7525 20.7789C38.6534 20.7789 38.5544 20.7459 38.4884 20.7129C38.4224 20.6798 38.3564 20.6138 38.2904 20.5478C38.2244 20.4488 38.1914 20.3498 38.1584 20.2508C38.1254 20.1188 38.1254 20.0198 38.1254 19.8548C38.1254 19.5577 38.1914 19.3267 38.2904 19.1617C38.3894 18.9967 38.5544 18.9307 38.7525 18.9307C38.8515 18.9307 38.9505 18.9307 39.0165 18.9637C39.0825 18.9857 39.1192 19.0077 39.1558 19.0297C39.1742 19.0407 39.1925 19.0517 39.2145 19.0627C39.2805 19.0957 39.3135 19.1287 39.3465 19.1617C39.3795 19.1947 39.4125 19.1947 39.4455 19.1947C39.4785 19.1947 39.5115 19.1947 39.5115 19.1617C39.5445 19.1287 39.5445 19.0957 39.5445 19.0297V18.8977C39.5115 18.8977 39.5115 18.8647 39.5115 18.8647C39.5115 18.8647 39.5115 18.8317 39.4785 18.8317C39.4455 18.8317 39.4125 18.7987 39.3795 18.7657C39.3465 18.7492 39.3218 18.7409 39.297 18.7327C39.2723 18.7244 39.2475 18.7162 39.2145 18.6997C39.1485 18.6666 39.0825 18.6336 39.0165 18.6336C38.9175 18.6006 38.8515 18.6006 38.7855 18.6006C38.6204 18.6006 38.4884 18.6006 38.3564 18.6666C38.2244 18.6997 38.1254 18.7987 38.0264 18.8977C37.9274 18.9967 37.8614 19.1287 37.7954 19.2937C37.7294 19.4587 37.6963 19.6567 37.6963 19.8878C37.6963 20.0858 37.7294 20.2508 37.7624 20.4158C37.7954 20.5808 37.8614 20.7129 37.9604 20.8119C38.0594 20.9109 38.1584 20.9769 38.2904 21.0429C38.3894 21.1089 38.5544 21.1419 38.7195 21.1419C38.7525 21.1419 38.7937 21.1336 38.835 21.1254C38.8762 21.1171 38.9175 21.1089 38.9505 21.1089C38.9835 21.0924 39.0165 21.0841 39.0495 21.0759C39.0825 21.0676 39.1155 21.0594 39.1485 21.0429C39.1815 21.0264 39.2062 21.0099 39.231 20.9934C39.2557 20.9769 39.2805 20.9604 39.3135 20.9439C39.33 20.9274 39.3465 20.9191 39.363 20.9109C39.3795 20.9026 39.396 20.8944 39.4125 20.8779C39.4125 20.8449 39.4455 20.8119 39.4455 20.8119V20.6468Z" fill="#1A6582"/>
<path fill-rule="evenodd" clip-rule="evenodd" d="M47.0033 20.6468C47.0363 20.5478 47.0693 20.4488 47.0693 20.3168C47.0693 20.1848 47.0363 20.0528 46.9703 19.9868C46.8713 19.8878 46.7393 19.8218 46.5743 19.7888C46.7063 19.7558 46.8053 19.6898 46.8713 19.5907C46.9373 19.4917 46.9703 19.3927 46.9703 19.2607C46.9703 19.1617 46.9373 19.0627 46.9043 18.9967C46.8713 18.9307 46.8053 18.8647 46.7393 18.7987C46.6733 18.7327 46.5743 18.6997 46.4422 18.6666C46.3102 18.6336 46.1782 18.6336 46.0132 18.6336H45.3861C45.3201 18.6336 45.2871 18.6666 45.2541 18.6997C45.2211 18.7327 45.2211 18.7987 45.2211 18.8647V20.8449C45.2211 20.9109 45.2211 20.9769 45.2541 21.0099C45.2871 21.0429 45.3531 21.0759 45.4191 21.0759H46.0132C46.1782 21.0759 46.3432 21.0429 46.4752 21.0099C46.6073 20.9769 46.7063 20.9439 46.8053 20.8779C46.9043 20.8119 46.9703 20.7459 47.0033 20.6468ZM46.5412 19.0957C46.5742 19.1617 46.5743 19.1947 46.5743 19.2607C46.5743 19.3927 46.5082 19.4587 46.4092 19.5247C46.3102 19.5907 46.1782 19.6237 46.0132 19.6237H45.5842V18.8977H45.9802C46.0347 18.8977 46.0892 18.9077 46.1382 18.9167C46.1782 18.924 46.2146 18.9307 46.2442 18.9307C46.3432 18.9307 46.4092 18.9637 46.4422 18.9967C46.4642 18.9967 46.4862 19.026 46.5082 19.0553C46.5192 19.07 46.5302 19.0847 46.5412 19.0957ZM46.6403 20.3498C46.6403 20.4158 46.6073 20.4818 46.5743 20.5148C46.5743 20.5478 46.5412 20.6138 46.4752 20.6468C46.4312 20.6909 46.3872 20.7055 46.3432 20.7202C46.3212 20.7275 46.2992 20.7349 46.2772 20.7459C46.1782 20.7789 46.0792 20.7789 45.9802 20.7789H45.5842V19.9538H46.0132C46.1452 19.9538 46.2442 19.9538 46.3102 19.9868C46.3762 19.9868 46.4422 20.0198 46.5082 20.0528C46.5412 20.0858 46.5743 20.1188 46.6073 20.1848C46.6403 20.2178 46.6403 20.2838 46.6403 20.3498Z" fill="#1A6582"/>
<path d="M51.6897 21.0099C51.6897 21.0429 51.6567 21.0429 51.6567 21.0429H51.2937C51.2607 21.0429 51.2607 21.0429 51.2607 21.0099C51.2607 21.0099 51.2607 20.9769 51.2277 20.9769L50.9637 20.3828L50.8646 20.1848C50.8316 20.1188 50.7986 20.0858 50.7326 20.0528C50.6996 20.0198 50.6336 19.9868 50.5676 19.9868C50.5346 19.9868 50.5016 19.9785 50.4686 19.9703C50.4356 19.962 50.4026 19.9538 50.3696 19.9538H50.2046V21.0429C50.2046 21.0429 50.1716 21.0429 50.1716 21.0759H49.8415C49.825 21.0759 49.8168 21.0759 49.8127 21.0718C49.8085 21.0676 49.8085 21.0594 49.8085 21.0429V18.6336C49.8085 18.6336 49.8415 18.6336 49.8415 18.6006H50.1716C50.2046 18.6006 50.2046 18.6006 50.2046 18.6336V19.6237H50.3696C50.4356 19.6237 50.5016 19.6237 50.5346 19.5907C50.5829 19.5907 50.6136 19.5731 50.6524 19.5506C50.6666 19.5424 50.6819 19.5336 50.6996 19.5247C50.7096 19.5147 50.7226 19.5047 50.7369 19.4938C50.7696 19.4687 50.8086 19.4387 50.8316 19.3927L50.9307 19.1947L51.1617 18.6666C51.1617 18.6666 51.1617 18.6336 51.1947 18.6336L51.2277 18.6006H51.5577C51.5577 18.6006 51.5907 18.6006 51.5907 18.6336V18.6997C51.5907 18.7327 51.5907 18.7327 51.5577 18.7657L51.3267 19.2607C51.2937 19.3597 51.2607 19.4257 51.2277 19.4917C51.1947 19.5577 51.1617 19.5907 51.0957 19.6237C51.0792 19.6402 51.0544 19.6567 51.0297 19.6732C51.0049 19.6897 50.9802 19.7063 50.9637 19.7228C50.9472 19.7393 50.9224 19.7475 50.8977 19.7558C50.8729 19.764 50.8481 19.7723 50.8316 19.7888C50.8646 19.8053 50.8894 19.8135 50.9142 19.8218C50.9389 19.83 50.9637 19.8383 50.9967 19.8548C51.0627 19.8878 51.0957 19.9208 51.1287 19.9538C51.1617 19.9868 51.2277 20.0528 51.2607 20.1188L51.3597 20.3168L51.6237 20.9109V20.9769C51.6567 20.9769 51.6897 21.0099 51.6897 21.0099Z" fill="#1A6582"/>
<path fill-rule="evenodd" clip-rule="evenodd" d="M54.33 21.0429C54.363 21.0429 54.363 21.0429 54.363 21.0099H54.264V19.5247C54.264 19.3927 54.264 19.2607 54.231 19.1617C54.198 19.0627 54.132 18.9637 54.066 18.8977C54.0435 18.8827 54.0226 18.8677 54.0024 18.853C53.9336 18.8034 53.8709 18.7581 53.7689 18.7327C53.6369 18.6997 53.5049 18.6667 53.3399 18.6667C53.2904 18.6667 53.2491 18.6749 53.2079 18.6832C53.1666 18.6914 53.1254 18.6997 53.0759 18.6997C53.0429 18.7162 53.0016 18.7244 52.9604 18.7327C52.9191 18.7409 52.8779 18.7492 52.8449 18.7657C52.7788 18.7657 52.7128 18.7987 52.6468 18.8317C52.6216 18.8443 52.6012 18.8521 52.5838 18.8587C52.5556 18.8695 52.5352 18.8773 52.5148 18.8977C52.5148 18.9142 52.5066 18.9224 52.4983 18.9307C52.4901 18.9389 52.4818 18.9472 52.4818 18.9637V19.1287C52.5148 19.1617 52.5148 19.1947 52.5148 19.1947L52.5478 19.2277H52.5808C52.6138 19.2277 52.6468 19.2277 52.6798 19.1947C52.7282 19.1947 52.7588 19.177 52.7976 19.1546C52.8118 19.1464 52.8272 19.1375 52.8449 19.1287C52.8932 19.1287 52.9415 19.111 53.0028 19.0886C53.0252 19.0804 53.0494 19.0715 53.0759 19.0627C53.1749 19.0297 53.2739 19.0297 53.3729 19.0297C53.4389 19.0297 53.5379 19.0297 53.6039 19.0627C53.6699 19.0957 53.7359 19.1287 53.7689 19.1617C53.8153 19.1849 53.8291 19.2243 53.8446 19.2685C53.8512 19.2873 53.8581 19.307 53.868 19.3267C53.901 19.3927 53.901 19.4587 53.901 19.5577V19.7228H53.5709C53.3729 19.7228 53.2079 19.7228 53.0759 19.7558C52.9439 19.7888 52.8119 19.8218 52.7128 19.8878C52.6138 19.9538 52.5478 20.0198 52.4818 20.1188C52.4488 20.2178 52.4158 20.3168 52.4158 20.4488C52.4158 20.5478 52.4488 20.6468 52.4818 20.7459C52.5148 20.8449 52.5808 20.9109 52.6468 20.9769C52.7128 21.0429 52.8119 21.0759 52.9109 21.1089C53.0099 21.1419 53.1089 21.1419 53.2409 21.1419C53.3729 21.1419 53.5049 21.1089 53.6369 21.0429C53.7689 20.9769 53.868 20.8779 53.967 20.7789V21.0099L54 21.0429C54.033 21.0759 54.033 21.0759 54.066 21.0759H54.264C54.297 21.0759 54.33 21.0429 54.33 21.0429ZM53.5709 19.9538H53.934V20.4488C53.835 20.5808 53.736 20.6468 53.6369 20.7128C53.5709 20.7789 53.4389 20.8119 53.3399 20.8119C53.2079 20.8119 53.0759 20.7789 53.0099 20.7129C52.9439 20.6468 52.9109 20.5478 52.9109 20.4158C52.9109 20.3498 52.9109 20.2838 52.9439 20.2178C52.9539 20.2078 52.9639 20.1948 52.9748 20.1806C52.9999 20.1479 53.0299 20.1088 53.0759 20.0858C53.1009 20.0357 53.1449 20.0236 53.2079 20.0063C53.228 20.0008 53.25 19.9948 53.2739 19.9868C53.3399 19.9538 53.4389 19.9538 53.5709 19.9538Z" fill="#1A6582"/>
<path d="M57.2343 20.6468V20.8119C57.2343 20.8119 57.2013 20.8449 57.2013 20.8779C57.1848 20.8944 57.1683 20.9026 57.1518 20.9109C57.1353 20.9191 57.1188 20.9274 57.1023 20.9439C57.0693 20.9604 57.0445 20.9769 57.0198 20.9934C56.995 21.0099 56.9703 21.0264 56.9373 21.0429C56.9043 21.0594 56.8713 21.0676 56.8383 21.0759C56.8053 21.0841 56.7723 21.0924 56.7393 21.1089C56.7063 21.1089 56.665 21.1171 56.6238 21.1254C56.5825 21.1336 56.5412 21.1419 56.5082 21.1419C56.3432 21.1419 56.1782 21.1089 56.0792 21.0429C55.9472 20.9769 55.8482 20.9109 55.7492 20.8119C55.6502 20.7129 55.5841 20.5808 55.5511 20.4158C55.5181 20.2508 55.4851 20.0858 55.4851 19.8878C55.4851 19.6567 55.5181 19.4587 55.5841 19.2937C55.6502 19.1287 55.7162 18.9967 55.8152 18.8977C55.9142 18.7987 56.0132 18.6997 56.1452 18.6666C56.2772 18.6006 56.4092 18.6006 56.5742 18.6006C56.6403 18.6006 56.7063 18.6006 56.8053 18.6336C56.8713 18.6336 56.9373 18.6666 57.0033 18.6997C57.0363 18.7162 57.061 18.7244 57.0858 18.7327C57.1105 18.7409 57.1353 18.7492 57.1683 18.7657C57.2013 18.7987 57.2343 18.8317 57.2673 18.8317C57.3003 18.8317 57.3003 18.8647 57.3003 18.8647C57.3003 18.8647 57.3003 18.8977 57.3333 18.8977V19.0297C57.3333 19.0957 57.3333 19.1287 57.3003 19.1617C57.3003 19.1947 57.2673 19.1947 57.2343 19.1947C57.2013 19.1947 57.1683 19.1947 57.1353 19.1617C57.1023 19.1287 57.0693 19.0957 57.0033 19.0627C56.9813 19.0517 56.963 19.0407 56.9447 19.0297C56.908 19.0077 56.8713 18.9857 56.8053 18.9637C56.7393 18.9307 56.6403 18.9307 56.5412 18.9307C56.3432 18.9307 56.1782 18.9967 56.0792 19.1617C55.9802 19.3267 55.9142 19.5577 55.9142 19.8548C55.9142 20.0198 55.9142 20.1188 55.9472 20.2508C55.9802 20.3498 56.0132 20.4488 56.0792 20.5478C56.1452 20.6468 56.2112 20.6798 56.2772 20.7129C56.3432 20.7459 56.4422 20.7789 56.5412 20.7789C56.6403 20.7789 56.7393 20.7789 56.8053 20.7459L57.0033 20.6468C57.0693 20.6138 57.1023 20.5808 57.1353 20.5478C57.1683 20.5148 57.2013 20.5148 57.2343 20.5148H57.2673C57.2673 20.5148 57.2673 20.5478 57.3003 20.5478V20.6138C57.2343 20.5808 57.2343 20.6138 57.2343 20.6468Z" fill="#1A6582"/>
<path d="M59.9076 20.6468C59.9076 20.6138 59.9076 20.5808 59.9736 20.6138V20.5478C59.9406 20.5478 59.9406 20.5148 59.9406 20.5148H59.9076C59.8746 20.5148 59.8416 20.5148 59.8086 20.5478C59.7756 20.5808 59.7425 20.6138 59.6765 20.6468L59.4785 20.7459C59.4125 20.7789 59.3135 20.7789 59.2145 20.7789C59.1155 20.7789 59.0165 20.7459 58.9505 20.7129C58.8845 20.6798 58.8185 20.6138 58.7525 20.5478C58.6864 20.4488 58.6534 20.3498 58.6204 20.2508C58.5874 20.1188 58.5874 20.0198 58.5874 19.8548C58.5874 19.5577 58.6534 19.3267 58.7525 19.1617C58.8515 18.9967 59.0165 18.9307 59.2145 18.9307C59.3135 18.9307 59.4125 18.9307 59.4785 18.9637C59.5445 18.9857 59.5812 19.0077 59.6179 19.0297C59.6362 19.0407 59.6545 19.0517 59.6765 19.0627C59.7425 19.0957 59.7756 19.1287 59.8086 19.1617C59.8416 19.1947 59.8746 19.1947 59.9076 19.1947C59.9406 19.1947 59.9736 19.1947 59.9736 19.1617C60.0066 19.1287 60.0066 19.0957 60.0066 19.0297V18.8977C59.9736 18.8977 59.9736 18.8647 59.9736 18.8647L59.9406 18.8317C59.9076 18.8317 59.8746 18.7987 59.8416 18.7657C59.8086 18.7492 59.7838 18.7409 59.7591 18.7327C59.7343 18.7244 59.7095 18.7162 59.6765 18.6997C59.6105 18.6666 59.5445 18.6336 59.4785 18.6336C59.3795 18.6006 59.3135 18.6006 59.2475 18.6006C59.0825 18.6006 58.9505 18.6006 58.8185 18.6666C58.6864 18.6997 58.5874 18.7987 58.4884 18.8977C58.3894 18.9967 58.3234 19.1287 58.2574 19.2937C58.1914 19.4587 58.1584 19.6567 58.1584 19.8878C58.1584 20.0858 58.1914 20.2508 58.2244 20.4158C58.2574 20.5808 58.3234 20.7129 58.4224 20.8119C58.5214 20.9109 58.6204 20.9769 58.7525 21.0429C58.8515 21.1089 59.0165 21.1419 59.1815 21.1419C59.2145 21.1419 59.2558 21.1336 59.297 21.1254C59.3383 21.1171 59.3795 21.1089 59.4125 21.1089C59.4455 21.0924 59.4785 21.0841 59.5115 21.0759C59.5445 21.0676 59.5775 21.0594 59.6105 21.0429C59.6435 21.0264 59.6683 21.0099 59.693 20.9934C59.7178 20.9769 59.7426 20.9604 59.7756 20.9439C59.7921 20.9274 59.8086 20.9191 59.8251 20.9109C59.8416 20.9026 59.8581 20.8944 59.8746 20.8779C59.8746 20.8449 59.9076 20.8119 59.9076 20.8119V20.6468Z" fill="#1A6582"/>
<path d="M61.9538 21.0759L61.6568 21.934C61.6568 21.9544 61.6441 21.9622 61.6267 21.9729C61.616 21.9796 61.6034 21.9874 61.5907 22C61.5787 22 61.5622 22.0044 61.5412 22.01C61.505 22.0197 61.4555 22.033 61.3927 22.033H61.2937C61.2607 22.033 61.2607 22.033 61.2277 22L61.1947 21.967V21.901L61.5247 21.1089L61.4587 21.0429L60.6337 18.8317C60.6337 18.8152 60.6254 18.7987 60.6171 18.7822C60.6089 18.7657 60.6006 18.7492 60.6006 18.7327C60.6006 18.6997 60.6006 18.6997 60.6337 18.6997C60.6337 18.6997 60.6667 18.6666 60.6997 18.6666H61.0297C61.0627 18.6666 61.0627 18.6997 61.0627 18.6997C61.0627 18.6997 61.0627 18.7327 61.0957 18.7657L61.7558 20.6138L62.3828 18.7327C62.3828 18.6997 62.4158 18.6666 62.4158 18.6666C62.4158 18.6666 62.4488 18.6666 62.4818 18.6336H62.7459C62.7789 18.6336 62.8119 18.6336 62.8119 18.6666L62.8449 18.6997V18.7657L61.9538 21.0759Z" fill="#1A6582"/>
<path d="M29.0165 15.1353C29.0165 15.3333 28.8515 15.5973 28.6535 15.6963L17.3993 20.7459C17.2013 20.8449 16.8713 20.8449 16.7063 20.7459L5.41914 15.6963C5.22112 15.5973 5.05611 15.3663 5.05611 15.1353V5.1683C5.05611 4.97028 5.22112 4.83826 5.41914 4.93727L16.7393 10.2508C16.9373 10.3498 17.2343 10.3498 17.4323 10.2508L28.6865 4.97028C28.8845 4.87127 29.0495 4.97028 29.0495 5.2013V15.1353H29.0165ZM6.80528 4.44222V3.78216C6.80528 3.58414 6.9703 3.45212 7.16832 3.55113L16.7063 8.00658C16.9043 8.10559 17.2013 8.10559 17.3993 8.00658L26.6403 3.55113C26.8383 3.45212 27.0033 3.55113 26.9703 3.78216V4.60724L17.4323 9.09569C17.2343 9.1947 16.9373 9.1947 16.7393 9.09569L6.80528 4.44222C6.80528 4.44222 6.77228 4.44222 6.80528 4.44222ZM29.7426 3.28711L27.9604 4.14519V2.264C27.9604 2.06598 27.7954 1.96697 27.5974 2.03298L17.3993 6.95047C17.2013 7.04948 16.9043 7.04948 16.7063 6.95047L6.21122 2.03298C6.0132 1.93397 5.84818 2.03298 5.84818 2.264V4.01318L4.36304 3.28711C4.16502 3.2211 4 3.32011 4 3.51813V15.8284C4 16.0264 4.16502 16.2904 4.36304 16.3894L16.7063 21.934C16.9043 22.033 17.2343 22.033 17.3993 21.934L29.7426 16.3894C29.9406 16.2904 30.1056 16.0594 30.1056 15.8284V3.51813C30.0726 3.32011 29.9076 3.2211 29.7426 3.28711Z" fill="#1A6582"/>
</svg>
