<svg width="74" height="24" viewBox="0 0 74 24" fill="currentBackgroundColor" xmlns="http://www.w3.org/2000/svg">
<path d="M57.003 8.50398C56.4885 7.89856 55.5754 7.57819 54.3621 7.57819H50.7364C50.489 7.57819 50.2779 7.75867 50.2389 8.00366L48.7729 17.3011C48.7435 17.4845 48.8858 17.6501 49.0707 17.6501H50.9314C51.104 17.6501 51.2522 17.5238 51.2792 17.3519L51.6954 14.7165C51.7338 14.4712 51.945 14.2909 52.1923 14.2909H53.3395C55.7279 14.2909 57.1059 13.1353 57.4659 10.8443C57.629 9.84275 57.4721 9.05522 57.003 8.50398ZM54.78 10.974C54.5822 12.2751 53.5886 12.2751 52.6268 12.2751H52.0798L52.4645 9.84529C52.4873 9.69833 52.6128 9.59033 52.7623 9.59033H53.0132C53.6671 9.59033 54.2852 9.59033 54.6045 9.96362C54.7945 10.1863 54.8529 10.517 54.78 10.974Z" fill="#179BD7"/>
<path d="M65.1987 10.9319H63.4643C63.3152 10.9319 63.1886 11.0401 63.1665 11.1871L63.0893 11.6729L62.9676 11.4968C62.5918 10.951 61.7542 10.7687 60.9178 10.7687C58.9995 10.7687 57.3615 12.2222 57.0421 14.2607C56.8771 15.2775 57.1115 16.2501 57.6886 16.9283C58.2187 17.5515 58.9745 17.8114 59.8751 17.8114C61.4205 17.8114 62.2775 16.8176 62.2775 16.8176L62.2003 17.2996C62.1713 17.4845 62.3132 17.6497 62.4989 17.6497H64.062C64.3095 17.6497 64.5207 17.4689 64.5595 17.2235L65.4982 11.281C65.5272 11.0981 65.3855 10.9319 65.1987 10.9319ZM62.7795 14.3119C62.6128 15.304 61.8247 15.9694 60.8205 15.9694C60.3176 15.9694 59.9135 15.8077 59.6546 15.5013C59.3985 15.1969 59.3017 14.7641 59.3823 14.2818C59.5398 13.2978 60.3389 12.6101 61.3276 12.6101C61.8206 12.6101 62.2211 12.7739 62.4851 13.0833C62.7516 13.3951 62.8561 13.8311 62.7795 14.3119Z" fill="#179BD7"/>
<path d="M69.2209 7.57782H67.5458C67.3978 7.57836 67.2704 7.68636 67.2476 7.83332L65.7596 17.3011C65.7308 17.4845 65.8725 17.6501 66.0576 17.6501H67.5536C67.8021 17.6501 68.0132 17.47 68.0511 17.2246L69.5187 7.92701C69.5477 7.74381 69.4057 7.57782 69.2209 7.57782Z" fill="#179BD7"/>
<path d="M31.142 8.50398C30.6268 7.89856 29.7127 7.57819 28.4994 7.57819H24.8742C24.6263 7.57819 24.4151 7.75867 24.3765 8.00366L22.9103 17.3011C22.8813 17.4845 23.0231 17.6501 23.2092 17.6501H24.9399C25.1878 17.6501 25.399 17.47 25.4376 17.2246L25.8333 14.7165C25.8713 14.4712 26.0828 14.2909 26.3306 14.2909H27.4782C29.866 14.2909 31.2444 13.1353 31.604 10.8443C31.7662 9.84275 31.6109 9.05522 31.142 8.50398ZM28.9176 10.974C28.7194 12.2751 27.7255 12.2751 26.7645 12.2751H26.2176L26.6011 9.84529C26.6239 9.69833 26.7513 9.59033 26.8995 9.59033H27.1502C27.8048 9.59033 28.4223 9.59033 28.7415 9.96362C28.9319 10.1863 28.99 10.517 28.9176 10.974Z" fill="#253B80"/>
<path d="M39.3378 10.9319H37.6014C37.4536 10.9319 37.3259 11.0401 37.3032 11.1871L37.2259 11.6729L37.1045 11.4968C36.7289 10.951 35.8908 10.7687 35.0547 10.7687C33.1362 10.7687 31.4979 12.2222 31.1785 14.2607C31.0129 15.2775 31.2486 16.2501 31.8253 16.9283C32.3543 17.5515 33.1114 17.8114 34.0119 17.8114C35.5574 17.8114 36.4147 16.8176 36.4147 16.8176L36.3374 17.2996C36.308 17.4845 36.4503 17.6497 36.6354 17.6497H38.1991C38.4475 17.6497 38.6575 17.4689 38.697 17.2235L39.6351 11.281C39.6646 11.0981 39.5228 10.9319 39.3378 10.9319ZM36.9175 14.3119C36.7499 15.304 35.9629 15.9694 34.9588 15.9694C34.4546 15.9694 34.0519 15.8077 33.793 15.5013C33.5365 15.1969 33.439 14.7641 33.5207 14.2818C33.677 13.2978 34.4773 12.6101 35.4659 12.6101C35.9591 12.6101 36.3597 12.7739 36.6238 13.0833C36.8885 13.3951 36.9932 13.8311 36.9175 14.3119Z" fill="#253B80"/>
<path d="M48.5844 10.9319H46.8399C46.6738 10.9319 46.5175 11.0148 46.4227 11.153L44.0167 14.698L42.9969 11.2918C42.9328 11.0787 42.7362 10.9323 42.5135 10.9323H40.7995C40.5909 10.9323 40.4465 11.136 40.5129 11.3322L42.4342 16.9722L40.6275 19.5225C40.4851 19.7231 40.6286 20 40.8739 20H42.6163C42.7811 20 42.9368 19.9192 43.0302 19.7836L48.8325 11.4071C48.9718 11.2065 48.8288 10.9319 48.5844 10.9319Z" fill="#253B80"/>
<path d="M16.9273 8.61111C16.7354 8.39311 16.4975 8.21245 16.219 8.06512C16.2041 8.1599 16.1874 8.25702 16.1682 8.35669C16.1501 8.44965 16.1304 8.54025 16.1099 8.62977C15.4763 11.3988 13.7073 12.5859 11.4015 12.8356C11.2478 12.8523 11.0918 12.8646 10.9334 12.8731C10.7595 12.8826 10.5828 12.8869 10.4038 12.8869H8.94506C8.59445 12.8869 8.29929 13.1413 8.24457 13.4874L7.58304 17.6828L7.49752 18.2246L7.28625 19.5677C7.25056 19.7942 7.42559 19.9995 7.65461 19.9995H10.242C10.5484 19.9995 10.8086 19.7768 10.8572 19.4747L10.8825 19.343L11.3696 16.251L11.4009 16.0809C11.4486 15.7775 11.7095 15.5552 12.0161 15.5552H12.4031C14.9101 15.5552 16.8725 14.5375 17.4462 11.5914C17.6854 10.3612 17.5614 9.33377 16.9273 8.61111Z" fill="#179BD7"/>
<path d="M8.24448 13.4875L8.2684 13.3339L9.09779 8.08173C9.12986 7.8737 9.26341 7.70336 9.44335 7.61729C9.52544 7.57815 9.61605 7.5564 9.71191 7.5564H13.6099C14.0718 7.5564 14.5027 7.58684 14.8959 7.65045C15.0083 7.66839 15.1175 7.68905 15.2243 7.71242C15.3305 7.73652 15.4338 7.7628 15.5338 7.79179C15.5718 7.80321 15.609 7.8148 15.6461 7.8264C15.6575 7.83021 15.6695 7.83347 15.6807 7.83746C15.6874 7.83981 15.6936 7.84235 15.7003 7.8447C15.8853 7.90722 16.0584 7.9797 16.218 8.06415C16.2187 8.06451 16.2195 8.06433 16.2202 8.06487C16.4154 6.82033 16.2186 5.97336 15.5457 5.20612C14.8041 4.36169 13.4655 4 11.7523 4H6.77941C6.42949 4 6.13086 4.25442 6.07686 4.60089L4.00528 17.7309C3.96451 17.9908 4.16493 18.2247 4.42696 18.2247H7.49681L7.58234 17.6829L8.24448 13.4875Z" fill="#253B80"/>
<path d="M16.2168 8.06433C16.057 7.9797 15.8841 7.90722 15.6991 7.84488C15.6924 7.84253 15.6863 7.83999 15.6796 7.83763C15.6682 7.83383 15.6564 7.83039 15.645 7.82658C15.6078 7.81498 15.5707 7.80339 15.5326 7.79197C15.4325 7.76298 15.3292 7.73652 15.2232 7.7126C15.1167 7.68922 15.0074 7.66857 14.8949 7.65063C14.5018 7.58702 14.071 7.55658 13.6091 7.55658H9.71176C9.61574 7.55658 9.52515 7.57832 9.44326 7.61747C9.26336 7.70354 9.12984 7.8737 9.09777 8.0819L8.26854 13.3342L8.24463 13.4875C8.29934 13.1418 8.59465 12.8872 8.94504 12.8872H10.4037C10.5827 12.8872 10.7593 12.8827 10.9332 12.8731C11.0916 12.8645 11.2476 12.8524 11.4012 12.8356C13.707 12.586 15.4756 11.3986 16.1091 8.62988C16.1296 8.54036 16.1495 8.44976 16.1675 8.3568C16.1867 8.25695 16.2035 8.16 16.2182 8.06523C16.2178 8.06487 16.2173 8.06451 16.2168 8.06433Z" fill="#222D65"/>
</svg>
