<svg width="46" height="24" viewBox="0 0 46 24" fill="currentBackgroundColor" xmlns="http://www.w3.org/2000/svg">
<path d="M40.6311 9.05252C40.6285 9.36099 40.4394 9.54334 40.1309 9.54676C39.7339 9.55017 39.336 9.54676 38.938 9.54593C38.938 9.54593 38.9686 12.8523 38.9261 14.5055C38.8758 16.5039 37.8107 17.8631 35.8859 18.3948C34.2584 18.8447 32.613 18.8413 31.0043 18.2951C29.3675 17.7395 28.4685 16.5652 28.2853 14.8438C28.2597 14.5984 28.252 14.353 28.252 14.1067C28.252 12.1373 28.2512 10.1671 28.252 8.19783C28.252 7.3099 28.5162 7.03375 29.4015 6.9946C29.8812 6.97327 30.361 6.9537 30.8355 7.04317C31.2777 7.1258 31.5019 7.37804 31.5436 7.82888C31.5598 7.99849 31.5674 8.16976 31.5684 8.33936C31.5692 10.3156 31.5684 12.2917 31.5692 14.267C31.5692 14.8243 31.726 15.304 32.256 15.5827C32.5158 15.7191 32.7996 15.7788 33.091 15.806C33.546 15.8486 33.9976 15.8452 34.4466 15.7532C35.2067 15.5981 35.602 15.1345 35.6302 14.3573C35.6318 14.3003 35.6302 14.2431 35.631 14.1869C35.6336 12.1476 35.6352 10.1085 35.6395 8.07013C35.6395 7.95675 35.6506 7.84263 35.6685 7.731C35.7299 7.34156 35.965 7.11997 36.3468 7.04158C36.5623 6.99726 36.7821 6.99468 37.0003 6.98452V6.98535H37.2815C37.2815 6.98535 37.2807 6.71862 37.2892 6.63681C37.319 6.36241 37.4809 6.18348 37.7527 6.18006C38.5537 6.16898 39.3555 6.16815 40.1573 6.17839C40.4504 6.18264 40.6293 6.38632 40.631 6.68546C40.6354 7.47434 40.6363 8.26347 40.6311 9.05252Z" fill="#BAD000"/>
<path d="M38.941 9.54422C38.5748 9.54264 38.2078 9.52581 37.8426 9.54405C37.5234 9.55996 37.2743 9.35354 37.2843 8.97842C37.3006 8.36623 37.2966 7.59726 37.2873 6.98523C37.2873 6.98523 37.3751 6.98839 37.4214 6.99014C37.711 7.00122 38.001 6.99356 38.2863 7.06853C38.6268 7.15808 38.8308 7.36293 38.8976 7.71172C38.9587 8.03177 38.9267 8.35382 38.9336 8.67495C38.9397 8.96518 38.9377 9.25557 38.9392 9.54597C38.9391 9.54605 38.941 9.54422 38.941 9.54422Z" fill="#AEB702"/>
<path d="M2.99987 13.2521C2.99987 11.8382 2.99929 10.4244 3.00045 9.01048C3.0007 8.74532 3.01311 8.48025 3.07591 8.22109C3.2534 7.48944 3.77219 7.04052 4.57207 7.00978C5.88908 6.95922 7.20934 6.9164 8.52368 7.04569C9.36562 7.12849 10.1339 7.41505 10.7074 8.08214C11.1195 8.56164 11.3182 9.13568 11.4054 9.75129C11.5216 10.5711 11.5093 11.3867 11.2823 12.1896C10.9647 13.3127 10.1992 13.9588 9.09103 14.2338C8.59256 14.3575 8.08409 14.397 7.57155 14.3966C6.6439 14.3958 5.71618 14.4007 4.78861 14.3916C4.61771 14.3899 4.57957 14.4398 4.58057 14.6039C4.58773 15.7022 4.58373 16.8005 4.58423 17.8988C4.58431 18.0588 4.57224 18.2176 4.47221 18.3488C4.26108 18.626 3.34284 18.6304 3.1233 18.3588C3.06234 18.2833 3.02661 18.1959 3.02061 18.0988C3.01211 17.9603 3.0007 17.8216 3.00054 17.6831C2.99929 16.2061 2.99987 14.7292 2.99987 13.2521ZM4.58498 10.9692C4.58498 11.5625 4.58939 12.1558 4.58156 12.7491C4.57982 12.8826 4.61546 12.9151 4.74731 12.9144C5.72542 12.9086 6.70354 12.9128 7.68165 12.9102C7.94675 12.9096 8.21086 12.8831 8.47196 12.8357C9.21254 12.7011 9.67453 12.286 9.8013 11.6201C9.91432 11.0262 9.92223 10.4276 9.79996 9.83384C9.66246 9.16609 9.27226 8.73433 8.59273 8.5823C8.32046 8.5214 8.04462 8.49108 7.76786 8.489C6.94124 8.48275 6.11445 8.48566 5.28792 8.488C5.19405 8.48825 5.09861 8.49941 5.00674 8.5189C4.78662 8.56564 4.65053 8.70242 4.61555 8.92642C4.59706 9.04438 4.58715 9.16475 4.58656 9.28413C4.58331 9.84567 4.5849 10.4074 4.58498 10.9692Z" fill="#BAD000"/>
<path d="M21.6132 21.9985C21.1961 22.0071 21.0365 21.8812 20.9431 21.47C20.9152 21.3473 20.8851 21.2239 20.8732 21.0991C20.8468 20.8241 20.9531 20.6847 21.226 20.6348C21.4677 20.5904 21.7153 20.5729 21.9534 20.5155C22.5144 20.3802 22.9141 20.0358 23.1752 19.5241C23.29 19.2991 23.3862 19.0665 23.4667 18.8277C23.4873 18.7668 23.5529 18.6944 23.4969 18.6375C23.4535 18.5933 23.3782 18.6381 23.3178 18.6494C23.0169 18.7057 22.7152 18.707 22.4148 18.6526C21.7868 18.5388 21.3884 18.145 21.1367 17.5824C20.8703 16.9872 20.7391 16.3492 20.5667 15.7249C20.0908 14.0002 19.6235 12.2733 19.1547 10.5467C18.9915 9.94529 19.1277 9.7711 19.7501 9.77277C19.8007 9.77294 19.8511 9.77269 19.9016 9.77469C20.353 9.79218 20.5512 9.94387 20.6739 10.382C20.8299 10.9398 20.9785 11.4996 21.1309 12.0585C21.5351 13.5409 21.9396 15.0233 22.3443 16.5055C22.3592 16.5601 22.3793 16.6135 22.3975 16.6672C22.5959 17.2556 22.849 17.383 23.5232 17.2995C23.7721 17.2688 23.9138 17.0832 24.0064 16.8641C24.157 16.5081 24.2191 16.1268 24.3096 15.7543C24.7419 13.9733 25.1682 12.191 25.5982 10.4095C25.7103 9.94496 25.9047 9.78685 26.3791 9.77402C26.5361 9.76977 26.6938 9.76394 26.8505 9.79676C27.1083 9.85066 27.2016 9.96545 27.1959 10.2308C27.1925 10.3904 27.146 10.5416 27.108 10.6939C26.443 13.3558 25.7789 16.018 25.1087 18.6785C24.9308 19.3847 24.68 20.0632 24.2593 20.6673C23.7254 21.434 22.9774 21.838 22.065 21.9631C21.965 21.9768 21.8648 21.9888 21.7643 21.9978C21.7143 22.0023 21.6635 21.9985 21.6132 21.9985Z" fill="#BAD000"/>
<path d="M18.5548 14.1259C18.5548 14.7885 18.5713 15.4514 18.5512 16.1135C18.5147 17.3163 17.9172 18.1146 16.7613 18.4464C15.5889 18.7829 14.3943 18.8285 13.2173 18.4715C11.9283 18.0806 11.3654 17.0942 11.4202 15.8058C11.4486 15.1389 11.6326 14.5382 12.1505 14.0816C12.5447 13.7341 13.0216 13.5574 13.5261 13.4478C14.0021 13.3445 14.4859 13.3075 14.9723 13.3069C15.5907 13.3061 16.2091 13.3004 16.8272 13.3108C16.9984 13.3137 17.0444 13.2601 17.0345 13.096C17.0148 12.769 17.0465 12.4406 17.0104 12.1129C16.9551 11.6111 16.6915 11.2726 16.2241 11.0977C15.6937 10.8993 15.1376 10.8888 14.5817 10.9081C14.0142 10.9277 13.4504 10.9861 12.894 11.1093C12.4919 11.1983 12.2963 11.0417 12.2714 10.628C12.2315 9.96168 12.3419 9.79316 13.0019 9.67787C14.2038 9.46778 15.4104 9.41946 16.6027 9.73926C17.4205 9.9586 18.0697 10.4031 18.3828 11.2338C18.5107 11.5734 18.5631 11.9271 18.5622 12.2897C18.5609 12.9018 18.5619 13.5139 18.5619 14.126C18.5595 14.1259 18.5572 14.1259 18.5548 14.1259ZM17.0313 15.3098C17.0313 15.1269 17.0215 14.9431 17.0343 14.761C17.0448 14.6116 16.9977 14.5668 16.8458 14.5685C16.1772 14.5765 15.5083 14.5715 14.8396 14.5722C14.5804 14.5724 14.3236 14.6008 14.0698 14.6522C13.3588 14.7961 13.037 15.1296 12.9614 15.7967C12.8857 16.4658 13.1767 16.9993 13.7838 17.1814C14.621 17.4326 15.4681 17.3974 16.2914 17.1048C16.7286 16.9496 16.9493 16.5994 17.005 16.1414C17.0388 15.8646 17.0295 15.5871 17.0313 15.3098Z" fill="#BAD000"/>
<path d="M43.1003 4.94879C43.1003 5.23236 43.1016 5.51601 43.1 5.79957C43.0986 6.05423 42.9712 6.19226 42.7228 6.19326C42.1432 6.19568 41.5634 6.19393 40.9837 6.18835C40.7669 6.18618 40.624 6.05531 40.6211 5.83572C40.6132 5.23719 40.6125 4.63824 40.6226 4.03971C40.6265 3.80737 40.7684 3.68667 41.0026 3.68542C41.5697 3.68225 42.1368 3.68234 42.7039 3.68517C42.9715 3.6865 43.0983 3.81562 43.0999 4.07894C43.1015 4.36892 43.1002 4.65882 43.1003 4.94879Z" fill="#BAD000"/>
<path d="M38.9397 2.82896C38.9397 2.63978 38.937 2.45051 38.9405 2.26142C38.9438 2.07707 39.0215 2.00184 39.2074 2.00118C39.5922 1.99968 39.9769 1.99951 40.3617 2.00126C40.5454 2.00209 40.6286 2.07857 40.6309 2.26275C40.6357 2.64736 40.6355 3.03205 40.6316 3.41666C40.6296 3.6021 40.5374 3.69606 40.3501 3.69856C39.9717 3.70339 39.5931 3.70248 39.2147 3.6979C39.027 3.69565 38.9403 3.60351 38.9374 3.41525C38.9344 3.21982 38.9367 3.02431 38.9367 2.82888C38.9378 2.82896 38.9388 2.82896 38.9397 2.82896Z" fill="#BAD000"/>
</svg>
