<svg width="64" height="24" viewBox="0 0 64 24" fill="currentBackgroundColor" xmlns="http://www.w3.org/2000/svg">
<path fill-rule="evenodd" clip-rule="evenodd" d="M14.4215 13.5271L19.3153 13.5208L19.137 14.635L15.0442 18.5439L18.4799 18.5377L18.2796 19.7395L13.2199 19.7426L13.4327 18.5001L17.3565 14.7414H14.2244L14.4215 13.5271Z" fill="#D13239"/>
<path fill-rule="evenodd" clip-rule="evenodd" d="M9.065 11.6211C8.95861 11.5084 8.80529 11.4208 8.63632 11.3519C8.45796 11.2831 8.26083 11.233 8.06683 11.1986C7.82277 11.1548 7.58496 11.136 7.41599 11.1297C7.25954 11.1235 7.15941 11.1235 7.15941 11.1235H5.01914H3.42645L1.9996 19.7426H3.33258L3.85826 16.5503L6.44286 16.5629C6.44286 16.5629 7.45041 16.6035 8.16383 16.2248C8.87726 15.8462 9.06813 14.9855 9.06813 14.9855C9.06813 14.9855 9.14636 14.6663 9.21207 14.2782C9.28403 13.8494 9.356 13.3362 9.39355 13.0639C9.4092 12.9449 9.41858 12.8698 9.41858 12.8698C9.41858 12.8698 9.43736 12.7822 9.43736 12.6445C9.44049 12.4536 9.41232 12.1657 9.26213 11.8902C9.20894 11.7932 9.14636 11.7056 9.065 11.6211ZM8.03867 13.1421C8.03867 13.1578 7.91977 13.8494 7.76331 14.6694C7.70386 14.9824 7.46293 15.1514 7.18757 15.2108C6.73073 15.3079 6.23947 15.2891 6.23947 15.2891L4.08042 15.2828L4.55604 12.4192L6.51169 12.4254C6.51169 12.4254 6.64312 12.4223 6.82773 12.4254C7.03738 12.4286 7.31586 12.4379 7.54428 12.4692C7.74141 12.4943 7.89786 12.535 7.94793 12.5976C8.01364 12.6789 8.03867 12.7853 8.04806 12.8792C8.06058 13.0169 8.03867 13.1327 8.03867 13.1421Z" fill="#D13239"/>
<path fill-rule="evenodd" clip-rule="evenodd" d="M25.9543 11.1235H27.2372L25.801 19.7426L24.5149 19.7395L25.9543 11.1235Z" fill="#D13239"/>
<path fill-rule="evenodd" clip-rule="evenodd" d="M32.8022 13.527L34.0319 13.5239L34.4668 17.8992L36.3599 13.5176L37.8775 13.5208L38.325 17.9148L40.2149 13.5239H41.4916L38.7818 19.7363H37.2673L36.8293 15.3861L34.9174 19.7363L33.428 19.7426L32.8022 13.527Z" fill="#D13239"/>
<path d="M23.5845 13.5772C23.2246 13.4614 22.6019 13.4363 22.0731 13.4426C21.5631 13.4489 21.3284 13.4739 21.1376 13.5146C21.1376 13.5146 20.2301 13.646 19.7138 14.2845C19.1975 14.9229 19.0442 16.3188 19.0442 16.3188C19.0442 16.3188 18.7376 17.8617 18.8283 18.3781C18.9191 18.8914 19.0786 19.3702 19.6606 19.5924C20.2426 19.8178 20.737 19.8052 20.737 19.8052C20.737 19.8052 21.7759 19.8866 22.5581 19.702C23.3404 19.5173 23.7534 18.9665 23.7534 18.9665C23.7534 18.9665 23.9381 18.7286 24.0695 18.447C24.2009 18.1653 24.2416 17.9681 24.2478 17.9431L24.3292 17.6082L22.9993 17.6113C22.9993 17.6113 22.9274 18.4908 22.2077 18.5721C21.4911 18.6535 21.1063 18.6222 20.9655 18.616C20.8278 18.6097 20.058 18.6441 20.1206 17.9994C20.1206 17.99 20.1206 17.9775 20.1237 17.9587C20.1582 17.2264 20.2395 17.0355 20.2395 17.0355L24.4168 17.0229L24.5952 15.9902C24.8017 14.8197 24.6546 13.9277 23.5845 13.5772ZM23.306 15.8431L20.4429 15.8399L20.5555 15.3861C20.5555 15.3861 20.6557 15.0293 20.8528 14.8791C21.0531 14.7289 21.3065 14.7007 21.5443 14.6788C21.7821 14.6569 22.4173 14.61 22.9336 14.7164C23.1057 14.7508 23.2684 14.8478 23.3122 14.9918C23.4124 15.3298 23.306 15.8431 23.306 15.8431Z" fill="#D13239"/>
<path d="M20.13 17.9712C20.13 17.9806 20.1269 17.99 20.1269 17.9994C20.1238 18.0495 20.13 17.9681 20.13 17.9712Z" fill="#D13239"/>
<path d="M28.0105 17.9743C28.0105 17.9837 28.0074 17.9931 28.0074 18.0025C28.0074 18.0526 28.0105 17.9711 28.0105 17.9743Z" fill="#D13239"/>
<path d="M31.468 13.5802C31.1082 13.4644 30.4855 13.4394 29.9567 13.4456C29.4467 13.4519 29.212 13.4769 29.0211 13.5176C29.0211 13.5176 28.1137 13.6491 27.5974 14.2875C27.0811 14.926 26.9278 16.3218 26.9278 16.3218C26.9278 16.3218 26.6211 17.8648 26.7119 18.3812C26.8026 18.8944 26.9622 19.3733 27.5442 19.5955C28.1262 19.8208 28.6206 19.8083 28.6206 19.8083C28.6206 19.8083 29.6595 19.8897 30.4417 19.705C31.224 19.5204 31.637 18.9695 31.637 18.9695C31.637 18.9695 31.8216 18.7317 31.953 18.45C32.0845 18.1683 32.1251 17.9712 32.1314 17.9461L32.2128 17.6113L30.8829 17.6144C30.8829 17.6144 30.8109 18.4938 30.0913 18.5752C29.3747 18.6566 28.9898 18.6253 28.849 18.6221C28.7114 18.6159 27.9416 18.6472 28.0042 18.0056C28.0042 17.9962 28.0042 17.9837 28.0073 17.9649C28.0417 17.2326 28.1231 17.0417 28.1231 17.0417L32.3004 17.0291L32.4787 15.9963C32.6852 14.8227 32.5382 13.9276 31.468 13.5802ZM31.177 15.843L28.314 15.8399L28.4266 15.3861C28.4266 15.3861 28.5267 15.0293 28.7239 14.879C28.921 14.7288 29.1776 14.7007 29.4154 14.6787C29.6532 14.6568 30.2884 14.6099 30.8047 14.7163C30.9768 14.7507 31.1395 14.8477 31.1833 14.9917C31.2834 15.3266 31.177 15.843 31.177 15.843Z" fill="#D13239"/>
<path fill-rule="evenodd" clip-rule="evenodd" d="M42.9702 13.527L43.7932 18.0713L46.1181 13.5239L47.426 13.5364L44.0748 20.0305C44.0748 20.0305 43.4678 21.2072 43.0923 21.5045C42.7168 21.8019 42.4852 21.9364 42.1786 21.9677C41.8719 21.999 41.7468 22.0209 41.4526 21.9677L41.1397 21.9114L41.3337 20.7503C41.3337 20.7503 41.8532 20.8473 42.1598 20.7253C42.4696 20.6032 42.7168 20.0774 42.7168 20.0774L42.8732 19.8145L41.6623 13.5239L42.9702 13.527Z" fill="#D13239"/>
<path fill-rule="evenodd" clip-rule="evenodd" d="M47.9028 14.1436L49.2514 14.1468L49.3328 13.6241C49.3328 13.6241 49.4767 12.6789 49.799 12.4974C49.9023 12.438 50.0681 12.3848 50.259 12.3503C50.6126 12.2877 51.06 12.2815 51.4261 12.294C51.9862 12.3128 52.199 12.319 52.7685 12.3848C53.338 12.4505 53.194 13.0013 53.194 13.0013L53.0814 13.8244C53.0814 13.8244 53.0313 14.1937 52.8999 14.4222C52.7841 14.6256 52.465 14.7633 52.2803 14.8228C51.836 14.9667 50.3153 15.3548 50.3153 15.3548L49.12 15.6991C49.12 15.6991 48.3847 15.9119 47.9748 16.3657C47.5617 16.8226 47.399 17.339 47.3427 17.6082C47.2864 17.8773 46.9703 19.7395 46.9703 19.7395L53.4224 19.7426L53.6383 18.4532L48.5349 18.4595L48.6256 17.9337C48.6256 17.9337 48.6851 17.3922 48.9041 17.2139C48.9729 17.1575 49.0073 17.0824 49.4141 16.9384C49.6582 16.8508 50.4905 16.6286 50.4905 16.6286L52.4149 16.1028C52.4149 16.1028 53.4662 15.8337 53.8793 15.2578C54.2923 14.6851 54.4519 13.5866 54.4519 13.5866C54.4519 13.5866 54.5645 12.5193 54.4769 12.1845C54.3924 11.8496 54.0764 11.449 53.6915 11.2768C53.3067 11.1047 52.9061 11.0046 51.7453 11.0202C50.5844 11.0359 50.0086 11.0891 49.4204 11.3081C48.8321 11.5241 48.4911 11.9184 48.2752 12.4755C48.0405 13.0044 47.9028 14.1436 47.9028 14.1436Z" fill="#B3B2B1"/>
<path fill-rule="evenodd" clip-rule="evenodd" d="M60.0513 16.5409L60.9555 11.1203H59.3535L54.3658 16.4783L54.1405 17.8366H58.5024L58.1832 19.7394L59.5224 19.7426L59.8385 17.8366L61.0745 17.8397L61.2966 16.5409H60.0513ZM58.7183 16.544L55.899 16.5409L59.3316 12.8823L58.7183 16.544Z" fill="#B3B2B1"/>
<path fill-rule="evenodd" clip-rule="evenodd" d="M11.8961 11.8339H16.0045C16.0045 11.8339 16.9244 11.089 17.5784 10.6102C18.2324 10.1313 19.4214 9.37708 19.4214 9.37708L17.0997 8.29108C17.0997 8.29108 15.1378 9.50539 14.3054 10.0781C13.4981 10.607 11.8961 11.8339 11.8961 11.8339Z" fill="#B3B2B1"/>
<path fill-rule="evenodd" clip-rule="evenodd" d="M20.7276 8.61025L18.8221 7.32708C18.8221 7.32708 20.5462 6.34749 22.8398 5.43363C25.1302 4.51976 26.3537 4.13794 26.3537 4.13794L26.7417 5.95628C26.7417 5.95628 24.5357 6.69489 23.2716 7.29265C21.9636 7.84974 20.7276 8.61025 20.7276 8.61025Z" fill="#B3B2B1"/>
<path fill-rule="evenodd" clip-rule="evenodd" d="M28.1516 5.55888L27.8199 3.69672C27.8199 3.69672 30.173 3.07078 32.3258 2.67018C34.4817 2.26958 37.3385 2.07867 37.3385 2.07867L36.3935 4.95485C36.3935 4.95485 33.8809 4.61058 31.5216 4.93294C29.6849 5.15202 28.1516 5.55888 28.1516 5.55888Z" fill="#B3B2B1"/>
<path fill-rule="evenodd" clip-rule="evenodd" d="M37.8912 5.19898L39.4811 2.00358C39.4811 2.00358 42.9644 1.93473 45.9689 2.40105C48.9734 2.86424 51.7213 3.57781 51.6618 3.6091L44.0442 7.59318C44.0442 7.59318 42.2634 6.4665 40.0538 5.77484C38.802 5.40554 37.8912 5.19898 37.8912 5.19898Z" fill="#B3B2B1"/>
<path fill-rule="evenodd" clip-rule="evenodd" d="M45.4087 8.4601L47.0831 9.73075H60.8443C60.8443 9.73075 60.8161 9.28634 60.45 8.65414C60.2215 8.2598 59.8052 7.84043 59.3702 7.4054C59.2106 7.24892 58.5784 6.75443 58.1027 6.44459C56.8884 5.65591 56.2092 5.35233 54.948 4.7796L45.4087 8.4601Z" fill="#B3B2B1"/>
<path d="M12.7872 13.5208C12.2709 13.5208 11.7828 13.7242 11.3666 13.9527L11.4386 13.5208H10.0712L8.97601 19.7082H10.3465L10.9536 16.2812C11.0787 15.5864 11.5982 14.7257 12.612 14.7257L13.3191 14.7226L13.5319 13.5208H12.7872Z" fill="#D13239"/>
</svg>
