<svg width="92" height="24" viewBox="0 0 92 24" fill="currentBackgroundColor" xmlns="http://www.w3.org/2000/svg">
<path fill-rule="evenodd" clip-rule="evenodd" d="M38.3671 9.10492H39.5921C40.4163 9.10492 40.9886 9.45025 40.9886 10.1864C40.9886 11.0953 40.267 11.3368 39.5798 11.3368H38.3665L38.3671 9.10492ZM83.3987 12.3949H84.612C85.9169 12.3949 86.1917 13.0716 86.1917 13.6467C86.1917 14.8752 84.9212 14.8753 84.5776 14.8753H83.3993V12.3938L83.3987 12.3949ZM38.3671 12.4398H39.6154C40.6911 12.4398 41.1945 12.819 41.1945 13.6357C41.1945 14.772 40.1533 14.898 39.2602 14.898H38.3677L38.3671 12.4398ZM76.8613 9.10492V7.97908H71.0454V9.10492H73.3362V16.0232H74.5728V9.10492H76.8613ZM63.9492 8.96667C64.9793 8.96667 65.7692 9.41583 66.2271 9.85333V8.42592C65.4145 7.95458 64.4538 7.83967 63.9148 7.83967C61.5231 7.83967 59.6448 9.473 59.6448 12.0018C59.6448 14.5293 61.5231 16.1598 63.9148 16.1598C64.4538 16.1598 65.4139 16.0448 66.2277 15.5741V14.1508C65.7698 14.5865 64.9793 15.0339 63.9498 15.0339C62.0948 15.0339 60.9281 13.7372 60.9281 12.0006C60.9281 10.264 62.0948 8.9655 63.9498 8.9655L63.9492 8.96667ZM49.241 16.0238H53.8295V14.898H50.4753V12.4521H53.532V11.2796H50.4753V9.10433H53.8295V7.9785H49.241V16.0227V16.0238ZM82.162 16.0238H84.7036C86.2261 16.0238 87.4161 15.2083 87.4161 13.6357C87.4161 12.0035 86.1456 11.2102 84.7036 11.2102H83.3981V7.9785H82.1614L82.162 16.0238ZM26.7022 15.0596C24.9738 15.0596 23.7715 13.7967 23.7715 12.0029C23.7715 10.2098 24.9732 8.9445 26.7022 8.9445C28.4078 8.9445 29.6101 10.2103 29.6101 12.0041C29.6101 13.7978 28.4084 15.0608 26.7022 15.0608V15.0596ZM37.131 16.0238H39.5343C41.0918 16.0238 42.4767 15.4265 42.4767 13.7967C42.4767 12.5542 41.7901 12.0373 41.0574 11.8425C41.8589 11.4633 42.2358 10.9337 42.2358 10.0482C42.2358 8.4965 40.9203 7.9785 39.6038 7.9785H37.1304V16.0227L37.131 16.0238ZM26.7022 7.84083C24.2755 7.84083 22.4893 9.64567 22.4893 12.0029C22.4893 14.3701 24.2755 16.1609 26.7022 16.1609C29.0938 16.1609 30.8917 14.3701 30.8917 12.0029C30.8917 9.64625 29.095 7.84083 26.7022 7.84083ZM11.1318 6.08033C14.3833 6.08033 17.0276 8.73683 17.0276 12.0023C17.0276 15.2649 14.3833 17.9185 11.1318 17.9185C7.88092 17.9185 5.23667 15.2643 5.23667 12.0023C5.23667 8.73683 7.88092 6.08033 11.1318 6.08033ZM4 12.0029C4 15.9083 7.2165 19 11.1318 19C15.0011 19 18.2182 16.0233 18.2182 12.0029C18.2182 7.98958 15.0017 5 11.1318 5C7.2165 5 4 8.1045 4 12.0029ZM11.5326 15.0363C12.5628 15.0363 13.3526 14.5883 13.8105 14.1519V15.5753C12.9979 16.0454 12.036 16.1603 11.4982 16.1603C9.1065 16.1603 7.22817 14.5299 7.22817 12.0023C7.22817 9.47242 9.1065 7.83967 11.4982 7.83967C12.036 7.83967 12.9973 7.954 13.8105 8.42533V9.85333C13.3526 9.41583 12.5622 8.96783 11.5326 8.96783C9.67758 8.96783 8.51092 10.2675 8.51092 12.0035C8.51092 13.7395 9.67758 15.0363 11.5326 15.0363Z" fill="#1A1918"/>
</svg>
