<svg width="56" height="24" viewBox="0 0 56 24" fill="currentBackgroundColor" xmlns="http://www.w3.org/2000/svg">
<path d="M35.7311 7.79633V16.2136C35.7311 16.3402 35.6294 16.4418 35.5028 16.4418H33.7837C33.6571 16.4418 33.5555 16.3402 33.5555 16.2136V7.79633C33.5555 7.66973 33.6571 7.56812 33.7837 7.56812H35.5028C35.6294 7.56812 35.7311 7.66973 35.7311 7.79633ZM49.129 7.56812H47.205C47.1051 7.56812 47.0151 7.63308 46.9868 7.72803L45.4642 12.7021L43.7918 7.72304C43.7602 7.62975 43.6735 7.56812 43.5752 7.56812H42.2326C42.1343 7.56812 42.0461 7.63142 42.0161 7.72304L40.3436 12.7021L38.8211 7.72803C38.7911 7.63308 38.7028 7.56812 38.6029 7.56812H36.6789C36.6056 7.56812 36.5356 7.6031 36.494 7.66307C36.4507 7.72137 36.439 7.798 36.4623 7.86796L39.2875 16.2885C39.3192 16.3818 39.4058 16.4434 39.5041 16.4434H41.0316C41.1299 16.4434 41.2182 16.3801 41.2481 16.2885L42.9056 11.3694L44.5631 16.2885C44.5947 16.3818 44.6813 16.4434 44.7796 16.4434H46.3071C46.4054 16.4434 46.4937 16.3801 46.5237 16.2885L49.3489 7.86796C49.3722 7.798 49.3605 7.72303 49.3172 7.66307C49.2722 7.6031 49.2023 7.56812 49.129 7.56812ZM52.0225 7.56812H50.3034C50.1768 7.56812 50.0751 7.66973 50.0751 7.79633V16.2136C50.0751 16.3402 50.1768 16.4418 50.3034 16.4418H52.0225C52.1491 16.4418 52.2507 16.3402 52.2507 16.2136V7.79633C52.2507 7.66973 52.1491 7.56812 52.0225 7.56812ZM32.5594 16.1536C32.6593 16.2652 32.5777 16.4434 32.4261 16.4434H30.3189C30.234 16.4434 30.1523 16.4051 30.0974 16.3385L29.7409 15.9087C29.0129 16.3801 28.1467 16.655 27.2172 16.655C24.6519 16.655 22.5663 14.5678 22.5663 12.0041C22.5663 9.44046 24.6536 7.35323 27.2172 7.35323C29.7825 7.35323 31.8681 9.44046 31.8681 12.0041C31.8681 12.9286 31.5966 13.7898 31.1285 14.5145L32.5594 16.1536ZM28.3833 14.2779L27.4604 13.1685C27.3638 13.0519 27.4471 12.8753 27.597 12.8753H29.5277C29.6193 12.6021 29.6709 12.3089 29.6709 12.0058C29.6709 10.6148 28.6365 9.41714 27.2155 9.41714C25.7946 9.41714 24.7602 10.6165 24.7602 12.0058C24.7602 13.3967 25.7946 14.5778 27.2155 14.5778C27.6487 14.5778 28.0418 14.4678 28.3833 14.2779ZM17.2875 16.1103C17.3391 16.4618 17.2292 16.6067 17.1175 16.6067C16.9959 16.6067 16.8444 16.4651 16.6645 16.1836C16.4862 15.907 16.4212 15.5889 16.5095 15.429C16.5678 15.3224 16.6894 15.2757 16.8427 15.334C17.1409 15.4473 17.2575 15.9021 17.2875 16.1103ZM15.645 16.8749C16.0015 17.1764 16.1097 17.5345 15.9215 17.7861C15.8166 17.9243 15.6467 18.0009 15.4434 18.0009C15.2435 18.0009 15.0403 17.9276 14.8987 17.8044C14.5756 17.5212 14.4806 17.0631 14.6905 16.8016C14.7738 16.7 14.907 16.6433 15.0686 16.6433C15.2635 16.645 15.4684 16.7266 15.645 16.8749ZM15.0486 19.7817C16.5828 19.7817 18.2469 20.3081 20.0893 21.9405C20.2742 22.1038 20.5191 21.9006 20.3592 21.6973C18.5485 19.4119 16.8743 18.9771 15.2036 18.609C13.1613 18.1592 12.1102 17.0098 11.3772 15.7471C11.2323 15.4956 11.1657 15.5406 11.1524 15.8637C11.1357 16.2585 11.164 16.7816 11.2523 17.2946C11.1707 17.298 11.0874 17.298 11.0041 17.298C8.08232 17.298 5.7119 14.9292 5.7119 12.0058C5.7119 9.08232 8.08065 6.71357 11.0041 6.71357C13.9259 6.71357 16.2963 9.08232 16.2963 12.0058C16.2963 12.214 16.2863 12.4189 16.263 12.6205C15.8765 12.5505 15.1153 12.5422 14.5822 12.5888C14.3823 12.6055 14.409 12.7004 14.5622 12.7271C16.3113 13.0436 17.514 14.128 17.7872 16.0936C17.7939 16.1386 17.8522 16.1519 17.8755 16.1136C18.5951 14.9126 19.0082 13.5066 19.0082 12.0041C19.0099 7.58311 15.4251 4 11.0041 4C6.58311 4 3 7.58311 3 12.0041C3 16.4251 6.58311 20.0099 11.0041 20.0099C12.1785 20.0099 13.3412 19.7817 15.0486 19.7817Z" fill="#FF8C00"/>
</svg>
