<svg width="80" height="24" viewBox="0 0 80 24" fill="currentBackgroundColor" xmlns="http://www.w3.org/2000/svg">
<path d="M24 18.22C24 20.65 22.65 22 20.22 22H7.78C5.35 22 4 20.65 4 18.22V5.78C4 3.35 5.35 2 7.78 2H20.225C22.65 2 24 3.35 24 5.78V18.22Z" fill="#FFE600"/>
<path d="M16.86 11.025V9.11502L17.55 8.42502V10.08L18.15 10.68L20.565 8.26502L21.16 8.86002C21.155 8.41002 21.065 7.10502 19.96 6.02002C18.77 4.87002 17.48 5.39002 17.04 5.83002L14.63 8.24002L15.245 8.85502L14 10.11L12.755 8.86502L13.37 8.25002L10.96 5.84002C10.52 5.40002 9.23 4.88002 8.04 6.03002C6.935 7.11502 6.845 8.42002 6.84 8.87002L7.435 8.27502L9.85 10.69L10.45 10.09V8.43502L11.14 9.12502V11.035L12.11 12L7.33 16.78L9.22 18.665L14 13.89L18.78 18.67L20.67 16.785L15.89 12L16.86 11.025Z" fill="#2B2D34"/>
<path fill-rule="evenodd" clip-rule="evenodd" d="M29.39 5.33502C29.895 5.33502 30.455 5.40502 30.92 5.81502C31.42 6.25002 31.49 6.83002 31.49 7.23002C31.49 7.96502 31.21 8.37502 30.99 8.60502C30.525 9.07502 29.915 9.12002 29.505 9.12002H28.685V11.165H27.34V5.33502H29.39ZM28.68 8.02002H29.16C29.345 8.02002 29.665 8.01002 29.885 7.80002C30.005 7.68002 30.105 7.47502 30.105 7.22502C30.105 6.98002 30.02 6.78002 29.885 6.65502C29.685 6.46502 29.395 6.43502 29.135 6.43502H28.68V8.02002Z" fill="#2B2D34"/>
<path fill-rule="evenodd" clip-rule="evenodd" d="M30.94 12.835H27.335V18.665H29.32C30.03 18.665 30.65 18.57 31.08 18.14C31.385 17.835 31.55 17.39 31.55 16.89C31.55 16.27 31.29 15.885 31.08 15.675C30.59 15.195 29.94 15.135 29.435 15.135H28.685V13.97H30.94V12.835ZM29.94 17.395C29.73 17.565 29.4 17.58 29.215 17.58V17.585H28.68V16.185H29.215C29.355 16.185 29.695 16.19 29.905 16.34C30.025 16.425 30.165 16.6 30.165 16.88C30.165 17.175 30.01 17.335 29.94 17.395Z" fill="#2B2D34"/>
<path fill-rule="evenodd" clip-rule="evenodd" d="M36.44 14.765H35.18V15.205C34.82 14.715 34.285 14.635 33.955 14.635C33.415 14.635 32.94 14.83 32.6 15.17C32.24 15.53 31.995 16.09 31.995 16.745C31.995 17.26 32.155 17.77 32.565 18.205C32.995 18.66 33.465 18.8 34.025 18.8C34.35 18.8 34.84 18.72 35.18 18.195V18.665H36.44V14.765ZM33.29 16.71C33.29 16.36 33.45 16.13 33.58 16C33.745 15.835 33.995 15.72 34.265 15.725C34.495 15.725 34.775 15.81 34.965 15.995C35.15 16.17 35.255 16.43 35.255 16.71C35.255 17.045 35.115 17.29 34.95 17.445C34.785 17.61 34.55 17.715 34.295 17.715C33.995 17.715 33.725 17.595 33.55 17.41C33.44 17.285 33.29 17.06 33.29 16.71Z" fill="#2B2D34"/>
<path d="M37.2 14.765H38.4599V16.12H39.8699V14.765H41.13V18.665H39.8699V17.135H38.4599V18.665H37.2V14.765Z" fill="#2B2D34"/>
<path d="M43.145 14.765H41.885V18.665H43.145V16.935L44.475 18.665H46.1L44.315 16.575L45.985 14.765H44.42L43.145 16.315V14.765Z" fill="#2B2D34"/>
<path fill-rule="evenodd" clip-rule="evenodd" d="M36.035 7.26501H34.775V7.70501C34.415 7.21501 33.88 7.13501 33.55 7.13501C33.01 7.13501 32.535 7.33001 32.195 7.67001C31.835 8.03001 31.59 8.59001 31.59 9.24501C31.59 9.76001 31.75 10.27 32.16 10.705C32.59 11.16 33.06 11.3 33.62 11.3C33.945 11.3 34.435 11.22 34.775 10.695V11.165H36.035V7.26501ZM32.885 9.21001C32.885 8.86001 33.045 8.63001 33.175 8.50001C33.34 8.33501 33.595 8.22001 33.86 8.22501C34.09 8.22501 34.37 8.31001 34.56 8.49501C34.745 8.67001 34.85 8.93001 34.85 9.21001C34.85 9.54501 34.71 9.79001 34.545 9.94501C34.38 10.11 34.145 10.215 33.89 10.215C33.59 10.215 33.32 10.095 33.145 9.91001C33.035 9.78501 32.885 9.56001 32.885 9.21001Z" fill="#2B2D34"/>
<path d="M38.0549 7.26504V9.49504L39.7149 7.26504H40.8849V11.165H39.6249V8.90004L37.9649 11.165H36.7949V7.26504H38.0549Z" fill="#2B2D34"/>
<path d="M40.4249 5.69004C40.3199 6.00504 40.1099 6.27504 39.8649 6.43504C39.5349 6.65504 39.1299 6.68004 38.8399 6.68004C38.5499 6.68004 38.1499 6.65504 37.8149 6.43504C37.5699 6.28004 37.3599 6.00504 37.2549 5.69004L38.1299 5.35004C38.1649 5.52504 38.2499 5.66504 38.3549 5.75004C38.4699 5.84504 38.6149 5.90504 38.8349 5.90504C39.0549 5.90504 39.1999 5.84504 39.3149 5.75004C39.4199 5.66504 39.5049 5.52504 39.5399 5.35004L40.4249 5.69004Z" fill="#2B2D34"/>
<path fill-rule="evenodd" clip-rule="evenodd" d="M43.67 11.225V13.11H44.94V11.225H44.99C45.875 11.225 46.365 10.86 46.59 10.64C46.87 10.365 47.15 9.90502 47.15 9.19502C47.15 8.42502 46.8 7.93502 46.475 7.67502C46.09 7.37002 45.51 7.20502 44.995 7.20502H44.935V5.33502H43.675V7.20502H43.615C43.095 7.20502 42.52 7.37002 42.135 7.67502C41.81 7.93502 41.46 8.42502 41.46 9.19502C41.46 9.90502 41.74 10.37 42.02 10.64C42.245 10.86 42.735 11.225 43.62 11.225H43.67ZM42.945 8.49002C43.125 8.30502 43.435 8.20502 43.73 8.22002V10.21C43.41 10.22 43.11 10.1 42.945 9.91502C42.795 9.76002 42.69 9.50502 42.69 9.20002C42.69 8.89002 42.795 8.64002 42.945 8.49002ZM45.655 9.92002C45.49 10.1 45.195 10.225 44.87 10.215V8.22502C45.165 8.20502 45.47 8.31002 45.655 8.49502C45.805 8.64502 45.91 8.90002 45.91 9.20502C45.91 9.51002 45.805 9.76502 45.655 9.92002Z" fill="#2B2D34"/>
<path fill-rule="evenodd" clip-rule="evenodd" d="M49.73 13.11V11.225H49.68C48.795 11.225 48.305 10.86 48.08 10.64C47.8 10.37 47.52 9.90502 47.52 9.19502C47.52 8.42502 47.87 7.93502 48.195 7.67502C48.58 7.37002 49.155 7.20502 49.675 7.20502H49.735V5.33502H50.995V7.20502H51.055C51.57 7.20502 52.15 7.37002 52.535 7.67502C52.86 7.93502 53.21 8.42502 53.21 9.19502C53.21 9.90502 52.93 10.365 52.65 10.64C52.425 10.86 51.935 11.225 51.05 11.225H51V13.11H49.73ZM49.79 8.22002C49.495 8.20502 49.185 8.30502 49.005 8.49002C48.855 8.64002 48.75 8.89002 48.75 9.20002C48.75 9.50502 48.855 9.76002 49.005 9.91502C49.17 10.1 49.47 10.22 49.79 10.21V8.22002ZM50.93 10.215C51.255 10.225 51.55 10.1 51.715 9.92002C51.865 9.76502 51.97 9.51002 51.97 9.20502C51.97 8.90002 51.865 8.64502 51.715 8.49502C51.53 8.31002 51.225 8.20502 50.93 8.22502V10.215Z" fill="#2B2D34"/>
<path fill-rule="evenodd" clip-rule="evenodd" d="M58.02 7.26501H56.7599V7.70501C56.3999 7.21501 55.865 7.13501 55.535 7.13501C54.9949 7.13501 54.52 7.33001 54.18 7.67001C53.82 8.03001 53.575 8.59001 53.575 9.24501C53.575 9.76001 53.735 10.27 54.145 10.705C54.575 11.16 55.0449 11.3 55.6049 11.3C55.93 11.3 56.4199 11.22 56.7599 10.695V11.165H58.02V7.26501ZM54.8699 9.21001C54.8699 8.86001 55.0299 8.63001 55.16 8.50001C55.325 8.33501 55.58 8.22001 55.845 8.22501C56.075 8.22501 56.3549 8.31001 56.5449 8.49501C56.7299 8.67001 56.8349 8.93001 56.8349 9.21001C56.8349 9.54501 56.695 9.79001 56.5299 9.94501C56.3649 10.11 56.13 10.215 55.875 10.215C55.575 10.215 55.305 10.095 55.13 9.91001C55.02 9.78501 54.8699 9.56001 54.8699 9.21001Z" fill="#2B2D34"/>
<path d="M60.0399 7.26504V9.49504L61.6999 7.26504H62.8699V11.165H61.6099V8.90004L59.9499 11.165H58.7799V7.26504H60.0399Z" fill="#2B2D34"/>
<path d="M62.4099 5.69004C62.3049 6.00504 62.0949 6.27504 61.8499 6.43504C61.5199 6.65504 61.1149 6.68004 60.8249 6.68004C60.5349 6.68004 60.1349 6.65504 59.7999 6.43504C59.5549 6.28004 59.3449 6.00504 59.2399 5.69004L60.1149 5.35004C60.1499 5.52504 60.2349 5.66504 60.3399 5.75004C60.4549 5.84504 60.5999 5.90504 60.8199 5.90504C61.0399 5.90504 61.1849 5.84504 61.2999 5.75004C61.4049 5.66504 61.4899 5.52504 61.5249 5.35004L62.4099 5.69004Z" fill="#2B2D34"/>
<path d="M64.15 7.27501C63.94 7.35501 63.67 7.49501 63.505 7.60001L63.995 8.44501C64.12 8.34001 64.25 8.26001 64.415 8.19001C64.58 8.12001 64.73 8.08501 64.93 8.08501C65.14 8.08501 65.265 8.13001 65.325 8.15501C65.48 8.22501 65.515 8.34001 65.515 8.41001C65.515 8.48501 65.48 8.60001 65.33 8.67001C65.21 8.72501 64.975 8.74001 64.86 8.74001H64.5V9.59501H64.97C65.11 9.59501 65.32 9.62001 65.425 9.66501C65.54 9.71501 65.61 9.79501 65.61 9.92501C65.61 10.01 65.585 10.135 65.435 10.22C65.31 10.29 65.12 10.315 64.98 10.315C64.775 10.315 64.54 10.265 64.375 10.195C64.22 10.125 64.035 10 63.895 9.88001L63.36 10.71C63.465 10.795 63.72 10.99 64.06 11.12C64.41 11.25 64.775 11.295 65.125 11.295C65.775 11.295 66.23 11.2 66.56 10.875C66.815 10.62 66.9 10.33 66.9 10.06C66.9 9.81001 66.83 9.60001 66.64 9.41501C66.585 9.36001 66.405 9.20501 66.115 9.13501C66.235 9.09001 66.35 9.01001 66.445 8.91501C66.635 8.71501 66.68 8.49501 66.68 8.25001C66.68 7.99001 66.61 7.74501 66.39 7.53501C65.995 7.15001 65.28 7.13501 65.07 7.13501C64.77 7.13501 64.445 7.17001 64.15 7.27501Z" fill="#2B2D34"/>
<path fill-rule="evenodd" clip-rule="evenodd" d="M71.46 9.435H68.55C68.55 9.645 68.63 9.925 68.785 10.1C68.975 10.31 69.24 10.345 69.43 10.345C69.615 10.345 69.805 10.31 69.935 10.23L69.9364 10.2291C69.9576 10.2151 70.1027 10.1194 70.205 9.905L71.395 10.025C71.22 10.575 70.87 10.865 70.645 11.005C70.27 11.23 69.85 11.295 69.41 11.295C68.825 11.295 68.31 11.19 67.855 10.735C67.515 10.395 67.27 9.88 67.27 9.23C67.27 8.67 67.47 8.09501 67.865 7.69C68.335 7.22001 68.925 7.13 69.36 7.13C69.795 7.13 70.425 7.21 70.91 7.715C71.375 8.205 71.46 8.815 71.46 9.3V9.435ZM70.3 8.685L70.2981 8.67816C70.2837 8.62551 70.2207 8.39619 70.045 8.23C69.905 8.1 69.705 8.01 69.45 8.01C69.125 8.01 68.935 8.14 68.81 8.265C68.715 8.37 68.625 8.51 68.59 8.685H70.3Z" fill="#2B2D34"/>
<path d="M73.2899 7.26501H72.0299V11.165H73.2899V9.63502H74.6999V11.165H75.9599V7.26501H74.6999V8.62001H73.2899V7.26501Z" fill="#2B2D34"/>
</svg>
