<svg width="42" height="24" viewBox="0 0 42 24" fill="currentBackgroundColor" xmlns="http://www.w3.org/2000/svg">
<path fill-rule="evenodd" clip-rule="evenodd" d="M16.7444 11.2476C16.7444 11.2476 17.0442 10.286 17.9492 10.286H21.0715C22.2254 10.286 22.3837 10.0258 22.3837 9.23947C22.3837 8.555 22.2706 8.2269 21.1507 8.2269H17.8757C17.1573 8.2269 16.7444 8.7643 16.7444 9.39786V11.2476ZM16.7444 7.49151C16.7444 7.49151 17.0668 6.64299 17.8474 6.64299H21.1507C21.7333 6.64299 22.0331 6.19045 22.0331 5.59082C22.0331 5.04777 21.7333 4.69705 21.1337 4.69705H17.7852C17.1573 4.69705 16.7444 5.17788 16.7444 5.62476V7.49151ZM16.6709 3.00566H21.0828C23.0851 3.00566 24.1938 3.59962 24.1938 5.25141C24.1938 6.70522 23.7978 7.01069 23.0738 7.24827C23.9675 7.54243 24.5444 7.92709 24.5444 9.3413C24.5444 11.2703 23.5659 11.983 21.524 11.983H14.5951V4.75927C14.5951 3.56003 15.4435 3 16.6766 3L16.6709 3.00566ZM28.2719 7.38969L29.5446 6.36015L32.7913 3.59962C33.3236 3.18761 33.9855 2.97901 34.6579 3.01131H36.0154L31.3942 7.20867L36.2133 11.983H35.1556C33.6115 11.983 32.78 11.0893 32.78 11.0893L30.2686 8.78127C29.4993 8.0572 28.2776 8.14205 28.2776 8.14205V10.5179C28.2776 11.208 27.9212 11.9887 26.7956 11.9887H26.1112V4.47643C26.1169 2.85292 28.2776 3.00566 28.2776 3.00566V7.38969H28.2719ZM9.66279 7.53111H6.13893C5.7543 7.53111 5.35836 7.70082 5.15474 8.30044V5.7775C5.15474 5.2797 5.56199 4.78756 6.21811 4.78756H9.66279C10.6244 4.78756 10.8959 5.21747 10.8959 6.16216C10.8959 7.13514 10.5848 7.53111 9.66279 7.53111ZM11.156 8.99623C12.3156 8.66813 13.0509 7.53111 13.0509 6.16216C13.0509 3.61659 11.716 3.00566 9.84379 3.00566H4.56083C3.22029 3.00566 2.99969 4.26147 2.99969 4.78756V11.983H3.70673C4.83798 11.983 5.15474 11.3212 5.15474 10.4613V9.31867H8.52588C8.77456 9.30506 9.0222 9.36014 9.24168 9.47787C9.46116 9.5956 9.64402 9.77145 9.77026 9.98617L10.4603 11.061C10.7714 11.5475 11.2975 11.983 12.4004 11.983H13.2093C13.2093 11.983 11.6481 9.69767 11.156 8.99623ZM10.0418 14.885H8.84828C7.97722 14.9415 7.64915 15.3036 7.46815 15.6373C7.29846 15.2979 6.95909 14.9415 6.09368 14.885H6.07671L5.85611 14.8793H4.89455C3.98389 14.885 2.99969 15.3545 2.99969 16.3953V19.1842H3.03929C3.0506 19.1898 3.35604 19.2124 3.54835 19.0371C3.60181 18.9865 3.64366 18.9248 3.671 18.8565C3.69834 18.7881 3.71053 18.7146 3.70673 18.6411V16.5141C3.70673 15.8466 4.18186 15.4846 5.05292 15.4846H5.68642C6.05974 15.4846 6.36518 15.5412 6.59143 15.66C6.85162 15.8014 7.02131 16.0163 7.08352 16.2935L7.09484 16.3501C7.11181 16.4293 7.11746 16.5141 7.11746 16.599V19.1842H7.15706L7.21362 19.1898C7.32109 19.1898 7.52471 19.1728 7.66612 19.0427C7.77359 18.9522 7.8245 18.8221 7.8245 18.6581V16.599C7.8245 16.5141 7.83015 16.4293 7.84712 16.3444L7.85843 16.2992C7.92065 16.0163 8.08469 15.8014 8.34487 15.66C8.57113 15.5468 8.88222 15.4846 9.24988 15.4846H9.88904C10.7544 15.4846 11.2352 15.8466 11.2352 16.5141V19.1842H11.2748C11.2861 19.1898 11.5916 19.2181 11.7839 19.0427C11.8914 18.9522 11.9423 18.8221 11.9423 18.6581V16.3953C11.9423 15.3545 10.9581 14.8793 10.0418 14.8793V14.885ZM13.4129 16.5707C13.4129 15.807 13.7975 15.4676 14.6516 15.4676H16.2637C17.0555 15.4676 17.4967 15.8636 17.4967 16.5707V17.4928C17.4967 18.2282 17.0782 18.5902 16.2523 18.5902H14.6516C13.8201 18.5902 13.4129 18.2338 13.4129 17.4928V16.5707ZM16.3033 14.8737H14.6064C12.9547 14.8737 12.7115 15.9371 12.7115 16.5707V17.4928C12.7115 18.6241 13.345 19.1898 14.6064 19.1898H16.2976C17.508 19.1898 18.2038 18.5732 18.2038 17.4928V16.5707C18.2038 15.0886 17.0159 14.8737 16.3033 14.8737ZM22.4969 14.885H20.8735C19.2219 14.885 18.9787 16.0163 18.9787 16.6895V19.1898H19.0183C19.0296 19.1898 19.335 19.2124 19.5273 19.0314C19.6291 18.9353 19.6857 18.8052 19.6857 18.6354V16.599C19.6857 15.9202 20.1382 15.4846 20.8735 15.4846H22.5025C23.2378 15.4846 23.6903 15.9145 23.6903 16.6047V19.1898H23.7356L23.7865 19.1955C23.8827 19.1955 24.0976 19.1785 24.2503 19.0427C24.3521 18.9522 24.403 18.8165 24.403 18.6581V16.6952C24.403 16.022 24.1542 14.8906 22.5025 14.8906L22.4969 14.885ZM25.8228 16.4859C25.8567 15.8693 26.264 15.4676 26.8635 15.4676H28.8036C29.4767 15.4676 29.8783 15.8636 29.9009 16.5255H25.8228V16.4859ZM30.608 17.1251V16.401C30.608 15.6373 30.031 14.8737 28.7414 14.8737H26.9597C26.066 14.8737 25.1157 15.428 25.1157 16.4689V17.5776C25.1157 18.6637 25.7209 19.1955 26.9823 19.1955H29.0638C30.4948 19.1955 30.608 18.1263 30.608 17.7982V17.7643L30.5684 17.7586C30.5684 17.7586 30.0593 17.6625 29.8387 18.132C29.6973 18.4375 29.4032 18.5902 28.9563 18.5902H26.954C26.1904 18.5902 25.8228 18.2338 25.8228 17.4928V17.1251H30.608ZM36.1568 14.885C36.1568 14.885 35.5006 14.8001 35.2744 15.3545C35.0708 15.858 34.03 18.2678 33.9169 18.5053C33.8886 18.4884 33.8038 18.4092 33.6171 18.0698L32.4067 15.841L32.1069 15.3036C31.8523 14.8284 31.2358 14.8793 31.2019 14.8793L31.1453 14.8906L31.1793 14.9472L33.2268 18.6581C33.4191 19.0258 33.5605 19.1389 33.6341 19.1728C33.1929 20.2307 32.9157 20.4004 32.4349 20.4004C32.3105 20.4004 32.2087 20.44 32.1408 20.5192C31.9938 20.6889 32.0277 20.9491 32.0277 20.9604L32.039 21H32.2822C33.3286 21 33.6793 20.604 34.0696 19.7159L36.2133 14.8906L36.1624 14.885H36.1568Z" fill="black"/>
<path fill-rule="evenodd" clip-rule="evenodd" d="M39.7369 10.7329C39.7366 10.906 39.7021 11.0773 39.6355 11.2371C39.569 11.3968 39.4716 11.5419 39.349 11.664C39.2263 11.7862 39.0809 11.8829 38.9208 11.9488C38.7608 12.0147 38.5894 12.0485 38.4163 12.0481C38.2433 12.0477 38.072 12.0133 37.9123 11.9467C37.7525 11.8801 37.6075 11.7827 37.4854 11.66C37.3632 11.5374 37.2665 11.3919 37.2006 11.2318C37.1347 11.0718 37.101 10.9003 37.1014 10.7272C37.1014 10.3777 37.2402 10.0424 37.4874 9.79522C37.7345 9.54804 38.0697 9.40918 38.4192 9.40918C38.7687 9.40918 39.1038 9.54804 39.351 9.79522C39.5981 10.0424 39.7369 10.3777 39.7369 10.7272" fill="#14B67F"/>
</svg>
