<svg width="37" height="24" viewBox="0 0 37 24" fill="none" xmlns="http://www.w3.org/2000/svg">
    <path
        d="M28.7326 5.61578C28.741 5.61594 28.7495 5.61615 28.7579 5.61634C28.7955 5.61717 28.8329 5.61825 28.8703 5.61977C28.8722 5.61985 28.8741 5.61991 28.876 5.61999C32.1646 5.75664 34.7897 8.52219 34.7897 11.9138C34.7897 15.3928 32.0278 18.213 28.6208 18.213C27.3923 18.213 26.2478 17.8463 25.2863 17.2142V20.5838L22.4519 22.109V12.1976H22.4581C22.4579 12.1941 22.4578 12.1907 22.4576 12.1873C22.456 12.1474 22.4547 12.1073 22.4537 12.0672C22.4535 12.0568 22.4534 12.0464 22.4532 12.036C22.4524 11.9954 22.4519 11.9546 22.4519 11.9138C22.4519 8.43491 25.2138 5.61467 28.6208 5.61467C28.6581 5.61467 28.6954 5.61511 28.7326 5.61578Z"
        fill="#1B1C1E"/>
    <path
        d="M8.16891 5.61467C8.33731 5.61467 8.50411 5.62166 8.6691 5.63518V8.91034C8.61387 8.90752 8.55828 8.90613 8.50237 8.90613C6.71001 8.90613 5.25383 10.3746 5.22416 12.1976H5.2234V16.7816L2 18.3068V12.1976H2.00619C2.00211 12.1035 2 12.0089 2 11.9138C2 8.43491 4.76192 5.61467 8.16891 5.61467Z"
        fill="#1B1C1E"/>
    <path fill-rule="evenodd" clip-rule="evenodd"
          d="M21.3404 11.6104H21.3342C21.3372 11.6792 21.3387 11.7483 21.3395 11.8177C21.3397 11.8323 21.3398 11.8468 21.3399 11.8614C21.34 11.8723 21.3404 11.8832 21.3404 11.8941C21.3404 11.8974 21.3403 11.9007 21.3403 11.904C21.3403 11.9073 21.3404 11.9106 21.3404 11.9138C21.3404 15.3928 18.5785 18.213 15.1715 18.213C11.7645 18.213 9.00255 15.3928 9.00255 11.9138C9.00255 8.43491 11.7645 5.61467 15.1715 5.61467C16.3999 5.61467 17.5445 5.98133 18.506 6.61333V3.22411L21.3404 1.69897V11.6104ZM15.1159 8.45214C13.2129 8.45214 11.6702 10.0274 11.6702 11.9706C11.6702 13.9138 13.2129 15.489 15.1159 15.489C17.0189 15.489 18.5616 13.9138 18.5616 11.9706C18.5616 10.0274 17.0189 8.45214 15.1159 8.45214Z"
          fill="#1B1C1E"/>
    <ellipse cx="28.5652" cy="11.9706" rx="3.4457" ry="3.51845" fill="#C63039"/>
    <path
        d="M34.7362 11.0816C34.7714 11.3539 34.7897 11.6317 34.7897 11.9138C34.7897 14.1352 33.6635 16.088 31.9624 17.2095L28.2318 15.4362C28.3366 15.446 28.4427 15.4514 28.55 15.4514C30.453 15.4514 31.9957 13.8761 31.9957 11.9329C31.9957 10.7907 31.4626 9.77582 30.6366 9.13306L34.7362 11.0816Z"
        fill="black"/>
    <path
        d="M30.4881 9.05054C31.4067 9.68251 32.0109 10.7544 32.0109 11.9705C32.0109 13.9137 30.4682 15.4889 28.5652 15.4889C27.2101 15.4889 26.0379 14.69 25.4751 13.5284C26.0244 13.9063 26.686 14.1269 27.3981 14.1269C29.3011 14.1269 30.8438 12.5517 30.8438 10.6085C30.8438 10.049 30.7157 9.52019 30.4881 9.05054Z"
        fill="#BA242D"/>
</svg>
