<svg width="50" height="24" viewBox="0 0 50 24" fill="currentBackgroundColor" xmlns="http://www.w3.org/2000/svg">
<path d="M5.37563 23C5.25822 22.9399 5.13795 22.884 5.0234 22.8196C4.37908 22.4587 3.99679 21.9517 3.99965 21.1698C4.0111 17.7227 4.00538 14.2756 4.00395 10.8285C4.00395 9.84182 4.41774 9.0871 5.26538 8.583C5.66342 8.3467 6.10299 8.22211 6.56976 8.22068C7.36013 8.21924 8.15049 8.22784 8.93942 8.21495C9.97176 8.19919 10.9311 7.51035 11.2833 6.54941C11.8088 5.11874 11.0184 3.55917 9.5594 3.14959C8.09179 2.73715 6.59697 3.68377 6.32349 5.20037C6.29199 5.37938 6.28197 5.56269 6.26479 5.74457C6.2204 6.23435 5.85099 6.62388 5.3699 6.68689C4.9289 6.74418 4.47072 6.43341 4.32754 5.96941C4.29747 5.87346 4.28745 5.76891 4.28888 5.66866C4.33899 3.3687 5.97556 1.5843 7.8541 1.12459C9.58374 0.699259 11.5253 1.38381 12.5891 2.85887C13.1762 3.67088 13.4826 4.57597 13.4826 5.57844C13.4826 10.0795 13.4811 14.5792 13.4783 19.0803C13.4783 19.7792 13.4883 20.4781 13.4611 21.1755C13.4482 21.4906 13.3824 21.8085 13.295 22.1121C13.1619 22.5689 12.8196 22.8396 12.3844 23C10.0491 23 7.71235 23 5.37563 23ZM13.1375 13.1901C13.1418 13.1901 13.1461 13.1901 13.1504 13.1901C13.1504 10.681 13.1533 8.17198 13.1475 5.66437C13.1475 5.36792 13.1289 5.06861 13.0817 4.77789C12.6879 2.34618 10.4457 0.982816 8.15049 1.37092C6.9406 1.57571 6.00992 2.26455 5.3384 3.28421C4.87592 3.98594 4.62249 4.76214 4.61247 5.60852C4.6096 5.88205 4.67833 6.13553 4.93749 6.28161C5.36847 6.5265 5.85529 6.26442 5.92688 5.75173C5.95265 5.55982 5.95838 5.36363 5.98988 5.17316C6.26192 3.51048 7.86985 2.42495 9.51215 2.79157C11.3034 3.19112 12.2956 5.18891 11.5081 6.84585C10.9898 7.93855 10.0963 8.50137 8.89647 8.5472C8.09608 8.57727 7.29283 8.5429 6.49101 8.56152C5.88535 8.57584 5.35988 8.80784 4.9246 9.23747C4.45497 9.70147 4.28458 10.28 4.28458 10.9202C4.28029 13.0841 4.28315 15.2494 4.28315 17.4148C4.28315 18.6636 4.28601 19.9124 4.28172 21.1612C4.28029 21.6624 4.48647 22.0391 4.90599 22.3083C5.2167 22.5074 5.55604 22.5761 5.91685 22.5761C7.90995 22.5761 9.90304 22.5761 11.8961 22.5761C11.9649 22.5761 12.0336 22.579 12.1023 22.5747C12.5748 22.536 12.9027 22.2997 13.0201 21.8357C13.0874 21.5722 13.1318 21.2958 13.1318 21.0266C13.1404 18.413 13.1375 15.8008 13.1375 13.1901Z" fill="#BE4043"/>
<path d="M45.7239 15.2652C45.6222 15.8037 45.2915 16.1287 44.7789 16.2863C44.703 16.3092 44.6271 16.3335 44.5183 16.3665C44.5756 16.4424 44.6199 16.5154 44.6758 16.577C44.9693 16.8978 45.2671 17.2143 45.5592 17.5351C45.7511 17.7456 45.7683 17.8544 45.6437 17.9733C45.5091 18.1007 45.3745 18.075 45.1812 17.8659C44.7846 17.4391 44.388 17.0109 44 16.5756C43.884 16.4467 43.7666 16.3851 43.5876 16.3922C43.2139 16.4066 42.8373 16.3965 42.4293 16.3965C42.4293 16.819 42.4307 17.2157 42.4293 17.6124C42.4278 17.916 42.3448 18.0435 42.1586 18.0349C41.9825 18.0263 41.9023 17.9074 41.9023 17.6239C41.9009 16.355 41.8995 15.0847 41.9023 13.8159C41.9038 13.4894 41.9525 13.4335 42.2789 13.4307C42.8846 13.4235 43.4902 13.4192 44.0959 13.4392C45.0051 13.4708 45.5191 13.9032 45.7382 14.7854C45.7396 14.7926 45.7539 14.8914 45.7482 15.0375C45.7425 15.1836 45.7282 15.2451 45.7239 15.2652ZM42.4522 13.9204C42.4522 14.605 42.4522 15.2609 42.4522 15.9211C43.0335 15.9211 43.5919 15.9268 44.1517 15.9168C44.2963 15.9139 44.4481 15.8781 44.5841 15.8266C44.8977 15.7077 45.1397 15.5115 45.1912 15.152C45.2471 14.7725 45.144 14.4489 44.8419 14.2054C44.6228 14.0293 44.3694 13.9262 44.0859 13.9219C43.5504 13.9161 43.0134 13.9204 42.4522 13.9204Z" fill="#333534"/>
<path d="M18.9992 16.239C19.2083 15.9154 19.4001 15.6218 19.5891 15.3253C19.9385 14.7754 20.2864 14.2255 20.6358 13.6755C20.7274 13.5323 20.8033 13.359 21.0181 13.3877C21.1699 13.4077 21.2314 13.5438 21.2314 13.8402C21.2329 15.0991 21.2329 16.3593 21.2314 17.6181C21.2314 17.6983 21.2329 17.78 21.2128 17.8559C21.177 17.9962 21.0768 18.0621 20.9307 18.0492C20.8005 18.0377 20.7203 17.9633 20.7045 17.8329C20.6945 17.7427 20.6988 17.6496 20.6988 17.558C20.6988 16.5856 20.6988 15.6117 20.6988 14.5835C20.6172 14.6909 20.5599 14.7553 20.5141 14.8255C20.1246 15.4313 19.738 16.0385 19.35 16.6457C19.3013 16.7231 19.2555 16.8047 19.194 16.8706C19.0637 17.0123 18.909 17.0109 18.7816 16.8706C18.7286 16.8118 18.6871 16.7417 18.6441 16.6744C18.2733 16.0972 17.9053 15.5201 17.5345 14.943C17.4672 14.8398 17.3956 14.7396 17.2739 14.6451C17.2739 14.7382 17.2739 14.8312 17.2739 14.9243C17.2739 15.8051 17.2739 16.6873 17.2739 17.568C17.2739 17.6597 17.2782 17.7513 17.2667 17.843C17.251 17.9747 17.1651 18.0435 17.0348 18.0506C16.9073 18.0578 16.8057 18.0091 16.7742 17.8788C16.7527 17.7914 16.7484 17.6983 16.7484 17.6067C16.747 16.3478 16.747 15.0876 16.747 13.8288C16.747 13.7715 16.7298 13.7042 16.7541 13.6598C16.8028 13.5638 16.8558 13.4493 16.9403 13.3991C17.0534 13.3318 17.1579 13.4206 17.2281 13.518C17.3082 13.6297 17.3813 13.7457 17.4543 13.8617C17.9039 14.5634 18.3535 15.2666 18.8045 15.9683C18.8603 16.0528 18.9219 16.1316 18.9992 16.239Z" fill="#333534"/>
<path d="M29.7476 13.3462C30.054 13.3605 30.3919 13.4106 30.737 13.5195C31.0849 13.6297 31.3527 13.8646 31.513 14.2026C31.6075 14.4002 31.5832 14.5148 31.4443 14.5849C31.2997 14.658 31.1622 14.6279 31.0692 14.4646C30.8773 14.1209 30.5666 13.9877 30.2058 13.9147C29.7362 13.8202 29.2722 13.8274 28.8198 13.9906C28.6723 14.0436 28.522 14.1195 28.4046 14.2198C28.028 14.5405 28.0996 15.0704 28.5621 15.238C28.8785 15.3525 29.2279 15.3841 29.5643 15.4327C29.9481 15.49 30.3347 15.5244 30.7198 15.5731C30.7986 15.5831 30.8744 15.6118 30.9518 15.6318C31.9655 15.9053 31.9369 17.0711 31.3512 17.5594C31.1794 17.7026 30.9747 17.8244 30.7642 17.9017C30.0068 18.1824 29.2393 18.1709 28.4833 17.8931C28.0853 17.747 27.7545 17.5064 27.5899 17.094C27.5054 16.8806 27.5741 16.7331 27.7631 16.6887C27.8848 16.6601 28.0122 16.6801 28.0566 16.8033C28.2456 17.3217 28.6823 17.4764 29.1591 17.5422C29.6732 17.6138 30.1872 17.5938 30.6726 17.3747C30.9102 17.2673 31.1007 17.1126 31.1622 16.8405C31.2367 16.5168 31.1307 16.2591 30.8258 16.1402C30.6153 16.0586 30.3876 16.0156 30.1628 15.9855C29.7433 15.9283 29.3209 15.901 28.9014 15.8466C28.711 15.8208 28.522 15.7693 28.3373 15.7106C27.4524 15.4284 27.4137 14.3844 27.9464 13.8803C28.2213 13.6211 28.5535 13.4736 28.9129 13.392C29.162 13.3404 29.4283 13.3318 29.7476 13.3462Z" fill="#333534"/>
<path d="M37.6336 13.8961C37.6336 14.4288 37.6336 14.9415 37.6336 15.4814C37.7095 15.4886 37.7954 15.5015 37.8813 15.5029C38.6373 15.5043 39.3933 15.5029 40.1493 15.5043C40.4199 15.5043 40.5345 15.576 40.5359 15.7335C40.5359 15.8967 40.4242 15.9698 40.1522 15.9698C39.4306 15.9712 38.7089 15.9712 37.9873 15.9712C37.8742 15.9712 37.7625 15.9712 37.6336 15.9712C37.6336 16.4825 37.6336 16.9708 37.6336 17.4864C37.7124 17.4935 37.7983 17.5079 37.8842 17.5093C38.6746 17.5107 39.4649 17.5093 40.2553 17.5107C40.3455 17.5107 40.4414 17.5093 40.5259 17.5351C40.6476 17.5737 40.7264 17.6811 40.6848 17.8C40.6576 17.8773 40.5531 17.9346 40.4715 17.9805C40.4271 18.0048 40.3598 17.9876 40.3025 17.9876C39.3976 17.9876 38.4927 17.9891 37.5878 17.9876C37.1783 17.9876 37.0981 17.9146 37.0967 17.5136C37.0938 16.3106 37.0938 15.1077 37.0967 13.9047C37.0981 13.5109 37.174 13.435 37.5534 13.435C38.4698 13.4321 39.3862 13.4335 40.3025 13.4335C40.3254 13.4335 40.3483 13.4335 40.3713 13.4335C40.5875 13.4421 40.6891 13.5152 40.6863 13.6612C40.6834 13.8016 40.576 13.8904 40.3627 13.8918C39.5838 13.8975 38.8049 13.8947 38.0259 13.8947C37.9014 13.8961 37.7768 13.8961 37.6336 13.8961Z" fill="#333534"/>
<path d="M22.4977 18.0478C22.2429 18.0435 22.1312 17.8802 22.1985 17.6969C22.2228 17.6325 22.2558 17.5723 22.2858 17.5107C22.9416 16.2175 23.5988 14.9258 24.256 13.634C24.266 13.614 24.2732 13.5911 24.2846 13.571C24.3548 13.4393 24.4164 13.2975 24.6039 13.3089C24.7729 13.319 24.8273 13.4522 24.8889 13.5724C25.5718 14.9158 26.2563 16.2576 26.9364 17.6024C27.0538 17.833 27.0352 17.9218 26.8748 18.0034C26.7087 18.0879 26.577 18.0392 26.4624 17.8272C26.3164 17.5566 26.1761 17.2802 26.0486 17.0009C25.9771 16.8419 25.8754 16.7904 25.705 16.7933C24.9619 16.8018 24.2173 16.8018 23.4742 16.7933C23.301 16.7918 23.2022 16.8448 23.1306 17.0023C22.996 17.2916 22.8514 17.578 22.6939 17.8559C22.6438 17.9432 22.5436 18.0048 22.4977 18.0478ZM25.7079 16.3207C25.3284 15.5602 24.9705 14.8399 24.5911 14.078C24.2059 14.8499 23.8451 15.5717 23.4699 16.3207C24.2245 16.3207 24.9318 16.3207 25.7079 16.3207Z" fill="#333534"/>
<path d="M26.762 12.2864C26.374 12.3007 25.9946 12.2305 25.6352 12.0658C25.3245 11.9226 25.0753 11.7178 24.9493 11.3827C24.8949 11.2367 24.9236 11.135 25.0596 11.072C25.1885 11.0118 25.323 11.0218 25.3803 11.1636C25.5865 11.672 26.0246 11.7694 26.4943 11.8138C26.9095 11.8525 27.319 11.8295 27.7042 11.652C27.9304 11.546 28.1079 11.3913 28.1394 11.1207C28.1709 10.8514 28.0879 10.6667 27.8359 10.5693C27.6369 10.492 27.4192 10.4519 27.2059 10.4218C26.8093 10.3659 26.4098 10.3359 26.0132 10.2829C25.8686 10.2628 25.7254 10.2127 25.5865 10.1654C24.862 9.91482 24.7947 9.02835 25.2529 8.59729C25.4233 8.43689 25.6366 8.30227 25.8542 8.21921C26.4885 7.97862 27.1329 8.00726 27.7657 8.23783C28.065 8.34667 28.2984 8.5486 28.4372 8.84361C28.4931 8.96247 28.5332 9.08707 28.3843 9.17299C28.2654 9.24174 28.118 9.20593 28.0378 9.06559C27.8817 8.79349 27.6354 8.66889 27.3476 8.60588C26.9152 8.51136 26.4828 8.50707 26.0604 8.64884C25.913 8.69897 25.764 8.78203 25.6509 8.88657C25.3574 9.15867 25.4276 9.61981 25.8027 9.753C26.1091 9.86184 26.447 9.89048 26.772 9.9406C27.1214 9.99502 27.4779 10.0122 27.8244 10.0838C28.2411 10.1697 28.569 10.3788 28.6348 10.8514C28.7007 11.3183 28.5317 11.6835 28.1452 11.9413C27.7285 12.2148 27.2603 12.2993 26.762 12.2864Z" fill="#333534"/>
<path d="M34.1511 10.7756C34.1511 11.1393 34.1511 11.4587 34.1511 11.7781C34.1511 11.8583 34.154 11.9385 34.1425 12.0172C34.1225 12.1662 34.0294 12.2421 33.8819 12.2292C33.7487 12.2177 33.68 12.1347 33.6829 11.9972C33.6843 11.9399 33.6829 11.8826 33.6829 11.8253C33.6829 10.7383 33.6829 9.65138 33.6829 8.56441C33.6829 8.16915 33.7015 8.15053 34.0809 8.1491C34.562 8.14767 35.0417 8.13908 35.5228 8.15626C35.7361 8.16342 35.9566 8.20209 36.1585 8.2694C36.8572 8.50283 37.2052 9.1215 37.0505 9.83612C36.9675 10.2199 36.7327 10.4863 36.369 10.6367C36.2544 10.6839 36.1385 10.7255 35.9838 10.7856C36.273 11.0992 36.5437 11.39 36.8114 11.6835C36.8816 11.7594 36.9503 11.8353 37.0133 11.917C37.0877 12.0144 37.0763 12.1089 36.9847 12.1905C36.8973 12.2678 36.7985 12.2836 36.7055 12.2077C36.6353 12.1504 36.5723 12.0831 36.5093 12.0158C36.1742 11.6549 35.8378 11.2954 35.5099 10.9302C35.4097 10.8185 35.3037 10.7699 35.1534 10.7742C34.8341 10.7827 34.5162 10.7756 34.1511 10.7756ZM34.1683 8.56728C34.1683 9.18308 34.1683 9.76165 34.1683 10.3488C34.721 10.3488 35.2565 10.3574 35.7905 10.3431C35.9208 10.3402 36.0568 10.2772 36.1771 10.2171C36.4563 10.0767 36.6009 9.84758 36.5981 9.52679C36.5923 9.08856 36.3103 8.7377 35.8435 8.63172C35.2922 8.50856 34.7338 8.59449 34.1683 8.56728Z" fill="#333534"/>
<path d="M19.0909 10.7798C19.4203 11.1364 19.7166 11.4529 20.0087 11.7737C20.1777 11.9585 20.2063 12.0873 20.1075 12.1862C19.9901 12.3036 19.8598 12.2707 19.6737 12.0702C19.3315 11.7007 18.9893 11.3326 18.6542 10.9574C18.5397 10.8285 18.4223 10.7626 18.2419 10.7727C17.9254 10.7899 17.6076 10.777 17.2611 10.777C17.2611 11.1822 17.2654 11.556 17.2596 11.9312C17.2568 12.1461 17.1795 12.2291 17.0148 12.2248C16.8988 12.222 16.8158 12.169 16.7957 12.0501C16.7843 11.9828 16.7886 11.9141 16.7886 11.8453C16.7886 10.7469 16.7871 9.6499 16.7886 8.55147C16.7886 8.18629 16.8215 8.15192 17.1723 8.15048C17.6634 8.14905 18.1574 8.129 18.6471 8.16051C18.9248 8.17769 19.2169 8.24071 19.4689 8.35527C20.0961 8.64026 20.3595 9.36204 20.1118 10.0051C19.9944 10.3115 19.7768 10.5178 19.4761 10.6381C19.3615 10.6839 19.2441 10.7225 19.0909 10.7798ZM17.2797 10.3502C17.8309 10.3502 18.365 10.3617 18.8991 10.343C19.0508 10.3373 19.2112 10.2671 19.3472 10.1912C19.6536 10.0208 19.7796 9.68284 19.6966 9.33913C19.5992 8.93814 19.3272 8.7176 18.9435 8.63024C18.3922 8.50565 17.8367 8.59444 17.2783 8.56723C17.2797 9.18733 17.2797 9.7659 17.2797 10.3502Z" fill="#333534"/>
<path d="M21.5569 10.4075C21.5569 10.8715 21.5569 11.3025 21.5569 11.7579C21.6471 11.7665 21.7345 11.7823 21.8218 11.7823C22.4862 11.7837 23.1505 11.7837 23.8135 11.7837C23.8936 11.7837 23.9738 11.7837 24.054 11.7866C24.1915 11.7909 24.2702 11.8654 24.2702 12C24.2702 12.1417 24.1728 12.199 24.0425 12.2019C23.8249 12.2062 23.6073 12.2033 23.3896 12.2048C22.7596 12.2048 22.1296 12.2076 21.5011 12.2033C21.1746 12.2019 21.0873 12.1231 21.0858 11.7995C21.0801 10.7111 21.0801 9.62411 21.0858 8.53571C21.0873 8.22781 21.1717 8.15334 21.4825 8.1519C22.3072 8.14761 23.1319 8.15047 23.9552 8.15047C23.9896 8.15047 24.0239 8.15047 24.0583 8.1519C24.1786 8.15763 24.2602 8.22351 24.2616 8.34094C24.263 8.4684 24.1886 8.55576 24.0497 8.56149C23.9581 8.56578 23.8664 8.56292 23.7748 8.56292C23.0431 8.56292 22.3129 8.56292 21.5612 8.56292C21.5612 9.03551 21.5612 9.48806 21.5612 9.96925C21.6428 9.97784 21.7302 9.99502 21.8161 9.99502C22.4346 9.99789 23.0532 9.99645 23.6703 9.99645C23.739 9.99645 23.8077 9.99789 23.8765 9.99645C24.0211 9.99216 24.1356 10.0394 24.1285 10.2027C24.1227 10.3588 24.0039 10.4075 23.8636 10.4075C23.4054 10.4075 22.9472 10.4075 22.489 10.4075C22.184 10.4089 21.8776 10.4075 21.5569 10.4075Z" fill="#333534"/>
<path d="M42.9176 8.56295C42.9176 9.04413 42.9176 9.49811 42.9176 9.97643C43.0021 9.98359 43.0895 9.99505 43.1768 9.99505C43.7954 9.99648 44.4125 9.99648 45.031 9.99648C45.1112 9.99648 45.1914 10.0008 45.2716 9.99792C45.4004 9.99362 45.4691 10.0681 45.4792 10.1798C45.4921 10.3144 45.4076 10.3917 45.2759 10.4046C45.1971 10.4118 45.1155 10.4075 45.0353 10.4075C44.338 10.4075 43.6407 10.4075 42.9234 10.4075C42.9234 10.8629 42.9234 11.3026 42.9234 11.7651C43.0078 11.7709 43.0952 11.7823 43.184 11.7823C43.8712 11.7838 44.5571 11.7823 45.2444 11.7838C45.5193 11.7838 45.6367 11.8568 45.6252 12.01C45.6152 12.1446 45.5064 12.2019 45.2429 12.2019C44.4526 12.2034 43.6636 12.2034 42.8733 12.2019C42.511 12.2005 42.4337 12.1232 42.4337 11.7565C42.4323 10.7025 42.4323 9.64991 42.4337 8.59588C42.4337 8.22497 42.5081 8.1505 42.8718 8.14907C43.6622 8.1462 44.4511 8.14764 45.2415 8.14764C45.2873 8.14764 45.3331 8.14907 45.3789 8.14764C45.515 8.14477 45.608 8.20922 45.6109 8.34383C45.6138 8.49707 45.5121 8.56151 45.3618 8.56151C44.6745 8.56008 43.9886 8.56151 43.3014 8.56151C43.1768 8.56295 43.0537 8.56295 42.9176 8.56295Z" fill="#333534"/>
<path d="M29.9769 8.57585C29.9769 9.04844 29.9769 9.50242 29.9769 9.97788C30.0714 9.98504 30.1588 9.99649 30.2475 9.99649C30.8661 9.99793 31.4846 9.99793 32.1032 9.99793C32.1834 9.99793 32.2635 9.99649 32.3437 10.0008C32.4669 10.008 32.5284 10.0781 32.5299 10.1999C32.5313 10.3259 32.4583 10.3903 32.3423 10.4032C32.2521 10.4132 32.159 10.4089 32.0674 10.4089C31.3815 10.4089 30.6957 10.4089 29.9869 10.4089C29.9869 10.8658 29.9869 11.3054 29.9869 11.7666C30.0714 11.7723 30.1602 11.7838 30.2475 11.7838C30.9348 11.7852 31.6221 11.7838 32.3094 11.7852C32.5857 11.7866 32.6644 11.8339 32.6687 11.9928C32.673 12.1489 32.5886 12.2034 32.3151 12.2048C31.5133 12.2062 30.7114 12.2077 29.9096 12.2048C29.576 12.2034 29.4987 12.1275 29.4973 11.8067C29.4944 10.7183 29.4944 9.62987 29.4973 8.54147C29.4987 8.23214 29.5746 8.15481 29.8839 8.15337C30.7086 8.14908 31.5333 8.15194 32.358 8.15194C32.4039 8.15194 32.4626 8.13762 32.4926 8.16053C32.5571 8.21066 32.6387 8.27224 32.6573 8.34384C32.6859 8.45841 32.6086 8.54004 32.4912 8.55866C32.4124 8.57012 32.3308 8.56582 32.2507 8.56582C31.5748 8.56582 30.899 8.56582 30.2232 8.56725C30.1459 8.56439 30.0671 8.57155 29.9769 8.57585Z" fill="#333534"/>
<path d="M39.621 11.4587C39.7212 11.2625 39.7957 11.1221 39.8658 10.9803C40.2839 10.1297 40.702 9.28042 41.1201 8.42975C41.1602 8.34812 41.196 8.26076 41.2518 8.19059C41.3205 8.10323 41.4136 8.07172 41.5253 8.13044C41.6441 8.19345 41.6928 8.28367 41.6513 8.41256C41.6298 8.47701 41.594 8.53716 41.5639 8.59874C41.007 9.72437 40.45 10.8486 39.893 11.9742C39.8672 12.0258 39.8486 12.0802 39.8157 12.126C39.694 12.2921 39.5465 12.2979 39.4234 12.1375C39.3819 12.0845 39.3561 12.0186 39.326 11.957C38.7604 10.8357 38.1963 9.71435 37.6322 8.59301C37.5964 8.5214 37.5592 8.4498 37.5391 8.37247C37.5105 8.25933 37.5534 8.17197 37.6608 8.11755C37.7682 8.06313 37.8684 8.08175 37.9386 8.16911C38.0016 8.24787 38.046 8.34239 38.0918 8.43405C38.5328 9.31193 38.9709 10.1898 39.4105 11.0663C39.4663 11.1808 39.5279 11.2868 39.621 11.4587Z" fill="#333534"/>
<path d="M34.3957 13.9219C34.3957 15.1649 34.3957 16.3536 34.3957 17.5437C34.3957 17.6353 34.4015 17.727 34.3914 17.8186C34.3728 17.9919 34.2841 18.0693 34.1251 18.065C33.9748 18.0607 33.8917 17.9819 33.8831 17.833C33.8774 17.7413 33.8774 17.6497 33.8774 17.558C33.8774 16.4696 33.8774 15.3826 33.8774 14.2942C33.8774 14.1825 33.8774 14.0694 33.8774 13.9219C33.4192 13.9219 32.9883 13.9219 32.5573 13.9219C32.4542 13.9219 32.3497 13.9319 32.2494 13.9147C32.1106 13.8904 32.0261 13.8059 32.0375 13.6512C32.0476 13.5152 32.1206 13.4436 32.2537 13.4335C32.3225 13.4278 32.3912 13.4292 32.4599 13.4292C33.5825 13.4292 34.7036 13.4292 35.8261 13.4292C35.9063 13.4292 35.9865 13.4292 36.0652 13.4407C36.1855 13.4579 36.2385 13.5381 36.2485 13.6541C36.2571 13.7729 36.2056 13.8603 36.0967 13.8947C36.0123 13.9204 35.9163 13.9219 35.8261 13.9219C35.3579 13.9233 34.8911 13.9219 34.3957 13.9219Z" fill="#333534"/>
</svg>
