<svg width="120" height="24" viewBox="0 0 120 24" fill="currentBackgroundColor" xmlns="http://www.w3.org/2000/svg">
<path d="M87.5312 5.02002H91.4314C93.7852 5.02002 95.5334 6.87451 95.5334 9.17595C95.5334 11.4941 93.7884 13.3452 91.4151 13.3452H89.6538V16.684H87.5344V5.02002H87.5312ZM89.6506 7.03461V11.334H91.2719C92.535 11.334 93.3945 10.3767 93.3945 9.17929C93.3945 7.99521 92.535 7.03795 91.2719 7.03795H89.6506V7.03461Z" fill="black"/>
<path d="M96.0944 12.0211C96.0944 8.92245 98.3082 7.14801 100.616 7.14801C101.818 7.14801 102.892 7.65833 103.55 8.45883V7.33813H105.656V16.684H103.55V15.4699C102.879 16.3338 101.788 16.8774 100.587 16.8774C98.3863 16.8774 96.0944 15.0696 96.0944 12.0211ZM103.657 11.9877C103.657 10.4067 102.488 9.11257 100.926 9.11257C99.3662 9.11257 98.1649 10.3734 98.1649 11.9877C98.1649 13.6187 99.3662 14.8962 100.926 14.8962C102.488 14.8962 103.657 13.602 103.657 11.9877Z" fill="black"/>
<path d="M110.241 16.2204L106.5 7.33813H108.743L111.286 13.6321L113.689 7.33813H115.902L110.459 21H108.323L110.241 16.2204Z" fill="black"/>
<path d="M65.439 5.34686L65.5823 13.9122H65.5237L63.0755 5.34686H59.1232V16.1436H61.7439L61.5974 7.28474H61.656L64.2833 16.1436H68.0761V5.34686H65.439Z" fill="black"/>
<path d="M15.3046 5.34686L13.3317 16.257H16.2096L17.6649 6.35749H17.7235L19.1429 16.257H22.0046L20.0415 5.34686H15.3046Z" fill="black"/>
<path d="M31.3956 5.34686L30.0834 13.6887H30.0216L28.7094 5.34686H24.366L24.1316 16.257H26.7982L26.8633 6.45089H26.9219L28.7029 16.257H31.4054L33.1831 6.45089H33.2417L33.3101 16.257H35.9734L35.739 5.34686H31.3956Z" fill="black"/>
<path d="M8.84772 13.1784C8.9519 13.4419 8.91934 13.7822 8.86726 13.9856C8.78261 14.3492 8.53844 14.7194 7.83197 14.7194C7.16458 14.7194 6.76088 14.3258 6.76088 13.7288L6.75763 12.6715H3.90247V13.512C3.90247 15.9468 5.77118 16.6806 7.77337 16.6806C9.70069 16.6806 11.2829 16.0069 11.5368 14.1857C11.6671 13.2452 11.5727 12.6281 11.5271 12.398C11.0746 10.1165 7.03435 9.43611 6.73484 8.15864C6.68275 7.93517 6.69577 7.70502 6.72182 7.58495C6.79669 7.23473 7.02784 6.85116 7.69524 6.85116C8.32031 6.85116 8.68494 7.24474 8.68494 7.83844V8.51553H11.3415V7.74838C11.3415 5.37357 9.25793 5 7.75058 5C5.85908 5 4.30942 5.64374 4.02943 7.42151C3.9513 7.90848 3.94153 8.34209 4.05548 8.89243C4.51452 11.1238 8.29753 11.7676 8.84772 13.1784Z" fill="black"/>
<path d="M43.4746 13.1584C43.5755 13.4219 43.5429 13.7521 43.4941 13.9556C43.4095 14.3158 43.1685 14.6827 42.4653 14.6827C41.8044 14.6827 41.404 14.2925 41.404 13.7021L41.4008 12.6548H38.5749V13.4886C38.5749 15.8968 40.4273 16.6239 42.4067 16.6239C44.3145 16.6239 45.8837 15.9568 46.1344 14.1557C46.2614 13.2251 46.1702 12.6147 46.1214 12.3846C45.6754 10.1232 41.6775 9.44943 41.378 8.18197C41.3259 7.96517 41.3389 7.73836 41.3649 7.61495C41.4398 7.26807 41.671 6.89116 42.3286 6.89116C42.9472 6.89116 43.3085 7.27807 43.3085 7.86844V8.53552H45.9391V7.78172C45.9391 5.43025 43.875 5.06335 42.3839 5.06335C40.512 5.06335 38.9786 5.69708 38.6986 7.46152C38.6205 7.94516 38.6107 8.37542 38.7214 8.91576C39.1837 11.1238 42.9309 11.7609 43.4746 13.1584Z" fill="black"/>
<path d="M52.4123 14.6227C53.1513 14.6227 53.3792 14.099 53.4313 13.8322C53.4541 13.7154 53.4574 13.5553 53.4574 13.4152V5.34686H56.153V13.1684C56.1562 13.3685 56.1367 13.7788 56.1269 13.8855C55.9414 15.9201 54.3689 16.5806 52.4123 16.5806C50.4524 16.5806 48.8832 15.9201 48.6977 13.8855C48.6879 13.7788 48.6684 13.3685 48.6716 13.1684V5.34686H51.364V13.4186C51.3608 13.5587 51.3673 13.7188 51.3901 13.8355C51.4454 14.1023 51.6733 14.6227 52.4123 14.6227Z" fill="black"/>
<path d="M74.6275 14.5093C75.3991 14.5093 75.6661 14.0089 75.7149 13.7188C75.7377 13.5953 75.741 13.4419 75.741 13.3052V11.7208H74.6503V10.1299H78.4203V13.055C78.4203 13.2618 78.4138 13.4119 78.3813 13.7721C78.2055 15.76 76.5256 16.4671 74.6373 16.4671C72.7491 16.4671 71.0692 15.7567 70.8901 13.7721C70.8608 13.4086 70.8543 13.2585 70.8543 13.055V8.46548C70.8543 8.27202 70.8771 7.92847 70.8999 7.74836C71.1375 5.71042 72.7491 5.05334 74.6373 5.05334C76.5256 5.05334 78.1794 5.70375 78.3747 7.74836C78.4073 8.09525 78.3975 8.46548 78.3975 8.46548V8.82904H75.7117V8.21866C75.7117 8.21866 75.7084 7.95849 75.6791 7.80173C75.6303 7.56158 75.4284 7.01124 74.6145 7.01124C73.8397 7.01124 73.6118 7.5349 73.5532 7.80173C73.5239 7.94515 73.5109 8.13861 73.5109 8.31872V13.3052C73.5109 13.4453 73.5174 13.5953 73.5369 13.7188C73.589 14.0123 73.856 14.5093 74.6275 14.5093Z" fill="black"/>
</svg>
