<svg width="44" height="24" viewBox="0 0 44 24" fill="currentBackgroundColor" xmlns="http://www.w3.org/2000/svg">
  <path d="M12 21H31.5C33.9 21 36.15 20.05 37.85 18.35C39.55 16.65 40.5 14.4 40.5 12C40.5 9.6 39.55 7.3 37.85 5.65C36.2 3.95 33.9 3 31.5 3H12C9.6 3 7.35 3.95 5.65 5.65C3.95 7.3 3 9.6 3 12C3 14.4 3.95 16.7 5.65 18.35C7.35 20 9.6 21 12 21Z" fill="#219F38"/>
  <path d="M21.2 12.8V14.65H20.1V8.64999H22.1C24 8.64999 24.8 9.34999 24.8 10.7C24.8 12.1 23.85 12.8 22.1 12.8H21.2ZM21.2 9.64999V11.8H22.2C23.2 11.8 23.7 11.45 23.7 10.65C23.7 9.89999 23.25 9.64999 22.2 9.64999H21.2Z" fill="white"/>
  <path d="M25.4 10.7C25.7 10.5 26.2 10.3 26.95 10.3C28.2 10.3 28.8 10.75 28.8 11.85V14.7H27.85V13.9C27.65 14.4 27.1 14.75 26.45 14.75C25.6 14.75 25.05 14.25 25.05 13.4C25.05 12.4 25.75 12.15 26.8 12.15H27.75V11.95C27.75 11.35 27.45 11.15 26.9 11.15C26.1 11.15 25.65 11.45 25.35 11.9L25.4 10.7ZM27.8 13.15V12.8H26.95C26.35 12.8 26.05 12.9 26.05 13.3C26.05 13.65 26.3 13.85 26.75 13.85C27.45 13.85 27.75 13.45 27.8 13.15Z" fill="white"/>
  <path d="M29.3 10.4H30.4L31.6 13.35L32.55 10.4H33.6L31.9 15.15C31.5 16.2 31.15 16.4 30.55 16.4C30.3 16.4 30 16.3 29.85 16.2V15.25C30 15.4 30.15 15.45 30.35 15.45C30.65 15.45 30.9 15.25 31.05 14.65L29.3 10.4Z" fill="white"/>
  <path d="M10.3 10.7V12L12.05 13.1L16.25 10C16.1 9.65001 15.9 9.35001 15.7 9.10001L12.05 11.8L10.3 10.7Z" fill="white"/>
  <path d="M15.6 11.8V11.9C15.6 12.7 15.35 13.45 14.85 14.1C14.35 14.7 13.7 15.15 12.9 15.35C12.15 15.55 11.35 15.45 10.6 15.15C9.90001 14.85 9.30001 14.25 8.90001 13.6C8.55001 12.9 8.40001 12.1 8.55001 11.3C8.70001 10.5 9.10001 9.79998 9.65001 9.29998C10.25 8.74998 11 8.44998 11.75 8.39998C12.5 8.34998 13.3 8.54998 13.95 8.99998L14.85 8.34998C14.05 7.69998 13.05 7.34998 12 7.34998C10.95 7.34998 9.95001 7.69998 9.15001 8.34998C8.35001 8.99998 7.75001 9.89998 7.50001 10.9C7.25001 11.9 7.40001 13 7.85001 13.9C8.30001 14.85 9.05001 15.6 10 16.05C10.95 16.5 12 16.65 13 16.4C14 16.15 14.9 15.6 15.55 14.8C16.2 14 16.55 12.95 16.55 11.95C16.55 11.65 16.55 11.4 16.5 11.15L15.6 11.8Z" fill="white"/>
</svg>