<svg width="105" height="24" viewBox="0 0 105 24" fill="currentBackgroundColor" xmlns="http://www.w3.org/2000/svg">
<path d="M47.3671 8.49262L49.391 6.98523H42.6154V16.0148H49.391V14.5074H44.5513V12.202H48.687V10.6946H44.5513V8.49262H47.3671Z" fill="#21A038"/>
<path d="M37.4969 10.5025H35.1504V8.49262H38.9049L40.9287 6.98523H33.2145V16.0148H37.2476C39.5062 16.0148 40.8114 14.9803 40.8114 13.1773C40.8114 11.4483 39.6381 10.5025 37.4969 10.5025ZM37.1743 14.5074H35.1504V12.0099H37.1743C38.4062 12.0099 38.9782 12.4237 38.9782 13.266C38.9782 14.1084 38.3622 14.5074 37.1743 14.5074Z" fill="#21A038"/>
<path d="M54.876 6.98523H51.1949V16.0148H53.1308V13.4581H54.8907C57.2372 13.4581 58.7038 12.2168 58.7038 10.2217C58.7038 8.22661 57.2372 6.98523 54.876 6.98523ZM54.832 11.9507H53.1161V8.49262H54.832C56.0786 8.49262 56.7533 9.11331 56.7533 10.2217C56.7533 11.3301 56.0786 11.9507 54.832 11.9507Z" fill="#21A038"/>
<path d="M29.9 14.064C29.3867 14.3448 28.8147 14.4926 28.2281 14.4926C26.4828 14.4926 25.2215 13.2365 25.2215 11.5074C25.2215 9.77833 26.4828 8.52218 28.2281 8.52218C28.8587 8.5074 29.4747 8.71429 29.988 9.08375L31.3812 8.04927L31.2932 7.9606C30.4866 7.23646 29.4013 6.867 28.1694 6.867C26.8348 6.867 25.6175 7.32513 24.7376 8.15272C23.8576 9.00986 23.359 10.2069 23.3883 11.4483C23.3736 12.7044 23.8576 13.9163 24.7376 14.803C25.6615 15.6749 26.8935 16.1626 28.1547 16.133C29.548 16.133 30.7653 15.6453 31.5866 14.7586L30.34 13.8276L29.9 14.064Z" fill="#21A038"/>
<path d="M81.9787 7.00001V16.0296H83.9146V12.335H88.0357V16.0296H89.9716V7.00001H88.0357V10.7094H83.9146V7.00001H81.9787ZM78.6495 16.0296H80.6881L76.9043 7.00001H74.939L71.0819 16.0296H73.0325L73.8097 14.2118H77.9162L78.6495 16.0296ZM74.3964 12.7044L75.8923 9.08375L77.3002 12.7044H74.3964ZM94.3127 12.3793H95.5153L98.4778 16.0148H100.971L97.0112 11.3448L100.472 6.98523H98.2578L95.3833 10.8572H94.3127V6.98523H92.3768V16.0148H94.3127V12.3793ZM64.6876 10.5172V8.5074H69.7473V7.00001H62.7516V16.0296H66.7848C69.0433 16.0296 70.3486 14.9951 70.3486 13.1921C70.3486 11.4631 69.1753 10.5172 67.0341 10.5172H64.6876ZM64.6876 14.5222V12.0246H66.7114C67.9434 12.0246 68.5154 12.4384 68.5154 13.2808C68.5154 14.1232 67.914 14.537 66.7114 14.537H64.6876V14.5222Z" fill="#21A038"/>
<path d="M17.3313 6.92609C17.6833 7.38421 17.9766 7.88668 18.2259 8.4187L11.4503 13.4581L8.6051 11.6552V9.49751L11.4356 11.2857L17.3313 6.92609Z" fill="#21A038"/>
<path d="M5.71591 11.5074C5.71591 11.404 5.71591 11.3153 5.73058 11.2118L4.01467 11.1232C4.01467 11.2414 4 11.3744 4 11.4926C4 13.5616 4.83596 15.4384 6.18522 16.798L7.40249 15.5714C6.36121 14.537 5.71591 13.1035 5.71591 11.5074Z" fill="url(#paint0_linear_1163_3843)"/>
<path d="M11.4356 5.74383C11.5383 5.74383 11.6263 5.74383 11.729 5.75861L11.817 4.02955C11.6996 4.02955 11.5676 4.01477 11.4503 4.01477C9.39708 4.01477 7.53451 4.85714 6.18524 6.21674L7.40251 7.44334C8.42913 6.39408 9.86639 5.74383 11.4356 5.74383Z" fill="url(#paint1_linear_1163_3843)"/>
<path d="M11.4356 17.2709C11.333 17.2709 11.245 17.2709 11.1423 17.2561L11.0543 18.9852C11.1716 18.9852 11.3036 19 11.421 19C13.4742 19 15.3368 18.1576 16.686 16.798L15.4688 15.5714C14.4421 16.6355 13.0196 17.2709 11.4356 17.2709Z" fill="url(#paint2_linear_1163_3843)"/>
<path d="M14.6621 6.74877L16.114 5.66995C14.8381 4.63547 13.2102 4 11.4356 4V5.72906C12.6382 5.74384 13.7528 6.1133 14.6621 6.74877Z" fill="url(#paint3_linear_1163_3843)"/>
<path d="M18.8859 11.5074C18.8859 11.0492 18.8419 10.6059 18.7686 10.1625L17.17 11.3596C17.17 11.4039 17.17 11.463 17.17 11.5074C17.17 13.2069 16.4367 14.729 15.2781 15.7783L16.4367 17.064C17.9326 15.7044 18.8859 13.7093 18.8859 11.5074Z" fill="#21A038"/>
<path d="M11.4356 17.2709C9.74907 17.2709 8.23848 16.532 7.1972 15.3645L5.92126 16.532C7.28519 18.0542 9.25043 19 11.4356 19V17.2709Z" fill="url(#paint4_linear_1163_3843)"/>
<path d="M7.60781 7.23646L6.44921 5.95074C4.93862 7.32513 4 9.30542 4 11.5074H5.71591C5.71591 9.82267 6.44921 8.28572 7.60781 7.23646Z" fill="url(#paint5_linear_1163_3843)"/>
<defs>
<linearGradient id="paint0_linear_1163_3843" x1="6.00211" y1="16.5877" x2="4.25009" y2="11.4845" gradientUnits="userSpaceOnUse">
<stop offset="0.1444" stop-color="#F2E913"/>
<stop offset="0.3037" stop-color="#E7E518"/>
<stop offset="0.5823" stop-color="#CADB26"/>
<stop offset="0.891" stop-color="#A3CD39"/>
</linearGradient>
<linearGradient id="paint1_linear_1163_3843" x1="6.67436" y1="6.02163" x2="11.1223" y2="4.31361" gradientUnits="userSpaceOnUse">
<stop offset="0.0592" stop-color="#0FA8E0"/>
<stop offset="0.5385" stop-color="#0099F9"/>
<stop offset="0.9234" stop-color="#0291EB"/>
</linearGradient>
<linearGradient id="paint2_linear_1163_3843" x1="10.9536" y1="17.5295" x2="16.2562" y2="16.3219" gradientUnits="userSpaceOnUse">
<stop offset="0.1226" stop-color="#A3CD39"/>
<stop offset="0.2846" stop-color="#86C339"/>
<stop offset="0.8693" stop-color="#21A038"/>
</linearGradient>
<linearGradient id="paint3_linear_1163_3843" x1="11.0831" y1="5.10129" x2="15.4918" y2="6.47202" gradientUnits="userSpaceOnUse">
<stop offset="0.0566" stop-color="#0291EB"/>
<stop offset="0.79" stop-color="#0C8ACB"/>
</linearGradient>
<linearGradient id="paint4_linear_1163_3843" x1="6.35756" y1="16.8059" x2="11.093" y2="18.5888" gradientUnits="userSpaceOnUse">
<stop offset="0.1324" stop-color="#F2E913"/>
<stop offset="0.2977" stop-color="#EBE716"/>
<stop offset="0.5306" stop-color="#D9E01F"/>
<stop offset="0.8023" stop-color="#BBD62D"/>
<stop offset="0.9829" stop-color="#A3CD39"/>
</linearGradient>
<linearGradient id="paint5_linear_1163_3843" x1="5.31477" y1="11.7162" x2="7.20888" y2="6.75121" gradientUnits="userSpaceOnUse">
<stop offset="0.0698" stop-color="#A3CD39"/>
<stop offset="0.2599" stop-color="#81C55F"/>
<stop offset="0.9216" stop-color="#0FA8E0"/>
</linearGradient>
</defs>
</svg>
