<svg width="50" height="24" viewBox="0 0 50 24" fill="currentBackgroundColor" xmlns="http://www.w3.org/2000/svg">
<path d="M41.7638 7.17688V12.5555H39.8432V8.78251H37.9939V12.5555H36.0733V7.17651H41.7638V7.17688Z" fill="black"/>
<path fill-rule="evenodd" clip-rule="evenodd" d="M32.1289 12.7478C33.8482 12.7478 35.1249 11.6936 35.1249 10.0955C35.1249 8.5487 34.183 7.5444 32.6087 7.5444C31.8821 7.5444 31.2826 7.80015 30.8311 8.24144C30.9389 7.32935 31.7102 6.66349 32.5594 6.66349C32.7554 6.66349 34.2308 6.66037 34.2308 6.66037L35.0652 5.06372C35.0652 5.06372 33.2128 5.10589 32.3517 5.10589C30.3841 5.14017 29.0551 6.92859 29.0551 9.10072C29.0551 11.6313 30.3513 12.7478 32.1289 12.7478ZM32.1394 8.95864C32.7777 8.95864 33.2203 9.3781 33.2203 10.0953C33.2203 10.7408 32.827 11.2727 32.1394 11.2741C31.4816 11.2741 31.039 10.7813 31.039 10.1063C31.039 9.38892 31.4816 8.95864 32.1394 8.95864Z" fill="black"/>
<path d="M27.4919 10.7548C27.4919 10.7548 27.0383 11.0162 26.3609 11.0657C25.5821 11.0888 24.8882 10.5969 24.8882 9.72298C24.8882 8.87048 25.5005 8.3819 26.3413 8.3819C26.8568 8.3819 27.5388 8.73922 27.5388 8.73922C27.5388 8.73922 28.0378 7.82346 28.2963 7.3655C27.823 7.00671 27.1925 6.81 26.4592 6.81C24.6084 6.81 23.1749 8.0167 23.1749 9.71217C23.1749 11.4293 24.5222 12.6079 26.4592 12.5724C27.0005 12.5522 27.7474 12.3621 28.2027 12.0697L27.4919 10.7548Z" fill="black"/>
<path d="M3 5.78864L5.6642 10.5507V13.4555L3.00312 18.2082L3 5.78864Z" fill="#5B57A2"/>
<path d="M13.2295 8.81789L15.7259 7.28779L20.835 7.28302L13.2295 11.9423V8.81789Z" fill="#D90751"/>
<path d="M13.2153 5.76062L13.2295 12.0654L10.559 10.4246V1L13.2155 5.76062H13.2153Z" fill="#FAB718"/>
<path d="M20.835 7.28302L15.7257 7.28778L13.2153 5.76062L10.559 1L20.8349 7.28302H20.835Z" fill="#ED6F26"/>
<path d="M13.2295 18.2346V15.1757L10.559 13.566L10.5605 23L13.2295 18.2346Z" fill="#63B22F"/>
<path d="M15.7197 16.7184L5.66402 10.5507L3 5.78864L20.8242 16.7122L15.7195 16.7184H15.7197Z" fill="#1487C9"/>
<path d="M10.5606 23L13.2292 18.2346L15.7195 16.7185L20.824 16.7122L10.5606 23Z" fill="#017F36"/>
<path d="M3.00311 18.2082L10.5808 13.5662L8.03323 12.0031L5.66419 13.4555L3.00311 18.2082Z" fill="#984995"/>
<path d="M24.8887 16.1754C24.83 16.2502 24.7529 16.3067 24.6603 16.3448C24.5653 16.3835 24.4636 16.4032 24.3611 16.4028C24.2591 16.4042 24.1577 16.3871 24.0617 16.3525C23.9755 16.3212 23.8967 16.2724 23.8303 16.2092C23.7648 16.1458 23.7133 16.0694 23.6793 15.9848C23.6424 15.8921 23.624 15.7932 23.6252 15.6935C23.6252 15.5945 23.6422 15.5028 23.6776 15.4159C23.7115 15.3288 23.7608 15.2542 23.8226 15.1915C23.8844 15.1275 23.9585 15.0788 24.0417 15.0406C24.1266 15.004 24.2192 14.9842 24.3209 14.9842C24.4306 14.9842 24.5323 14.9979 24.6249 15.0252C24.7175 15.0527 24.7961 15.0986 24.8608 15.1627L24.7483 15.3534C24.6938 15.304 24.6297 15.2666 24.56 15.2434C24.4937 15.222 24.4245 15.2113 24.3548 15.2115C24.2932 15.2115 24.2346 15.2236 24.1776 15.2465C24.1214 15.2691 24.07 15.3023 24.0263 15.3442C23.9816 15.3873 23.9464 15.4393 23.9229 15.4968C23.8967 15.5562 23.8844 15.6218 23.8844 15.6949C23.8844 15.7697 23.8982 15.8368 23.9244 15.8948C23.9508 15.9544 23.9862 16.0048 24.0309 16.0473C24.0756 16.0902 24.1281 16.1221 24.1882 16.1435C24.2485 16.1665 24.3118 16.1771 24.3796 16.1771C24.4628 16.1771 24.5385 16.1602 24.6033 16.1281C24.6674 16.0972 24.725 16.0542 24.773 16.0017L24.8887 16.1754ZM25.2064 16.3707V15.0131H25.4503V16.0246L26.2432 15.0131H26.487V16.3709H26.2432V15.3594L25.4503 16.3709H25.2064V16.3707ZM28.1022 16.1754C28.0422 16.2509 27.9635 16.3093 27.8739 16.3448C27.7789 16.3835 27.6772 16.4032 27.5745 16.4028C27.4726 16.4041 27.3712 16.3871 27.2753 16.3525C27.1891 16.3212 27.1103 16.2724 27.0438 16.2092C26.9782 16.1458 26.9268 16.0694 26.8927 15.9848C26.8559 15.8921 26.8375 15.7932 26.8386 15.6935C26.8386 15.5945 26.8557 15.5028 26.8911 15.4159C26.9252 15.3288 26.9745 15.2542 27.0361 15.1915C27.0979 15.1275 27.1719 15.0788 27.2552 15.0406C27.3431 15.0019 27.4383 14.9826 27.5344 14.9842C27.644 14.9842 27.7458 14.9979 27.8384 15.0252C27.9309 15.0527 28.0096 15.0986 28.0745 15.1627L27.9617 15.3534C27.9074 15.304 27.8433 15.2665 27.7736 15.2434C27.7074 15.222 27.6381 15.2113 27.5685 15.2115C27.4459 15.2119 27.3282 15.2594 27.2398 15.3442C27.1955 15.3877 27.1603 15.4395 27.1364 15.4968C27.1102 15.5562 27.0979 15.6218 27.0979 15.6949C27.0979 15.7697 27.1118 15.8368 27.138 15.8948C27.1642 15.9544 27.1996 16.0048 27.2444 16.0473C27.2891 16.0902 27.3417 16.1221 27.4018 16.1435C27.462 16.1648 27.5252 16.1771 27.5931 16.1771C27.6765 16.1771 27.7505 16.1602 27.8167 16.1281C27.8808 16.0972 27.9385 16.0542 27.9865 16.0017L28.1022 16.1754ZM28.2272 15.0131H29.4783V15.2542H28.9754V16.3707H28.7316V15.2542H28.2287V15.0131H28.2272Z" fill="black"/>
<path fill-rule="evenodd" clip-rule="evenodd" d="M30.617 16.3571C30.7095 16.3282 30.7882 16.2838 30.856 16.2229L30.782 16.0337C30.7372 16.0735 30.6771 16.1071 30.6047 16.1346C30.5321 16.1621 30.4503 16.1756 30.3608 16.1756C30.2266 16.1756 30.1155 16.1406 30.0275 16.0689C29.9397 15.9971 29.8919 15.8966 29.8811 15.7683H30.9363C30.9471 15.721 30.9517 15.6676 30.9517 15.6051C30.9517 15.512 30.9347 15.4282 30.9008 15.3519C30.8692 15.2778 30.8231 15.2109 30.7651 15.155C30.7063 15.0997 30.6371 15.0566 30.5614 15.0285C30.4822 14.9978 30.3979 14.9822 30.313 14.9827C30.1988 14.9827 30.0985 15.0025 30.0107 15.0391C29.9276 15.0741 29.8526 15.1255 29.7899 15.1902C29.7292 15.2546 29.6824 15.331 29.6528 15.4144C29.6202 15.5033 29.604 15.5973 29.605 15.692C29.605 15.7989 29.6235 15.8964 29.6574 15.9835C29.6904 16.0678 29.7409 16.1443 29.8055 16.2077C29.8688 16.27 29.9458 16.3175 30.0369 16.3511C30.1344 16.3857 30.2374 16.4027 30.3409 16.4013C30.4346 16.4007 30.5277 16.3859 30.617 16.3573V16.3571ZM29.9999 15.3121C30.0754 15.2436 30.1757 15.21 30.3022 15.21C30.421 15.21 30.5167 15.2421 30.5862 15.3063C30.6556 15.3702 30.6925 15.4588 30.6987 15.5715H29.8657C29.8775 15.4717 29.9252 15.3796 29.9999 15.3123V15.3121Z" fill="black"/>
<path d="M31.2834 15.0131H31.5056L32.0332 15.6859L32.533 15.0131H32.749V16.3708H32.5053V15.3808L32.0301 16.0108H32.0208L31.5272 15.3806V16.3706H31.2834V15.0131Z" fill="black"/>
<path fill-rule="evenodd" clip-rule="evenodd" d="M33.4122 15.0176C33.3382 15.037 33.2675 15.0673 33.2025 15.1075L33.2672 15.3C33.3228 15.2725 33.3783 15.2496 33.4339 15.2298C33.4894 15.2098 33.5604 15.2006 33.6452 15.2006C33.7131 15.2006 33.7672 15.2114 33.8088 15.2327C33.8504 15.2525 33.8812 15.2831 33.9028 15.3198C33.9245 15.3564 33.9384 15.4021 33.9461 15.4554C33.9538 15.5088 33.9569 15.5667 33.9569 15.6294C33.907 15.5947 33.8502 15.5712 33.7903 15.5607C33.7323 15.5492 33.6735 15.543 33.6144 15.5423C33.5418 15.5423 33.474 15.5532 33.4091 15.5713C33.3444 15.5896 33.2888 15.6171 33.2441 15.6538C33.1984 15.6904 33.1616 15.7368 33.1361 15.7895C33.109 15.8472 33.0952 15.9103 33.096 15.9741C33.096 16.1068 33.1347 16.2106 33.2117 16.2839C33.2888 16.3571 33.3906 16.3936 33.5171 16.3936C33.6313 16.3936 33.7224 16.3738 33.7917 16.3342C33.8612 16.2944 33.9168 16.2487 33.9569 16.1968V16.3723H34.1852V15.5394C34.1852 15.3623 34.1467 15.2252 34.068 15.1289C33.9908 15.0329 33.8535 14.9841 33.6592 14.9841C33.5726 14.9841 33.4909 14.9962 33.4122 15.0176ZM33.8198 16.1176C33.7642 16.1572 33.6916 16.1754 33.6022 16.1754C33.5235 16.1754 33.4617 16.1556 33.4186 16.1175C33.3754 16.0779 33.3537 16.026 33.3537 15.9618C33.3537 15.9239 33.3614 15.8918 33.3785 15.8628C33.3955 15.8338 33.4186 15.8109 33.4449 15.7926C33.4735 15.7734 33.5054 15.7595 33.5389 15.7513C33.5745 15.7422 33.6099 15.7376 33.6469 15.7376C33.7673 15.7376 33.8706 15.7666 33.9554 15.8276V15.9999C33.9154 16.0448 33.8698 16.0843 33.8198 16.1175V16.1176ZM36.3375 14.5355C36.3868 14.5127 36.433 14.4746 36.4763 14.4181L36.3435 14.2275C36.3096 14.2733 36.2711 14.3052 36.2279 14.3221C36.182 14.34 36.1345 14.3533 36.086 14.3617L36.0398 14.3699C35.9996 14.3769 35.9565 14.3846 35.9101 14.3923C35.8358 14.4061 35.7633 14.4286 35.6942 14.4594C35.5845 14.5067 35.4967 14.5707 35.4304 14.6515C35.364 14.7324 35.3116 14.8239 35.276 14.9247C35.24 15.0268 35.2157 15.1328 35.2036 15.2404C35.1911 15.3504 35.1851 15.4554 35.1851 15.5561C35.1851 15.6859 35.2019 15.8032 35.2358 15.9085C35.2699 16.0139 35.3176 16.1022 35.3809 16.1739C35.4441 16.2473 35.5198 16.3023 35.6093 16.3419C35.6988 16.3815 35.799 16.4013 35.9116 16.4013C36.015 16.4013 36.1107 16.3815 36.1971 16.3448C36.2803 16.3096 36.3558 16.2583 36.4193 16.1939C36.4809 16.1312 36.5304 16.0564 36.5643 15.9726C36.5997 15.8887 36.6167 15.7986 36.6167 15.704C36.6167 15.6019 36.6013 15.509 36.572 15.4265C36.545 15.3478 36.5019 15.2757 36.4455 15.2145C36.389 15.1545 36.3199 15.1075 36.2433 15.077C36.1588 15.0438 36.0687 15.0272 35.978 15.0283C35.9193 15.0283 35.8623 15.036 35.8067 15.0512C35.7527 15.0664 35.7008 15.0885 35.6524 15.1168C35.6054 15.1438 35.5623 15.1771 35.5244 15.2158C35.4874 15.2541 35.4566 15.2969 35.4349 15.3456H35.4287C35.4335 15.2831 35.4412 15.2191 35.4549 15.1535C35.4689 15.0879 35.4888 15.0252 35.5152 14.9658C35.5415 14.9064 35.5754 14.8528 35.617 14.8041C35.6616 14.7548 35.7163 14.7158 35.7774 14.6897C35.8446 14.6577 35.9156 14.6346 35.9888 14.6211L36.0372 14.6123C36.0854 14.6035 36.1314 14.5951 36.1754 14.5859C36.2341 14.5738 36.288 14.5584 36.3375 14.5357V14.5355ZM35.4797 15.8399C35.4558 15.7629 35.4444 15.6825 35.4458 15.6019C35.4561 15.5557 35.4749 15.5117 35.5013 15.4723C35.5275 15.4311 35.5614 15.3946 35.6016 15.3623C35.6922 15.2913 35.8042 15.2532 35.9193 15.2541C36.0629 15.2541 36.1708 15.2983 36.2464 15.3854C36.3221 15.4738 36.3591 15.5836 36.3591 15.7163C36.3591 15.782 36.3467 15.8415 36.3252 15.8964C36.3044 15.9504 36.2729 15.9998 36.2326 16.0414C36.1923 16.0831 36.1441 16.1162 36.0907 16.1389C36.0352 16.1633 35.9749 16.1756 35.907 16.1756C35.8392 16.1756 35.7774 16.1618 35.7204 16.1343C35.6637 16.1074 35.6137 16.0683 35.5737 16.0199C35.5319 15.966 35.5001 15.905 35.4797 15.8399ZM38.4865 15.0131H38.2427V16.3708H38.4865V15.0131ZM36.9683 15.0131H37.2122V15.4204H37.4375C37.5438 15.4204 37.6302 15.4342 37.6997 15.46C37.7691 15.4861 37.8247 15.5211 37.8663 15.5638C37.9079 15.6065 37.9373 15.6569 37.9543 15.7132C37.9712 15.7697 37.9805 15.8276 37.9805 15.8887C37.9805 15.9497 37.9712 16.0078 37.9512 16.0658C37.9327 16.1237 37.9002 16.1739 37.857 16.2198C37.8139 16.2656 37.7552 16.3023 37.6811 16.3298C37.6071 16.3571 37.5176 16.3723 37.4096 16.3723H36.9669V15.0131H36.9683ZM37.2122 15.6476V16.145H37.3896C37.5116 16.145 37.5979 16.1237 37.6472 16.0808C37.6967 16.0381 37.7213 15.9772 37.7213 15.8964C37.7213 15.8139 37.6951 15.7515 37.6458 15.7086C37.5948 15.6659 37.5099 15.6445 37.3928 15.6445H37.2122V15.6476Z" fill="black"/>
<path d="M40.0988 16.1755C40.0401 16.2503 39.9629 16.3067 39.8703 16.3449C39.7754 16.3835 39.6737 16.4032 39.5712 16.4028C39.4691 16.4042 39.3677 16.3872 39.2718 16.3526C39.1856 16.3213 39.1068 16.2725 39.0404 16.2092C38.9748 16.1458 38.9233 16.0693 38.8892 15.9848C38.8525 15.8921 38.8342 15.7932 38.8353 15.6935C38.8353 15.5945 38.8521 15.5028 38.8877 15.4159C38.9216 15.3288 38.9709 15.2542 39.0327 15.1915C39.0945 15.1275 39.1684 15.0788 39.2518 15.0406C39.3397 15.0019 39.4349 14.9826 39.531 14.9842C39.6404 14.9842 39.7424 14.9979 39.835 15.0252C39.9275 15.0527 40.0062 15.0986 40.0709 15.1627L39.9584 15.3534C39.9039 15.304 39.8398 15.2666 39.7701 15.2434C39.7038 15.222 39.6346 15.2113 39.5649 15.2115C39.5033 15.2115 39.4447 15.2236 39.3875 15.2465C39.3313 15.2691 39.28 15.3023 39.2364 15.3442C39.192 15.3876 39.1569 15.4395 39.133 15.4968C39.1068 15.5562 39.0945 15.6218 39.0945 15.6949C39.0945 15.7697 39.1082 15.8368 39.1345 15.8948C39.1607 15.9544 39.1962 16.0048 39.241 16.0473C39.2857 16.0902 39.3381 16.1221 39.3983 16.1436C39.4586 16.1648 39.5218 16.1771 39.5897 16.1771C39.6729 16.1771 39.747 16.1602 39.8133 16.1282C39.8775 16.0972 39.9351 16.0542 39.9831 16.0017L40.0988 16.1755ZM40.2236 15.0131H41.4749V15.2542H40.9718V16.3707H40.7282V15.2542H40.2253V15.0131H40.2236Z" fill="black"/>
<path fill-rule="evenodd" clip-rule="evenodd" d="M41.984 15.0133H41.7402V16.9749H41.984V16.3083C42.0333 16.3404 42.092 16.3633 42.1598 16.3785C42.2277 16.3938 42.2986 16.4013 42.3712 16.4013C42.4792 16.4013 42.5764 16.3815 42.6644 16.345C42.7488 16.3089 42.8252 16.2566 42.8895 16.191C42.9527 16.1252 43.0006 16.0489 43.0345 15.9589C43.0684 15.8691 43.0855 15.7728 43.0855 15.6707C43.0855 15.5699 43.0701 15.4769 43.0407 15.3929C43.0131 15.3132 42.9701 15.2396 42.9142 15.1764C42.8594 15.1148 42.7913 15.0663 42.7151 15.0345C42.6319 14.9987 42.5419 14.9811 42.4513 14.9826C42.3558 14.9826 42.2663 15.001 42.1815 15.0376C42.0966 15.0743 42.0302 15.1183 41.984 15.1733V15.0133ZM42.1538 15.265C42.2233 15.2283 42.2988 15.21 42.3806 15.21C42.4515 15.21 42.5148 15.2206 42.572 15.2435C42.6275 15.2664 42.6737 15.2985 42.7124 15.3412C42.7509 15.384 42.7802 15.4329 42.7987 15.4907C42.8187 15.5486 42.8281 15.6113 42.8281 15.6799C42.8281 15.7532 42.8156 15.8186 42.7942 15.8797C42.7739 15.9376 42.7418 15.9906 42.6999 16.0353C42.6578 16.0796 42.6068 16.1144 42.5503 16.1375C42.4873 16.1638 42.4195 16.1768 42.3512 16.1756C42.285 16.1756 42.2233 16.1681 42.1646 16.1529C42.1004 16.1354 42.0394 16.1075 41.9842 16.0704V15.3975C42.0273 15.3458 42.0845 15.3016 42.1538 15.265ZM44.9553 15.0131H44.7115V16.3708H44.9553V15.0131ZM43.4356 15.0131H43.6795V15.4204H43.9046C44.0111 15.4204 44.0975 15.4342 44.167 15.46C44.2364 15.4861 44.292 15.5211 44.3336 15.5638C44.3752 15.6065 44.4046 15.6569 44.4214 15.7132C44.4385 15.7697 44.4476 15.8276 44.4476 15.8887C44.4476 15.9497 44.4385 16.0078 44.4185 16.0658C44.4 16.1237 44.3675 16.1739 44.3243 16.2198C44.2812 16.2656 44.2225 16.3023 44.1484 16.3298C44.0744 16.3571 43.9849 16.3723 43.8769 16.3723H43.4342V15.0131H43.4356ZM43.6811 15.6476V16.145H43.8586C43.9803 16.145 44.0669 16.1237 44.1162 16.0808C44.1655 16.0381 44.1902 15.9772 44.1902 15.8964C44.1902 15.8139 44.164 15.7515 44.1147 15.7086C44.0637 15.6659 43.9789 15.6445 43.8617 15.6445H43.6811V15.6476Z" fill="black"/>
<path d="M46.1248 15.6676L46.6462 16.3708H46.347L45.9442 15.8216L45.5354 16.3708H45.2516L45.7698 15.6797L45.2824 15.0131H45.5817L45.9535 15.5257L46.3314 15.0131H46.6154L46.1248 15.6676ZM24.7083 18.0489H23.9601V19.1808H23.7163V17.8232H24.952V19.1808H24.7083V18.0489ZM26.3358 18.0641H25.8545L25.8389 18.2929C25.8221 18.4867 25.799 18.6423 25.7665 18.7611C25.7341 18.8803 25.6939 18.9718 25.6477 19.0358C25.6015 19.0999 25.5474 19.1441 25.4857 19.1656C25.4219 19.1887 25.3545 19.2 25.2867 19.1991L25.2682 18.9641C25.2944 18.9655 25.3252 18.9595 25.3592 18.9443C25.3933 18.9291 25.4272 18.8955 25.4594 18.8453C25.4919 18.7932 25.5212 18.7201 25.5474 18.6255C25.5737 18.5294 25.5907 18.4044 25.5999 18.2471L25.6246 17.8245H26.5796V19.1822H26.3358V18.0639V18.0641Z" fill="black"/>
<path fill-rule="evenodd" clip-rule="evenodd" d="M27.2368 17.8263C27.158 17.8476 27.087 17.878 27.0269 17.9162L27.0918 18.1085C27.1474 18.081 27.2029 18.0581 27.2583 18.0383C27.3138 18.0185 27.3849 18.0093 27.4696 18.0093C27.5377 18.0093 27.5916 18.0199 27.6332 18.0412C27.675 18.0612 27.7058 18.0916 27.7274 18.1283C27.7489 18.165 27.7628 18.2108 27.7705 18.264C27.7782 18.3175 27.7813 18.3754 27.7813 18.4379C27.7314 18.4032 27.6745 18.3798 27.6147 18.3694C27.5568 18.3578 27.4979 18.3517 27.4389 18.351C27.3664 18.351 27.2984 18.3617 27.2337 18.38C27.1688 18.3983 27.1133 18.4258 27.0685 18.4625C27.0229 18.4991 26.986 18.5455 26.9605 18.5982C26.9334 18.6559 26.9198 18.719 26.9206 18.7828C26.9206 18.9153 26.9591 19.0193 27.0362 19.0924C27.1132 19.1656 27.2152 19.2023 27.3417 19.2023C27.4559 19.2023 27.5468 19.1825 27.6163 19.1427C27.6856 19.1031 27.7412 19.0572 27.7813 19.0054V19.1808H28.0098V18.3479C28.0098 18.171 27.9711 18.0337 27.8924 17.9376C27.8152 17.8414 27.6779 17.7928 27.4836 17.7928C27.4002 17.7929 27.3172 17.8041 27.2368 17.8262V17.8263ZM27.6457 18.926C27.5903 18.9658 27.5177 18.9841 27.4282 18.9841C27.3479 18.9841 27.2878 18.9643 27.2447 18.926C27.2014 18.8864 27.1798 18.8345 27.1798 18.7705C27.1798 18.7324 27.1875 18.7003 27.2045 18.6713C27.2214 18.6424 27.2447 18.6194 27.2709 18.6011C27.2971 18.5828 27.3294 18.569 27.365 18.5599C27.4002 18.5507 27.4365 18.5462 27.473 18.5463C27.5932 18.5463 27.6966 18.5753 27.7815 18.6361V18.8085C27.7414 18.8533 27.6958 18.8928 27.6457 18.926Z" fill="black"/>
<path d="M28.2487 17.8232H29.4999V18.0641H28.9968V19.1808H28.7532V18.0643H28.2503V17.8232H28.2487Z" fill="black"/>
<path fill-rule="evenodd" clip-rule="evenodd" d="M30.6386 19.167C30.7312 19.1381 30.8099 19.0937 30.8777 19.0328L30.8036 18.8436C30.7589 18.8834 30.6988 18.917 30.6262 18.9445C30.5537 18.972 30.472 18.9855 30.3825 18.9855C30.2483 18.9855 30.1372 18.9505 30.0492 18.8788C29.9612 18.8071 29.9135 18.7065 29.9027 18.5782H30.958C30.9686 18.531 30.9734 18.4775 30.9734 18.415C30.9734 18.322 30.9563 18.2381 30.9224 18.1618C30.8908 18.0878 30.8446 18.0209 30.7866 17.9651C30.7279 17.9096 30.6587 17.8665 30.5831 17.8384C30.5039 17.8077 30.4196 17.7921 30.3347 17.7926C30.2204 17.7926 30.1202 17.8124 30.0323 17.849C29.9493 17.8839 29.8742 17.9353 29.8116 18.0001C29.7508 18.0645 29.7041 18.1409 29.6743 18.2243C29.6418 18.3132 29.6256 18.4072 29.6264 18.5019C29.6264 18.6088 29.645 18.7063 29.6789 18.7934C29.713 18.8803 29.7638 18.9551 29.827 19.0176C29.8903 19.0801 29.9674 19.1274 30.0586 19.161C30.156 19.1956 30.2589 19.2127 30.3623 19.2114C30.4535 19.2114 30.546 19.196 30.6386 19.167ZM30.0201 18.1206C30.0956 18.052 30.1959 18.0184 30.3224 18.0184C30.4428 18.0184 30.5369 18.052 30.6064 18.1145C30.6757 18.1787 30.7127 18.267 30.7189 18.38H29.8859C29.8976 18.2801 29.9453 18.1879 30.0201 18.1206ZM31.0922 17.8232H31.4007L31.8712 18.4777L31.3683 19.1808H31.0691L31.5965 18.4775L31.0922 17.823V17.8232ZM31.9313 17.8232H32.1751V19.1808H31.9313V17.8232ZM33.0467 19.1808L32.5099 18.4775L33.0113 17.823H32.7088L32.2353 18.4775L32.7444 19.1808H33.0467ZM34.1606 19.167C34.2532 19.1381 34.3319 19.0937 34.3997 19.0328L34.3256 18.8436C34.2809 18.8834 34.2208 18.917 34.1483 18.9445C34.0757 18.972 33.994 18.9855 33.9045 18.9855C33.7703 18.9855 33.6592 18.9505 33.5712 18.8788C33.4834 18.8071 33.4356 18.7065 33.4247 18.5782H34.48C34.4908 18.531 34.4954 18.4775 34.4954 18.415C34.4954 18.322 34.4785 18.2381 34.4444 18.1618C34.4128 18.0878 34.3667 18.0209 34.3088 17.9651C34.2501 17.9096 34.1808 17.8665 34.1051 17.8384C34.0259 17.8077 33.9416 17.7921 33.8567 17.7926C33.7426 17.7926 33.6424 17.8124 33.5544 17.849C33.4714 17.8839 33.3963 17.9353 33.3338 18.0001C33.2729 18.0645 33.2261 18.1408 33.1965 18.2243C33.1639 18.3132 33.1477 18.4072 33.1486 18.5019C33.1486 18.6088 33.1672 18.7063 33.2011 18.7934C33.235 18.8803 33.286 18.9551 33.3492 19.0176C33.4125 19.0801 33.4894 19.1274 33.5806 19.161C33.6781 19.1956 33.781 19.2127 33.8845 19.2114C33.9783 19.2107 34.0714 19.1957 34.1606 19.167ZM33.5421 18.1206C33.6178 18.052 33.7181 18.0184 33.8446 18.0184C33.9634 18.0184 34.0589 18.052 34.1284 18.1145C34.1979 18.1787 34.2349 18.267 34.2409 18.38H33.4079C33.4196 18.2801 33.4673 18.1879 33.5421 18.1206ZM35.4845 17.3671C35.3409 17.3671 35.2623 17.2877 35.25 17.1291H35.0201C35.0201 17.19 35.0309 17.245 35.0509 17.2968C35.0711 17.3487 35.1004 17.3929 35.1389 17.4296C35.1774 17.4662 35.2269 17.4952 35.2839 17.5179C35.3409 17.5409 35.4073 17.5515 35.4828 17.5515C35.5523 17.5515 35.6141 17.5409 35.6696 17.5179C35.7252 17.4967 35.7714 17.4662 35.8115 17.4296C35.85 17.3929 35.881 17.3487 35.9025 17.2968C35.9241 17.245 35.9349 17.19 35.9349 17.1291H35.7067C35.6959 17.2877 35.6202 17.3671 35.4845 17.3671ZM34.8256 17.823V19.1808H35.0694L35.8623 18.1693V19.1808H36.1062V17.823H35.8623L35.0694 18.8345V17.823H34.8256Z" fill="black"/>
</svg>
