<svg width="111" height="24" viewBox="0 0 111 24" fill="none" xmlns="http://www.w3.org/2000/svg">
    <path d="M20.4335 5.67241H5.80299C5.35785 5.67241 4.99618 5.31073 4.99618 4.86559C4.99618 4.66273 5.16079 4.49928 5.36249 4.49928H18.4733C18.6761 4.49928 18.8407 4.33467 18.8407 4.13181V2.81029C18.843 2.36515 18.4837 2.00232 18.0385 2C18.013 2 17.9875 2 17.962 2.00348L4.67507 3.18009C3.72683 3.26239 2.99884 4.0553 3 5.00702V17.777C3 18.7902 3.82073 19.6109 4.83389 19.6109H20.4312C21.4443 19.6109 22.2651 18.7902 22.2651 17.777V7.5063C22.2651 6.49314 21.4443 5.67241 20.4312 5.67241H20.4335ZM15.9137 15.2673C15.8082 16.1993 15.2008 16.998 14.3314 17.3492C13.7946 17.5672 13.2174 17.6657 12.6389 17.639C11.8356 17.6124 11.0485 17.4095 10.3321 17.0455C10.004 16.8658 9.69449 16.6537 9.407 16.4137C9.34209 16.3593 9.30847 16.3106 9.37107 16.2225C9.43367 16.1344 9.69681 15.7356 9.74086 15.6753C9.78375 15.6058 9.87417 15.5849 9.94372 15.6278C9.95531 15.6348 9.96459 15.6429 9.97386 15.6521L10.0886 15.7379C10.7749 16.2712 11.6582 16.6711 12.6401 16.7082C13.8781 16.692 14.7777 16.1402 14.9376 15.2858C15.115 14.3422 14.3638 13.5366 12.916 13.0856C12.4557 12.9419 11.3 12.4852 11.0856 12.3588C10.0782 11.7722 9.60755 11.0048 9.67594 10.0554C9.78143 8.74087 11.0044 7.75669 12.5612 7.75205C13.2649 7.75437 13.9616 7.89695 14.6096 8.17169C14.8889 8.29341 15.1567 8.43831 15.4118 8.6064C15.4883 8.64697 15.5184 8.74203 15.4778 8.81853C15.4744 8.82433 15.4709 8.83013 15.4674 8.83592C15.406 8.93794 15.2228 9.2231 15.1486 9.34134C15.0941 9.42712 15.0281 9.42713 14.9342 9.37264C14.2375 8.90779 13.4202 8.65509 12.5821 8.64697C11.5191 8.66552 10.7169 9.29382 10.6636 10.1563C10.6497 10.9283 11.2444 11.4975 12.5068 11.9276C15.1127 12.7564 16.0992 13.7336 15.9125 15.2661L15.9137 15.2673Z"
          fill="#EE4D2D"/>
    <path d="M31.0183 10.9365C29.531 10.4589 28.8459 9.8306 28.8448 8.96234C28.8877 8.01062 29.7803 7.28495 31.0044 7.23858C31.9747 7.2351 32.9252 7.51911 33.7332 8.05467C33.9523 8.18798 34.0601 8.14045 34.1876 7.96889C34.2015 7.94686 34.2491 7.87847 34.4044 7.6559C34.5516 7.44376 34.6096 7.36146 34.6247 7.33595C34.7325 7.13541 34.7325 7.02876 34.5122 6.87343C34.1911 6.67056 33.8526 6.49436 33.5014 6.34946C32.6911 6.02372 31.824 5.86143 30.9511 5.87534C28.9932 5.91823 27.4618 7.18757 27.3598 8.85917C27.2949 10.0671 27.9128 11.0385 29.1926 11.7526C29.5565 11.9439 30.8607 12.4319 31.4577 12.6104C33.1629 13.1077 34.0369 14.0142 33.8607 15.0714C33.6973 16.0324 32.6795 16.6804 31.2374 16.7245C30.1837 16.7025 29.1265 16.3164 28.2107 15.6313L28.14 15.578L28.0693 15.5258C27.8687 15.3879 27.7261 15.3879 27.5847 15.5954C27.5801 15.6035 27.4688 15.7728 27.3587 15.9385C27.2288 16.1333 27.1732 16.2179 27.1431 16.2654C27.0248 16.437 27.0457 16.5344 27.2172 16.6804C27.5801 16.9726 27.9696 17.2287 28.3823 17.4444C29.2772 17.8802 30.2567 18.1144 31.2525 18.1306C31.9758 18.1526 32.6957 18.017 33.3611 17.733C34.4832 17.2345 35.1985 16.2608 35.3237 15.0633C35.5254 13.1158 34.2537 11.9044 31.0195 10.9365H31.0183Z"
          fill="#EE4D2D"/>
    <path d="M40.0904 10.4519C39.3137 10.4519 38.5579 10.7023 37.9342 11.1648V6.14424C37.9342 5.94718 37.8566 5.87183 37.6618 5.87183H36.7507C36.5339 5.87183 36.4782 5.9437 36.4782 6.14424V17.8106C36.4782 18.0031 36.5339 18.0831 36.7507 18.0831H37.6595C37.8566 18.0831 37.9319 17.9973 37.9319 17.8106V14.0003C37.9319 12.6996 38.9045 11.8789 40.0904 11.8789C41.2762 11.8789 42.2488 12.6985 42.2488 14.0084V17.8095C42.2488 18.0297 42.3033 18.0819 42.5212 18.0819H43.4278C43.6445 18.0819 43.7002 18.0309 43.7002 17.8095V13.9968C43.6921 12.0447 42.0634 10.4507 40.0904 10.4507V10.4519Z"
          fill="#EE4D2D"/>
    <path d="M48.7613 10.4612C46.604 10.4612 44.8547 12.178 44.8547 14.2878C44.8547 16.3976 46.604 18.1155 48.7613 18.1155C50.9186 18.1155 52.6667 16.3987 52.6667 14.2878C52.6667 12.1768 50.9174 10.4612 48.7613 10.4612ZM48.7613 16.7082C47.3946 16.7082 46.2875 15.6232 46.2875 14.2866C46.2875 12.95 47.3946 11.865 48.7613 11.865C50.128 11.865 51.2339 12.95 51.2339 14.2866C51.2339 15.6232 50.1222 16.7082 48.7601 16.7082H48.7613Z"
          fill="#EE4D2D"/>
    <path d="M78.2878 14.8025H78.3086C78.5521 14.7885 78.741 14.5857 78.7375 14.3423V14.2808C78.7375 12.1676 77.081 10.4542 75.035 10.4542C72.989 10.4542 71.3325 12.171 71.3325 14.2808C71.3325 14.4385 71.3417 14.5961 71.3603 14.7515L71.3649 14.8013C71.4634 15.5548 71.7892 16.2608 72.3004 16.8241L72.305 16.8288C72.8847 17.4606 73.6544 17.886 74.4983 18.0402L74.5655 18.0529L74.6664 18.0691C75.8395 18.2106 76.8272 18.0205 77.6282 17.617C77.8241 17.5197 78.0107 17.4049 78.1858 17.2739C78.2402 17.2322 78.2878 17.1939 78.326 17.1603C78.3504 17.1394 78.3666 17.1244 78.3747 17.1151C78.5811 16.9018 78.5915 16.8091 78.4674 16.6166C78.1811 16.1599 78.02 15.9373 78.02 15.9373C77.9087 15.7971 77.8067 15.7658 77.6641 15.8921C77.6398 15.9142 77.6166 15.9292 77.6038 15.942C76.746 16.7013 75.6297 16.8508 74.649 16.6468C74.4566 16.5958 74.2676 16.5274 74.0879 16.4416C73.4295 16.124 72.9542 15.52 72.8 14.8059H78.2878V14.8036V14.8025ZM72.8893 13.3986C73.1721 12.4724 74.0311 11.8534 75.035 11.8534C76.0111 11.8696 76.877 12.4829 77.2167 13.3986H72.8893Z"
          fill="#EE4D2D"/>
    <path d="M57.7059 10.4403C56.8214 10.4392 55.9624 10.744 55.2773 11.3051V10.7127C55.2773 10.5064 55.2205 10.4403 55.0049 10.4403H54.1401C53.9233 10.4403 53.8677 10.5017 53.8677 10.7127V21.7276C53.8677 21.9282 53.9233 22.0001 54.1401 22.0001H55.0049C55.2217 22.0001 55.2773 21.9293 55.2773 21.7276V17.2333C56.9118 18.578 59.3276 18.3416 60.6712 16.7071C62.0159 15.0726 61.7794 12.6567 60.1449 11.3132C59.4575 10.7487 58.595 10.4403 57.7059 10.4415V10.4403ZM57.7059 16.6885C56.3902 16.6897 55.3144 15.6429 55.2785 14.3283V14.2043C55.3098 12.8631 56.4215 11.8024 57.7627 11.8337C59.1039 11.865 60.1646 12.9767 60.1333 14.3179C60.102 15.6371 59.0251 16.6897 57.7059 16.6897V16.6885Z"
          fill="#EE4D2D"/>
    <path d="M70.1617 14.282C70.1617 12.1688 68.504 10.4554 66.4591 10.4554C64.4143 10.4554 62.7566 12.1723 62.7566 14.282C62.7566 14.4397 62.7659 14.5973 62.7844 14.7527L62.7902 14.8025C62.8887 15.5572 63.2168 16.2631 63.728 16.8254V16.83C64.3076 17.4629 65.0797 17.8872 65.9236 18.0414L65.9908 18.0541L66.0905 18.0704C67.2636 18.2118 68.2513 18.0217 69.0523 17.6183C69.2482 17.5209 69.4349 17.4061 69.6099 17.2751C69.6644 17.2334 69.7119 17.1952 69.7513 17.1615C69.7745 17.1407 69.7907 17.1256 69.7988 17.1163C70.0052 16.903 70.0156 16.8103 69.8916 16.6179C69.6053 16.1611 69.4441 15.9386 69.4441 15.9386C69.3317 15.7983 69.2308 15.767 69.0871 15.8934C69.0627 15.9154 69.0396 15.9304 69.0268 15.9432C68.169 16.7025 67.0527 16.852 66.0731 16.648C65.8795 16.597 65.6917 16.5286 65.5109 16.4428C64.8525 16.1252 64.3772 15.5212 64.223 14.8072H69.7316C69.975 14.7932 70.164 14.5904 70.1605 14.3469V14.3145C70.1605 14.3041 70.1605 14.2936 70.1605 14.2832L70.1617 14.282ZM64.3157 13.3999C64.5997 12.4736 65.4576 11.8546 66.4615 11.8546C67.4375 11.8709 68.3034 12.4841 68.6431 13.3999H64.3157Z"
          fill="#EE4D2D"/>
    <path fill-rule="evenodd" clip-rule="evenodd"
          d="M81.0734 17.7017V6.26363C81.0734 6.02715 81.2658 5.83472 81.5023 5.83472H85.3648C87.5383 5.86254 89.3073 7.63731 89.3073 9.78302C89.3073 11.9287 87.5372 13.7023 85.359 13.7313H82.5653V17.704C82.5653 17.9405 82.3729 18.1329 82.1364 18.1329H81.4988C81.2623 18.1306 81.0722 17.9381 81.0734 17.7017ZM82.5665 12.1745H85.3474C85.9931 12.1768 86.6133 11.9206 87.07 11.4651C87.5279 11.013 87.7853 10.3963 87.7829 9.75404C87.7795 8.41514 86.6933 7.33127 85.3544 7.33243H82.5665V12.1757V12.1745Z"
          fill="#EE4D2D"/>
    <path fill-rule="evenodd" clip-rule="evenodd"
          d="M99.154 21.5595L102.078 16.5354L98.5767 10.8042C98.5025 10.6825 98.5408 10.5249 98.6625 10.4507C98.7031 10.4263 98.7494 10.4136 98.7958 10.4136H100.212L103.028 14.9797L105.748 10.4136H107.055C107.198 10.4136 107.313 10.5295 107.313 10.6721C107.313 10.7173 107.3 10.7625 107.277 10.8019L100.688 21.9467H99.3754C99.2328 21.9467 99.1181 21.8307 99.1181 21.6893C99.1181 21.6441 99.1296 21.5989 99.1528 21.5595H99.154Z"
          fill="#EE4D2D"/>
    <path fill-rule="evenodd" clip-rule="evenodd"
          d="M95.8699 17.6437V16.9829L95.652 17.1638C94.9402 17.7526 94.0441 18.0749 93.1191 18.0726C90.9734 18.0726 89.2287 16.3558 89.2287 14.2425C89.2287 12.1293 90.9745 10.4716 93.1191 10.4716C94.0441 10.4693 94.939 10.7915 95.652 11.3804L95.8699 11.5612V10.9005C95.8699 10.664 96.0623 10.4716 96.2988 10.4716H97.1891V18.0714H96.2988C96.0623 18.0714 95.8699 17.879 95.8699 17.6425V17.6437ZM93.1086 11.8986C91.7605 11.8986 90.6638 12.9523 90.6638 14.2472C90.6638 15.542 91.7802 16.6549 93.1086 16.6549C94.4371 16.6549 95.5534 15.5524 95.5534 14.2472C95.5534 12.9419 94.4522 11.8986 93.104 11.8986H93.1086Z"
          fill="#EE4D2D"/>
</svg>
