<svg width="65" height="24" viewBox="0 0 65 24" fill="currentBackgroundColor" xmlns="http://www.w3.org/2000/svg">
<path fill-rule="evenodd" clip-rule="evenodd" d="M60.5279 24H0L4.03424 0H64.5619L60.5279 24Z" fill="#2E3235"/>
<path fill-rule="evenodd" clip-rule="evenodd" d="M19.3043 13.9818C18.2709 13.9818 17.5449 13.3094 17.5449 12.2597C17.5449 11.098 18.4474 10.0076 19.7442 10.0076C20.7777 10.0076 21.5037 10.7108 21.5037 11.7606C21.5037 12.9225 20.6011 13.9818 19.3043 13.9818ZM19.9093 8.00012C17.1933 8.00012 15.1377 9.98728 15.1377 12.3616C15.1377 14.5118 16.8303 16.0002 19.1392 16.0002C21.8553 16.0002 23.9108 13.9512 23.9108 11.5769C23.9108 9.42693 22.2183 8.00012 19.9093 8.00012Z" fill="#E5E5E0"/>
<path fill-rule="evenodd" clip-rule="evenodd" d="M35.6705 13.9818C34.637 13.9818 33.9124 13.3094 33.9124 12.2597C33.9124 11.098 34.8135 10.0076 36.1103 10.0076C37.1438 10.0076 37.8698 10.7108 37.8698 11.7606C37.8698 12.9225 36.9687 13.9818 35.6705 13.9818ZM36.2755 8.00012C33.5594 8.00012 31.5038 9.98728 31.5038 12.3616C31.5038 14.5118 33.1964 16.0002 35.5053 16.0002C38.2214 16.0002 40.2784 13.9512 40.2784 11.5769C40.2784 9.42693 38.5844 8.00012 36.2755 8.00012Z" fill="#E5E5E0"/>
<path fill-rule="evenodd" clip-rule="evenodd" d="M44.4037 11.7895H44.0492L44.3155 10.1873H44.6372C45.3902 10.1873 45.7888 10.4133 45.7888 10.9061C45.7888 11.4916 45.2237 11.7895 44.4037 11.7895ZM48.2699 10.5263C48.2699 9.08848 47.1411 8.16418 45.1026 8.16418H42.2215L40.9588 15.8357H43.3845L43.783 13.4223H43.8941L45.1795 15.8357H47.9596L46.1759 13.1552C47.4841 12.7031 48.2699 11.7278 48.2699 10.5263Z" fill="#E5E5E0"/>
<path fill-rule="evenodd" clip-rule="evenodd" d="M12.3575 11.2247C11.4379 10.7624 11.2287 10.6392 11.2287 10.3928C11.2287 10.0846 11.5931 9.93052 12.1027 9.93052C12.6878 9.93052 13.5718 9.99573 14.4373 10.8166C14.6522 10.1588 15.001 9.56 15.4579 9.04423C14.2309 8.35857 13.1006 8.00012 12.0586 8.00012C9.98737 8.00012 8.80163 9.099 8.80163 10.4236C8.80163 11.5635 9.66566 12.1591 10.6963 12.6826C11.6159 13.1552 11.8479 13.2991 11.8479 13.5869C11.8479 13.8949 11.4607 14.0692 10.9511 14.0692C10.0642 14.0692 9.03364 13.5148 8.42435 12.9499L8.06989 15.086C8.70197 15.5376 9.61016 15.9996 10.9838 15.9996C13.122 15.9996 14.275 14.9321 14.275 13.556C14.275 12.4362 13.5319 11.8203 12.3575 11.2247Z" fill="#E5E5E0"/>
<path fill-rule="evenodd" clip-rule="evenodd" d="M30.2938 11.5325H27.4539L27.676 10.1873H30.7223C31.1166 9.37816 31.7273 8.68618 32.4889 8.16418H27.5037C26.3976 8.16418 25.4581 8.91263 25.2916 9.92567L24.3179 15.8357H26.745L27.1435 13.4223H30.0247L30.2326 12.1106C30.2426 11.9145 30.2625 11.7219 30.2938 11.5325Z" fill="#E5E5E0"/>
<path fill-rule="evenodd" clip-rule="evenodd" d="M48.3226 8.16418C48.9703 8.65837 49.3704 9.34927 49.4558 10.1873H51.4843L50.5533 15.8357H52.9789L53.9114 10.1873H56.1591L56.4922 8.16418H48.3226Z" fill="#E5E5E0"/>
</svg>
