<svg width="52" height="24" viewBox="0 0 52 24" fill="none" xmlns="http://www.w3.org/2000/svg">
  <path d="M39.8072 2H11.915C6.43912 2 2 6.47715 2 12C2 17.5229 6.43912 22 11.915 22H39.8072C45.2832 22 49.7223 17.5229 49.7223 12C49.7223 6.47715 45.2832 2 39.8072 2Z" fill="#303030"/>
  <path d="M26.5217 9.0379H22.5648V15.412H24.4894V13.6973H26.5202C26.9974 13.6973 27.4622 13.6832 27.9144 13.5369C28.7911 13.2553 29.4414 12.4656 29.4414 11.3944C29.4414 10.3231 28.8036 9.54601 27.941 9.23926C27.4638 9.06465 27.0114 9.0379 26.5202 9.0379H26.5217ZM24.4909 12.1982V10.5779H26.244C26.6153 10.5779 26.8289 10.6188 27.0005 10.6849C27.3063 10.806 27.4513 11.086 27.4513 11.3818C27.4513 11.7027 27.2781 12.011 26.9475 12.118C26.7884 12.1715 26.6028 12.1982 26.244 12.1982H24.4909Z" fill="white"/>
  <path d="M32.2022 13.0823L33.1177 10.5119H33.2643L34.1798 13.0823H32.2022ZM31.7248 14.4886H34.6462L35.0174 15.412H37.1808L34.5916 9.0379H31.7764L29.1872 15.412H31.3645L31.7233 14.4886H31.7248Z" fill="white"/>
  <path d="M41.8661 9.0379L40.3002 11.9434H40.2332L38.6531 9.0379H36.4103L39.2645 13.7241V15.412H41.2563V13.5636L43.9655 9.0379H41.8661Z" fill="white"/>
  <path d="M7.75842 7.14709H18.4518V12.571C18.4518 13.9616 17.7156 15.2468 16.5224 15.9421L13.1051 17.9321L9.68778 15.9421C8.49305 15.2468 7.75842 13.9616 7.75842 12.571V7.14709Z" fill="#FFDD2D"/>
  <path fill-rule="evenodd" clip-rule="evenodd" d="M10.6922 10.0023V11.6886C10.9215 11.4275 11.3364 11.2513 11.8121 11.2513H12.3284V13.2129C12.3284 13.7352 12.188 14.1913 11.979 14.443H14.2265C14.0191 14.1913 13.8787 13.7352 13.8787 13.2145V11.2528H14.395C14.8707 11.2528 15.2871 11.429 15.5148 11.6902V10.0038H10.6907L10.6922 10.0023Z" fill="#333333"/>
</svg>