<svg width="51" height="24" viewBox="0 0 51 24" fill="none" xmlns="http://www.w3.org/2000/svg">
  <path d="M3 9.12625C3 6.63247 3 5.38455 3.48173 4.43148C3.90532 3.59261 4.58015 2.91154 5.41279 2.48588C6.35963 2 7.5951 2 10.0723 2H15.7782C18.2533 2 19.4909 2 20.4356 2.48588C21.2683 2.91154 21.9452 3.59261 22.3688 4.43148C22.8484 5.38455 22.8484 6.6304 22.8484 9.12625V14.8758C22.8484 17.3696 22.8484 18.6154 22.3688 19.5685C21.9452 20.4074 21.2683 21.0885 20.4356 21.5162C19.4909 22 18.2533 22 15.7782 22H10.0723C7.59718 22 6.35963 22 5.41279 21.5162C4.58015 21.0885 3.90532 20.4074 3.48173 19.5685C3 18.6154 3 17.3696 3 14.8758V9.12625Z" fill="black"/>
  <path d="M29.5137 10.4554C28.4589 10.4554 27.8422 11.178 27.8422 11.178V8.45374H26.8808V15.4284H27.7924V14.7723C27.7924 14.7723 28.3821 15.5281 29.5137 15.5281C30.8385 15.5281 31.8497 14.4296 31.8497 12.9907C31.8497 11.5497 30.8717 10.4512 29.5137 10.4512V10.4554ZM29.3144 14.6456C28.8866 14.6456 28.4983 14.4816 28.2222 14.1805C27.9439 13.8794 27.7924 13.4579 27.7924 12.9907C27.7924 12.0169 28.4194 11.3358 29.3144 11.3358C30.2114 11.3358 30.8385 12.0169 30.8385 12.9907C30.8385 13.9645 30.2259 14.6456 29.3144 14.6456Z" fill="black"/>
  <path d="M34.2438 15.5278C35.1636 15.5278 35.7159 15.0585 36.0129 14.7138V15.4281H36.885V12.2429C36.885 11.1569 36.0378 10.4551 34.8252 10.4551C33.8181 10.4551 32.9855 10.9763 32.6366 11.8234L33.4838 12.11C33.6894 11.5867 34.1752 11.2773 34.794 11.2773C35.6786 11.2773 35.963 11.7341 35.963 11.9895C35.963 12.2823 35.7388 12.3758 35.5436 12.4007L34.0403 12.6021C32.6906 12.789 32.5183 13.6652 32.5183 14.1033C32.5183 14.7096 32.865 15.5298 34.2438 15.5298V15.5278ZM34.2272 13.3164L35.3484 13.1648C35.5623 13.1378 35.8073 13.09 35.9651 12.9426V13.4555C35.9651 13.9372 35.4709 14.7263 34.4036 14.7263C33.6644 14.7263 33.517 14.311 33.5025 14.0431C33.4796 13.6735 33.7496 13.3766 34.2272 13.3164Z" fill="black"/>
  <path d="M40.3816 11.3562C41.4385 11.3562 41.5984 12.2263 41.5984 12.6V15.4281H42.5909V12.6C42.5909 11.4788 41.9805 10.453 40.5893 10.453C39.74 10.453 39.2251 10.8932 38.9365 11.2192V10.5547H38.0249V15.4302H38.9842V12.8014C38.9842 12.2719 39.2874 11.3583 40.3816 11.3583V11.3562Z" fill="black"/>
  <path d="M47.0054 15.4284H48.2492L46.0419 12.565L48.1391 10.5551H46.912L44.6819 12.6938V8.45374H43.7184V15.4284H44.6819V13.8337L45.3131 13.2295L47.0054 15.4305V15.4284Z" fill="black"/>
  <path d="M11.0835 11.7342H9.61129V13.6944C9.61129 14.1159 9.89991 14.3028 10.2384 14.3028C10.5104 14.3028 10.8198 14.2342 11.0814 14.1159V15.3327C10.799 15.451 10.4398 15.5195 10.0328 15.5195C8.9593 15.5195 8.28239 14.8011 8.28239 13.7816V11.7301H7.05523V10.5133H8.28654V9.24878H9.61337V10.5154H11.0835V11.7342Z" fill="#FF6600"/>
  <path d="M16.8767 8.95388C16.8767 8.45555 17.2546 8.07349 17.7487 8.07349C18.2429 8.07349 18.6188 8.45555 18.6188 8.95596C18.6188 9.45638 18.2409 9.83844 17.7467 9.83844C17.2525 9.83844 16.8767 9.4543 16.8767 8.95388ZM17.0781 10.5237H18.4153L18.4111 15.4302H17.0739L17.0781 10.5237Z" fill="#FF6600"/>
  <path d="M14.3372 10.426C13.7205 10.426 13.2097 10.6772 12.8858 11.0115V8.45959H11.559L11.5527 15.426H12.8111V14.8508C13.1827 15.2619 13.789 15.5256 14.3476 15.5256C15.7907 15.5256 16.696 14.3836 16.696 12.9758C16.696 11.568 15.7845 10.428 14.3372 10.428V10.426ZM14.0735 14.2881C13.353 14.2881 12.8443 13.7191 12.8443 12.9696C12.8443 12.2221 13.3426 11.6531 14.0901 11.6531C14.8356 11.6531 15.2944 12.2511 15.2944 12.9696C15.2944 13.6901 14.7816 14.2881 14.0735 14.2881Z" fill="#FF6600"/>
</svg>
