<svg width="38" height="24" viewBox="0 0 38 24" fill="none" xmlns="http://www.w3.org/2000/svg">
    <path d="M3.08607 22.9388C2.84946 22.8401 2.71897 22.7507 2.51212 22.5453C2.33459 22.3691 2.30225 22.3251 2.20991 22.1333C2.15303 22.0152 2.08949 21.8537 2.0687 21.7744C2.03232 21.6356 2.03091 21.2742 2.03091 12.031C2.03091 2.80467 2.03238 2.4261 2.06852 2.28751C2.13373 2.03749 2.29295 1.74249 2.45808 1.56573C2.68307 1.32488 2.87741 1.19778 3.18886 1.08777L3.3497 1.03096L18.9485 1.02569C34.4657 1.02044 34.5481 1.02063 34.7121 1.06144C35.2894 1.2051 35.7393 1.63473 35.9208 2.21541L35.9691 2.36991V12.031V21.692L35.9208 21.8456C35.7608 22.355 35.4231 22.7271 34.9315 22.9357L34.7799 23.0001L19.003 22.9986L3.22607 22.9972L3.08607 22.9388ZM11.4148 17.6872C11.4345 17.6747 11.533 17.1591 11.7285 16.0447C11.8853 15.1514 12.0186 14.3996 12.0247 14.3741L12.0359 14.3278H13.1792H14.3224L14.3224 14.3741C14.3224 14.3996 14.228 14.9488 14.1127 15.5946C13.9398 16.5622 13.9029 16.805 13.9027 16.9748C13.9023 17.2359 13.9479 17.3519 14.1081 17.4983C14.2844 17.6594 14.3149 17.6649 15.0366 17.6649H15.661L15.6719 17.6185C15.7166 17.4283 16.383 13.5719 16.383 13.5039C16.383 13.191 16.1476 12.7768 15.8676 12.5972C15.645 12.4544 15.6333 12.4532 14.4578 12.4532C13.4676 12.4532 13.3917 12.4558 13.2399 12.4946C12.9045 12.5804 12.5508 12.8018 12.3584 13.0466C12.3007 13.12 12.2506 13.1713 12.247 13.1606C12.2434 13.1499 12.2721 12.9748 12.3107 12.7715C12.3493 12.5681 12.3767 12.3948 12.3716 12.3863C12.3666 12.3778 11.8862 12.3708 11.3041 12.3708H10.2457L10.234 12.4275C10.2275 12.4586 10.0178 13.6336 9.76789 15.0384C9.51803 16.4433 9.3089 17.6083 9.30317 17.6273C9.29715 17.6472 9.30837 17.6709 9.32971 17.6833C9.37579 17.7101 11.3727 17.7139 11.4148 17.6872ZM9.1194 13.501C9.53873 12.9113 9.88482 12.4157 9.88849 12.3998C9.89409 12.3754 9.80028 12.3708 9.29606 12.3708C8.96656 12.3708 8.69697 12.3732 8.69697 12.376C8.69697 12.3788 8.61352 12.8539 8.51152 13.4317C8.32664 14.479 8.31226 14.5757 8.34152 14.5741C8.35002 14.5737 8.70007 14.0908 9.1194 13.501Z" fill="#F8E806"/>
    <path d="M3.08607 22.9388C2.84946 22.8401 2.71897 22.7507 2.51212 22.5453C2.33459 22.3691 2.30225 22.3251 2.20991 22.1333C2.15303 22.0152 2.08949 21.8537 2.0687 21.7744C2.03232 21.6356 2.03091 21.2742 2.03091 12.031C2.03091 2.80467 2.03238 2.4261 2.06852 2.28751C2.13373 2.03749 2.29295 1.74249 2.45808 1.56573C2.68307 1.32488 2.87741 1.19778 3.18886 1.08777L3.3497 1.03096L18.9485 1.02569C34.4657 1.02044 34.5481 1.02063 34.7121 1.06144C35.2894 1.2051 35.7393 1.63473 35.9208 2.21541L35.9691 2.36991V12.031V21.692L35.9208 21.8456C35.7608 22.355 35.4231 22.7271 34.9315 22.9357L34.7799 23.0001L19.003 22.9986L3.22607 22.9972L3.08607 22.9388ZM22.341 19.4222C22.6533 19.3335 22.9512 19.1519 23.1843 18.9083C23.4072 18.6753 23.554 18.4209 23.6227 18.1489C23.6807 17.9191 24.0958 15.5064 24.0831 15.4731C24.0717 15.4435 23.9671 15.4401 23.0523 15.4401C22.2629 15.4401 22.0294 15.4459 22.0128 15.4659C22.0011 15.48 21.913 15.94 21.817 16.488C21.7011 17.1492 21.6329 17.4903 21.6142 17.5022C21.5987 17.512 20.8941 17.5202 20.0483 17.5203C18.8427 17.5206 18.506 17.5151 18.4895 17.4949C18.4748 17.4769 18.5507 17.0038 18.7422 15.9209C18.8928 15.0693 19.0222 14.3625 19.0298 14.3502C19.0397 14.3342 19.7794 14.3278 21.598 14.3278H24.1524L24.1714 14.2814C24.1885 14.2395 24.5018 12.4504 24.5018 12.3944C24.5018 12.3768 23.7494 12.3708 21.5337 12.3708C18.3094 12.3708 18.4344 12.3667 18.1343 12.4842C17.829 12.6038 17.497 12.8665 17.2969 13.1466C17.1995 13.283 17.0808 13.5244 17.0448 13.6589C17.0327 13.7046 16.8495 14.715 16.6379 15.9042C16.2025 18.3515 16.2027 18.3494 16.3084 18.6604C16.4546 19.0906 16.7933 19.3802 17.2386 19.4559C17.295 19.4655 18.4308 19.4719 19.7624 19.4701C22.1799 19.4669 22.1839 19.4668 22.341 19.4222ZM30.8654 19.42C31.3636 19.2668 31.7924 18.9087 32.0174 18.4579C32.0514 18.3899 32.0942 18.288 32.1126 18.2313C32.131 18.1747 32.3195 17.1504 32.5315 15.9551C32.9606 13.5356 32.9649 13.5003 32.8729 13.2051C32.7471 12.8012 32.4463 12.5176 32.0314 12.4115C31.8773 12.3722 31.7948 12.3708 29.474 12.3708C26.8442 12.3708 26.9335 12.367 26.6242 12.4945C26.5431 12.5279 26.4196 12.5899 26.3498 12.6323C26.1912 12.7286 25.9266 12.9794 25.8072 13.1466C25.7099 13.2828 25.591 13.5245 25.5554 13.6583C25.529 13.7572 24.8011 17.873 24.7685 18.1073C24.7293 18.3886 24.7965 18.6992 24.948 18.9374C25.1204 19.2085 25.4547 19.4174 25.7897 19.4635C25.8237 19.4682 26.9457 19.4708 28.283 19.4692L30.7146 19.4664L30.8654 19.42ZM27.0008 17.4949C26.9872 17.4775 27.0692 16.9686 27.2525 15.9323C27.402 15.087 27.5301 14.3801 27.5373 14.3614C27.5493 14.3303 27.6788 14.3279 29.1221 14.3328L30.6939 14.3381L30.688 14.4143C30.672 14.6215 30.1482 17.4872 30.1235 17.5028C30.1086 17.5123 29.4044 17.5202 28.5586 17.5203C27.3525 17.5206 27.0165 17.5151 27.0008 17.4949ZM11.4148 17.6872C11.4345 17.6747 11.533 17.1591 11.7285 16.0447C11.8853 15.1514 12.0186 14.3996 12.0247 14.3741L12.0359 14.3278H13.1792H14.3224L14.3224 14.3741C14.3224 14.3996 14.228 14.9488 14.1127 15.5946C13.9398 16.5622 13.9029 16.805 13.9027 16.9748C13.9023 17.2359 13.9479 17.3519 14.1081 17.4983C14.2844 17.6594 14.3149 17.6649 15.0366 17.6649H15.661L15.6719 17.6185C15.7166 17.4283 16.383 13.5719 16.383 13.5039C16.383 13.191 16.1476 12.7768 15.8676 12.5972C15.645 12.4544 15.6333 12.4532 14.4578 12.4532C13.4676 12.4532 13.3917 12.4558 13.2399 12.4946C12.9045 12.5804 12.5508 12.8018 12.3584 13.0466C12.3007 13.12 12.2506 13.1713 12.247 13.1606C12.2434 13.1499 12.2721 12.9748 12.3107 12.7715C12.3493 12.5681 12.3767 12.3948 12.3716 12.3863C12.3666 12.3778 11.8862 12.3708 11.3041 12.3708H10.2457L10.234 12.4275C10.2275 12.4586 10.0178 13.6336 9.76789 15.0384C9.51803 16.4433 9.3089 17.6083 9.30317 17.6273C9.29715 17.6472 9.30837 17.6709 9.32971 17.6833C9.37579 17.7101 11.3727 17.7139 11.4148 17.6872ZM9.1194 13.501C9.53873 12.9113 9.88482 12.4157 9.88849 12.3998C9.89409 12.3754 9.80028 12.3708 9.29606 12.3708C8.96656 12.3708 8.69697 12.3732 8.69697 12.376C8.69697 12.3788 8.61352 12.8539 8.51152 13.4317C8.32664 14.479 8.31226 14.5757 8.34152 14.5741C8.35002 14.5737 8.70007 14.0908 9.1194 13.501ZM21.0363 11.495C21.0447 11.4874 21.9673 6.26004 21.9673 6.2203C21.9673 6.17561 20.117 6.17657 20.0998 6.22127C20.0935 6.23788 19.9514 7.02673 19.7841 7.97426C19.5878 9.08673 19.4705 9.70295 19.4531 9.7137C19.4172 9.73584 17.1842 9.73797 17.1489 9.7159C17.1268 9.70204 17.1797 9.36831 17.4219 7.99436C17.5872 7.05697 17.7224 6.26775 17.7224 6.24054V6.19107H16.7965C15.9328 6.19107 15.8699 6.19349 15.8595 6.22712C15.8533 6.24694 15.6802 7.21794 15.4747 8.38489C15.1441 10.2626 15.1025 10.5236 15.1132 10.6541C15.1437 11.0275 15.3702 11.3158 15.7174 11.423C15.8447 11.4624 15.9072 11.4645 16.9364 11.4641C18.1188 11.4637 18.1668 11.4599 18.4406 11.345C18.655 11.2549 18.8621 11.1086 19.0961 10.8818L19.3054 10.6789L19.4091 10.8914C19.5951 11.2726 19.7264 11.4006 19.9891 11.4564C20.2295 11.5075 20.9917 11.5356 21.0363 11.495ZM7.42907 11.4181C7.43482 11.3926 7.65742 10.1343 7.92374 8.62178C8.19006 7.10928 8.41289 5.85092 8.41892 5.82543L8.42988 5.77908H9.66333C10.625 5.77908 10.9015 5.77341 10.918 5.75333C10.9374 5.72986 11.2315 4.12511 11.2315 4.04289C11.2315 4.00964 11.0204 4.00755 7.65759 4.00755C5.55751 4.00755 4.07892 4.01521 4.07217 4.02612C4.04899 4.06361 3.76776 5.7174 3.7794 5.74773C3.78999 5.77532 3.93889 5.77908 5.01815 5.77908H6.24485L6.24483 5.82543C6.24482 5.85092 6.02691 7.10802 5.76059 8.61897C5.49427 10.1299 5.27637 11.3883 5.27637 11.4153V11.4645H6.34749H7.41861L7.42907 11.4181ZM13.4958 11.4329C13.9281 11.331 14.3248 10.9522 14.455 10.5169C14.4737 10.4546 14.6143 9.68985 14.7675 8.81747C15.0242 7.35633 15.0456 7.2151 15.039 7.02534C15.0303 6.77474 14.9763 6.63944 14.8183 6.4725C14.6981 6.34543 14.5654 6.26732 14.3938 6.22265C14.2121 6.17533 10.5677 6.17578 10.3661 6.22314C9.96111 6.31827 9.56376 6.66728 9.42485 7.04987C9.3628 7.22074 8.81746 10.2814 8.80487 10.5294C8.79427 10.7383 8.828 10.8948 8.91601 11.0449C9.01786 11.2186 9.25803 11.3959 9.45416 11.4421C9.49671 11.4521 10.3939 11.4611 11.4479 11.4621C13.0867 11.4636 13.3833 11.4594 13.4958 11.4329ZM10.8417 9.71518C10.8171 9.69949 10.8367 9.55825 10.9653 8.82442L11.1182 7.95231L12.0648 7.94694C12.5855 7.944 13.0179 7.94863 13.0259 7.95724C13.0338 7.96586 12.9718 8.3576 12.8881 8.82777C12.775 9.4634 12.7274 9.68896 12.7025 9.70727C12.6618 9.73731 10.8882 9.74485 10.8417 9.71518ZM26.2337 11.4593C26.4153 10.4555 26.5319 9.76122 26.5209 9.7485C26.5131 9.7394 25.9234 9.73239 25.2106 9.73292C24.4927 9.73345 23.9018 9.72576 23.8861 9.71566C23.8625 9.70057 23.883 9.5533 24.0061 8.85577C24.0878 8.39286 24.1592 7.99788 24.1647 7.97805C24.1743 7.94418 24.2582 7.94201 25.5546 7.94201H26.9342L26.9541 7.89566C26.9802 7.83451 27.2612 6.22649 27.2493 6.20652C27.2442 6.19802 26.4083 6.19121 25.3918 6.19137C23.3227 6.19171 23.4116 6.18591 23.1133 6.34015C22.8185 6.49254 22.5386 6.81799 22.4441 7.11804C22.4008 7.25568 21.8436 10.4685 21.8436 10.5808C21.8436 10.9841 22.1017 11.3303 22.4802 11.4346C22.5534 11.4548 22.9934 11.4612 24.4039 11.4626C25.4098 11.4636 26.2332 11.4622 26.2337 11.4593ZM29.29 11.4284C29.2957 11.4086 29.4264 10.6693 29.5805 9.78564C29.7346 8.90193 29.8695 8.15804 29.8802 8.13255L29.8997 8.0862H30.9383C31.745 8.0862 31.9811 8.09195 31.9962 8.11195C32.0089 8.12881 31.9676 8.408 31.8764 8.92047C31.5989 10.4808 31.5641 10.703 31.5781 10.825C31.6089 11.0943 31.7243 11.2718 31.9362 11.3758L32.0539 11.4336L32.6148 11.4399L33.1756 11.4463L33.1863 11.3987C33.1921 11.3726 33.3602 10.4242 33.5597 9.29126C33.897 7.37655 33.9219 7.21786 33.9132 7.04019C33.905 6.87201 33.8948 6.83077 33.8286 6.69677C33.7058 6.4484 33.4876 6.28546 33.2093 6.23419C33.0119 6.19784 31.2046 6.20461 31.0263 6.24237C30.7384 6.30335 30.4258 6.50535 30.2428 6.74869C30.1901 6.8188 30.1386 6.89111 30.1284 6.90938C30.1181 6.92765 30.1045 6.93737 30.0982 6.93099C30.0918 6.9246 30.193 6.31428 30.3232 5.57471C30.4534 4.83515 30.5547 4.2217 30.5484 4.21149C30.5343 4.18858 28.6089 4.18634 28.5948 4.20922C28.5808 4.23183 27.3249 11.3617 27.3249 11.4185V11.4645H28.3023C29.2154 11.4645 29.2803 11.4621 29.29 11.4284Z" fill="#292C69"/>
</svg>
