<svg width="36" height="24" viewBox="0 0 36 24" fill="currentBackgroundColor" xmlns="http://www.w3.org/2000/svg">
<path d="M7.55398 1H15.9074C17.0734 1 17.7987 1.99879 17.5267 3.22824L13.6376 20.7752C13.3631 22.0003 12.1956 23 11.0287 23H2.67617C1.51174 23 0.78486 22.0003 1.05688 20.7752L4.94761 3.22824C5.21963 1.99879 6.3865 1 7.55398 1Z" fill="#DD2423"/>
<path d="M15.2128 1H24.8189C25.9848 1 25.4591 1.99879 25.1848 3.22824L21.2963 20.7752C21.0235 22.0003 21.1086 23 19.9403 23H10.3341C9.16583 23 8.44282 22.0003 8.71729 20.7752L12.6056 3.22824C12.8817 1.99879 14.0461 1 15.2128 1Z" fill="#16315E"/>
<path d="M24.4376 1H32.791C33.9587 1 34.6839 1.99879 34.4097 3.22824L30.5212 20.7752C30.2467 22.0003 29.0784 23 27.9109 23H19.5614C18.3931 23 17.6685 22.0003 17.9421 20.7752L21.8312 3.22824C22.1032 1.99879 23.2693 1 24.4376 1Z" fill="#036862"/>
<path d="M9.73556 6.62333C8.87654 6.63253 8.62285 6.62333 8.54181 6.60322C8.51066 6.75877 7.93099 9.56878 7.92936 9.57114C7.80455 10.1396 7.71374 10.5449 7.40527 10.8066C7.23017 10.9587 7.02575 11.0321 6.78875 11.0321C6.4078 11.0321 6.18587 10.8333 6.14861 10.4563L6.14148 10.3269C6.14148 10.3269 6.25754 9.56536 6.25754 9.56108C6.25754 9.56108 6.86592 7.00034 6.97485 6.66184C6.98055 6.64259 6.98218 6.63253 6.9836 6.62333C5.79942 6.63424 5.58951 6.62333 5.57505 6.60322C5.56711 6.63082 5.53779 6.78958 5.53779 6.78958L4.91658 9.67577L4.86324 9.92055L4.76001 10.7212C4.76001 10.9587 4.8044 11.1526 4.89276 11.3165C5.17578 11.8362 5.98308 11.9141 6.43977 11.9141C7.02819 11.9141 7.58017 11.7827 7.95318 11.5428C8.60065 11.1408 8.77005 10.5124 8.92113 9.95392L8.99117 9.66742C8.99117 9.66742 9.61787 7.00783 9.72436 6.66184C9.72843 6.64259 9.73006 6.63253 9.73556 6.62333ZM11.8679 8.76885C11.7168 8.76885 11.4407 8.80737 11.1927 8.9351C11.1027 8.98367 11.0176 9.03973 10.9278 9.09558L11.0089 8.78811L10.9645 8.73633C10.4386 8.84823 10.3209 8.86321 9.83506 8.9351L9.79434 8.96356C9.73794 9.45504 9.68785 9.82456 9.47875 10.7906C9.39914 11.1467 9.31647 11.5061 9.23361 11.8613L9.256 11.9064C9.75382 11.8788 9.9049 11.8788 10.3376 11.8863L10.3726 11.8463C10.4276 11.5504 10.4347 11.4811 10.5564 10.8818C10.6137 10.5976 10.733 9.97327 10.7918 9.75096C10.8999 9.69832 11.0066 9.64654 11.1084 9.64654C11.3509 9.64654 11.3214 9.86885 11.312 9.95743C11.3016 10.1061 11.2133 10.5918 11.1227 11.0089L11.0622 11.278C11.0201 11.4768 10.9738 11.67 10.9317 11.8671L10.95 11.9064C11.4407 11.8788 11.5904 11.8788 12.0094 11.8863L12.0587 11.8463C12.1344 11.3842 12.1566 11.2605 12.291 10.5876L12.3586 10.2784C12.4899 9.67329 12.5559 9.36646 12.4565 9.11655C12.3514 8.83646 12.0994 8.76885 11.8679 8.76885ZM14.2499 9.40238C13.9891 9.45502 13.8227 9.49011 13.6574 9.51279C13.4935 9.54039 13.3337 9.56543 13.0816 9.60223L13.0617 9.62127L13.0433 9.63646C13.0171 9.83374 12.9988 10.0043 12.9639 10.2048C12.9344 10.4121 12.889 10.6477 12.8151 10.9862C12.7579 11.2453 12.7284 11.3356 12.6958 11.4267C12.664 11.5179 12.629 11.6064 12.5647 11.8613L12.5797 11.8848L12.5924 11.9064C12.8279 11.8947 12.9821 11.8863 13.1405 11.8848C13.2987 11.8788 13.4626 11.8848 13.7163 11.8863L13.7385 11.8673L13.7623 11.8463C13.7989 11.6165 13.8044 11.5547 13.8268 11.4425C13.849 11.3223 13.8873 11.1558 13.9812 10.7112C14.0255 10.5024 14.075 10.2942 14.121 10.0811C14.1689 9.86883 14.219 9.65978 14.2666 9.45095L14.2595 9.42571L14.2499 9.40238ZM14.2555 8.54819C14.0185 8.40119 13.6025 8.44784 13.3225 8.65089C13.0434 8.84988 13.0116 9.13232 13.2478 9.28124C13.4808 9.42417 13.8983 9.38159 14.1759 9.17682C14.4544 8.97355 14.4892 8.69368 14.2555 8.54819ZM15.6888 11.9525C16.1683 11.9525 16.6598 11.8136 17.0297 11.4015C17.3144 11.0673 17.4449 10.5701 17.4901 10.3653C17.6373 9.68659 17.5227 9.36971 17.3787 9.17671C17.16 8.88251 16.7736 8.78815 16.3727 8.78815C16.1316 8.78815 15.5574 8.81318 15.1089 9.24775C14.7868 9.56121 14.638 9.98657 14.5482 10.3944C14.4576 10.8099 14.3533 11.5579 15.0079 11.8363C15.2099 11.9275 15.501 11.9525 15.6888 11.9525ZM15.6513 10.4254C15.7619 9.91147 15.8924 9.48012 16.2255 9.48012C16.4865 9.48012 16.5054 9.80107 16.3894 10.3167C16.3686 10.4312 16.2733 10.8568 16.1444 11.038C16.0544 11.1717 15.948 11.2528 15.8303 11.2528C15.7953 11.2528 15.587 11.2528 15.5837 10.9278C15.5821 10.7673 15.6132 10.6034 15.6513 10.4254ZM18.6887 11.8864L18.7262 11.8464C18.7793 11.5505 18.7881 11.4809 18.9058 10.8818C18.9646 10.5977 19.0864 9.97333 19.1436 9.75102C19.2519 9.69817 19.3568 9.64639 19.4618 9.64639C19.7027 9.64639 19.6734 9.8687 19.6638 9.95728C19.655 10.1062 19.5667 10.5917 19.4744 11.0087L19.4172 11.2779C19.3734 11.4769 19.3258 11.6699 19.2837 11.8671L19.302 11.9065C19.7943 11.8789 19.9383 11.8789 20.3597 11.8864L20.4106 11.8464C20.4845 11.384 20.5045 11.2603 20.6429 10.5876L20.7089 10.2782C20.8408 9.67314 20.9076 9.36652 20.8099 9.11661C20.7018 8.83653 20.4481 8.76892 20.2198 8.76892C20.0686 8.76892 19.791 8.80722 19.5445 8.93517C19.4563 8.98374 19.368 9.03958 19.2812 9.09564L19.3568 8.78817L19.3162 8.73618C18.7905 8.8483 18.6704 8.86327 18.1852 8.93517L18.1479 8.96362C18.0891 9.4551 18.0412 9.82441 17.8321 10.7907C17.7525 11.1467 17.6699 11.5062 17.5872 11.8614L17.6094 11.9065C18.108 11.8789 18.2569 11.8789 18.6887 11.8864ZM22.3059 11.9064C22.3369 11.7476 22.5207 10.8066 22.5223 10.8066C22.5223 10.8066 22.6789 10.1162 22.6885 10.0911C22.6885 10.0911 22.7378 10.0192 22.787 9.99077H22.8595C23.5434 9.99077 24.3157 9.99077 24.921 9.52282C25.3329 9.20188 25.6145 8.72794 25.7401 8.15194C25.7727 8.01073 25.7967 7.84276 25.7967 7.6748C25.7967 7.4542 25.7546 7.23596 25.6328 7.06542C25.3242 6.6116 24.7095 6.60326 23.9999 6.59983C23.9977 6.59983 23.6501 6.60326 23.6501 6.60326C22.7418 6.61503 22.3776 6.6116 22.2279 6.59235C22.2153 6.66189 22.1915 6.78556 22.1915 6.78556C22.1915 6.78556 21.8661 8.37019 21.8661 8.37276C21.8661 8.37276 21.0875 11.7419 21.0509 11.9006C21.8439 11.8906 22.1691 11.8906 22.3059 11.9064ZM22.9088 9.09147C22.9088 9.09147 23.2547 7.51005 23.2531 7.51604L23.2643 7.43494L23.2692 7.37311L23.4074 7.38809C23.4074 7.38809 24.1209 7.45249 24.1376 7.4542C24.4191 7.56867 24.5352 7.86373 24.4542 8.24887C24.3803 8.60085 24.163 8.89676 23.8839 9.03969C23.654 9.16079 23.3724 9.17085 23.0823 9.17085H22.8945L22.9088 9.09147ZM25.0626 10.4547C24.9712 10.8642 24.8661 11.6123 25.5175 11.8789C25.7252 11.9717 25.9113 11.9993 26.1004 11.9893C26.3001 11.9779 26.4852 11.8727 26.6567 11.7212C26.6412 11.7834 26.6257 11.8457 26.6102 11.9082L26.6398 11.9482C27.1083 11.9274 27.2536 11.9274 27.7612 11.9315L27.8072 11.8947C27.8814 11.4368 27.9512 10.9922 28.1438 10.1162C28.2377 9.69663 28.3313 9.28111 28.4276 8.86323L28.4126 8.81723C27.8885 8.91929 27.7484 8.94112 27.2443 9.01622L27.206 9.04895C27.2009 9.09153 27.1956 9.1324 27.1907 9.17327C27.1123 9.04018 26.9987 8.92657 26.8234 8.85574C26.5992 8.7631 26.0727 8.88249 25.6201 9.31556C25.3021 9.62474 25.1494 10.0484 25.0626 10.4547ZM26.1633 10.4797C26.2755 9.975 26.4044 9.54792 26.7383 9.54792C26.9494 9.54792 27.0606 9.75269 27.038 10.1019C27.0201 10.189 27.0008 10.2808 26.9777 10.3845C26.9444 10.5345 26.9081 10.6832 26.8729 10.8321C26.8371 10.934 26.7953 11.0301 26.7495 11.094C26.6636 11.222 26.4592 11.3014 26.3415 11.3014C26.3081 11.3014 26.102 11.3014 26.0949 10.9821C26.0933 10.8232 26.1244 10.6595 26.1633 10.4797ZM31.9113 8.81314L31.8707 8.76457C31.3521 8.87498 31.2583 8.89252 30.7818 8.96014L30.7468 8.99694C30.7452 9.00293 30.7438 9.01213 30.7413 9.02048L30.7397 9.01213C30.385 9.87206 30.3954 9.68655 30.1067 10.3635C30.1051 10.3327 30.1051 10.3135 30.1034 10.2807L30.0311 8.81314L29.9857 8.76457C29.4425 8.87498 29.4297 8.89252 28.928 8.96014L28.8889 8.99694C28.8834 9.01448 28.8834 9.03374 28.8802 9.05471L28.8834 9.0622C28.9461 9.39898 28.9311 9.32388 28.994 9.85537C29.0233 10.1162 29.0624 10.3785 29.0917 10.6361C29.1412 11.0673 29.1689 11.2795 29.2293 11.9375C28.8905 12.525 28.8103 12.7473 28.4841 13.263L28.4864 13.2681L28.2567 13.6498C28.2304 13.6901 28.2066 13.7177 28.1732 13.7294C28.1366 13.7485 28.0889 13.7519 28.0228 13.7519H27.8955L27.7064 14.4131L28.3553 14.4248C28.7362 14.4231 28.9756 14.2359 29.1045 13.9843L29.5126 13.2495H29.506L29.549 13.1977C29.8235 12.5768 31.9113 8.81314 31.9113 8.81314ZM25.0626 17.4964H24.7873L25.8062 13.9551H26.1442L26.2515 13.5903L26.2618 13.9959C26.2492 14.2467 26.437 14.469 26.9301 14.4322H27.5004L27.6967 13.7503H27.4821C27.3587 13.7503 27.3015 13.7176 27.3086 13.6474L27.2982 13.2346H26.2421V13.2368C25.9006 13.2443 24.881 13.2712 24.6745 13.329C24.4247 13.3966 24.1614 13.5956 24.1614 13.5956L24.2649 13.2304H23.277L23.0711 13.9551L22.0386 17.5506H21.8383L21.6418 18.2275H23.6095L23.5435 18.4533H24.5131L24.5774 18.2275H24.8494L25.0626 17.4964ZM24.2553 14.6746C24.0971 14.7206 23.8027 14.8601 23.8027 14.8601L24.0645 13.9551H24.8494L24.6601 14.6145C24.6601 14.6145 24.4176 14.6295 24.2553 14.6746ZM24.2704 15.9676C24.2704 15.9676 24.0238 16.0002 23.8615 16.0387C23.7017 16.0896 23.402 16.2501 23.402 16.2501L23.6724 15.3082H24.4613L24.2704 15.9676ZM23.8306 17.5048H23.0432L23.2715 16.7099H24.0564L23.8306 17.5048ZM25.7267 15.3082H26.8616L26.6985 15.8632H25.5485L25.3759 16.47H26.3821L25.6202 17.5974C25.5669 17.6802 25.519 17.7095 25.4659 17.7329C25.4125 17.7613 25.3425 17.7947 25.2614 17.7947H24.9823L24.7905 18.4593H25.5206C25.9002 18.4593 26.1243 18.2778 26.2899 18.0397L26.8123 17.2882L26.9245 18.0512C26.9483 18.1942 27.0461 18.2778 27.1122 18.3103C27.1853 18.3489 27.2609 18.415 27.3676 18.4248C27.482 18.43 27.5646 18.434 27.6196 18.434H27.9784L28.1938 17.6903H28.0523C27.971 17.6903 27.8312 17.6759 27.8073 17.6492C27.7835 17.6167 27.7835 17.5666 27.7707 17.4904L27.6569 16.7257H27.1908L27.3952 16.47H28.543L28.7195 15.8632H27.6569L27.8224 15.3082H28.8818L29.0783 14.6237H25.9199L25.7267 15.3082ZM16.1412 17.6593L16.4061 16.7333H17.4948L17.6937 16.0445H16.604L16.7704 15.4745H17.8352L18.0325 14.8076H15.3681L15.1749 15.4745H15.7802L15.6188 16.0445H15.0118L14.8107 16.745H15.4158L15.0627 17.9702C15.0151 18.1324 15.0851 18.1942 15.1295 18.2695C15.1749 18.3429 15.2209 18.3915 15.3244 18.4191C15.431 18.4441 15.5041 18.4591 15.6035 18.4591H16.8308L17.0495 17.6961L16.5055 17.7746C16.4004 17.7746 16.1095 17.7614 16.1412 17.6593ZM16.2661 13.2262L15.9902 13.7502C15.9312 13.8647 15.878 13.9357 15.8302 13.9684C15.788 13.996 15.7045 14.0076 15.5836 14.0076H15.4397L15.2472 14.678H15.7253C15.9552 14.678 16.1317 14.5894 16.216 14.5451C16.3066 14.4942 16.3304 14.5233 16.4005 14.4522L16.5619 14.3052H18.0548L18.2529 13.6073H17.1601L17.3509 13.2262H16.2661ZM18.47 17.6728C18.4446 17.6343 18.4629 17.5664 18.5018 17.4252L18.9098 16.006H20.3613C20.5729 16.0028 20.7256 16.0002 20.8249 15.9927C20.9316 15.9809 21.0477 15.9409 21.1741 15.869C21.3046 15.7937 21.3714 15.7143 21.4278 15.6232C21.4907 15.5323 21.5917 15.3333 21.6785 15.0264L22.1914 13.2304L20.6851 13.2396C20.6851 13.2396 20.2212 13.3115 20.017 13.3909C19.811 13.4795 19.5166 13.7268 19.5166 13.7268L19.6526 13.2345H18.7221L17.4194 17.7746C17.3732 17.9509 17.3422 18.0789 17.3351 18.1557C17.3327 18.2385 17.4345 18.3204 17.5004 18.3823C17.5784 18.4441 17.6937 18.4341 17.8042 18.4441C17.9205 18.4533 18.0858 18.4591 18.3141 18.4591H19.0291L19.2486 17.6803L18.6085 17.7438C18.5401 17.7438 18.4906 17.7053 18.47 17.6728ZM19.1731 15.0474H20.6977L20.6008 15.3666C20.5871 15.3741 20.5546 15.3508 20.3994 15.3701H19.0792L19.1731 15.0474ZM19.4785 13.9767H21.0159L20.9054 14.3612C20.9054 14.3612 20.1807 14.3537 20.0647 14.3762C19.554 14.4691 19.2557 14.7558 19.2557 14.7558L19.4785 13.9767ZM20.6349 16.4357C20.6223 16.4834 20.6023 16.5125 20.5744 16.5343C20.5435 16.5553 20.4934 16.5628 20.4187 16.5628H20.2014L20.2142 16.174H19.3106L19.274 18.0747C19.2726 18.2118 19.2852 18.2912 19.3807 18.3547C19.4762 18.4341 19.7704 18.4442 20.1664 18.4442H20.7326L20.937 17.7327L20.4441 17.7612L20.2802 17.7713C20.2578 17.7612 20.2364 17.752 20.2126 17.727C20.1918 17.7054 20.1568 17.7186 20.1625 17.5815L20.1664 17.0943L20.6834 17.0718C20.9625 17.0718 21.0818 16.9764 21.1836 16.8854C21.2807 16.7984 21.3125 16.6982 21.3492 16.5628L21.4359 16.1314H20.7255L20.6349 16.4357Z" fill="#FEFEFE"/>
</svg>
