<svg width="65" height="24" viewBox="0 0 65 24" fill="currentBackgroundColor" xmlns="http://www.w3.org/2000/svg">
<path d="M4.63912 19.1816H5.06299L4.66912 20.8268C4.61066 21.0708 4.62168 21.2546 4.70247 21.3772C4.78296 21.4999 4.93277 21.5613 5.15174 21.5613C5.36934 21.5613 5.54776 21.4999 5.68717 21.3772C5.82672 21.2546 5.92573 21.0708 5.98418 20.8268L6.3779 19.1816H6.80728L6.40376 20.8675C6.31608 21.2338 6.15985 21.508 5.93613 21.6898C5.71226 21.8719 5.41877 21.9628 5.05565 21.9628C4.69222 21.9628 4.44295 21.8721 4.30722 21.6907C4.17134 21.5095 4.14762 21.235 4.23561 20.8675L4.63912 19.1816Z" fill="#696A6A"/>
<path d="M6.75034 21.8908L7.42455 19.0744L8.70564 20.7305C8.73992 20.7772 8.7745 20.8273 8.80863 20.8804C8.84275 20.9335 8.87764 20.9931 8.91345 21.0598L9.36318 19.1817H9.75996L9.08621 21.9959L7.77818 20.3102C7.74314 20.2647 7.71054 20.2167 7.68009 20.1661C7.64934 20.1154 7.62164 20.0623 7.59624 20.0069L7.14528 21.8908H6.75034Z" fill="#696A6A"/>
<path d="M9.72482 21.8907L10.3733 19.1817H10.8024L10.154 21.8907H9.72482Z" fill="#696A6A"/>
<path d="M10.771 21.8907L11.4195 19.1817H12.8931L12.8036 19.5553H11.7592L11.5975 20.2308H12.6419L12.5494 20.6175H11.5049L11.2003 21.8907H10.771Z" fill="#696A6A"/>
<path d="M12.7174 21.8907L13.3659 19.1817H13.795L13.1467 21.8907H12.7174Z" fill="#696A6A"/>
<path d="M13.7636 21.8907L14.4121 19.1817H15.8857L15.7962 19.5553H14.7518L14.5892 20.2344H15.6335L15.5411 20.6213H14.4967L14.2871 21.4966H15.3315L15.2372 21.8907H13.7636Z" fill="#696A6A"/>
<path d="M16.2542 21.4928H16.6151C16.8134 21.4928 16.9655 21.4792 17.0712 21.4521C17.177 21.425 17.274 21.3793 17.3629 21.3151C17.4836 21.2278 17.5844 21.1188 17.6655 20.9886C17.7465 20.8585 17.8079 20.7069 17.8492 20.5341C17.8903 20.3614 17.9017 20.2102 17.883 20.0803C17.8642 19.9499 17.8155 19.8411 17.7367 19.7534C17.6775 19.6894 17.5993 19.6435 17.5017 19.6163C17.4039 19.5894 17.2447 19.5757 17.0235 19.5757H16.8683H16.7131L16.2542 21.4928ZM15.7298 21.8908L16.3783 19.1816H16.9572C17.3336 19.1816 17.5938 19.2008 17.7379 19.2397C17.8818 19.2787 18.0007 19.3439 18.0942 19.4351C18.2183 19.5548 18.2972 19.7084 18.3312 19.8957C18.365 20.0833 18.3531 20.2974 18.2955 20.5379C18.238 20.7785 18.1476 20.9917 18.0242 21.1773C17.9012 21.363 17.7486 21.5162 17.5672 21.6371C17.4299 21.7285 17.2827 21.7935 17.1263 21.8325C16.9695 21.8712 16.7356 21.8908 16.4241 21.8908H16.3086H15.7298Z" fill="#696A6A"/>
<path d="M20.3855 20.3142H20.4957C20.7336 20.3142 20.8988 20.2875 20.9909 20.2345C21.0831 20.1816 21.1451 20.0878 21.1773 19.9533C21.2118 19.809 21.1939 19.707 21.1232 19.648C21.0525 19.5888 20.9038 19.5589 20.6766 19.5589H20.5664L20.3855 20.3142ZM20.2721 20.6747L19.9811 21.8908H19.5789L20.2276 19.1817H20.8769C21.0692 19.1817 21.2083 19.1924 21.294 19.214C21.3794 19.2354 21.4499 19.2711 21.5056 19.3205C21.5734 19.3834 21.618 19.4682 21.6394 19.5748C21.6607 19.6816 21.6561 19.7992 21.6255 19.9272C21.5945 20.0556 21.5428 20.1741 21.47 20.2827C21.3971 20.3912 21.3118 20.4764 21.2141 20.5379C21.1349 20.5874 21.0475 20.6226 20.9517 20.6434C20.8558 20.6645 20.7118 20.6747 20.5194 20.6747H20.4348H20.2721Z" fill="#696A6A"/>
<path d="M22.1554 20.8268H22.8912L22.7684 20.2086C22.7625 20.1693 22.757 20.124 22.7523 20.0727C22.7479 20.0214 22.7448 19.9644 22.7428 19.9015C22.7143 19.9607 22.6857 20.0159 22.6571 20.0672C22.6287 20.1183 22.601 20.1654 22.5737 20.2086L22.1554 20.8268ZM23.0876 21.8907L22.9549 21.1931H21.9087L21.4351 21.8907H20.9844L22.9371 19.0744L23.5402 21.8907H23.0876Z" fill="#696A6A"/>
<path d="M24.1554 21.8907L24.4519 20.6508L23.9145 19.1817H24.3655L24.6991 20.1013C24.7067 20.1249 24.7159 20.1556 24.7265 20.1939C24.7372 20.2321 24.7476 20.2733 24.7574 20.3178C24.7843 20.2747 24.812 20.2337 24.8397 20.1956C24.8674 20.1573 24.8954 20.1223 24.9237 20.0901L25.7092 19.1817H26.1385L24.8776 20.6508L24.5809 21.8907H24.1554Z" fill="#696A6A"/>
<path d="M28.2509 20.5527C28.251 20.5318 28.2572 20.4739 28.2691 20.3789C28.2783 20.2999 28.2855 20.2344 28.2907 20.1826C28.2651 20.2444 28.235 20.3062 28.2004 20.3677C28.1657 20.4294 28.1259 20.4923 28.0804 20.5565L27.044 22L26.7058 20.527C26.6915 20.4664 26.6804 20.4078 26.6731 20.3512C26.6657 20.2944 26.6607 20.2383 26.6582 20.1826C26.6436 20.2395 26.6249 20.2989 26.6021 20.3613C26.5793 20.4236 26.552 20.4888 26.5201 20.5565L25.9175 21.8907H25.5227L26.8226 19.0667L27.1926 20.7767C27.198 20.8038 27.2058 20.849 27.2152 20.9119C27.2247 20.9748 27.2359 21.0525 27.2489 21.1449C27.2927 21.0672 27.3557 20.9686 27.4387 20.849C27.4607 20.8168 27.4775 20.7922 27.4888 20.7749L28.659 19.0667L28.6215 21.8907H28.2227L28.2509 20.5527Z" fill="#696A6A"/>
<path d="M28.9642 21.8907L29.6129 19.1817H31.0865L30.997 19.5553H29.9524L29.7899 20.2344H30.8343L30.7419 20.6213H29.6974L29.4879 21.4966H30.5322L30.4377 21.8907H28.9642Z" fill="#696A6A"/>
<path d="M30.9304 21.8908L31.6046 19.0744L32.8857 20.7305C32.92 20.7772 32.9546 20.8273 32.9887 20.8804C33.0228 20.9335 33.0577 20.9931 33.0935 21.0598L33.5433 19.1817H33.9402L33.2663 21.9959L31.9583 20.3102C31.9232 20.2647 31.8906 20.2167 31.8602 20.1661C31.8294 20.1154 31.8017 20.0623 31.7763 20.0069L31.3254 21.8908H30.9304Z" fill="#696A6A"/>
<path d="M35.3098 19.5554L34.7508 21.8908H34.3215L34.8804 19.5554H34.1788L34.2683 19.1817H36.0972L36.0078 19.5554H35.3098Z" fill="#696A6A"/>
<path d="M35.7552 21.3485L36.1369 21.1858C36.1407 21.3066 36.178 21.3988 36.2493 21.4623C36.3206 21.526 36.4236 21.5577 36.5586 21.5577C36.6859 21.5577 36.7961 21.5212 36.8885 21.4484C36.9811 21.3757 37.0421 21.2782 37.0714 21.1561C37.1095 20.9968 37.0144 20.855 36.7872 20.7306C36.7554 20.7121 36.7309 20.6984 36.7141 20.6897C36.4577 20.5442 36.2952 20.4124 36.2267 20.2946C36.1583 20.1768 36.1442 20.0328 36.1849 19.8626C36.2377 19.6418 36.3537 19.463 36.5326 19.326C36.7115 19.189 36.9193 19.1205 37.1563 19.1205C37.3511 19.1205 37.5049 19.159 37.6173 19.2362C37.73 19.3134 37.7942 19.4241 37.8101 19.5684L37.4323 19.746C37.3996 19.661 37.3564 19.5987 37.3029 19.559C37.2492 19.5196 37.1812 19.4998 37.0997 19.4998C36.9843 19.4998 36.8851 19.5309 36.8023 19.5923C36.72 19.6541 36.666 19.7367 36.6411 19.8405C36.6022 20.0033 36.715 20.1549 36.9795 20.2955C36.9999 20.3066 37.0158 20.3154 37.0273 20.3216C37.2588 20.4447 37.4094 20.5655 37.4784 20.6833C37.5476 20.8013 37.5612 20.9483 37.5188 21.1246C37.4574 21.3814 37.33 21.5852 37.1362 21.7362C36.9425 21.8873 36.7115 21.9629 36.4435 21.9629C36.2184 21.9629 36.0469 21.9099 35.9287 21.8037C35.8103 21.6977 35.7525 21.546 35.7552 21.3485Z" fill="#696A6A"/>
<path d="M38.9265 21.8907L39.575 19.1817H40.0042L39.3557 21.8907H38.9265Z" fill="#696A6A"/>
<path d="M39.9727 21.8908L40.6469 19.0744L41.928 20.7305C41.9623 20.7772 41.9969 20.8273 42.031 20.8804C42.0651 20.9335 42.1 20.9931 42.1358 21.0598L42.5856 19.1817H42.9823L42.3086 21.9959L41.0006 20.3102C40.9655 20.2647 40.9328 20.2167 40.9023 20.1661C40.8717 20.1154 40.8439 20.0623 40.8185 20.0069L40.3677 21.8908H39.9727Z" fill="#696A6A"/>
<path d="M44.3521 19.5554L43.7929 21.8908H43.3638L43.9227 19.5554H43.2211L43.3106 19.1817H45.1395L45.0501 19.5554H44.3521Z" fill="#696A6A"/>
<path d="M44.8193 21.8907L45.4678 19.1817H46.9414L46.8521 19.5553H45.8077L45.645 20.2344H46.6894L46.5968 20.6213H45.5525L45.343 21.4966H46.3873L46.2929 21.8907H44.8193Z" fill="#696A6A"/>
<path d="M47.5868 20.3362H47.6646C47.8917 20.3362 48.0491 20.3092 48.1366 20.2549C48.2242 20.2006 48.2848 20.1045 48.3175 19.9662C48.3533 19.817 48.3386 19.7117 48.273 19.6508C48.2079 19.5894 48.067 19.559 47.8506 19.559H47.7729L47.5868 20.3362ZM47.4779 20.6785L47.1876 21.8907H46.7855L47.4341 19.1816H48.0329C48.2084 19.1816 48.3418 19.1933 48.4329 19.2168C48.5241 19.2402 48.5975 19.2789 48.6531 19.3334C48.7192 19.3986 48.762 19.4834 48.7819 19.587C48.8014 19.6904 48.7963 19.804 48.7669 19.9271C48.7151 20.1443 48.6232 20.3143 48.4916 20.4372C48.3601 20.5597 48.1914 20.6336 47.9859 20.6581L48.6001 21.8907H48.1148L47.5265 20.6785H47.4779Z" fill="#696A6A"/>
<path d="M48.8545 21.8907L49.503 19.1817H50.9766L50.8872 19.5553H49.8427L49.681 20.2308H50.7255L50.6329 20.6175H49.5885L49.2837 21.8907H48.8545Z" fill="#696A6A"/>
<path d="M51.4741 20.8268H52.2101L52.0872 20.2086C52.0813 20.1693 52.0759 20.124 52.0712 20.0727C52.0667 20.0214 52.0637 19.9644 52.0617 19.9015C52.0331 19.9607 52.0045 20.0159 51.976 20.0672C51.9475 20.1183 51.9197 20.1654 51.8924 20.2086L51.4741 20.8268ZM52.4064 21.8907L52.2738 21.1931H51.2276L50.754 21.8907H50.3032L52.2559 19.0744L52.8591 21.8907H52.4064Z" fill="#696A6A"/>
<path d="M55.6532 19.8404C55.5572 19.7343 55.448 19.6547 55.3253 19.6016C55.2028 19.5489 55.067 19.5221 54.9178 19.5221C54.6293 19.5221 54.3716 19.6171 54.1453 19.807C53.9187 19.9971 53.7693 20.2431 53.697 20.5455C53.627 20.8379 53.6575 21.0789 53.7882 21.2688C53.9188 21.4589 54.1184 21.554 54.3863 21.554C54.5429 21.554 54.6983 21.5256 54.8532 21.4688C55.0081 21.412 55.1643 21.3264 55.3214 21.2114L55.2022 21.7094C55.0665 21.7944 54.9256 21.8581 54.7797 21.8999C54.6338 21.9418 54.4815 21.9628 54.3228 21.9628C54.1208 21.9628 53.9421 21.929 53.7871 21.861C53.6319 21.7932 53.5051 21.6935 53.407 21.5612C53.3094 21.4318 53.2468 21.2792 53.22 21.1032C53.1928 20.9276 53.203 20.7403 53.2504 20.5415C53.298 20.343 53.3775 20.1565 53.4884 19.9819C53.5992 19.8073 53.7361 19.654 53.8986 19.5221C54.0618 19.3888 54.2362 19.2881 54.422 19.2194C54.6079 19.1512 54.7996 19.1167 54.9969 19.1167C55.152 19.1167 55.2944 19.14 55.424 19.1863C55.5536 19.2324 55.6732 19.3023 55.7833 19.3964L55.6532 19.8404Z" fill="#696A6A"/>
<path d="M55.6948 21.8907L56.3433 19.1817H57.8169L57.7273 19.5553H56.6831L56.5205 20.2344H57.5648L57.4723 20.6213H56.4279L56.2184 21.4966H57.2628L57.1684 21.8907H55.6948Z" fill="#696A6A"/>
<path d="M47.8656 16.8209H44.9149L49.0186 2.00001H51.9694L47.8656 16.8209Z" fill="#66686C"/>
<path d="M46.3337 2.46856C46.1291 2.18655 45.8136 2.04424 45.385 2.04424H29.1592L28.3555 4.94705H31.3079V4.94537H43.1164L42.2574 8.04742H30.4486L30.4496 8.04099H27.4985L25.049 16.8836H28.0017L29.6455 10.9485H42.9195C43.334 10.9485 43.7242 10.8072 44.0912 10.5244C44.4574 10.2413 44.6984 9.89224 44.8139 9.47541L46.4575 3.5391C46.5775 3.10835 46.536 2.75089 46.3337 2.46856Z" fill="#66686C"/>
<path d="M23.3296 15.8957C23.1666 16.4826 22.6323 16.8885 22.0231 16.8885H6.79887C6.38403 16.8885 6.07569 16.7471 5.87294 16.4647C5.67034 16.1819 5.62688 15.8321 5.74272 15.4154L9.45747 2.0433H12.4109L9.09297 13.9866H20.9071L24.2251 2.0433H27.1779L23.3296 15.8957Z" fill="#66686C"/>
<path d="M57.0657 2.02774L60.8015 9.45738L52.9482 16.885L57.0657 2.02774Z" fill="#27803B"/>
<path d="M54.4468 2.02774L58.1799 9.45738L50.3234 16.885L54.4468 2.02774Z" fill="#E9661C"/>
</svg>
