<svg width="40" height="24" viewBox="0 0 40 24" fill="currentBackgroundColor" xmlns="http://www.w3.org/2000/svg">
<path fill-rule="evenodd" clip-rule="evenodd" d="M26.6002 10.3624C26.6002 12.8292 26.0365 14.6676 24.9096 15.8656C23.7825 17.0633 22.0411 17.6622 19.6936 17.6622C17.5002 17.6622 15.8362 17.0633 14.7017 15.8656C13.5666 14.6679 12.9998 12.8614 12.9998 10.4465V2.34418C13 2.25297 13.0363 2.16555 13.1008 2.10106C13.1653 2.03656 13.2527 2.00022 13.3439 2H17.3212C17.4123 2.00037 17.4997 2.03675 17.5641 2.10122C17.6286 2.16569 17.665 2.25301 17.6653 2.34418V10.6236C17.6653 11.6096 17.8478 12.3685 18.2192 12.9039C18.4971 13.2725 18.8935 13.5341 19.3416 13.6449C19.7897 13.7557 20.2623 13.7088 20.68 13.5121C20.9569 13.3819 21.2003 13.1901 21.3919 12.9515C21.755 12.4493 21.9358 11.7091 21.9346 10.7306V9.18025H26.6002V10.3624Z" fill="#1D3D7D"/>
<path fill-rule="evenodd" clip-rule="evenodd" d="M26.2399 8.27461H21.9352V2.36061C21.9354 2.26504 21.9735 2.17345 22.041 2.10587C22.1086 2.03829 22.2002 2.00022 22.2958 2H22.9403C22.941 2.96979 23.3269 3.89958 24.013 4.58491C24.6993 5.27047 25.6296 5.65559 26.5996 5.6557H26.6008V8.27461H26.2399Z" fill="#1D3D7D"/>
<path fill-rule="evenodd" clip-rule="evenodd" d="M23.8569 2H26.2402C26.3357 2.0003 26.4273 2.03839 26.4948 2.10595C26.5624 2.17351 26.6005 2.26506 26.6008 2.36061V4.74581C25.8732 4.74566 25.1756 4.45665 24.661 3.9423C24.1465 3.42795 23.8573 2.73035 23.8569 2.00283V2Z" fill="#F4821F"/>
<path fill-rule="evenodd" clip-rule="evenodd" d="M13.781 21.5972C14.3076 21.5972 14.5617 21.3043 14.5617 20.874V19.8369H14.185V20.8635C14.185 20.9711 14.1422 21.0744 14.0661 21.1505C13.9899 21.2267 13.8867 21.2694 13.779 21.2694C13.6714 21.2694 13.5681 21.2267 13.492 21.1505C13.4159 21.0744 13.3731 20.9711 13.3731 20.8635V19.8369H12.9995V20.8771C12.9995 21.302 13.2536 21.5977 13.7802 21.5977L13.781 21.5972ZM16.8359 21.566V21.2422H16.0008L16.818 20.1318V19.836H15.5184V20.1601H16.3356L15.5184 21.2674V21.5649L16.8359 21.566ZM18.5965 21.5972C18.7447 21.6006 18.8909 21.5626 19.0187 21.4874C19.1465 21.4123 19.2508 21.3031 19.32 21.172L19.0027 21.019C18.9641 21.094 18.9057 21.1571 18.834 21.2014C18.7622 21.2457 18.6797 21.2696 18.5953 21.2706C18.4867 21.2651 18.3818 21.2285 18.2933 21.1653C18.2048 21.102 18.1363 21.0147 18.0959 20.9137C18.0554 20.8127 18.0449 20.7022 18.0654 20.5953C18.0859 20.4885 18.1366 20.3897 18.2115 20.3108C18.312 20.2051 18.4494 20.142 18.5953 20.1349C18.6795 20.1364 18.7618 20.1605 18.8335 20.2047C18.9051 20.2489 18.9636 20.3116 19.0027 20.3862L19.32 20.2304C19.2509 20.0994 19.1465 19.9904 19.0186 19.9158C18.8907 19.8412 18.7445 19.8039 18.5965 19.8083C18.4466 19.8039 18.298 19.8372 18.1644 19.9052C18.0308 19.9732 17.9164 20.0736 17.8316 20.1973C17.7469 20.321 17.6946 20.464 17.6795 20.6131C17.6644 20.7623 17.687 20.9129 17.7452 21.051C17.8154 21.2173 17.9343 21.3585 18.0862 21.4559C18.2382 21.5534 18.416 21.6027 18.5965 21.5972ZM21.8145 21.566L21.1479 19.8369H20.6862L20.0168 21.566H20.4372L20.546 21.2731H21.2882L21.3944 21.566H21.8145ZM21.1868 20.949H20.6471L20.9171 20.2049L21.1868 20.949ZM24.3011 22L23.6666 20.908C23.78 20.8806 23.8801 20.8141 23.9493 20.7202C24.0185 20.6264 24.0524 20.5111 24.045 20.3947C24.0479 20.3187 24.0347 20.2429 24.0063 20.1724C23.9778 20.1019 23.9347 20.0382 23.8799 19.9855C23.825 19.9329 23.7596 19.8924 23.688 19.8668C23.6163 19.8413 23.5401 19.8312 23.4643 19.8372H22.6541V21.5666H23.0224V20.9519H23.2924L23.8779 21.9997L24.3008 22H24.3011ZM23.4096 20.6281H23.0232V20.1615H23.4085C23.4414 20.1577 23.4747 20.1609 23.5063 20.1709C23.5379 20.1809 23.567 20.1974 23.5917 20.2195C23.6165 20.2415 23.6362 20.2685 23.6498 20.2987C23.6633 20.3289 23.6703 20.3617 23.6703 20.3948C23.6703 20.4279 23.6633 20.4607 23.6498 20.4909C23.6362 20.5211 23.6165 20.5481 23.5917 20.5701C23.567 20.5922 23.5379 20.6087 23.5063 20.6187C23.4747 20.6287 23.4414 20.6319 23.4085 20.6281H23.4096ZM25.6835 21.5666C26.2257 21.5666 26.6019 21.2244 26.6019 20.7032C26.6019 20.1819 26.2249 19.8372 25.6835 19.8372H25.0014V21.5666H25.6835ZM25.6835 21.2425H25.3696V20.1615H25.6835C25.756 20.1562 25.8288 20.1666 25.897 20.1919C25.9651 20.2172 26.027 20.2569 26.0785 20.3083C26.1299 20.3597 26.1697 20.4216 26.1951 20.4897C26.2205 20.5578 26.2309 20.6306 26.2257 20.7032C26.2289 20.7752 26.217 20.847 26.1907 20.9142C26.1645 20.9813 26.1245 21.0422 26.0733 21.0929C26.0222 21.1437 25.961 21.1832 25.8936 21.2089C25.8263 21.2346 25.7544 21.246 25.6824 21.2422L25.6835 21.2425ZM27.0492 19.804V19.8086C27.0492 19.8722 27.0303 19.9344 26.995 19.9873C26.9596 20.0402 26.9094 20.0815 26.8506 20.1058C26.7918 20.1302 26.7271 20.1366 26.6647 20.1242C26.6023 20.1118 26.545 20.0812 26.4999 20.0362C26.4549 19.9912 26.4243 19.9339 26.4118 19.8715C26.3994 19.8091 26.4057 19.7444 26.43 19.6856C26.4543 19.6268 26.4955 19.5765 26.5484 19.5411C26.6013 19.5057 26.6635 19.4868 26.7271 19.4868H27.0489V19.804H27.0492Z" fill="#1D3D7D"/>
</svg>
