<svg width="36" height="24" viewBox="0 0 36 24" fill="currentBackgroundColor" xmlns="http://www.w3.org/2000/svg">
<path d="M5.52292 8.29076C4.78456 7.88574 3.94189 7.56001 2.99973 7.33396L3.03925 7.15793H6.9022C7.42581 7.17628 7.85068 7.33384 7.98893 7.89027L8.82845 11.8932L9.08563 13.0988L11.437 7.15793H13.9758L10.2019 15.8609H7.66292L5.52292 8.29076ZM15.8434 15.8702H13.4424L14.9441 7.15793H17.345L15.8434 15.8702ZM24.5472 7.37091L24.2206 9.25222L24.0035 9.1597C23.569 8.98355 22.9955 8.80751 22.215 8.82612C21.267 8.82612 20.8419 9.2059 20.8321 9.57669C20.8321 9.98456 21.3463 10.2534 22.1861 10.652C23.5694 11.273 24.2111 12.0329 24.2015 13.0247C24.182 14.8321 22.5419 16 20.0226 16C18.9455 15.9906 17.908 15.777 17.3449 15.5363L17.6808 13.5806L17.997 13.7198C18.7776 14.0445 19.2912 14.1832 20.2498 14.1832C20.941 14.1832 21.6822 13.9142 21.6916 13.3306C21.6916 12.9505 21.3759 12.6722 20.447 12.2459C19.5381 11.8287 18.323 11.1336 18.3427 9.88232C18.3529 8.18629 20.0226 7 22.3937 7C23.3225 7 24.0736 7.19463 24.5472 7.37091ZM27.7383 12.7837H29.734C29.6352 12.3481 29.1806 10.2627 29.1806 10.2627L29.0128 9.51202C28.8942 9.83637 28.6869 10.3647 28.6969 10.3461C28.6969 10.3461 27.936 12.2832 27.7383 12.7837ZM30.702 7.15793L32.639 15.87H30.4159C30.4159 15.87 30.1984 14.869 30.1294 14.5632H27.0468C26.9576 14.7947 26.5429 15.87 26.5429 15.87H24.0236L27.5899 7.88078C27.837 7.31536 28.2721 7.15793 28.8448 7.15793H30.702Z" fill="#1434CB"/>
</svg>
