<svg width="36" height="24" viewBox="0 0 36 24" fill="currentBackgroundColor" xmlns="http://www.w3.org/2000/svg">
<path d="M10.3726 16.4267L14.2531 7.16878H11.7365L9.24469 13.4697L8.23616 8.11282C8.11678 7.51456 7.65025 7.16878 7.13157 7.16878H3.05626L3 7.43772C3.83564 7.62022 4.78655 7.91249 5.36423 8.22397C5.7155 8.41607 5.81704 8.58347 5.9323 9.03766L7.84098 16.4267H10.3726Z" fill="#1334CB"/>
<path d="M22 10.7985C22.9683 11.3072 24.1782 11.9429 24.1724 13.4039C24.1655 15.329 22.519 16.5722 20.0024 16.5736C18.9321 16.5626 17.8989 16.3389 17.3391 16.0823L17.774 14.0529C17.7913 14.0609 17.8086 14.069 17.8261 14.0772C18.3748 14.3332 19.0668 14.6561 20.2343 14.6374C20.9218 14.6265 21.66 14.352 21.6668 13.7304C21.671 13.3257 21.3581 13.0348 20.425 12.5806C19.518 12.136 18.3133 11.3937 18.3284 10.0599C18.3421 8.2569 20.0065 7 22.3749 7C23.297 7 24.0393 7.20034 24.6156 7.40753L24.1957 9.37246C23.1241 8.87849 22.1773 8.91416 21.8342 8.95807C21.1413 9.04863 20.8257 9.40128 20.8175 9.73334C20.8081 10.1722 21.3495 10.4567 22 10.7985Z" fill="#1334CB"/>
<path fill-rule="evenodd" clip-rule="evenodd" d="M32.64 16.4267H30.4253L30.1372 15.0436H27.0635L26.5641 16.4267H24.0489L27.6426 7.84799C27.8141 7.43635 28.2011 7.16878 28.6621 7.16878H30.7053L32.64 16.4267ZM29.0134 9.67022L27.7524 13.1473H29.7379L29.0134 9.67022Z" fill="#1334CB"/>
<path d="M15.6952 16.4267L17.6766 7.16878H15.2808L13.3008 16.4267H15.6952Z" fill="#1334CB"/>
<path d="M21.483 18.1707V20.7724H21.1893V18.1707H21.483Z" fill="#1334CB"/>
<path d="M19.1256 20.771V18.2695H20.6899V18.5357H19.4453V19.3357H20.436V19.5992H19.4453V20.5048H20.6899V20.771H19.1256Z" fill="#1334CB"/>
<path fill-rule="evenodd" clip-rule="evenodd" d="M22.8798 20.5816C23.0459 20.5816 23.1817 20.5611 23.286 20.5213C23.3903 20.4801 23.4836 20.4266 23.5673 20.358H23.5742L23.5481 20.6242C23.4932 20.6708 23.4081 20.7147 23.2915 20.7559C23.1749 20.7971 23.0308 20.819 22.8565 20.819C22.6672 20.819 22.5025 20.7779 22.3612 20.6942C22.2198 20.6105 22.1087 20.4952 22.0305 20.3484C21.9509 20.2015 21.9125 20.0328 21.9125 19.8448C21.9125 19.6554 21.9509 19.488 22.0291 19.3412C22.1073 19.1944 22.213 19.0777 22.3488 18.994C22.4833 18.909 22.6356 18.8678 22.8044 18.8678C22.9992 18.8678 23.1584 18.9021 23.2805 18.9721C23.4026 19.0407 23.4918 19.1381 23.5467 19.2616C23.603 19.3851 23.6304 19.5306 23.6304 19.6952C23.6304 19.7134 23.6295 19.7344 23.6284 19.7589L23.6277 19.7748C23.6263 19.8064 23.6222 19.8324 23.6181 19.8571H22.2116L22.2117 19.8603L22.213 19.864C22.2141 19.8663 22.2134 19.8676 22.2123 19.8695L22.2116 19.8709C22.2157 20.0931 22.2775 20.2674 22.3955 20.395C22.5149 20.5171 22.6754 20.5816 22.8798 20.5816ZM22.8071 19.0887C22.6425 19.0887 22.5094 19.1395 22.4092 19.2397C22.3077 19.3412 22.2473 19.4812 22.2253 19.6609H23.3477V19.628C23.3477 19.5182 23.3313 19.4235 23.2984 19.3426C23.2654 19.263 23.2105 19.1999 23.1323 19.1546C23.0541 19.1121 22.9457 19.0887 22.8071 19.0887Z" fill="#1334CB"/>
<path d="M23.9405 19.8434C23.9405 19.6541 23.9789 19.4867 24.0558 19.3398C24.1326 19.193 24.241 19.0764 24.3823 18.9927C24.5223 18.9076 24.687 18.8664 24.8763 18.8664C25.041 18.8664 25.1727 18.8856 25.2701 18.9227C25.3676 18.9597 25.4403 18.9995 25.4856 19.0407L25.5157 19.3508H25.5089C25.4279 19.274 25.3387 19.215 25.2399 19.1724C25.1425 19.1313 25.0259 19.1093 24.8928 19.1093C24.7652 19.1093 24.6527 19.1381 24.5552 19.1971C24.4578 19.2548 24.381 19.3398 24.3247 19.4496C24.2685 19.5594 24.241 19.6911 24.241 19.8448C24.241 20.0753 24.3028 20.2537 24.4276 20.3813C24.5511 20.5089 24.713 20.572 24.9106 20.572C25.0163 20.572 25.1055 20.5624 25.1768 20.5446C25.2496 20.5254 25.314 20.4993 25.3689 20.465C25.4252 20.4307 25.4801 20.3923 25.535 20.3484H25.5446L25.5144 20.6146C25.4622 20.6653 25.3826 20.712 25.2756 20.7545C25.1686 20.7971 25.0355 20.819 24.875 20.819C24.6856 20.819 24.5209 20.7779 24.381 20.6942C24.241 20.6104 24.1312 20.4952 24.0544 20.3484C23.9789 20.2002 23.9405 20.0328 23.9405 19.8434Z" fill="#1334CB"/>
<path d="M26.361 20.2715C26.361 20.3895 26.3857 20.4691 26.4365 20.5103C26.4872 20.5514 26.5531 20.5707 26.6341 20.5707C26.7082 20.5707 26.774 20.5638 26.8289 20.5514C26.8838 20.5377 26.9291 20.5226 26.9634 20.5048H26.973L26.9469 20.7518C26.914 20.7696 26.8646 20.7847 26.7987 20.7984C26.7329 20.8122 26.6656 20.8176 26.5984 20.8176C26.4337 20.8176 26.3047 20.7792 26.2101 20.701C26.1154 20.6228 26.0687 20.4952 26.0687 20.3168V19.1546H25.7257L25.7655 18.9597L26.0687 18.9172V18.5193L26.3624 18.4767V18.9117H26.9318L26.8961 19.156H26.3624V20.2715H26.361Z" fill="#1334CB"/>
<path d="M28.0597 19.1683C27.9143 19.1683 27.8018 19.2136 27.7208 19.3055C27.6399 19.3961 27.5987 19.5347 27.5987 19.7185V20.7724H27.305V18.9117H27.585V19.3H27.6014C27.6426 19.1381 27.714 19.0242 27.8155 18.9611C27.917 18.898 28.0268 18.8651 28.1448 18.8651C28.175 18.8651 28.2052 18.8664 28.2354 18.8706C28.2656 18.8733 28.2861 18.8774 28.2999 18.8815L28.2642 19.2012H28.2546C28.2367 19.1944 28.2107 19.1875 28.175 19.1793C28.1407 19.1724 28.1023 19.1683 28.0597 19.1683Z" fill="#1334CB"/>
<path fill-rule="evenodd" clip-rule="evenodd" d="M29.4099 18.8651C29.5924 18.8651 29.753 18.9076 29.893 18.9913C30.0329 19.0764 30.1413 19.1916 30.2209 19.3385C30.3005 19.4853 30.3389 19.6541 30.3389 19.842C30.3389 20.0314 30.2991 20.1988 30.2209 20.3456C30.1413 20.4924 30.0329 20.6077 29.893 20.6914C29.753 20.7751 29.5924 20.8163 29.4099 20.8163C29.2302 20.8163 29.0697 20.7751 28.9297 20.6914C28.7897 20.6077 28.68 20.4924 28.6004 20.3456C28.5208 20.1988 28.4824 20.03 28.4824 19.842C28.4824 19.6527 28.5222 19.4853 28.6004 19.3385C28.68 19.1916 28.7897 19.075 28.9297 18.9913C29.0697 18.9076 29.2302 18.8651 29.4099 18.8651ZM29.4099 20.5748C29.6158 20.5748 29.7722 20.5089 29.8765 20.3786C29.9808 20.2482 30.0329 20.0698 30.0329 19.8434C30.0329 19.6156 29.9808 19.4359 29.8765 19.3055C29.7722 19.1752 29.6171 19.1093 29.4099 19.1093C29.2028 19.1093 29.0477 19.1752 28.942 19.3055C28.8364 19.4359 28.7842 19.6156 28.7842 19.8434C28.7842 20.0698 28.8364 20.2482 28.942 20.3786C29.0477 20.5089 29.2041 20.5748 29.4099 20.5748Z" fill="#1334CB"/>
<path d="M31.7289 18.8651C31.9306 18.8651 32.0884 18.9172 32.2037 19.0201C32.3175 19.123 32.3752 19.2849 32.3752 19.5045V20.7724H32.0857V19.5868C32.0857 19.4304 32.0527 19.3138 31.9855 19.2355C31.9182 19.1573 31.7975 19.1189 31.6219 19.1189C31.519 19.1189 31.4243 19.1395 31.3406 19.182C31.2555 19.2232 31.1896 19.2836 31.1402 19.3604C31.0908 19.4373 31.0661 19.5278 31.0661 19.6335V20.7724H30.7725V18.9117H31.0524V19.3069H31.0689C31.1046 19.2012 31.1567 19.1162 31.2281 19.0517C31.2994 18.9872 31.379 18.9392 31.4682 18.9103C31.556 18.8802 31.6438 18.8651 31.7289 18.8651Z" fill="#1334CB"/>
</svg>
