<svg width="85" height="24" viewBox="0 0 85 24" fill="currentBackgroundColor" xmlns="http://www.w3.org/2000/svg">
<path d="M72.3357 3C73.7617 3 75.1184 3.3267 76.3358 3.91112C76.5268 3.99726 76.719 4.10036 76.9093 4.20355L76.0745 4.94301L74.823 3.6535L72.6666 5.54456L71.3967 4.18614L67.4313 7.71082L69.9701 10.4789L68.979 11.3383L71.4837 14.1064L70.4925 14.9655L74.0754 18.9027L76.196 16.977L78.0403 19.0407C77.6748 19.3159 77.2748 19.5915 76.8405 19.8318C75.5185 20.571 73.9878 21 72.3532 21C67.3266 21 63.2402 16.9605 63.2402 11.9923C63.2224 7.05759 67.3096 3 72.3357 3ZM70.6658 11.4417L72.8398 9.51601L74.7881 11.665L72.6136 13.5906L70.6658 11.4417ZM72.2141 15.1554L74.3704 13.2127L76.3358 15.3616L74.1617 17.2873L72.2141 15.1554ZM69.1188 7.77982L71.2922 5.85413L73.2401 8.00316L71.066 9.92876L69.1188 7.77982ZM73.1007 6.74793L74.7183 5.30382L76.1795 6.90281L74.562 8.36398L73.1007 6.74793ZM75.9881 13.3671L77.6051 11.9229L79.0663 13.5386L77.4486 14.9837L75.9881 13.3671ZM77.414 16.6169L79.0316 15.1724L80.4916 16.7713L78.8746 18.2323L77.414 16.6169ZM78.075 9.1893L79.1531 8.22641L80.1267 9.29276L79.0488 10.2553L78.075 9.1893ZM76.6836 6.00864L77.7618 5.02888L78.7362 6.11183L77.6571 7.07463L76.6836 6.00864ZM79.4488 12.3702L80.5269 11.4074L81.5182 12.4734L80.4229 13.436L79.4488 12.3702ZM74.5966 9.98036L76.2143 8.53616L77.6748 10.1348L76.0579 11.5793L74.5966 9.98036Z" fill="#036CB5"/>
<path d="M7.77049 10.7391H7.68846L6.14838 16.5885H4.88959L3 8.27832H4.30607L5.61245 14.4791H5.69403L7.21001 8.27832H8.24837L9.86963 14.4791H9.95127L11.1411 8.27832H12.5058L10.6157 16.5885H9.356L7.77049 10.7391Z" fill="#036CB5"/>
<path d="M14.1629 13.0507H16.8333C16.7753 11.8204 16.1802 11.3286 15.5506 11.3286C14.8392 11.3286 14.2906 11.8793 14.1629 13.0507ZM17.7662 15.255V16.1459C17.2415 16.4506 16.542 16.6851 15.7018 16.6851C13.7429 16.6851 12.9382 15.4662 12.9382 13.6145C12.9382 11.8321 13.836 10.5428 15.5856 10.5428C17.0431 10.5428 17.9417 11.4928 17.9417 13.4029V13.8366H14.1395C14.1395 15.2427 14.7106 15.8641 15.9124 15.8641C16.542 15.8641 17.1252 15.641 17.7662 15.255Z" fill="#036CB5"/>
<path d="M20.6545 15.7453C21.0278 15.9093 21.4363 15.9336 21.7283 15.9336C22.5912 15.9336 23.2436 15.3937 23.2436 13.4954C23.2436 12.0068 22.7072 11.5262 21.9261 11.5262C21.4592 11.5262 21.1211 11.6555 20.6544 11.9129V15.7453H20.6545ZM20.6667 11.0458C21.0158 10.8589 21.6105 10.6119 22.2405 10.6119C23.6869 10.6119 24.4685 11.6198 24.4685 13.4954C24.4685 15.6873 23.4186 16.7539 21.7283 16.7539C21.1097 16.7539 20.1534 16.5546 19.4532 16.1787V7.9983L20.6667 7.70569V11.0458H20.6667Z" fill="#036CB5"/>
<path d="M29.7179 14.8253H29.7764L32.2718 8.27319H33.7188V16.584H32.4592V10.559H32.354L29.9744 16.584H29.2286L26.8485 10.6998H26.7439V16.584H25.6941V8.27319H27.1058L29.7179 14.8253Z" fill="#036CB5"/>
<path d="M38.865 13.6141C38.865 12.0319 38.224 11.3641 37.4309 11.3641C36.6614 11.3641 35.996 12.0319 35.996 13.6141C35.996 15.22 36.6032 15.8641 37.4309 15.8641C38.2585 15.8641 38.865 15.2201 38.865 13.6141ZM34.7719 13.6141C34.7719 11.5622 35.8918 10.5428 37.4309 10.5428C38.9709 10.5428 40.0903 11.5622 40.0903 13.6141C40.0903 15.618 39.029 16.6851 37.4309 16.6851C35.8331 16.6851 34.7719 15.618 34.7719 13.6141Z" fill="#036CB5"/>
<path d="M41.0129 11.4108C41.5377 11.0938 42.6461 10.5428 43.9871 10.5428C45.3865 10.5428 45.9104 11.0938 45.9104 12.3008V16.5444H44.6983V12.5707C44.6983 11.6449 44.2442 11.4809 43.6487 11.4809C43.1827 11.4809 42.5871 11.6921 42.2259 11.9031V16.5444H41.0129V11.4108H41.0129Z" fill="#036CB5"/>
<path d="M48.4778 13.0507H51.1484C51.091 11.8204 50.4955 11.3286 49.8657 11.3286C49.1541 11.3286 48.6066 11.8793 48.4778 13.0507ZM52.0812 15.255V16.1459C51.5567 16.4506 50.8569 16.6851 50.017 16.6851C48.0587 16.6851 47.2535 15.4662 47.2535 13.6145C47.2535 11.8321 48.151 10.5428 49.9007 10.5428C51.3591 10.5428 52.2575 11.4928 52.2575 13.4029V13.8366H48.4549C48.4549 15.2427 49.0264 15.8641 50.2278 15.8641C50.8569 15.8641 51.4409 15.641 52.0812 15.255Z" fill="#036CB5"/>
<path d="M57.102 10.5428H58.3502L56.2391 16.4025C55.6551 18.0202 54.9445 18.8642 53.6034 18.8642V17.9037C54.397 17.9037 54.8861 17.2704 55.1666 16.4025L52.9272 10.5428H54.2104L55.7031 14.856H55.7731L57.102 10.5428Z" fill="#036CB5"/>
</svg>
