<svg width="77" height="24" viewBox="0 0 77 24" fill="currentBackgroundColor" xmlns="http://www.w3.org/2000/svg">
  <path d="M38.4895 12.5103L37.2029 15.1345L36.6579 12.0341H36.015C35.8634 12.0357 35.7151 12.0784 35.5859 12.1577C35.4568 12.237 35.3516 12.35 35.2817 12.4844L33.9952 15.1213L33.6996 13.4236C33.6315 13.0392 33.4307 12.6908 33.1321 12.4393C32.8335 12.1878 32.4561 12.0491 32.0657 12.0474H29.5211C29.5211 12.0474 32.1838 12.7289 32.4023 13.9895L32.9707 17.2181H34.2055L35.7465 14.1183L36.3383 17.2181H37.5863L40.1587 12.0474H39.2196C39.0682 12.0547 38.9213 12.1012 38.7933 12.1824C38.6653 12.2635 38.5606 12.3765 38.4895 12.5103Z" fill="#00ABEC"/>
  <path d="M43.0918 11.9312C42.7083 11.9205 42.3269 11.9905 41.9723 12.1367C41.6177 12.283 41.2978 12.5021 41.0334 12.78C40.7674 13.0567 40.5588 13.3833 40.4197 13.7411C40.2806 14.0988 40.2138 14.4805 40.2231 14.8642C40.2081 15.1988 40.2672 15.5326 40.3961 15.8417C40.525 16.1508 40.7207 16.4275 40.969 16.6523C41.4942 17.1146 42.1765 17.3584 42.8758 17.3337C43.5174 17.3679 44.1543 17.2064 44.7023 16.8708L44.8823 15.6746C44.382 15.9511 43.82 16.0971 43.2484 16.099C42.3478 16.099 41.6789 15.7257 41.6277 15.0316H45.332C45.392 14.7352 45.4223 14.4335 45.4223 14.131C45.4294 13.8391 45.3757 13.5489 45.2646 13.279C45.1534 13.009 44.9873 12.7651 44.7768 12.5628C44.5542 12.3477 44.2897 12.1807 43.9998 12.0721C43.71 11.9634 43.4009 11.9155 43.0918 11.9312ZM44.0177 14.0925H41.7282C41.7931 13.7952 41.9596 13.5299 42.199 13.3421C42.4384 13.1543 42.7358 13.0559 43.04 13.0636C43.1699 13.0507 43.3011 13.0661 43.4245 13.1088C43.5479 13.1515 43.6606 13.2205 43.7548 13.311C43.8489 13.4015 43.9223 13.5113 43.9699 13.6329C44.0174 13.7546 44.0381 13.885 44.0303 14.0154V14.0925H44.0177Z" fill="#00ABEC"/>
  <path d="M49.909 11.9312C49.5881 11.9247 49.2695 11.9868 48.9745 12.1132C48.6794 12.2397 48.4148 12.4276 48.1981 12.6644L48.6352 10.0017H47.8773C47.6853 10.003 47.5 10.0721 47.354 10.1968C47.2081 10.3215 47.1109 10.4938 47.0796 10.6832L46.0501 17.2049H47.5027L47.6057 16.5234C47.8133 16.7828 48.078 16.9909 48.3791 17.1315C48.6802 17.272 49.0097 17.3412 49.3419 17.3337C49.7172 17.3459 50.0903 17.271 50.4317 17.1147C50.7732 16.9584 51.0738 16.7251 51.3099 16.4331C51.8016 15.846 52.0663 15.102 52.0558 14.3362C52.0775 13.7123 51.8665 13.1025 51.464 12.6253C51.276 12.3973 51.0378 12.216 50.768 12.0956C50.4983 11.9752 50.2042 11.9189 49.909 11.9312ZM50.1276 15.6101C49.9928 15.7544 49.8293 15.869 49.6477 15.9465C49.4661 16.0241 49.2703 16.0629 49.0728 16.0604C48.8102 16.0593 48.5524 15.99 48.3247 15.8592C48.0969 15.7284 47.9071 15.5408 47.7737 15.3145L47.9922 13.951C48.1361 13.7283 48.332 13.5439 48.5631 13.414C48.7942 13.284 49.0535 13.2123 49.3185 13.2051C49.486 13.1976 49.6531 13.2258 49.8088 13.2877C49.9646 13.3496 50.1055 13.4438 50.2222 13.5641C50.3388 13.6844 50.4287 13.8281 50.4858 13.9857C50.5428 14.1433 50.5658 14.3112 50.5533 14.4783C50.5635 14.6861 50.531 14.8937 50.4578 15.0884C50.3846 15.2831 50.2722 15.4606 50.1276 15.6101Z" fill="#00ABEC"/>
  <path d="M56.559 11.9312C56.2381 11.9247 55.9194 11.9868 55.6244 12.1132C55.3294 12.2397 55.0647 12.4276 54.848 12.6644L54.951 12.0727H53.4983L52.3527 19.2632H53.1105C53.3025 19.2619 53.4878 19.1928 53.6338 19.0681C53.7798 18.9434 53.877 18.7711 53.9082 18.5817L54.2297 16.5234C54.4373 16.7828 54.702 16.9909 55.0031 17.1315C55.3042 17.272 55.6337 17.3412 55.9659 17.3337C56.3413 17.3459 56.7143 17.271 57.0558 17.1147C57.3972 16.9584 57.6978 16.7251 57.9339 16.4331C58.4257 15.846 58.6903 15.102 58.6798 14.3362C58.7017 13.7127 58.4912 13.1032 58.0893 12.6259C57.9101 12.3942 57.677 12.2098 57.4103 12.0887C57.1436 11.9676 56.8514 11.9135 56.559 11.9312ZM56.7908 15.6101C56.6559 15.7544 56.4925 15.869 56.3109 15.9465C56.1293 16.0241 55.9335 16.0629 55.736 16.0604C55.4734 16.0593 55.2156 15.99 54.9879 15.8592C54.7601 15.7284 54.5702 15.5408 54.4369 15.3146L54.6554 13.951C54.7993 13.7283 54.9952 13.544 55.2263 13.414C55.4574 13.284 55.7167 13.2123 55.9817 13.2051C56.1492 13.1976 56.3163 13.2258 56.472 13.2877C56.6278 13.3496 56.7687 13.4438 56.8854 13.5641C57.002 13.6844 57.0919 13.8281 57.1489 13.9857C57.206 14.1433 57.229 14.3112 57.2164 14.4783C57.2249 14.8963 57.0722 15.3016 56.7901 15.6101H56.7908Z" fill="#00ABEC"/>
  <path d="M64.508 16.0996C64.2762 16.0996 64.148 15.984 64.148 15.7649C64.148 15.7017 64.1739 15.5722 64.1991 15.3663L64.3665 14.3628C64.4115 14.1597 64.4373 13.9529 64.4436 13.7451C64.4635 13.4784 64.4134 13.2111 64.2984 12.9698C64.1833 12.7284 64.0071 12.5213 63.7874 12.3689C63.2911 12.059 62.7127 11.9067 62.1282 11.9318C61.5114 11.9188 60.8985 12.0327 60.3276 12.2666L60.1476 13.4754C60.6295 13.2454 61.1571 13.1266 61.6911 13.128C62.5659 13.128 63.0029 13.411 63.0029 13.9642C63.0029 14.0154 62.9903 14.1442 62.9644 14.3375C62.4602 14.076 61.8991 13.9435 61.3311 13.9516C60.7854 13.9402 60.2516 14.1124 59.8154 14.4404C59.6133 14.5955 59.4516 14.7971 59.3441 15.028C59.2366 15.2589 59.1864 15.5123 59.1977 15.7668C59.1977 16.7059 59.9183 17.3615 61.0368 17.3615C61.353 17.3673 61.6671 17.31 61.9609 17.193C62.2547 17.076 62.5222 16.9016 62.7478 16.68C62.8634 17.1044 63.2366 17.323 63.8537 17.323C64.1179 17.3321 64.3797 17.27 64.6116 17.143L64.7789 16.0882C64.6627 16.0857 64.585 16.0996 64.508 16.0996ZM62.7073 15.7011C62.5569 15.8656 62.3742 15.9974 62.1705 16.0881C61.9669 16.1788 61.7467 16.2266 61.5238 16.2284C60.9838 16.2284 60.6231 16.0226 60.6231 15.6108C60.6231 15.1219 61.0602 14.8649 61.6779 14.8649C62.0778 14.8497 62.4728 14.9575 62.8097 15.1737L62.7073 15.7011Z" fill="#00ABEC"/>
  <path d="M69.409 12.4971L67.8932 15.4427L66.9648 12.06H65.449L66.98 17.0122C66.5815 17.7069 66.1311 18.0543 65.6164 18.0543C65.3527 18.0497 65.095 17.9742 64.8705 17.8358L64.6772 19.0989C64.9854 19.2492 65.3248 19.3241 65.6676 19.3175C66.1604 19.3076 66.6405 19.1587 67.0524 18.8878C67.4643 18.6169 67.7913 18.2352 67.9956 17.7865L71.1857 12.0625H70.1309C69.9822 12.0612 69.836 12.101 69.7085 12.1777C69.5811 12.2544 69.4774 12.365 69.409 12.4971Z" fill="#00ABEC"/>
  <path d="M73.8339 12.8571C73.8318 12.7964 73.8172 12.7368 73.7911 12.6819C73.7649 12.6271 73.7278 12.5783 73.6819 12.5384C73.636 12.4986 73.5825 12.4687 73.5245 12.4505C73.4665 12.4323 73.4055 12.4262 73.3451 12.4327H72.6888V13.8474H72.9977V13.2942H73.2162L73.628 13.8474H73.9754L73.5377 13.2556C73.6249 13.2326 73.7018 13.1807 73.7556 13.1082C73.8094 13.0358 73.837 12.9473 73.8339 12.8571ZM73.3324 13.0245H72.9977V12.703H73.3324C73.3563 12.6998 73.3807 12.7017 73.4038 12.7086C73.427 12.7155 73.4484 12.7273 73.4666 12.7431C73.4848 12.759 73.4995 12.7785 73.5095 12.8004C73.5196 12.8224 73.5249 12.8462 73.525 12.8704C73.525 12.9731 73.4606 13.0245 73.3318 13.0245H73.3324Z" fill="#00ABEC"/>
  <path d="M73.2547 11.7897C72.9825 11.7897 72.7165 11.8704 72.4902 12.0216C72.2638 12.1728 72.0874 12.3878 71.9833 12.6392C71.8791 12.8907 71.8519 13.1674 71.905 13.4344C71.9581 13.7013 72.0891 13.9466 72.2816 14.139C72.4741 14.3315 72.7193 14.4626 72.9862 14.5157C73.2532 14.5688 73.5299 14.5415 73.7814 14.4374C74.0328 14.3332 74.2478 14.1568 74.399 13.9305C74.5502 13.7042 74.6309 13.4381 74.6309 13.1659C74.6329 12.9846 74.5986 12.8048 74.5301 12.637C74.4617 12.4691 74.3604 12.3166 74.2322 12.1884C74.104 12.0603 73.9515 11.959 73.7837 11.8905C73.6158 11.822 73.436 11.7877 73.2547 11.7897ZM73.2547 14.3236C73.0233 14.3236 72.797 14.2549 72.6045 14.1263C72.4121 13.9978 72.2621 13.815 72.1735 13.6011C72.0849 13.3873 72.0618 13.152 72.1069 12.9249C72.1521 12.6979 72.2635 12.4894 72.4272 12.3257C72.5909 12.1621 72.7994 12.0506 73.0264 12.0054C73.2534 11.9603 73.4887 11.9835 73.7026 12.072C73.9164 12.1606 74.0992 12.3106 74.2278 12.5031C74.3564 12.6955 74.4251 12.9218 74.4251 13.1533C74.4239 13.4633 74.3002 13.7603 74.081 13.9795C73.8618 14.1987 73.5648 14.3224 73.2547 14.3236Z" fill="#00ABEC"/>
  <path d="M12.3806 6.33411L14.0783 0L15.776 6.33411H12.3806ZM18.1173 10.4211L21.3971 4.75516L15.7128 8.03116L18.1173 10.4211ZM19.8282 13.7615L27.8947 12.0632L19.8295 10.3674L19.8282 13.7615ZM15.7229 16.0983L21.4072 19.3743L18.1274 13.6952L15.7229 16.0983ZM12.3756 17.8074L14.0733 24.1415L15.776 17.8105L12.3756 17.8074ZM10.0343 13.7091L6.75958 19.3749L12.4438 16.0989L10.0343 13.7091ZM8.33663 10.3686L2 12.0632L8.34168 13.7589L8.33663 10.3686ZM12.4267 8.03179L6.75958 4.75389L10.0394 10.4331L12.4267 8.03179Z" fill="#00ABEC"/>
</svg>
