<svg width="83" height="24" viewBox="0 0 83 24" fill="currentBackgroundColor" xmlns="http://www.w3.org/2000/svg">
<path d="M11.4279 14.6515C11.3254 14.7032 11.2106 14.7331 11.0882 14.7331C10.8049 14.7331 10.5587 14.577 10.4292 14.3465L10.3798 14.2378L8.31639 9.71001C8.29409 9.66066 8.28033 9.60515 8.28033 9.55059C8.28033 9.34183 8.44923 9.17292 8.658 9.17292C8.74293 9.17292 8.82074 9.20091 8.88384 9.24788L11.3188 10.9816C11.4967 11.0978 11.7093 11.1661 11.938 11.1661C12.0741 11.1661 12.2041 11.1405 12.3256 11.0964L23.7767 5.99972C21.7237 3.58091 18.3432 2 14.5176 2C8.25803 2 3.18365 6.22888 3.18365 11.4456C3.18365 14.2914 4.71047 16.8535 7.09986 18.5848C7.29155 18.7215 7.41728 18.9464 7.41728 19.2002C7.41728 19.2842 7.39925 19.3606 7.37743 19.4408C7.18669 20.1524 6.88114 21.2926 6.8669 21.3462C6.84318 21.4354 6.80617 21.5289 6.80617 21.6223C6.80617 21.8311 6.97508 22 7.18432 22C7.26593 22 7.3333 21.9696 7.40257 21.9298L9.88401 20.4974C10.0709 20.3897 10.2683 20.3228 10.4861 20.3228C10.6019 20.3228 10.7138 20.3408 10.8192 20.3731C11.9769 20.7061 13.2256 20.8912 14.519 20.8912C20.7786 20.8912 25.8535 16.6623 25.8535 11.4456C25.8535 9.86563 25.3852 8.37772 24.5624 7.06868L11.5119 14.6036L11.4293 14.6515H11.4279Z" fill="#3AAA35"/>
<path d="M38.0666 12.8348L37.9162 13.3691C37.7904 13.8151 37.6789 14.2089 37.5831 14.5975C37.4607 14.0238 37.2913 13.3824 37.139 12.8168L36.1289 9.00831L36.1113 8.94093H35.449L34.3193 12.842C34.1171 13.5019 33.9378 14.0974 33.8116 14.6183C33.7148 14.2065 33.5985 13.7468 33.4766 13.2642L32.3811 9.00783L32.3631 8.94046H31.5987L33.4339 15.8909L33.4515 15.9587H34.1029L35.2834 11.977C35.4893 11.2981 35.6444 10.7648 35.7564 10.2984C35.857 10.7904 35.9965 11.3313 36.1716 11.9723L37.1921 15.8913L37.2097 15.9592H37.8711L39.9393 9.05765L39.9748 8.94046H39.2067L38.0666 12.8344V12.8348Z" fill="#3AAA35"/>
<path d="M42.3823 10.7752C41.0087 10.7752 40.0859 11.8755 40.0859 13.5129C40.0859 15.0364 41.041 16.0598 42.4625 16.0598C43.3559 16.0598 43.8635 15.8306 44.0405 15.7324L44.1492 15.6717L43.8275 15.1142L43.7516 15.1488C43.5001 15.2655 43.158 15.3841 42.5232 15.3841C41.4822 15.3841 40.8649 14.6995 40.8227 13.5038H44.3427L44.366 13.3999C44.3883 13.2956 44.3883 13.2192 44.3883 13.0811C44.3883 12.8937 44.3622 12.237 44.023 11.6672C43.6709 11.0746 43.1191 10.7743 42.3823 10.7743M40.8626 12.8586C41.0486 11.8133 41.7351 11.439 42.322 11.439C42.6954 11.439 42.9948 11.551 43.2131 11.7735C43.5352 12.1009 43.6083 12.5753 43.6211 12.8586H40.8621H40.8626Z" fill="#3AAA35"/>
<path d="M50.0572 15.1052H50.0567C49.6771 15.2802 49.1448 15.3851 48.6324 15.3851C46.9267 15.3851 45.9085 14.3071 45.9085 12.5008C45.9085 10.6946 46.9566 9.50603 48.7126 9.50603C49.1984 9.50603 49.6601 9.5976 50.0131 9.76366L50.089 9.79925L50.432 9.20427L50.3295 9.14781C50.1938 9.07332 49.6767 8.83087 48.7021 8.83087C46.5732 8.83087 45.1427 10.3012 45.1427 12.4904C45.1427 15.1246 46.9362 16.0598 48.4715 16.0598C49.3365 16.0598 50.0112 15.8766 50.3547 15.7049L50.4666 15.6484L50.1326 15.07L50.0572 15.1047V15.1052Z" fill="#3AAA35"/>
<path d="M53.5255 10.7752C53.1498 10.7752 52.7896 10.8786 52.4874 11.0732C52.3133 11.1733 52.1515 11.3109 52.0134 11.4755V8.83133H51.269V15.9601H52.0134V12.8923C52.0134 12.7082 52.0215 12.5895 52.0661 12.4548C52.2748 11.8693 52.8214 11.4603 53.395 11.4603C54.4313 11.4603 54.5859 12.4135 54.5859 12.9824V15.9601H55.3309V12.9326C55.3309 10.8796 53.8268 10.7757 53.5255 10.7757" fill="#3AAA35"/>
<path d="M61.9809 9.80492H61.2355V10.9322H60.4237V11.5405H61.2355V14.4452C61.2355 15.0235 61.3437 15.4282 61.5643 15.6788C61.7641 15.9345 62.0843 16.0702 62.49 16.0702C62.7718 16.0702 63.0157 16.0261 63.2145 15.9388L63.3345 15.8861L63.0214 15.3443L62.9569 15.3585C62.8439 15.3827 62.7073 15.3946 62.5507 15.3946C62.1512 15.3946 61.9809 15.1374 61.9809 14.5348V11.54H63.354V10.9318H61.9809V9.80444V9.80492Z" fill="#3AAA35"/>
<path d="M68.222 8.89111C67.728 8.89111 67.2308 8.93571 66.7454 9.02301L66.6368 9.04247V15.9596H67.3822V13.1077C67.5829 13.1447 67.8054 13.1532 68.0725 13.1532C68.9659 13.1532 69.7051 12.8704 70.1544 12.3585C70.4937 11.986 70.6597 11.5139 70.6597 10.9166C70.6597 10.3192 70.4657 9.84336 70.0985 9.49937C69.6909 9.10177 69.0423 8.89111 68.2229 8.89111M67.3831 9.61372C67.5292 9.58952 67.803 9.55583 68.203 9.55583C69.2909 9.55583 69.9148 10.0702 69.9148 10.9669C69.9148 11.9338 69.2577 12.4885 68.1128 12.4885C67.8908 12.4885 67.6108 12.4809 67.3831 12.4221V9.61372Z" fill="#3AAA35"/>
<path d="M78.8632 10.8853L77.659 14.0865C77.5627 14.3379 77.4773 14.588 77.4052 14.801C77.3293 14.568 77.2448 14.3289 77.1632 14.1149L75.9002 10.9683L75.8674 10.8853H75.0713L76.9279 15.5255C76.9777 15.6517 76.9791 15.6859 76.9791 15.6859C76.9791 15.7191 76.953 15.7869 76.9293 15.8462C76.6897 16.4147 76.3765 16.7956 76.1573 17.0148C75.8556 17.3052 75.5291 17.4547 75.3612 17.5173L75.226 17.5666L75.7877 18.1488C75.9144 18.1009 76.1123 17.9552 76.4861 17.6402C77.1267 17.0813 77.5318 16.232 78.1458 14.6539L79.6114 11.0096L79.6627 10.8848H78.8632V10.8853Z" fill="#3AAA35"/>
<path d="M59.8397 14.6852V12.8016C59.8397 11.4755 59.2186 10.7752 58.0438 10.7752C57.5253 10.7752 56.9692 10.937 56.5592 11.207L56.4824 11.2535L56.806 11.8129L56.8871 11.7583C57.1884 11.5533 57.5817 11.4395 57.994 11.4395H58.0111C58.3423 11.4395 58.5999 11.5287 58.7769 11.7037C58.9904 11.9153 59.0943 12.2475 59.0948 12.7181C57.9442 12.7219 57.1134 12.9686 56.6247 13.4526C56.3149 13.7591 56.1583 14.1501 56.1583 14.615C56.1583 15.3158 56.6418 16.0702 57.7036 16.0702C58.4438 16.0702 58.9173 15.712 59.1659 15.4501L59.2172 15.9601H59.9322L59.9075 15.8074C59.8477 15.4368 59.8397 15.0492 59.8397 14.6857M57.1931 13.8554C57.5177 13.5408 58.1264 13.3819 59.0027 13.3819H59.0933L59.0948 14.2853C59.0948 14.3484 59.0877 14.4423 59.0516 14.5329C58.9074 14.9552 58.4913 15.406 57.7535 15.406C57.3706 15.406 56.9232 15.1777 56.9232 14.5358C56.9232 14.2587 57.0138 14.0295 57.1931 13.8554Z" fill="#3AAA35"/>
<path d="M74.5181 14.6852V12.8021C74.5181 11.476 73.8975 10.7757 72.7227 10.7757C72.2335 10.7757 71.6998 10.9242 71.2955 11.1723L71.2206 11.2193L71.5403 11.773L71.6201 11.7232C71.9137 11.541 72.2871 11.4399 72.6719 11.4399H72.6895C73.0197 11.4399 73.2773 11.5291 73.4548 11.7042C73.6678 11.9158 73.7717 12.2479 73.7722 12.7186C72.6226 12.7224 71.7918 12.9696 71.3026 13.4526C70.9933 13.7596 70.8362 14.15 70.8362 14.615C70.8362 15.3153 71.3197 16.0697 72.3806 16.0697C73.1213 16.0697 73.5952 15.712 73.8434 15.4496L73.8941 15.9596H74.6101L74.5854 15.8069C74.5247 15.4344 74.5166 15.0482 74.5166 14.6852M73.7717 14.2848C73.7717 14.3484 73.7641 14.4433 73.729 14.5325C73.5848 14.9543 73.1682 15.4055 72.4309 15.4055C72.048 15.4055 71.6006 15.1772 71.6006 14.5353C71.6006 14.2582 71.6912 14.0295 71.8706 13.8549C72.1946 13.5404 72.8038 13.3814 73.6792 13.3814H73.7708L73.7713 14.2848H73.7717Z" fill="#3AAA35"/>
</svg>
