<svg width="75" height="24" viewBox="0 0 75 24" fill="none" xmlns="http://www.w3.org/2000/svg">
    <path fill-rule="evenodd" clip-rule="evenodd"
          d="M33.5504 8.4115L31.4441 11.473L29.3253 8.4115H27.6453L30.5791 12.5269L27.4949 16.8431H29.1749L31.4441 13.5934L33.6883 16.8431H35.3683L32.2841 12.5269L35.2178 8.4115H33.5504Z"
          fill="#446CB3"/>
    <path fill-rule="evenodd" clip-rule="evenodd"
          d="M39.9192 9.51563C40.5336 9.51563 41.01 9.71638 41.3359 10.1053C41.6494 10.4818 41.8249 11.0338 41.8374 11.7365H37.7628C37.8381 11.0589 38.0637 10.5194 38.4148 10.1304C38.7909 9.71638 39.2924 9.51563 39.9192 9.51563ZM39.9318 8.26093C38.8034 8.26093 37.8882 8.66243 37.2237 9.46544C36.5593 10.2559 36.2208 11.3475 36.2208 12.69C36.2208 14.0326 36.5843 15.0865 37.299 15.8393C38.0136 16.5922 39.0166 16.9811 40.2577 16.9811C40.8219 16.9811 41.2983 16.9435 41.6995 16.8557C42.1007 16.7678 42.527 16.6298 42.9658 16.4416L43.0285 16.4165V15.074L42.878 15.1367C42.0255 15.5006 41.1604 15.6888 40.2953 15.6888C39.493 15.6888 38.8536 15.4504 38.4148 14.9736C37.9885 14.5094 37.7503 13.8318 37.7127 12.9535H43.3795V12.0627C43.3795 10.9334 43.0661 10.005 42.4517 9.31488C41.8374 8.61224 40.9849 8.26093 39.9318 8.26093Z"
          fill="#446CB3"/>
    <path fill-rule="evenodd" clip-rule="evenodd"
          d="M49.2846 8.26093C48.7078 8.26093 48.1687 8.37385 47.7049 8.5997C47.2911 8.80045 46.9401 9.07648 46.6894 9.4278L46.5013 8.39894H45.2977V16.8306H46.752V12.414C46.752 11.3726 46.9401 10.6198 47.3288 10.1806C47.7049 9.74148 48.3192 9.51563 49.1341 9.51563C49.7484 9.51563 50.1998 9.6662 50.4881 9.97987C50.7765 10.2935 50.9144 10.7703 50.9144 11.4102V16.8306H52.3687V11.36C52.3687 10.281 52.1054 9.49054 51.5914 8.98865C51.0774 8.51187 50.3001 8.26093 49.2846 8.26093Z"
          fill="#446CB3"/>
    <path fill-rule="evenodd" clip-rule="evenodd"
          d="M57.9352 15.7264C57.2206 15.7264 56.6941 15.4755 56.3305 14.9736C55.9669 14.4592 55.7788 13.6813 55.7788 12.6649C55.7788 11.6612 55.9669 10.8707 56.343 10.3187C56.7066 9.77913 57.2332 9.51564 57.9352 9.51564C58.7502 9.51564 59.3394 9.75403 59.703 10.2183C60.0791 10.6951 60.2672 11.5106 60.2672 12.6399V12.9033C60.2672 13.9071 60.0791 14.6348 59.7155 15.074C59.3394 15.5131 58.7502 15.7264 57.9352 15.7264ZM60.2421 8.4115L60.2672 8.98866L60.3048 9.36508C59.703 8.6248 58.8504 8.24839 57.7723 8.24839C56.669 8.24839 55.8039 8.63735 55.1896 9.41526C54.5753 10.1806 54.2618 11.2597 54.2618 12.6399C54.2618 14.0075 54.5753 15.0865 55.1771 15.8394C55.7914 16.5922 56.669 16.9811 57.7723 16.9811C58.8881 16.9811 59.7531 16.5922 60.3424 15.8143L60.4928 16.8306H61.7089V4.96106H60.2546L60.2421 8.4115Z"
          fill="#446CB3"/>
    <path fill-rule="evenodd" clip-rule="evenodd"
          d="M64.8683 5.34998C64.6301 5.34998 64.4295 5.42526 64.2665 5.57582C64.1035 5.72639 64.0283 5.96478 64.0283 6.27846C64.0283 6.59213 64.1035 6.81798 64.2665 6.98109C64.4295 7.1442 64.6301 7.21949 64.8683 7.21949C65.094 7.21949 65.2946 7.1442 65.4576 6.98109C65.6205 6.81798 65.7083 6.59213 65.7083 6.27846C65.7083 5.96478 65.6205 5.73893 65.4576 5.57582C65.2946 5.42526 65.094 5.34998 64.8683 5.34998Z"
          fill="#446CB3"/>
    <path fill-rule="evenodd" clip-rule="evenodd" d="M64.1285 16.8431H65.5954V8.4115H64.1285V16.8431Z" fill="#446CB3"/>
    <path fill-rule="evenodd" clip-rule="evenodd"
          d="M71.8765 15.6008C71.7637 15.6384 71.6007 15.6635 71.4001 15.7011C71.1995 15.7262 70.9989 15.7513 70.7732 15.7513C70.3971 15.7513 70.0962 15.6384 69.8831 15.3875C69.67 15.1491 69.5571 14.7852 69.5571 14.321V9.59072H71.9392V8.4113H69.5571V6.50415H68.6544L68.1153 8.28583L66.9243 8.81281V9.59072H68.1028V14.3712C68.1028 16.1026 68.9428 16.9935 70.5977 16.9935C70.8108 16.9935 71.049 16.9684 71.3249 16.9307C71.6007 16.8806 71.8013 16.8304 71.9517 16.7551L72.0144 16.73V15.5631L71.8765 15.6008Z"
          fill="#446CB3"/>
    <path d="M14.3587 2H8.7671L3 12L8.7671 22L9.90799 20.0301L5.28177 12L9.90799 3.98243H13.2178L14.3587 2Z"
          fill="#446CB3"/>
    <path d="M10.422 8.78794L11.5503 6.8306L9.90797 3.98242L8.76709 5.93976L10.422 8.78794Z" fill="#D24D57"/>
    <path d="M16.8912 3.98242L18.0321 5.95231L9.90797 20.0301L8.76709 18.0602L16.8912 3.98242Z" fill="#D24D57"/>
    <path d="M12.453 22L13.5813 20.0301H16.8912L21.5174 12L16.8912 3.98243L18.032 2L23.7992 12L18.032 22H12.453Z"
          fill="#446CB3"/>
    <path d="M16.3521 15.1744L15.2112 17.1443L16.8912 20.0301L18.032 18.0728L16.3521 15.1744Z" fill="#D24D57"/>
</svg>
