<svg width="94" height="24" viewBox="0 0 94 24" fill="currentBackgroundColor" xmlns="http://www.w3.org/2000/svg">
<path d="M20.3481 3C15.3355 3 11.3481 7.04431 11.3481 12C11.3481 17.0126 15.3925 21 20.3481 21C25.3038 21 29.3481 16.9557 29.3481 12C29.4051 7.04431 25.3038 3 20.3481 3ZM20.3481 15.3607C18.5254 15.3607 16.9874 13.8228 16.9874 12C16.9874 10.1772 18.5254 8.63926 20.3481 8.63926C22.1709 8.63926 23.7089 10.1772 23.7089 12C23.7089 13.8228 22.2279 15.3607 20.3481 15.3607Z" fill="#8B3FFD"/>
<path d="M11.3481 5.62036V18.7216H8.10126L4 5.62036H11.3481Z" fill="#8B3FFD"/>
<path d="M87.2784 7.95569L85.2848 12.8544C85.2279 12.9114 85.2279 13.0253 85.2279 13.0823L85.1706 13.1962L85.1138 13.0823C85.1138 13.0253 85.0569 12.9114 85.0569 12.8544L83.0632 7.95569H80.5L83.8606 16.3291L82.4368 19.519H85L89.7279 7.95569H87.2784Z" fill="black"/>
<path d="M68.3669 8.41144C67.9112 8.06965 67.3416 7.84181 66.658 7.78486C65.519 7.67092 64.4368 8.06965 63.6963 8.81017V7.8988H61.3606V16.2722H63.6963V11.8861C63.6963 10.9178 63.8669 10.633 64.0379 10.4051C64.3227 9.94943 64.8353 9.72159 65.4621 9.72159C66.0885 9.72159 66.658 10.0064 66.9431 10.4621C67.1138 10.8039 67.1706 11.2595 67.1706 11.4874C67.1706 12.2279 67.1706 16.2722 67.1706 16.2722H69.5063V11.2026C69.5063 9.89244 69.1074 8.98107 68.3669 8.41144Z" fill="black"/>
<path d="M56.9175 8.0127C55.7784 7.61396 54.5253 7.67095 53.3859 8.18359C52.6453 8.52538 51.9621 9.09497 51.5632 9.83549C51.1643 10.4621 50.9937 11.2595 50.9937 12.114C50.9937 12.9684 51.1643 13.7659 51.5632 14.3924C51.9621 15.019 52.4747 15.5886 53.158 15.9304C53.8416 16.2722 54.639 16.5001 55.3795 16.5001C55.7784 16.5001 56.1769 16.4431 56.5758 16.3292C56.9175 16.2152 57.2595 16.1013 57.6011 15.9304C58.2847 15.5317 58.8543 15.019 59.1963 14.3924C59.5948 13.7659 59.7658 12.9684 59.7658 12.114C59.8227 10.2342 58.7405 8.63928 56.9175 8.0127ZM57.6011 12.2279C57.5442 12.9684 57.3163 13.595 56.8606 13.9937C56.5189 14.2785 56.0063 14.4494 55.3795 14.5064C54.7531 14.5064 54.2974 14.3355 53.8985 13.9937C53.4431 13.595 53.2152 12.9684 53.158 12.2279C53.1011 11.3735 53.4431 10.6899 54.0695 10.2342C54.4111 10.0064 54.8669 9.83549 55.3227 9.83549C55.8353 9.83549 56.2342 10.0064 56.6327 10.2342C57.3163 10.633 57.658 11.3735 57.6011 12.2279Z" fill="black"/>
<path d="M48.3164 8.41137C47.8606 8.06962 47.2911 7.84178 46.6075 7.78479C46.4937 7.78479 46.3227 7.78479 46.209 7.78479C45.2974 7.78479 44.5 8.18353 43.8164 8.981L43.7026 9.15189H43.4748C43.3038 8.86709 43.0759 8.63925 42.848 8.46836C42.3922 8.12657 41.8227 7.89873 41.1391 7.84178C40.0569 7.72784 39.2025 8.06962 38.462 8.86709V8.01267H36.1266V16.3861H38.462V12V11.8861C38.462 10.9747 38.576 10.7468 38.7468 10.462C39.0316 10.0063 39.5443 9.72152 40.1138 9.77847C40.6837 9.77847 41.1963 10.0633 41.4811 10.519C41.709 10.8607 41.709 11.2595 41.709 11.6582V16.3291H44.0443V11.8291C44.0443 10.9747 44.158 10.6899 44.329 10.405C44.6138 9.94936 45.1264 9.72152 45.6963 9.72152C46.2658 9.72152 46.7216 10.0063 47.0064 10.462C47.1774 10.7468 47.2342 11.0886 47.2342 11.3165C47.2342 11.4304 47.2342 11.5443 47.2342 11.6013V16.2721H49.5696V11.1456C49.5696 10.6899 49.5127 10.2342 49.3986 9.83542C49.171 9.26583 48.829 8.75315 48.3164 8.41137Z" fill="black"/>
<path d="M78.2785 13.7659C77.9369 14.1077 77.1391 14.7342 76.0569 14.7912C75.1454 14.8481 74.4621 14.5633 73.9495 14.0507C73.7216 13.8228 73.5506 13.4811 73.4369 13.1393H79.8733V13.0823C79.9305 12.7406 79.9874 12.4558 79.9874 12.114C79.9874 11.8292 79.9305 11.4304 79.8164 10.9178C79.5317 9.9494 78.9621 9.20892 78.2216 8.63929C77.367 8.01271 76.5696 7.84182 76.3417 7.84182C74.69 7.55702 72.8101 8.2975 71.8417 9.8355C71.1581 10.9178 71.2153 12 71.2153 12.3418C71.2153 12.7406 71.2722 13.9937 72.2974 15.133C73.4937 16.4431 75.1454 16.5 75.6581 16.557C77.9369 16.614 79.4748 15.1899 79.8164 14.9051L78.2785 13.7659ZM74.2911 10.2342C74.6328 10.0064 75.0316 9.8355 75.5443 9.8355C76.0569 9.8355 76.4558 10.0064 76.8543 10.2342C77.1963 10.519 77.4811 10.8608 77.6517 11.2595H73.5506C73.6075 10.8608 73.8923 10.4621 74.2911 10.2342Z" fill="black"/>
</svg>
