<svg width="51" height="24" viewBox="0 0 51 24" fill="currentBackgroundColor" xmlns="http://www.w3.org/2000/svg">
  <path d="M12.9374 21C12.5163 20.9591 12.0907 20.9357 11.6725 20.8728C9.60781 20.5613 7.86478 19.6284 6.43322 18.1149C5.15958 16.7667 4.36996 15.1714 4.10528 13.3421C3.74849 10.884 4.29538 8.63212 5.79421 6.63612C7.17313 4.80097 8.99804 3.64432 11.2485 3.18663C11.8407 3.06672 12.4548 3.01115 13.0602 3.00969C21.5575 2.99799 30.0562 2.99799 38.5534 3.00384C41.0437 3.0053 43.1962 3.88705 44.964 5.633C46.4833 7.13475 47.3724 8.96405 47.5727 11.1004C47.8067 13.5804 47.1399 15.8031 45.5446 17.7128C44.0033 19.5567 42.019 20.6388 39.6136 20.9152C39.3167 20.9488 39.017 20.9708 38.7187 20.9971H12.9374V21Z" fill="white"/>
  <path d="M12.9374 21C12.5163 20.9591 12.0907 20.9357 11.6725 20.8728C9.60781 20.5613 7.86478 19.6284 6.43322 18.1149C5.15958 16.7667 4.36996 15.1714 4.10528 13.3421C3.74849 10.884 4.29538 8.63212 5.79421 6.63612C7.17313 4.80097 8.99804 3.64432 11.2485 3.18663C11.8407 3.06672 12.4548 3.01115 13.0602 3.00969C21.5575 2.99799 30.0562 2.99799 38.5534 3.00384C41.0437 3.0053 43.1962 3.88705 44.964 5.633C46.4833 7.13475 47.3724 8.96405 47.5727 11.1004C47.8067 13.5804 47.1399 15.8031 45.5446 17.7128C44.0033 19.5567 42.019 20.6388 39.6136 20.9152C39.3167 20.9488 39.017 20.9708 38.7187 20.9971H12.9374V21ZM25.801 3.56535C21.5926 3.56535 17.3842 3.56389 13.1743 3.56828C12.7722 3.56828 12.3671 3.59314 11.9694 3.64432C9.74672 3.92361 7.9145 4.94281 6.49317 6.65805C5.00897 8.4508 4.37873 10.5345 4.62147 12.8493C4.90222 15.5179 6.22119 17.5798 8.44238 19.061C9.88418 20.0232 11.5 20.4239 13.2269 20.4224C21.6291 20.4195 30.0328 20.4224 38.435 20.4195C38.7859 20.4195 39.1398 20.4078 39.4878 20.3683C41.2616 20.165 42.8291 19.4909 44.1744 18.308C45.1527 17.4481 45.9131 16.4289 46.4029 15.227C47.2159 13.231 47.2744 11.2086 46.5564 9.16731C46.0344 7.68603 45.1454 6.46211 43.9361 5.47362C42.3436 4.17366 40.5012 3.56535 38.4496 3.56682C34.2339 3.56974 30.0182 3.56682 25.801 3.56682V3.56535Z" fill="black"/>
  <path d="M7.21997 11.9968C7.21997 8.83536 9.78333 6.28516 12.9638 6.28662C16.1281 6.28808 18.6944 8.84121 18.6959 11.9895C18.6959 15.1465 16.1252 17.7026 12.9491 17.6996C9.78333 17.6967 7.22143 15.1465 7.21997 11.9968ZM10.3682 15.4346C10.7908 15.4346 11.2909 15.4434 11.655 15.4273C12.1376 14.7371 12.5222 14.196 12.8892 13.6492C13.0676 13.383 13.246 13.1169 13.4361 12.8347C13.3586 12.7791 13.2942 12.7338 13.2299 12.687C12.9374 12.4793 12.6377 12.2819 12.3555 12.0611C12.0455 11.8199 11.8481 11.5011 11.772 11.1092C11.6404 10.4248 11.8729 9.89404 12.4227 9.65569C12.8453 9.47291 13.2899 9.48899 13.7695 9.51093V15.4127H14.9554V8.56045C14.3456 8.56045 13.7519 8.55022 13.1597 8.56484C12.876 8.57069 12.588 8.59993 12.3101 8.65696C11.3363 8.85583 10.6782 9.5197 10.5598 10.3927C10.4384 11.292 10.6958 12.0567 11.3801 12.665C11.5541 12.82 11.7384 12.9648 11.9285 13.1242C11.4181 13.8802 10.9107 14.6303 10.3682 15.436V15.4346Z" fill="#FC3F1D"/>
  <path d="M22.546 15.4288H20.8453V7.34241C21.3103 7.34241 23.337 7.34533 24.5361 7.39066C24.9455 7.40675 25.3638 7.51496 25.7527 7.65387C26.7061 7.99312 27.2077 8.70378 27.2691 9.7069C27.2896 10.0315 27.2735 10.3693 27.2106 10.6881C26.9956 11.7658 26.247 12.3214 25.2292 12.5101C24.5931 12.6285 24.1047 12.7484 22.5401 12.7484C22.5474 13.5015 22.543 15.3279 22.543 15.4288H22.546ZM22.5635 8.65406V11.4148C23.2084 11.3856 23.8415 11.4031 24.4601 11.3183C25.2058 11.216 25.548 10.7232 25.5275 9.92916C25.51 9.18779 25.1444 8.73449 24.4001 8.66576C23.7991 8.6102 23.1894 8.65406 22.5635 8.65406Z" fill="black"/>
  <path d="M32.4675 14.8263C32.0069 15.205 31.52 15.4302 30.9672 15.4887C30.3721 15.5516 29.7799 15.5618 29.2169 15.3118C28.5296 15.0062 28.1933 14.4724 28.1875 13.7208C28.1816 12.9809 28.5165 12.4647 29.1862 12.162C29.8267 11.874 30.5139 11.8111 31.2027 11.776C31.6179 11.7541 32.0347 11.7716 32.4412 11.7716C32.567 11.1867 32.3052 10.808 31.732 10.7261C30.7596 10.5872 29.8208 10.7378 28.9098 11.0931C28.8426 11.1194 28.7767 11.1472 28.6773 11.1867C28.6773 10.6647 28.6861 10.4205 28.6861 10.0008C29.1175 9.83995 29.7857 9.62938 30.2668 9.56066C31.0754 9.44514 31.8899 9.44368 32.6942 9.62061C33.6914 9.83995 34.1769 10.4453 34.1886 11.4704C34.2018 12.6636 34.2164 13.8553 34.231 15.0486C34.2325 15.1655 34.2486 15.2811 34.2617 15.4419C34.1199 15.4419 33.4004 15.439 32.817 15.4463C32.662 15.4478 32.5977 15.4302 32.5977 15.4302C32.5977 15.4302 32.5055 14.9988 32.4661 14.8278L32.4675 14.8263ZM32.5041 12.7893C31.9996 12.7893 31.5317 12.7747 31.0652 12.7952C30.8502 12.8054 30.6309 12.8654 30.4262 12.9356C30.0869 13.0526 29.9276 13.2924 29.9276 13.6302C29.9276 13.9723 30.084 14.2092 30.4057 14.3452C31.0038 14.5982 31.9352 14.4169 32.39 13.9519C32.4383 13.9021 32.4982 13.8349 32.4997 13.7735C32.5099 13.4401 32.5041 13.1052 32.5041 12.7879V12.7893Z" fill="black"/>
  <path d="M39.8256 15.224C39.6209 15.7036 39.3752 16.1599 39.0111 16.5415C38.6763 16.8939 38.2756 17.1147 37.7931 17.1849C37.3032 17.2566 36.6306 17.1732 36.1524 17.0328C36.1524 16.5985 36.1553 16.369 36.1553 15.9595C36.4975 16.0005 36.825 16.0575 37.1541 16.0707C37.3061 16.0765 37.4962 16.097 37.6308 16.0209C37.7916 15.9303 37.9247 15.8352 38.0197 15.6554C37.2067 13.8495 35.3291 9.68931 35.2838 9.57818C35.8614 9.57818 37.0254 9.57233 37.0254 9.57233C37.0254 9.57233 38.8313 13.8202 38.8825 13.9401C38.9263 13.8378 40.3637 10.204 40.6079 9.57233C41.111 9.57233 41.728 9.57671 42.215 9.57671" fill="black"/>
</svg>