<svg width="24" height="24" viewBox="0 0 24 24" xmlns="http://www.w3.org/2000/svg">
  <path d="M17.25 18.501C17.25 18.501 18.3162 19.2822 19.6562 19.2822C20.9962 19.2821 22 18.501 22 18.501V20.7783C21.4365 21.0434 20.6768 21.2822 19.6562 21.2822C18.1845 21.2822 17.2071 20.7944 16.625 20.4385C16.2483 20.6727 15.7227 20.9552 15 21.127V21.1309C14.9744 21.1369 14.948 21.1407 14.9219 21.1465C14.8563 21.161 14.7895 21.176 14.7207 21.1885C14.7106 21.1903 14.7006 21.1926 14.6904 21.1943C14.6032 21.2097 14.5133 21.2218 14.4209 21.2334C14.3864 21.2377 14.3516 21.2423 14.3164 21.2461C14.2407 21.2542 14.1632 21.2603 14.084 21.2656C14.0578 21.2674 14.0315 21.27 14.0049 21.2715L14 21.2725C13.8888 21.2785 13.7743 21.2822 13.6562 21.2822C12.1845 21.2822 11.2071 20.7944 10.625 20.4385C10.0459 20.7985 9.11686 21.2822 7.65625 21.2822C6.18451 21.2822 5.20706 20.7944 4.625 20.4385C4.09271 20.7695 3.26468 21.2042 2 21.2725V19.2646C3.16426 19.1507 4 18.501 4 18.501L4.625 18.001L5.25 18.501C5.25 18.501 6.31616 19.2822 7.65625 19.2822C8.99622 19.2821 10 18.501 10 18.501L10.625 18.001L11.25 18.501C11.25 18.501 12.3162 19.2822 13.6562 19.2822C13.7736 19.2822 13.8883 19.2756 14 19.2646L14.2139 19.2373C14.2753 19.2277 14.3354 19.2154 14.3945 19.2031C14.606 19.1594 14.8026 19.1014 14.9805 19.0361C15.6051 18.8071 16 18.501 16 18.501L16.625 18.001L17.25 18.501ZM7.85938 2.00098C9.5311 2.00101 11.0922 2.83658 12.0195 4.22754L13.6445 6.66504C14.2009 7.4996 15.1376 8.00094 16.1406 8.00098H22V10.001H16.1406C14.4689 10.0009 12.9078 9.16538 11.9805 7.77441L10.3555 5.33691C9.79909 4.50235 8.86239 4.00101 7.85938 4.00098H4V5.00098H5.85938C7.5311 5.00101 9.09222 5.83658 10.0195 7.22754L11.6445 9.66504C12.2009 10.4996 13.1376 11.0009 14.1406 11.001H22V13.001H14.1406C12.4689 13.0009 10.9078 12.1654 9.98047 10.7744L8.35547 8.33691C8.01945 7.83289 7.54428 7.45146 7 7.22754V13.3926L6.37891 13.8896L6.375 13.8926C6.35761 13.9049 6.32708 13.9255 6.28516 13.9521C6.20038 14.0061 6.07081 14.0819 5.90723 14.1582C5.65569 14.2756 5.34393 14.3841 5 14.4307V13.001H4V15.2197C4.20834 15.2573 4.42812 15.2822 4.65625 15.2822C5.99622 15.2821 7 14.501 7 14.501L7.625 14.001L8.25 14.501C8.25 14.501 9.31616 15.2822 10.6562 15.2822C11.9962 15.2821 13 14.501 13 14.501L13.625 14.001L14.25 14.501C14.25 14.501 14.3679 14.5855 14.5732 14.7002C14.6874 14.764 14.8284 14.8373 14.9922 14.9092C15.4226 15.0981 16.0073 15.2822 16.6562 15.2822C17.9962 15.2821 19 14.501 19 14.501L19.625 14.001L20.25 14.501C20.25 14.501 20.9845 15.0366 22 15.2197V17.2471C20.8878 17.1309 20.1158 16.7386 19.625 16.4385C19.0459 16.7985 18.1169 17.2822 16.6562 17.2822C16.012 17.2822 15.463 17.1858 15 17.0508V17.0537C14.9381 17.0357 14.8782 17.0155 14.8193 16.9961C14.8003 16.9898 14.7814 16.9839 14.7627 16.9775C14.691 16.953 14.6218 16.9274 14.5547 16.9014C14.4349 16.8548 14.3221 16.8071 14.2168 16.7578C14.2038 16.7517 14.1915 16.7444 14.1787 16.7383C14.1169 16.7087 14.0568 16.68 14 16.6504V16.6475C13.8609 16.5749 13.7351 16.5058 13.625 16.4385C13.0459 16.7985 12.1169 17.2822 10.6562 17.2822C9.18451 17.2822 8.20706 16.7944 7.625 16.4385C7.04592 16.7985 6.11686 17.2822 4.65625 17.2822C3.46384 17.2822 2.59596 16.9613 2 16.6504V2.00098H7.85938ZM4 11.001H5V10.001H4V11.001ZM4 8.00098H5V7.00098H4V8.00098ZM19 2.00098C19.9904 2.00098 20.7952 2.34244 21.3311 2.98535C21.8401 3.59624 22 4.3524 22 5.00098H20C20 4.64963 19.9098 4.40573 19.7939 4.2666C19.7048 4.15957 19.5095 4.00098 19 4.00098C18.4477 4.00098 18 4.44869 18 5.00098V7.50098H16C16 6.67255 15.3284 6.00098 14.5 6.00098V4.00098C15.0632 4.00098 15.595 4.13473 16.0664 4.37109C16.3558 3.01668 17.5592 2.00098 19 2.00098Z" fill="currentColor"/>
</svg>
