<svg width="24" height="24" viewBox="0 0 24 24" xmlns="http://www.w3.org/2000/svg">
  <path fill-rule="evenodd" clip-rule="evenodd" d="M20.2085 10.6356C19.3423 7.69291 16.9369 5.40951 13.9238 4.71718C14.5799 4.1428 15.0341 3.32469 15.0341 2.5C15.0341 2.22386 14.8103 2 14.5341 2C14.258 2 14.0341 2.22386 14.0341 2.5C14.0341 3.42247 13.0574 4.40878 12.1381 4.50111C12.1171 4.50077 12.096 4.50052 12.0749 4.50034C11.7531 4.6117 11.5499 4.85215 11.4459 5.14749C11.3299 5.4769 11.3543 5.83284 11.4612 6.06256C11.6723 6.51652 12.4684 6.9368 13.2771 6.47895C13.5174 6.3429 13.8225 6.42741 13.9586 6.66771C14.0946 6.90801 14.0101 7.2131 13.7698 7.34915C12.4535 8.09443 11.0119 7.46783 10.5545 6.48429C10.327 5.99527 10.3085 5.36683 10.5026 4.81538C10.5262 4.74843 10.5532 4.68206 10.5835 4.61673C7.33503 5.15799 4.70577 7.52953 3.79152 10.6356C3.67814 10.6195 3.56227 10.6111 3.44444 10.6111C2.09442 10.6111 1 11.7055 1 13.0556C1 14.4056 2.09442 15.5 3.44444 15.5C3.56227 15.5 3.67814 15.4917 3.79152 15.4756C4.83545 19.0222 8.11539 21.6111 12 21.6111C15.8846 21.6111 19.1646 19.0222 20.2085 15.4756C20.3219 15.4917 20.4377 15.5 20.5555 15.5C21.9056 15.5 23 14.4056 23 13.0556C23 11.7055 21.9056 10.6111 20.5555 10.6111C20.4377 10.6111 20.3219 10.6195 20.2085 10.6356ZM10.345 12.8986C10.4832 13.1377 10.7891 13.2193 11.0281 13.0811C11.2672 12.9428 11.3489 12.6369 11.2106 12.3979C11.0536 12.1265 10.8572 11.856 10.5827 11.6549C10.297 11.4456 9.95704 11.3335 9.55555 11.3335C9.15406 11.3335 8.81407 11.4456 8.52841 11.6549C8.25389 11.856 8.0575 12.1266 7.90053 12.3979C7.76226 12.6369 7.84394 12.9428 8.08297 13.0811C8.322 13.2193 8.62787 13.1377 8.76614 12.8986C8.89094 12.6829 9.00406 12.546 9.11941 12.4615C9.22361 12.3852 9.35384 12.3335 9.55555 12.3335C9.75725 12.3335 9.88749 12.3852 9.9917 12.4615C10.1071 12.546 10.2202 12.6829 10.345 12.8986ZM9.57042 15.1631C9.38432 14.959 9.06807 14.9445 8.86406 15.1306C8.66004 15.3167 8.64553 15.633 8.83163 15.837C9.61272 16.6933 10.6089 17.2222 12.0001 17.2222C13.3914 17.2222 14.3875 16.6933 15.1686 15.837C15.3547 15.633 15.3402 15.3167 15.1362 15.1306C14.9322 14.9445 14.6159 14.959 14.4298 15.1631C13.8232 15.8281 13.0886 16.2222 12.0001 16.2222C10.9116 16.2222 10.1771 15.8281 9.57042 15.1631ZM15.917 13.0811C15.678 13.2193 15.3721 13.1377 15.2338 12.8986C15.109 12.6829 14.9959 12.546 14.8806 12.4615C14.7763 12.3852 14.6461 12.3335 14.4444 12.3335C14.2427 12.3335 14.1125 12.3852 14.0083 12.4615C13.8929 12.546 13.7798 12.6829 13.655 12.8986C13.5167 13.1377 13.2109 13.2193 12.9718 13.0811C12.7328 12.9428 12.6511 12.6369 12.7894 12.3979C12.9464 12.1266 13.1427 11.856 13.4173 11.6549C13.7029 11.4456 14.0429 11.3335 14.4444 11.3335C14.8459 11.3335 15.1859 11.4456 15.4715 11.6549C15.7461 11.856 15.9425 12.1265 16.0994 12.3979C16.2377 12.6369 16.156 12.9428 15.917 13.0811Z" fill="currentColor"/>
</svg>
