<svg width="24" height="24" viewBox="0 0 24 24" xmlns="http://www.w3.org/2000/svg">
  <path d="M13.8975 2.53748C9.19131 2.0002 4.96764 4.51749 4.5 6L23.1011 9.3829C23.1707 7.7213 19.9868 3.95533 15.3751 2.80613C15.2656 2.56734 15.0318 2.14447 14.7333 2.08975C14.4348 2.03502 14.0766 2.35341 13.8975 2.53748Z" fill="currentColor"/>
  <path d="M4.70628 8.27462L9.84532 9.2099L10.502 8.26467L4.39783 7.15528L4.70628 8.27462Z" fill="currentColor"/>
  <path d="M8.5 13V12.194C8.5 12.0846 8.41046 12 8.30599 12H3.69401C3.58954 12 3.5 12.0846 3.5 12.194V13H8.5Z" fill="currentColor"/>
  <path d="M8.5 14H3.5V15H8.5V14Z" fill="currentColor"/>
  <path d="M9 15.204V18.01C8.99005 18.01 8.9801 18.01 8.97015 18.005L3 18V15.199C3 15.0896 2.91542 15 2.80597 15L1.19403 15.005C1.08955 15.005 1 15.0945 1 15.204V16H2V20.9829L2.80597 20.9804C2.91045 20.9804 3 20.8959 3 20.7864V19L8.97015 19.005C8.97512 19.005 8.98009 19.0037 8.98505 19.0025C8.99003 19.0013 8.99503 19 9 19V20.7914C9 20.8959 9.08458 20.9854 9.19403 20.9854H10V16H11V15.204C11 15.0945 10.9154 15.005 10.806 15.005H9.19403C9.08955 15.005 9 15.0945 9 15.204Z" fill="currentColor"/>
  <path d="M3.5 16V16.801C3.5 16.9105 3.58456 17 3.69401 17H8.30599C8.41046 17 8.5 16.9105 8.5 16.801V16H3.5Z" fill="currentColor"/>
  <path d="M10.5965 8.28458L10.905 9.40392L13.1735 9.81186L11.3732 20.9357C11.5821 20.9606 11.7911 20.9805 12 20.9854L13.7904 9.92131L16.049 10.3342L16.7007 9.39397L10.5965 8.28458Z" fill="currentColor"/>
  <path d="M17.1037 10.5282L22.2427 11.4635L22.9193 10.5233L16.7952 9.40889L17.1037 10.5282Z" fill="currentColor"/>
</svg>
