<svg width="24" height="24" viewBox="0 0 24 24" fill="none" xmlns="http://www.w3.org/2000/svg">
  <path d="M10.9924 7.00282H12.9924V11.5888L15.4065 14.0028L13.9924 15.4169L11.2854 12.7099C11.0979 12.5223 10.9924 12.268 10.9924 12.0028V7.00282Z" fill="currentColor"/>
  <path d="M3.01245 12C3.01245 12.7304 3.26132 14.0953 3.26132 14.0953L1.51657 15.3C1.51657 15.3 1.01245 13.1485 1.01245 12C1.01265 5.92512 5.93755 1.00013 12.0124 1C13.1075 1 14.1671 1.16084 15.1677 1.45996L16.1257 1.74609L15.5535 3.66211L14.5955 3.37598L14.2869 3.29004C13.5614 3.10122 12.7993 3 12.0124 3C7.04212 3.00013 3.01265 7.02969 3.01245 12Z" fill="currentColor"/>
  <path d="M4.5322 19.0348L0 16.3496L1.51657 15.3L1.93338 15.0115L4.36038 13.337L4.5322 19.0348Z" fill="currentColor"/>
  <path d="M20.9927 12.0029C20.9927 11.2404 20.7322 9.81718 20.7322 9.81718L22.4625 8.62058C22.4625 8.62058 22.9927 10.8239 22.9927 12.0029C22.9926 18.0779 18.0677 23.0028 11.9927 23.0029C10.8976 23.0029 9.83804 22.8421 8.8374 22.543L7.87939 22.2568L8.45166 20.3408L9.40967 20.6269C10.2265 20.8711 11.0936 21.0029 11.9927 21.0029C16.9631 21.0028 20.9926 16.9734 20.9927 12.0029Z" fill="currentColor"/>
  <path d="M19.3325 5.0433L23.97 7.57114L22.4625 8.62058L21.9314 8.99021L19.5012 10.6661L19.3325 5.0433Z" fill="currentColor"/>
</svg>
