<svg width="24" height="24" viewBox="0 0 24 24" fill="none" xmlns="http://www.w3.org/2000/svg">
  <path d="M11.9996 1C5.92426 1 1 5.92426 1 11.9996C1 16.377 3.56364 20.1455 7.26521 21.9158L7.60949 15.2633C7.60949 15.2633 6.9619 15.0508 6.82015 14.9816C5.44659 14.3766 4.44876 12.5951 4.44876 10.283C4.44876 7.75994 6.40543 5.58677 8.29716 5.56882C8.29956 5.56882 8.29956 5.56882 8.30113 5.56882C8.30195 5.56882 8.30353 5.56882 8.30428 5.56882C10.1964 5.5867 12.1532 7.75988 12.1532 10.283C12.1532 12.5951 11.1541 14.3758 9.78335 14.9816C9.77259 14.9863 8.9877 15.2713 8.9877 15.2713L9.3722 22.6681C10.2159 22.8758 11.0932 22.9977 12.0011 22.9977C13.2254 22.9977 14.3979 22.7891 15.4981 22.4205L15.8388 15.8286C14.9409 15.6311 14.1751 15.0595 13.6951 14.3424C13.1004 13.4516 14.1528 5.56806 14.1528 5.56806H14.8374V12.966H15.5172V5.56889H16.2607V12.9676H16.9374V5.56889H17.7088V12.9676H18.3877V5.56889H18.9131C18.9131 5.56889 19.9655 13.4524 19.3701 14.3432C18.8948 15.0533 18.1362 15.6232 17.2495 15.8254C17.2336 15.831 17.2192 15.8365 17.2192 15.8365L17.5153 21.5068C20.7918 19.6018 23 16.0627 23 11.9997C22.9984 5.92433 18.0741 1 11.9996 1Z" fill="currentColor" />
</svg>
