<svg width="24" height="24" viewBox="0 0 24 24" xmlns="http://www.w3.org/2000/svg">
<path d="M6 18.0137H10V14.0137H11V11.0137C11 9.71161 10.2815 9.01518 9 9.01367H7C5.71877 9.01367 5.00162 9.71346 5 11.0137V14.0137H6V18.0137Z" fill="currentColor"/>
<path d="M9.06565 7.57821C8.77525 7.86861 8.42005 8.0138 8.00006 8.0138C7.58006 8.0138 7.22526 7.869 6.93566 7.57941C6.64606 7.28981 6.50086 6.93461 6.50006 6.51381C6.49926 6.09301 6.64406 5.73821 6.93446 5.44942C7.22486 5.16062 7.58006 5.01542 8.00006 5.01382C8.42005 5.01222 8.77485 5.15702 9.06445 5.44822C9.35405 5.73941 9.49925 6.09461 9.50005 6.51381C9.50085 6.93301 9.35605 7.28781 9.06565 7.57821Z" fill="currentColor"/>
<path d="M19 13.0137L16 18.0137L13 13.0137H19Z" fill="currentColor"/>
<path d="M19 11.0137H13L16 6.01367L19 11.0137Z" fill="currentColor"/>
<path d="M2 18.0137V6.01367H4V18.0137H2Z" fill="currentColor"/>
<path d="M20 18.0137V6.01367H22V18.0137H20Z" fill="currentColor"/>
<path d="M2 20.0137H22V22.0137H2V20.0137Z" fill="currentColor"/>
<path d="M2 2.01367H22V4.01367H2V2.01367Z" fill="currentColor"/>
</svg>
