<svg width="24" height="24" viewBox="0 0 24 24" fill="none" xmlns="http://www.w3.org/2000/svg">
  <path d="M4.22191 7.05021C3.83139 6.65969 3.83139 6.02653 4.22191 5.636L5.63612 4.22179C6.02665 3.83126 6.65981 3.83126 7.05034 4.22179C7.44086 4.61231 7.44086 5.24548 7.05034 5.636L8.46455 4.22179C8.85508 3.83126 9.48824 3.83126 9.87877 4.22179C10.2693 4.61231 10.2693 5.24548 9.87877 5.636L10.5859 4.92888C10.9764 4.53836 11.6096 4.53836 12.0001 4.92888C12.3906 5.3194 12.3906 5.95257 12.0001 6.34309L9.87878 8.46442L15.5356 14.1213L17.6569 12C18.0475 11.6095 18.6806 11.6095 19.0711 12C19.4617 12.3905 19.4617 13.0237 19.0711 13.4142L18.364 14.1213C18.7546 13.7308 19.3877 13.7308 19.7782 14.1213C20.1688 14.5118 20.1688 15.145 19.7782 15.5355L18.364 16.9498C18.7546 16.5592 19.3877 16.5592 19.7782 16.9498C20.1688 17.3403 20.1688 17.9734 19.7782 18.364L18.364 19.7782C17.9735 20.1687 17.3403 20.1687 16.9498 19.7782C16.5593 19.3877 16.5593 18.7545 16.9498 18.364L15.5356 19.7782C15.1451 20.1687 14.5119 20.1687 14.1214 19.7782C13.7309 19.3877 13.7309 18.7545 14.1214 18.364L13.4143 19.0711C13.0238 19.4616 12.3906 19.4616 12.0001 19.0711C11.6096 18.6805 11.6096 18.0474 12.0001 17.6568L14.1214 15.5355L8.46457 9.87863L6.34325 11.9999C5.95273 12.3905 5.31956 12.3905 4.92904 11.9999C4.53851 11.6094 4.53851 10.9763 4.92904 10.5857L5.63613 9.87864C5.2456 10.2692 4.61244 10.2692 4.22191 9.87864C3.83139 9.48812 3.83139 8.85495 4.22191 8.46443L5.63612 7.05021C5.2456 7.44074 4.61243 7.44074 4.22191 7.05021Z" fill="currentColor"/>
</svg>
