<svg width="24" height="24" viewBox="0 0 24 24" xmlns="http://www.w3.org/2000/svg">
<path d="M17.25 19.167C17.25 19.167 18.3162 19.9482 19.6562 19.9482C20.9962 19.9481 22 19.167 22 19.167V21.4443C21.4365 21.7094 20.6768 21.9482 19.6562 21.9482C18.1845 21.9482 17.2071 21.4604 16.625 21.1045C16.2483 21.3387 15.7227 21.6213 15 21.793V21.7969C14.9744 21.803 14.948 21.8067 14.9219 21.8125C14.8563 21.827 14.7895 21.842 14.7207 21.8545C14.7106 21.8563 14.7006 21.8586 14.6904 21.8604C14.6032 21.8757 14.5133 21.8878 14.4209 21.8994C14.3864 21.9038 14.3516 21.9083 14.3164 21.9121C14.2407 21.9202 14.1632 21.9263 14.084 21.9316C14.0578 21.9334 14.0315 21.936 14.0049 21.9375L14 21.9385C13.8888 21.9445 13.7743 21.9482 13.6562 21.9482C12.1845 21.9482 11.2071 21.4604 10.625 21.1045C10.0459 21.4646 9.11686 21.9482 7.65625 21.9482C6.18451 21.9482 5.20706 21.4604 4.625 21.1045C4.09271 21.4355 3.26468 21.8702 2 21.9385V19.9307C3.16426 19.8167 4 19.167 4 19.167L4.625 18.667L5.25 19.167C5.25 19.167 6.31616 19.9482 7.65625 19.9482C8.99622 19.9481 10 19.167 10 19.167L10.625 18.667L11.25 19.167C11.25 19.167 12.3162 19.9482 13.6562 19.9482C13.7736 19.9482 13.8883 19.9416 14 19.9307L14.2139 19.9033C14.2753 19.8937 14.3354 19.8814 14.3945 19.8691C14.606 19.8254 14.8026 19.7674 14.9805 19.7021C15.6051 19.4731 16 19.167 16 19.167L16.625 18.667L17.25 19.167ZM20.25 15.167C20.25 15.167 20.9845 15.7026 22 15.8857V17.9131C20.8878 17.7969 20.1158 17.4046 19.625 17.1045C19.0459 17.4646 18.1169 17.9482 16.6562 17.9482C16.012 17.9482 15.463 17.8518 15 17.7168V17.7197C14.9381 17.7017 14.8782 17.6815 14.8193 17.6621C14.8003 17.6558 14.7814 17.6499 14.7627 17.6436C14.691 17.619 14.6218 17.5934 14.5547 17.5674C14.4349 17.5209 14.3221 17.4732 14.2168 17.4238C14.2038 17.4177 14.1915 17.4104 14.1787 17.4043C14.1169 17.3748 14.0568 17.3461 14 17.3164V17.3135C13.8609 17.2409 13.7351 17.1718 13.625 17.1045C13.0459 17.4646 12.1169 17.9482 10.6562 17.9482C9.18451 17.9482 8.20706 17.4604 7.625 17.1045C7.04592 17.4646 6.11686 17.9482 4.65625 17.9482C3.46384 17.9482 2.59596 17.6273 2 17.3164V14.9668L2.25 15.167C2.25 15.167 3.31616 15.9482 4.65625 15.9482C5.99622 15.9481 7 15.167 7 15.167L7.625 14.667L8.25 15.167C8.25 15.167 9.31616 15.9482 10.6562 15.9482C11.9962 15.9481 13 15.167 13 15.167L13.625 14.667L14.25 15.167C14.25 15.167 14.3679 15.2515 14.5732 15.3662C14.6874 15.43 14.8284 15.5033 14.9922 15.5752C15.4226 15.7641 16.0073 15.9482 16.6562 15.9482C17.9962 15.9481 19 15.167 19 15.167L19.625 14.667L20.25 15.167ZM17.25 11.167C17.25 11.167 18.3162 11.9482 19.6562 11.9482C20.9962 11.9481 22 11.167 22 11.167V13.4443C21.4365 13.7094 20.6768 13.9482 19.6562 13.9482C18.1845 13.9482 17.2071 13.4604 16.625 13.1045C16.2483 13.3387 15.7227 13.6213 15 13.793V13.7969C14.9744 13.803 14.948 13.8067 14.9219 13.8125C14.8563 13.827 14.7895 13.842 14.7207 13.8545C14.7106 13.8563 14.7006 13.8586 14.6904 13.8604C14.6032 13.8757 14.5133 13.8878 14.4209 13.8994C14.3864 13.9038 14.3516 13.9083 14.3164 13.9121C14.2407 13.9202 14.1632 13.9263 14.084 13.9316C14.0578 13.9334 14.0315 13.936 14.0049 13.9375L14 13.9385C13.8888 13.9445 13.7743 13.9482 13.6562 13.9482C12.1845 13.9482 11.2071 13.4604 10.625 13.1045C10.0459 13.4646 9.11686 13.9482 7.65625 13.9482C6.18451 13.9482 5.20706 13.4604 4.625 13.1045C4.09271 13.4355 3.26468 13.8702 2 13.9385V11.9307C3.16426 11.8167 4 11.167 4 11.167L4.625 10.667L5.25 11.167C5.25 11.167 6.31616 11.9482 7.65625 11.9482C8.99622 11.9481 10 11.167 10 11.167L10.625 10.667L11.25 11.167C11.25 11.167 12.3162 11.9482 13.6562 11.9482C13.7736 11.9482 13.8883 11.9416 14 11.9307L14.2139 11.9033C14.2753 11.8937 14.3354 11.8814 14.3945 11.8691C14.606 11.8254 14.8026 11.7674 14.9805 11.7021C15.6051 11.4731 16 11.167 16 11.167L16.625 10.667L17.25 11.167Z" fill="currentColor"/>
<path d="M17.3652 7.90527L16.1201 9.14941L15.0938 9.97266L15.0918 9.97363L15.0889 9.97559L15.0879 9.97656L15.085 9.97852L15.0771 9.9834L14.958 10.0596C14.8739 10.1096 14.7585 10.1716 14.6201 10.2314L14.4541 10.2979C14.409 10.3142 14.3606 10.3295 14.3096 10.3447L14.0615 10.4053C14.043 10.4091 14.0295 10.4121 14.0146 10.415C14.0004 10.4178 13.9911 10.4199 13.9854 10.4209L13.8398 10.4395C13.8232 10.4408 13.8001 10.4425 13.7666 10.4443L13.6436 10.4482C13.5694 10.4478 13.4954 10.4428 13.4219 10.4346L16.6582 7.19824L17.3652 7.90527Z" fill="currentColor"/>
<path d="M19.6621 9.22656L19.1777 10.3936C19.0524 10.3664 18.9304 10.3314 18.8145 10.29L18.5654 10.1895C18.4901 10.1556 18.4221 10.1222 18.3633 10.0908L18.248 10.0244L18.7373 8.84375L19.6621 9.22656Z" fill="currentColor"/>
<path d="M22 8.66699C18.6863 8.66699 16 5.9807 16 2.66699H22V8.66699Z" fill="currentColor"/>
<path d="M15.791 6.01172L10.248 8.30859L9.86523 7.38477L15.4082 5.08789L15.791 6.01172Z" fill="currentColor"/>
<path d="M15 3.66699H9V2.66699H15V3.66699Z" fill="currentColor"/>
</svg>
