<svg width="24" height="24" viewBox="0 0 24 24" xmlns="http://www.w3.org/2000/svg">
<path d="M14.5 12.7832V22.666H15.5V13.7842C15.133 13.4892 14.8175 13.1327 14.5732 12.7275C14.5498 12.7473 14.5239 12.764 14.5 12.7832ZM15 3.66602C13.5076 3.66602 12.207 4.48385 11.5195 5.69531C9.53697 5.93269 8 7.61951 8 9.66602C8 11.8752 9.79086 13.666 12 13.666C12.9472 13.666 13.8148 13.3335 14.5 12.7832V11.4746L11.7764 10.1133L12.2236 9.21875L14.5 10.3564V7.66602H15.5V11.8564L17.7764 10.7188L18.2236 11.6133L15.5 12.9746V13.7842C16.1848 14.3346 17.0529 14.666 18 14.666C20.2091 14.666 22 12.8752 22 10.666C22 8.76581 20.6749 7.17532 18.8984 6.76758C18.4907 4.99108 16.9002 3.66602 15 3.66602Z" fill="currentColor"/>
<path d="M12 17.666H3V18.666H12V17.666ZM13 19.666H2V20.666H3V22.666H5V20.666H10V22.666H12V20.666H13V19.666Z" fill="currentColor"/>
<path d="M3 17.666H12V18.666H3V17.666Z" fill="currentColor"/>
<path d="M3 15.666H12V16.666H3V15.666Z" fill="currentColor"/>
</svg>
