<svg width="24" height="24" viewBox="0 0 24 24" fill="none" xmlns="http://www.w3.org/2000/svg">
  <path fill-rule="evenodd" clip-rule="evenodd" d="M6.32007 19.0282H18.5C19.5374 19.0282 20.3201 19.9589 20.3201 21C20.3201 22.0411 19.3575 23.0282 18.3201 23.0282H6.32007C5.28262 23.0282 4.32007 22.0411 4.32007 21C4.32007 19.9589 5.28262 19.0282 6.32007 19.0282ZM7.23244 15.0282H17.3201C18.3201 15 18.8201 15.5725 18.8201 16.5C18.8201 17.4238 18.2402 18 17.3201 18H7.32007C6.32007 18 5.82007 17.4557 5.82007 16.5282C5.82007 15.6044 6.32007 15 7.23244 15.0282ZM8.32007 11.0282L16.3201 11.0282C17.1449 11.0282 17.8201 11.7034 17.8201 12.5282C17.8201 13.3567 17.1449 14.0342 16.3201 14.0342H8.32007C7.49524 14.0342 6.82007 13.356 6.82007 12.5312C6.82007 11.7027 7.49524 11.0282 8.32007 11.0282ZM10.3201 7.52819H15.1673C15.8748 7.52819 16.6013 8.03396 16.6013 8.74148C16.6013 9.449 15.8711 10.0282 15.1673 10.0282H10.2884C9.58084 10.0282 8.82007 9.50001 8.82007 8.74148C8.82007 8.03396 9.61622 7.52819 10.3201 7.52819ZM12.8787 6.00001H12.8494H12.8201C10.4666 6.00001 10.6285 4.67898 11.2884 3C11.3837 2.75439 11.4753 2.5271 11.5596 2.31448C12.2012 0.763803 13.4073 0.763803 14.0488 2.31448C14.1368 2.5271 14.2248 2.75439 14.3201 3C14.9836 4.67898 15.2322 6.00001 12.8787 6.00001Z" fill="currentColor" />
</svg>
