<svg width="24" height="24" viewBox="0 0 24 24" fill="none" xmlns="http://www.w3.org/2000/svg">
    <path d="M5.8335 3.4999C5.8335 4.87839 6.95491 6 8.3334 6C9.71189 6 10.8335 4.87839 10.8335 3.4999C10.8335 2.12142 9.71189 1 8.3334 1C6.95491 1 5.8335 2.12142 5.8335 3.4999Z" fill="currentColor"/>
    <path fill-rule="evenodd" clip-rule="evenodd" d="M21.9335 12.6309C22.1544 12.6309 22.3335 12.81 22.3335 13.0309V15.6309C22.3335 15.8518 22.1544 16.0309 21.9335 16.0309H21.278V22.6309C21.278 22.8518 21.0989 23.0309 20.878 23.0309H3.78936C3.56846 23.0309 3.38936 22.8518 3.38936 22.6309V16.0309H2.7335C2.5126 16.0309 2.3335 15.8518 2.3335 15.6309V13.0309C2.3335 12.81 2.5126 12.6309 2.7335 12.6309H21.9335ZM4.18936 16.0309V22.2309H20.478V16.0309H4.18936ZM3.1335 13.4309V15.2309H21.5335V13.4309H3.1335Z" fill="currentColor" stroke="currentColor"/>
    <path d="M8.3335 7C10.7524 7 12.7696 8.71781 13.2329 11H11.1597C10.7476 9.83532 9.63935 9 8.3335 9C7.02764 9 5.91944 9.83532 5.50732 11H3.43408C3.8974 8.71781 5.91458 7 8.3335 7Z" fill="currentColor"/>
    <path d="M18.3335 8C19.9904 8 21.3335 9.34315 21.3335 11H19.3335C19.3335 10.4477 18.8858 10 18.3335 10C17.7812 10 17.3335 10.4477 17.3335 11H15.3335C15.3335 9.34315 16.6766 8 18.3335 8Z" fill="currentColor"/>
    <path d="M17.3335 6C16.7812 6 16.3335 6.44772 16.3335 7C16.3335 7.55228 16.7812 8 17.3335 8V6ZM19.3335 8C19.8858 8 20.3335 7.55228 20.3335 7C20.3335 6.44772 19.8858 6 19.3335 6V8ZM18.3335 8.34375H19.3335V6.5H18.3335H17.3335V8.34375H18.3335ZM17.3335 7V8H19.3335V7V6H17.3335V7Z" fill="currentColor"/>
    <path d="M10.3335 19L11.8335 20.5L14.8335 17.5" stroke="currentColor" stroke-width="2" stroke-linecap="round"/>
</svg>
