<svg width="24" height="24" viewBox="0 0 24 24" xmlns="http://www.w3.org/2000/svg">
<path d="M8 16.333H7V14.333H8V16.333Z" fill="currentColor"/>
<path d="M17 16.333H16V14.333H17V16.333Z" fill="currentColor"/>
<path fill-rule="evenodd" clip-rule="evenodd" d="M6 11.333H18V9.33301H20V20.332H21V21.332H14V13.333H10V21.332H3V20.332H4V9.33301H6V11.333ZM6 17.333H9V13.333H6V17.333ZM15 17.333H18V13.333H15V17.333Z" fill="currentColor"/>
<path d="M13 20.333H11V14.333H13V20.333Z" fill="currentColor"/>
<path d="M21 8.33301H3V4.33301H21V8.33301Z" fill="currentColor"/>
<path d="M7 9.33301H17V10.333H7V9.33301Z" fill="currentColor"/>
</svg>
