<svg width="24" height="24" viewBox="0 0 24 24" xmlns="http://www.w3.org/2000/svg">
<path d="M16.6175 8.06558L15.7447 11.5569L18.3749 14.1872L16.9607 15.6014L11.2466 9.88721L10.1928 10.1358L12.9646 12.9076L12.5206 14.5794L9.49192 15.4053L14.0418 19.9552L15.9995 19.9545L16.0009 21.9543L13.2132 21.955L1.80835 10.5501L3.22256 9.13591L7.86295 13.7763L10.3316 13.103L7.51009 10.2815L7.98725 8.60144L9.58445 8.22509L5.34388 3.98453L6.7581 2.57031L11.8729 7.6851L15.4181 6.84955L16.6175 8.06558ZM13.5357 9.3479L14.095 9.90724L14.2787 9.17251L13.5357 9.3479Z" fill="currentColor"/>
<path d="M20.6981 10.4047C19.8612 11.2415 18.5044 11.2415 17.6676 10.4047C16.8308 9.56786 16.8308 8.21108 17.6676 7.37424C18.5044 6.53741 19.8612 6.53741 20.6981 7.37424C21.5349 8.21108 21.5349 9.56786 20.6981 10.4047Z" fill="currentColor"/>
</svg>
