<svg width="24" height="24" viewBox="0 0 24 24" fill="none" xmlns="http://www.w3.org/2000/svg">
<path d="M16.8479 9.36915C16.9395 9.85931 16.6024 10.3085 16.1298 10.4674C14.4918 11.0182 13.0644 12.0275 12.0001 13.3426C10.9359 12.0274 9.50845 11.0182 7.87044 10.4674C7.39779 10.3085 7.0607 9.85931 7.1523 9.36915C7.79513 5.92946 10.3067 3.42893 11.44 2.45205C11.7657 2.17126 12.2345 2.17126 12.5603 2.45205C13.6935 3.42893 16.2051 5.92946 16.8479 9.36915Z" fill="currentColor"/>
<path d="M3 12H5C8.86599 12 12 15.134 12 19C12 15.134 15.134 12 19 12H21C21.5523 12 22 12.4477 22 13V15C22 18.866 18.866 22 15 22H9C5.13401 22 2 18.866 2 15V13C2 12.4477 2.44772 12 3 12Z" fill="currentColor"/>
</svg>
