<svg width="24" height="24" viewBox="0 0 24 24" xmlns="http://www.w3.org/2000/svg">
  <path d="M18 11.001H14.5V21.001H12.4824L11.5 16.501L10.5176 21.001H8.5V13.3037L7.33203 15.0557L5.66797 13.9463L8.96484 9.00098H18V11.001ZM4.5 15.2939V15.001H5.5C6.05228 15.001 6.5 15.4487 6.5 16.001C6.5 16.5533 6.05228 17.001 5.5 17.001H4.5V16.708L3 18.208V13.7939L4.5 15.2939ZM10.5 15.001H12.5V11.001H10.5V15.001ZM11.5 4.50098C12.6046 4.50098 13.5 5.39641 13.5 6.50098C13.5 7.60555 12.6046 8.50098 11.5 8.50098C10.3954 8.50098 9.5 7.60555 9.5 6.50098C9.5 5.39641 10.3954 4.50098 11.5 4.50098ZM21.6182 4.50098L18 6.30957V8.00098H17V2.19238L21.6182 4.50098Z" fill="currentColor"/>
</svg>
