<svg xmlns="http://www.w3.org/2000/svg" xmlns:xlink="http://www.w3.org/1999/xlink" preserveAspectRatio="xMidYMid" width="25" height="20" viewBox="0 0 25 20">
  <path d="M23.960,9.141 C23.960,9.141 23.686,8.329 23.686,8.329 C23.535,7.879 23.054,7.517 22.612,7.517 C22.612,7.517 21.619,7.517 21.619,7.517 C20.874,5.393 19.963,2.616 19.698,2.016 C19.286,1.082 17.969,0.661 17.245,0.455 C17.245,0.455 16.036,-0.012 12.003,-0.012 C7.970,-0.012 6.760,0.455 6.760,0.455 C5.913,0.743 4.734,1.150 4.266,2.057 C4.046,2.484 3.121,5.334 2.367,7.516 C2.367,7.516 1.395,7.516 1.395,7.516 C0.953,7.516 0.472,7.880 0.321,8.329 C0.321,8.329 0.046,9.141 0.046,9.141 C-0.105,9.590 0.130,9.953 0.572,9.953 C0.572,9.953 1.532,9.953 1.532,9.953 C1.408,10.319 1.333,10.540 1.333,10.540 C1.256,10.672 1.200,11.280 1.200,11.444 C1.200,11.444 1.200,16.048 1.200,16.048 C1.200,16.048 1.200,16.369 1.200,16.369 C1.200,16.369 1.200,18.845 1.200,18.845 C1.200,19.320 1.580,19.706 2.048,19.706 C2.048,19.706 5.154,19.706 5.154,19.706 C5.622,19.706 6.001,19.320 6.001,18.845 C6.001,18.845 6.001,17.160 6.001,17.160 C6.001,17.160 18.004,17.160 18.004,17.160 C18.004,17.160 18.004,18.845 18.004,18.845 C18.004,19.320 18.384,19.706 18.851,19.706 C18.851,19.706 21.957,19.706 21.957,19.706 C22.425,19.706 22.805,19.320 22.805,18.845 C22.805,18.845 22.805,16.369 22.805,16.369 C22.805,16.369 22.805,16.048 22.805,16.048 C22.805,16.048 22.805,11.443 22.805,11.443 C22.805,11.280 22.749,10.672 22.673,10.540 C22.673,10.540 22.595,10.319 22.469,9.953 C22.469,9.953 23.433,9.953 23.433,9.953 C23.875,9.953 24.111,9.590 23.960,9.141 ZM6.145,13.675 C6.145,13.675 4.860,13.675 4.860,13.675 C3.710,13.675 2.562,13.518 2.562,12.777 C2.562,12.777 2.562,11.879 2.562,11.879 C2.562,11.012 3.058,10.981 3.592,10.981 C4.114,10.981 5.147,11.429 5.828,11.738 C6.569,12.075 7.400,12.357 7.400,12.918 C7.400,13.436 7.113,13.675 6.145,13.675 ZM4.194,7.844 C4.826,5.179 5.513,3.461 5.665,3.040 C5.786,2.735 5.904,1.794 12.003,1.794 C18.103,1.794 18.246,2.868 18.261,2.882 C18.449,3.452 19.195,5.387 19.792,7.842 C19.792,7.842 17.216,8.572 12.002,8.572 C6.788,8.572 4.194,7.844 4.194,7.844 ZM16.605,12.917 C16.605,12.355 17.436,12.074 18.177,11.738 C18.857,11.430 19.891,10.980 20.413,10.980 C20.947,10.980 21.443,11.012 21.443,11.878 C21.443,11.878 21.443,12.776 21.443,12.776 C21.443,12.776 21.444,12.776 21.444,12.776 C21.444,13.519 20.295,13.674 19.145,13.674 C19.145,13.674 17.860,13.674 17.860,13.674 C16.893,13.675 16.605,13.436 16.605,12.917 Z" fill="currentColor" />
</svg>
