<svg width="24" height="24" viewBox="0 0 24 24" fill="none" xmlns="http://www.w3.org/2000/svg">
  <path d="M19.3021 10.8116C19.5066 10.9932 19.8187 10.992 20.0121 10.7986L21.4751 9.33559C21.6689 9.14176 21.6714 8.82731 21.4716 8.63965C19.0921 6.40493 15.6452 5 11.8105 5C7.97574 5 4.52883 6.4049 2.14938 8.6396C1.94957 8.82726 1.95202 9.14171 2.14584 9.33554L3.60888 10.7986C3.80225 10.9919 4.11435 10.9931 4.31881 10.8115C6.28281 9.06706 8.91608 8 11.8105 8C14.7048 8 17.3381 9.06708 19.3021 10.8116Z" fill="currentColor"/>
  <path d="M17.8701 12.9406C18.0708 12.7399 18.0651 12.4114 17.847 12.2296C16.1695 10.8303 14.0781 10 11.8105 10C9.54281 10 7.45146 10.8303 5.77393 12.2295C5.55591 12.4114 5.55013 12.7398 5.75088 12.9406L7.11629 14.306C7.29791 14.4876 7.58657 14.5006 7.79431 14.3495C8.97464 13.4914 10.3466 13 11.8105 13C13.2743 13 14.6463 13.4915 15.8267 14.3496C16.0344 14.5006 16.3231 14.4876 16.5047 14.306L17.8701 12.9406Z" fill="currentColor"/>
  <path d="M14.224 15.842C14.4558 16.0119 14.464 16.3467 14.2608 16.5499L12.1641 18.6466C11.9688 18.8419 11.6522 18.8419 11.457 18.6466L9.36018 16.5499C9.15692 16.3466 9.16515 16.0119 9.39697 15.8419C10.1355 15.3005 10.9519 15 11.8105 15C12.669 15 13.4855 15.3006 14.224 15.842Z" fill="currentColor"/>
</svg>
