<svg width="24" height="24" viewBox="0 0 24 24" xmlns="http://www.w3.org/2000/svg">
<path fill-rule="evenodd" clip-rule="evenodd" d="M15.5 6.33301C15.5 6.39824 15.5468 6.52602 15.6855 6.6582C15.8279 6.7937 15.9607 6.83301 16 6.83301H18C20.4853 6.83301 22.5 8.84773 22.5 11.333V11.8613L23.4404 13.4287L22.3184 15.833H19.1162C19.3543 16.0984 19.5 16.4483 19.5 16.833V18.833C19.5 19.1092 19.7239 19.333 20 19.333C20.8284 19.333 21.5 20.0046 21.5 20.833V22.333H18.5C17.1193 22.333 16 21.2137 16 19.833V16.4141C16 16.0093 15.8562 15.6299 15.6099 15.333C15.3318 14.9977 15.0226 14.7199 14.8174 14.5146L14.6592 14.3477C14.5183 14.1916 14.3877 14.0254 14.2695 13.8506L14.1562 13.6738C14.0615 13.5184 13.9752 13.3566 13.8994 13.1895L13.8271 13.0205C13.616 12.4987 13.5 11.9288 13.5 11.333C13.5 10.6904 13.6352 10.0778 13.8789 9.52344L14.0381 9.19824C14.2099 8.87994 14.419 8.58445 14.6592 8.31836L14.6768 8.29883L14.6953 8.28125L15.3838 7.66211C15.2384 7.58373 15.1057 7.48711 14.9961 7.38281C14.7411 7.14004 14.5 6.76776 14.5 6.33301H15.5ZM17 9.83301C16.1716 9.83301 15.5 10.5046 15.5 11.333C15.5 12.1614 16.1716 12.833 17 12.833V11.833C16.7239 11.833 16.5 11.6092 16.5 11.333C16.5 11.0569 16.7239 10.833 17 10.833C17.1382 10.833 17.2625 10.8885 17.3535 10.9795L18.0605 10.2725C17.7897 10.0016 17.414 9.83303 17 9.83301ZM19.5 11.333C19.2239 11.333 19 11.5569 19 11.833C19 12.1092 19.2239 12.333 19.5 12.333C19.7761 12.333 20 12.1092 20 11.833C20 11.5569 19.7761 11.333 19.5 11.333Z" fill="currentColor"/>
<path fill-rule="evenodd" clip-rule="evenodd" d="M7.5 2.33301C8.69775 2.33303 9.84641 2.8013 10.6934 3.63477C11.5403 4.46824 12.0166 5.59864 12.0166 6.77734V15.333C12.0166 16.4376 12.912 17.333 14.0166 17.333H14.5V20.333H13C10.7909 20.333 9 18.5421 9 16.333V14.333C9 13.7807 8.55225 13.333 8 13.333C7.44772 13.333 7 13.7807 7 14.333V22.333H4L3.09668 19.9521C2.78037 19.1746 1.74567 18.5703 1 18.2158V13.5586C1.5553 14.0725 2.29573 14.3885 3.11035 14.3887H4.5V12.833C4.50003 11.7284 5.39542 10.833 6.5 10.833V9.83301C4.84313 9.83301 3.50003 11.1761 3.5 12.833V13.3887H3.11035C1.96206 13.3884 1.02457 12.4703 1 11.3223V6.33301C1 4.12387 2.79086 2.33301 5 2.33301H7.5ZM9 9.33301C8.44772 9.33301 8 9.78072 8 10.333C8 10.8853 8.44772 11.333 9 11.333C9.55228 11.333 10 10.8853 10 10.333C10 9.78072 9.55228 9.33301 9 9.33301Z" fill="currentColor"/>
</svg>
