<svg width="24" height="24" viewBox="0 0 24 24" fill="none" xmlns="http://www.w3.org/2000/svg">
    <path d="M13.5 6C14.8807 6 16 4.88071 16 3.5C16 2.11929 14.8807 1 13.5 1C12.1193 1 11 2.11929 11 3.5C11 4.88071 12.1193 6 13.5 6ZM7.9875 5.99063C9.09207 5.99063 9.9875 5.0952 9.9875 3.99063C9.9875 2.88606 9.09207 1.99063 7.9875 1.99063C7.05558 1.99063 6.27253 2.62802 6.05051 3.49063C5.92805 3.96641 5.8585 4.29231 5.76537 4.72871C5.74136 4.84123 5.71728 4.96223 5.69079 5.09539C5.64097 5.34579 5.5826 5.63917 5.5 6L7.9875 5.99063ZM3.30096 8.48314C3.63551 7.59102 4.4871 7 5.43988 7H17C18.1428 7 18.7143 7.69325 18.9885 8.60714L21.5855 15.7524C21.8564 16.4978 21.3045 17.2857 20.5114 17.2857H20.0594C19.5921 17.2857 19.1719 17.0012 18.9983 16.5673L18 14.5V23H12L13 18H15L13.0701 14.7728C13 14.5 12.4764 14.0312 12 14.0312H8.99999C8.5236 14.0312 7.9467 14.3268 7.77943 14.7728L6 18H8.15047L8.99999 23L12 23H1L3.875 14.5987L2.4266 12.0443C2.24733 11.7455 2.21415 11.3813 2.3365 11.055L3.30096 8.48314ZM10.5 13C11.8807 13 13 11.8807 13 10.5C13 9.11929 11.8807 8 10.5 8C9.11929 8 8 9.11929 8 10.5C8 11.8807 9.11929 13 10.5 13Z" fill="currentColor" />
</svg>
