<svg width="24" height="24" viewBox="0 0 24 24" fill="none" xmlns="http://www.w3.org/2000/svg">
    <path d="M12.5 1.5C12.5 1.22386 12.2761 1 12 1C11.7239 1 11.5 1.22386 11.5 1.5V4.5C11.5 4.77614 11.7239 5 12 5C12.2761 5 12.5 4.77614 12.5 4.5V1.5ZM13.3113 8.22846C13.7136 7.50429 13.4527 6.59108 12.7285 6.18876C12.4971 6.06023 12.2465 5.99939 11.9994 5.99973C11.9322 5.99982 11.8654 6.00442 11.7993 6.01341C11.6592 6.03243 11.5223 6.07111 11.393 6.12821L11.3833 6.13256C11.2231 6.20465 11.0748 6.3051 10.9467 6.43154C10.9394 6.43866 10.9323 6.44585 10.9252 6.4531C10.8347 6.54616 10.7548 6.6526 10.6888 6.77153L10.6782 6.79059L10.6772 6.7924L8.47217 10.7615L4.75662 12H4C2.34315 12 1 13.3431 1 15V23H7V14.4145L9.97438 13.423C10.3304 13.3043 10.629 13.0565 10.8113 12.7285L13.3113 8.22848L14.1854 8.7141L12.572 11.6182L13.1888 12.7285C13.3787 13.0702 13.6945 13.3244 14.069 13.4367L17 14.316V23H23V15C23 13.3431 21.6569 12 20 12H19.7202L15.5151 10.7385L14.2826 8.51998C14.2533 8.58546 14.2209 8.65022 14.1854 8.7141L13.3113 8.22848L13.3113 8.22846ZM3.5 11C4.88071 11 6 9.88071 6 8.5C6 7.11929 4.88071 6 3.5 6C2.11929 6 1 7.11929 1 8.5C1 9.88071 2.11929 11 3.5 11ZM18 8.5C18 9.88071 19.1193 11 20.5 11C21.8807 11 23 9.88071 23 8.5C23 7.11929 21.8807 6 20.5 6C19.1193 6 18 7.11929 18 8.5ZM8.00003 2.06699C8.23918 1.92891 8.54497 2.01085 8.68304 2.25L10.183 4.84807C10.3211 5.08722 10.2392 5.39302 10 5.53109C9.76088 5.66916 9.45509 5.58722 9.31702 5.34807L7.81702 2.75C7.67895 2.51085 7.76088 2.20506 8.00003 2.06699ZM15.067 2.25C15.205 2.01085 15.5108 1.92891 15.75 2.06699C15.9891 2.20506 16.0711 2.51085 15.933 2.75L14.433 5.34807C14.2949 5.58722 13.9891 5.66916 13.75 5.53109C13.5108 5.39302 13.4289 5.08722 13.567 4.84807L15.067 2.25Z" fill="currentColor" />
</svg>
