<svg width="24" height="24" viewBox="0 0 24 24" fill="none" xmlns="http://www.w3.org/2000/svg">
    <path d="M18 12C19.1138 11.7206 20.1132 11.1021 20.86 10.23C22.52 8.23 23.38 4.92 22.7 3.29C22.6317 3.03407 22.4717 2.81218 22.2505 2.66653C22.0292 2.52087 21.7621 2.4616 21.5 2.5C20.9044 2.51442 20.3265 2.70589 19.84 3.05C19.94 2.31 20 1.83 20 1.83C17.4278 0.916465 14.7285 0.410364 12 0.330002C9.27153 0.410364 6.57233 0.916465 4.00004 1.83C4.00004 1.83 4.06004 2.31 4.16004 3.05C3.68242 2.6636 3.10853 2.41468 2.50004 2.33C2.22997 2.33813 1.9694 2.43151 1.75565 2.59677C1.54189 2.76202 1.38591 2.99068 1.31004 3.25C0.630041 4.88 1.49004 8.17 3.15004 10.19C3.88858 11.0752 4.88486 11.7079 6.00004 12C6.97178 13.8892 8.51992 15.4198 10.42 16.37C10.5421 16.9075 10.6322 17.4518 10.69 18C10.69 19.22 9.23004 19.87 8.50004 20C8.0385 20.0718 7.62329 20.3211 7.34304 20.6948C7.06279 21.0684 6.9397 21.5368 7.00004 22V23.33C8.65408 23.6051 10.3243 23.7721 12 23.83C13.6758 23.7721 15.346 23.6051 17 23.33V22C17.0604 21.5368 16.9373 21.0684 16.657 20.6948C16.3768 20.3211 15.9616 20.0718 15.5 20C14.77 19.87 13.31 19.22 13.31 18C13.363 17.4386 13.4498 16.8809 13.57 16.33C15.4678 15.392 17.0189 13.8759 18 12ZM21.5 4C22 4 21.32 7.25 20.15 9.15C19.7287 9.73692 19.1288 10.1719 18.44 10.39C18.8836 8.61227 19.2374 6.81332 19.5 5C19.55 4.71 20 4 21.5 4ZM3.85004 9.15C2.68004 7.25 2.00004 4 2.50004 4C4.00004 4 4.50004 4.68 4.50004 5C4.79004 6.85 5.18004 9 5.57004 10.43C4.87197 10.2033 4.26767 9.75357 3.85004 9.15ZM12 9.8L9.73004 11L10.16 8.47L8.32004 6.67L10.86 6.3L12 4L13.14 6.3L15.68 6.67L13.84 8.47L14.27 11L12 9.8Z" fill="currentColor" />
</svg>
