<svg width="24" height="24" viewBox="0 0 24 24" fill="none" xmlns="http://www.w3.org/2000/svg">
    <path d="M10.6053 2H2.95614C2.70276 2.00067 2.45996 2.10163 2.28079 2.28079C2.10162 2.45996 2.00067 2.70277 2 2.95614V10.6053C2 11.1305 2.30342 11.8649 2.67567 12.2371L12.1593 21.7208C12.339 21.8996 12.5822 22 12.8357 22C13.0891 22 13.3323 21.8996 13.512 21.7208L21.7208 13.512C21.8996 13.3323 22 13.0891 22 12.8357C22 12.5822 21.8996 12.339 21.7208 12.1593L12.2371 2.67568C11.8661 2.30469 11.1305 2 10.6053 2ZM8.46886 9.50329C8.2368 9.59951 7.98807 9.64907 7.73686 9.64915C7.22952 9.64932 6.7429 9.44794 6.38403 9.08932C6.02517 8.7307 5.82347 8.2442 5.8233 7.73686C5.82313 7.22952 6.02451 6.7429 6.38313 6.38403C6.74176 6.02517 7.22825 5.82347 7.73559 5.8233C7.9868 5.82322 8.23556 5.87261 8.46768 5.96867C8.6998 6.06473 8.91073 6.20556 9.08842 6.38313C9.26611 6.56071 9.40708 6.77154 9.50329 7.00359C9.5995 7.23565 9.64907 7.48438 9.64915 7.73559C9.64923 7.9868 9.59984 8.23556 9.50378 8.46768C9.40773 8.6998 9.26689 8.91073 9.08932 9.08842C8.91175 9.26611 8.70091 9.40708 8.46886 9.50329ZM17.7071 13.2071C18.0976 12.8166 18.0976 12.1834 17.7071 11.7929C17.3166 11.4024 16.6834 11.4024 16.2929 11.7929L13 15.0858L11.7071 13.7929C11.3166 13.4024 10.6834 13.4024 10.2929 13.7929C9.90237 14.1834 9.90237 14.8166 10.2929 15.2071L12.2929 17.2071C12.6834 17.5976 13.3166 17.5976 13.7071 17.2071L17.7071 13.2071Z" fill="currentColor" />
</svg>
