<svg width="24" height="24" viewBox="0 0 24 24" fill="none" xmlns="http://www.w3.org/2000/svg">
  <path d="M17.5 8C17.7761 8 18 7.77614 18 7.5C18 7.22386 17.7761 7 17.5 7H15.5C15.2239 7 15 7.22386 15 7.5C15 7.77614 15.2239 8 15.5 8H17.5Z" fill="currentColor"/>
  <path fill-rule="evenodd" clip-rule="evenodd" d="M17.9834 13H20.8C20.9105 13 21 12.9105 21 12.8V6C21 4.89543 20.1046 4 19 4H5C3.89543 4 3 4.89543 3 6V12.8C3 12.9105 3.08954 13 3.2 13H6.01659C6.11181 13.5675 6.6054 14 7.2 14H16.8C17.3946 14 17.8882 13.5675 17.9834 13ZM19 11V6L5 6V11H6V10.2C6 9.53726 6.53726 9 7.2 9H16.8C17.4627 9 18 9.53726 18 10.2V11H19ZM8 12V11H16V12H8Z" fill="currentColor"/>
  <path d="M12 15C12.5523 15 13 15.4477 13 16V20C13 20.5523 12.5523 21 12 21C11.4477 21 11 20.5523 11 20V16C11 15.4477 11.4477 15 12 15Z" fill="currentColor"/>
  <path d="M8 15C8.55228 15 9 15.4477 9 16V18C9 19.6569 7.65685 21 6 21H5C4.44772 21 4 20.5523 4 20C4 19.4477 4.44772 19 5 19H6C6.55228 19 7 18.5523 7 18V16C7 15.4477 7.44772 15 8 15Z" fill="currentColor"/>
  <path d="M16 15C16.5523 15 17 15.4477 17 16V18C17 18.5523 17.4477 19 18 19H19C19.5523 19 20 19.4477 20 20C20 20.5523 19.5523 21 19 21H18C16.3431 21 15 19.6569 15 18V16C15 15.4477 15.4477 15 16 15Z" fill="currentColor"/>
</svg>
