<svg width="24" height="24" viewBox="0 0 24 24" fill="none" xmlns="http://www.w3.org/2000/svg">
<path d="M14 19V18H16V20C16 20.5523 15.5523 21 15 21H3C2.44772 21 2 20.5523 2 20V6C2 3.79086 3.79086 2 6 2H12C14.2091 2 16 3.79086 16 6H14C14 4.89543 13.1046 4 12 4H6C4.89543 4 4 4.89543 4 6V19H14Z" fill="currentColor"/>
<path fill-rule="evenodd" clip-rule="evenodd" d="M14 11.5C14 13.9853 11.9853 16 9.5 16C7.01472 16 5 13.9853 5 11.5C5 9.01472 7.01472 7 9.5 7C11.9853 7 14 9.01472 14 11.5ZM12 11.5C12 12.8807 10.8807 14 9.5 14C8.11929 14 7 12.8807 7 11.5C7 10.1193 8.11929 9 9.5 9C10.8807 9 12 10.1193 12 11.5Z" fill="currentColor"/>
<path d="M14.7929 8.79289C15.1834 8.40237 15.8166 8.40237 16.2071 8.79289L16.5752 9.16097C16.8593 9.44507 17.3116 9.47012 17.6253 9.21913C18.7348 8.33152 20.3343 8.4201 21.339 9.42482L21.7071 9.79289C22.0976 10.1834 22.0976 10.8166 21.7071 11.2071C21.3166 11.5976 20.6834 11.5976 20.2929 11.2071L19.9248 10.839C19.6407 10.5549 19.1884 10.5299 18.8747 10.7809C17.7652 11.6685 16.1657 11.5799 15.161 10.5752L14.7929 10.2071C14.4024 9.81658 14.4024 9.18342 14.7929 8.79289Z" fill="currentColor"/>
<path d="M16.2071 12.7929C15.8166 12.4024 15.1834 12.4024 14.7929 12.7929C14.4024 13.1834 14.4024 13.8166 14.7929 14.2071L15.161 14.5752C16.1657 15.5799 17.7652 15.6685 18.8747 14.7809C19.1884 14.5299 19.6407 14.5549 19.9248 14.839L20.2929 15.2071C20.6834 15.5976 21.3166 15.5976 21.7071 15.2071C22.0976 14.8166 22.0976 14.1834 21.7071 13.7929L21.339 13.4248C20.3343 12.4201 18.7348 12.3315 17.6253 13.2191C17.3116 13.4701 16.8593 13.4451 16.5752 13.161L16.2071 12.7929Z" fill="currentColor"/>
</svg>
