<svg width="24" height="24" viewBox="0 0 24 24" fill="none" xmlns="http://www.w3.org/2000/svg">
  <path d="M3.2928 6.70708C2.90229 6.31653 2.90232 5.68337 3.29286 5.29286L5.29304 3.29286C5.68358 2.90236 6.31674 2.90238 6.70725 3.29292C7.09776 3.68347 7.09773 4.31663 6.70719 4.70714L4.70701 6.70714C4.31647 7.09764 3.68331 7.09762 3.2928 6.70708Z" fill="currentColor"/>
  <path d="M13 9C13 8.44772 12.5523 8 12 8C11.4477 8 11 8.44772 11 9V13H14C14.5523 13 15 12.5523 15 12C15 11.4477 14.5523 11 14 11H13V9Z" fill="currentColor"/>
  <path fill-rule="evenodd" clip-rule="evenodd" d="M20 12C20 14.231 19.0868 16.2486 17.6138 17.6996L19.2071 19.2929C19.5976 19.6835 19.5976 20.3166 19.2071 20.7072C18.8166 21.0977 18.1834 21.0977 17.7929 20.7072L16.0098 18.9241C14.8309 19.6083 13.4612 20 12 20C10.5388 20 9.16907 19.6083 7.99016 18.9241L6.20706 20.7072C5.81654 21.0977 5.18337 21.0977 4.79285 20.7072C4.40233 20.3166 4.40233 19.6835 4.79285 19.2929L6.38619 17.6996C4.91318 16.2486 3.99997 14.231 3.99997 12C3.99997 7.58172 7.58169 4 12 4C16.4182 4 20 7.58172 20 12ZM18 12C18 15.3137 15.3137 18 12 18C8.68626 18 5.99997 15.3137 5.99997 12C5.99997 8.68629 8.68626 6 12 6C15.3137 6 18 8.68629 18 12Z" fill="currentColor"/>
  <path d="M18.7071 3.29292C18.3166 2.9024 17.6834 2.9024 17.2929 3.29292C16.9023 3.68345 16.9023 4.31661 17.2929 4.70714L19.2929 6.70714C19.6834 7.09766 20.3166 7.09766 20.7071 6.70714C21.0976 6.31661 21.0976 5.68345 20.7071 5.29292L18.7071 3.29292Z" fill="currentColor"/>
</svg>
