<svg width="24" height="24" viewBox="0 0 24 24" fill="none" xmlns="http://www.w3.org/2000/svg">
<path fill-rule="evenodd" clip-rule="evenodd" d="M15.3987 9.33372C14.5067 8.50662 13.3124 8.00098 12 8.00098C10.6876 8.00098 9.49328 8.50662 8.60126 9.33372L7.78203 8.35749C7.60452 8.14596 7.28914 8.11838 7.07761 8.29589C6.86608 8.4734 6.8385 8.78877 7.01601 9.0003L7.92508 10.0836L7.9326 10.0924C7.34555 10.9118 7 11.916 7 13.001H17C17 11.916 16.6545 10.9118 16.0674 10.0924C16.0699 10.0895 16.0724 10.0866 16.0749 10.0836L16.984 9.00028C17.1615 8.78875 17.134 8.47337 16.9224 8.29586C16.7109 8.11835 16.3955 8.14593 16.218 8.35745L15.3987 9.33372ZM9.5 12.001C9.77614 12.001 10 11.7772 10 11.501C10 11.2249 9.77614 11.001 9.5 11.001C9.22386 11.001 9 11.2249 9 11.501C9 11.7772 9.22386 12.001 9.5 12.001ZM14.5 12.001C14.7761 12.001 15 11.7772 15 11.501C15 11.2249 14.7761 11.001 14.5 11.001C14.2239 11.001 14 11.2249 14 11.501C14 11.7772 14.2239 12.001 14.5 12.001Z" fill="currentColor"/>
<path fill-rule="evenodd" clip-rule="evenodd" d="M4 4.00098C2.89543 4.00098 2 4.89641 2 6.00098V16.001C2 17.1055 2.89543 18.001 4 18.001H4.58589L2.58594 20.0009H5.41436L7.41432 18.001H16.5858L18.5858 20.0009H21.4142L19.4143 18.001H20C21.1046 18.001 22 17.1055 22 16.001V6.00098C22 4.89641 21.1046 4.00098 20 4.00098H4ZM4 6.00098L20 6.00098V14.001H4V6.00098Z" fill="currentColor"/>
</svg>
