<svg width="24" height="24" viewBox="0 0 24 24" fill="none" xmlns="http://www.w3.org/2000/svg">
<path d="M4 4C3.44772 4 3 4.44772 3 5C3 5.55228 3.44772 6 4 6H5C5 7.65685 6.34315 9 8 9H11V10C10.4477 10 10 10.4477 10 11C10 11.5523 10.4477 12 11 12V13.2676C10.4022 13.6134 10 14.2597 10 15C10 15.7403 10.4022 16.3866 11 16.7324V18.049C10.0714 18.1408 9.3021 18.3488 8.72076 18.5602C8.33145 18.7018 8.02549 18.8452 7.81087 18.9572C7.75777 18.9849 7.69891 19 7.63902 19H7C6.44772 19 6 19.4477 6 20C6 20.5523 6.44772 21 7 21H8.00538C8.1993 21 8.38888 20.9426 8.55023 20.835L8.55145 20.8343L8.56644 20.825L8.58114 20.8161C8.61176 20.7979 8.6637 20.7681 8.736 20.7303C8.88076 20.6548 9.10605 20.5482 9.40424 20.4398C10.0005 20.223 10.8845 20 12 20C13.1155 20 13.9995 20.223 14.5958 20.4398C14.894 20.5482 15.1192 20.6548 15.264 20.7303C15.3363 20.7681 15.3882 20.7979 15.4189 20.8161C15.4342 20.8252 15.4441 20.8314 15.4486 20.8343L15.4498 20.835C15.6111 20.9426 15.8007 21 15.9946 21H17C17.5523 21 18 20.5523 18 20C18 19.4477 17.5523 19 17 19H16.361C16.3011 19 16.2422 18.9849 16.1891 18.9572C15.9745 18.8452 15.6685 18.7018 15.2792 18.5602C14.6979 18.3488 13.9286 18.1408 13 18.049V16.7324C13.5978 16.3866 14 15.7403 14 15C14 14.2597 13.5978 13.6134 13 13.2676V12C13.5523 12 14 11.5523 14 11C14 10.4477 13.5523 10 13 10V9H16C17.6569 9 19 7.65685 19 6H20C20.5523 6 21 5.55228 21 5C21 4.44772 20.5523 4 20 4H4Z" fill="currentColor"/>
</svg>
