<svg width="24" height="24" viewBox="0 0 24 24" fill="none" xmlns="http://www.w3.org/2000/svg">
<path d="M5 8V12H6C7.10457 12 8 12.8954 8 14H16C16 12.8954 16.8954 12 18 12H19V8C19 6.89543 18.1046 6 17 6H7C5.89543 6 5 6.89543 5 8Z" fill="currentColor"/>
<path d="M20 13C20.5523 13 21 13.4477 21 14V19C21 19.5523 20.5523 20 20 20H18V21C18 21.5523 17.5523 22 17 22C16.4477 22 16 21.5523 16 21V20H8V21C8 21.5523 7.55228 22 7 22C6.44772 22 6 21.5523 6 21V20H4C3.44772 20 3 19.5523 3 19V14C3 13.4477 3.44772 13 4 13H6C6.55228 13 7 13.4477 7 14V15H17V14C17 13.4477 17.4477 13 18 13H20Z" fill="currentColor"/>
</svg>
