<svg width="24" height="24" viewBox="0 0 24 24" fill="none" xmlns="http://www.w3.org/2000/svg">
<path d="M5 12.001C5.55228 12.001 6 12.4487 6 13.001C6 13.5533 5.55228 14.001 5 14.001C4.44772 14.001 4 13.5533 4 13.001C4 12.4487 4.44772 12.001 5 12.001Z" fill="currentColor"/>
<path d="M5 6.00098C5.55228 6.00098 6 6.44869 6 7.00098C6 7.55326 5.55228 8.00098 5 8.00098C4.44772 8.00098 4 7.55326 4 7.00098C4 6.44869 4.44772 6.00098 5 6.00098Z" fill="currentColor"/>
<path fill-rule="evenodd" clip-rule="evenodd" d="M7 3.00098C7.55228 3.00098 8 3.44869 8 4.00098V20.001H2V4.00098C2 3.44869 2.44772 3.00098 3 3.00098H7ZM5 11.001C3.89543 11.001 3 11.8964 3 13.001C3 14.1055 3.89543 15.001 5 15.001C6.10457 15.001 7 14.1055 7 13.001C7 11.8964 6.10457 11.001 5 11.001ZM5 5.00098C3.89543 5.00098 3 5.89641 3 7.00098C3 8.10555 3.89543 9.00098 5 9.00098C6.10457 9.00098 7 8.10555 7 7.00098C7 5.89641 6.10457 5.00098 5 5.00098Z" fill="currentColor"/>
<path d="M13 15.001H11V14.001H13V15.001Z" fill="currentColor"/>
<path fill-rule="evenodd" clip-rule="evenodd" d="M14 12.001C14.5523 12.001 15 12.4487 15 13.001V20.001H9V13.001C9 12.4487 9.44772 12.001 10 12.001H14ZM10.5 18.001C10.2239 18.001 10 18.2248 10 18.501C10 18.7771 10.2239 19.001 10.5 19.001C10.7761 19.001 11 18.7771 11 18.501C11 18.2248 10.7761 18.001 10.5 18.001ZM13.5 18.001C13.2239 18.001 13 18.2248 13 18.501C13 18.7771 13.2239 19.001 13.5 19.001C13.7761 19.001 14 18.7771 14 18.501C14 18.2248 13.7761 18.001 13.5 18.001ZM10 16.001H14V13.001H10V16.001Z" fill="currentColor"/>
<path d="M19 12.001C19.5523 12.001 20 12.4487 20 13.001C20 13.5533 19.5523 14.001 19 14.001C18.4477 14.001 18 13.5533 18 13.001C18 12.4487 18.4477 12.001 19 12.001Z" fill="currentColor"/>
<path d="M19 6.00098C19.5523 6.00098 20 6.44869 20 7.00098C20 7.55326 19.5523 8.00098 19 8.00098C18.4477 8.00098 18 7.55326 18 7.00098C18 6.44869 18.4477 6.00098 19 6.00098Z" fill="currentColor"/>
<path fill-rule="evenodd" clip-rule="evenodd" d="M21 3.00098C21.5523 3.00098 22 3.44869 22 4.00098V20.001H16V4.00098C16 3.44869 16.4477 3.00098 17 3.00098H21ZM19 11.001C17.8954 11.001 17 11.8964 17 13.001C17 14.1055 17.8954 15.001 19 15.001C20.1046 15.001 21 14.1055 21 13.001C21 11.8964 20.1046 11.001 19 11.001ZM19 5.00098C17.8954 5.00098 17 5.89641 17 7.00098C17 8.10555 17.8954 9.00098 19 9.00098C20.1046 9.00098 21 8.10555 21 7.00098C21 5.89641 20.1046 5.00098 19 5.00098Z" fill="currentColor"/>
</svg>
