<svg width="24" height="24" viewBox="0 0 24 24" fill="none" xmlns="http://www.w3.org/2000/svg">
<path fill-rule="evenodd" clip-rule="evenodd" d="M8 4V8H6V11C6 12.0577 6.821 12.9236 7.86048 12.9952L5.32761 19.644C5.07826 20.2985 5.56167 21 6.26209 21C6.67703 21 7.04886 20.7438 7.19658 20.356L7.71315 19H16.287L16.8036 20.356C16.9513 20.7438 17.3231 21 17.7381 21C18.4385 21 18.9219 20.2985 18.6726 19.644L16.1397 12.9952C17.1791 12.9235 18 12.0576 18 11V8H16V4C16 2.89543 15.1046 2 14 2H10C8.89543 2 8 2.89543 8 4ZM14 8V4H10V8H14ZM14.0013 13H9.99887L8.47506 17H15.5251L14.0013 13Z" fill="currentColor"/>
</svg>
