<svg width="24" height="24" viewBox="0 0 24 24" fill="none" xmlns="http://www.w3.org/2000/svg">
<path fill-rule="evenodd" clip-rule="evenodd" d="M6 5C6 4.44772 5.55228 4 5 4C4.44772 4 4 4.44772 4 5V18C4 18.5523 4.44772 19 5 19C4.44772 19 4 19.4477 4 20C4 20.5523 4.44772 21 5 21C5.55228 21 6 20.5523 6 20C6 19.4477 5.55228 19 5 19C5.55228 19 6 18.5523 6 18V16H18V18C18 18.5523 18.4477 19 19 19C18.4477 19 18 19.4477 18 20C18 20.5523 18.4477 21 19 21C19.5523 21 20 20.5523 20 20C20 19.4477 19.5523 19 19 19C19.5523 19 20 18.5523 20 18V5C20 4.44772 19.5523 4 19 4C18.4477 4 18 4.44772 18 5V9C18 7.89543 17.1046 7 16 7H8C6.89543 7 6 7.89543 6 9V5ZM18 14V11H6V14H18Z" fill="currentColor"/>
</svg>
