<svg width="24" height="24" viewBox="0 0 24 24" fill="none" xmlns="http://www.w3.org/2000/svg">
  <path d="M8 7.29827L10.284 5.0135L10.2705 5H9.35361L8 6.35426V7.29827Z" fill="currentColor"/>
  <path d="M8 10.6181L10.2704 8.34692V7.40417L8 9.67535V10.6181Z" fill="currentColor"/>
  <path d="M16.284 5.0135L14 7.29827V6.35426L15.3536 5H16.2705L16.284 5.0135Z" fill="currentColor"/>
  <path d="M16.2704 8.34692L14 10.6181V9.67535L16.2704 7.40417V8.34692Z" fill="currentColor"/>
  <path fill-rule="evenodd" clip-rule="evenodd" d="M4 22C3.44772 22 3 21.5523 3 21V15C2.44772 15 2 14.5523 2 14C2 13.4477 2.44772 13 3 13H5V4C4.44772 4 4 3.55228 4 3C4 2.44772 4.44772 2 5 2H19C19.5523 2 20 2.44772 20 3C20 3.55228 19.5523 4 19 4V13H21C21.5523 13 22 13.4477 22 14C22 14.5523 21.5523 15 21 15V21C21 21.5523 20.5523 22 20 22H4ZM7 4H11V13H7V4ZM9 15H11V20H9V15ZM13 15V20H15V15H13ZM17 13V4H13V13H17ZM17 15V20H19V15H17ZM7 15H5V20H7L7 15Z" fill="currentColor"/>
</svg>
