<svg width="24" height="24" viewBox="0 0 24 24" fill="none" xmlns="http://www.w3.org/2000/svg">
  <path d="M9.99997 4H14L12 7L9.99997 4Z" fill="currentColor"/>
  <path d="M2.63603 11.7782C2.24551 11.3876 2.24551 10.7545 2.63603 10.3639L8.99998 4L11.5 7.99999H12.5L15 4.00001L21.364 10.364C21.7545 10.7545 21.7545 11.3877 21.364 11.7782L19.8031 13.3391C19.4125 13.7296 18.7794 13.7296 18.3889 13.3391L17 11.9502V19.945C17 20.4949 16.556 20.9416 16.0061 20.945L12.4999 20.9664V14H16.9999V13H12.4999L12.5 7.99999H11.5L11.4999 13H6.99999V11.9502L5.61113 13.339C5.22061 13.7296 4.58744 13.7296 4.19692 13.339L2.63603 11.7782Z" fill="currentColor"/>
  <path d="M6.99999 14V19.9939C6.99999 20.5486 7.45144 20.9972 8.0061 20.9939L11.4999 20.9725V14H6.99999Z" fill="currentColor"/>
</svg>
