<svg width="24" height="24" viewBox="0 0 24 24" fill="none" xmlns="http://www.w3.org/2000/svg">
<path d="M17 2C15.8954 2 15 2.89543 15 4V5H14C13.4477 5 13 5.44772 13 6C13 6.55228 13.4477 7 14 7H18C18.5523 7 19 6.55228 19 6C19 5.44772 18.5523 5 18 5H17V4H20V10H3C2.44772 10 2 10.4477 2 11C2 11.5523 2.44772 12 3 12H21C21.5523 12 22 11.5523 22 11V4C22 2.89543 21.1046 2 20 2H17Z" fill="currentColor"/>
<path d="M3 13H21V16C21 17.486 19.9196 18.7196 18.5015 18.9583C18.5199 19.4846 18.1164 20 17.5001 20C17.2349 20 16.9805 19.8946 16.793 19.7071L16.0859 19H7.91436L7.20726 19.7071C7.01972 19.8946 6.76537 20 6.50015 20C5.88388 20 5.48042 19.4846 5.49875 18.9583C4.08051 18.7198 3 17.4861 3 16V13Z" fill="currentColor"/>
</svg>
