<svg width="24" height="24" viewBox="0 0 24 24" fill="none" xmlns="http://www.w3.org/2000/svg">
<path fill-rule="evenodd" clip-rule="evenodd" d="M3 3C2.44772 3 2 3.44772 2 4C2 4.55228 2.44772 5 3 5V20C3 20.5523 3.44772 21 4 21H20C20.5523 21 21 20.5523 21 20V5C21.5523 5 22 4.55228 22 4C22 3.44772 21.5523 3 21 3H3ZM5 19V13H11.5V15C10.9174 15.2059 10.5 15.7615 10.5 16.4147C10.5 17.2431 11.1716 17.9147 12 17.9147C12.8284 17.9147 13.5 17.2431 13.5 16.4147C13.5 15.7615 13.0826 15.2059 12.4999 15L12.5 13H19V19H5ZM12.5 16.4147C12.5 16.6908 12.2761 16.9147 12 16.9147C11.7239 16.9147 11.5 16.6908 11.5 16.4147C11.5 16.1385 11.7239 15.9147 12 15.9147C12.2761 15.9147 12.5 16.1385 12.5 16.4147Z" fill="currentColor"/>
</svg>
