<svg width="24" height="24" viewBox="0 0 24 24" fill="none" xmlns="http://www.w3.org/2000/svg">
  <path d="M7 2C6.44772 2 6 2.44772 6 3H10C10 2.44772 9.55228 2 9 2H7Z" fill="currentColor"/>
  <path d="M6 4H10V6C11.6569 6 13 7.34315 13 9V10.2279C13 10.7313 12.851 11.2235 12.5717 11.6424C11.62 13.0701 11.62 14.9299 12.5717 16.3576C12.851 16.7765 13 17.2687 13 17.7721V20.382C13 21.2756 12.2756 22 11.382 22C11.1308 22 10.883 21.9415 10.6584 21.8292L10 21.5L9.63344 21.6833C9.21687 21.8916 8.75753 22 8.2918 22H7.7082C7.24247 22 6.78313 21.8916 6.36656 21.6833L6 21.5L5.34164 21.8292C5.11697 21.9415 4.86923 22 4.61803 22C3.72442 22 3 21.2756 3 20.382V17.7721C3 17.2687 3.14902 16.7765 3.42829 16.3576C4.38004 14.9299 4.38004 13.0701 3.42829 11.6424C3.14902 11.2235 3 10.7313 3 10.2279V9C3 7.34315 4.34315 6 6 6V4Z" fill="currentColor"/>
  <path d="M15 21H20V21.8C20 21.9105 19.9105 22 19.8 22H15.2C15.0895 22 15 21.9105 15 21.8V21Z" fill="currentColor"/>
  <path d="M14.0247 11.2221C14.0115 11.1036 14.1043 11 14.2235 11H20.7766C20.8958 11 20.9885 11.1036 20.9753 11.2221L20.6905 13.7851L20.1747 13.9915C19.4061 14.2989 18.5534 14.324 17.7681 14.0622L17.7299 14.0495C16.6216 13.68 15.4141 13.7564 14.3623 14.2604L14.0247 11.2221Z" fill="currentColor"/>
  <path d="M20.5461 14.9199L20.5653 14.9123L20 20H15L14.4799 15.3189L14.7417 15.1881C15.5719 14.7729 16.5331 14.7046 17.4137 14.9982L17.4518 15.0109C18.4616 15.3475 19.5579 15.3152 20.5461 14.9199Z" fill="currentColor"/>
</svg>
