<svg width="24" height="24" viewBox="0 0 24 24" fill="none" xmlns="http://www.w3.org/2000/svg">
<path d="M6 2.9989C6 2.44662 6.44772 1.9989 7 1.9989H8C8.55228 1.9989 9 2.44662 9 2.9989V3.9989H6V2.9989Z" fill="currentColor"/>
<path d="M9 4.9989H6V7.9989L4.29289 9.70601C4.10536 9.89354 4 10.1479 4 10.4131V11.9989H7C7.55228 11.9989 8 12.4466 8 12.9989V16.9989C8 17.5512 7.55228 17.9989 7 17.9989H4V20.9989H11V10.4131C11 10.1479 10.8946 9.89354 10.7071 9.70601L9 7.9989V4.9989Z" fill="currentColor"/>
<path d="M7 15.9989C7 16.5512 6.55228 16.9989 6 16.9989H4V12.9989H6C6.55228 12.9989 7 13.4466 7 13.9989V15.9989Z" fill="currentColor"/>
<path d="M13 12.9989C13 12.6536 13.0438 12.3185 13.126 11.9989H20.874C20.9562 12.3185 21 12.6536 21 12.9989C21 15.0387 19.4732 16.7219 17.5 16.968V19.9989H18.5C18.7761 19.9989 19 20.2228 19 20.4989C19 20.775 18.7761 20.9989 18.5 20.9989H15.5C15.2239 20.9989 15 20.775 15 20.4989C15 20.2228 15.2239 19.9989 15.5 19.9989H16.5V16.968C14.5268 16.7219 13 15.0387 13 12.9989Z" fill="currentColor"/>
</svg>
