<svg width="24" height="24" viewBox="0 0 24 24" fill="none" xmlns="http://www.w3.org/2000/svg">
<path fill-rule="evenodd" clip-rule="evenodd" d="M2 21C2 21.5523 2.44772 22 3 22C3.55228 22 4 21.5523 4 21V20H20V21C20 21.5523 20.4477 22 21 22C21.5523 22 22 21.5523 22 21V3C22 2.44772 21.5523 2 21 2C20.4477 2 20 2.44772 20 3V5H13C11.8954 5 11 5.89543 11 7H20V8H4V7H9C9 5.34315 7.65685 4 6 4H4V3C4 2.44772 3.55228 2 3 2C2.44772 2 2 2.44772 2 3V21ZM4 18H20V17H11C11 15.8954 11.8954 15 13 15H20V10H4V14H6C7.65685 14 9 15.3431 9 17H4V18Z" fill="currentColor"/>
</svg>
