<svg width="24" height="24" viewBox="0 0 24 24" fill="none" xmlns="http://www.w3.org/2000/svg">
<path d="M15 10.0008C15.5522 10.0008 15.9999 10.4486 16 11.0008V13.0008H8V11.0008C8.00006 10.4486 8.44775 10.0008 9 10.0008H15Z" fill="currentColor"/>
<path fill-rule="evenodd" clip-rule="evenodd" d="M12.0488 2.01354L19.2422 3.81139C19.6874 3.92268 20 4.32323 20 4.78209V20.0008C20 20.5531 19.5523 21.0008 19 21.0008C18.4477 21.0008 18 20.5531 18 20.0008V19.0008H6V20.0008C6 20.5531 5.55228 21.0008 5 21.0008C4.44772 21.0008 4 20.5531 4 20.0008V4.78209C4 4.32323 4.31265 3.92268 4.75781 3.81139L11.9512 2.01354C11.983 2.00558 12.017 2.00558 12.0488 2.01354ZM6 18.0008H18V17.0008H6V18.0008ZM8.97949 5.00084C8.99185 5.16554 9 5.33222 9 5.50084C9 7.89515 7.7473 9.93006 6 10.6854V14.0008H18V10.6854C16.2526 9.9303 15 7.89523 15 5.50084C15 5.33228 15.0063 5.16552 15.0186 5.00084H15C15 5.55313 14.5523 6.00084 14 6.00084C13.4477 6.00084 13 5.55313 13 5.00084C13 5.55313 12.5523 6.00084 12 6.00084C11.4477 6.00084 11 5.55313 11 5.00084C11 5.55313 10.5523 6.00084 10 6.00084C9.44772 6.00084 9 5.55313 9 5.00084H8.97949Z" fill="currentColor"/>
</svg>
