<svg width="24" height="24" viewBox="0 0 24 24" fill="none" xmlns="http://www.w3.org/2000/svg">
  <path fill-rule="evenodd" clip-rule="evenodd" d="M3.5 2C3.22386 2 3 2.22386 3 2.5V21.5C3 21.7761 3.22386 22 3.5 22C3.77614 22 4 21.7761 4 21.5V20H5V21.5C5 21.7761 5.22386 22 5.5 22C5.77614 22 6 21.7761 6 21.5V20H7V21.5C7 21.7761 7.22386 22 7.5 22C7.77614 22 8 21.7761 8 21.5V20H9.19995V21.5C9.19995 21.7761 9.42381 22 9.69995 22C9.97609 22 10.2 21.7761 10.2 21.5V20H11.3999V21.5C11.3999 21.7761 11.6238 22 11.8999 22C12.176 22 12.3999 21.7761 12.3999 21.5V20H13.5999V21.5C13.5999 21.7761 13.8237 22 14.0999 22C14.376 22 14.5999 21.7761 14.5999 21.5V20H15.7998V21.5C15.7998 21.7761 16.0237 22 16.2998 22C16.5759 22 16.7998 21.7761 16.7998 21.5V20H17.9998V21.5C17.9998 21.7761 18.2236 22 18.4998 22C18.7759 22 18.9998 21.7761 18.9998 21.5V20H20V21.5C20 21.7761 20.2239 22 20.5 22C20.7761 22 21 21.7761 21 21.5V2.5C21 2.22386 20.7761 2 20.5 2C20.2239 2 20 2.22386 20 2.5V4H18.9998V2.5C18.9998 2.22386 18.7759 2 18.4998 2C18.2236 2 17.9998 2.22386 17.9998 2.5V4H16.7998V2.5C16.7998 2.22386 16.5759 2 16.2998 2C16.0237 2 15.7998 2.22386 15.7998 2.5V4H14.5999V2.5C14.5999 2.22386 14.376 2 14.0999 2C13.8237 2 13.5999 2.22386 13.5999 2.5V4H12.3999V2.5C12.3999 2.22386 12.176 2 11.8999 2C11.6238 2 11.3999 2.22386 11.3999 2.5V4H10.2V2.5C10.2 2.22386 9.97609 2 9.69995 2C9.42381 2 9.19995 2.22386 9.19995 2.5V4H8V2.5C8 2.22386 7.77614 2 7.5 2C7.22386 2 7 2.22386 7 2.5V4H6V2.5C6 2.22386 5.77614 2 5.5 2C5.22386 2 5 2.22386 5 2.5V4H4V2.5C4 2.22386 3.77614 2 3.5 2ZM9.14142 11.8586C9.06332 11.9367 9.06332 12.0633 9.14142 12.1414L11.8586 14.8586C11.9367 14.9367 12.0633 14.9367 12.1414 14.8586L14.8587 12.1413C14.9368 12.0632 14.9368 11.9366 14.8587 11.8585L12.1415 9.14133C12.0634 9.06322 11.9368 9.06322 11.8587 9.14133L9.14142 11.8586ZM5.00005 6.5C5.00005 6.22386 5.22391 6 5.50005 6H18.5C18.7762 6 19 6.22386 19 6.5C19 6.77614 18.7762 7 18.5 7H5.50005C5.22391 7 5.00005 6.77614 5.00005 6.5ZM5.50003 17C5.22389 17 5.00003 17.2239 5.00003 17.5C5.00003 17.7761 5.22389 18 5.50003 18H18.5C18.7762 18 19 17.7761 19 17.5C19 17.2239 18.7762 17 18.5 17H5.50003Z" fill="currentColor"/>
</svg>
