<svg width="24" height="24" viewBox="0 0 24 24" fill="none" xmlns="http://www.w3.org/2000/svg">
<g clip-path="url(#clip0_3342_419)">
<path fill-rule="evenodd" clip-rule="evenodd" d="M4.36364 1.09182H22.9091V20.7282H4.36364V1.09182ZM2.18182 21.8191V0.000915527H24V21.8191L21.8182 24.0009H0L2.18182 21.8191ZM14.3168 3.34049C14.3168 2.96467 14.0121 2.66 13.6363 2.66C13.2605 2.66 12.9558 2.96467 12.9558 3.34049C12.9558 3.61217 13.1169 3.82999 13.3468 4.05034L13.3454 4.05171C13.3551 4.0644 13.3608 4.08024 13.3608 4.09742C13.3608 4.13915 13.327 4.17298 13.2853 4.17298C13.2681 4.17298 13.2522 4.16725 13.2396 4.15759C13.005 3.90727 12.7882 3.71263 12.4986 3.71263C12.1228 3.71263 11.8181 4.0173 11.8181 4.39312C11.8181 4.76895 12.1228 5.07361 12.4986 5.07361C12.7822 5.07361 13.0011 4.87986 13.2285 4.63856L13.2313 4.64139C13.2536 4.62107 13.2833 4.60869 13.3159 4.60869C13.3853 4.60869 13.4416 4.66497 13.4416 4.73439C13.4416 4.76695 13.4292 4.79662 13.4089 4.81895L13.4116 4.82168C13.1227 5.23111 12.9558 5.55114 12.9558 5.85511C12.9558 6.19868 13.2104 6.48278 13.5412 6.52902C13.2906 7.64975 12.5893 8.35363 11.9735 8.97159C11.4048 9.54237 10.9091 10.0399 10.9091 10.7248C10.9091 11.9177 11.5823 12.542 12.5455 12.7844V13.1497C10.5247 13.3753 9.8182 14.1827 9.8182 14.1827V14.2048C9.64824 14.1906 9.46662 14.1827 9.27274 14.1827C7.22729 14.1827 6.54547 15.0555 6.54547 15.0555V18.5464H8.72729V18.0009C8.72729 17.6997 8.9715 17.4555 9.27274 17.4555C9.57399 17.4555 9.8182 17.6997 9.8182 18.0009V18.5464H13.0909V16.91C13.0909 16.6088 13.3351 16.3645 13.6364 16.3645C13.9376 16.3645 14.1818 16.6088 14.1818 16.91V18.5464H17.4546V18.0009C17.4546 17.6997 17.6988 17.4555 18 17.4555C18.3013 17.4555 18.5455 17.6997 18.5455 18.0009V18.5464H20.7273V15.0555C20.7273 15.0555 20.0455 14.1827 18 14.1827C17.8061 14.1827 17.6245 14.1906 17.4546 14.2048V14.1827C17.4546 14.1827 16.7481 13.3753 14.7273 13.1497V12.7844C15.6905 12.542 16.3637 11.9177 16.3637 10.7248C16.3637 10.0399 15.868 9.54237 15.2992 8.97159C14.6835 8.35362 13.9821 7.64974 13.7315 6.52899C14.0623 6.48268 14.3168 6.19862 14.3168 5.85511C14.3168 5.55993 14.1134 5.24961 13.8562 4.85698L13.8442 4.83864L13.8464 4.83641C13.8314 4.81333 13.8227 4.7858 13.8227 4.75625C13.8227 4.67475 13.8888 4.60869 13.9703 4.60869C14.0343 4.60869 14.0887 4.64942 14.1092 4.70637C14.314 4.91515 14.5175 5.07361 14.774 5.07361C15.1498 5.07361 15.4545 4.76895 15.4545 4.39312C15.4545 4.0173 15.1498 3.71263 14.774 3.71263C14.4933 3.71263 14.282 3.89648 14.0556 4.13573C14.0505 4.14323 14.0443 4.14988 14.0371 4.15543L14.0341 4.15857C14.0202 4.16824 14.0028 4.17334 13.9846 4.17334C13.9371 4.17334 13.8986 4.13486 13.8986 4.08739C13.8986 4.05676 13.9147 4.02987 13.9388 4.01465C14.1529 3.80233 14.3168 3.60136 14.3168 3.34049ZM9.8182 8.72499C9.8182 9.00679 9.6045 9.23868 9.33032 9.26744C9.42539 9.69062 9.62761 10.0147 9.85657 10.2892C9.8319 10.4273 9.8182 10.5725 9.8182 10.7248C9.8182 11.5318 10.0509 12.2221 10.4848 12.7579C10.1855 12.9942 9.7533 13.0918 9.27274 13.0918C8.36901 13.0918 7.63638 12.7467 7.63638 11.7827C7.63638 11.3718 7.9338 11.0733 8.27504 10.7308C8.64409 10.3604 9.06439 9.93861 9.21517 9.26744C8.94099 9.23868 8.72729 9.00679 8.72729 8.72499C8.72729 8.42374 8.9715 8.17953 9.27274 8.17953C9.57399 8.17953 9.8182 8.42374 9.8182 8.72499ZM18.5455 8.72819C18.5455 9.00974 18.3321 9.24147 18.0583 9.27056C18.2097 9.93992 18.6293 10.361 18.9977 10.7308C19.339 11.0733 19.6364 11.3718 19.6364 11.7827C19.6364 12.7467 18.9038 13.0918 18 13.0918C17.5195 13.0918 17.0873 12.9942 16.7879 12.7579C17.2219 12.2221 17.4546 11.5318 17.4546 10.7248C17.4546 10.5725 17.4409 10.4273 17.4162 10.2892C17.6446 10.0153 17.8464 9.69222 17.9417 9.27056C17.6679 9.24148 17.4546 9.00975 17.4546 8.72819C17.4546 8.42694 17.6988 8.18273 18 8.18273C18.3013 8.18273 18.5455 8.42694 18.5455 8.72819Z" fill="currentColor"/>
</g>
<defs>
<clipPath id="clip0_3342_419">
<rect width="24" height="24" fill="white" transform="translate(0 0.000915527)"/>
</clipPath>
</defs>
</svg>
