<svg width="24" height="24" viewBox="0 0 24 24" fill="none" xmlns="http://www.w3.org/2000/svg">
  <path fill-rule="evenodd" clip-rule="evenodd" d="M7 5C7 3.89543 7.89543 3 9 3H15C16.1046 3 17 3.89543 17 5V7C17 7.55228 16.5523 8 16 8H15V12H17C18.1046 12 19 12.8954 19 14V15C19 15.5523 18.5523 16 18 16H17.3923L18.1077 19.8157C18.2231 20.4311 17.751 21 17.1248 21C16.6436 21 16.2306 20.6573 16.142 20.1843L15.3574 16H8.64224L7.85769 20.1843C7.76901 20.6573 7.35603 21 6.87482 21C6.24868 21 5.77655 20.4311 5.89194 19.8157L6.60739 16H6C5.44772 16 5 15.5523 5 15V14C5 12.8954 5.89543 12 7 12H9V8H8C7.44772 8 7 7.55228 7 7V5ZM13 12V8H11V12H13Z" fill="currentColor"/>
</svg>
