<svg width="24" height="24" viewBox="0 0 24 24" fill="none" xmlns="http://www.w3.org/2000/svg">
  <path fill-rule="evenodd" clip-rule="evenodd" d="M22.9091 1.09091H4.36364V20.7273H22.9091V1.09091ZM2.18182 0V21.8182L0 24H21.8182L24 21.8182V0H2.18182Z" fill="currentColor"/>
  <path d="M20.7273 14.1818V18.5455H15.2727V14.1818H16.3637V13.0909H14.1818V18.5455H10.9091V15.2727L13.0909 13.0909H12L9.8182 15.2727V18.5455H6.54547V14.1818V12C6.54547 12 7.09093 11.4545 7.63638 11.4545C8.18183 11.4545 8.72729 12 8.72729 12V14.1818L9.8182 13.0909V8.18182L12 9.81818V12H13.0909V8.18182L14.1818 5.45454L15.2727 8.18182V9.81818H17.4546V14.1818H18.5455V12H20.7273V14.1818Z" fill="currentColor"/>
</svg>
