<svg width="24" height="24" viewBox="0 0 24 24" fill="none" xmlns="http://www.w3.org/2000/svg">
<path d="M17 3C16.4477 3 16 3.44772 16 4V12H14C13.4477 12 13 12.4477 13 13V15H21V13C21 12.4477 20.5523 12 20 12H18V4C18 3.44772 17.5523 3 17 3Z" fill="currentColor"/>
<path d="M12.9999 16H20.9999L21.8059 20.8356C21.9075 21.4451 21.4374 22 20.8195 22H19V19H18V22H16V19H15V22H13.1804C12.5625 22 12.0924 21.4451 12.194 20.8356L12.9999 16Z" fill="currentColor"/>
<path d="M3 14L3.8905 21.124C3.95306 21.6245 4.37846 22 4.88278 22H9.11722C9.62154 22 10.0469 21.6245 10.1095 21.124L11 14C11.5523 14 12 13.5523 12 13C12 12.4477 11.5523 12 11 12H3C2.44772 12 2 12.4477 2 13C2 13.5523 2.44772 14 3 14Z" fill="currentColor"/>
<path d="M5 10C5 8.89543 5.89543 8 7 8C8.10457 8 9 8.89543 9 10C9 10.5523 9.44772 11 10 11C10.5523 11 11 10.5523 11 10C11 7.79086 9.20914 6 7 6C4.79086 6 3 7.79086 3 10C3 10.5523 3.44772 11 4 11C4.55228 11 5 10.5523 5 10Z" fill="currentColor"/>
</svg>
