<svg width="24" height="24" viewBox="0 0 24 24" fill="none" xmlns="http://www.w3.org/2000/svg">
<path fill-rule="evenodd" clip-rule="evenodd" d="M22 8C22 8.55228 21.5523 9 21 9H19.4144L13.4144 15L18.7073 20.2929C19.3372 20.9229 18.8911 22 18.0002 22C17.7349 22 17.4806 21.8947 17.293 21.7071L12.0002 16.4142L6.70726 21.7071C6.51972 21.8947 6.26537 22 6.00015 22C5.10925 22 4.66308 20.9229 5.29304 20.2929L10.5859 15L4.58592 9H3C2.44772 9 2 8.55228 2 8C2 7.44772 2.44772 7 3 7H21C21.5523 7 22 7.44772 22 8ZM15 9H16.586L12.0002 13.5858L7.41435 9H9L12 12L15 9Z" fill="currentColor"/>
</svg>
