<svg width="24" height="24" viewBox="0 0 24 24" fill="none" xmlns="http://www.w3.org/2000/svg">
<path d="M2.83557 7.01358C3.38034 6.92278 3.89557 7.2908 3.98637 7.83557L5.3471 16H8.99997C9.55226 16 9.99997 16.4477 9.99997 17C9.99997 17.5523 9.55226 18 8.99997 18H6.99997V19.7169L9.25722 21.0712C9.49401 21.2133 9.57079 21.5204 9.42872 21.7572C9.28664 21.994 8.97952 22.0708 8.74272 21.9287L6.99997 20.8831V21.5C6.99997 21.7761 6.77612 22 6.49997 22C6.22383 22 5.99997 21.7761 5.99997 21.5V20.8831L4.25722 21.9287C4.02043 22.0708 3.7133 21.994 3.57123 21.7572C3.42915 21.5204 3.50593 21.2133 3.74272 21.0712L5.99997 19.7169V18H4.07641C3.83199 18 3.62339 17.8233 3.58321 17.5822L2.01358 8.16437C1.92278 7.6196 2.2908 7.10437 2.83557 7.01358Z" fill="currentColor"/>
<path d="M21.1644 7.01358C20.6197 6.92278 20.1044 7.2908 20.0136 7.83557L18.6529 16H15C14.4477 16 14 16.4477 14 17C14 17.5523 14.4477 18 15 18H17V19.7169L14.7428 21.0712C14.506 21.2133 14.4292 21.5204 14.5713 21.7572C14.7134 21.994 15.0205 22.0708 15.2573 21.9287L17 20.8831V21.5C17 21.7761 17.2239 22 17.5 22C17.7762 22 18 21.7761 18 21.5V20.8831L19.7428 21.9287C19.9796 22.0708 20.2867 21.994 20.4288 21.7572C20.5708 21.5204 20.4941 21.2133 20.2573 21.0712L18 19.7169V18H19.9236C20.168 18 20.3766 17.8233 20.4168 17.5822L21.9864 8.16437C22.0772 7.6196 21.7092 7.10437 21.1644 7.01358Z" fill="currentColor"/>
<path d="M6.15293 14.9999H17.7901L18.1235 12.9999H5.8196L6.15293 14.9999Z" fill="currentColor"/>
<path d="M17.7499 10.9999H18.4568L18.2901 11.9999H12.9999L12.1552 8.62121C12.0763 8.30563 12.315 7.99994 12.6403 7.99994H16.6095C16.8389 7.99994 17.0389 8.15609 17.0946 8.37867L17.7499 10.9999Z" fill="currentColor"/>
<path d="M5.65293 11.9999L5.48627 10.9999H6.24987L6.90519 8.37867C6.96084 8.15609 7.16083 7.99994 7.39026 7.99994H11.3595C11.6848 7.99994 11.9234 8.30563 11.8446 8.62121L10.9999 11.9999H5.65293Z" fill="currentColor"/>
</svg>
