<svg width="24" height="24" viewBox="0 0 24 24" fill="none" xmlns="http://www.w3.org/2000/svg">
<path fill-rule="evenodd" clip-rule="evenodd" d="M3 3.99976C3 2.89519 3.89543 1.99976 5 1.99976H18C18.5523 1.99976 19 2.44747 19 2.99976C19 3.55204 18.5523 3.99976 18 3.99976H15V4.99976C15 5.55204 14.5523 5.99976 14 5.99976H8C7.44772 5.99976 7 5.55204 7 4.99976V3.99976H5V18.9998H9C7.89543 18.9998 7 18.1043 7 16.9998V10.9998H15V11.9998C15.4308 11.9998 15.8565 12.0925 16.2482 12.2717C16.6399 12.451 16.9884 12.7124 17.27 13.0384C17.5516 13.3643 17.7598 13.7471 17.8803 14.1607C18.0007 14.5742 18.0308 15.0089 17.9682 15.4351C17.9057 15.8613 17.7522 16.269 17.518 16.6306C17.2838 16.9921 16.9746 17.299 16.6112 17.5304C16.2478 17.7617 15.8389 17.9121 15.4123 17.9713C15.1885 18.0023 14.9627 18.0079 14.739 17.9884C14.3948 18.5924 13.745 18.9998 13 18.9998H18C18.5523 18.9998 19 19.4475 19 19.9998V20.9998C19 21.552 18.5523 21.9998 18 21.9998H5C3.89543 21.9998 3 21.1043 3 19.9998V3.99976ZM15 16.6956V13.304C15.2435 13.304 15.4841 13.3564 15.7055 13.4577C15.927 13.559 16.124 13.7068 16.2832 13.8911C16.4424 14.0753 16.56 14.2917 16.6281 14.5254C16.6962 14.7592 16.7132 15.0049 16.6778 15.2458C16.6425 15.4868 16.5557 15.7172 16.4233 15.9216C16.291 16.126 16.1162 16.2994 15.9108 16.4302C15.7054 16.561 15.4742 16.646 15.233 16.6795C15.1556 16.6902 15.0778 16.6956 15 16.6956Z" fill="currentColor"/>
<path d="M12 8.99976C12 9.55204 11.5523 9.99976 11 9.99976C10.4477 9.99976 10 9.55204 10 8.99976C10 8.44747 10.4477 7.99976 11 7.99976C11.5523 7.99976 12 8.44747 12 8.99976Z" fill="currentColor"/>
</svg>
