<svg width="24" height="24" viewBox="0 0 24 24" fill="none" xmlns="http://www.w3.org/2000/svg">
  <path fill-rule="evenodd" clip-rule="evenodd" d="M2 7C2 6.44772 2.44772 6 3 6H21C21.5523 6 22 6.44772 22 7V9C22 9.55228 21.5523 10 21 10H17.3258L19.2473 16.7253C19.4298 17.3641 18.9502 18 18.2858 18C17.8393 18 17.4469 17.704 17.3243 17.2747L15.3133 10.2363C15.2908 10.1576 15.2784 10.0783 15.2753 10H8.72488C8.72181 10.0783 8.70941 10.1576 8.68691 10.2363L6.67594 17.2747C6.55328 17.704 6.16089 18 5.71441 18C5.05004 18 4.57037 17.3641 4.75289 16.7253L6.67439 10H3C2.44772 10 2 9.55228 2 9V7ZM10 7.5C10 7.22386 10.2239 7 10.5 7H13.5C13.7761 7 14 7.22386 14 7.5C14 7.77614 13.7761 8 13.5 8H10.5C10.2239 8 10 7.77614 10 7.5Z" fill="currentColor"/>
</svg>
