<svg width="24" height="24" viewBox="0 0 24 24" fill="none" xmlns="http://www.w3.org/2000/svg">
  <path fill-rule="evenodd" clip-rule="evenodd" d="M3 4C3 3.44772 3.44772 3 4 3H20C20.5523 3 21 3.44772 21 4C21 4.55228 20.5523 5 20 5V18C20 18.5523 19.5523 19 19 19H18V20C18 20.5523 17.5523 21 17 21C16.4477 21 16 20.5523 16 20V19H8V20C8 20.5523 7.55228 21 7 21C6.44772 21 6 20.5523 6 20V19H5C4.44772 19 4 18.5523 4 18L4 5C3.44772 5 3 4.55228 3 4ZM11.5 5V16.5C11.5 16.7761 11.7238 17 12 17C12.2761 17 12.5 16.7761 12.5 16.5V5H11.5ZM8 11.5C8 11.2239 8.22386 11 8.5 11H9.5C9.77614 11 10 11.2239 10 11.5C10 11.7761 9.77614 12 9.5 12H8.5C8.22386 12 8 11.7761 8 11.5ZM14.5 11C14.2239 11 14 11.2239 14 11.5C14 11.7761 14.2239 12 14.5 12H15.5C15.7761 12 16 11.7761 16 11.5C16 11.2239 15.7761 11 15.5 11H14.5Z" fill="currentColor"/>
</svg>
