<svg width="24" height="24" viewBox="0 0 24 24" fill="none" xmlns="http://www.w3.org/2000/svg">
  <path fill-rule="evenodd" clip-rule="evenodd" d="M19.5201 4.37525C19.5378 4.26623 19.4639 4.16345 19.3548 4.14569L7.21498 2.16745C5.85224 1.94538 4.5675 2.87006 4.34543 4.2328C4.12335 5.59554 5.04804 6.88028 6.41078 7.10235L7.69655 7.31188C7.94918 7.97717 8.31793 8.59124 8.78205 9.12525L18.8965 7.37551C19.0479 6.98806 19.161 6.5789 19.2306 6.15182L19.5201 4.37525ZM7.30782 5.22215C7.30628 4.8924 7.33197 4.5581 7.38677 4.22183L6.8933 4.14141C6.62075 4.097 6.3638 4.28193 6.31939 4.55448C6.27497 4.82703 6.45991 5.08398 6.73246 5.12839L7.30782 5.22215Z" fill="currentColor"/>
  <path d="M18.3191 8.49025L9.69949 9.9814C9.69946 9.98138 9.69951 9.98141 9.69949 9.9814L2.22192 11.275C2.11308 11.2939 2.03976 11.3977 2.06285 11.5058C2.0989 11.6743 2.14314 11.8392 2.19509 12H20.607C21.4985 10.9553 21.9555 9.55272 21.7624 8.09785C21.7479 7.98835 21.6439 7.91515 21.5351 7.93398L18.3191 8.49025C18.3192 8.49022 18.3191 8.49027 18.3191 8.49025Z" fill="currentColor"/>
  <path d="M2.01198 13C2.00536 13 2 13.0054 2 13.012C2 16.3191 4.68093 19 7.98802 19H16.012C19.3191 19 22 16.3191 22 13.012C22 13.0054 21.9946 13 21.988 13H2.01198Z" fill="currentColor"/>
  <path d="M5 20.5C5 20.2239 5.22386 20 5.5 20H18.5C18.7761 20 19 20.2239 19 20.5C19 20.7761 18.7761 21 18.5 21H5.5C5.22386 21 5 20.7761 5 20.5Z" fill="currentColor"/>
</svg>
