<svg width="24" height="24" viewBox="0 0 24 24" fill="none" xmlns="http://www.w3.org/2000/svg">
  <path d="M8.70711 3C8.25435 3 7.82014 3.17986 7.5 3.5C7.17986 3.82014 7 4.25435 7 4.70711V6H17V4.70711C17 4.25435 16.8201 3.82014 16.5 3.5C16.1799 3.17986 15.7456 3 15.2929 3H8.70711Z" fill="currentColor"/>
  <path d="M17 7H7V12H17V7Z" fill="currentColor"/>
  <path d="M8.10557 14.5528C7.49913 14.2496 7.0926 13.663 7.01394 13H16.9861C16.9074 13.663 16.5009 14.2496 15.8944 14.5528L13 16H17C18.6569 16 20 17.3431 20 19V21H18V19C18 18.4477 17.5523 18 17 18H15V19C15 19.5523 14.5523 20 14 20C13.4477 20 13 19.5523 13 19V18H11V19C11 19.5523 10.5523 20 10 20C9.44772 20 9 19.5523 9 19V18H7C6.44772 18 6 18.4477 6 19V21H4V19C4 17.3431 5.34315 16 7 16H11L8.10557 14.5528Z" fill="currentColor"/>
</svg>
