<svg width="24" height="24" viewBox="0 0 24 24" fill="none" xmlns="http://www.w3.org/2000/svg">
<path fill-rule="evenodd" clip-rule="evenodd" d="M14.8284 3.17157C15.5786 3.92172 16 4.93913 16 6H19C19.5523 6 20 6.44772 20 7V8C20.5523 8 21 8.44772 21 9V10C21 10.5523 20.5523 11 20 11H4C3.44772 11 3 10.5523 3 10V9C3 8.44771 3.44772 8 4 8V7C4 6.44772 4.44772 6 5 6L8 6C8 4.93913 8.42143 3.92172 9.17157 3.17157C9.92172 2.42143 10.9391 2 12 2C13.0609 2 14.0783 2.42143 14.8284 3.17157ZM10.0014 6L13.9986 6C13.9986 5.46994 13.788 4.9616 13.4132 4.58679C13.0384 4.21198 12.5301 4.00142 12 4.00142C11.4699 4.00142 10.9616 4.21198 10.5868 4.58679C10.212 4.96159 10.0014 5.46994 10.0014 6Z" fill="currentColor"/>
<path fill-rule="evenodd" clip-rule="evenodd" d="M5.10502 12C4.51339 12 4.05111 12.5108 4.10998 13.0995L4.90998 21.0995C4.9611 21.6107 5.39126 22 5.90502 22H18.095C18.6088 22 19.039 21.6107 19.0901 21.0995L19.8901 13.0995C19.9489 12.5108 19.4867 12 18.895 12H5.10502ZM12.4719 15.0173C12.6361 14.8764 12.74 14.6674 12.74 14.4341C12.74 14.0099 12.3961 13.666 11.9719 13.666C11.5477 13.666 11.2038 14.0099 11.2038 14.4341C11.2038 14.6674 11.3078 14.8764 11.4719 15.0173V16.1126L10.5234 15.565C10.4834 15.3524 10.3544 15.1578 10.1524 15.0412C9.78502 14.8291 9.31524 14.955 9.10313 15.3224C8.89101 15.6897 9.01689 16.1595 9.38428 16.3716C9.5863 16.4883 9.81928 16.5027 10.0234 16.431L10.9719 16.9787L10.0232 17.5264C9.81914 17.4547 9.58621 17.4692 9.38422 17.5858C9.01683 17.7979 8.89095 18.2677 9.10307 18.6351C9.31518 19.0025 9.78496 19.1284 10.1524 18.9163C10.3544 18.7996 10.4834 18.605 10.5233 18.3924L11.4719 17.8447V18.9402C11.3078 19.0811 11.2038 19.2901 11.2038 19.5234C11.2038 19.9476 11.5477 20.2915 11.9719 20.2915C12.3961 20.2915 12.74 19.9476 12.74 19.5234C12.74 19.2901 12.636 19.0811 12.4719 18.9402V17.8447L13.4207 18.3925C13.4606 18.6051 13.5896 18.7996 13.7917 18.9162C14.159 19.1284 14.6288 19.0025 14.8409 18.6351C15.0531 18.2677 14.9272 17.7979 14.5598 17.5858C14.3578 17.4692 14.1248 17.4547 13.9207 17.5264L12.9719 16.9787L13.9206 16.431C14.1247 16.5027 14.3577 16.4883 14.5598 16.3716C14.9272 16.1595 15.0531 15.6897 14.8409 15.3223C14.6288 14.955 14.1591 14.8291 13.7917 15.0412C13.5897 15.1578 13.4607 15.3523 13.4207 15.5648L12.4719 16.1127V15.0173Z" fill="currentColor"/>
</svg>
