<svg width="24" height="24" viewBox="0 0 24 24" fill="none" xmlns="http://www.w3.org/2000/svg">
<path d="M11 6C11 6.55228 10.5523 7 10 7H6C5.44772 7 5 6.55228 5 6C5 5.44772 5.44772 5 6 5H10C10.5523 5 11 5.44772 11 6Z" fill="currentColor"/>
<path d="M14 6C14 6.55228 13.5523 7 13 7C12.4477 7 12 6.55228 12 6C12 5.44772 12.4477 5 13 5C13.5523 5 14 5.44772 14 6Z" fill="currentColor"/>
<path d="M19 6C19 6.55228 18.5523 7 18 7C17.4477 7 17 6.55228 17 6C17 5.44772 17.4477 5 18 5C18.5523 5 19 5.44772 19 6Z" fill="currentColor"/>
<path d="M6 15.5C6 15.7761 5.77614 16 5.5 16C5.22386 16 5 15.7761 5 15.5V14.5C5 14.2239 5.22386 14 5.5 14C5.77614 14 6 14.2239 6 14.5V15.5Z" fill="currentColor"/>
<path d="M11 15C11 15.5523 10.5523 16 10 16C9.44772 16 9 15.5523 9 15C9 14.4477 9.44772 14 10 14C10.5523 14 11 14.4477 11 15Z" fill="currentColor"/>
<path d="M14 15C14 15.5523 13.5523 16 13 16C12.4477 16 12 15.5523 12 15C12 14.4477 12.4477 14 13 14C13.5523 14 14 14.4477 14 15Z" fill="currentColor"/>
<path d="M19 15C19 15.5523 18.5523 16 18 16H16C15.4477 16 15 15.5523 15 15C15 14.4477 15.4477 14 16 14H18C18.5523 14 19 14.4477 19 15Z" fill="currentColor"/>
<path d="M7 12C7 12.5523 6.55228 13 6 13C5.44772 13 5 12.5523 5 12C5 11.4477 5.44772 11 6 11C6.55228 11 7 11.4477 7 12Z" fill="currentColor"/>
<path d="M13 12C13 12.5523 12.5523 13 12 13H9C8.44772 13 8 12.5523 8 12C8 11.4477 8.44772 11 9 11H12C12.5523 11 13 11.4477 13 12Z" fill="currentColor"/>
<path d="M16 12C16 12.5523 15.5523 13 15 13C14.4477 13 14 12.5523 14 12C14 11.4477 14.4477 11 15 11C15.5523 11 16 11.4477 16 12Z" fill="currentColor"/>
<path d="M19 12C19 12.5523 18.5523 13 18 13C17.4477 13 17 12.5523 17 12C17 11.4477 17.4477 11 18 11C18.5523 11 19 11.4477 19 12Z" fill="currentColor"/>
<path d="M16 9C16 8.44771 16.4477 8 17 8H18C18.5523 8 19 8.44772 19 9C19 9.55228 18.5523 10 18 10H17C16.4477 10 16 9.55228 16 9Z" fill="currentColor"/>
<path d="M13 9C13 8.44771 13.4477 8 14 8C14.5523 8 15 8.44771 15 9C15 9.55228 14.5523 10 14 10C13.4477 10 13 9.55228 13 9Z" fill="currentColor"/>
<path d="M8 8.5C8 8.22386 8.22386 8 8.5 8C8.77614 8 9 8.22386 9 8.5V9.5C9 9.77614 8.77614 10 8.5 10C8.22386 10 8 9.77614 8 9.5V8.5Z" fill="currentColor"/>
<path d="M5 9C5 8.44771 5.44772 8 6 8C6.55229 8 7 8.44771 7 9C7 9.55228 6.55228 10 6 10C5.44772 10 5 9.55228 5 9Z" fill="currentColor"/>
<path d="M18 17.5C18 17.2239 18.2239 17 18.5 17C18.7761 17 19 17.2239 19 17.5V18.5C19 18.7761 18.7761 19 18.5 19C18.2239 19 18 18.7761 18 18.5V17.5Z" fill="currentColor"/>
<path d="M13 18C13 17.4477 13.4477 17 14 17C14.5523 17 15 17.4477 15 18C15 18.5523 14.5523 19 14 19C13.4477 19 13 18.5523 13 18Z" fill="currentColor"/>
<path d="M10 18C10 17.4477 10.4477 17 11 17C11.5523 17 12 17.4477 12 18C12 18.5523 11.5523 19 11 19C10.4477 19 10 18.5523 10 18Z" fill="currentColor"/>
<path d="M8 17.5C8 17.2239 8.22386 17 8.5 17C8.77614 17 9 17.2239 9 17.5V18.5C9 18.7761 8.77614 19 8.5 19C8.22386 19 8 18.7761 8 18.5V17.5Z" fill="currentColor"/>
<path d="M5 18C5 17.4477 5.44772 17 6 17C6.55229 17 7 17.4477 7 18C7 18.5523 6.55228 19 6 19C5.44772 19 5 18.5523 5 18Z" fill="currentColor"/>
<path fill-rule="evenodd" clip-rule="evenodd" d="M2 3C2 2.44772 2.44772 2 3 2H21C21.5523 2 22 2.44772 22 3V21C22 21.5523 21.5523 22 21 22H3C2.44772 22 2 21.5523 2 21V3ZM4 20V4H20V20H4Z" fill="currentColor"/>
</svg>
