<svg width="24" height="24" viewBox="0 0 24 24" fill="none" xmlns="http://www.w3.org/2000/svg">
<path fill-rule="evenodd" clip-rule="evenodd" d="M3 21V1H23V21L21 23H1L3 21ZM5 2H22V18.8705L18 15.2342V5.00085C18 4.44857 17.5523 4.00085 17 4.00085H10C9.44772 4.00085 9 4.44857 9 5.00085V15.2938L5 19.2938V2ZM17.3568 16.0009H9.70712L5.70798 20H21.7558L17.3568 16.0009ZM12 5.00085H17V14.7639L12 13.6924V9.50085C12 9.777 12.2239 10.0009 12.5 10.0009C12.7761 10.0009 13 9.777 13 9.50085C13 9.22471 12.7761 9.00085 12.5 9.00085C12.2239 9.00085 12 9.22471 12 9.50085V5.00085Z" fill="currentColor"/>
</svg>
