<svg width="24" height="24" viewBox="0 0 24 24" fill="none" xmlns="http://www.w3.org/2000/svg">
  <path d="M14 5.01428L10.0152 8.47558V7.47729L12.8668 5H13.9836L14 5.01428Z" fill="currentColor"/>
  <path d="M10 11V10.0029L13.9834 6.54278V7.53989L10 11Z" fill="currentColor"/>
  <path fill-rule="evenodd" clip-rule="evenodd" d="M12 2C8.68629 2 6 4.68629 6 8C6 11.3137 8.68629 14 12 14C15.3137 14 18 11.3137 18 8C18 4.68629 15.3137 2 12 2ZM8 8C8 10.2091 9.79086 12 12 12C14.2091 12 16 10.2091 16 8C16 5.79086 14.2091 4 12 4C9.79086 4 8 5.79086 8 8Z" fill="currentColor"/>
  <path d="M3.05476 8.9984C2.99417 8.44945 3.44772 8 4.00001 8C4.55229 8 4.9925 8.45028 5.07047 8.99703C5.55442 12.3908 8.47251 15 12 15C15.5275 15 18.4456 12.3908 18.9295 8.99703C19.0075 8.45028 19.4477 8 20 8C20.5523 8 21.0058 8.44945 20.9453 8.9984C20.4848 13.1708 17.1722 16.4839 13 16.9451V20H15C15.5523 20 16 20.4477 16 21C16 21.5523 15.5523 22 15 22H9C8.44772 22 8 21.5523 8 21C8 20.4477 8.44772 20 9 20H11V16.9451C6.82785 16.4839 3.51524 13.1708 3.05476 8.9984Z" fill="currentColor"/>
</svg>
