<svg width="24" height="24" viewBox="0 0 24 24" fill="none" xmlns="http://www.w3.org/2000/svg">
<path d="M7.00291 10.5004V12.0009H17V10.5004C17 9.33495 17.6085 8.31898 18.5034 7.79471C18.3309 6.22457 17.079 5.00092 15.5626 5.00092H8.44032C6.92391 5.00092 5.67199 6.22457 5.5 7.79471C6.39445 8.31898 7.00291 9.33495 7.00291 10.5004Z" fill="currentColor"/>
<path d="M20 8.50092C18.9646 8.50092 18 9.39444 18 10.5006V12.989L6 13.0009V10.5125C6 9.40631 5.03544 8.50092 4 8.50092C2.96457 8.50092 2 9.39367 2 10.5004V14.9951C2 16.1008 2.84295 17.0009 3.87838 17.0009H5V18.0009C5 18.5532 5.44772 19.0009 6 19.0009C6.55228 19.0009 7 18.5532 7 18.0009V17.0009H17V18.0009C17 18.5532 17.4477 19.0009 18 19.0009C18.5523 19.0009 19 18.5532 19 18.0009V17.0009H20.1216C21.1571 17.0009 22 16.1008 22 14.9951V10.5004C21.9985 9.39367 21.0355 8.50092 20 8.50092Z" fill="currentColor"/>
</svg>
