<svg width="24" height="24" viewBox="0 0 24 24" fill="none" xmlns="http://www.w3.org/2000/svg">
<path d="M4 7C4.55228 7 5 6.55228 5 6C5 5.44772 4.55228 5 4 5C3.44772 5 3 5.44772 3 6C3 6.55228 3.44772 7 4 7Z" fill="currentColor"/>
<path fill-rule="evenodd" clip-rule="evenodd" d="M20 7C19.4477 7 19 7.44772 19 8V9H5V8C5 7.44772 4.55228 7 4 7C3.44772 7 3 7.44772 3 8V20C3 20.5523 3.44772 21 4 21C4.55228 21 5 20.5523 5 20V18H19V20C19 20.5523 19.4477 21 20 21C20.5523 21 21 20.5523 21 20V8C21 7.44772 20.5523 7 20 7ZM19 11V16H17V11H19ZM15 11V16H13V11H15ZM11 11V16H9V11H11ZM7 11V16H5V11H7Z" fill="currentColor"/>
<path d="M20 7C20.5523 7 21 6.55228 21 6C21 5.44772 20.5523 5 20 5C19.4477 5 19 5.44772 19 6C19 6.55228 19.4477 7 20 7Z" fill="currentColor"/>
</svg>
