<svg width="24" height="24" viewBox="0 0 24 24" fill="none" xmlns="http://www.w3.org/2000/svg">
  <path fill-rule="evenodd" clip-rule="evenodd" d="M3 3C3 2.44771 3.44772 2 4 2H20C20.5523 2 21 2.44772 21 3V21C21 21.5523 20.5523 22 20 22C19.4477 22 19 21.5523 19 21H5C5 21.5523 4.55228 22 4 22C3.44772 22 3 21.5523 3 21V3ZM12 3.99995C12.2761 3.99995 12.5 4.22381 12.5 4.49995V18.5C12.5 18.7761 12.2761 19 12 19C11.7239 19 11.5 18.7761 11.5 18.5V4.49995C11.5 4.22381 11.7239 3.99995 12 3.99995ZM9.5 11C9.22386 11 9 11.2239 9 11.5V12.5C9 12.7761 9.22386 13 9.5 13C9.77614 13 10 12.7761 10 12.5V11.5C10 11.2239 9.77614 11 9.5 11ZM14 11.5C14 11.2239 14.2239 11 14.5 11C14.7761 11 15 11.2239 15 11.5V12.5C15 12.7761 14.7761 13 14.5 13C14.2239 13 14 12.7761 14 12.5V11.5Z" fill="currentColor"/>
</svg>
