<svg width="24" height="24" viewBox="0 0 24 24" fill="none" xmlns="http://www.w3.org/2000/svg">
  <path fill-rule="evenodd" clip-rule="evenodd" d="M4 4.2C4 4.08954 4.08954 4 4.2 4H15.8C15.9105 4 16 4.08954 16 4.2V19C16 19.5523 16.4477 20 17 20H6C4.89543 20 4 19.1046 4 18V4.2ZM6 6C5.44772 6 5 6.44772 5 7V8C5 8.55228 5.44772 9 6 9H14C14.5523 9 15 8.55228 15 8V7C15 6.44772 14.5523 6 14 6H6ZM5 11.5C5 11.2239 5.22386 11 5.5 11H14.5C14.7761 11 15 11.2239 15 11.5C15 11.7761 14.7761 12 14.5 12H5.5C5.22386 12 5 11.7761 5 11.5ZM5.5 14C5.22386 14 5 14.2239 5 14.5C5 14.7761 5.22386 15 5.5 15H14.5C14.7761 15 15 14.7761 15 14.5C15 14.2239 14.7761 14 14.5 14H5.5ZM5 17.5C5 17.2239 5.22386 17 5.5 17H14.5C14.7761 17 15 17.2239 15 17.5C15 17.7761 14.7761 18 14.5 18H5.5C5.22386 18 5 17.7761 5 17.5Z" fill="currentColor"/>
  <path d="M19.8431 12H17V18.5C17 19.3284 17.6716 20 18.5 20C19.3284 20 20 19.3284 20 18.5V12.1569C20 12.0702 19.9298 12 19.8431 12Z" fill="currentColor"/>
</svg>
