<svg xmlns="http://www.w3.org/2000/svg" xmlns:xlink="http://www.w3.org/1999/xlink" preserveAspectRatio="xMidYMid" width="16px" height="10.133px" viewBox="0 0 16 10.133">
  <path d="M16,7.402c-0.213,0.975-2.359,2.73-8,2.73s-7.788-1.756-8-2.73
	c1.364,0.723,6.06,1.07,8,1.07C9.941,8.473,14.635,8.125,16,7.402z M8,8c4.484,0,6.191-1.396,6.359-2.17
	C13.275,6.404,9.543,6.68,8,6.68S2.725,6.404,1.641,5.83C1.809,6.604,3.516,8,8,8z M8,6.146c3.252,0,4.488-1.012,4.611-1.572
	C11.824,4.99,9.119,5.189,8,5.189c-1.118,0-3.824-0.199-4.61-0.615C3.512,5.135,4.75,6.146,8,6.146z M5.519,0.199
	c0.04,0.197,1.117,0.355,2.442,0.355c1.324,0,2.4-0.158,2.441-0.355c0,0.104-0.002,0.205-0.004,0.308
	c0.365-0.194,0.764-0.302,1.133-0.304c0.293,0,0.572,0.005,0.791,0.18c0.219,0.174,0.264,0.521,0.26,0.858c0,0.002,0,0.003,0,0.005
	V1.25v0.005c-0.004,0.478-0.07,0.941-0.311,1.3c-0.242,0.354-0.582,0.621-0.992,0.625c-0.01,0-0.018,0-0.027,0
	c-0.281-0.011-0.553-0.062-0.797-0.061C10.252,3.121,10.078,3.15,9.912,3.25C9.736,3.668,9.504,4.018,9.207,4.271
	C9.188,4.525,9.021,4.76,7.961,4.76S6.734,4.525,6.715,4.271C5.82,3.504,5.521,1.86,5.519,0.199z M10.377,0.997
	c-0.041,0.62-0.131,1.218-0.287,1.747c0.125-0.027,0.248-0.037,0.365-0.035c0.297,0,0.574,0.053,0.805,0.06
	c0.01,0,0.016,0.001,0.02,0.001c0.209,0.002,0.457-0.156,0.652-0.445c0.191-0.283,0.236-0.678,0.24-1.066c0-0.005,0-0.011,0-0.017
	c-0.002-0.243,0.01-0.442-0.107-0.539c-0.119-0.097-0.305-0.089-0.533-0.089C11.178,0.611,10.74,0.754,10.377,0.997z M10.076,0.188
	C9.76,0.101,9.049,0,7.961,0S6.162,0.101,5.846,0.188c0.316,0.088,1.027,0.188,2.115,0.188S9.76,0.275,10.076,0.188z" fill="currentColor" />
</svg>
