<svg width="24" height="24" viewBox="0 0 24 24" fill="none" xmlns="http://www.w3.org/2000/svg">
  <path fill-rule="evenodd" clip-rule="evenodd" d="M3 4C3 3.44772 3.44772 3 4 3H20C20.5523 3 21 3.44772 21 4V7H3V4ZM18 6C18.5523 6 19 5.55228 19 5C19 4.44772 18.5523 4 18 4C17.4477 4 17 4.44772 17 5C17 5.55228 17.4477 6 18 6Z" fill="currentColor"/>
  <path fill-rule="evenodd" clip-rule="evenodd" d="M3 8H21V20C21 20.5523 20.5523 21 20 21H4C3.44772 21 3 20.5523 3 20V8ZM7 10.098C7 10.0439 7.04389 10 7.09804 10H12.902C12.9561 10 13 10.0439 13 10.098V12C13 13.4865 11.9189 14.7205 10.5 14.9585V18H11.5C11.7761 18 12 18.2239 12 18.5C12 18.7761 11.7761 19 11.5 19H8.5C8.22386 19 8 18.7761 8 18.5C8 18.2239 8.22386 18 8.5 18H9.5V14.9585C8.08114 14.7205 7 13.4865 7 12V10.098ZM14 12.5C14 12.7761 14.2239 13 14.5 13C14.7761 13 15 12.7761 15 12.5V10.5C15 10.2239 14.7761 10 14.5 10C14.2239 10 14 10.2239 14 10.5V12.5ZM14.5 19C14.2239 19 14 18.7761 14 18.5V14H14.5C15.3284 14 16 13.3284 16 12.5V10.5C16 10.2239 16.2239 10 16.5 10C16.7761 10 17 10.2239 17 10.5V12.5C17 13.7103 16.1399 14.7198 14.9976 14.9505C14.9992 14.9668 15 14.9833 15 15V18.5C15 18.7761 14.7761 19 14.5 19Z" fill="currentColor"/>
</svg>
