<svg width="24" height="24" viewBox="0 0 24 24" fill="none" xmlns="http://www.w3.org/2000/svg">
  <path fill-rule="evenodd" clip-rule="evenodd" d="M5 4.90508C5 4.39133 5.38929 3.96116 5.9005 3.91004L13.9005 3.11004C14.4538 3.05471 14.9384 3.45982 14.9946 4H18C18.5523 4 19 4.44772 19 5V19C19 19.5523 18.5523 20 18 20H14.9946C14.9385 20.5403 14.4539 20.9455 13.9005 20.8901L5.9005 20.0901C5.3893 20.039 5 19.6089 5 19.0951V4.90508ZM15 19H18V5H15V19ZM12 11.5001C12 11.2239 12.2239 11.0001 12.5 11.0001H13.5C13.7761 11.0001 14 11.2239 14 11.5001C14 11.7762 13.7761 12.0001 13.5 12.0001H12.5C12.2239 12.0001 12 11.7762 12 11.5001Z" fill="currentColor"/>
</svg>
