<svg width="24" height="24" viewBox="0 0 24 24" fill="none" xmlns="http://www.w3.org/2000/svg">
<path d="M7 14H11.5V6H6C4.89543 6 4 6.89543 4 8V12H5C6.10457 12 7 12.8954 7 14Z" fill="currentColor"/>
<path d="M6 14C6 13.4477 5.55228 13 5 13H4C3.44772 13 3 13.4477 3 14V19C3 19.5523 3.44772 20 4 20H5V21C5 21.5523 5.44772 22 6 22C6.55228 22 7 21.5523 7 21V20H17V21C17 21.5523 17.4477 22 18 22C18.5523 22 19 21.5523 19 21V20H20C20.5523 20 21 19.5523 21 19V14C21 13.4477 20.5523 13 20 13H19C18.4477 13 18 13.4477 18 14V15H6V14Z" fill="currentColor"/>
<path d="M19 12H20V8C20 6.89543 19.1046 6 18 6H12.5V14H17C17 12.8954 17.8954 12 19 12Z" fill="currentColor"/>
</svg>
