<svg width="24" height="24" viewBox="0 0 24 24" fill="none" xmlns="http://www.w3.org/2000/svg">
<path d="M6.01953 9C6.01953 8.44771 6.46725 8 7.01953 8H10.0195C10.5718 8 11.0195 8.44772 11.0195 9V11H6.01953V9Z" fill="currentColor"/>
<path d="M14.0195 8C13.4672 8 13.0195 8.44771 13.0195 9V11H18.0195V9C18.0195 8.44772 17.5718 8 17.0195 8H14.0195Z" fill="currentColor"/>
<path fill-rule="evenodd" clip-rule="evenodd" d="M5 4C3.89543 4 3 4.89543 3 6V12C2.44772 12 2 12.4477 2 13V20C2 20.5523 2.44772 21 3 21C3.55228 21 4 20.5523 4 20V19H20V20C20 20.5523 20.4477 21 21 21C21.5523 21 22 20.5523 22 20V13C22 12.4477 21.5523 12 21 12V6C21 4.89543 20.1046 4 19 4H5ZM20 17V16H4V17H20ZM19 12H5V6H19V12Z" fill="currentColor"/>
</svg>
