<svg width="24" height="24" viewBox="0 0 24 24" fill="none" xmlns="http://www.w3.org/2000/svg">
  <path fill-rule="evenodd" clip-rule="evenodd" d="M12 18C15.3137 18 18 15.3137 18 12C18 8.68629 15.3137 6 12 6C8.68629 6 6 8.68629 6 12C6 15.3137 8.68629 18 12 18ZM12 16C14.2091 16 16 14.2091 16 12C16 9.79086 14.2091 8 12 8C9.79086 8 8 9.79086 8 12C8 14.2091 9.79086 16 12 16Z" fill="currentColor"/>
  <path d="M7 7C7.55228 7 8 6.55228 8 6C8 5.44772 7.55228 5 7 5C6.44772 5 6 5.44772 6 6C6 6.55228 6.44772 7 7 7Z" fill="currentColor"/>
  <path fill-rule="evenodd" clip-rule="evenodd" d="M4 2C3.44772 2 3 2.44771 3 3V20C3 20.5523 3.44772 21 4 21H20C20.5523 21 21 20.5523 21 20V3C21 2.44772 20.5523 2 20 2H4ZM5 4V19H19V4H5Z" fill="currentColor"/>
</svg>
