<svg width="24" height="24" viewBox="0 0 24 24" fill="none" xmlns="http://www.w3.org/2000/svg">
<path d="M13 12C13 12.5523 12.5523 13 12 13C11.4477 13 11 12.5523 11 12C11 11.4477 11.4477 11 12 11C12.5523 11 13 11.4477 13 12Z" fill="currentColor"/>
<path d="M11.4999 5.01759C11.7754 4.99814 12 5.22386 12 5.5V6.5C12 6.77614 11.7755 6.99737 11.5007 7.02462C9.13793 7.25887 7.25887 9.13793 7.02462 11.5007C6.99737 11.7755 6.77614 12 6.5 12H5.5C5.22386 12 4.99814 11.7754 5.01759 11.4999C5.26234 8.0325 8.0325 5.26234 11.4999 5.01759Z" fill="currentColor"/>
<path d="M11.501 8.03082C11.775 7.99672 12 8.22386 12 8.5V9.5C12 9.77614 11.7727 9.99359 11.5051 10.0617C10.7982 10.2417 10.2417 10.7982 10.0617 11.5051C9.99359 11.7727 9.77614 12 9.5 12H8.5C8.22386 12 7.99672 11.775 8.03082 11.501C8.25609 9.69084 9.69084 8.25609 11.501 8.03082Z" fill="currentColor"/>
<path d="M13.9383 12.4949C14.0064 12.2273 14.2239 12 14.5 12H15.5C15.7761 12 16.0033 12.225 15.9692 12.499C15.7439 14.3092 14.3092 15.7439 12.499 15.9692C12.225 16.0033 12 15.7761 12 15.5V14.5C12 14.2239 12.2273 14.0064 12.4949 13.9383C13.2018 13.7583 13.7583 13.2018 13.9383 12.4949Z" fill="currentColor"/>
<path d="M12.4993 16.9754C12.2245 17.0026 12 17.2239 12 17.5V18.5C12 18.7761 12.2246 19.0019 12.5001 18.9824C15.9675 18.7377 18.7377 15.9675 18.9824 12.5001C19.0019 12.2246 18.7761 12 18.5 12H17.5C17.2239 12 17.0026 12.2245 16.9754 12.4993C16.7411 14.8621 14.8621 16.7411 12.4993 16.9754Z" fill="currentColor"/>
<path fill-rule="evenodd" clip-rule="evenodd" d="M12 22C17.5228 22 22 17.5228 22 12C22 6.47715 17.5228 2 12 2C6.47715 2 2 6.47715 2 12C2 17.5228 6.47715 22 12 22ZM12 20C16.4183 20 20 16.4183 20 12C20 7.58172 16.4183 4 12 4C7.58172 4 4 7.58172 4 12C4 16.4183 7.58172 20 12 20Z" fill="currentColor"/>
</svg>
