<svg width="24" height="24" viewBox="0 0 24 24" fill="none" xmlns="http://www.w3.org/2000/svg">
  <path d="M13 3C13 2.44772 13.4477 2 14 2H18C18.5523 2 19 2.44772 19 3V21C19 21.5523 18.5523 22 18 22H14C13.4477 22 13 21.5523 13 21V19.8501H13.0166C13.1118 20.446 13.6054 20.9001 14.2 20.9001H16C17 20.9001 18 19.6959 18 19V17C18 15.6399 16.7 14 15 14H13V12H17V4H13V3Z" fill="currentColor"/>
  <path d="M16 5H8C7.44771 5 7 5.44772 7 6V7H16V5Z" fill="currentColor"/>
  <path d="M16 7.5H7V10C7 10.5523 7.44771 11 8 11H16V7.5Z" fill="currentColor"/>
  <path d="M6.1875 15C6.08395 15 6 15.0839 6 15.1875C6 16.7408 7.2592 18 8.8125 18H14V18.5C14 19.3284 14.6716 20 15.5 20C16.3284 20 17 19.3284 17 18.5V17.5C17 16.1193 15.8807 15 14.5 15H6.1875Z" fill="currentColor"/>
</svg>
