<svg width="24" height="24" viewBox="0 0 24 24" fill="none" xmlns="http://www.w3.org/2000/svg">
<path d="M11.9715 10.9708C10.886 10.9547 10.0101 10.0737 10.002 8.98632H14.0018C13.9937 10.0695 13.1247 10.9477 12.0451 10.9706C14.2432 10.9835 16.0212 12.7694 16.0212 14.9705H8.02119C8.02119 12.778 9.78527 10.9974 11.9715 10.9708Z" fill="currentColor"/>
<path d="M10 6.88476C10 6.33248 10.4477 5.88476 11 5.88476H13C13.5523 5.88476 14 6.33248 14 6.88476V7.98632H10V6.88476Z" fill="currentColor"/>
<path fill-rule="evenodd" clip-rule="evenodd" d="M2 4.00879C2 3.4565 2.44772 3.00879 3 3.00879H21C21.5523 3.00879 22 3.4565 22 4.00879V17.988C22 18.5402 21.5523 18.988 21 18.988H3C2.44772 18.988 2 18.5402 2 17.988V4.00879ZM4 16.988V5.00879H20V16.988H4Z" fill="currentColor"/>
<path d="M7 20C6.44772 20 6 20.4477 6 21C6 21.5523 6.44771 22 7 22H17C17.5523 22 18 21.5523 18 21C18 20.4477 17.5523 20 17 20H16V19H14V20H10V19H8V20H7Z" fill="currentColor"/>
</svg>
