<svg xmlns="http://www.w3.org/2000/svg" xmlns:xlink="http://www.w3.org/1999/xlink" preserveAspectRatio="xMidYMid" width="61" height="60" viewBox="0 0 61 60">
	<path d="M12.8572 40.3057H17.1429V43.52C17.1429 46.4735 14.7407 48.8771 11.7857 48.8771C11.1957 48.8771 10.7143 49.3571 10.7143 49.9485V53.1628H6.42859V49.9485C6.42859 46.995 8.83073 44.5914 11.7857 44.5914C12.3757 44.5914 12.8572 44.1114 12.8572 43.52V40.3057Z" fill="currentColor"/>
	<path d="M27.8572 40.3057H32.1429V43.52C32.1429 46.4735 29.7407 48.8771 26.7857 48.8771C26.1957 48.8771 25.7143 49.3571 25.7143 49.9485V53.1628H21.4286V49.9485C21.4286 46.995 23.8307 44.5914 26.7857 44.5914C27.3757 44.5914 27.8572 44.1114 27.8572 43.52V40.3057Z" fill="currentColor"/>
	<path d="M42.8571 40.3057H47.1428V43.52C47.1428 46.4735 44.7407 48.8771 41.7857 48.8771C41.1957 48.8771 40.7142 49.3571 40.7142 49.9485V53.1628H36.4285V49.9485C36.4285 46.995 38.8307 44.5914 41.7857 44.5914C42.3757 44.5914 42.8571 44.1114 42.8571 43.52V40.3057Z" fill="currentColor"/>
	<path d="M55.7143 6.01994H4.28571C1.92286 6.01994 0 7.94209 0 10.3057V31.7342C0 34.0978 1.92286 36.0199 4.28571 36.0199H7.97071L10.7793 24.7857C11.0179 23.8328 11.8736 23.1628 12.8571 23.1628H47.1429C48.1264 23.1628 48.9821 23.8328 49.2207 24.7857L52.0293 36.0199H55.7143C58.0771 36.0199 60 34.0978 60 31.7342V10.3057C60 7.94209 58.0771 6.01994 55.7143 6.01994ZM49.2857 16.7342H45C43.8157 16.7342 42.8571 15.7749 42.8571 14.5914C42.8571 13.4078 43.8157 12.4485 45 12.4485H49.2857C50.47 12.4485 51.4286 13.4078 51.4286 14.5914C51.4286 15.7749 50.47 16.7342 49.2857 16.7342Z" fill="currentColor"/>
	<path d="M45.4685 27.4485L47.6114 36.0199H12.3885L14.5314 27.4485H45.4685Z" fill="currentColor"/>
</svg>