<svg width="24" height="24" viewBox="0 0 24 24" fill="none" xmlns="http://www.w3.org/2000/svg">
  <path d="M12 9C13.1965 9 14.2295 9.70051 14.7111 10.7138C15.2042 10.1106 15.5 9.33986 15.5 8.5C15.5 6.63413 14.0399 5.10928 12.2 5.00562C12.0897 4.99941 12 5.08954 12 5.2V9Z" fill="currentColor"/>
  <path d="M10.7138 9.28894C9.7005 9.77053 9 10.8035 9 12L5.2 12C5.08954 12 4.99941 11.9103 5.00562 11.8C5.10928 9.96007 6.63413 8.50001 8.5 8.50001C9.33985 8.50001 10.1106 8.79582 10.7138 9.28894Z" fill="currentColor"/>
  <path d="M9.28888 13.2861C9.43702 13.5978 9.63735 13.88 9.87858 14.1212C10.4215 14.6641 11.1715 15 12 15V18.7998C12 18.9103 11.9103 19.0004 11.8 18.9942C9.96006 18.8905 8.5 17.3657 8.5 15.4998C8.5 14.66 8.79579 13.8892 9.28888 13.2861Z" fill="currentColor"/>
  <path d="M13.2862 14.7111C13.8894 15.2042 14.6601 15.5 15.5 15.5C17.3659 15.5 18.8907 14.04 18.9944 12.2C19.0006 12.0897 18.9105 12 18.8 12H15C15 13.1966 14.2995 14.2295 13.2862 14.7111Z" fill="currentColor"/>
  <path d="M14 12C14 13.1046 13.1046 14 12 14C10.8954 14 10 13.1046 10 12C10 10.8954 10.8954 10 12 10C13.1046 10 14 10.8954 14 12Z" fill="currentColor"/>
  <path fill-rule="evenodd" clip-rule="evenodd" d="M22 12C22 17.5228 17.5228 22 12 22C6.47715 22 2 17.5228 2 12C2 6.47715 6.47715 2 12 2C17.5228 2 22 6.47715 22 12ZM20 12C20 16.4183 16.4183 20 12 20C7.58172 20 4 16.4183 4 12C4 7.58172 7.58172 4 12 4C16.4183 4 20 7.58172 20 12Z" fill="currentColor"/>
</svg>
