<svg width="24" height="24" viewBox="0 0 24 24" fill="none" xmlns="http://www.w3.org/2000/svg">
  <path fill-rule="evenodd" clip-rule="evenodd" d="M19 8V5C19 4.44772 18.5523 4 18 4H11C10.4477 4 10 4.44772 10 5V8H9C8.44772 8 8 8.44771 8 9V18C8 18.5523 8.44771 19 9 19H20C20.5523 19 21 18.5523 21 18V9C21 8.44772 20.5523 8 20 8H19ZM17 6H12V8H17V6ZM10 11.5C10 11.2239 10.2239 11 10.5 11H12.5C12.7761 11 13 11.2239 13 11.5V15.5C13 15.7761 12.7761 16 12.5 16H10.5C10.2239 16 10 15.7761 10 15.5V11.5ZM14.5 11C14.2239 11 14 11.2239 14 11.5C14 11.7761 14.2239 12 14.5 12H15.5C15.7761 12 16 11.7761 16 11.5C16 11.2239 15.7761 11 15.5 11H14.5ZM14 13.5C14 13.2239 14.2239 13 14.5 13H15.5C15.7761 13 16 13.2239 16 13.5C16 13.7761 15.7761 14 15.5 14H14.5C14.2239 14 14 13.7761 14 13.5ZM14.5 15C14.2239 15 14 15.2239 14 15.5C14 15.7761 14.2239 16 14.5 16H15.5C15.7761 16 16 15.7761 16 15.5C16 15.2239 15.7761 15 15.5 15H14.5ZM17 11.5C17 11.2239 17.2239 11 17.5 11H18.5C18.7761 11 19 11.2239 19 11.5C19 11.7761 18.7761 12 18.5 12H17.5C17.2239 12 17 11.7761 17 11.5ZM17.5 13C17.2239 13 17 13.2239 17 13.5C17 13.7761 17.2239 14 17.5 14H18.5C18.7761 14 19 13.7761 19 13.5C19 13.2239 18.7761 13 18.5 13H17.5ZM17 15.5C17 15.2239 17.2239 15 17.5 15H18.5C18.7761 15 19 15.2239 19 15.5C19 15.7761 18.7761 16 18.5 16H17.5C17.2239 16 17 15.7761 17 15.5Z" fill="currentColor"/>
  <path d="M3 8C3 7.44772 3.44772 7 4 7H6C6.55228 7 7 7.44772 7 8V19C7 19.5523 6.55228 20 6 20H4C3.44772 20 3 19.5523 3 19V8Z" fill="currentColor"/>
</svg>
