<svg width="24" height="24" viewBox="0 0 24 24" fill="none" xmlns="http://www.w3.org/2000/svg">
  <path d="M4 3C3.44772 3 3 3.44772 3 4C3 4.55228 3.44772 5 4 5H20C20.5523 5 21 4.55228 21 4C21 3.44772 20.5523 3 20 3H4Z" fill="currentColor"/>
  <path fill-rule="evenodd" clip-rule="evenodd" d="M4 6H20V19C20.5523 19 21 19.4477 21 20C21 20.5523 20.5523 21 20 21H4C3.44772 21 3 20.5523 3 20C3 19.4477 3.44772 19 4 19V6ZM7.5 19H9.14343C8.43613 18.3988 8 17.5752 8 16.6667C8 13.7146 12 10 12 10C12 10 16 13.7146 16 16.6667C16 17.5752 15.5639 18.3988 14.8566 19H16.5C16.7761 19 17 18.7761 17 18.5V9.5C17 9.22386 16.7761 9 16.5 9H7.5C7.22386 9 7 9.22386 7 9.5V18.5C7 18.7761 7.22386 19 7.5 19ZM12 19C13.1046 19 14 18.2538 14 17.3333C14 16.4129 12 14 12 14C12 14 10 16.4129 10 17.3333C10 18.2538 10.8954 19 12 19Z" fill="currentColor"/>
</svg>
