<svg width="24" height="24" viewBox="0 0 24 24" fill="none" xmlns="http://www.w3.org/2000/svg">
<path d="M3 2C3.55228 2 4 2.44772 4 3V6.4C4 7.06447 4.36873 7.43521 4.92289 7.69382C5.20378 7.8249 5.49672 7.90454 5.72737 7.95067C5.84041 7.97328 5.93288 7.98673 5.99397 7.9943L6 7.99504L6.00603 7.9943C6.06712 7.98673 6.15959 7.97328 6.27263 7.95067C6.50328 7.90454 6.79622 7.8249 7.07711 7.69382C7.63127 7.43521 8 7.06447 8 6.4V3C8 2.44772 8.44772 2 9 2C9.55228 2 10 2.44772 10 3V6.4C10 8.13553 8.86873 9.06479 7.92289 9.50618C7.59676 9.65837 7.27646 9.76293 7 9.83483V21C7 21.5523 6.55228 22 6 22C5.44772 22 5 21.5523 5 21V9.83483C4.72354 9.76293 4.40324 9.65837 4.07711 9.50618C3.13127 9.06479 2 8.13553 2 6.4V3C2 2.44772 2.44772 2 3 2Z" fill="currentColor"/>
<path d="M6 2C6.55228 2 7 2.44772 7 3V5.8C7 6.35228 6.55228 6.8 6 6.8C5.44772 6.8 5 6.35228 5 5.8V3C5 2.44772 5.44772 2 6 2Z" fill="currentColor"/>
<path d="M15 21C15 21.5523 14.5523 22 14 22C13.4477 22 13 21.5523 13 21V15.5C11.741 14.5557 11 13.0738 11 11.5V7.5C11 5.92621 11.741 4.44427 13 3.5L15 2V21Z" fill="currentColor"/>
<path d="M19 2C17.3431 2 16 3.34315 16 5V7C16 8.30622 16.8348 9.41746 18 9.82929V21C18 21.5523 18.4477 22 19 22C19.5523 22 20 21.5523 20 21V9.82929C21.1652 9.41746 22 8.30622 22 7V5C22 3.34315 20.6569 2 19 2Z" fill="currentColor"/>
</svg>
