<svg width="24" height="24" viewBox="0 0 24 24" fill="none" xmlns="http://www.w3.org/2000/svg">
  <path d="M2 17C2 17.5523 2.44772 18 3 18C3.55228 18 4 17.5523 4 17V15H11V17C11 17.5523 11.4477 18 12 18C12.5523 18 13 17.5523 13 17V15H20V17C20 17.5523 20.4477 18 21 18C21.5523 18 22 17.5523 22 17V13H4V12H9C9 10.3431 7.65685 9 6 9L4 9C4 8.44772 3.55228 8 3 8C2.44772 8 2 8.44772 2 9V17Z" fill="currentColor"/>
  <path d="M13 10C11.8954 10 11 10.8954 11 12H22C22 10.8954 21.1046 10 20 10H13Z" fill="currentColor"/>
</svg>
