<svg width="24" height="24" viewBox="0 0 24 24" fill="none" xmlns="http://www.w3.org/2000/svg">
  <path fill-rule="evenodd" clip-rule="evenodd" d="M22.9091 1.09091H4.36364V20.7273H22.9091V1.09091ZM2.18182 0V21.8182L0 24H21.8182L24 21.8182V0H2.18182Z" fill="currentColor"/>
  <path d="M20.698 17.1169L20.7019 17.1146L19.5169 14.7273H19.9994V14.725C20.1 14.725 20.1817 14.6415 20.1817 14.5383C20.1817 14.5064 20.1717 14.4778 20.1581 14.4515L20.1613 14.4496L18.9484 12.5455H19.2243V12.5439C19.2587 12.5439 19.2918 12.5299 19.3162 12.5049C19.3406 12.4799 19.3543 12.446 19.3543 12.4107C19.3539 12.3889 19.3481 12.3676 19.3375 12.3487L19.3397 12.3474L17.7282 9.74755L17.7265 9.74858C17.7086 9.70985 17.6803 9.6771 17.645 9.65408C17.6097 9.63107 17.5688 9.61873 17.5269 9.61848C17.4388 9.61848 17.364 9.67214 17.3275 9.74824L15.639 12.3474C15.628 12.3665 15.6222 12.3884 15.6217 12.4107C15.6217 12.4842 15.6799 12.5439 15.7518 12.5439V12.5455H16.0313L14.9767 14.4496C14.9612 14.4765 14.9532 14.5071 14.9524 14.5383C14.9524 14.6415 15.0341 14.725 15.1347 14.725V14.7273H15.6217L15.1347 15.6989L13.7891 13.1029H14.47V13.0998C14.612 13.0998 14.7271 12.9816 14.7271 12.8361C14.7271 12.7913 14.7152 12.7495 14.6958 12.7124L14.6983 12.7108L13.2162 9.81818H13.6055V9.81611C13.6296 9.81613 13.6535 9.81127 13.6758 9.80181C13.6981 9.79235 13.7183 9.77846 13.7354 9.76096C13.7525 9.74346 13.766 9.72267 13.7752 9.6998C13.7844 9.67693 13.7891 9.65242 13.7891 9.62768C13.7891 9.59558 13.7791 9.56677 13.7653 9.54037L13.7685 9.53847L11.3474 5.63694C11.3217 5.58225 11.2807 5.53661 11.2306 5.50426C11.1805 5.47192 11.1225 5.45469 11.0633 5.45454C10.9358 5.45454 10.8264 5.53254 10.7766 5.64435L8.54605 9.53847C8.53043 9.56546 8.52236 9.59647 8.52165 9.62785C8.5216 9.65258 8.52632 9.67708 8.53551 9.69993C8.54471 9.72279 8.55822 9.74357 8.57525 9.76107C8.59229 9.77857 8.61253 9.79246 8.63481 9.80193C8.65708 9.81141 8.68096 9.81628 8.70508 9.81628V9.81835H9.09972L7.40085 12.6774C7.36659 12.7229 7.34791 12.7786 7.34767 12.8361C7.34767 12.9818 7.46294 13.0998 7.60481 13.0998V13.1029H8.2921L6.61042 15.8427C6.57003 15.8969 6.54529 15.9638 6.54529 16.0373C6.54529 16.2154 6.68631 16.36 6.86016 16.36V16.3636H10.1887V18.2906C10.1887 18.4312 10.3 18.5455 10.4371 18.5455H11.6796C11.8167 18.5455 11.9282 18.4314 11.9282 18.2906V16.3636V12L13.0907 14.1818V16.36L14.7271 16.3636L14.355 17.1146C14.3375 17.1472 14.3253 17.1833 14.3253 17.2233C14.3253 17.3496 14.425 17.452 14.5482 17.452V17.4545H16.907V18.3638C16.907 18.4635 16.9859 18.5442 17.083 18.5442H17.9635C18.0607 18.5442 18.1395 18.4635 18.1395 18.3638V17.4545V14.5994L18.9484 16.3636V17.4886L20.504 17.4545V17.452C20.6271 17.452 20.7271 17.3496 20.7271 17.2233C20.7263 17.1859 20.7162 17.1493 20.698 17.1169Z" fill="currentColor"/>
</svg>
