<svg width="24" height="24" viewBox="0 0 24 24" fill="none" xmlns="http://www.w3.org/2000/svg">
<path d="M11.6877 9.2545C12.5089 10.281 13 11.5832 13 13H4.80272C4.29221 12.1175 4.00003 11.0929 4.00003 10V8C4.00003 7.44772 4.44774 7 5.00003 7H7.00003C8.89689 7 10.5882 7.88023 11.6877 9.2545Z" fill="currentColor"/>
<path d="M20 13H14C14 11.3648 13.4394 9.86059 12.4998 8.66907C13.2353 8.24355 14.0892 8 15 8C15.83 8 16.6127 8.2022 17.3016 8.56004L17.7072 8.15443C18.0977 7.76391 18.7309 7.76391 19.1214 8.15443C19.5119 8.54496 19.5119 9.17812 19.1214 9.56865L18.8638 9.82624C19.5738 10.6896 20 11.795 20 13Z" fill="currentColor"/>
<path d="M21.4833 15.1812C21.6843 14.5817 21.2087 14 20.5765 14H3.42336C2.79114 14 2.31557 14.5817 2.51656 15.1812C3.84546 19.1444 7.58922 22 11.9999 22C16.4107 22 20.1544 19.1444 21.4833 15.1812Z" fill="currentColor"/>
</svg>
