<svg width="24" height="24" viewBox="0 0 24 24" fill="none" xmlns="http://www.w3.org/2000/svg">
<path d="M9.14473 9.1984C9.05201 9.29203 9 9.41847 9 9.55023C9 9.99685 9.54099 10.2194 9.85526 9.90206L13.8663 5.85182C14.179 5.53615 13.9554 5 13.5111 5C13.3776 5 13.2497 5.05335 13.1558 5.14817L9.14473 9.1984Z" fill="currentColor"/>
<path d="M9.85355 13.839C9.53857 14.1539 9 13.9309 9 13.4854C9 13.3528 9.05268 13.2256 9.14645 13.1319L14.1464 8.13186C14.4614 7.81688 15 8.03996 15 8.48541C15 8.61802 14.9473 8.7452 14.8536 8.83896L9.85355 13.839Z" fill="currentColor"/>
<path d="M9 17.3817C9 17.8271 9.53857 18.0502 9.85355 17.7352L14.8536 12.7352C14.9473 12.6414 15 12.5143 15 12.3817C15 11.9362 14.4614 11.7131 14.1464 12.0281L9.14645 17.0281C9.05268 17.1219 9 17.249 9 17.3817Z" fill="currentColor"/>
<path fill-rule="evenodd" clip-rule="evenodd" d="M6 3C6 2.44771 6.44772 2 7 2H17C17.5523 2 18 2.44772 18 3V20C18 20.5523 17.5523 21 17 21H16C16 21.5523 15.5523 22 15 22C14.4477 22 14 21.5523 14 21H10C10 21.5523 9.55228 22 9 22C8.44772 22 8 21.5523 8 21H7C6.44771 21 6 20.5523 6 20V3ZM8 19V4H16V19H8Z" fill="currentColor"/>
</svg>
