<svg width="24" height="24" viewBox="0 0 24 24" fill="none" xmlns="http://www.w3.org/2000/svg">
<path fill-rule="evenodd" clip-rule="evenodd" d="M9.5 3.98145C9.22386 3.98145 9 4.2053 9 4.48145V7.09068C8.44771 7.09068 8 7.5384 8 8.09068V10.0059H7C6.44772 10.0059 6 10.4536 6 11.0059V18.0097C6 19.6666 7.34315 21.0097 9 21.0097H15C16.6569 21.0097 18 19.6666 18 18.0097V11.0059C18 10.4536 17.5523 10.0059 17 10.0059H16V8.09068C16 7.5384 15.5523 7.09068 15 7.09068V4.52284C15 4.2467 14.7761 4.02284 14.5 4.02284C14.2239 4.02284 14 4.2467 14 4.52284V7.09068H10V4.48145C10 4.2053 9.77614 3.98145 9.5 3.98145ZM12 12.0383C11.7239 12.0383 11.5 12.2622 11.5 12.5383V18.4991C11.5 18.7753 11.7239 18.9991 12 18.9991C12.2761 18.9991 12.5 18.7753 12.5 18.4991V12.5383C12.5 12.2622 12.2761 12.0383 12 12.0383ZM15 12.531C15 12.2549 15.2239 12.031 15.5 12.031C15.7761 12.031 16 12.2549 16 12.531V18.4918C16 18.7679 15.7761 18.9918 15.5 18.9918C15.2239 18.9918 15 18.7679 15 18.4918V12.531ZM8 12.5473C8 12.2712 8.22386 12.0473 8.5 12.0473C8.77614 12.0473 9 12.2712 9 12.5473V18.5081C9 18.7843 8.77614 19.0081 8.5 19.0081C8.22386 19.0081 8 18.7843 8 18.5081V12.5473Z" fill="currentColor"/>
</svg>
