<svg width="24" height="24" viewBox="0 0 24 24" fill="none" xmlns="http://www.w3.org/2000/svg">
<path d="M11 10H5V8C5 7.44772 5.44772 7 6 7H10C10.5523 7 11 7.44772 11 8V10Z" fill="currentColor"/>
<path d="M2 16V14C2 13.4477 2.44772 13 3 13H21C21.5523 13 22 13.4477 22 14V16C22 16.5523 21.5523 17 21 17H3C2.44772 17 2 16.5523 2 16Z" fill="currentColor"/>
<path d="M13 10H19V8C19 7.44772 18.5523 7 18 7H14C13.4477 7 13 7.44772 13 8V10Z" fill="currentColor"/>
<path d="M3.5 11C3.22386 11 3 11.2239 3 11.5C3 11.7761 3.22386 12 3.5 12H20.5C20.7761 12 21 11.7761 21 11.5C21 11.2239 20.7761 11 20.5 11H3.5Z" fill="currentColor"/>
</svg>
