<svg width="24" height="24" viewBox="0 0 24 24" fill="none" xmlns="http://www.w3.org/2000/svg">
<path d="M11 7C11 6.44772 11.4477 6 12 6Lnan nanL12 6C12.5523 6 13 6.44772 13 7V10C13 10.5523 12.5523 11 12 11Lnan nanL12 11C11.4477 11 11 10.5523 11 10V7Z" fill="currentColor"/>
<path fill-rule="evenodd" clip-rule="evenodd" d="M8 9H10V10C10 11.1046 10.8954 12 12 12C13.1046 12 14 11.1046 14 10V9H16C16.5523 9 17 9.44772 17 10V15C17 16.1046 16.1046 17 15 17H9C7.89543 17 7 16.1046 7 15V10C7 9.44772 7.44772 9 8 9ZM12 15C12.5523 15 13 14.5523 13 14C13 13.4477 12.5523 13 12 13C11.4477 13 11 13.4477 11 14C11 14.5523 11.4477 15 12 15Z" fill="currentColor"/>
<path fill-rule="evenodd" clip-rule="evenodd" d="M3 4C3 3.44772 3.44772 3 4 3H20C20.5523 3 21 3.44772 21 4V17C21 19.2091 19.2091 21 17 21H7C4.79086 21 3 19.2091 3 17V4ZM8 8H10V7C10 5.89543 10.8954 5 12 5C13.1046 5 14 5.89543 14 7V8H16C17.1046 8 18 8.89543 18 10V15C18 16.6569 16.6569 18 15 18H9C7.34315 18 6 16.6569 6 15V10C6 8.89543 6.89543 8 8 8Z" fill="currentColor"/>
</svg>
