<svg width="24" height="24" viewBox="0 0 24 24" fill="none" xmlns="http://www.w3.org/2000/svg">
  <path fill-rule="evenodd" clip-rule="evenodd" d="M22.9091 1.09091H4.36364V20.7273H22.9091V1.09091ZM2.18182 0V21.8182L0 24H21.8182L24 21.8182V0H2.18182Z" fill="currentColor"/>
  <path d="M20.7272 11.4545C20.7272 10.4895 20.1897 9.59956 19.2871 8.88621L19.2835 8.88409C19.0268 6.35121 16.5982 4.36363 13.6363 4.36363C10.6744 4.36363 8.24581 6.35121 7.98912 8.88409L7.98558 8.88621C7.53074 9.24565 7.16862 9.64992 6.92126 10.086C7.30583 9.91595 7.72829 9.81818 8.18178 9.81818C8.42939 9.81818 8.66775 9.84733 8.89573 9.90148C9.04732 9.78653 9.21511 9.67736 9.39738 9.57474L9.3943 9.53971C9.38804 9.46912 9.38178 9.39846 9.38178 9.32727C9.38178 7.36876 11.2871 5.78181 13.6363 5.78181C15.9855 5.78181 17.8909 7.36876 17.8909 9.32727C17.8909 9.39373 17.8854 9.45973 17.88 9.52565L17.876 9.57474C18.7645 10.0754 19.3091 10.732 19.3091 11.4545C19.3091 12.7763 17.5002 13.8825 15.0552 14.198V13.7243C15.0599 13.635 15.0964 13.5503 15.158 13.4854L16.4578 12.2615C16.5195 12.1966 16.5562 12.1119 16.5613 12.0225V11.4191C16.5613 11.3411 16.506 11.3092 16.4394 11.3489L15.1779 12.0913C15.1098 12.131 15.0552 12.0998 15.0552 12.0211V9.46909C15.0552 9.39109 14.9949 9.34712 14.9205 9.37194L13.062 9.99169C13.024 10.0065 12.9911 10.032 12.9673 10.0651C12.9435 10.0982 12.9298 10.1375 12.9279 10.1782V12.0218C12.9279 12.0998 12.8719 12.1339 12.8024 12.0977L11.3686 11.3432C11.3319 11.3259 11.2909 11.3199 11.2507 11.326C11.2106 11.332 11.1731 11.3499 11.1432 11.3773L11.0511 11.4693C11.2392 11.7441 11.4019 12.0443 11.5368 12.364L12.8216 13.4875C12.8804 13.5393 12.9279 13.6449 12.9279 13.7229V14.2654C12.601 14.2451 12.2827 14.2109 11.9755 14.164C11.9917 14.3496 12 14.5376 12 14.7273C12 15.0186 11.9805 15.3059 11.9426 15.5867C12.2628 15.6338 12.5916 15.6678 12.9272 15.6878V16.4182C12.9272 17.1273 11.636 17.7733 11.636 17.7733C11.6016 17.7912 11.5748 17.8209 11.5606 17.857C11.5464 17.8931 11.5457 17.9331 11.5587 17.9697C11.5587 17.9697 11.775 18.5455 12.2181 18.5455C12.4017 18.5455 12.57 18.4846 12.7671 18.4134C13.0458 18.3126 13.3823 18.1909 13.9015 18.1909C14.7879 18.1909 15.631 18.4972 15.631 18.4972C15.671 18.5095 15.7136 18.5112 15.7545 18.5021C15.7953 18.493 15.8332 18.4735 15.8643 18.4455L16.3727 17.9371C16.428 17.8817 16.4138 17.8144 16.3401 17.7867C16.3401 17.7867 15.0552 17.3045 15.0552 16.4182V15.6233C18.2915 15.2297 20.7272 13.513 20.7272 11.4545Z" fill="currentColor"/>
  <path fill-rule="evenodd" clip-rule="evenodd" d="M8.1818 18.5455C9.68803 18.5455 10.9091 16.836 10.9091 14.7273C10.9091 12.6186 9.68803 10.9091 8.1818 10.9091C6.67557 10.9091 5.45453 12.6186 5.45453 14.7273C5.45453 16.836 6.67557 18.5455 8.1818 18.5455ZM9.22257 16.7931C9.56949 16.3074 9.81817 15.5805 9.81817 14.7273C9.81817 13.8741 9.56949 13.1472 9.22257 12.6615C8.87415 12.1737 8.49117 12 8.1818 12C7.87244 12 7.48946 12.1737 7.14104 12.6615C6.79412 13.1472 6.54544 13.8741 6.54544 14.7273C6.54544 15.5805 6.79412 16.3074 7.14104 16.7931C7.30231 17.0189 7.47099 17.1773 7.63635 17.2825V14.1818C7.63635 13.8806 7.88056 13.6364 8.18181 13.6364C8.48305 13.6364 8.72726 13.8806 8.72726 14.1818V17.2825C8.89262 17.1773 9.06129 17.0189 9.22257 16.7931Z" fill="currentColor"/>
  <path d="M19.0908 18.5455C17.8147 18.5455 16.7432 17.669 16.4457 16.4851C16.8069 16.4011 17.1578 16.301 17.4958 16.1854C17.6625 16.9124 18.3133 17.4546 19.0908 17.4546C19.9946 17.4546 20.7272 16.722 20.7272 15.8182C20.7272 15.3612 20.5399 14.948 20.2378 14.6511C20.5129 14.4067 20.7634 14.1393 20.9798 13.851C21.4965 14.3473 21.8181 15.0452 21.8181 15.8182C21.8181 17.3245 20.5971 18.5455 19.0908 18.5455Z" fill="currentColor"/>
</svg>
