<svg width="24" height="24" viewBox="0 0 24 24" fill="none" xmlns="http://www.w3.org/2000/svg">
  <path d="M18.9222 4C19.5039 4 19.9629 4.49467 19.9194 5.07479L19.7145 7.80727C19.0361 8.01956 18.2845 7.92204 17.6735 7.51473C16.6609 6.83965 15.3641 6.75892 14.2756 7.30319L13.9685 7.45674L13.9971 7.07479C14.0406 6.49467 13.5817 6 12.9999 6H11.15L11.0806 5.07479C11.0371 4.49467 11.4961 4 12.0778 4H18.9222Z" fill="currentColor"/>
  <path d="M17.1188 8.34678C17.8733 8.84978 18.7791 9.01963 19.6358 8.85634L19.1694 15.0748C19.1303 15.5966 18.6955 16 18.1722 16H13.3277L13.8814 8.61834L14.7228 8.19761C15.4904 7.81383 16.4048 7.87075 17.1188 8.34678Z" fill="currentColor"/>
  <path d="M18 19H13.1027L13.2527 17H18C18.5523 17 19 17.4477 19 18C19 18.5523 18.5523 19 18 19Z" fill="currentColor"/>
  <path d="M5 21C5 20.4477 5.44772 20 6 20H11C11.5523 20 12 20.4477 12 21C12 21.5523 11.5523 22 11 22H6C5.44772 22 5 21.5523 5 21Z" fill="currentColor"/>
  <path d="M4.08062 8.07479C4.03711 7.49467 4.49606 7 5.07782 7H11.9222C12.504 7 12.9629 7.49467 12.9194 8.07479L12.8223 9.36949L11.3032 10.4545C10.5129 11.0191 9.45575 11.0361 8.6476 10.4974C7.65096 9.83295 6.37473 9.75349 5.30338 10.2892L4.28489 10.7984L4.08062 8.07479Z" fill="currentColor"/>
  <path d="M11.8845 11.2683L12.7249 10.668L12.1694 18.0748C12.1303 18.5966 11.6955 19 11.1722 19H5.82782C5.30454 19 4.86975 18.5966 4.83062 18.0748L4.36571 11.876L5.7506 11.1836C6.50097 10.8084 7.39485 10.8641 8.0929 11.3294C9.24674 12.0986 10.756 12.0743 11.8845 11.2683Z" fill="currentColor"/>
</svg>
