<svg width="24" height="24" viewBox="0 0 24 24" fill="none" xmlns="http://www.w3.org/2000/svg">
<path d="M4.5 2C3.67157 2 3 2.67157 3 3.5C3 4.32843 3.67157 5 4.5 5H13.5C12.6716 5 12 4.32843 12 3.5C12 2.67157 12.6716 2 13.5 2H4.5Z" fill="currentColor"/>
<path d="M13.5 3H14V4H13.5C13.2239 4 13 3.77614 13 3.5C13 3.22386 13.2239 3 13.5 3Z" fill="currentColor"/>
<path d="M4.61803 6H12.7306L11.3921 9.01167C11.1678 9.06101 11 9.2609 11 9.5C11 9.77614 10.7761 10 10.5 10C10.2239 10 10 10.2239 10 10.5V14.4107C10 14.7362 10.2638 15 10.5893 15C10.8864 15 11.1371 15.2213 11.174 15.5162L11.8594 21H3C2.44772 21 2 20.5523 2 20V10.2361C2 10.0808 2.03615 9.92771 2.10557 9.78885L3.72361 6.55279C3.893 6.214 4.23926 6 4.61803 6Z" fill="currentColor"/>
<path d="M15.2764 6.55279L16.5 9H12.4916L13.8249 6H14.382C14.7607 6 15.107 6.214 15.2764 6.55279Z" fill="currentColor"/>
<path d="M13.5 11C13.2239 11 13 11.2239 13 11.5C13 11.7761 12.7761 12 12.5 12C12.2239 12 12 12.2239 12 12.5C12 12.7761 12.2239 13 12.5 13H20.5C20.7761 13 21 12.7761 21 12.5C21 12.2239 20.7761 12 20.5 12C20.2239 12 20 11.7761 20 11.5C20 11.2239 19.7761 11 19.5 11H13.5Z" fill="currentColor"/>
<path d="M18.8672 14C19.4687 14 19.9341 14.5272 19.8595 15.124L19.1095 21.124C19.0469 21.6245 18.6215 22 18.1172 22H14.8828C14.3785 22 13.9531 21.6245 13.8905 21.124L13.1405 15.124C13.0659 14.5272 13.5313 14 14.1328 14H18.8672Z" fill="currentColor"/>
</svg>
