<svg xmlns="http://www.w3.org/2000/svg" xmlns:xlink="http://www.w3.org/1999/xlink" preserveAspectRatio="xMidYMid" width="15" height="10.314952" viewBox="0 0 15 10.314952">
    <path d="m 9.722148,2.642549 c 0,-1.00597 -0.9909561,-0.780753 -0.9909561,-0.780753 l 0,0 c 0,0 -2.4924048,0 -2.4924048,0 -1.0059706,0 -0.9609271,0.705681 -0.9609271,0.705681 l 0,0 c 0,0 0,0.330319 0,0.330319 -0.7957678,0.300289 -1.5915356,0.765738 -1.9969267,1.546492 0,0 -1.4263762,3.51339 -1.4113617,3.2131 0,0 0,1.681622 0,1.681622 l 0,0 c 0,0 -0.075073,0.975942 0.9909561,0.975942 0,0 9.2339093,0 9.2339093,0 l 0,0 c 0,0 1.035999,-0.03003 1.035999,-0.975942 0,0 0,-1.60655 0,-1.60655 l 0,0 c 0,0 -1.501448,-3.273158 -1.501448,-3.273158 C 11.088466,3.64852 10.367771,3.168056 9.7071335,2.867767 c 0,0 0.015015,-0.225218 0.015015,-0.225218 z M 7.4849895,3.453332 c 1.8167529,0 3.2881725,0.975941 3.2881725,2.1771 0,1.201159 -1.4714196,2.177101 -3.2881725,2.177101 -1.8017384,0 -3.273158,-0.975942 -3.273158,-2.177101 0,-1.201159 1.4714196,-2.1771 3.273158,-2.1771 z M 4.1217445,2.026955 c 0,0 1.4564052,-0.690666 3.0179118,-0.690666 0,0 0.7206954,0 0.7206954,0 l 0,0 c 0,0 2.0719991,0 3.0329263,0.795768 0.09009,0.07507 0.07507,-0.06006 0.01501,0.120116 -0.165159,0.405391 -0.27026,0.555536 -0.27026,0.555536 l 3.528404,1.786724 0.660637,-1.351304 c 0,0 0.660638,-1.111072 -0.600579,-1.756695 0,0 -1.036,-0.570551 -1.036,-0.570551 l 0,0 C 13.19049,0.915883 11.779129,0 7.7552463,0 c 0,0 -0.615594,0 -0.615594,0 C 3.9565812,0 1.8095096,0.915883 1.8095096,0.915883 l 0,0 c 0,0 -1.03599963,0.570551 -1.03599963,0.570551 C -0.4877069,2.132057 0.17293051,3.243129 0.17293051,3.243129 L 0.83356791,4.594433 4.3619723,2.807709 c 0,0 -0.1801738,-0.330319 -0.2702607,-0.585565 C 3.9866102,2.026955 4.0616826,2.071999 4.1217406,2.026955 Z m 3.393274,2.567478 c 1.0359996,0 1.8768108,0.450434 1.8768108,0.990956 0,0.555536 -0.8408112,0.990956 -1.8768108,0.990956 -1.0209851,0 -1.8617963,-0.43542 -1.8617963,-0.990956 0,-0.540522 0.8408112,-0.990956 1.8617963,-0.990956 z" fill="currentColor" />
</svg>