<svg width="24" height="24" viewBox="0 0 24 24" fill="none" xmlns="http://www.w3.org/2000/svg">
  <path d="M11 9C11 10.1046 10.1046 11 9 11C7.89543 11 7 10.1046 7 9C7 7.89543 7.89543 7 9 7C10.1046 7 11 7.89543 11 9Z" fill="currentColor"/>
  <path fill-rule="evenodd" clip-rule="evenodd" d="M16.21 13.0923C17.1762 12.6879 18.1156 12.2948 19 12V6C18.1157 5.70523 17.1763 5.31211 16.2101 4.90777C14.0008 3.9832 11.6514 3 9.5 3C5.5 3 3 5.68629 3 9C3 11.254 4.15671 13.2177 6.1554 14.2432L6.8905 20.124C6.95306 20.6245 7.37846 21 7.88278 21H8V22H10V21C10.5523 21 11 20.5523 11 20V17C11.5523 17 12 16.5523 12 16V14.6365C13.4032 14.2669 14.8337 13.6682 16.21 13.0923ZM9 13C11.2091 13 13 11.2091 13 9C13 6.79086 11.2091 5 9 5C6.79086 5 5 6.79086 5 9C5 11.2091 6.79086 13 9 13Z" fill="currentColor"/>
  <path d="M20 6L21.7106 5.14472C21.8436 5.07823 22.0001 5.17493 22.0001 5.3236V12.6764C22.0001 12.8251 21.8436 12.9218 21.7106 12.8553L20 12V6Z" fill="currentColor"/>
</svg>
