<svg width="24" height="24" viewBox="0 0 24 24" fill="none" xmlns="http://www.w3.org/2000/svg">
<path d="M13.5 13V14.5H15V17.5H13.5V19H10.5V17.5H9V14.5H10.5V13H13.5Z" fill="currentColor"/>
<path fill-rule="evenodd" clip-rule="evenodd" d="M7.21863 3.12592C7.78794 2.41427 8.64989 2 9.56124 2H14C14.5523 2 15 2.44772 15 3C15 3.55228 14.5523 4 14 4H13V5C13.5523 5 14 5.44772 14 6V7H16C17.6569 7 19 8.34315 19 10V20C19 21.1046 18.1046 22 17 22H7C5.89543 22 5 21.1046 5 20V10C5 8.34315 6.34315 7 8 7H10V6C10 5.44772 10.4477 5 11 5V4H9.56124C9.25745 4 8.97014 4.13809 8.78037 4.37531L8.40555 4.84383C8.06054 5.27509 7.43125 5.34501 6.99999 5C6.56872 4.65499 6.4988 4.0257 6.84381 3.59444L7.21863 3.12592ZM7 10C7 9.44772 7.44772 9 8 9H16C16.5523 9 17 9.44772 17 10H7ZM7 12V20H17V12H7Z" fill="currentColor"/>
</svg>
