<svg width="24" height="24" viewBox="0 0 24 24" fill="none" xmlns="http://www.w3.org/2000/svg">
  <path fill-rule="evenodd" clip-rule="evenodd" d="M19.7591 18L12.0001 12.4578L4.24099 18H19.7591ZM4.24099 20H19.7591C21.7048 20 22.5049 17.5034 20.9216 16.3725L13.1625 10.8303C12.4671 10.3336 11.533 10.3336 10.8376 10.8303L3.07851 16.3725C1.49525 17.5034 2.29531 20 4.24099 20Z" fill="currentColor"/>
  <path fill-rule="evenodd" clip-rule="evenodd" d="M11.0001 4C10.4478 4 10.0001 4.44772 10.0001 5V6.5C10.0001 6.77614 10.2239 7 10.5001 7C11.8808 7 13.0001 8.11929 13.0001 9.5V11H11.0001V9.5C11.0001 9.22386 10.7762 9 10.5001 9C9.11935 9 8.00006 7.88071 8.00006 6.5V5C8.00006 3.34315 9.34321 2 11.0001 2H12.0001C13.6569 2 15.0001 3.34315 15.0001 5C15.0001 5.55228 14.5523 6 14.0001 6C13.4478 6 13.0001 5.55228 13.0001 5C13.0001 4.44772 12.5523 4 12.0001 4H11.0001Z" fill="currentColor"/>
</svg>
