<svg width="24" height="24" viewBox="0 0 24 24" fill="none" xmlns="http://www.w3.org/2000/svg">
  <path d="M9.84546 2.61419C9.64732 2.1211 9.056 1.89408 8.52472 2.10711C7.99344 2.32015 7.72338 2.89257 7.92152 3.38565L8.22538 4.1418C8.27137 4.25626 8.2251 4.38971 8.11428 4.46223C7.18939 5.0674 6.8032 6.18108 7.18697 7.13632L7.49087 7.89274C7.68898 8.38584 8.28028 8.6129 8.81157 8.3999C9.34287 8.1869 9.61297 7.6145 9.41487 7.1214L9.11096 6.36498C9.06498 6.25052 9.11125 6.11708 9.22207 6.04456C10.147 5.43936 10.5332 4.32559 10.1493 3.37033L9.84546 2.61419Z" fill="currentColor"/>
  <path fill-rule="evenodd" clip-rule="evenodd" d="M5 8.99996C3.89543 8.99996 3 9.89539 3 11V17C3 18.1045 3.89543 19 5 19H6V20C6 20.5522 6.44772 21 7 21C7.55228 21 8 20.5522 8 20V19H16V20C16 20.5522 16.4477 21 17 21C17.5523 21 18 20.5522 18 20V19H19C20.1046 19 21 18.1045 21 17V11C21 9.89539 20.1046 8.99996 19 8.99996H5ZM7.5 11C7.22386 11 7 11.2238 7 11.5V16.5C7 16.7761 7.22386 17 7.5 17C7.77614 17 8 16.7761 8 16.5V11.5C8 11.2238 7.77614 11 7.5 11ZM10 11.5C10 11.2238 10.2239 11 10.5 11C10.7761 11 11 11.2238 11 11.5V16.5C11 16.7761 10.7761 17 10.5 17C10.2239 17 10 16.7761 10 16.5V11.5ZM13.5 11C13.2239 11 13 11.2238 13 11.5V16.5C13 16.7761 13.2239 17 13.5 17C13.7761 17 14 16.7761 14 16.5V11.5C14 11.2238 13.7761 11 13.5 11ZM16 11.5C16 11.2238 16.2239 11 16.5 11C16.7761 11 17 11.2238 17 11.5V16.5C17 16.7761 16.7761 17 16.5 17C16.2239 17 16 16.7761 16 16.5V11.5Z" fill="currentColor"/>
  <path d="M11.8609 2.10711C12.3922 1.89408 12.9835 2.1211 13.1816 2.61419L13.4855 3.37033C13.8694 4.32559 13.4832 5.43936 12.5583 6.04456C12.4474 6.11708 12.4012 6.25052 12.4471 6.36498L12.751 7.1214C12.9492 7.6145 12.6791 8.1869 12.1478 8.3999C11.6165 8.6129 11.0252 8.38584 10.8271 7.89274L10.5232 7.13632C10.1394 6.18108 10.5256 5.0674 11.4505 4.46223C11.5613 4.38971 11.6076 4.25626 11.5616 4.1418L11.2577 3.38565C11.0596 2.89257 11.3296 2.32015 11.8609 2.10711Z" fill="currentColor"/>
  <path d="M16.5178 2.61419C16.3197 2.1211 15.7284 1.89408 15.1971 2.10711C14.6658 2.32015 14.3957 2.89257 14.5939 3.38565L14.8977 4.1418C14.9437 4.25626 14.8975 4.38971 14.7866 4.46223C13.8618 5.0674 13.4756 6.18108 13.8593 7.13632L14.1632 7.89274C14.3613 8.38584 14.9526 8.6129 15.4839 8.3999C16.0152 8.1869 16.2853 7.6145 16.0872 7.1214L15.7833 6.36498C15.7373 6.25052 15.7836 6.11708 15.8944 6.04456C16.8194 5.43936 17.2056 4.32559 16.8217 3.37033L16.5178 2.61419Z" fill="currentColor"/>
</svg>
