<svg width="24" height="24" viewBox="0 0 24 24" fill="none" xmlns="http://www.w3.org/2000/svg">
<path d="M21 4C21 4.55228 20.5523 5 20 5H4C3.44772 5 3 4.55228 3 4C3 3.44772 3.44772 3 4 3H20C20.5523 3 21 3.44772 21 4Z" fill="currentColor"/>
<path d="M4 8.01431H5.50001L5.5 17.0047C5.5 17.557 5.94772 18.0047 6.5 18.0047C7.05229 18.0047 7.5 17.557 7.5 17.0047L7.50001 8.01431H9.19615L6.5 5.01611L4 8.01431Z" fill="currentColor"/>
<path d="M20 21C20.5523 21 21 20.5523 21 20C21 19.4477 20.5523 19 20 19H4C3.44772 19 3 19.4477 3 20C3 20.5523 3.44772 21 4 21H20Z" fill="currentColor"/>
<path fill-rule="evenodd" clip-rule="evenodd" d="M12 8.99231C12 8.44003 12.4477 7.99231 13 7.99231H19C19.5523 7.99231 20 8.44003 20 8.99231V17.0465C20 17.5988 19.5523 18.0465 19 18.0465H13C12.4477 18.0465 12 17.5988 12 17.0465V8.99231ZM15.5 16.5174C15.5 16.7936 15.7239 17.0174 16 17.0174C16.2761 17.0174 16.5 16.7936 16.5 16.5174V9.54844C16.5 9.2723 16.2761 9.04844 16 9.04844C15.7239 9.04844 15.5 9.2723 15.5 9.54844V16.5174ZM14.5 13.6919C14.7761 13.6919 15 13.4681 15 13.1921C15 12.916 14.7761 12.6922 14.5 12.6922C14.2239 12.6922 14 12.916 14 13.1921C14 13.4681 14.2239 13.6919 14.5 13.6919ZM18 13.1921C18 13.4681 17.7761 13.6919 17.5 13.6919C17.2239 13.6919 17 13.4681 17 13.1921C17 12.916 17.2239 12.6922 17.5 12.6922C17.7761 12.6922 18 12.916 18 13.1921Z" fill="currentColor"/>
</svg>
