<svg width="24" height="24" viewBox="0 0 24 24" fill="none" xmlns="http://www.w3.org/2000/svg">
<path d="M5 2C3.34315 2 2 3.34315 2 5V13.5351C2.58835 13.1948 3.27143 13 4 13V5C4 4.44772 4.44772 4 5 4H19C19.5523 4 20 4.44772 20 5V13C20.7286 13 21.4117 13.1948 22 13.5351V5C22 3.34315 20.6569 2 19 2H5Z" fill="currentColor"/>
<path d="M22 17C22 15.8954 21.1046 15 20 15H18C16.8954 15 16 15.8954 16 17V20H15V17C15 15.8954 14.1046 15 13 15H11C9.89543 15 9 15.8954 9 17V20H8V17C8 15.8954 7.10457 15 6 15H4C2.89543 15 2 15.8954 2 17V20H1V22H23V20H22V17Z" fill="currentColor"/>
<path d="M11 7L15 10L11 13V7Z" fill="currentColor"/>
</svg>
