<svg width="24" height="24" viewBox="0 0 24 24" fill="none" xmlns="http://www.w3.org/2000/svg">
<path d="M8 3.5C6.89543 3.5 6 4.39543 6 5.5V8.00006H8C8.55228 8.00006 9 8.44778 9 9.00006C9 9.55235 8.55228 10.0001 8 10.0001H3C2.44772 10.0001 2 9.55235 2 9.00006C2 8.44778 2.44772 8.00006 3 8.00006H5V5.5C5 3.84315 6.34315 2.5 8 2.5C9.65685 2.5 11 3.84315 11 5.5V22H10V5.5C10 4.39543 9.10457 3.5 8 3.5Z" fill="currentColor"/>
<path d="M13 10C13 8.89543 13.8954 8 15 8H19C20.1046 8 21 8.89543 21 10V14C21.5523 14 22 14.4477 22 15C22 15.5523 21.5523 16 21 16H20.895C20.6057 17.3535 19.7418 18.4653 18.6 19.011V22H15.4V19.011C14.2582 18.4653 13.3943 17.3535 13.105 16H13C12.4477 16 12 15.5523 12 15C12 14.4477 12.4477 14 13 14V10Z" fill="currentColor"/>
<path d="M3 13.5001C3 13.7762 3.22386 14.0001 3.5 14.0001C3.77614 14.0001 4 13.7762 4 13.5001V12.5001C4 12.2239 3.77614 12.0001 3.5 12.0001C3.22386 12.0001 3 12.2239 3 12.5001V13.5001Z" fill="currentColor"/>
<path d="M5.5 15.0001C5.22386 15.0001 5 14.7763 5 14.5001V13.5001C5 13.224 5.22386 13.0001 5.5 13.0001C5.77614 13.0001 6 13.224 6 13.5001V14.5001C6 14.7763 5.77614 15.0001 5.5 15.0001Z" fill="currentColor"/>
<path d="M7 13.5001C7 13.7763 7.22386 14.0001 7.5 14.0001C7.77614 14.0001 8 13.7763 8 13.5001V12.5001C8 12.224 7.77614 12.0001 7.5 12.0001C7.22386 12.0001 7 12.224 7 12.5001V13.5001Z" fill="currentColor"/>
</svg>
