<svg width="24" height="24" viewBox="0 0 24 24" fill="none" xmlns="http://www.w3.org/2000/svg">
  <path d="M19.5005 4.47703C18.1337 3.1102 15.9176 3.1102 14.5508 4.47703L10.6617 8.36612L12.2606 11.0309L15.9652 7.32635C16.1604 7.13108 16.477 7.13108 16.6723 7.32635C16.8675 7.52161 16.8675 7.83819 16.6723 8.03345L15.0846 9.62118L17.7328 11.1945L19.5005 9.42678C20.8674 8.05994 20.8674 5.84387 19.5005 4.47703Z" fill="currentColor"/>
  <path d="M17.0257 11.9017L14.3774 10.3283L8.18718 16.5188C7.99192 16.714 7.99192 17.0306 8.18718 17.2259C8.38244 17.4211 8.69902 17.4211 8.89428 17.2259L10.9784 15.1417L12.1236 15.778C12.5139 15.9948 13.0007 15.9266 13.3164 15.6109L17.0257 11.9017Z" fill="currentColor"/>
  <path d="M11.5535 11.738L9.35603 13.9355L8.1996 11.8539C7.98277 11.4636 8.05094 10.9769 8.36665 10.6612L9.9546 9.07322L11.5535 11.738Z" fill="currentColor"/>
  <path d="M12.4772 5.13611C11.9984 5.04673 11.5047 5 11 5C6.58172 5 3 8.58172 3 13C3 17.4183 6.58172 21 11 21C15.4183 21 19 17.4183 19 13C19 12.4819 18.9507 11.9752 18.8567 11.4845L16.9895 13.358C16.8043 16.505 14.1935 19 11 19C7.68629 19 5 16.3137 5 13C5 9.81835 7.47645 7.21511 10.6069 7.01267L12.4772 5.13611Z" fill="currentColor"/>
</svg>
