<svg width="24" height="24" viewBox="0 0 24 24" fill="none" xmlns="http://www.w3.org/2000/svg">
<path fill-rule="evenodd" clip-rule="evenodd" d="M6 7.99998L11.6838 6.10539C11.889 6.03697 12.111 6.03697 12.3162 6.10539L18 7.99998C20.2091 7.99998 22 9.567 22 11.5C22 13.433 20.2091 15 18 15L12.4472 17.7764C12.1657 17.9171 11.8343 17.9171 11.5528 17.7764L6 15C3.79086 15 2 13.433 2 11.5C2 9.567 3.79086 7.99998 6 7.99998ZM6 10C4.63622 10 4 10.9141 4 11.5C4 12.0859 4.63622 13 6 13V10ZM18 13C19.3638 13 20 12.0859 20 11.5C20 10.9141 19.3638 10 18 10V13ZM16 9.90003C16 9.69557 15.8755 9.51172 15.6857 9.43579L12.3713 8.11003C12.1329 8.01466 11.8669 8.01466 11.6285 8.11003L8.3143 9.43571C8.12448 9.51164 8 9.6955 8 9.89995C8 10.2537 8.35726 10.4956 8.6857 10.3642L11.6285 9.18706C11.8669 9.0917 12.1329 9.0917 12.3713 9.18706L15.3143 10.3643C15.6427 10.4956 16 10.2538 16 9.90003Z" fill="currentColor"/>
</svg>
