<svg width="24" height="24" viewBox="0 0 24 24" fill="none" xmlns="http://www.w3.org/2000/svg">
<path fill-rule="evenodd" clip-rule="evenodd" d="M4 3C3.44772 3 3 3.44772 3 4V20C3 20.5523 3.44772 21 4 21H20C20.5523 21 21 20.5523 21 20V4C21 3.44772 20.5523 3 20 3H4ZM13 5H11V6.26756C10.4022 6.61337 10 7.25972 10 8C10 8.93192 10.6374 9.71497 11.5 9.93699V11.1338C11.2011 11.3067 11 11.6299 11 12C11 12.5523 11.4477 13 12 13C12.5523 13 13 12.5523 13 12C13 11.6299 12.7989 11.3067 12.5 11.1338V9.93699C13.3626 9.71497 14 8.93192 14 8C14 7.25972 13.5978 6.61337 13 6.26756V5ZM7.5 18V16.5H5V15.5H6.06301C6.02188 15.3402 6 15.1726 6 15C6 14.0681 6.63739 13.285 7.5 13.063V12H8.5V18H7.5ZM16.5 16.5V18H15.5V12H16.5V13.063C17.3626 13.285 18 14.0681 18 15C18 15.1726 17.9781 15.3402 17.937 15.5H19V16.5H16.5Z" fill="currentColor"/>
</svg>
