<svg width="24" height="24" viewBox="0 0 24 24" fill="none" xmlns="http://www.w3.org/2000/svg">
  <path d="M5.5 3C5.22386 3 5 3.22386 5 3.5V4H8C9.65685 4 11 5.34315 11 7H4V3.5C4 2.67157 4.67157 2 5.5 2H7.5C7.77614 2 8 2.22386 8 2.5C8 2.77614 7.77614 3 7.5 3H5.5Z" fill="currentColor"/>
  <path fill-rule="evenodd" clip-rule="evenodd" d="M22 9C22 9.55229 21.5523 10 21 10H18.5L13.4467 14.8113L19.1375 20.2296C19.563 20.5817 19.6225 21.2121 19.2704 21.6376C18.9182 22.063 18.2879 22.1225 17.8624 21.7704L12 16.1887L6.13759 21.7704C5.71212 22.1225 5.08175 22.063 4.72963 21.6376C4.37751 21.2121 4.43698 20.5817 4.86246 20.2296L10.5533 14.8113L5.5 10H3C2.44772 10 2 9.55229 2 9C2 8.44771 2.44772 8 3 8H21C21.5523 8 22 8.44771 22 9ZM8.39342 10L12 13.4339L15.6066 10H8.39342Z" fill="currentColor"/>
</svg>
