<svg width="24" height="24" viewBox="0 0 24 24" fill="none" xmlns="http://www.w3.org/2000/svg">
<path d="M8 6C8 7.10457 7.10457 8 6 8C4.89543 8 4 7.10457 4 6C4 4.89543 4.89543 4 6 4C7.10457 4 8 4.89543 8 6Z" fill="currentColor"/>
<path fill-rule="evenodd" clip-rule="evenodd" d="M2 15C2 14.4477 2.44772 14 3 14H21C21.5523 14 22 14.4477 22 15C22 15.5523 21.5523 16 21 16V21C21 21.5523 20.5523 22 20 22H4C3.44772 22 3 21.5523 3 21L3 16C2.44772 16 2 15.5523 2 15ZM5 17V20H7V17H5ZM9 17V20H11V17H9ZM15 20H13V17H15V20ZM17 20H19V17H17V20Z" fill="currentColor"/>
<path d="M4 11C4 9.89543 4.89543 9 6 9C7.10457 9 8 9.89543 8 11H11C11.5523 11 12 11.4477 12 12C12 12.5523 11.5523 13 11 13H4V11Z" fill="currentColor"/>
<path d="M14.4546 5.08714C14.9401 4.82391 15.5471 5.00411 15.8103 5.48963L16.0952 6.01514C16.7784 7.2752 16.4748 8.84249 15.3705 9.75628L15.3363 9.78456C14.9682 10.0892 14.867 10.6116 15.0947 11.0316L15.3796 11.5571C15.6429 12.0426 15.4627 12.6496 14.9772 12.9129C14.4916 13.1761 13.8847 12.9959 13.6214 12.5104L13.3365 11.9848C12.6534 10.7248 12.957 9.1575 14.0613 8.24371L14.0954 8.21543C14.4635 7.91083 14.5647 7.3884 14.337 6.96838L14.0521 6.44287C13.7889 5.95735 13.9691 5.35037 14.4546 5.08714Z" fill="currentColor"/>
<path d="M19.3375 5.64032C19.0742 5.1548 18.4673 4.9746 17.9818 5.23783C17.4962 5.50106 17.316 6.10804 17.5793 6.59356L17.8642 7.11908C18.0919 7.5391 17.9907 8.06153 17.6226 8.36612L17.5884 8.3944C16.4841 9.30819 16.1805 10.8755 16.8637 12.1355L17.1486 12.6611C17.4118 13.1466 18.0188 13.3268 18.5043 13.0635C18.9898 12.8003 19.17 12.1933 18.9068 11.7078L18.6219 11.1823C18.3942 10.7623 18.4954 10.2399 18.8635 9.93526L18.8976 9.90698C20.0019 8.99319 20.3055 7.4259 19.6224 6.16584L19.3375 5.64032Z" fill="currentColor"/>
</svg>
