<svg width="24" height="24" viewBox="0 0 24 24" fill="none" xmlns="http://www.w3.org/2000/svg">
<path fill-rule="evenodd" clip-rule="evenodd" d="M12 3.30629C12 2.96501 11.6657 2.72403 11.3419 2.83195L7.68377 4.05132C7.27543 4.18744 7 4.56957 7 5V10.1707C6.68722 10.0602 6.35064 10 6 10C4.34315 10 3 11.3432 3 13C3 14.6569 4.34315 16 6 16C7.65685 16 9 14.6569 9 13V7.72076L11.3162 6.94869C11.7246 6.81257 12 6.43043 12 6V3.30629ZM7 13C7 13.5523 6.55228 14 6 14C5.44772 14 5 13.5523 5 13C5 12.4477 5.44772 12 6 12C6.55228 12 7 12.4477 7 13Z" fill="currentColor"/>
<path fill-rule="evenodd" clip-rule="evenodd" d="M13.6976 11.9675C13.5023 11.7722 13.1858 11.7722 12.9905 11.9675L8.74786 16.2101C7.77155 17.1864 7.77155 18.7694 8.74786 19.7457C9.72417 20.722 11.3071 20.722 12.2834 19.7457L16.526 15.503C16.7213 15.3078 16.7213 14.9912 16.526 14.7959L13.6976 11.9675ZM13.3441 14.4424L11.9299 15.8565L12.637 16.5636L14.0512 15.1495L13.3441 14.4424Z" fill="currentColor"/>
<path d="M20.7685 13.3817C20.2505 13.8997 19.6258 14.246 18.9652 14.4204L14.073 9.52827C14.2475 8.8676 14.5937 8.24288 15.1117 7.72489C16.6738 6.16279 19.2064 6.16279 20.7685 7.72489C22.3306 9.28698 22.3306 11.8196 20.7685 13.3817Z" fill="currentColor"/>
</svg>
