<svg width="24" height="24" viewBox="0 0 24 24" fill="none" xmlns="http://www.w3.org/2000/svg">
  <path d="M9 3C8.44772 3 8 3.44772 8 4C8 4.55228 8.44772 5 9 5H16C16.5523 5 17 4.55228 17 4C17 3.44772 16.5523 3 16 3H9Z" fill="currentColor"/>
  <path d="M7 20C6.44772 20 6 20.4477 6 21C6 21.5523 6.44772 22 7 22H17C17.5523 22 18 21.5523 18 21C18 20.4477 17.5523 20 17 20H7Z" fill="currentColor"/>
  <path fill-rule="evenodd" clip-rule="evenodd" d="M17.0141 6.18466C17.0061 6.08046 16.9192 6 16.8147 6H4.29994C4.15722 6 4.06043 6.14519 4.11532 6.27692L6.48168 11.9562C6.49369 11.985 6.49878 12.0162 6.49656 12.0474L6.01524 18.7858C6.00697 18.9015 6.09867 19 6.21473 19H17.784C17.9005 19 17.9923 18.9008 17.9834 18.7847L17.7307 15.5001L19.9029 10.4317C19.9669 10.2823 20 10.1215 20 9.95895V8.2C20 7.53726 19.4627 7 18.8 7H17.0769L17.0141 6.18466ZM17.2307 9L17.3996 11.1956L18 9.79474V9H17.2307ZM14.9999 8.2C14.9999 8.08954 14.9104 8 14.7999 8H13.1999C13.0895 8 12.9999 8.08954 12.9999 8.2V15.8C12.9999 15.9105 13.0895 16 13.1999 16H14.7999C14.9104 16 14.9999 15.9105 14.9999 15.8V8.2Z" fill="currentColor"/>
</svg>
