<svg width="24" height="24" viewBox="0 0 24 24" fill="none" xmlns="http://www.w3.org/2000/svg">
<path d="M6.01953 11C6.01953 10.4477 6.46725 10 7.01953 10H10.0195C10.5718 10 11.0195 10.4477 11.0195 11V13H6.01953V11Z" fill="currentColor"/>
<path d="M13.0195 11C13.0195 10.4477 13.4672 10 14.0195 10H17.0195C17.5718 10 18.0195 10.4477 18.0195 11V13H13.0195V11Z" fill="currentColor"/>
<path fill-rule="evenodd" clip-rule="evenodd" d="M10.4383 2.85139C11.2389 1.85057 12.7611 1.85056 13.5617 2.85137L16.4807 6.49999H19C20.1046 6.49999 21 7.39542 21 8.49999V14C21.5523 14 22 14.4477 22 15V21C22 21.5523 21.5523 22 21 22C20.4477 22 20 21.5523 20 21V20H4V21C4 21.5523 3.55228 22 3 22C2.44772 22 2 21.5523 2 21V15C2 14.4477 2.44772 14 3 14V8.49999C3 7.39542 3.89543 6.49999 5 6.49999H7.51944L10.4383 2.85139ZM5 14H19V8.49999H16.4807C15.8731 8.49999 15.2985 8.22381 14.919 7.74939L12 4.10077L9.08119 7.74936C8.70164 8.2238 8.12701 8.49999 7.51944 8.49999H5V14ZM20 18V17H4V18H20Z" fill="currentColor"/>
</svg>
