<svg xmlns="http://www.w3.org/2000/svg" xmlns:xlink="http://www.w3.org/1999/xlink" preserveAspectRatio="xMidYMid" width="16px" height="15.947px" viewBox="0 0 16 15.947">
  <path d="M0,4.16v11.787h16V4.16H0z M14.82,14.084H1.182V6.021H14.82V14.084z
	 M16,3.863V0H0v3.863H16z M12.863,1.064c0.492,0,0.892,0.399,0.892,0.892s-0.399,0.892-0.892,0.892s-0.891-0.399-0.891-0.892
	S12.371,1.064,12.863,1.064z M6.515,1.361h2.972v1.189H6.515V1.361z M3.137,1.064c0.492,0,0.892,0.399,0.892,0.892
	S3.629,2.848,3.137,2.848S2.246,2.448,2.246,1.956S2.645,1.064,3.137,1.064z M12.863,2.551c-0.327,0-0.594-0.267-0.594-0.595
	s0.267-0.595,0.594-0.595c0.328,0,0.595,0.267,0.595,0.595S13.191,2.551,12.863,2.551z M3.137,2.551
	c-0.327,0-0.594-0.267-0.594-0.595S2.81,1.361,3.137,1.361c0.328,0,0.595,0.267,0.595,0.595S3.465,2.551,3.137,2.551z M7.969,12.975
	c2.016-2.691-2.819-3.703-0.184-5.496C6.411,9.553,10.992,9.609,7.969,12.975z M10.214,7.479c-2.637,1.793,2.198,2.805,0.183,5.496
	C13.42,9.609,8.839,9.553,10.214,7.479z M5.357,7.479c-2.636,1.793,2.199,2.805,0.184,5.496C8.564,9.609,3.983,9.553,5.357,7.479z" fill="currentColor" />
</svg>
