<svg width="24" height="24" viewBox="0 0 24 24" fill="none" xmlns="http://www.w3.org/2000/svg">
  <path d="M14.4497 14.0357L13.0355 15.4499L6.67156 9.08602L8.08577 7.6718L14.4497 14.0357Z" fill="currentColor"/>
  <path fill-rule="evenodd" clip-rule="evenodd" d="M21 2C21.5523 2 22 2.44772 22 3V21C22 21.5523 21.5523 22 21 22H3C2.44772 22 2 21.5523 2 21V3C2 2.61732 2.21496 2.28485 2.53071 2.11673C2.67065 2.04222 2.8304 2 3 2H21ZM4.41399 4L7.37866 6.96466L5.96441 8.37891L4 6.41448V7.82871L10.207 14.0357L8.7928 15.4499L4 10.6571V12.0714L10.207 18.2784L8.7929 19.6925L4 14.8996V16.314L5.2572 17.5712L4 18.8284V20H4.85776L4.55022 19.6925L5.96433 18.2784L7.68598 20H9.89967L10.9142 18.9855L11.9286 20H13.3429L9.49991 16.1571L10.9142 14.7428L16.1713 20H17.5855L13.7426 16.1571L15.1568 14.7428L20 19.586V18.1718L13.7426 11.9144L15.1568 10.5002L20 15.3433V13.9291L17.9853 11.9144L19.3995 10.5002L20 11.1006V9.68645L17.9853 7.67173L19.3995 6.2575L20 6.858V5.44379L18.5562 4H17.142L18.6924 5.55037L17.2782 6.96458L14.3136 4H12.8993L18.6924 9.79304L17.2782 11.2073L10.9142 4.84334L11.7576 4H10.3433L10.2071 4.13623L10.0709 4H8.65665L14.4497 9.79304L13.0355 11.2073L6.67156 4.84334L7.5149 4H6.10064L5.96443 4.13621L5.82822 4H4.41399Z" fill="currentColor"/>
</svg>
