<svg width="24" height="24" viewBox="0 0 24 24" fill="none" xmlns="http://www.w3.org/2000/svg">
<path fill-rule="evenodd" clip-rule="evenodd" d="M17 12C17 14.7614 14.7614 17 12 17C9.23858 17 7 14.7614 7 12C7 9.23858 9.23858 7 12 7C14.7614 7 17 9.23858 17 12ZM9.09091 11.2641C9.85411 11.1789 10.6299 11.3149 11.3235 11.6617L11.4984 11.7492C12.4589 12.2294 13.5721 12.3033 14.5876 11.9543L14.9944 11.8144C14.9946 11.8184 14.9948 11.8225 14.9951 11.8265C14.9052 10.2504 13.5986 9 12 9C10.597 9 9.41901 9.96304 9.09091 11.2641Z" fill="currentColor"/>
<path d="M9 6C9 6.55228 8.55228 7 8 7C7.44772 7 7 6.55228 7 6C7 5.44772 7.44772 5 8 5C8.55228 5 9 5.44772 9 6Z" fill="currentColor"/>
<path fill-rule="evenodd" clip-rule="evenodd" d="M5 2C4.44772 2 4 2.44771 4 3V20C4 20.5523 4.44772 21 5 21H19C19.5523 21 20 20.5523 20 20V3C20 2.44772 19.5523 2 19 2H5ZM6 4V18H18V4H6Z" fill="currentColor"/>
</svg>
