<svg width="24" height="24" viewBox="0 0 24 24" fill="none" xmlns="http://www.w3.org/2000/svg">
  <path d="M5.79284 4.72613C5.9155 4.29683 6.30789 4.00085 6.75437 4.00085L17.2457 4.00086C17.6922 4.00086 18.0846 4.29683 18.2073 4.72613L19.9272 10.7457C19.9637 10.8734 19.8678 11.0006 19.7349 11.0006H17L16.019 7.07638C16.0078 7.03186 15.9678 7.00063 15.9219 7.00063L8.0781 7.00063C8.03222 7.00063 7.99222 7.03186 7.98109 7.07638L7.00002 11.0006H4.26522C4.13234 11.0006 4.03641 10.8734 4.07291 10.7457L5.79284 4.72613Z" fill="currentColor"/>
  <path fill-rule="evenodd" clip-rule="evenodd" d="M13.9982 13.0866C13.9994 13.0581 14 13.0294 14 13.0006C14 11.8961 13.1046 11.0006 12 11.0006C11.2468 11.0006 10.5909 11.417 10.2498 12.0321C10.1699 12.0115 10.0862 12.0006 10 12.0006C9.44772 12.0006 9 12.4483 9 13.0006C9 13.029 9.00118 13.057 9.00349 13.0848C8.41907 13.2897 8 13.8462 8 14.5006C8 14.6759 8.03008 14.8442 8.08535 15.0006H15.9146C15.9699 14.8442 16 14.6759 16 14.5006C16 13.6722 15.3284 13.0006 14.5 13.0006C14.324 13.0006 14.1551 13.0309 13.9982 13.0866Z" fill="currentColor"/>
  <path d="M17.2192 20.0006C17.6781 20.0006 18.078 19.6883 18.1893 19.2432L19.75 13.0006H20.5C20.7761 13.0006 21 12.7768 21 12.5006C21 12.2245 20.7761 12.0006 20.5 12.0006H17L16.0189 15.9249C16.0078 15.9694 15.9678 16.0006 15.9219 16.0006H8.07808C8.03219 16.0006 7.99219 15.9694 7.98106 15.9249L7 12.0006H3.5C3.22386 12.0006 3 12.2245 3 12.5006C3 12.7768 3.22386 13.0006 3.5 13.0006H4.25L5.81064 19.2432C5.92193 19.6883 6.32191 20.0006 6.78078 20.0006H17.2192Z" fill="currentColor"/>
</svg>
