<svg width="24" height="24" viewBox="0 0 24 24" fill="none" xmlns="http://www.w3.org/2000/svg">
  <path d="M12 4C11.4477 4 11 4.44772 11 5C7.68629 5 5 7.68629 5 11H19C19 7.68629 16.3137 5 13 5C13 4.44772 12.5523 4 12 4Z" fill="currentColor"/>
  <path d="M4 13C4 12.4477 4.44772 12 5 12H19C19.5523 12 20 12.4477 20 13C20 13.5523 19.5523 14 19 14H5C4.44772 14 4 13.5523 4 13Z" fill="currentColor"/>
  <path d="M6.81063 15.7575C6.92193 15.3123 7.32191 15 7.78078 15H17.4586C17.7576 15 18 15.2424 18 15.5414C18 15.806 17.8087 16.0319 17.5476 16.0754L12.3161 16.9473C12.1105 16.9816 11.9208 17.0792 11.7734 17.2266L11 18H12C12.5523 18 13 18.4477 13 19C13 19.5523 12.5523 20 12 20H5C4.44772 20 4 19.5523 4 19C4 18.4477 4.44772 18 5 18H6.28029C6.28045 17.9203 6.29023 17.8391 6.31063 17.7575L6.81063 15.7575Z" fill="currentColor"/>
</svg>
