<svg width="24" height="24" viewBox="0 0 24 24" fill="none" xmlns="http://www.w3.org/2000/svg">
<path d="M3.43868 6.34315C5.86348 5.69343 8.35627 7.13225 9.00606 9.55702L9.92891 13.0004H15.8469C16.4553 13.0004 16.9229 13.5387 16.8371 14.141L16.5715 16.0004H17.2727C18.7788 16.0004 20 17.2209 20.0002 18.7269C20.0002 18.8774 19.8782 19.0001 19.7277 19.0004H16.1428L16.0246 19.8285C16.0104 19.9269 15.9258 20.0004 15.8264 20.0004H6.65645C6.56457 20.0004 6.48427 19.9372 6.46211 19.848L4.86446 13.4203L3.11739 6.89979C3.05245 6.65744 3.19643 6.40829 3.43868 6.34315Z" fill="currentColor"/>
<path d="M15.5002 11.0004C15.7763 11.0005 16.0002 11.2243 16.0002 11.5004C16 11.7763 15.7761 12.0003 15.5002 12.0004H11.5002C11.2242 12.0004 11.0004 11.7763 11.0002 11.5004C11.0002 11.2242 11.2241 11.0004 11.5002 11.0004H15.5002Z" fill="currentColor"/>
</svg>
