<svg width="24" height="24" viewBox="0 0 24 24" fill="none" xmlns="http://www.w3.org/2000/svg">
<path d="M7 11V4H17V11H16.3273L17.7819 13H18C18.5523 13 19 12.5523 19 12V4C19.5523 4 20 3.55228 20 3C20 2.44772 19.5523 2 19 2H5C4.44772 2 4 2.44772 4 3C4 3.55228 4.44772 4 5 4V12C5 12.5523 5.44772 13 6 13H6.21794L7.67249 11H7Z" fill="currentColor"/>
<path d="M6.23101 14.6823C6.13487 14.8145 6.2293 15 6.39275 15H17.6072C17.7707 15 17.8651 14.8145 17.769 14.6823L14.0599 9.58237C14.0223 9.53062 13.9621 9.5 13.8982 9.5H10.1018C10.0379 9.5 9.97773 9.53062 9.9401 9.58237L6.23101 14.6823Z" fill="currentColor"/>
<path d="M4 14C4 13.4477 3.55228 13 3 13C2.44772 13 2 13.4477 2 14V21C2 21.5523 2.44772 22 3 22C3.55228 22 4 21.5523 4 21V19H6V21C6 21.5523 6.44772 22 7 22C7.55228 22 8 21.5523 8 21V18C8 17.4477 7.55228 17 7 17H4V14Z" fill="currentColor"/>
<path d="M20 14C20 13.4477 20.4477 13 21 13C21.5523 13 22 13.4477 22 14V21C22 21.5523 21.5523 22 21 22C20.4477 22 20 21.5523 20 21V19H18V21C18 21.5523 17.5523 22 17 22C16.4477 22 16 21.5523 16 21V18C16 17.4477 16.4477 17 17 17H20V14Z" fill="currentColor"/>
<path d="M13 16V21C13 21.5523 12.5523 22 12 22C11.4477 22 11 21.5523 11 21V16H13Z" fill="currentColor"/>
</svg>
