<svg width="24" height="24" viewBox="0 0 24 24" fill="none" xmlns="http://www.w3.org/2000/svg">
  <path fill-rule="evenodd" clip-rule="evenodd" d="M3 11C2.44772 11 2 10.5523 2 10V3.5C2 2.94772 2.44772 2.5 3 2.5C3.55228 2.5 4 2.94772 4 3.5V4H6C7.65685 4 9 5.34315 9 7H4V8H20L20 7H11C11 5.89543 11.8954 5 13 5H20L20 3.5C20 2.94772 20.4477 2.5 21 2.5C21.5523 2.5 22 2.94772 22 3.5V20C22 20.5523 21.5523 21 21 21C20.4477 21 20 20.5523 20 20V18H16V20C16 20.5523 15.5523 21 15 21C14.4477 21 14 20.5523 14 20V10H4C4 10.5523 3.55228 11 3 11ZM16 12H20V10H16V12ZM16 14H20V16H16V14Z" fill="currentColor"/>
</svg>
