<svg width="24" height="24" viewBox="0 0 24 24" fill="none" xmlns="http://www.w3.org/2000/svg">
  <path d="M13 9H5V14H13V9Z" fill="currentColor"/>
  <path fill-rule="evenodd" clip-rule="evenodd" d="M3 7C3 6.44771 3.44772 6 4 6H15V17H6C6 17.5523 5.55228 18 5 18C4.44772 18 4 17.5523 4 17C3.44772 17 3 16.5523 3 16V7ZM5 8C4.44772 8 4 8.44772 4 9V14C4 14.5523 4.44772 15 5 15H14V8H5Z" fill="currentColor"/>
  <path fill-rule="evenodd" clip-rule="evenodd" d="M20 17C20.5523 17 21 16.5523 21 16V7C21 6.44772 20.5523 6 20 6H16V17H18C18 17.5523 18.4477 18 19 18C19.5523 18 20 17.5523 20 17ZM17 11.5C17 11.2239 17.2239 11 17.5 11C17.7761 11 18 11.2239 18 11.5C18 11.7761 17.7761 12 17.5 12C17.2239 12 17 11.7761 17 11.5ZM17.5 9C17.2239 9 17 9.22386 17 9.5C17 9.77614 17.2239 10 17.5 10C17.7761 10 18 9.77614 18 9.5C18 9.22386 17.7761 9 17.5 9ZM19 11.5C19 11.2239 19.2239 11 19.5 11C19.7761 11 20 11.2239 20 11.5C20 11.7761 19.7761 12 19.5 12C19.2239 12 19 11.7761 19 11.5ZM19.5 9C19.2239 9 19 9.22386 19 9.5C19 9.77614 19.2239 10 19.5 10C19.7761 10 20 9.77614 20 9.5C20 9.22386 19.7761 9 19.5 9ZM17 13.5C17 13.2239 17.2239 13 17.5 13H19.5C19.7761 13 20 13.2239 20 13.5C20 13.7761 19.7761 14 19.5 14H17.5C17.2239 14 17 13.7761 17 13.5Z" fill="currentColor"/>
</svg>
