<svg width="24" height="24" viewBox="0 0 24 24" fill="none" xmlns="http://www.w3.org/2000/svg">
<path d="M8 13.2208C8 12.7903 8.27543 12.4082 8.68377 12.2721L9 12.1667V10H10V12.1667L10.3162 12.2721C10.7246 12.4082 11 12.7903 11 13.2208V18H8V13.2208Z" fill="currentColor"/>
<path d="M13 11.7167C13 11.3025 13.3358 10.9667 13.75 10.9667C13.8446 10.9735 13.9267 10.9744 14 10.9643V10H15V10.9729C15.073 10.9796 15.1554 10.9762 15.25 10.9667C15.6642 10.9667 16 11.3025 16 11.7167V12.8667C15.25 13.3333 15.25 14.2667 16 14.7333V17C16 17.5523 15.5523 18 15 18H14C13.4477 18 13 17.5523 13 17V14.7333C13.75 14.2667 13.75 13.3333 13 12.8667V11.7167Z" fill="currentColor"/>
<path d="M11.0854 6C11.0854 6.82843 10.4138 7.5 9.58535 7.5C8.75693 7.5 8.08535 6.82843 8.08535 6C8.08535 5.17157 8.75693 4.5 9.58535 4.5C10.4138 4.5 11.0854 5.17157 11.0854 6Z" fill="currentColor"/>
<path d="M14.5 7.5C15.3284 7.5 16 6.82843 16 6C16 5.17157 15.3284 4.5 14.5 4.5C13.6716 4.5 13 5.17157 13 6C13 6.82843 13.6716 7.5 14.5 7.5Z" fill="currentColor"/>
<path fill-rule="evenodd" clip-rule="evenodd" d="M5 2C4.44772 2 4 2.44772 4 3V21C4 21.5523 4.44772 22 5 22H19C19.5523 22 20 21.5523 20 21V3C20 2.44772 19.5523 2 19 2H5ZM6 9V19H18V9H6ZM6 8H18V4H6V8Z" fill="currentColor"/>
</svg>
