<svg width="24" height="24" viewBox="0 0 24 24" fill="none" xmlns="http://www.w3.org/2000/svg">
  <path d="M14 6.01428L10.0152 9.47558V8.47729L12.8668 6H13.9836L14 6.01428Z" fill="currentColor"/>
  <path d="M10 13V12.0029L13.9834 8.54278V9.53989L10 13Z" fill="currentColor"/>
  <path fill-rule="evenodd" clip-rule="evenodd" d="M12 2C8.68629 2 6 4.68629 6 8V12C5.44772 12 5 12.4477 5 13V21C5 21.5523 5.44772 22 6 22C6.55228 22 7 21.5523 7 21H17C17 21.5523 17.4477 22 18 22C18.5523 22 19 21.5523 19 21V13C19 12.4477 18.5523 12 18 12V8C18 4.68629 15.3137 2 12 2ZM16 12V8C16 5.79086 14.2091 4 12 4C9.79086 4 8 5.79086 8 8V12C8 14.2091 9.79086 16 12 16C14.2091 16 16 14.2091 16 12ZM17 19V15.3178C15.9251 16.9345 14.087 18 12 18C9.91303 18 8.07492 16.9345 7 15.3178V19H17Z" fill="currentColor"/>
</svg>
