<svg width="24" height="24" viewBox="0 0 24 24" fill="none" xmlns="http://www.w3.org/2000/svg">
<path d="M7 6.00098H4V15.001H20V6.00098H17V4.00098H20C21.1046 4.00098 22 4.89641 22 6.00098V16.001C22 17.1055 21.1046 18.001 20 18.001H19.4141L21.4141 20.001H18.5859L16.5859 18.001H7.41406L5.41406 20.001H2.58594L4.58594 18.001H4C2.89547 18.0009 2 17.1055 2 16.001V6.00098C2 4.89643 2.89547 4.00102 4 4.00098H7V6.00098Z" fill="currentColor"/>
<path d="M11.0127 3.00098L12.9893 8.43652L12.9961 5.71875L13 3.00098H15V14.001H12.9873L11.0107 8.56543L11.0039 11.2832L11 14.001H9V3.00098H11.0127Z" fill="currentColor"/>
</svg>
