<svg width="24" height="24" viewBox="0 0 24 24" fill="none" xmlns="http://www.w3.org/2000/svg">
  <path fill-rule="evenodd" clip-rule="evenodd" d="M6.96213 2.15149C6.98439 2.06246 7.06438 2 7.15616 2H9.84384C9.93562 2 10.0156 2.06246 10.0379 2.15149L10.9379 5.75149C10.9694 5.87772 10.874 6 10.7438 6H9.5V8H19C19.5523 8 20 8.44772 20 9V13H4V9C4 8.44771 4.44772 8 5 8H7.5V6H6.25616C6.12604 6 6.03057 5.87772 6.06213 5.75149L6.96213 2.15149ZM10 10.5C10 10.2239 10.2239 10 10.5 10H13.5C13.7761 10 14 10.2239 14 10.5C14 10.7761 13.7761 11 13.5 11H10.5C10.2239 11 10 10.7761 10 10.5Z" fill="currentColor"/>
  <path fill-rule="evenodd" clip-rule="evenodd" d="M4 14H20V18C20 18.5523 19.5523 19 19 19H18V20C18 20.5523 17.5523 21 17 21C16.4477 21 16 20.5523 16 20V19H8V20C8 20.5523 7.55228 21 7 21C6.44772 21 6 20.5523 6 20V19H5C4.44772 19 4 18.5523 4 18V14ZM10 16.5C10 16.2239 10.2239 16 10.5 16H13.5C13.7761 16 14 16.2239 14 16.5C14 16.7761 13.7761 17 13.5 17H10.5C10.2239 17 10 16.7761 10 16.5Z" fill="currentColor"/>
</svg>
