<svg xmlns="http://www.w3.org/2000/svg" xmlns:xlink="http://www.w3.org/1999/xlink" preserveAspectRatio="xMidYMid" width="16px" height="16px" viewBox="0 0 16 16">
  <path d="M15.632,5.599C15.87,6.357,15.999,7.163,16,8c0,4.419-3.583,8-8,8
    c-4.418,0-8-3.581-8-8c0-4.418,3.582-8,8-8c1.956,0,3.747,0.705,5.137,1.871L11.998,3.01C10.901,2.13,9.512,1.6,8,1.6
    C4.471,1.6,1.6,4.471,1.6,8c0,3.529,2.871,6.4,6.4,6.4c3.528,0,6.399-2.871,6.399-6.4c0-0.366-0.038-0.722-0.097-1.072L15.632,5.599
    z M15.717,3.817l-1.414-1.414L7.514,9.19L3.837,5.514L2.423,6.929l5.091,5.091l1.414-1.413v-0.001L15.717,3.817z" fill="currentColor" />
</svg>