<svg width="24" height="24" viewBox="0 0 24 24" fill="none" xmlns="http://www.w3.org/2000/svg">
  <path d="M17.6048 6.36263L14.3333 9.63525V8.69137L16.6744 6.34912H17.5913L17.6048 6.36263Z" fill="currentColor"/>
  <path d="M14.3333 12.9675V12.0248L17.6037 8.75325V9.696L14.3333 12.9675Z" fill="currentColor"/>
  <path fill-rule="evenodd" clip-rule="evenodd" d="M21 20.5859L21.7071 21.293L20.2928 22.7072L1.29285 3.70718L2.70706 2.29297L3.41409 3H21V20.5859ZM19.0009 18.5868V4.99913H13.0002V12.5861L19.0009 18.5868ZM10.9999 10.5858V4.99913H5.41322L7.7335 7.31941L8.70378 6.34912H9.62065L9.63303 6.36263L8.20487 7.79078L9.39862 8.98453L9.63303 8.74988V9.21894L10.9999 10.5858Z" fill="currentColor"/>
  <path d="M3.00003 21V8.24249L5.00028 10.2427V18.9986H10.9999V16.2424L13.0002 18.2426V18.9998H13.7573L15.7575 21H3.00003Z" fill="currentColor"/>
</svg>