<svg width="24" height="24" viewBox="0 0 24 24" fill="none" xmlns="http://www.w3.org/2000/svg">
  <path d="M18.9997 14.9999L19.0135 16.055L10.5339 7.57539V6.75869C10.5339 6.2064 10.9816 5.75869 11.5339 5.75869H11.5404V3.5C11.5404 3.22386 11.7642 3 12.0404 3C12.3165 3 12.5404 3.22386 12.5404 3.5V5.75869H12.5474C13.0997 5.75869 13.5474 6.2064 13.5474 6.75869L13.5474 8.7734H14.5184L14.1777 5.74741L15.8634 4.0618C16.0586 3.86654 16.3752 3.86654 16.5705 4.0618C16.7657 4.25706 16.7657 4.57365 16.5705 4.76891L15.2426 6.09682L15.5431 8.7734H21.0811C21.0811 10.4303 19.738 11.7869 18.0811 11.7869L15.8815 11.7869L15.8938 11.8957L18.9997 14.9999Z" fill="currentColor"/>
  <path d="M7.46301 4.04045C7.37423 4.12924 7.32581 4.2431 7.31776 4.35924L9.70953 6.75101L9.85572 5.72606L8.17012 4.04046C7.97485 3.84519 7.65827 3.84519 7.46301 4.04045Z" fill="currentColor"/>
  <path d="M14.5 14.5001C14.5 14.5 14.5 14.5001 14.5 14.5001L18.3639 18.3641C18.7544 18.7546 18.7544 19.3878 18.3639 19.7783C17.9734 20.1688 17.3402 20.1688 16.9497 19.7783L14.9854 17.814L14.6842 18.1977C14.5136 18.4149 14.1993 18.4527 13.9821 18.2821C13.7649 18.1116 13.7271 17.7973 13.8976 17.5801L14.2732 17.1018L13.995 16.8236C13.7439 17.3175 13.4141 17.6862 13.0401 17.8693C12.8947 17.9518 12.7266 17.9989 12.5474 17.9989H11.5339C11.3375 17.9989 11.1543 17.9423 10.9997 17.8444C10.1313 17.4629 9.48826 16.0877 9.48826 14.4496C9.48826 13.7763 9.59689 13.1475 9.78515 12.6138L9.23919 12.0678L8.90328 12.4035L8.4258 15.751L9.83592 17.5469C10.0065 17.7641 9.96863 18.0785 9.75144 18.249C9.53425 18.4195 9.21993 18.3817 9.0494 18.1645L7.372 16.0282L7.72019 13.5859L5.98453 15.3206L5.99982 16.0964C5.98898 16.3724 5.75636 16.5872 5.48051 16.5763C5.20467 16.5654 4.98976 16.333 5.0006 16.057L5.00073 14.89L7.95524 11.9372L7.97666 11.7869H6C4.34314 11.7869 3 10.4303 3 8.7734H5.94478L4.22176 7.05037C3.83123 6.65984 3.83123 6.02668 4.22176 5.63615C4.61228 5.24563 5.24544 5.24563 5.63597 5.63616L14.5 14.5001Z" fill="currentColor"/>
</svg>
