<svg width="24" height="24" viewBox="0 0 24 24" fill="none" xmlns="http://www.w3.org/2000/svg">
  <path d="M7.1854 4.44838L10.2196 7.48256C10.6942 7.02545 11 6.30786 11 5.50098C11 4.12026 10.1046 3.00098 9.00001 3.00098C8.19627 3.00098 7.50326 3.59362 7.1854 4.44838Z" fill="currentColor"/>
  <path d="M14.4968 10.7489L16.5142 13.7771L12.153 9.41595C13.0525 9.46113 13.9349 9.90544 14.4968 10.7489Z" fill="currentColor"/>
  <path d="M8.94637 11.585L5.68474 16.481C4.68218 17.986 5.76105 20.001 7.56935 20.001C8.52356 20.001 9.32887 19.3257 10.0609 18.7118L10.0736 18.7012C10.5948 18.2642 11.2667 18.001 12.0001 18.001C12.7334 18.001 13.4053 18.2642 13.9265 18.7012L13.9392 18.7119C14.6713 19.3257 15.4766 20.001 16.4308 20.001C16.7146 20.001 16.9805 19.9514 17.2232 19.8618L18.3129 20.9515C18.7218 21.3604 19.3542 21.3908 19.7255 21.0194C20.0968 20.6481 20.0664 20.0157 19.6576 19.6069L4.24339 4.19265C3.83456 3.78382 3.20212 3.75342 2.8308 4.12474C2.45948 4.49606 2.48989 5.12849 2.89872 5.53732L5.41672 8.05532C5.28231 8.01971 5.14291 8.00098 5.00001 8.00098C3.89544 8.00098 3.00001 9.12027 3.00001 10.501C3.00001 11.8817 3.89544 13.001 5.00001 13.001C6.10458 13.001 7.00001 11.8817 7.00001 10.501C7.00001 10.128 6.93466 9.77401 6.81747 9.45607L8.94637 11.585Z" fill="currentColor"/>
  <path d="M17 5.50098C17 6.88169 16.1046 8.00098 15 8.00098C13.8954 8.00098 13 6.88169 13 5.50098C13 4.12026 13.8954 3.00098 15 3.00098C16.1046 3.00098 17 4.12026 17 5.50098Z" fill="currentColor"/>
  <path d="M21 10.501C21 11.8817 20.1046 13.001 19 13.001C17.8954 13.001 17 11.8817 17 10.501C17 9.12027 17.8954 8.00098 19 8.00098C20.1046 8.00098 21 9.12027 21 10.501Z" fill="currentColor"/>
</svg>
