<svg width="24" height="24" viewBox="0 0 24 24" fill="none" xmlns="http://www.w3.org/2000/svg">
  <path d="M18.4862 4.501L17.775 5.33075C16.7873 6.48308 16.7873 8.18347 17.775 9.33579C18.0421 9.64741 18.1088 10.0838 17.9472 10.461L17.8356 10.7212C17.7791 10.8532 17.8759 11 18.0195 11H19.735C19.8213 11 19.8985 10.9448 19.9217 10.8616C20.1944 9.88221 19.9666 8.81957 19.2935 8.03421C18.9477 7.63086 18.9477 7.03568 19.2935 6.63233L20.0047 5.80258C20.0766 5.71872 20.0669 5.59246 19.983 5.52057L18.7682 4.4793C18.6843 4.40742 18.5581 4.41713 18.4862 4.501Z" fill="currentColor"/>
  <path d="M19 12H18V15H19C19.5523 15 20 14.5523 20 14V13C20 12.4477 19.5523 12 19 12Z" fill="currentColor"/>
  <path d="M3.51465 6.34326L4.92886 4.92905L19.071 19.0712L17.6568 20.4854L12.1714 15H5C4.44772 15 4 14.5523 4 14V13C4 12.4477 4.44772 12 5 12H9.17139L3.51465 6.34326Z" fill="currentColor"/>
  <path d="M17 15H16.8284L13.8284 12H17V15Z" fill="currentColor"/>
</svg>
