<svg width="24" height="24" viewBox="0 0 24 24" fill="none" xmlns="http://www.w3.org/2000/svg">
  <g clip-path="url(#clip0_5203_1696)">
    <path fill-rule="evenodd" clip-rule="evenodd" d="M6 5.82812L7.41421 4.41391L20.8492 17.8489L19.435 19.2632L16.673 16.5011C15.76 16.8102 14.7077 17.0001 13.5001 17.0001C6.99992 17.0001 5 11.5 5 11.5C5 11.5 5.73095 9.30744 7.74512 7.57324L6 5.82812ZM14.0995 13.9277L15.0361 14.8642C14.5663 14.9513 14.0555 15.0001 13.5001 15.0001C10.8898 15.0001 9.26393 13.9217 8.2592 12.8691C7.77498 12.3618 7.42992 11.8524 7.20241 11.4584C7.43631 11.0061 7.79997 10.4089 8.31763 9.81733C8.56431 9.53543 8.8448 9.25517 9.16394 8.99206L11.0723 10.9005C11.0251 11.0925 11 11.2933 11 11.5C11 12.8807 12.1193 14 13.5 14C13.7067 14 13.9075 13.9749 14.0995 13.9277Z" fill="currentColor"/>
    <path d="M18.7408 12.8692L18.7197 12.8912L20.1341 14.3056C21.4864 12.9124 21.9999 11.5002 21.9999 11.5002C21.9999 11.5002 19.9999 5.50049 13.5 5.50049C12.7901 5.50049 12.1339 5.57205 11.5281 5.69955L13.3307 7.50219C13.3867 7.50106 13.4431 7.50049 13.5 7.50049C16.045 7.50049 17.6561 8.64467 18.6823 9.81739C19.2 10.409 19.5636 11.0063 19.7975 11.4585C19.57 11.8525 19.225 12.362 18.7408 12.8692Z" fill="currentColor"/>
    <path fill-rule="evenodd" clip-rule="evenodd" d="M2.18182 21.8192V0.000976562H24V21.8192L21.8182 24.001H0L2.18182 21.8192ZM4.36364 1.09189H22.9091V20.7283H4.36364V1.09189Z" fill="currentColor"/>
  </g>
  <defs>
    <clipPath id="clip0_5203_1696">
      <rect width="24" height="24" fill="white"/>
    </clipPath>
  </defs>
</svg>
