<svg width="24" height="24" viewBox="0 0 24 24" fill="none" xmlns="http://www.w3.org/2000/svg">
<path d="M15 9.00001C15.3905 9.39054 15.3905 10.0237 15 10.4142L12 13.4142L10 11.4142C9.60949 11.0237 9.60949 10.3905 10 10C10.3905 9.60949 11.0237 9.60949 11.4142 10L12 10.5858L13.5858 9.00001C13.9763 8.60949 14.6095 8.60949 15 9.00001Z" fill="currentColor"/>
<path fill-rule="evenodd" clip-rule="evenodd" d="M2 5C2 4.44772 2.44772 4 3 4H21C21.5523 4 22 4.44772 22 5V18C22 18.5523 21.5523 19 21 19H16V20H17C17.5523 20 18 20.4477 18 21C18 21.5523 17.5523 22 17 22H7C6.44771 22 6 21.5523 6 21C6 20.4477 6.44772 20 7 20H8V19H3C2.44772 19 2 18.5523 2 18V5ZM4 16V6H20V16H4ZM14 20V19H10V20H14Z" fill="currentColor"/>
</svg>
