<svg width="24" height="24" viewBox="0 0 24 24" fill="none" xmlns="http://www.w3.org/2000/svg">
<path fill-rule="evenodd" clip-rule="evenodd" d="M4 2C3.44772 2 3 2.44771 3 3V21C3 21.5523 3.44772 22 4 22C4.55228 22 5 21.5523 5 21H19C19 21.5523 19.4477 22 20 22C20.5523 22 21 21.5523 21 21V3C21 2.44772 20.5523 2 20 2H4ZM5 8V19H13V8H9.5V9.66147L11.6856 10.5357C11.942 10.6383 12.0667 10.9292 11.9641 11.1856C11.8616 11.442 11.5706 11.5667 11.3142 11.4642L8.99989 10.5385L6.68558 11.4642C6.42919 11.5667 6.13821 11.442 6.03565 11.1856C5.93309 10.9292 6.0578 10.6383 6.31419 10.5357L8.5 9.66138V8H5ZM15 16V19H19V16H15ZM19 14H15V10H19V14ZM15 4H19V8H15V4ZM5 6H13V4H5V6Z" fill="currentColor"/>
</svg>
