<svg width="24" height="24" viewBox="0 0 24 24" fill="none" xmlns="http://www.w3.org/2000/svg">
<path d="M7.61672 2C7.19365 2 6.96541 2.49624 7.24074 2.81746C7.49519 3.11431 7.49519 3.55236 7.24074 3.84921C6.59883 4.59811 6.41657 5.60207 6.69398 6.4958C6.79413 6.81845 7.11718 7 7.45502 7H8.38328C8.80634 7 9.03458 6.50376 8.75925 6.18254C8.50481 5.88569 8.50481 5.44765 8.75925 5.15079C9.40117 4.40189 9.58342 3.39793 9.30601 2.5042C9.20586 2.18155 8.88281 2 8.54497 2H7.61672Z" fill="currentColor"/>
<path d="M16.7593 6.18254C17.0346 6.50376 16.8063 7 16.3833 7H15.455C15.1172 7 14.7941 6.81845 14.694 6.4958C14.4166 5.60206 14.5988 4.59811 15.2407 3.84921C15.4952 3.55235 15.4952 3.11431 15.2407 2.81746C14.9654 2.49624 15.1936 2 15.6167 2H16.545C16.8828 2 17.2059 2.18155 17.306 2.5042C17.5834 3.39793 17.4012 4.40189 16.7593 5.15079C16.5048 5.44765 16.5048 5.88569 16.7593 6.18254Z" fill="currentColor"/>
<path d="M12.3833 7C12.8063 7 13.0346 6.50376 12.7593 6.18254C12.5048 5.88569 12.5048 5.44765 12.7593 5.15079C13.4012 4.40189 13.5834 3.39793 13.306 2.5042C13.2059 2.18155 12.8828 2 12.545 2H11.6167C11.1936 2 10.9654 2.49624 11.2407 2.81746C11.4952 3.11431 11.4952 3.55235 11.2407 3.84921C10.5988 4.59811 10.4166 5.60207 10.694 6.4958C10.7941 6.81845 11.1172 7 11.455 7H12.3833Z" fill="currentColor"/>
<path fill-rule="evenodd" clip-rule="evenodd" d="M3.29307 19.2929L6.94658 15.6394C5.31331 15.0445 4.01131 13.7603 3.39247 12.1387C3.17199 11.561 3.6464 11 4.26477 11H19.7354C20.3537 11 20.8282 11.561 20.6077 12.1387C19.9805 13.7823 18.6514 15.0792 16.987 15.6632L20.3979 19.3177C20.9945 19.9569 20.5412 21 19.6668 21C19.3897 21 19.1249 20.885 18.9358 20.6823L17.8323 19.5H13.0002V20C13.0002 20.5523 12.5525 21 12.0002 21C11.4479 21 11.0002 20.5523 11.0002 20V19.5H5.9144L4.70728 20.7071C4.51974 20.8947 4.26539 21 4.00017 21C3.10927 21 2.6631 19.9229 3.29307 19.2929ZM7.9144 17.5L9.4144 16H14.5656L15.9656 17.5H13.0002V16H11.0002V17.5H7.9144Z" fill="currentColor"/>
<path d="M4.00002 8C3.44774 8 3.00002 8.44771 3.00002 9C3.00002 9.55229 3.44774 10 4.00002 10H20C20.5523 10 21 9.55229 21 9C21 8.44771 20.5523 8 20 8H4.00002Z" fill="currentColor"/>
</svg>
