<svg width="24" height="24" viewBox="0 0 24 24" fill="none" xmlns="http://www.w3.org/2000/svg">
<path d="M7.14256 6L4 6C3.44772 6 3 6.44771 3 7C3 7.55228 3.44771 8 4 8L11 8V13H9C8.44772 13 8 13.4477 8 14C8 14.5523 8.44772 15 9 15H11V19C10.4477 19 10 19.4477 10 20C10 20.5523 10.4477 21 11 21H13C13.5523 21 14 20.5523 14 20C14 19.4477 13.5523 19 13 19V15H15C15.5523 15 16 14.5523 16 14C16 13.4477 15.5523 13 15 13H13V8H20C20.5523 8 21 7.55228 21 7C21 6.44772 20.5523 6 20 6L16.8573 6C14.117 3.54313 9.88285 3.54313 7.14256 6Z" fill="currentColor"/>
<path d="M4 13C4 12.4477 3.55228 12 3 12C2.44772 12 2 12.4477 2 13V20C2 20.5523 2.44772 21 3 21C3.55228 21 4 20.5523 4 20V18H6V20C6 20.5523 6.44772 21 7 21C7.55228 21 8 20.5523 8 20V18C8.55228 18 9 17.5523 9 17C9 16.4477 8.55228 16 8 16H4V13Z" fill="currentColor"/>
<path d="M21 12C20.4477 12 20 12.4477 20 13V16H16C15.4477 16 15 16.4477 15 17C15 17.5523 15.4477 18 16 18V20C16 20.5523 16.4477 21 17 21C17.5523 21 18 20.5523 18 20V18H20V20C20 20.5523 20.4477 21 21 21C21.5523 21 22 20.5523 22 20V13C22 12.4477 21.5523 12 21 12Z" fill="currentColor"/>
</svg>
