<svg width="24" height="24" viewBox="0 0 24 24" fill="none" xmlns="http://www.w3.org/2000/svg">
  <path fill-rule="evenodd" clip-rule="evenodd" d="M3 4C3 3.44772 3.44772 3 4 3H20C20.5523 3 21 3.44772 21 4V7H3V4ZM6 6C6.55228 6 7 5.55228 7 5C7 4.44772 6.55228 4 6 4C5.44772 4 5 4.44772 5 5C5 5.55228 5.44772 6 6 6ZM11 5C11 5.55228 10.5523 6 10 6C9.44772 6 9 5.55228 9 5C9 4.44772 9.44772 4 10 4C10.5523 4 11 4.44772 11 5ZM14 6C14.5523 6 15 5.55228 15 5C15 4.44772 14.5523 4 14 4C13.4477 4 13 4.44772 13 5C13 5.55228 13.4477 6 14 6ZM19 5C19 5.55228 18.5523 6 18 6C17.4477 6 17 5.55228 17 5C17 4.44772 17.4477 4 18 4C18.5523 4 19 4.44772 19 5Z" fill="currentColor"/>
  <path fill-rule="evenodd" clip-rule="evenodd" d="M6 11H18V18H6V11ZM9.66062 12.107C9.84383 11.9004 10.1598 11.8814 10.3665 12.0646L10.4235 12.1152C11.2781 12.8731 11.2164 14.2259 10.2963 14.9028C9.8891 15.2023 9.86178 15.8011 10.24 16.1366L10.2971 16.1872C10.5037 16.3704 10.5227 16.6864 10.3395 16.893C10.1563 17.0996 9.84025 17.1186 9.63364 16.9354L9.57657 16.8848C8.72197 16.1269 8.7837 14.7741 9.70376 14.0972C10.111 13.7977 10.1383 13.1989 9.76005 12.8634L9.70299 12.8128C9.49638 12.6296 9.47741 12.3136 9.66062 12.107ZM14.3665 12.0646C14.1598 11.8814 13.8438 11.9004 13.6606 12.107C13.4774 12.3136 13.4964 12.6296 13.703 12.8128L13.7601 12.8634C14.1383 13.1989 14.111 13.7977 13.7038 14.0972C12.7837 14.7741 12.722 16.1269 13.5766 16.8848L13.6336 16.9354C13.8402 17.1186 14.1563 17.0996 14.3395 16.893C14.5227 16.6864 14.5037 16.3704 14.2971 16.1872L14.24 16.1366C13.8618 15.8011 13.8891 15.2023 14.2963 14.9028C15.2164 14.2259 15.2781 12.8731 14.4235 12.1152L14.3665 12.0646Z" fill="currentColor"/>
  <path fill-rule="evenodd" clip-rule="evenodd" d="M3 8H21V20C21 20.5523 20.5523 21 20 21H4C3.44772 21 3 20.5523 3 20V8ZM5 10H19V19H5V10Z" fill="currentColor"/>
</svg>
