<svg width="24" height="24" viewBox="0 0 24 24" fill="none" xmlns="http://www.w3.org/2000/svg">
  <path fill-rule="evenodd" clip-rule="evenodd" d="M18.3137 2.72338C17.9755 2.28336 17.4454 2 16.8495 2C15.8281 2 15 2.83268 15 3.85985C15 3.91868 15.0027 3.97687 15.008 4.03431C13.308 4.27346 12 5.73398 12 7.5C12 9.433 13.567 11 15.5 11C16.0161 11 16.5061 10.8883 16.9472 10.6877C16.9646 10.7041 16.9822 10.7202 17 10.7361V19H18V11.3293C18.3128 11.4398 18.6494 11.5 19 11.5C20.6569 11.5 22 10.1569 22 8.5C22 7.84682 21.7913 7.2424 21.4368 6.74981C21.7895 6.30288 22 5.73852 22 5.125C22 3.67525 20.8247 2.5 19.375 2.5C18.9973 2.5 18.6382 2.57977 18.3137 2.72338ZM15 13H7V15H8V16H6V18H7V19H8.5V18H13.5V19H15V18H16V16H14V15H15V13ZM12.5 15V16H9.5V15H12.5Z" fill="currentColor"/>
  <path fill-rule="evenodd" clip-rule="evenodd" d="M22.9091 1.09091H4.36364V20.7273H22.9091V1.09091ZM2.18182 0V21.8182L0 24H21.8182L24 21.8182V0H2.18182Z" fill="currentColor"/>
</svg>