<svg width="24" height="24" viewBox="0 0 24 24" fill="none" xmlns="http://www.w3.org/2000/svg">
<path d="M13 7.82929C14.1652 7.41746 15 6.30622 15 5C15 3.34315 13.6569 2 12 2C10.3431 2 9 3.34315 9 5C9 6.30622 9.83481 7.41746 11 7.82929V16H16.0858L20.5 20.4142L21.7616 19.2068C22.1667 18.819 22.1738 18.1738 21.7772 17.7772L21.6304 17.6304C21.3229 17.3229 20.8307 17.3035 20.5 17.5858L17.5 14.5858C17.1249 14.2107 16.6162 14 16.0858 14H13V11H15C15.5523 11 16 10.5523 16 10C16 9.44772 15.5523 9 15 9H13V7.82929Z" fill="currentColor"/>
<path d="M14.9404 17.4256C14.4444 16.9296 13.5669 17.1559 13.1817 17.7421C12.2881 19.1021 10.7489 20 9 20C6.23858 20 4 17.7614 4 15C4 12.8671 5.33544 11.0462 7.21577 10.3277C7.66005 10.158 8 9.75821 8 9.2826V9.2241C8 8.61548 7.45683 8.14337 6.87682 8.32778C4.04882 9.22689 2 11.8742 2 15C2 18.866 5.13401 22 9 22C11.6184 22 13.901 20.5624 15.1016 18.4334C15.2879 18.103 15.2086 17.6938 14.9404 17.4256Z" fill="currentColor"/>
</svg>
