<svg width="24" height="24" viewBox="0 0 24 24" fill="none" xmlns="http://www.w3.org/2000/svg">
  <path d="M14.3033 5.18297C14.1794 5.30689 14.0392 5.40459 13.8896 5.47608L18.2528 9.83929C18.3243 9.68964 18.4221 9.54938 18.546 9.42542C19.1318 8.83964 20.0816 8.83964 20.6673 9.42542C21.2531 10.0112 21.2531 10.961 20.6673 11.5467C20.1012 12.1129 19.1952 12.1319 18.6062 11.6037L18.6031 11.6068C19.1311 12.1958 19.1121 13.1018 18.546 13.6678C17.9602 14.2536 17.0105 14.2536 16.4247 13.6678C15.8389 13.0821 15.8389 12.1323 16.4247 11.5465C16.5486 11.4226 16.6889 11.3249 16.8385 11.2534L12.4752 6.8901C12.4037 7.03979 12.306 7.18008 12.182 7.30407C11.5962 7.88985 10.6465 7.88985 10.0607 7.30407C9.47489 6.71828 9.47489 5.76853 10.0607 5.18275C10.6429 4.60049 11.5848 4.59698 12.1714 5.17221C11.5963 4.58561 11.5998 3.64387 12.182 3.06165C12.7678 2.47587 13.7175 2.47587 14.3033 3.06165C14.8891 3.64744 14.8891 4.59719 14.3033 5.18297Z" fill="currentColor"/>
  <path d="M8.02051 20.9803C5.36541 20.751 3.24976 18.6354 3.02051 15.9803C3.17849 15.9939 3.33838 16.0009 3.4999 16.0009C6.53747 16.0009 8.9999 13.5384 8.9999 10.5009C8.9999 10.3394 8.99294 10.1795 8.9793 10.0215C11.6344 10.2507 13.75 12.3664 13.9793 15.0215C13.8213 15.0078 13.6614 15.0009 13.4999 15.0009C10.4623 15.0009 7.9999 17.4633 7.9999 20.5009C7.9999 20.6624 8.00687 20.8223 8.02051 20.9803Z" fill="currentColor"/>
  <path d="M3.4999 15.0009C5.98518 15.0009 7.9999 12.9862 7.9999 10.5009C7.9999 10.3403 7.9915 10.1818 7.9751 10.0256C5.35644 10.2735 3.2725 12.3574 3.02462 14.9761C3.1808 14.9925 3.33937 15.0009 3.4999 15.0009Z" fill="currentColor"/>
  <path d="M9.02471 20.9762C11.6434 20.7283 13.7273 18.6443 13.9752 16.0257C13.819 16.0093 13.6604 16.0009 13.4999 16.0009C11.0146 16.0009 8.9999 18.0156 8.9999 20.5009C8.9999 20.6614 9.00831 20.82 9.02471 20.9762Z" fill="currentColor"/>
</svg>
