<svg width="24" height="24" viewBox="0 0 24 24" fill="none" xmlns="http://www.w3.org/2000/svg">
  <path d="M5 9.00098V10.001H19V9.00098C19 7.89641 18.1046 7.00098 17 7.00098H7C5.89543 7.00098 5 7.89641 5 9.00098Z" fill="currentColor"/>
  <path d="M6 11.001C6.55228 11.001 7 11.4487 7 12.001V15.001H17V12.001C17 11.4487 17.4477 11.001 18 11.001H20C20.5523 11.001 21 11.4487 21 12.001V17.001C21 17.5533 20.5523 18.001 20 18.001H4C3.44772 18.001 3 17.5533 3 17.001V12.001C3 11.4487 3.44772 11.001 4 11.001H6Z" fill="currentColor"/>
  <path d="M16 12.001C16 11.6367 16.0974 11.2951 16.2676 11.001H7.73242C7.90259 11.2951 7.99999 11.6367 7.99999 12.001V14.001H16V12.001Z" fill="currentColor"/>
</svg>
