<svg width="24" height="24" viewBox="0 0 24 24" fill="none" xmlns="http://www.w3.org/2000/svg">
  <path d="M13.0001 4.00098H5C4.44772 4.00098 4 4.44869 4 5.00098V19.001C4 19.5533 4.44772 20.001 5 20.001H19C19.5523 20.001 20 19.5533 20 19.001V11.001H19V18.501C19 18.7771 18.7761 19.001 18.5 19.001H5.5C5.22386 19.001 5 18.7771 5 18.501V5.50098C5 5.22483 5.22386 5.00098 5.5 5.00098H13.0001V4.00098Z" fill="currentColor"/>
  <path d="M14.0001 11.001L18 11.001V18.001H6V6.00098H13.0001V10.001C13.0001 10.5533 13.4478 11.001 14.0001 11.001Z" fill="currentColor"/>
  <path d="M14.5 10.001L20 10.001L14 4.00098V9.50098C14 9.77712 14.2239 10.001 14.5 10.001Z" fill="currentColor"/>
</svg>
