<svg width="24" height="24" viewBox="0 0 24 24" fill="none" xmlns="http://www.w3.org/2000/svg">
  <path d="M10.45 7.62269C10.5875 7.53162 10.7179 7.42552 10.8391 7.30439C11.8154 6.32808 11.8154 4.74516 10.8391 3.76885C9.86275 2.79254 8.27983 2.79254 7.30352 3.76885C6.4483 4.62407 6.34223 5.94476 6.98531 6.91544L6.91446 6.98628C5.94378 6.34321 4.6231 6.44928 3.76788 7.3045C2.79157 8.28081 2.79157 9.86372 3.76788 10.84C4.74419 11.8163 6.3271 11.8163 7.30341 10.84C7.42448 10.719 7.53054 10.5886 7.62158 10.4512L13.3491 16.1787C13.2117 16.2698 13.0813 16.3758 12.9603 16.4969C11.9839 17.4732 11.9839 19.0561 12.9603 20.0324C13.9366 21.0087 15.5195 21.0087 16.4958 20.0324C17.351 19.1772 17.4571 17.8565 16.814 16.8858L16.8848 16.8149C17.8555 17.4581 19.1762 17.352 20.0314 16.4968C21.0077 15.5205 21.0077 13.9375 20.0314 12.9612C19.0551 11.9849 17.4722 11.9849 16.4959 12.9612C16.3748 13.0824 16.2687 13.2128 16.1776 13.3503L10.45 7.62269Z" fill="currentColor"/>
</svg>
