<svg width="24" height="24" viewBox="0 0 24 24" fill="none" xmlns="http://www.w3.org/2000/svg">
  <path d="M8.32365 3.00098C8.17497 3.00098 8.07827 3.15744 8.14476 3.29042L10 7.00098H9.50004C9.2239 7.00098 9.00004 7.22483 9.00004 7.50098C9.00004 7.77712 9.2239 8.00098 9.50004 8.00098H14.5C14.7762 8.00098 15 7.77712 15 7.50098C15 7.22483 14.7762 7.00098 14.5 7.00098H14L15.8553 3.29042C15.9218 3.15744 15.8251 3.00098 15.6764 3.00098H14.2427C13.447 3.00098 12.684 3.31705 12.1214 3.87966L12 4.00098L11.8787 3.87966C11.3161 3.31705 10.5531 3.00098 9.7574 3.00098H8.32365Z" fill="currentColor"/>
  <path d="M5.96723 15.8445L10 9.00098H14L18.0329 15.8445C18.0938 15.948 18.1356 16.0616 18.1563 16.1798L18.3845 17.4838C18.7058 19.3196 17.2931 21.001 15.4295 21.001H8.57063C6.70697 21.001 5.29428 19.3196 5.61554 17.4838L5.84374 16.1798C5.86444 16.0616 5.90627 15.948 5.96723 15.8445Z" fill="currentColor"/>
</svg>
