<svg width="24" height="24" viewBox="0 0 24 24" fill="none" xmlns="http://www.w3.org/2000/svg">
  <path d="M18.0488 9.54444C16.6904 9.79961 14.7479 10.001 12 10.001C9.32113 10.001 7.40774 9.80961 6.05476 9.56358C6.01882 9.37794 6 9.1862 6 8.99007C6 7.57271 6.98291 6.38493 8.30428 6.07116C8.85108 4.85097 10.0762 4.00098 11.4999 4.00098C13.2726 4.00098 14.7376 5.31898 14.9682 7.02855C15.155 6.98404 15.3498 6.96047 15.5501 6.96047C16.9309 6.96047 18.0501 8.07976 18.0501 9.46047C18.0501 9.48857 18.0497 9.51657 18.0488 9.54444Z" fill="currentColor"/>
  <path fill-rule="evenodd" clip-rule="evenodd" d="M5.07004 10.2853C4.49209 10.1526 3.88821 10.5047 3.75958 11.0835L2.2217 18.004C2.10009 18.5512 2.45365 19.0784 3.01082 19.1403C4.34158 19.2883 7.10653 19.5011 12.0001 19.5011C16.8937 19.5011 19.6586 19.2883 20.9894 19.1403C21.5466 19.0784 21.9001 18.5512 21.7785 18.004L20.2406 11.0835C20.112 10.5047 19.5081 10.1526 18.9302 10.2853C17.6423 10.5809 15.2414 11.0011 12.0001 11.0011C8.75878 11.0011 6.35795 10.5809 5.07004 10.2853ZM8.00011 14.0011C8.00011 14.5534 8.44782 15.0011 9.00011 15.0011C8.44782 15.0011 8.00011 15.4489 8.00011 16.0011C8.00011 16.5534 8.44782 17.0011 9.00011 17.0011C9.55239 17.0011 10.0001 16.5534 10.0001 16.0011C10.0001 15.819 9.95141 15.6482 9.86632 15.5011H14.1339C14.0488 15.6482 14.0001 15.819 14.0001 16.0011C14.0001 16.5534 14.4478 17.0011 15.0001 17.0011C15.5524 17.0011 16.0001 16.5534 16.0001 16.0011C16.0001 15.4489 15.5524 15.0011 15.0001 15.0011C15.5524 15.0011 16.0001 14.5534 16.0001 14.0011C16.0001 13.4489 15.5524 13.0011 15.0001 13.0011C14.4478 13.0011 14.0001 13.4489 14.0001 14.0011C14.0001 14.1833 14.0488 14.354 14.1339 14.5011H9.86632C9.95141 14.354 10.0001 14.1833 10.0001 14.0011C10.0001 13.4489 9.55239 13.0011 9.00011 13.0011C8.44782 13.0011 8.00011 13.4489 8.00011 14.0011Z" fill="currentColor"/>
</svg>
