<svg width="24" height="24" viewBox="0 0 24 24" fill="none" xmlns="http://www.w3.org/2000/svg">
  <path d="M11 5.50098C11 6.88169 10.1046 8.00098 9 8.00098C7.89543 8.00098 7 6.88169 7 5.50098C7 4.12026 7.89543 3.00098 9 3.00098C10.1046 3.00098 11 4.12026 11 5.50098Z" fill="currentColor"/>
  <path d="M7 10.501C7 11.8817 6.10457 13.001 5 13.001C3.89543 13.001 3 11.8817 3 10.501C3 9.12026 3.89543 8.00098 5 8.00098C6.10457 8.00098 7 9.12026 7 10.501Z" fill="currentColor"/>
  <path d="M17 5.50098C17 6.88169 16.1046 8.00098 15 8.00098C13.8954 8.00098 13 6.88169 13 5.50098C13 4.12026 13.8954 3.00098 15 3.00098C16.1046 3.00098 17 4.12026 17 5.50098Z" fill="currentColor"/>
  <path d="M21 10.501C21 11.8817 20.1046 13.001 19 13.001C17.8954 13.001 17 11.8817 17 10.501C17 9.12026 17.8954 8.00098 19 8.00098C20.1046 8.00098 21 9.12026 21 10.501Z" fill="currentColor"/>
  <path d="M16.4308 20.001C18.2391 20.001 19.3179 17.986 18.3154 16.481L14.4968 10.7489C13.3095 8.96653 10.6907 8.96652 9.50335 10.7489L5.68473 16.481C4.68217 17.986 5.76103 20.001 7.56934 20.001C8.52908 20.001 9.33819 19.3178 10.0736 18.7012C10.5948 18.2642 11.2667 18.001 12 18.001C12.7334 18.001 13.4053 18.2642 13.9265 18.7012C14.6619 19.3178 15.471 20.001 16.4308 20.001Z" fill="currentColor"/>
</svg>
