<svg width="24" height="24" viewBox="0 0 24 24" fill="none" xmlns="http://www.w3.org/2000/svg">
  <path d="M7.09794 6.84263C8.21987 6.23548 10.208 5.22814 11.7616 4.81185C13.3152 4.39555 15.5406 4.27389 16.8158 4.23873C16.8093 3.79157 17.1055 3.37995 17.5571 3.25893C18.0906 3.11599 18.639 3.43257 18.7819 3.96604C18.893 4.38072 18.7265 4.80439 18.3962 5.03964C18.8929 5.77921 19.5664 6.89394 19.8172 7.82974C20.0679 8.76554 20.042 10.0677 19.9816 10.9565C20.3853 10.9951 20.7413 11.2788 20.8524 11.6934C20.9954 12.2269 20.6788 12.7752 20.1453 12.9182C19.6937 13.0392 19.2314 12.8308 19.0134 12.4403C18.8913 12.5064 18.7589 12.5772 18.618 12.6515C18.5849 12.5319 18.5512 12.4153 18.5174 12.3027C18.818 11.9531 19 11.4983 19 11C19 9.89543 18.1046 9 17 9C16.4304 9 15.9173 9.23776 15.5534 9.61913C14.268 9.33598 12.4455 9 11 9C9.5545 9 7.73199 9.33598 6.4466 9.61913C6.33976 9.50715 6.22006 9.40756 6.08983 9.32273C6.09336 8.96401 6.10964 8.62232 6.12975 8.32643C5.72612 8.28782 5.37005 8.00419 5.25893 7.58951C5.11599 7.05604 5.43257 6.5077 5.96604 6.36476C6.4177 6.24374 6.88002 6.45211 7.09794 6.84263Z" fill="currentColor"/>
  <path fill-rule="evenodd" clip-rule="evenodd" d="M5.96965 10.7545C7.21049 10.4585 9.39157 10 11 10C12.6084 10 14.7895 10.4585 16.0303 10.7545C16.1398 10.3209 16.5324 10 17 10C17.5523 10 18 10.4477 18 11C18 11.4293 17.7295 11.7954 17.3496 11.9372C17.638 12.7801 18 14.0312 18 15C18 15.9688 17.638 17.2199 17.3496 18.0628C17.7295 18.2046 18 18.5707 18 19C18 19.5523 17.5523 20 17 20C16.5324 20 16.1398 19.6791 16.0304 19.2455C14.7895 19.5415 12.6084 20 11 20C9.39157 20 7.21049 19.5415 5.96965 19.2455C5.86022 19.6791 5.46759 20 5 20C4.44772 20 4 19.5523 4 19C4 18.5707 4.27053 18.2046 4.65042 18.0628C4.36202 17.2199 4 15.9688 4 15C4 14.0312 4.36202 12.7801 4.65042 11.9372C4.27053 11.7954 4 11.4293 4 11C4 10.4477 4.44772 10 5 10C5.46759 10 5.86023 10.3209 5.96965 10.7545ZM15.5 14.5C15.7761 14.5 16 14.7239 16 15C16 15.7942 15.5179 16.5414 14.9694 17.0625C14.4246 17.5801 13.6819 18 13 18C12.7239 18 12.5 17.7761 12.5 17.5C12.5 17.2239 12.7239 17 13 17C13.3181 17 13.8254 16.7699 14.2806 16.3375C14.7321 15.9086 15 15.4058 15 15C15 14.7239 15.2239 14.5 15.5 14.5Z" fill="currentColor"/>
</svg>
