<svg width="24" height="24" viewBox="0 0 24 24" fill="none" xmlns="http://www.w3.org/2000/svg">
<path d="M5 3C4.44772 3 4 3.44772 4 4C4 4.55228 4.44772 5 5 5C6.65685 5 8 6.34315 8 8V13H3C2.44772 13 2 13.4477 2 14C2 14.5523 2.44772 15 3 15H13C13.5523 15 14 14.5523 14 14C14 13.4477 13.5523 13 13 13H10V10.4646C11.6961 10.2219 13 8.76324 13 7C13 6.44772 12.5523 6 12 6C11.1938 6 10.4433 6.2385 9.81528 6.64878C9.22582 4.54379 7.2932 3 5 3Z" fill="currentColor"/>
<path d="M14 8C13.4477 8 13 8.44772 13 9C13 9.55228 13.4477 10 14 10C15.1046 10 16 10.8954 16 12V16H3C2.44772 16 2 16.4477 2 17C2 17.5523 2.44772 18 3 18L21 18C21.5523 18 22 17.5523 22 17C22 16.4477 21.5523 16 21 16L18 16V14.3293C19.1652 13.9175 20 12.8062 20 11.5V11C20 10.4477 19.5523 10 19 10C18.5083 10 18.0443 10.1183 17.6348 10.3279C17.0016 8.9538 15.6122 8 14 8Z" fill="currentColor"/>
<path d="M21 21L10 21C9.44772 21 9 20.5523 9 20C9 19.4477 9.44772 19 10 19L21 19C21.5523 19 22 19.4477 22 20C22 20.5523 21.5523 21 21 21Z" fill="currentColor"/>
<path d="M6 21H3C2.44772 21 2 20.5523 2 20C2 19.4477 2.44772 19 3 19H6C6.55228 19 7 19.4477 7 20C7 20.5523 6.55229 21 6 21Z" fill="currentColor"/>
<path d="M21 15C21.5523 15 22 14.5523 22 14C22 13.4477 21.5523 13 21 13C20.4477 13 20 13.4477 20 14C20 14.5523 20.4477 15 21 15Z" fill="currentColor"/>
</svg>
