<svg width="24" height="24" viewBox="0 0 24 24" fill="none" xmlns="http://www.w3.org/2000/svg">
<g clip-path="url(#clip0_5551_1668)">
<path fill-rule="evenodd" clip-rule="evenodd" d="M10.7682 2.83941C10.3232 2.46857 9.67679 2.46857 9.23178 2.83941L6.43178 5.17275C6.15819 5.40074 6 5.73848 6 6.09461V18.0009C6 18.5532 6.44772 19.0009 7 19.0009C7.55228 19.0009 8 18.5532 8 18.0009V17.001H12V18.0009C12 18.5532 12.4477 19.0009 13 19.0009C13.5523 19.0009 14 18.5532 14 18.0009V11.001H14.307L16.8203 17.7032C17.1131 18.4838 17.8593 19.001 18.693 19.001H21C21.5523 19.001 22 18.5533 22 18.001C22 17.4487 21.5523 17.001 21 17.001H18.693L16.1797 10.2987C15.8869 9.51812 15.1407 9.00098 14.307 9.00098H14V6.09461C14 5.73848 13.8418 5.40074 13.5682 5.17275L10.7682 2.83941ZM12 15.001V14.001H8V15.001H12ZM12 11.001V12.001H8V11.001H12ZM12 9.00098V6.46931L10 4.80265L8 6.46931V9.00098H12Z" fill="currentColor"/>
<path fill-rule="evenodd" clip-rule="evenodd" d="M2.18182 21.8201V0.00189209H24V21.8201L21.8182 24.0019H0L2.18182 21.8201ZM4.36364 1.0928H22.9091V20.7292H4.36364V1.0928Z" fill="currentColor"/>
</g>
<defs>
<clipPath id="clip0_5551_1668">
<rect width="24" height="24" fill="white" transform="translate(0 0.000915527)"/>
</clipPath>
</defs>
</svg>
