<svg width="24" height="24" viewBox="0 0 24 24" fill="none" xmlns="http://www.w3.org/2000/svg">
  <path fill-rule="evenodd" clip-rule="evenodd" d="M22.9091 1.09091H4.36364V20.7273H22.9091V1.09091ZM2.18182 0V21.8182L0 24H21.8182L24 21.8182V0H2.18182Z" fill="currentColor"/>
  <path fill-rule="evenodd" clip-rule="evenodd" d="M19.6705 18.8727C18.6886 19.3091 17.7068 19.6364 16.725 19.6364C15.525 19.6364 14.325 19.0909 13.125 18.5454C11.925 18 10.725 17.4545 9.52501 17.4545C8.10683 17.4545 6.79774 17.7818 5.48865 18.3273V16.1454C6.25228 15.8182 6.90683 15.6 7.67047 15.4909V6.54545C7.67047 4.6909 9.08865 3.27272 10.9432 3.27272C12.3614 3.27272 13.5614 4.14545 13.9977 5.45454H10.9432C10.2886 5.45454 9.85228 5.8909 9.85228 6.54545V7.63636H15.3068V6.54545C15.3068 4.6909 16.725 3.27272 18.5796 3.27272C19.9977 3.27272 21.1977 4.14545 21.6341 5.45454H18.5796C17.925 5.45454 17.4886 5.8909 17.4886 6.54545V17.4545C18.2523 17.2364 18.9068 17.0182 19.6705 16.6909V18.8727ZM9.85228 9.81818H15.3068V12H9.85228V9.81818ZM15.3068 14.1818H9.85228V15.2727C10.9546 15.4024 12.0183 15.8789 13.0893 16.3587C13.8202 16.6861 14.5546 17.0151 15.3068 17.2364V14.1818Z" fill="currentColor"/>
</svg>
