<svg width="24" height="24" viewBox="0 0 24 24" fill="none" xmlns="http://www.w3.org/2000/svg">
  <path d="M6 6C4.89543 6 4 6.89543 4 8V14C4 14.5523 4.44772 15 5 15H19C19.5523 15 20 14.5523 20 14V8C20 6.89543 19.1046 6 18 6H6Z" fill="currentColor"/>
  <path d="M6 16C5.44772 16 5 16.4477 5 17V18C5 18.5523 5.44772 19 6 19L6 20C6 20.5523 6.44772 21 7 21C7.55228 21 8 20.5523 8 20V19H16V20C16 20.5523 16.4477 21 17 21C17.5523 21 18 20.5523 18 20V19C18.5523 19 19 18.5523 19 18V17C19 16.4477 18.5523 16 18 16H6Z" fill="currentColor"/>
</svg>
