<svg width="24" height="24" viewBox="0 0 24 24" fill="none" xmlns="http://www.w3.org/2000/svg">
<path fill-rule="evenodd" clip-rule="evenodd" d="M14.5 13C16.9853 13 19 10.9853 19 8.5C19 6.01472 16.9853 4 14.5 4C12.0147 4 10 6.01472 10 8.5C10 10.9853 12.0147 13 14.5 13ZM14.5 11C15.8807 11 17 9.88071 17 8.5C17 7.11929 15.8807 6 14.5 6C13.1193 6 12 7.11929 12 8.5C12 9.88071 13.1193 11 14.5 11Z" fill="currentColor"/>
<path fill-rule="evenodd" clip-rule="evenodd" d="M21 8.5C21 12.0899 18.0899 15 14.5 15C10.9101 15 8 12.0899 8 8.5C8 7.98373 8.06019 7.48152 8.17393 7H3C2.44772 7 2 7.44772 2 8V17C2 17.5523 2.44772 18 3 18H6.08594L5.79304 18.2929C5.16308 18.9229 5.60925 20 6.50015 20C6.76537 20 7.01972 19.8946 7.20726 19.7071L8.91436 18H15.0859L16.793 19.7071C16.9805 19.8946 17.2349 20 17.5001 20C18.391 20 18.8372 18.9229 18.2072 18.2929L17.9143 18H21C21.5523 18 22 17.5523 22 17V8C22 7.44772 21.5523 7 21 7H20.8261C20.9398 7.48152 21 7.98373 21 8.5ZM5 10C4.44772 10 4 10.4477 4 11C4 11.5523 4.44772 12 5 12C5.55228 12 6 11.5523 6 11C6 10.4477 5.55228 10 5 10Z" fill="currentColor"/>
</svg>
