<svg width="24" height="24" viewBox="0 0 24 24" fill="none" xmlns="http://www.w3.org/2000/svg">
<path d="M6.01953 11C6.01953 10.4477 6.46725 10 7.01953 10H10.0195C10.5718 10 11.0195 10.4477 11.0195 11V13H6.01953V11Z" fill="currentColor"/>
<path d="M13.0195 11C13.0195 10.4477 13.4672 10 14.0195 10H17.0195C17.5718 10 18.0195 10.4477 18.0195 11V13H13.0195V11Z" fill="currentColor"/>
<path fill-rule="evenodd" clip-rule="evenodd" d="M2.11848 8.99478L2.90942 14.004C2.39958 14.0498 2 14.4782 2 15V21C2 21.5523 2.44772 22 3 22C3.55228 22 4 21.5523 4 21V20H20V21C20 21.5523 20.4477 22 21 22C21.5523 22 22 21.5523 22 21V15C22 14.4783 21.6005 14.0499 21.0908 14.0041L21.8817 8.99478C22.2623 6.58453 19.7593 4.75236 17.5768 5.84361L17.5001 5.88197L17.499 5.88242C17.499 5.88242 17.4947 5.88324 17.4865 5.88276C17.4688 5.88174 17.4326 5.875 17.3836 5.84924C17.275 5.79214 17.1906 5.68918 17.1601 5.59764C16.907 4.83924 16.4473 3.9322 15.6062 3.21174C14.7477 2.47632 13.5663 2 12.0001 2C10.4339 2 9.25255 2.47632 8.39399 3.21174C7.5529 3.9322 7.09323 4.83924 6.84014 5.59764C6.80959 5.68917 6.72523 5.79214 6.61661 5.84924C6.5676 5.875 6.53142 5.88174 6.51376 5.88276C6.50552 5.88324 6.50123 5.88242 6.50123 5.88242L6.50011 5.88197L6.42341 5.84361C4.2409 4.75236 1.73791 6.58452 2.11848 8.99478ZM9.69508 4.73068C9.21326 5.1434 8.91659 5.69346 8.73729 6.23076C8.53251 6.84438 8.08141 7.33874 7.54719 7.61955C7.00692 7.90355 6.28693 8.01144 5.60568 7.67082L5.52898 7.63247C4.80148 7.26872 3.96715 7.87944 4.09401 8.68286L4.93355 14H19.0667L19.9062 8.68286C20.0331 7.87944 19.1987 7.26872 18.4712 7.63247L18.3945 7.67082C17.7133 8.01144 16.9933 7.90355 16.453 7.61955C15.9188 7.33874 15.4677 6.84438 15.2629 6.23076C15.0836 5.69346 14.787 5.1434 14.3052 4.73068C13.8408 4.33293 13.1327 4 12.0001 4C10.8675 4 10.1594 4.33293 9.69508 4.73068ZM20 18V17H4V18H20Z" fill="currentColor"/>
</svg>
