<svg width="24" height="24" viewBox="0 0 24 24" fill="none" xmlns="http://www.w3.org/2000/svg">
  <path d="M12 14C12 15.6569 10.6569 17 9 17C7.34315 17 6 15.6569 6 14C6 12.3431 7.34315 11 9 11C10.6569 11 12 12.3431 12 14Z" fill="currentColor"/>
  <path fill-rule="evenodd" clip-rule="evenodd" d="M19 4C19 3.44772 18.5523 3 18 3C17.4477 3 17 3.44772 17 4V8H4C3.44772 8 3 8.44772 3 9V19C3 19.5523 3.44772 20 4 20H20C20.5523 20 21 19.5523 21 19V9C21 8.44771 20.5523 8 20 8H19V4ZM13 14C13 16.2091 11.2091 18 9 18C6.79086 18 5 16.2091 5 14C5 11.7909 6.79086 10 9 10C11.2091 10 13 11.7909 13 14ZM19 12.5C19 12.2239 18.7761 12 18.5 12H15.5C15.2239 12 15 12.2239 15 12.5C15 12.7761 15.2239 13 15.5 13H18.5C18.7761 13 19 12.7761 19 12.5ZM15 14.5C15 14.2239 15.2239 14 15.5 14H18.5C18.7761 14 19 14.2239 19 14.5C19 14.7761 18.7761 15 18.5 15H15.5C15.2239 15 15 14.7761 15 14.5ZM19 16.5C19 16.2239 18.7761 16 18.5 16H15.5C15.2239 16 15 16.2239 15 16.5C15 16.7761 15.2239 17 15.5 17H18.5C18.7761 17 19 16.7761 19 16.5Z" fill="currentColor"/>
</svg>
