<svg width="24" height="24" viewBox="0 0 24 24" fill="none" xmlns="http://www.w3.org/2000/svg">
  <path fill-rule="evenodd" clip-rule="evenodd" d="M5 5C5 4.44772 5.44772 4 6 4H18C18.5523 4 19 4.44772 19 5V9H5V5ZM16.5 6C16.2239 6 16 6.22386 16 6.5V7.5C16 7.77614 16.2239 8 16.5 8C16.7761 8 17 7.77614 17 7.5V6.5C17 6.22386 16.7761 6 16.5 6Z" fill="currentColor"/>
  <path fill-rule="evenodd" clip-rule="evenodd" d="M5 10H19V19C19 19.5523 18.5523 20 18 20C18 20.5523 17.5523 21 17 21C16.4477 21 16 20.5523 16 20H8C8 20.5523 7.55228 21 7 21C6.44772 21 6 20.5523 6 20C5.44772 20 5 19.5523 5 19V10ZM16 12.5C16 12.2239 16.2239 12 16.5 12C16.7761 12 17 12.2239 17 12.5V14.5C17 14.7761 16.7761 15 16.5 15C16.2239 15 16 14.7761 16 14.5V12.5Z" fill="currentColor"/>
</svg>
