<svg width="24" height="24" viewBox="0 0 24 24" fill="none" xmlns="http://www.w3.org/2000/svg">
  <path fill-rule="evenodd" clip-rule="evenodd" d="M16 11C16 12.1046 15.1046 13 14 13C12.8954 13 12 12.1046 12 11C12 9.89543 12.8954 9 14 9C15.1046 9 16 9.89543 16 11ZM15 11C15 11.5523 14.5523 12 14 12C13.4477 12 13 11.5523 13 11C13 10.4477 13.4477 10 14 10C14.5523 10 15 10.4477 15 11Z" fill="currentColor"/>
  <path fill-rule="evenodd" clip-rule="evenodd" d="M7 6H18V16H7V15H7.5C7.77614 15 8 14.7761 8 14.5C8 14.2239 7.77614 14 7.5 14H7V8H7.5C7.77614 8 8 7.77614 8 7.5C8 7.22386 7.77614 7 7.5 7H7V6ZM17 11C17 12.6569 15.6569 14 14 14C12.3431 14 11 12.6569 11 11C11 9.34315 12.3431 8 14 8C15.6569 8 17 9.34315 17 11Z" fill="currentColor"/>
  <path fill-rule="evenodd" clip-rule="evenodd" d="M3 4C3 3.44772 3.44772 3 4 3H20C20.5523 3 21 3.44772 21 4V19C21 19.5523 20.5523 20 20 20H19C19 20.5523 18.5523 21 18 21C17.4477 21 17 20.5523 17 20H7C7 20.5523 6.55228 21 6 21C5.44772 21 5 20.5523 5 20H4C3.44772 20 3 19.5523 3 19V4ZM6 15V16C6 16.5523 6.44772 17 7 17H18C18.5523 17 19 16.5523 19 16V6C19 5.44772 18.5523 5 18 5H7C6.44772 5 6 5.44771 6 6V7H5.5C5.22386 7 5 7.22386 5 7.5C5 7.77614 5.22386 8 5.5 8H6V14H5.5C5.22386 14 5 14.2239 5 14.5C5 14.7761 5.22386 15 5.5 15H6Z" fill="currentColor"/>
</svg>
