<svg width="24" height="24" viewBox="0 0 24 24" fill="none" xmlns="http://www.w3.org/2000/svg">
<path d="M19.2949 4.55311C19.0316 4.06759 18.4247 3.88739 17.9391 4.15062C17.4536 4.41385 17.2734 5.02083 17.5367 5.50635L17.8216 6.03187C18.0493 6.45189 17.9481 6.97432 17.58 7.27891L17.5458 7.30719C16.4415 8.22098 16.1379 9.78828 16.8211 11.0483L17.106 11.5738C17.3692 12.0594 17.9762 12.2396 18.4617 11.9763C18.9472 11.7131 19.1274 11.1061 18.8642 10.6206L18.5793 10.0951C18.3516 9.67507 18.4528 9.15264 18.8209 8.84805L18.855 8.81977C19.9593 7.90598 20.2629 6.33869 19.5798 5.07863L19.2949 4.55311Z" fill="currentColor"/>
<path d="M14.4123 4.23876C14.8978 3.97553 15.5048 4.15573 15.768 4.64125L16.0529 5.16676C16.7361 6.42682 16.4325 7.99412 15.3282 8.9079L15.294 8.93618C14.9259 9.24078 14.8247 9.76321 15.0524 10.1832L15.3373 10.7087C15.6006 11.1943 15.4204 11.8012 14.9349 12.0645C14.4493 12.3277 13.8424 12.1475 13.5791 11.662L13.2942 11.1365C12.6111 9.87641 12.9147 8.30912 14.019 7.39533L14.0531 7.36705C14.4212 7.06245 14.5224 6.54002 14.2947 6.12L14.0098 5.59449C13.7466 5.10897 13.9268 4.50199 14.4123 4.23876Z" fill="currentColor"/>
<path d="M8 7.00093C8 8.10549 7.10457 9.00093 6 9.00093C4.89543 9.00093 4 8.10549 4 7.00093C4 5.89636 4.89543 5.00093 6 5.00093C7.10457 5.00093 8 5.89636 8 7.00093Z" fill="currentColor"/>
<path fill-rule="evenodd" clip-rule="evenodd" d="M2 17.0009L3.79278 10.7262C3.91543 10.2969 4.30782 10.0009 4.7543 10.0009H7.21922C7.67809 10.0009 8.07807 10.3132 8.18937 10.7584L9.25 15.0009H13.4854C13.8083 15.0009 14.1114 15.1569 14.2991 15.4197L18.0153 20.6223C18.4275 21.1994 18.015 22.0009 17.3058 22.0009C17.1079 22.0009 16.9158 21.9335 16.7612 21.8099L13.25 19.0009H3C2.44772 19.0009 2 18.5532 2 18.0009V17.0009ZM5.75 17.0009L4.93333 13.7343L4 17.0009H5.75Z" fill="currentColor"/>
</svg>
