<svg width="24" height="24" viewBox="0 0 24 24" fill="none" xmlns="http://www.w3.org/2000/svg">
  <path fill-rule="evenodd" clip-rule="evenodd" d="M3 4.99963C3 3.89506 3.89543 2.99963 5 2.99963H19C20.1046 2.99963 21 3.89506 21 4.99963V18.9996C21 20.1042 20.1046 20.9996 19 20.9996H5C3.89543 20.9996 3 20.1042 3 18.9996V4.99963ZM8 9.00012C8 6.79098 9.79086 5.00012 12 5.00012C14.2091 5.00012 16 6.79098 16 9.00012H12.3751L11.4 7.70003C11.2343 7.47912 10.9209 7.43434 10.7 7.60003C10.4791 7.76571 10.4343 8.07912 10.6 8.30003L11.1251 9.00012H8Z" fill="currentColor"/>
</svg>
