<svg width="24" height="24" viewBox="0 0 24 24" fill="none" xmlns="http://www.w3.org/2000/svg">
  <path fill-rule="evenodd" clip-rule="evenodd" d="M22.9091 1.09091H4.36364V20.7273H22.9091V1.09091ZM2.18182 0V21.8182L0 24H21.8182L24 21.8182V0H2.18182Z" fill="currentColor"/>
  <path d="M6.54547 10.1147V7.92445C7.81559 7.80018 8.72729 7.09091 8.72729 7.09091L9.40911 6.54546L10.0909 7.09091C10.0909 7.09091 11.2537 7.94292 12.7157 7.94292C14.1776 7.94292 15.2727 7.09091 15.2727 7.09091L15.9546 6.54546L16.6364 7.09091C16.6364 7.09091 17.7992 7.94292 19.2611 7.94292C19.8159 7.94292 20.3179 7.8202 20.7273 7.66791V9.95976C20.3037 10.0603 19.8178 10.1247 19.2611 10.1247C17.6554 10.1247 16.5895 9.59233 15.9546 9.20401C15.3228 9.59686 14.3094 10.1247 12.7157 10.1247C11.1099 10.1247 10.0441 9.59233 9.40911 9.20401C8.82843 9.5651 7.92532 10.0403 6.54547 10.1147Z" fill="currentColor"/>
  <path d="M6.54547 13.7998V11.2364L6.8182 11.4545C6.8182 11.4545 7.98102 12.3066 9.44293 12.3066C10.9048 12.3066 12 11.4545 12 11.4545L12.6818 10.9091L13.3637 11.4545C13.3637 11.4545 14.5265 12.3066 15.9884 12.3066C17.4503 12.3066 18.5455 11.4545 18.5455 11.4545L19.2273 10.9091L19.9091 11.4545C19.9091 11.4545 20.222 11.6838 20.7273 11.9045V14.2393C20.078 14.0501 19.5845 13.7861 19.2273 13.5677C18.5955 13.9605 17.5821 14.4884 15.9884 14.4884C14.3827 14.4884 13.3168 13.956 12.6818 13.5677C12.0501 13.9605 11.0367 14.4884 9.44293 14.4884C8.14212 14.4884 7.19561 14.139 6.54547 13.7998Z" fill="currentColor"/>
  <path d="M6.54547 18.842V16.6517C7.81559 16.5275 8.72729 15.8182 8.72729 15.8182L9.40911 15.2727L10.0909 15.8182C10.0909 15.8182 11.2537 16.6702 12.7157 16.6702C14.1776 16.6702 15.2727 15.8182 15.2727 15.8182L15.9546 15.2727L16.6364 15.8182C16.6364 15.8182 17.7992 16.6702 19.2611 16.6702C19.8159 16.6702 20.3179 16.5475 20.7273 16.3952V18.687C20.3037 18.7876 19.8178 18.852 19.2611 18.852C17.6554 18.852 16.5895 18.3196 15.9546 17.9313C15.3228 18.3241 14.3094 18.852 12.7157 18.852C11.1099 18.852 10.0441 18.3196 9.40911 17.9313C8.82843 18.2924 7.92532 18.7675 6.54547 18.842Z" fill="currentColor"/>
</svg>
