<svg width="24" height="24" viewBox="0 0 24 24" fill="none" xmlns="http://www.w3.org/2000/svg">
<path d="M7 10.2718V8.26408C8.16428 8.15016 9 7.5 9 7.5L9.625 7L10.25 7.5C10.25 7.5 11.3159 8.28101 12.656 8.28101C13.9961 8.28101 15 7.5 15 7.5L15.625 7L16.25 7.5C16.25 7.5 17.3159 8.28101 18.656 8.28101C19.1646 8.28101 19.6248 8.16852 20 8.02892V10.1298C19.6117 10.222 19.1663 10.281 18.656 10.281C17.1841 10.281 16.207 9.79297 15.625 9.43701C15.0459 9.79712 14.1169 10.281 12.656 10.281C11.1841 10.281 10.207 9.79297 9.625 9.43701C9.09272 9.76801 8.26486 10.2036 7 10.2718Z" fill="currentColor"/>
<path d="M7 13.6498V11.3L7.25 11.5C7.25 11.5 8.31592 12.281 9.65601 12.281C10.9961 12.281 12 11.5 12 11.5L12.625 11L13.25 11.5C13.25 11.5 14.3159 12.281 15.656 12.281C16.9961 12.281 18 11.5 18 11.5L18.625 11L19.25 11.5C19.25 11.5 19.5368 11.7102 20 11.9125V14.0527C19.4048 13.8793 18.9524 13.6372 18.625 13.437C18.0459 13.7971 17.1169 14.281 15.656 14.281C14.1841 14.281 13.207 13.793 12.625 13.437C12.0459 13.7971 11.1169 14.281 9.65601 14.281C8.4636 14.281 7.59596 13.9607 7 13.6498Z" fill="currentColor"/>
<path d="M7 16.2641V18.2718C8.26486 18.2036 9.09272 17.768 9.625 17.437C10.207 17.793 11.1841 18.281 12.656 18.281C14.1169 18.281 15.0459 17.7971 15.625 17.437C16.207 17.793 17.1841 18.281 18.656 18.281C19.1663 18.281 19.6117 18.222 20 18.1298V16.0289C19.6248 16.1685 19.1646 16.281 18.656 16.281C17.3159 16.281 16.25 15.5 16.25 15.5L15.625 15L15 15.5C15 15.5 13.9961 16.281 12.656 16.281C11.3159 16.281 10.25 15.5 10.25 15.5L9.625 15L9 15.5C9 15.5 8.16428 16.1502 7 16.2641Z" fill="currentColor"/>
<path fill-rule="evenodd" clip-rule="evenodd" d="M3 21V1H23V21L21 23H1L3 21ZM5 2H22V20H5V2Z" fill="currentColor"/>
</svg>
