<svg width="24" height="24" viewBox="0 0 24 24" fill="none" xmlns="http://www.w3.org/2000/svg">
<path fill-rule="evenodd" clip-rule="evenodd" d="M20 13C20.5 12.5 21 11.7319 21 11.069C21 6.09847 16.9706 4.06903 12 4.06903C7.02944 4.06903 3 6.09847 3 11.069C3 11.7319 3.5 12.5 4 13L4.0153 13.069H19.9847L20 13ZM12 9.06903C12.2761 9.06903 12.5 9.29289 12.5 9.56903V11.569C12.5 11.8452 12.2761 12.069 12 12.069C11.7239 12.069 11.5 11.8452 11.5 11.569V9.56903C11.5 9.29289 11.7239 9.06903 12 9.06903ZM8.93292 9.453C8.79485 9.21386 8.48905 9.13192 8.24991 9.26999C8.01076 9.40806 7.92882 9.71386 8.06689 9.953L9.06689 11.6851C9.20497 11.9242 9.51076 12.0061 9.74991 11.8681C9.98905 11.73 10.071 11.4242 9.93292 11.1851L8.93292 9.453ZM15.7499 9.26999C15.9891 9.40806 16.071 9.71386 15.9329 9.953L14.9329 11.6851C14.7948 11.9242 14.4891 12.0061 14.2499 11.8681C14.0108 11.73 13.9288 11.4242 14.0669 11.1851L15.0669 9.453C15.205 9.21386 15.5108 9.13192 15.7499 9.26999Z" fill="currentColor"/>
<path d="M3 16.069L4 14H20L21 16.069V16.1586C21 17.0571 20.0752 17.658 19.2542 17.2931C18.9332 17.1505 18.5668 17.1505 18.2458 17.2931L17.3123 17.708C16.7951 17.9379 16.2049 17.9379 15.6877 17.708L15.0623 17.43C14.5451 17.2002 13.9549 17.2002 13.4377 17.43L12.8123 17.708C12.2951 17.9379 11.7049 17.9379 11.1877 17.708L10.5623 17.43C10.0451 17.2002 9.45485 17.2002 8.93772 17.43L8.31228 17.708C7.79515 17.9379 7.20485 17.9379 6.68772 17.708L5.75423 17.2931C5.43322 17.1505 5.06678 17.1505 4.74577 17.2931C3.92476 17.658 3 17.0571 3 16.1586V16.069Z" fill="currentColor"/>
</svg>
