<svg width="24" height="24" viewBox="0 0 24 24" fill="none" xmlns="http://www.w3.org/2000/svg">
<path d="M12 4C11.4477 4 11 4.44772 11 5V6H10C7.79086 6 6 7.79086 6 10V11H18V10C18 7.79086 16.2091 6 14 6H13V5C13 4.44772 12.5523 4 12 4Z" fill="currentColor"/>
<path d="M4 13C4 12.4477 4.44772 12 5 12H19C19.5523 12 20 12.4477 20 13C20 13.5523 19.5523 14 19 14H5C4.44772 14 4 13.5523 4 13Z" fill="currentColor"/>
<path d="M6 16C6 15.4477 6.44772 15 7 15C7.55228 15 8 15.4477 8 16C8 16.5523 7.55228 17 7 17C6.44772 17 6 16.5523 6 16Z" fill="currentColor"/>
<path d="M7 18C6.44772 18 6 18.4477 6 19C6 19.5523 6.44772 20 7 20C7.55228 20 8 19.5523 8 19C8 18.4477 7.55228 18 7 18Z" fill="currentColor"/>
<path d="M11 16C11 15.4477 11.4477 15 12 15C12.5523 15 13 15.4477 13 16C13 16.5523 12.5523 17 12 17C11.4477 17 11 16.5523 11 16Z" fill="currentColor"/>
<path d="M12 18C11.4477 18 11 18.4477 11 19C11 19.5523 11.4477 20 12 20C12.5523 20 13 19.5523 13 19C13 18.4477 12.5523 18 12 18Z" fill="currentColor"/>
<path d="M16 16C16 15.4477 16.4477 15 17 15C17.5523 15 18 15.4477 18 16C18 16.5523 17.5523 17 17 17C16.4477 17 16 16.5523 16 16Z" fill="currentColor"/>
<path d="M17 18C16.4477 18 16 18.4477 16 19C16 19.5523 16.4477 20 17 20C17.5523 20 18 19.5523 18 19C18 18.4477 17.5523 18 17 18Z" fill="currentColor"/>
</svg>
