<svg width="24" height="24" viewBox="0 0 24 24" fill="none" xmlns="http://www.w3.org/2000/svg">
<path d="M10 8C9.44772 8 9 8.44771 9 9V11H15V9C15 8.44772 14.5523 8 14 8H10Z" fill="currentColor"/>
<path fill-rule="evenodd" clip-rule="evenodd" d="M5 6C5 4.89543 5.89543 4 7 4H17C18.1046 4 19 4.89543 19 6V12H20C20.5523 12 21 12.4477 21 13V20C21 20.5523 20.5523 21 20 21C19.4477 21 19 20.5523 19 20V19H5V20C5 20.5523 4.55228 21 4 21C3.44772 21 3 20.5523 3 20V13C3 12.4477 3.44772 12 4 12H5V6ZM19 16V17H5V16H19ZM7 12H17V6H7V12Z" fill="currentColor"/>
</svg>
