<svg width="24" height="24" viewBox="0 0 24 24" fill="none" xmlns="http://www.w3.org/2000/svg">
  <path d="M13 5.5C13 5.22386 13.2239 5 13.5 5C13.7761 5 14 5.22386 14 5.5V6C14 6.55228 14.4477 7 15 7C15.5523 7 16 6.55228 16 6V5.5C16 4.11929 14.8807 3 13.5 3C12.1193 3 11 4.11929 11 5.5V10H6V9H6.5C6.77614 9 7 8.77614 7 8.5C7 8.22386 6.77614 8 6.5 8H4.5C4.22386 8 4 8.22386 4 8.5C4 8.77614 4.22386 9 4.5 9H5V10H3C2.44772 10 2 10.4477 2 11C2 11.5523 2.44772 12 3 12H21C21.5523 12 22 11.5523 22 11C22 10.4477 21.5523 10 21 10H19V9H19.5C19.7761 9 20 8.77614 20 8.5C20 8.22386 19.7761 8 19.5 8H17.5C17.2239 8 17 8.22386 17 8.5C17 8.77614 17.2239 9 17.5 9H18V10H13V5.5Z" fill="currentColor"/>
  <path d="M21 13H3C3 15.7614 5.23858 18 8 18H16C18.7614 18 21 15.7614 21 13Z" fill="currentColor"/>
  <path d="M10 19H14V20C14 20.5523 13.5523 21 13 21H11C10.4477 21 10 20.5523 10 20V19Z" fill="currentColor"/>
</svg>
