<svg width="24" height="24" viewBox="0 0 24 24" fill="none" xmlns="http://www.w3.org/2000/svg">
  <path d="M9.54428 6.14187L1.96905 8.17165C1.95961 6.38685 3.14747 4.75006 4.95228 4.26647C6.82246 3.76535 8.59908 4.6519 9.54428 6.14187Z" fill="currentColor"/>
  <path d="M3.13624 13.0353L10.0618 11.1796C10.061 11.5935 10.0896 11.9398 10.1565 12.1895L11.0625 15.5705C11.5628 17.4376 10.4547 19.3565 8.58753 19.8568C6.7204 20.3571 4.80122 19.2491 4.30093 17.3819L3.13624 13.0353Z" fill="currentColor"/>
  <path d="M9.82837 7.10103L2.10096 9.17158L2.87742 12.0694L10.1219 10.1282L9.82837 7.10103Z" fill="currentColor"/>
  <path d="M22.031 8.17165L14.4557 6.14187C15.401 4.6519 17.1776 3.76535 19.0478 4.26647C20.8526 4.75006 22.0404 6.38685 22.031 8.17165Z" fill="currentColor"/>
  <path d="M13.9382 11.1796L20.8638 13.0353L19.6991 17.3819C19.1988 19.2491 17.2796 20.3571 15.4125 19.8568C13.5454 19.3565 12.4373 17.4376 12.9376 15.5705L13.8435 12.1895C13.9104 11.9398 13.939 11.5935 13.9382 11.1796Z" fill="currentColor"/>
  <path d="M14.1717 7.10103L21.8991 9.17158L21.1226 12.0694L13.8782 10.1282L14.1717 7.10103Z" fill="currentColor"/>
</svg>
