<svg width="24" height="24" viewBox="0 0 24 24" fill="none" xmlns="http://www.w3.org/2000/svg">
  <path d="M16.6269 13.3733C16.5496 13.4506 16.4247 13.4512 16.3439 13.3775C15.2152 12.3472 13.6851 11.7143 12.0001 11.7143C10.315 11.7143 8.78485 12.3472 7.6562 13.3776C7.57541 13.4513 7.45049 13.4507 7.37314 13.3733L6.41729 12.4175C6.33976 12.34 6.33888 12.2143 6.41787 12.1382C7.77931 10.8273 9.77546 10 12 10C14.2245 10 16.2206 10.8274 17.5821 12.1382C17.6611 12.2143 17.6602 12.34 17.5827 12.4175L16.6269 13.3733Z" fill="currentColor"/>
  <path d="M15.5176 14.1888C15.6037 14.2629 15.6061 14.3941 15.5258 14.4744L14.6276 15.3726C14.555 15.4452 14.4394 15.4506 14.3574 15.3887C13.6691 14.8699 12.8625 14.5715 12.0001 14.5715C11.1377 14.5715 10.3311 14.87 9.64275 15.3889C9.56071 15.4507 9.44512 15.4453 9.37247 15.3727L8.47431 14.4745C8.39401 14.3942 8.39641 14.263 8.48249 14.1889C9.45231 13.3545 10.6734 12.8572 12.0001 12.8572C13.3267 12.8572 14.5478 13.3545 15.5176 14.1888Z" fill="currentColor"/>
  <path d="M13.4644 16.5358C13.5457 16.4545 13.5422 16.3209 13.4516 16.2502C13.0108 15.9064 12.5189 15.7143 12.0001 15.7143C11.4812 15.7143 10.9893 15.9064 10.5485 16.2503C10.4578 16.321 10.4543 16.4545 10.5356 16.5358L11.8586 17.8588C11.9367 17.9369 12.0633 17.9369 12.1414 17.8588L13.4644 16.5358Z" fill="currentColor"/>
  <path fill-rule="evenodd" clip-rule="evenodd" d="M11.3767 2.50055C11.7419 2.20845 12.2608 2.20848 12.626 2.50063L21.5548 9.64378C21.7024 9.76188 21.6189 9.99995 21.4298 9.99995H21V20C21 20.5522 20.5523 21 20 21H4C3.44771 21 3 20.5522 3 20V9.99995H2.57027C2.3812 9.99995 2.2977 9.76186 2.44535 9.64376L11.3767 2.50055ZM12.0012 4.56206L19 10.1612V19H5V10.1616L12.0012 4.56206Z" fill="currentColor"/>
</svg>
