<svg width="24" height="24" viewBox="0 0 24 24" fill="none" xmlns="http://www.w3.org/2000/svg">
<path d="M15.1274 3.62591C15.2443 3.42341 15.2049 3.16448 15.0189 3.02276C14.153 2.36302 13.0896 2 11.9888 2C10.8811 2 9.81122 2.36759 8.94237 3.03522C8.75277 3.18091 8.71718 3.44728 8.84294 3.65065C9.01132 3.92294 9.38995 3.96527 9.64902 3.77718C10.3249 3.28647 11.143 3.01742 11.9888 3.01742C12.8287 3.01742 13.6413 3.28285 14.3145 3.7671C14.5785 3.95699 14.9648 3.90755 15.1274 3.62591Z" fill="currentColor"/>
<path d="M9.72964 5.20604C9.61039 4.9995 9.65977 4.73387 9.86175 4.60705C10.494 4.21008 11.2303 3.99465 11.9888 3.99465C12.7353 3.99465 13.4603 4.20334 14.0858 4.58841C14.2904 4.71437 14.3413 4.98207 14.2212 5.19014C14.0719 5.44877 13.7249 5.50663 13.4644 5.36068C13.0175 5.11034 12.5101 4.97552 11.9888 4.97552C11.4586 4.97552 10.9427 5.115 10.4903 5.37363C10.2296 5.52265 9.87977 5.46608 9.72964 5.20604Z" fill="currentColor"/>
<path d="M13.3419 6.32302C13.4398 6.37248 13.4714 6.49453 13.4166 6.58949L12.0515 8.95386C12.0348 8.98271 12.0041 9.00048 11.9707 9.00048C11.9374 9.00048 11.9066 8.98271 11.89 8.95386L10.5331 6.6037C10.4787 6.50944 10.5094 6.38831 10.606 6.33814C11.0293 6.11831 11.5029 6.00048 11.9887 6.00048C12.4632 6.00048 12.9262 6.11291 13.3419 6.32302Z" fill="currentColor"/>
<path d="M8.00638 7.09872C8.54777 6.98956 9 7.44771 9 7.99999C9 8.55228 8.54 8.98368 8.01811 9.16437C6.84347 9.57105 6 10.687 6 12V17C6 18.6568 7.34315 20 9 20H15C16.6569 20 18 18.6568 18 17V12C18 10.687 17.1565 9.57105 15.9819 9.16437C15.46 8.98368 15 8.55228 15 7.99999C15 7.44771 15.4522 6.98956 15.9936 7.09872C18.279 7.55952 20 9.57878 20 12V17C20 19.7614 17.7614 22 15 22H9C6.23858 22 4 19.7614 4 17V12C4 9.57878 5.72096 7.55952 8.00638 7.09872Z" fill="currentColor"/>
<path d="M9 19C9.55228 19 10 18.5523 10 18C10 17.4477 9.55228 17 9 17C8.44772 17 8 17.4477 8 18C8 18.5523 8.44772 19 9 19Z" fill="currentColor"/>
<path d="M13 18C13 18.5523 12.5523 19 12 19C11.4477 19 11 18.5523 11 18C11 17.4477 11.4477 17 12 17C12.5523 17 13 17.4477 13 18Z" fill="currentColor"/>
<path d="M15 19C15.5523 19 16 18.5523 16 18C16 17.4477 15.5523 17 15 17C14.4477 17 14 17.4477 14 18C14 18.5523 14.4477 19 15 19Z" fill="currentColor"/>
<path d="M8.23549 12.1687C7.7099 11.7223 8.13252 11 8.82213 11C9.05091 11 9.26717 11.0914 9.46266 11.2103C9.76513 11.3941 10.1202 11.5 10.5001 11.5H13.5001C13.8799 11.5 14.235 11.3941 14.5375 11.2103C14.733 11.0914 14.9492 11 15.178 11C15.8676 11 16.2902 11.7223 15.7646 12.1687C15.1542 12.6872 14.3637 13 13.5001 13H10.5001C9.63645 13 8.84589 12.6872 8.23549 12.1687Z" fill="currentColor"/>
</svg>
