<svg width="24" height="24" viewBox="0 0 24 24" fill="none" xmlns="http://www.w3.org/2000/svg">
<path fill-rule="evenodd" clip-rule="evenodd" d="M5 2.99963C3.89543 2.99963 3 3.89506 3 4.99963V18.9996C3 20.1042 3.89543 20.9996 5 20.9996H19C20.1046 20.9996 21 20.1042 21 18.9996V4.99963C21 3.89506 20.1046 2.99963 19 2.99963H5ZM6.96416 11.1308C8.03109 10.845 9.1279 11.4781 9.41379 12.545C9.6037 13.2541 9.38759 13.9766 8.90808 14.4652C8.82976 14.8726 8.81366 15.1798 8.86363 15.4758C8.91845 15.8005 9.05279 16.1118 9.27175 16.5275C9.42874 16.6992 9.548 16.9103 9.61241 17.1505C9.82682 17.9507 9.35194 18.7733 8.55175 18.9877C7.75155 19.2021 6.92904 18.7272 6.71463 17.927C6.6392 17.6455 6.52286 17.265 6.39089 16.8333L6.38821 16.8245C6.18589 16.1627 6.01049 15.4401 5.84441 14.7558C5.74424 14.3431 5.64747 13.9444 5.55021 13.5813L5.54994 13.5803C5.26406 12.5134 5.89722 11.4167 6.96416 11.1308ZM14.5865 12.545C14.8723 11.4781 15.9692 10.845 17.0361 11.1308C18.103 11.4167 18.7362 12.5134 18.4503 13.5803L18.45 13.5813C18.3528 13.9443 18.256 14.343 18.1559 14.7557C17.9898 15.44 17.8144 16.1627 17.612 16.8245L17.6093 16.8333C17.4774 17.265 17.361 17.6455 17.2856 17.927C17.0712 18.7272 16.2487 19.2021 15.4485 18.9877C14.6483 18.7733 14.1734 17.9507 14.3878 17.1505C14.4522 16.9103 14.5715 16.6992 14.7285 16.5275C14.9474 16.1118 15.0818 15.8005 15.1366 15.4758C15.1866 15.1798 15.1705 14.8726 15.0922 14.4652C14.6127 13.9766 14.3965 13.2541 14.5865 12.545ZM15.0189 6.02276C15.2049 6.16448 15.2443 6.42341 15.1274 6.62591C14.9648 6.90755 14.5785 6.95699 14.3145 6.7671C13.6413 6.28285 12.8287 6.01742 11.9888 6.01742C11.143 6.01742 10.3249 6.28647 9.64902 6.77718C9.38995 6.96527 9.01132 6.92294 8.84294 6.65065C8.71718 6.44728 8.75277 6.18091 8.94237 6.03522C9.81122 5.36759 10.8811 5 11.9888 5C13.0896 5 14.153 5.36302 15.0189 6.02276ZM9.86175 7.60705C9.65977 7.73387 9.61039 7.9995 9.72964 8.20604C9.87977 8.46608 10.2296 8.52265 10.4903 8.37363C10.9427 8.115 11.4586 7.97552 11.9888 7.97552C12.5101 7.97552 13.0175 8.11034 13.4644 8.36068C13.7249 8.50663 14.0719 8.44877 14.2212 8.19014C14.3413 7.98207 14.2904 7.71437 14.0858 7.58841C13.4603 7.20334 12.7353 6.99465 11.9888 6.99465C11.2303 6.99465 10.494 7.21008 9.86175 7.60705ZM13.4166 9.58949C13.4714 9.49453 13.4398 9.37248 13.3419 9.32302C12.9262 9.11291 12.4632 9.00048 11.9887 9.00048C11.5029 9.00048 11.0293 9.11831 10.606 9.33814C10.5094 9.38831 10.4787 9.50944 10.5331 9.6037L11.89 11.9539C11.9066 11.9827 11.9374 12.0005 11.9707 12.0005C12.0041 12.0005 12.0348 11.9827 12.0515 11.9539L13.4166 9.58949Z" fill="currentColor"/>
</svg>
