<svg xmlns="http://www.w3.org/2000/svg" xmlns:xlink="http://www.w3.org/1999/xlink" preserveAspectRatio="xMidYMid" width="16px" height="16px" viewBox="0 0 16 16">
  <path d="M8,1.185c3.758,0,6.814,3.057,6.814,6.815c0,3.757-3.057,6.814-6.814,6.814S1.185,11.757,1.185,8
    C1.185,4.242,4.242,1.185,8,1.185 M8,0C3.582,0,0,3.581,0,8c0,4.418,3.582,8,8,8c4.418,0,8-3.582,8-8C16,3.581,12.418,0,8,0L8,0z
     M12.212,8.51h1.095v2.002h-1.095V8.51z M2.963,10.512h8.638V8.51H2.963V10.512z M12.91,8.105c0.883-1.327,0.153-2.145-0.698-2.646
    c-1.131-0.667-2.933-0.943-2.708-2.761c-1.218,3.518,4.126,3.463,3.349,5.521" fill="currentColor" />
</svg>
