<svg width="24" height="24" viewBox="0 0 24 24" fill="none" xmlns="http://www.w3.org/2000/svg">
  <path d="M6.4413 2C5.46236 2 4.54499 2.47763 3.9836 3.27961L3.75422 3.60731C3.4375 4.05976 3.54754 4.68329 3.99999 5C4.45244 5.31671 5.07597 5.20668 5.39268 4.75423L5.62207 4.42654C5.8092 4.15921 6.11498 4 6.4413 4H6.99997V5C6.44769 5 5.99997 5.44772 5.99997 6V7C5.99997 7.05652 6.00466 7.11194 6.01367 7.1659C4.84133 7.57385 3.99997 8.68867 3.99997 10V21C3.99997 21.5523 4.44769 22 4.99997 22H9.33678C9.12082 21.5454 8.99997 21.0368 8.99997 20.5C8.99997 20.3302 9.01206 20.1633 9.03541 20H5.99997V10C5.99997 9.44772 6.44769 9 6.99997 9H8.99997C9.55225 9 9.99997 9.44772 9.99997 10V18.0505C10.5251 17.5146 11.2212 17.1468 12 17.0354V10C12 9.23165 11.7111 8.53076 11.2361 8C11.1634 7.91876 11.0863 7.84151 11.0052 7.76861C10.712 7.50494 10.3666 7.29824 9.98627 7.1659C9.99528 7.11194 9.99997 7.05652 9.99997 7V6C9.99997 5.44772 9.55226 5 8.99997 5V4H9.99999C10.5523 4 11 3.55228 11 3C11 2.44772 10.5523 2 9.99999 2H6.4413Z" fill="currentColor"/>
  <path d="M16 5V4C15.4477 4 15 3.55228 15 3C15 2.44772 15.4477 2 16 2H18C18.5523 2 19 2.44772 19 3C19 3.55228 18.5523 4 18 4V5C19.6568 5 21 6.34315 21 8V17.3368C20.5453 17.1208 20.0368 17 19.5 17H19V8C19 7.44772 18.5523 7 18 7H16C15.4477 7 15 7.44772 15 8V17H13V8C13 7.70971 13.0412 7.42905 13.1181 7.16356C13.4803 5.91372 14.6334 5 16 5Z" fill="currentColor"/>
  <path d="M12.5 19C11.6715 19 11 19.6716 11 20.5C11 21.3284 11.6715 22 12.5 22H19.5C20.3284 22 21 21.3284 21 20.5C21 19.6716 20.3284 19 19.5 19H12.5Z" fill="currentColor"/>
</svg>
