<svg xmlns="http://www.w3.org/2000/svg" xmlns:xlink="http://www.w3.org/1999/xlink" preserveAspectRatio="xMidYMid" width="16px" height="16px" viewBox="0 0 16 16">
    <path fill="currentColor" fill-rule="evenodd" clip-rule="evenodd" d="M3.051,5.825h1.403v4.35H3.051V5.825z M5.065,10.175l2.478,2v-8.35
        l-2.478,2V10.175z M12.949,6.602L12.268,5.92l-1.398,1.399l-1.4-1.399L8.79,6.602L10.188,8L8.79,9.4l0.679,0.68l1.4-1.399
        l1.398,1.399l0.682-0.68L11.55,8L12.949,6.602z M8,1.185C4.242,1.185,1.185,4.242,1.185,8S4.242,14.814,8,14.814
        S14.814,11.758,14.814,8S11.758,1.185,8,1.185 M8,0c4.418,0,8,3.582,8,8c0,4.418-3.582,8-8,8c-4.418,0-8-3.582-8-8
        C0,3.582,3.582,0,8,0L8,0z"/>
</svg>