<svg width="24" height="24" viewBox="0 0 24 24" fill="none" xmlns="http://www.w3.org/2000/svg">
  <path fill-rule="evenodd" clip-rule="evenodd" d="M22.9091 1.09091H4.36364V20.7273H22.9091V1.09091ZM2.18182 0V21.8182L0 24H21.8182L24 21.8182V0H2.18182Z" fill="currentColor"/>
  <path d="M20.7272 9.81817C20.7272 11.0232 17.5525 12 13.6363 12C15.745 12 17.4545 11.5116 17.4545 10.9091C17.4545 10.3066 15.745 9.81817 13.6363 9.81817C11.5276 9.81817 9.81814 10.3066 9.81814 10.9091C9.81814 11.5116 11.5276 12 13.6363 12C9.72012 12 6.54541 11.0232 6.54541 9.81817C6.54541 8.61319 9.72012 7.63635 13.6363 7.63635C17.5525 7.63635 20.7272 8.61319 20.7272 9.81817Z" fill="currentColor"/>
  <path d="M13.6364 13.0907C15.6722 13.0907 17.5581 12.8382 18.9713 12.4034C19.3769 12.2786 19.7644 12.1325 20.1148 11.9616L19.6364 14.2074C19.5536 14.5735 19.1579 14.8944 18.5218 15.1528L18.8425 14.0845C18.9401 13.694 18.5347 13.3688 18.1747 13.5488C18.0629 13.6047 17.9779 13.7027 17.9384 13.8213L17.4004 15.4905C17.0394 15.5712 16.6421 15.6394 16.2141 15.6936L16.5053 14.6685C16.6037 14.2485 16.1759 13.8992 15.7841 14.0796C15.6438 14.1442 15.5396 14.268 15.5 14.4172L15.1044 15.7981C14.807 15.8173 14.4992 15.8306 14.1824 15.8377V14.727C14.1824 14.4258 13.9382 14.1815 13.637 14.1815C13.3357 14.1815 13.0915 14.4258 13.0915 14.727V15.8377C12.7602 15.8303 12.4384 15.8161 12.1278 15.7955L11.7734 14.4172C11.7338 14.268 11.6296 14.1442 11.4894 14.0796C11.0975 13.8992 10.6697 14.2485 10.7681 14.6685L10.9895 15.6853C10.5752 15.6312 10.1901 15.5641 9.83957 15.485L9.33506 13.8213C9.29554 13.7027 9.21054 13.6047 9.09877 13.5488C8.7387 13.3688 8.33327 13.694 8.43091 14.0845L8.69318 15.1336C8.08377 14.8786 7.7078 14.5645 7.63641 14.2074L7.15798 11.9616C7.50843 12.1325 7.89591 12.2786 8.30156 12.4034C9.71474 12.8382 11.6007 13.0907 13.6364 13.0907Z" fill="currentColor"/>
</svg>
