<svg width="24" height="24" viewBox="0 0 24 24" fill="none" xmlns="http://www.w3.org/2000/svg">
<path d="M6.01953 11C6.01953 10.4477 6.46725 9.99997 7.01953 9.99997H10.0195C10.5718 9.99997 11.0195 10.4477 11.0195 11V13H6.01953V11Z" fill="currentColor"/>
<path d="M14.0195 9.99997C13.4672 9.99997 13.0195 10.4477 13.0195 11V13H18.0195V11C18.0195 10.4477 17.5718 9.99997 17.0195 9.99997H14.0195Z" fill="currentColor"/>
<path fill-rule="evenodd" clip-rule="evenodd" d="M16.2519 6.33758L12.7071 2.79289C12.3166 2.40237 11.6834 2.40237 11.2929 2.7929L7.74827 6.33758L4.35112 5.06367C3.69737 4.81852 3 5.3018 3 6L3 14C2.44772 14 2 14.4477 2 15V21C2 21.5523 2.44772 22 3 22C3.55228 22 4 21.5523 4 21V20H20V21C20 21.5523 20.4477 22 21 22C21.5523 22 22 21.5523 22 21V15C22 14.4477 21.5523 14 21 14V6C21 5.30179 20.3026 4.81851 19.6489 5.06367L16.2519 6.33758ZM19 14V7.44301L16.9541 8.21023C16.2198 8.48562 15.3922 8.30637 14.8377 7.7518L12 4.91421L9.1625 7.75178C8.60792 8.30636 7.78039 8.48562 7.04603 8.21024L5 7.44299V14H19ZM20 17V18H4V17H20Z" fill="currentColor"/>
</svg>
