<svg width="24" height="24" viewBox="0 0 24 24" fill="none" xmlns="http://www.w3.org/2000/svg">
<path d="M8.14419 21.2513C8.24302 21.577 8.51758 21.8179 8.85345 21.8729C11.5907 22.3212 14.5742 21.5825 16.5 19.6568C19.0402 17.1166 20.0941 8.02576 20.3993 4.71606C20.4573 4.08734 19.9171 3.57981 19.2932 3.67655C15.9913 4.18855 6.88588 5.80039 4.34327 8.343C1.21908 11.4672 1.21907 16.5325 4.34326 19.6567C4.49866 19.8121 4.7577 19.7048 4.78233 19.4865C5.16038 16.1359 7.27743 13.1793 10.3732 11.7603C8.28607 13.9724 7.2684 17.1295 7.91432 20.3378C7.97697 20.649 8.05387 20.9537 8.14419 21.2513Z" fill="currentColor"/>
</svg>
