<svg width="24" height="24" viewBox="0 0 24 24" fill="none" xmlns="http://www.w3.org/2000/svg">
<path fill-rule="evenodd" clip-rule="evenodd" d="M9.00513 4.89776C9.05634 4.3935 9.4822 4 9.99996 4H12.8293C12.4174 2.83481 11.3062 2 9.99996 2C8.34311 2 6.99996 3.34315 6.99996 5V13.7512C6.40397 13.7784 5.81083 13.8944 5.24072 14.0997L4.6021 14.3296C4.08247 14.5166 3.81287 15.0895 3.99994 15.6092C4.18701 16.1288 4.75991 16.3984 5.27954 16.2113L5.91816 15.9814C6.82312 15.6557 7.81516 15.6669 8.71253 16.013L12.7744 17.5797C14.2906 18.1645 15.9791 18.1093 17.4539 17.4267L18.5125 16.9367C19.0137 16.7047 19.2319 16.1104 18.9999 15.6092C18.768 15.108 18.1736 14.8897 17.6724 15.1217L16.6138 15.6117C16.4143 15.704 16.209 15.7791 16 15.837V5C16 4.96548 16.0017 4.93137 16.0051 4.89776C16.0563 4.3935 16.4822 4 17 4H19.8293C19.4174 2.83481 18.3062 2 17 2C15.3431 2 14 3.34315 14 5V7H8.99996V5C8.99996 4.96548 9.00171 4.93137 9.00513 4.89776ZM9.43227 14.147C9.28965 14.092 9.14544 14.0426 8.99996 13.9989V13H14V15.8712C13.829 15.8302 13.66 15.7777 13.4941 15.7137L9.43227 14.147ZM14 9H8.99996V11H14V9Z" fill="currentColor"/>
<path d="M5.91816 18.9362C6.82312 18.6104 7.81516 18.6216 8.71253 18.9678L12.7744 20.5345C14.2906 21.1193 15.9791 21.0641 17.4539 20.3815L18.5125 19.8915C19.0137 19.6595 19.2319 19.0652 18.9999 18.564C18.768 18.0628 18.1736 17.8445 17.6724 18.0765L16.6138 18.5665C15.6306 19.0215 14.5049 19.0583 13.4941 18.6685L9.43227 17.1018C8.08622 16.5826 6.59815 16.5658 5.24072 17.0544L4.60211 17.2843C4.08247 17.4714 3.81287 18.0443 3.99994 18.564C4.18701 19.0836 4.75991 19.3532 5.27954 19.1661L5.91816 18.9362Z" fill="currentColor"/>
</svg>
