<svg width="24" height="24" viewBox="0 0 24 24" fill="none" xmlns="http://www.w3.org/2000/svg">
<path d="M6.01953 11C6.01953 10.4477 6.46725 10 7.01953 10H10.0195C10.5718 10 11.0195 10.4477 11.0195 11V13H6.01953V11Z" fill="currentColor"/>
<path d="M14.0195 10C13.4672 10 13.0195 10.4477 13.0195 11V13H18.0195V11C18.0195 10.4477 17.5718 10 17.0195 10H14.0195Z" fill="currentColor"/>
<path fill-rule="evenodd" clip-rule="evenodd" d="M3 8C3 6.89543 3.89543 6 5 6H19C20.1046 6 21 6.89543 21 8V14C21.5523 14 22 14.4477 22 15V17C22 17.5523 21.5523 18 21 18H3C2.44772 18 2 17.5523 2 17V15C2 14.4477 2.44772 14 3 14V8ZM19 14H5V8H19V14Z" fill="currentColor"/>
<path d="M21 21C21.5523 21 22 20.5523 22 20C22 19.4477 21.5523 19 21 19H3C2.44772 19 2 19.4477 2 20C2 20.5523 2.44772 21 3 21H21Z" fill="currentColor"/>
</svg>
