<svg width="24" height="24" viewBox="0 0 24 24" fill="none" xmlns="http://www.w3.org/2000/svg">
  <path fill-rule="evenodd" clip-rule="evenodd" d="M17 13V15C17 16.6569 15.6569 18 14 18H6C4.34315 18 3 16.6569 3 15V3.2C3 3.08954 3.08954 3 3.2 3H8V6C6.89543 6 6 6.89543 6 8V12.8C6 12.9105 6.08954 13 6.2 13H10.8C10.9105 13 11 12.9105 11 12.8V8C11 6.89543 10.1046 6 9 6V3H20C21.1046 3 22 3.89543 22 5V11C22 12.1046 21.1046 13 20 13H17ZM20 5H17V11H20V5Z" fill="currentColor"/>
  <path d="M3 20C3 19.4477 3.44772 19 4 19H21C21.5523 19 22 19.4477 22 20C22 20.5523 21.5523 21 21 21H4C3.44771 21 3 20.5523 3 20Z" fill="currentColor"/>
</svg>
