<svg width="24" height="24" viewBox="0 0 24 24" fill="none" xmlns="http://www.w3.org/2000/svg">
  <path d="M4 5C3.44772 5 3 5.44772 3 6V18C3 18.5523 3.44772 19 4 19H6C6.55228 19 7 18.5523 7 18V6C7 5.44772 6.55228 5 6 5H4Z" fill="currentColor"/>
  <path fill-rule="evenodd" clip-rule="evenodd" d="M9 6C8.44772 6 8 6.44772 8 7V18C8 18.5523 8.44771 19 9 19H20C20.5523 19 21 18.5523 21 18V7C21 6.44772 20.5523 6 20 6H9ZM10.2 11C10.0895 11 10 11.0895 10 11.2V15.8C10 15.9105 10.0895 16 10.2 16H12.8C12.9105 16 13 15.9105 13 15.8V11.2C13 11.0895 12.9105 11 12.8 11H10.2ZM14 11.5C14 11.2239 14.2239 11 14.5 11H15.5C15.7761 11 16 11.2239 16 11.5C16 11.7761 15.7761 12 15.5 12H14.5C14.2239 12 14 11.7761 14 11.5ZM14.5 13C14.2239 13 14 13.2239 14 13.5C14 13.7761 14.2239 14 14.5 14H15.5C15.7761 14 16 13.7761 16 13.5C16 13.2239 15.7761 13 15.5 13H14.5ZM14 15.5C14 15.2239 14.2239 15 14.5 15H15.5C15.7761 15 16 15.2239 16 15.5C16 15.7761 15.7761 16 15.5 16H14.5C14.2239 16 14 15.7761 14 15.5ZM17.5 11C17.2239 11 17 11.2239 17 11.5C17 11.7761 17.2239 12 17.5 12H18.5C18.7761 12 19 11.7761 19 11.5C19 11.2239 18.7761 11 18.5 11H17.5ZM17 13.5C17 13.2239 17.2239 13 17.5 13H18.5C18.7761 13 19 13.2239 19 13.5C19 13.7761 18.7761 14 18.5 14H17.5C17.2239 14 17 13.7761 17 13.5ZM17.5 15C17.2239 15 17 15.2239 17 15.5C17 15.7761 17.2239 16 17.5 16H18.5C18.7761 16 19 15.7761 19 15.5C19 15.2239 18.7761 15 18.5 15H17.5ZM10 8.2C10 8.08954 10.0895 8 10.2 8H18.8C18.9105 8 19 8.08954 19 8.2V9.8C19 9.91046 18.9105 10 18.8 10H10.2C10.0895 10 10 9.91046 10 9.8V8.2Z" fill="currentColor"/>
</svg>
