<svg width="24" height="24" viewBox="0 0 24 24" fill="none" xmlns="http://www.w3.org/2000/svg">
  <path d="M15.5059 7.72782L11.9704 4.19238L8.43496 7.72782L11.9704 11.2633L15.5059 7.72782Z" fill="currentColor"/>
  <path d="M15.5059 16.2132L11.9704 12.6777L8.43496 16.2132L11.9704 19.7486L15.5059 16.2132Z" fill="currentColor"/>
  <path d="M7.72782 8.43496L11.2633 11.9704L7.72782 15.506L4.19229 11.9705L7.72782 8.43496Z" fill="currentColor"/>
  <path d="M19.7485 11.9705L16.213 15.5059L12.6776 11.9705L16.213 8.43505L19.7485 11.9705Z" fill="currentColor"/>
  <path fill-rule="evenodd" clip-rule="evenodd" d="M2 3C2 2.44772 2.44772 2 3 2H21C21.5523 2 22 2.44772 22 3V21C22 21.5523 21.5523 22 21 22H3C2.44772 22 2 21.5523 2 21V3ZM4 4.70714V4H4.70714L7.72782 7.02068L10.7484 4H13.1924L16.213 7.02059L19.2336 4H20V4.64792L16.9202 7.72791L20 10.8077V13.1333L16.9202 16.2132L20 19.2931V20H19.2926L16.213 16.9204L13.1334 20H10.8075L7.72782 16.9203L4.64814 20H4V19.2339L7.02068 16.2132L4 13.1925V10.7485L7.02068 7.72782L4 4.70714Z" fill="currentColor"/>
</svg>
