<svg width="24" height="24" viewBox="0 0 24 24" fill="none" xmlns="http://www.w3.org/2000/svg">
<path d="M17 8.99296H18C18.5523 8.99296 19 8.54524 19 7.99296V5.7693C19.5523 5.7693 20 5.32159 20 4.7693V3.0119C20 2.45962 19.5523 2.0119 19 2.0119H17.8293C17.9398 2.32468 18 2.66127 18 3.0119V4.7693C18 5.6578 17.6137 6.45609 17 7.00541V8.99296Z" fill="currentColor"/>
<path fill-rule="evenodd" clip-rule="evenodd" d="M4 11C4 10.4477 4.44772 10 5 10H19C19.5523 10 20 10.4477 20 11V19C20 19.5523 19.5523 20 19 20H18V21C18 21.5523 17.5523 22 17 22C16.4477 22 16 21.5523 16 21V20H8V21C8 21.5523 7.55228 22 7 22C6.44772 22 6 21.5523 6 21V20H5C4.44772 20 4 19.5523 4 19V13H3C2.44772 13 2 12.5523 2 12C2 11.4477 2.44772 11 3 11H4ZM18 13C18 13.5523 17.5523 14 17 14C16.4477 14 16 13.5523 16 13C16 12.4477 16.4477 12 17 12C17.5523 12 18 12.4477 18 13Z" fill="currentColor"/>
<path d="M5 2.0119C4.44772 2.0119 4 2.45962 4 3.0119V4.7693C4 5.32159 4.44772 5.7693 5 5.7693L5 7.99296C5 8.54524 5.44772 8.99296 6 8.99296C6.55228 8.99296 7 8.54524 7 7.99296V5C7 4.44772 7.44772 4 8 4H12C12.5523 4 13 4.44772 13 5V7.99296C13 8.54524 13.4477 8.99296 14 8.99296C14.5523 8.99296 15 8.54524 15 7.99296V5.7693C15.5523 5.7693 16 5.32159 16 4.7693V3.0119C16 2.45962 15.5523 2.0119 15 2.0119H5Z" fill="currentColor"/>
</svg>
