<svg width="24" height="24" viewBox="0 0 24 24" fill="none" xmlns="http://www.w3.org/2000/svg">
<path d="M6 5V14H10V14.7799C9.11043 14.4467 8.06909 14.6378 7.35357 15.3533C7.15892 15.548 7.00308 15.7667 6.88604 16H5C4.44772 16 4 15.5523 4 15V4C4 3.44772 4.44772 3 5 3H20C20.5523 3 21 3.44772 21 4V15C21 15.5523 20.5523 16 20 16H19.4962C19.2655 15.6742 18.9363 15.4154 18.537 15.2728L14.973 14H19V5H6Z" fill="currentColor"/>
<path d="M11 16.8785V12C11 11.4477 11.4477 11 12 11C12.5523 11 13 11.4477 13 12V14.3571L18.2006 16.2145C18.6617 16.3792 18.9357 16.8534 18.8482 17.3351L18 22H12L8.08016 18.1751C7.48576 17.5951 7.47991 16.6412 8.06716 16.0539C8.64936 15.4717 9.59328 15.4717 10.1755 16.0539L11 16.8785Z" fill="currentColor"/>
<path d="M15.4649 13C15.8052 12.4117 16 11.7286 16 11C16 8.79086 14.2091 7 12 7C9.79086 7 8 8.79086 8 11C8 11.7286 8.19479 12.4117 8.53513 13H7.41604C7.14845 12.3875 7 11.7111 7 11C7 8.23858 9.23858 6 12 6C14.7614 6 17 8.23858 17 11C17 11.7111 16.8516 12.3875 16.584 13H15.4649Z" fill="currentColor"/>
<path d="M13.7324 12C13.9026 11.7058 14 11.3643 14 11C14 9.89543 13.1046 9 12 9C10.8954 9 10 9.89543 10 11C10 11.3643 10.0974 11.7058 10.2676 12H9.17071C9.06015 11.6872 9 11.3506 9 11C9 9.34315 10.3431 8 12 8C13.6569 8 15 9.34315 15 11C15 11.3506 14.9398 11.6872 14.8293 12H13.7324Z" fill="currentColor"/>
</svg>
