<svg width="24" height="24" viewBox="0 0 24 24" fill="none" xmlns="http://www.w3.org/2000/svg">
  <path d="M7 4C5.89543 4 5 4.89543 5 6V8H3C2.44772 8 2 8.44771 2 9C2 9.55229 2.44772 10 3 10H5V18H15V10H21C21.5523 10 22 9.55229 22 9C22 8.44771 21.5523 8 21 8H15V7C15 5.34315 16.3431 4 18 4H7Z" fill="currentColor"/>
  <path d="M5 19H15V20C15 20.5523 14.5523 21 14 21H6C5.44772 21 5 20.5523 5 20V19Z" fill="currentColor"/>
  <path d="M18 5C16.8954 5 16 5.89543 16 7H20C20 5.89543 19.1046 5 18 5Z" fill="currentColor"/>
  <path d="M16 11V17H19.4286C19.7442 17 20 16.7442 20 16.4286V11H16Z" fill="currentColor"/>
</svg>
