<svg width="24" height="24" viewBox="0 0 24 24" fill="none" xmlns="http://www.w3.org/2000/svg">
<path d="M13.1043 8.234C13.27 8.234 13.4043 8.36831 13.4043 8.534V8.564C13.4043 8.72969 13.27 8.864 13.1043 8.864H12.7382V9.434H12.9783C13.144 9.434 13.2783 9.57131 13.2783 9.737C13.2783 9.90269 13.144 10.04 12.9783 10.04H12.949C13.0361 10.1277 13.1282 10.2295 13.2098 10.3276C13.3194 10.4596 13.2731 10.6505 13.1236 10.7345L13.089 10.754H13.2123C13.3747 10.754 13.5063 10.8856 13.5063 11.048C13.5063 11.2104 13.3747 11.342 13.2123 11.342H11.5163C11.354 11.342 11.2223 11.2104 11.2223 11.048C11.2223 10.8856 11.354 10.754 11.5163 10.754H12.0722V10.04H11.7443C11.5787 10.04 11.4443 9.90269 11.4443 9.737C11.4443 9.57131 11.5787 9.434 11.7443 9.434H12.0722V8.864H11.5883C11.4227 8.864 11.2883 8.72969 11.2883 8.564V8.534C11.2883 8.36831 11.4227 8.234 11.5883 8.234H13.1043Z" fill="currentColor"/>
<path fill-rule="evenodd" clip-rule="evenodd" d="M14.9718 7.45001C14.9718 7.17387 14.748 6.95001 14.4718 6.95001H10.4563C10.1802 6.95001 9.9563 7.17387 9.9563 7.45002L9.95634 12.5344C9.95634 12.8105 10.1802 13.0344 10.4563 13.0344H10.9883C11.154 13.0344 11.2883 12.9001 11.2883 12.7344L13.5979 12.7344C13.5979 12.9001 13.7322 13.0344 13.8979 13.0344H14.4719C14.748 13.0344 14.9719 12.8105 14.9719 12.5344L14.9718 7.45001ZM13.8979 7.91L13.8979 11.7744H10.9884L10.9883 7.91H13.8979Z" fill="currentColor"/>
<path d="M18.024 7.04401C18.1959 7.04401 18.3327 7.18832 18.3235 7.36006C18.3194 7.43634 18.3158 7.52588 18.3116 7.62921L18.3116 7.63116C18.3028 7.84769 18.2919 8.11774 18.2699 8.41899C18.2648 9.45011 18.4462 10.9153 19.6695 11.7524C19.8172 11.8535 19.8441 12.0607 19.7256 12.1948C19.5425 12.402 19.3572 12.6071 19.1717 12.8122L19.171 12.8131C19.0697 12.9251 18.9009 12.9446 18.7768 12.8584C18.2119 12.4658 17.8278 11.9466 17.5667 11.3919C17.2737 11.9729 16.8556 12.4952 16.2541 12.8368C16.1375 12.9031 15.9917 12.8938 15.8895 12.8068C15.671 12.6207 15.4815 12.4254 15.2824 12.2175C15.1403 12.069 15.1819 11.8236 15.3658 11.7317C16.1608 11.3342 16.5561 10.6308 16.7491 9.85746C16.9439 9.07755 16.9237 8.26153 16.9084 7.68764L16.9082 7.67968C16.905 7.55672 16.902 7.44209 16.902 7.34401C16.902 7.17833 17.0363 7.04401 17.202 7.04401H18.024Z" fill="currentColor"/>
<path fill-rule="evenodd" clip-rule="evenodd" d="M4.927 7.94514C4.65086 7.94514 4.427 8.16899 4.427 8.44514V11.2206C4.427 11.4968 4.65086 11.7206 4.927 11.7206H5.253C5.52914 11.7206 5.753 11.4968 5.753 11.2206V11.05H6.02986L6.02984 12.434C6.02984 12.7102 6.25369 12.934 6.52984 12.934H6.89184C7.16798 12.934 7.39184 12.7102 7.39184 12.434L7.39186 11.05H7.66986V11.1906C7.66986 11.4668 7.89372 11.6906 8.16986 11.6906H8.52586C8.802 11.6906 9.02586 11.4668 9.02586 11.1906V8.44514C9.02586 8.169 8.802 7.94514 8.52586 7.94514H7.3919L7.39191 7.46564C7.39191 7.1895 7.16805 6.96564 6.89191 6.96564H6.52991C6.25377 6.96564 6.02991 7.18949 6.02991 7.46563L6.0299 7.94514H4.927ZM6.02988 9.74201H5.753V9.25314H6.02988L6.02988 9.74201ZM7.39188 9.25314H7.66986V9.74201H7.39188L7.39188 9.25314Z" fill="currentColor"/>
<path fill-rule="evenodd" clip-rule="evenodd" d="M4 4C2.89543 4 2 4.89543 2 6V16C2 17.1046 2.89543 18 4 18H4.58579L2.58579 20H5.41421L7.41421 18H16.5858L18.5858 20H21.4142L19.4142 18H20C21.1046 18 22 17.1046 22 16V6C22 4.89543 21.1046 4 20 4H4ZM4 6L20 6V14H4V6Z" fill="currentColor"/>
</svg>
