<svg width="24" height="24" viewBox="0 0 24 24" fill="none" xmlns="http://www.w3.org/2000/svg">
<path d="M2 6C2 4.89543 2.89543 4 4 4H20C21.1046 4 22 4.89543 22 6V8.70835C21.4281 8.06036 20.7528 7.50573 20 7.07026V6L4 6V14H8C8 15.4571 8.38958 16.8233 9.07026 18H7.41421L5.41421 20H2.58579L4.58579 18H4C2.89543 18 2 17.1046 2 16V6Z" fill="currentColor"/>
<path d="M21.2916 20C21.3133 19.9809 21.3349 19.9616 21.3564 19.9422L21.4142 20H21.2916Z" fill="currentColor"/>
<path fill-rule="evenodd" clip-rule="evenodd" d="M16 8C12.6863 8 10 10.6863 10 14C10 17.3137 12.6863 20 16 20C19.3137 20 22 17.3137 22 14C22 10.6863 19.3137 8 16 8ZM13.0764 13H12.126C12.3674 12.0623 12.9402 11.2576 13.7122 10.7184C13.3978 11.4436 13.1831 12.2111 13.0764 13ZM15.1002 13C15.2478 12.1659 15.5535 11.368 16 10.6495C16.4465 11.368 16.7522 12.1659 16.8998 13H15.1002ZM16 17.3505C16.4465 16.632 16.7522 15.8341 16.8998 15H15.1002C15.2478 15.8341 15.5535 16.632 16 17.3505ZM12.126 15H13.0764C13.1831 15.7889 13.3978 16.5564 13.7122 17.2816C12.9402 16.7424 12.3674 15.9377 12.126 15ZM18.9236 15C18.8169 15.7889 18.6022 16.5564 18.2878 17.2816C19.0598 16.7424 19.6326 15.9377 19.874 15H18.9236ZM18.9236 13H19.874C19.6326 12.0623 19.0598 11.2576 18.2878 10.7184C18.6022 11.4436 18.8169 12.2111 18.9236 13Z" fill="currentColor"/>
</svg>
