<svg width="24" height="24" viewBox="0 0 24 24" fill="none" xmlns="http://www.w3.org/2000/svg">
<path fill-rule="evenodd" clip-rule="evenodd" d="M11 6.5C10.4477 6.5 10 6.94772 10 7.5V12.5C10 13.0523 10.4477 13.5 11 13.5H12.5C13.6046 13.5 14.5 12.6046 14.5 11.5C14.5 10.5 14.5 10.1562 14.0156 9.96094C14.5 9.625 14.5004 9.39717 14.5 8.5C14.5 7.39543 13.6046 6.5 12.5 6.5H11ZM12 9V8.5H12.5V9H12ZM12 11H12.5V11.5L12 11.5V11Z" fill="currentColor"/>
<path fill-rule="evenodd" clip-rule="evenodd" d="M17 6.5C15.8954 6.5 15 7.39543 15 8.5V11.5C15 12.6046 15.8954 13.5 17 13.5H17.5C18.6046 13.5 19.5 12.6046 19.5 11.5V8.5C19.5 7.39543 18.6046 6.5 17.5 6.5H17ZM17 8.5H17.5V11.5H17V8.5Z" fill="currentColor"/>
<path d="M6 6.5C5.44772 6.5 5 6.94772 5 7.5V12.5C5 13.0523 5.44772 13.5 6 13.5C6.55228 13.5 7 13.0523 7 12.5V11H7.5V12.5C7.5 13.0523 7.94772 13.5 8.5 13.5C9.05228 13.5 9.5 13.0523 9.5 12.5V7.5C9.5 6.94772 9.05228 6.5 8.5 6.5C7.94772 6.5 7.5 6.94772 7.5 7.5V9H7V7.5C7 6.94772 6.55228 6.5 6 6.5Z" fill="currentColor"/>
<path fill-rule="evenodd" clip-rule="evenodd" d="M4 4C2.89543 4 2 4.89543 2 6V16C2 17.1046 2.89543 18 4 18H4.58579L2.58579 20H5.41421L7.41421 18H16.5858L18.5858 20H21.4142L19.4142 18H20C21.1046 18 22 17.1046 22 16V6C22 4.89543 21.1046 4 20 4H4ZM4 6L20 6V14H4V6Z" fill="currentColor"/>
</svg>
