<svg width="24" height="24" viewBox="0 0 24 24" fill="none" xmlns="http://www.w3.org/2000/svg">
<path d="M2 6C2 4.89543 2.89543 4 4 4H20C21.1046 4 22 4.89543 22 6V8.24535L21.2545 7.05249C21.1092 6.82 20.8007 6.75316 20.5722 6.90466C20.3961 7.0214 20.1651 7.01123 20 6.88008V6H18.7962C18.7054 5.9447 18.6137 5.8913 18.5211 5.83989C17.1191 5.06154 14.9916 4.50483 12.9957 5.65715C12.8114 5.76356 12.6391 5.87824 12.4783 6L4 6V14H10.9103L10.0442 14.8661C9.95038 14.9599 9.89771 15.0871 9.89771 15.2197V15.2552C9.89771 15.5314 9.67385 15.7552 9.39771 15.7552C9.12156 15.7552 8.89771 15.9791 8.89771 16.2552V18H7.41421L5.41421 20H2.58579L4.58579 18H4C2.89543 18 2 17.1046 2 16V6Z" fill="currentColor"/>
<path d="M18.401 13.303L19.7646 12.4497C20.0797 13.216 20.2209 13.9523 20.2106 14.5675C20.196 15.4357 19.8993 15.8776 19.6056 16.0472C19.3118 16.2168 18.7808 16.2528 18.0216 15.8313C17.2827 15.4211 16.4888 14.6488 15.8735 13.5831C15.2582 12.5173 14.9863 11.4437 15.0005 10.5987C15.0151 9.73048 15.3118 9.28857 15.6056 9.11898C15.8993 8.9494 16.4303 8.91341 17.1895 9.33488L17.196 9.33845L18.5861 8.46959C18.2839 8.22357 17.9711 8.01008 17.6527 7.8333C16.5668 7.23046 15.2391 6.97514 14.098 7.63399C12.9568 8.29283 12.5141 9.57025 12.4932 10.8121C12.4733 12.0003 12.8218 13.3315 13.4984 14.5874L12.2929 15.7929C12.1054 15.9804 12 16.2348 12 16.5V18H11.5C10.9477 18 10.5 18.4477 10.5 19C10.5 19.5523 10.9477 20 11.5 20H14.5C15.0523 20 15.5 19.5523 15.5 19C15.5 18.4477 15.0523 18 14.5 18H14V16.9142L14.6529 16.2613C15.2276 16.92 15.8729 17.4548 16.5433 17.827C17.6292 18.4298 18.9568 18.6851 20.098 18.0263C21.2391 17.3674 21.6818 16.09 21.7027 14.8482C21.7195 13.8496 21.476 12.75 20.9963 11.6791L21.5589 11.327C22.027 11.0342 22.1691 10.4175 21.8765 9.9493C21.5837 9.4808 20.9664 9.33852 20.4981 9.63157L17.3148 11.6234C16.8178 11.9343 16.5527 12.5462 16.8632 13.0436C17.1811 13.553 17.8919 13.6215 18.401 13.303Z" fill="currentColor"/>
</svg>
