<svg width="24" height="24" viewBox="0 0 24 24" fill="none" xmlns="http://www.w3.org/2000/svg">
<path d="M10.2693 2.13255C10.6634 2.00497 11.0863 2.221 11.2139 2.61507L11.5483 3.64806C11.9132 4.77517 11.3938 5.99909 10.3297 6.51974C9.93604 6.71233 9.74391 7.16506 9.8789 7.58199L10.2133 8.61498C10.3409 9.00906 10.1249 9.43195 9.73083 9.55953C9.33675 9.68712 8.91386 9.47109 8.78628 9.07702L8.45183 8.04402C8.08691 6.91692 8.6063 5.693 9.67047 5.17235C10.0641 4.97976 10.2562 4.52702 10.1213 4.1101L9.78681 3.07711C9.65922 2.68303 9.87525 2.26014 10.2693 2.13255Z" fill="currentColor"/>
<path d="M8.5 12.096C6.70507 12.096 5.25 13.5511 5.25 15.346V16.346C5.25 18.141 6.70507 19.596 8.5 19.596H19.2189C19.6331 19.596 19.9689 19.9318 19.9689 20.346C19.9689 20.7603 19.6331 21.096 19.2189 21.096H8.5C5.87665 21.096 3.75 18.9694 3.75 16.346V15.346C3.75 12.7227 5.87665 10.596 8.5 10.596H17.5C19.0188 10.596 20.25 11.8273 20.25 13.346V15.346C20.25 16.8648 19.0188 18.096 17.5 18.096L9 18.096C7.75736 18.096 6.75 17.0887 6.75 15.846C6.75 14.6034 7.75736 13.596 9 13.596H14.2443C14.6585 13.596 14.9943 13.9318 14.9943 14.346C14.9943 14.7603 14.6585 15.096 14.2443 15.096H9C8.58579 15.096 8.25 15.4318 8.25 15.846C8.25 16.2603 8.58579 16.596 9 16.596L17.5 16.596C18.1904 16.596 18.75 16.0364 18.75 15.346V13.346C18.75 12.6557 18.1904 12.096 17.5 12.096H8.5Z" fill="currentColor"/>
<path d="M15.1329 2.77724C15.0054 2.38317 14.5825 2.16714 14.1884 2.29473C13.7943 2.42231 13.5783 2.8452 13.7059 3.23928L14.0403 4.27227C14.1753 4.6892 13.9832 5.14193 13.5895 5.33452C12.5254 5.85517 12.006 7.07909 12.3709 8.2062L12.7053 9.23919C12.8329 9.63326 13.2558 9.84929 13.6499 9.7217C14.044 9.59412 14.26 9.17123 14.1324 8.77715L13.798 7.74416C13.663 7.32723 13.8551 6.8745 14.2487 6.68191C15.3129 6.16126 15.8323 4.93734 15.4674 3.81023L15.1329 2.77724Z" fill="currentColor"/>
</svg>
