<svg width="24" height="24" viewBox="0 0 24 24" fill="none" xmlns="http://www.w3.org/2000/svg">
  <path d="M12.1512 2.17454C12.0715 2.08245 11.9286 2.08245 11.8488 2.17454L9.68855 4.66903C9.57637 4.79856 9.66838 4.99996 9.83973 4.99996H14.1603C14.3317 4.99996 14.4237 4.79856 14.3115 4.66903L12.1512 2.17454Z" fill="currentColor"/>
  <path d="M11 5H13V13H16V10H15.2C15.0895 10 15 9.91046 15 9.8V6.2C15 6.08954 15.0895 6 15.2 6H18.8C18.9105 6 19 6.08954 19 6.2V9.8C19 9.91046 18.9105 10 18.8 10H18V13.8C18 14.4627 17.4627 15 16.8 15H13V18.2676C13.5978 18.6134 14 19.2597 14 20C14 21.1046 13.1046 22 12 22C10.8954 22 10 21.1046 10 20C10 19.2597 10.4022 18.6134 11 18.2676V15H7.2C6.53726 15 6 14.4627 6 13.8V10.7324C5.4022 10.3866 5 9.74028 5 9C5 7.89543 5.89543 7 7 7C8.10457 7 9 7.89543 9 9C9 9.74028 8.5978 10.3866 8 10.7324V13H11V5Z" fill="currentColor"/>
</svg>
