<svg width="24" height="24" viewBox="0 0 24 24" fill="none" xmlns="http://www.w3.org/2000/svg">
<path d="M17 5.5C17 5.77614 16.7761 6 16.5 6C16.2239 6 16 5.77614 16 5.5C16 5.22386 16.2239 5 16.5 5C16.7761 5 17 5.22386 17 5.5Z" fill="currentColor"/>
<path d="M16.5 8C16.2239 8 16 8.22386 16 8.5C16 8.77614 16.2239 9 16.5 9C16.7761 9 17 8.77614 17 8.5C17 8.22386 16.7761 8 16.5 8Z" fill="currentColor"/>
<path d="M16 11.5C16 11.2239 16.2239 11 16.5 11C16.7761 11 17 11.2239 17 11.5C17 11.7761 16.7761 12 16.5 12C16.2239 12 16 11.7761 16 11.5Z" fill="currentColor"/>
<path fill-rule="evenodd" clip-rule="evenodd" d="M5 2C4.44772 2 4 2.44772 4 3V21C4 21.5523 4.44772 22 5 22H19C19.5523 22 20 21.5523 20 21V3C20 2.44772 19.5523 2 19 2H5ZM6 9V12H7V11C7 10.4477 7.44772 10 8 10C8.55228 10 9 10.4477 9 11V12H10V11C10 10.4477 10.4477 10 11 10C11.5523 10 12 10.4477 12 11V12H13V9H6ZM6 16V13H13V16H12V15C12 14.4477 11.5523 14 11 14C10.4477 14 10 14.4477 10 15V16H9V15C9 14.4477 8.55228 14 8 14C7.44772 14 7 14.4477 7 15V16H6ZM6 17V19H13V17H6ZM6 8H7V7C7 6.44772 7.44772 6 8 6C8.55228 6 9 6.44772 9 7V8H10V7C10 6.44772 10.4477 6 11 6C11.5523 6 12 6.44772 12 7V8H13V4H6V8ZM15 4V19H18V4H15Z" fill="currentColor"/>
</svg>
