<svg width="24" height="24" viewBox="0 0 24 24" fill="none" xmlns="http://www.w3.org/2000/svg">
<path d="M11.3369 2.59135C11.7158 2.25459 12.2868 2.25463 12.6657 2.59145L20.6069 9.65138C20.7443 9.77356 20.6579 10.0009 20.474 10.0009H3.5261C3.34219 10.0009 3.25577 9.77353 3.39324 9.65136L11.3369 2.59135Z" fill="currentColor"/>
<path fill-rule="evenodd" clip-rule="evenodd" d="M3 21.0009C3 20.4486 3.44772 20.0009 4 20.0009H8V16.9986H6V19.9987H4V10.9987H6V15.0364H18V10.9987H20V19.9987H18V16.9986H16V20.0009H20C20.5523 20.0009 21 20.4486 21 21.0009C21 21.5531 20.5523 22.0009 20 22.0009H4C3.44772 22.0009 3 21.5531 3 21.0009ZM14 20.0009V16.9986H10V20.0009H14Z" fill="currentColor"/>
</svg>
