<svg width="24" height="24" viewBox="0 0 24 24" fill="none" xmlns="http://www.w3.org/2000/svg">
  <path fill-rule="evenodd" clip-rule="evenodd" d="M11.1226 11.4244L11.5978 13.3255C11.6108 13.3342 11.6236 13.343 11.6361 13.3519C12.7521 14.1439 13.9669 14.9272 15.1487 15.3716L14.716 13.6411C15.684 14.1027 16.2693 14.0548 17.779 13.8624L17.282 11.8743C15.9977 12.0119 15.1457 12.0164 14.2271 11.6855L13.7654 9.83845L13.7414 9.82989C13.0921 9.59601 12.3608 9.09134 11.6299 8.58694C11.1491 8.25514 10.6684 7.92344 10.2114 7.66902L10.1793 7.65137L10.6658 9.59731C9.77997 9.04536 8.64218 8.80849 7.47349 8.6489L7.44374 8.64487L7.92791 10.5815L7.9794 10.5817C9.14386 10.5817 10.338 10.9774 11.0345 11.3732C11.0621 11.3889 11.0915 11.406 11.1226 11.4244ZM11.1226 11.4244L10.6658 9.59731L10.6705 9.60024C10.8903 9.73762 11.1432 9.90615 11.4171 10.0887C12.2479 10.6423 13.2721 11.3248 14.153 11.6581C14.1778 11.6675 14.2025 11.6766 14.2271 11.6855L14.716 13.6411L14.7071 13.6368C13.9858 13.2914 12.966 12.6209 12.1429 12.0796C11.734 11.8107 11.3737 11.5738 11.1226 11.4244Z" fill="currentColor"/>
  <path fill-rule="evenodd" clip-rule="evenodd" d="M1.03015 3.03125H3.05636L3.2357 3.7581L3.37822 3.74133C4.56759 3.60141 5.70424 3.62312 6.55024 3.66571C8.09859 3.74365 9.17569 4.22435 10.1957 4.85125C10.6648 5.13955 11.1364 5.4977 11.558 5.81787C11.7212 5.94186 11.877 6.06016 12.0222 6.16649C12.5867 6.57989 13.087 6.8917 13.6149 7.06062C14.0392 7.19641 14.6665 7.17691 16.1582 6.98117C16.524 6.93317 16.9096 6.86488 17.3461 6.78756L17.4075 6.77669C17.8616 6.69629 18.361 6.60882 18.8962 6.53829L19.7809 6.4217L22.9697 18.5258L18.7097 18.6394H18.6962C17.5977 18.6394 16.7026 18.5533 15.2152 17.9975C14.5002 17.7304 13.8515 17.3718 13.2633 17.0262C13.0978 16.929 12.9394 16.8343 12.7854 16.7423C12.3705 16.4942 11.9875 16.2653 11.584 16.0576C10.6582 15.5811 9.60926 15.3594 8.76448 15.2878C7.99181 15.2222 7.21731 15.3157 6.32401 15.4236C6.25671 15.4317 6.18872 15.4399 6.12003 15.4481L7.23543 19.9688H5.20922L1.03015 3.03125ZM5.87548 14.457C5.98338 14.4442 6.09135 14.4311 6.19938 14.4179C7.08056 14.3109 7.966 14.2033 8.85003 14.2783C8.85073 14.2783 8.85144 14.2784 8.85214 14.2785L8.39929 12.4671C9.76085 12.5969 10.9864 12.9143 11.5978 13.3255L12.0566 15.1606L12.0477 15.1565C12.4821 15.3801 12.9049 15.6332 13.3291 15.8868C14.0502 16.3179 14.7752 16.7513 15.5677 17.0477L15.1487 15.3716L15.1661 15.3781C16.1018 15.7274 16.9573 15.7649 18.2251 15.6468L18.7189 17.6219L18.6645 17.626C18.1041 17.626 17.6081 17.5916 17.0938 17.4962C17.6518 17.6042 18.1389 17.6263 18.6962 17.6263L21.6642 17.5471L21.1032 15.4176L19.3468 15.5207C18.9367 15.572 18.566 15.615 18.2251 15.6468L17.779 13.8624L18.0068 13.8333C18.1772 13.8114 18.3589 13.7881 18.5533 13.7638L20.6195 13.5816L20.0962 11.595L18.302 11.7532C17.9317 11.7995 17.5941 11.8408 17.282 11.8743L16.793 9.91849C17.3165 9.85195 17.7205 9.82912 18.1278 9.8061C18.56 9.78168 18.996 9.75704 19.5826 9.67976L19.6433 9.87593L19.0286 7.54271C18.4918 7.61346 17.9892 7.7025 17.5141 7.78668C17.0925 7.86138 16.6925 7.93225 16.3092 7.98314L16.793 9.91849C15.2467 10.1151 14.6978 10.1701 13.7654 9.83845L13.3127 8.02761C13.3105 8.02692 13.3083 8.02622 13.3061 8.02552C12.4117 7.7393 11.6536 7.1634 10.9001 6.59093C10.5053 6.29101 10.1117 5.99203 9.70048 5.73615L10.1793 7.65137C9.36071 7.20741 7.91994 6.85725 7.01378 6.76672L6.9732 6.76272L6.45131 4.67516C5.8961 4.64814 5.23051 4.63215 4.51889 4.66515C4.186 4.68059 3.84304 4.70674 3.4966 4.7475L3.98305 6.76451C4.93189 6.63236 6.11158 6.6788 6.9732 6.76272L7.44374 8.64487C6.36379 8.49982 5.47203 8.51286 4.43621 8.62368L4.95236 10.7156C6.50041 10.5363 7.0366 10.5548 7.53547 10.5719C7.66325 10.5763 7.78863 10.5806 7.92791 10.5815L8.39929 12.4671C7.5054 12.3818 6.5529 12.3775 5.67714 12.4805L5.39598 12.5136L5.87548 14.457Z" fill="currentColor"/>
</svg>
