<svg width="24" height="24" viewBox="0 0 24 24" fill="none" xmlns="http://www.w3.org/2000/svg">
<g clip-path="url(#clip0_4535_595)">
<path fill-rule="evenodd" clip-rule="evenodd" d="M8 3C10.966 3 13.4681 4.98664 14.2481 7.70187C15.1224 6.95262 16.2583 6.5 17.5 6.5H18C18.2762 6.5 18.5 6.72386 18.5 7C18.5 9.72931 17.7594 12.6122 14.5 12.9725V15.4683C13.8447 15.0515 13.1832 14.7079 12.5 14.4581L12.5 9.5C12.5 7.35563 11.0001 5.56159 8.9922 5.10975C8.45339 4.9885 8 4.55228 8 4V3ZM16.4941 8.67279C16.4181 9.78631 15.613 10.6996 14.5524 10.9388C14.7519 9.88458 15.503 9.02546 16.4941 8.67279Z" fill="currentColor"/>
<path d="M8.00006 6H8.48382C8.57987 6.0352 8.67661 6.06372 8.77272 6.08535C9.41716 6.23037 9.9942 6.55342 10.4497 7H9.00006C8.44778 7 8.00006 6.55228 8.00006 6Z" fill="currentColor"/>
<path d="M9.00006 7.5H10.8727C11.0833 7.80206 11.2476 8.13885 11.3551 8.5H10.0001C9.44778 8.5 9.00006 8.05229 9.00006 7.5Z" fill="currentColor"/>
<path d="M10.0001 9H11.4646C11.488 9.16332 11.5001 9.33026 11.5001 9.5L11.5001 10H11.0001C10.4478 10 10.0001 9.55229 10.0001 9Z" fill="currentColor"/>
<path d="M9.96125 17C9.01081 17.0023 7.92722 17.3265 6.46191 18.0897C5.97208 18.3448 5.36818 18.1546 5.11305 17.6647C4.85793 17.1749 5.04819 16.571 5.53802 16.3159C7.12965 15.4869 8.54605 15.0035 9.95638 15C11.3889 14.9965 12.6879 15.4876 14.0426 16.3629C15.2088 17.1163 16.1505 17.4635 17.0811 17.4809C18.0144 17.4983 19.0779 17.1864 20.487 16.3444C20.9611 16.0611 21.5751 16.2158 21.8584 16.6899C22.1417 17.164 21.987 17.778 21.5129 18.0612C19.9221 19.0118 18.4855 19.5075 17.0438 19.4805C15.5994 19.4536 14.2911 18.9045 12.9573 18.0427C11.812 17.3028 10.8895 16.9977 9.96125 17Z" fill="currentColor"/>
<path d="M5 13.1754C5.63162 13.4804 6.26991 13.701 6.93208 13.814C8.05033 14.0049 9.16476 13.877 10.3482 13.4374C10.8659 13.2451 11.1297 12.6695 10.9374 12.1518C10.745 11.6341 10.1694 11.3703 9.65173 11.5626C8.75131 11.8971 7.99388 11.9663 7.26859 11.8425C6.57428 11.724 5.84667 11.4179 5 10.8901V13.1754Z" fill="currentColor"/>
<path d="M19.9448 13.0778C20.6474 13.1911 21.3242 13.4251 22 13.763V16.0702L21.9573 16.0428C21.0779 15.4746 20.3346 15.1665 19.6265 15.0524C18.9264 14.9395 18.1905 15.005 17.3074 15.2903C16.7819 15.46 16.2182 15.1716 16.0484 14.6461C15.8787 14.1206 16.1671 13.5569 16.6926 13.3871C17.8145 13.0247 18.8737 12.9052 19.9448 13.0778Z" fill="currentColor"/>
<path fill-rule="evenodd" clip-rule="evenodd" d="M2 21.8182V0H24V21.8182L21.8182 24H0L2 21.8182ZM4 1.09091H22.9091V20.7273H4V1.09091Z" fill="currentColor"/>
</g>
<defs>
<clipPath id="clip0_4535_595">
<rect width="24" height="24" fill="white"/>
</clipPath>
</defs>
</svg>
