<svg xmlns="http://www.w3.org/2000/svg" xmlns:xlink="http://www.w3.org/1999/xlink" preserveAspectRatio="xMidYMid" width="16px" height="16px" viewBox="0 0 16 16">
    <path fill="currentColor" d="M0,16h7.424l0.51-0.51L8.444,16H16v-2.238l-0.236-0.236L16,13.289V9.151l-0.236-0.236L16,8.679V4.542
        l-0.236-0.236L16,4.07V0H0V16z M6.509,15.5H4.152l1.541-1.54l1.178,1.179L6.509,15.5z M9.358,15.5l-2.604-2.603l1.179-1.179
        l3.781,3.781H9.358z M15.5,15.5h-1.532L6.755,8.287l1.179-1.179l7.566,7.566V15.5z M15.152,0.5L15.5,0.848v2.309l-0.024,0.024
        L12.796,0.5H15.152z M10.543,0.5L15.5,5.456v2.31L15.476,7.79L8.187,0.5H10.543z M15.5,10.065v2.31l-0.024,0.024L6.755,3.678
        l1.179-1.179L15.5,10.065z M0.5,0.714L0.714,0.5h2.357L0.5,3.071V0.714z M0.5,5.323L5.323,0.5h0.737l0.811,0.81L0.5,7.681V5.323z
        M0.5,9.933L5.692,4.74l1.179,1.179L0.5,12.29V9.933z M0.5,14.542L5.692,9.35l1.179,1.179L1.899,15.5H0.5V14.542z"/>
</svg>