<svg width="24" height="24" viewBox="0 0 24 24" fill="none" xmlns="http://www.w3.org/2000/svg">
  <path fill-rule="evenodd" clip-rule="evenodd" d="M7 3C6.44772 3 6 3.44772 6 4V17C6 17.5523 6.44771 18 7 18H17C17.5523 18 18 17.5523 18 17V4C18 3.44772 17.5523 3 17 3H7ZM12 11C13.1046 11 14 10.1046 14 9C14 7.89543 12 5 12 5C12 5 10 7.89543 10 9C10 10.1046 10.8954 11 12 11ZM8 15C8 14.4477 8.44772 14 9 14C9.55228 14 10 14.4477 10 15C10 15.5523 9.55228 16 9 16C8.44772 16 8 15.5523 8 15ZM15 14C14.4477 14 14 14.4477 14 15C14 15.5523 14.4477 16 15 16C15.5523 16 16 15.5523 16 15C16 14.4477 15.5523 14 15 14Z" fill="currentColor"/>
  <path d="M7 19H10V19.8C10 19.9105 9.91046 20 9.8 20H9V20.8C9 20.9105 8.91046 21 8.8 21H8.2C8.08954 21 8 20.9105 8 20.8V20H7.2C7.08954 20 7 19.9105 7 19.8V19Z" fill="currentColor"/>
  <path d="M17 19H14V19.8C14 19.9105 14.0895 20 14.2 20H15V20.8C15 20.9105 15.0895 21 15.2 21H15.8C15.9105 21 16 20.9105 16 20.8V20H16.8C16.9105 20 17 19.9105 17 19.8V19Z" fill="currentColor"/>
</svg>
