<svg width="24" height="24" viewBox="0 0 24 24" fill="none" xmlns="http://www.w3.org/2000/svg">
<path d="M10 14.5C10 13.9477 9.55228 13.5 9 13.5C8.44772 13.5 8 13.9477 8 14.5C8 15.9554 8.44353 17.132 9.33104 17.9308C10.1996 18.7125 11.3476 19 12.5 19C13.0523 19 13.5 18.5523 13.5 18C13.5 17.4477 13.0523 17 12.5 17C11.6524 17 11.0504 16.7875 10.669 16.4442C10.3065 16.118 10 15.5446 10 14.5Z" fill="currentColor"/>
<path fill-rule="evenodd" clip-rule="evenodd" d="M5 15C5 11.4621 8.70029 6.19677 10.7202 3.58604C11.4785 2.60596 12 2 12 2C12 2 12.5215 2.60596 13.2798 3.58604C15.2997 6.19677 19 11.4621 19 15C19 18.866 15.866 22 12 22C8.13401 22 5 18.866 5 15ZM17 15C17 17.7614 14.7614 20 12 20C9.23858 20 7 17.7614 7 15C7 14.2062 7.30195 13.094 7.91515 11.742C8.51174 10.4267 9.32526 9.05096 10.1673 7.77977C10.8074 6.81354 11.4497 5.92903 12 5.20406C12.5503 5.92903 13.1926 6.81354 13.8327 7.77977C14.6747 9.05096 15.4883 10.4267 16.0849 11.742C16.6981 13.094 17 14.2062 17 15Z" fill="currentColor"/>
</svg>
