<svg xmlns="http://www.w3.org/2000/svg" xmlns:xlink="http://www.w3.org/1999/xlink" preserveAspectRatio="xMidYMid" width="16px" height="16px" viewBox="0 0 16 16">
  <path d="M6.012,9.375v5.664c0,0.541-0.371,0.98-0.834,0.98c0,0-0.234-0.183-0.576-0.298
	c-0.125,0.18-0.313,0.298-0.527,0.298c-0.217,0-0.406-0.119-0.531-0.302C3.174,15.833,2.9,16.02,2.9,16.02
	c-0.463,0-0.9-0.439-0.9-0.98V9.375c0-1.277,0.651-2.124,1.146-2.406v-0.95h1.719v0.887C5.342,7.1,6.012,7.981,6.012,9.375z
	 M5.152,4.021H2.859v1.021h2.293V4.021z M14,5.81v9.066c0,0.631-0.564,1.144-1.286,1.144c0,0-0.335-0.198-0.831-0.334
	c-0.213,0.203-0.525,0.334-0.879,0.334c-0.354,0-0.669-0.131-0.879-0.334c-0.498,0.136-0.834,0.334-0.834,0.334
	c-0.721,0-1.279-0.513-1.279-1.144V5.81c0-1.729,1.43-2.87,2.206-3.014V2.017h1.575v0.78C12.571,2.944,14,4.084,14,5.81z M12.203,0
	H9.809v1.041h2.395V0z" fill="currentColor" />
</svg>
