<svg width="24" height="24" viewBox="0 0 24 24" fill="none" xmlns="http://www.w3.org/2000/svg">
<path d="M6.45853 10.2861L9.73003 7.0135L9.71653 7H8.79966L6.45853 9.34225V10.2861Z" fill="currentColor"/>
<path d="M6.44606 12.6757V13.6184L9.71644 10.3469V9.40417L6.44606 12.6757Z" fill="currentColor"/>
<path d="M17.6048 6.36262L14.3333 9.63525V8.69137L16.6744 6.34912H17.5913L17.6048 6.36262Z" fill="currentColor"/>
<path d="M14.3333 12.9675V12.0247L17.6036 8.75325V9.696L14.3333 12.9675Z" fill="currentColor"/>
<path fill-rule="evenodd" clip-rule="evenodd" d="M3 4C3 3.44772 3.44772 3 4 3H20C20.5523 3 21 3.44772 21 4V20C21 20.5523 20.5523 21 20 21H4C3.44772 21 3 20.5523 3 20V4ZM5 19V5H11V19H5ZM13 19H19V5H13V19Z" fill="currentColor"/>
</svg>
