<svg width="24" height="24" viewBox="0 0 24 24" fill="none" xmlns="http://www.w3.org/2000/svg">
  <path fill-rule="evenodd" clip-rule="evenodd" d="M22.9091 1.09091H4.36364V20.7273H22.9091V1.09091ZM2.18182 0V21.8182L0 24H21.8182L24 21.8182V0H2.18182Z" fill="currentColor"/>
  <path d="M17.4546 3.27274H20.7273V4.36364H18.5455C13.1232 4.36364 8.72729 8.75951 8.72729 14.1818V18.5455H6.54547V14.1818C6.54547 8.15679 11.4295 3.27274 17.4546 3.27274Z" fill="currentColor"/>
  <path d="M20.7273 12L14.1167 7.9602C14.9302 7.38006 15.8623 6.95549 16.8696 6.72993L20.7273 10.9091V12Z" fill="currentColor"/>
  <path d="M10.9841 13.1076L20.7273 15.2727V14.1818L12.207 9.92167C11.5769 10.8573 11.1485 11.9401 10.9841 13.1076Z" fill="currentColor"/>
  <path d="M10.9091 18.5455H20.7273V17.4545L10.9091 15.2727V18.5455Z" fill="currentColor"/>
</svg>