<svg width="24" height="24" viewBox="0 0 24 24" fill="none" xmlns="http://www.w3.org/2000/svg">
  <path d="M4.48576 13.9972L3.17801 6.15076C3.08721 5.60599 3.45523 5.09076 4 4.99997C4.54477 4.90917 5.06 5.27719 5.1508 5.82196L6.34713 13H10C10.5523 13 11 13.4477 11 14C11 14.5523 10.5523 15 10 15H8V16.7169L9.8285 17.814C10.0653 17.956 10.1421 18.2632 10 18.5C9.85793 18.7368 9.5508 18.8135 9.31401 18.6715L8 17.8831V18.5C8 18.7761 7.77615 19 7.5 19C7.22386 19 7 18.7761 7 18.5V17.8831L5.686 18.6715C5.44921 18.8135 5.14208 18.7368 5 18.5C4.85793 18.2632 4.93471 17.956 5.1715 17.814L7 16.7169V15H5.66943C5.08282 15 4.58219 14.5759 4.48576 13.9972Z" fill="currentColor"/>
  <path d="M15.9377 5.2485C15.9693 5.12228 15.8738 5 15.7437 5H11.156C11.0642 5 10.9842 5.06246 10.962 5.15149L10.2877 7.8485C10.2655 7.93754 10.1855 8 10.0937 8H9.1999C9.08942 8 8.99987 8.08957 8.9999 8.20005L9.00005 8.80005C9.00007 8.91049 9.08961 9 9.20005 9H14.8437C14.9355 9 15.0155 8.93754 15.0377 8.8485L15.9377 5.2485Z" fill="currentColor"/>
  <path d="M7.0557 10C6.93211 10 6.8381 10.111 6.85842 10.2329L7.12509 11.8329C7.14116 11.9293 7.2246 12 7.32237 12H13V18.8C13 18.9105 13.0895 19 13.2 19H14.8C14.9105 19 15 18.9105 15 18.8V12H19.8001C19.9106 12 20.0001 11.9105 20.0001 11.8V10.2C20.0001 10.0895 19.9106 10 19.8001 10H7.0557Z" fill="currentColor"/>
</svg>
