<svg width="24" height="24" viewBox="0 0 24 24" fill="none" xmlns="http://www.w3.org/2000/svg">
  <path d="M5 5V19H18V11H20V20C20 20.5523 19.5523 21 19 21H4C3.44772 21 3 20.5523 3 20V4C3 3.44772 3.44772 3 4 3H11V5H5Z" fill="currentColor"/>
  <path d="M17.8693 3.14146C17.7911 3.06336 17.6645 3.06336 17.5864 3.14146L16.3136 4.41426L19.142 7.24268L20.4148 5.96989C20.4929 5.89179 20.4929 5.76515 20.4148 5.68705L17.8693 3.14146Z" fill="currentColor"/>
  <path d="M18.4349 7.94981L15.6065 5.12138L7.82832 12.8996L10.6567 15.728L18.4349 7.94981Z" fill="currentColor"/>
  <path d="M7.12138 13.6065L9.94981 16.4349L6.70845 17.0832C6.56851 17.1112 6.44512 16.9878 6.47311 16.8478L7.12138 13.6065Z" fill="currentColor"/>
</svg>
