<svg width="24" height="24" viewBox="0 0 24 24" fill="none" xmlns="http://www.w3.org/2000/svg">
<g clip-path="url(#clip0_6167_1110)">
<path d="M16.25 15.5C16.25 15.5 17.3162 16.2812 18.6562 16.2812C19.1647 16.2812 19.6248 16.1688 20 16.0293V18.1299C19.6118 18.2221 19.1665 18.2812 18.6562 18.2812C17.1845 18.2812 16.2071 17.7934 15.625 17.4375C15.0459 17.7976 14.1169 18.2812 12.6562 18.2812C11.1845 18.2812 10.2071 17.7934 9.625 17.4375C9.09271 17.7685 8.26468 18.2032 7 18.2715V16.2637C8.16426 16.1497 9 15.5 9 15.5L9.625 15L10.25 15.5C10.25 15.5 11.3162 16.2812 12.6562 16.2812C13.9962 16.2812 15 15.5 15 15.5L15.625 15L16.25 15.5Z" fill="currentColor"/>
<path d="M19 12V14.7686C18.8883 14.7752 18.7736 14.7812 18.6562 14.7812C17.3162 14.7812 16.25 14.3047 16.25 14.3047L15.625 14L15 14.3047C15 14.3047 13.9962 14.7812 12.6562 14.7812C11.3162 14.7812 10.25 14.3047 10.25 14.3047L9.625 14L9 14.3047C9 14.3047 8.91407 14.344 8.75977 14.4014L7 10L19 12Z" fill="currentColor"/>
<path d="M15 10.5L10 9.5L15 3V10.5Z" fill="currentColor"/>
<path d="M18 10.5H16V5L18 10.5Z" fill="currentColor"/>
<path d="M19 3.5L16 4.5V3L19 3.5Z" fill="currentColor"/>
<path fill-rule="evenodd" clip-rule="evenodd" d="M24 21.8184L21.8184 24H0L2.18164 21.8184V0H24V21.8184ZM4.36328 20.7275H22.9092V1.09082H4.36328V20.7275Z" fill="currentColor"/>
</g>
<defs>
<clipPath id="clip0_6167_1110">
<rect width="24" height="24" fill="white" transform="translate(0 0.000976562)"/>
</clipPath>
</defs>
</svg>
