<svg width="24" height="24" viewBox="0 0 24 24" fill="currentBackgroundColor" xmlns="http://www.w3.org/2000/svg">
  <path d="M12 3C9.88259 3 8.06751 3.8467 6.20711 5.70711L5.91421 6H1V4H5.0933C7.14784 2.04824 9.35957 1 12 1C14.5862 1 16.8201 2.00954 18.4834 4H23V6H17.5L17.2 5.6C15.8914 3.85515 14.1329 3 12 3Z" fill="currentColor"/>
  <path fill-rule="evenodd" clip-rule="evenodd" d="M7 7H3V23H9V19C9 18.2043 9.31607 17.4413 9.87868 16.8787C10.4413 16.3161 11.2043 16 12 16C12.7957 16 13.5587 16.3161 14.1213 16.8787C14.6839 17.4413 15 18.2043 15 19V23H21V7L17 7.00001C14 3.5 10 3.5 7 7ZM11 6H10V10H11V8.5H13V10H14V6H13V7.5H11V6ZM7 14V13C7 12.4477 6.55228 12 6 12C5.44772 12 5 12.4477 5 13V14H7ZM13 14V13C13 12.4477 12.5523 12 12 12C11.4477 12 11 12.4477 11 13V14H13ZM19 14V13C19 12.4477 18.5523 12 18 12C17.4477 12 17 12.4477 17 13V14H19ZM7 19V18C7 17.4477 6.55228 17 6 17C5.44772 17 5 17.4477 5 18V19H7ZM19 19V18C19 17.4477 18.5523 17 18 17C17.4477 17 17 17.4477 17 18V19H19Z" fill="currentColor"/>
  <path d="M13 23V19C13 18.7348 12.8946 18.4804 12.7071 18.2929C12.5196 18.1054 12.2652 18 12 18C11.7348 18 11.4804 18.1054 11.2929 18.2929C11.1054 18.4804 11 18.7348 11 19V23H13Z" fill="currentColor"/>
</svg>
