<svg width="24" height="24" viewBox="0 0 24 24" fill="currentBackgroundColor" xmlns="http://www.w3.org/2000/svg">
  <path d="M22 21V19H2V21H22Z" fill="currentColor"/>
  <path d="M5 11H3V18H5V11Z" fill="currentColor"/>
  <path d="M9 11H7V18H9V11Z" fill="currentColor"/>
  <path d="M13 18V11H11V18H13Z" fill="currentColor"/>
  <path d="M17 11H15V18H17V11Z" fill="currentColor"/>
  <path fill-rule="evenodd" clip-rule="evenodd" d="M12 3L2 8V10H22V8L12 3ZM12.7071 7.70711C12.5196 7.89464 12.2652 8 12 8C11.7348 8 11.4804 7.89464 11.2929 7.70711C11.1054 7.51957 11 7.26522 11 7C11 6.73478 11.1054 6.48043 11.2929 6.29289C11.4804 6.10536 11.7348 6 12 6C12.2652 6 12.5196 6.10536 12.7071 6.29289C12.8946 6.48043 13 6.73478 13 7C13 7.26522 12.8946 7.51957 12.7071 7.70711Z" fill="currentColor"/>
  <path d="M19 11H21V18H19V11Z" fill="currentColor"/>
</svg>
