<svg width="24" height="24" viewBox="0 0 24 24" fill="currentBackgroundColor" xmlns="http://www.w3.org/2000/svg">
  <path fill-rule="evenodd" clip-rule="evenodd" d="M1.81824 5.71596C1.29433 6.17438 1 6.79614 1 7.44444V14H23V7.44444C23 6.79614 22.7057 6.17438 22.1818 5.71596C21.6578 5.25754 20.9473 5 20.2063 5H3.79365C3.05273 5 2.34215 5.25754 1.81824 5.71596ZM17 9.5C17 9.22386 17.2239 9 17.5 9H19.5C19.7761 9 20 9.22386 20 9.5V10.5C20 10.7761 19.7761 11 19.5 11H17.5C17.2239 11 17 10.7761 17 10.5V9.5Z" fill="currentColor"/>
  <path d="M1 16.5556V16H23V16.5556C23 17.2039 22.7057 17.8256 22.1818 18.284C21.6578 18.7425 20.9473 19 20.2063 19H3.79365C3.05273 19 2.34215 18.7425 1.81824 18.284C1.29433 17.8256 1 17.2039 1 16.5556Z" fill="currentColor"/>
</svg>