<svg width="24" height="24" viewBox="0 0 24 24" fill="currentBackgroundColor" xmlns="http://www.w3.org/2000/svg">
  <path d="M2.59538 6.5207C2.21417 6.8541 2.00001 7.30628 2.00001 7.77778L2.00002 13H11.0709C11.5468 9.6731 14.362 7.10084 17.7967 7.00289C17.6987 6.82578 17.5668 6.6625 17.4046 6.52071C17.0234 6.18731 16.5064 6.00001 15.9673 6.00001L4.03275 6C3.49363 6 2.9766 6.1873 2.59538 6.5207Z" fill="currentColor"/>
  <path d="M2.00002 15H11.0709C11.2288 16.1041 11.6444 17.125 12.2547 18H4.03278C3.49366 18 2.97663 17.8127 2.59541 17.4793C2.2142 17.1459 2 16.6937 2 16.2222L2.00002 15Z" fill="currentColor"/>
  <path fill-rule="evenodd" clip-rule="evenodd" d="M17.9183 9C15.1933 9 13 11.2472 13 14C13 16.7528 15.1933 19 17.9183 19H18.0817C20.8067 19 23 16.7528 23 14C23 11.2472 20.8067 9 18.0817 9H17.9183ZM18 9.99335C17.9734 9.99773 17.9461 10 17.9183 10L17.9083 10C17.8939 10.0233 17.8786 10.0485 17.8625 10.0756C17.7482 10.2677 17.5932 10.554 17.4375 10.9214C17.3179 11.2036 17.1983 11.5326 17.0964 11.9025H18.9036C18.8017 11.5326 18.6821 11.2036 18.5625 10.9214C18.4068 10.554 18.2518 10.2677 18.1375 10.0756C18.1214 10.0485 18.1061 10.0233 18.0917 10L18.0817 10C18.0539 10 18.0266 9.99773 18 9.99335ZM19.4832 10.5312C19.4351 10.4177 19.387 10.3109 19.3397 10.2109C20.2093 10.5118 20.9437 11.1162 21.4191 11.9025H19.9365C19.8087 11.3759 19.6459 10.9151 19.4832 10.5312ZM20.1193 12.9025H21.8509C21.948 13.2509 22 13.619 22 14C22 14.3646 21.9524 14.7174 21.8632 15.0525H20.1193C20.1613 14.7125 20.1856 14.3535 20.1856 13.9775C20.1856 13.6016 20.1613 13.2426 20.1193 12.9025ZM19.9365 16.0525H21.4459C20.967 16.8685 20.2115 17.4944 19.314 17.7979C19.3695 17.6827 19.4264 17.5579 19.4832 17.4239C19.6459 17.0399 19.8087 16.5791 19.9365 16.0525ZM18 18.0066C18.0207 18.0032 18.0419 18.0011 18.0634 18.0003C18.0854 17.9656 18.1103 17.9252 18.1375 17.8794C18.2518 17.6873 18.4068 17.401 18.5625 17.0337C18.6821 16.7514 18.8017 16.4224 18.9036 16.0525H17.0964C17.1983 16.4224 17.3179 16.7514 17.4375 17.0337C17.5932 17.401 17.7482 17.6873 17.8625 17.8794C17.8897 17.9252 17.9146 17.9656 17.9366 18.0003C17.9581 18.0011 17.9793 18.0032 18 18.0066ZM14.5541 16.0525C15.033 16.8685 15.7886 17.4944 16.686 17.7979C16.6305 17.6827 16.5736 17.5579 16.5168 17.4239C16.3541 17.0399 16.1913 16.5791 16.0635 16.0525H14.5541ZM15.8807 15.0525H14.1368C14.0476 14.7174 14 14.3646 14 14C14 13.619 14.052 13.2509 14.1491 12.9025H15.8807C15.8387 13.2426 15.8144 13.6016 15.8144 13.9775C15.8144 14.3535 15.8387 14.7125 15.8807 15.0525ZM16.0635 11.9025H14.5809C15.0563 11.1162 15.7907 10.5118 16.6603 10.2109C16.613 10.3109 16.5649 10.4177 16.5168 10.5312C16.3541 10.9151 16.1913 11.3759 16.0635 11.9025ZM16.8144 13.9775C16.8144 13.5991 16.8422 13.2399 16.8894 12.9025H19.1106C19.1578 13.2399 19.1856 13.5991 19.1856 13.9775C19.1856 14.3559 19.1578 14.7152 19.1106 15.0525H16.8894C16.8422 14.7152 16.8144 14.3559 16.8144 13.9775Z" fill="currentColor"/>
</svg>
