<svg width="24" height="24" viewBox="0 0 24 24" fill="currentBackgroundColor" xmlns="http://www.w3.org/2000/svg">
  <path fill-rule="evenodd" clip-rule="evenodd" d="M15 5.5C15.5523 5.5 16 5.05228 16 4.5V4H20.0064C21.111 4 22 4.89543 22 5.99999L22 10.0313C22 10.2053 21.9309 10.3722 21.8078 10.4953C21.6847 10.6184 21.5178 10.6875 21.3438 10.6875C20.9957 10.6875 20.6618 10.8258 20.4157 11.0719C20.1695 11.3181 20.0313 11.6519 20.0313 12C20.0313 12.3481 20.1695 12.6819 20.4157 12.9281C20.6618 13.1742 20.9957 13.3125 21.3438 13.3125C21.5178 13.3125 21.6847 13.3816 21.8078 13.5047C21.9309 13.6278 22 13.7947 22 13.9688V18C22 19.1046 21.1046 20 20 20H16V19.5C16 18.9477 15.5523 18.5 15 18.5C14.4477 18.5 14 18.9477 14 19.5V20H4C2.89543 20 2 19.1046 2 18L2.00001 13.9688C2.00001 13.7947 2.06915 13.6278 2.19222 13.5047C2.31529 13.3816 2.48221 13.3125 2.65626 13.3125C3.00435 13.3125 3.33819 13.1742 3.58433 12.9281C3.83047 12.6819 3.96876 12.3481 3.96876 12C3.96876 11.6519 3.83047 11.3181 3.58433 11.0719C3.33819 10.8258 3.00435 10.6875 2.65626 10.6875C2.48221 10.6875 2.31529 10.6184 2.19222 10.4953C2.06915 10.3722 2.00001 10.2053 2.00001 10.0313V5.99999C2.00001 4.89542 2.89365 4 3.99822 4H14V4.5C14 5.05228 14.4477 5.5 15 5.5ZM16 10.5C16 11.0523 15.5523 11.5 15 11.5C14.4477 11.5 14 11.0523 14 10.5C14 9.94772 14.4477 9.5 15 9.5C15.5523 9.5 16 9.94772 16 10.5ZM15 14.5C15.5523 14.5 16 14.0523 16 13.5C16 12.9477 15.5523 12.5 15 12.5C14.4477 12.5 14 12.9477 14 13.5C14 14.0523 14.4477 14.5 15 14.5ZM16 16.5C16 17.0523 15.5523 17.5 15 17.5C14.4477 17.5 14 17.0523 14 16.5C14 15.9477 14.4477 15.5 15 15.5C15.5523 15.5 16 15.9477 16 16.5ZM16 7.5C16 8.05228 15.5523 8.5 15 8.5C14.4477 8.5 14 8.05228 14 7.5C14 6.94772 14.4477 6.5 15 6.5C15.5523 6.5 16 6.94772 16 7.5Z" fill="currentColor"/>
</svg>
